<?xml version="1.0" standalone="no"?>
<!DOCTYPE svg PUBLIC "-//W3C//DTD SVG 20010904//EN"
 "http://www.w3.org/TR/2001/REC-SVG-20010904/DTD/svg10.dtd">
<svg version="1.0" xmlns="http://www.w3.org/2000/svg"
 width="520.000000pt" height="520.000000pt" viewBox="0 0 520.000000 520.000000"
 preserveAspectRatio="xMidYMid meet">
<metadata>
Created by potrace 1.11, written by Peter Selinger 2001-2013
</metadata>
<g transform="translate(0.000000,520.000000) scale(0.100000,-0.100000)"
fill="#000000" stroke="none">
<path d="M935 4430 c-9 -10 -17 -32 -17 -47 -1 -27 2 -44 22 -162 6 -30 10
-56 10 -58 0 -2 -8 -3 -19 -3 -15 0 -20 10 -25 58 -4 31 -9 73 -12 92 -9 72
-60 106 -111 73 -25 -17 -25 -19 -20 -97 4 -45 8 -90 11 -101 2 -11 7 -47 11
-80 9 -83 12 -103 20 -155 4 -25 8 -54 10 -65 1 -11 3 -23 4 -27 0 -5 7 -8 15
-8 7 0 16 -13 20 -30 4 -21 11 -30 25 -30 13 0 25 -12 34 -32 127 -287 213
-447 362 -673 51 -77 131 -189 178 -249 l86 -108 -19 -37 c-10 -21 -15 -42
-12 -48 4 -5 53 -10 115 -11 59 0 116 -1 126 -1 18 -1 19 -15 19 -415 0 -228
2 -419 6 -424 4 -6 24 -10 46 -9 22 2 41 -1 41 -5 1 -4 3 -12 4 -18 1 -5 3
-19 4 -30 0 -11 7 -20 15 -20 12 0 14 -30 13 -170 -1 -133 -4 -170 -14 -170
-12 0 -17 -18 -14 -47 1 -7 -8 -17 -19 -23 -19 -10 -20 -20 -20 -162 l0 -152
-31 -32 c-31 -32 -44 -89 -27 -117 8 -13 501 -18 521 -5 9 5 12 72 13 234 0
211 -1 227 -18 232 -13 3 -18 14 -18 38 0 24 -5 34 -15 34 -14 0 -22 42 -15
75 1 6 1 33 0 60 0 28 -1 56 -1 63 1 22 1 41 0 89 -1 33 3 50 15 58 9 7 16 24
16 39 0 14 3 26 8 27 10 1 444 1 457 0 6 -1 12 -13 13 -27 2 -32 11 -46 23
-39 5 4 9 -4 10 -17 0 -29 0 -298 0 -315 -1 -7 -8 -13 -16 -13 -13 0 -21 -31
-16 -62 0 -5 -6 -8 -14 -8 -8 0 -16 -3 -16 -7 -7 -44 -2 -456 6 -461 11 -7
493 -11 513 -4 7 2 12 22 12 51 0 39 -5 52 -30 76 l-30 29 0 158 c0 147 -1
158 -19 158 -14 0 -18 6 -15 25 1 14 -5 33 -14 42 -14 14 -17 42 -17 177 -1
144 1 162 17 174 12 9 17 22 14 38 -3 14 0 24 7 25 7 1 26 2 44 3 42 2 46 7
45 60 -1 42 1 45 21 42 20 -3 78 28 85 46 10 23 23 0 47 -79 61 -204 82 -243
126 -243 10 0 30 11 45 24 l28 23 -18 69 c-10 38 -22 78 -27 89 -16 35 -15 69
2 72 11 3 19 -9 27 -39 42 -162 61 -200 102 -206 31 -5 67 16 74 42 3 12 -8
67 -25 121 -37 121 -38 128 -19 132 12 3 23 -20 44 -88 30 -101 40 -116 81
-123 29 -5 75 30 75 57 0 19 -118 395 -134 427 -7 14 -17 24 -23 23 -6 -1 -16
11 -23 27 -9 22 -19 30 -37 30 -13 0 -26 7 -30 18 -41 113 -200 454 -215 460
-5 2 -8 8 -8 13 0 5 -18 38 -40 74 -22 36 -40 69 -40 74 0 5 -3 11 -8 13 -4 2
-29 38 -55 80 l-48 78 63 77 c35 43 65 80 68 83 33 31 46 62 44 109 -1 50 -1
51 30 52 17 1 38 1 48 0 26 -3 33 18 33 104 l0 80 144 1 c137 0 144 -1 158
-22 32 -50 103 -52 136 -4 29 42 2 115 -47 122 -33 6 -72 -11 -86 -36 -12 -23
-15 -23 -158 -22 l-147 1 0 82 c-1 45 -5 86 -9 90 -4 4 -24 9 -44 9 -21 1 -42
2 -48 3 -6 0 -10 30 -11 74 0 109 -8 142 -53 243 -22 48 -132 164 -156 164 -8
0 -14 3 -14 8 0 9 -69 37 -128 52 -55 14 -153 11 -217 -7 -55 -16 -136 -60
-175 -96 -31 -28 -90 -102 -90 -113 -1 -17 -38 -58 -56 -60 -11 -2 -35 -6 -54
-8 -19 -3 -51 -7 -70 -10 -63 -9 -104 -15 -165 -21 -33 -4 -76 -10 -95 -14
-27 -6 -39 -4 -53 9 -44 42 -158 81 -219 74 -53 -6 -128 -27 -128 -36 0 -4 -6
-8 -14 -8 -19 0 -100 -80 -122 -121 -9 -19 -23 -56 -29 -84 l-12 -50 -46 -1
c-26 0 -50 -4 -54 -8 -4 -4 -8 -44 -8 -89 l0 -82 -82 -1 -83 -1 -45 88 c-25
48 -45 89 -45 92 0 3 9 7 20 10 15 4 20 14 20 40 0 22 6 37 16 41 8 3 13 10
10 15 -3 5 17 24 45 42 90 57 107 89 73 137 -19 27 -64 29 -105 5 -15 -9 -31
-15 -33 -12 -4 4 -11 50 -21 144 -1 11 -5 36 -8 55 -4 19 -8 51 -11 70 -6 51
-15 67 -39 74 -37 10 -52 7 -76 -15 -25 -23 -25 -48 -5 -196 6 -45 4 -53 -10
-53 -9 0 -16 3 -17 8 -1 4 -2 18 -4 32 -3 23 -9 75 -20 159 -2 18 -12 42 -21
52 -23 25 -76 25 -99 -1z"/>
</g>
</svg>
