<?xml version="1.0" standalone="no"?>
<!DOCTYPE svg PUBLIC "-//W3C//DTD SVG 20010904//EN"
 "http://www.w3.org/TR/2001/REC-SVG-20010904/DTD/svg10.dtd">
<svg version="1.0" xmlns="http://www.w3.org/2000/svg"
 width="700.000000pt" height="700.000000pt" viewBox="0 0 700.000000 700.000000"
 preserveAspectRatio="xMidYMid meet">
<metadata>
Created by potrace 1.11, written by Peter Selinger 2001-2013
</metadata>
<g transform="translate(0.000000,700.000000) scale(0.100000,-0.100000)"
fill="#000000" stroke="none">
<path d="M1602 5857 c-27 -29 -28 -61 -5 -230 15 -112 15 -129 3 -137 -8 -6
-19 -8 -25 -7 -5 2 -17 64 -27 138 -16 120 -20 136 -43 157 -59 50 -145 12
-145 -65 0 -51 76 -618 84 -632 4 -6 16 -11 27 -11 13 0 19 -7 19 -24 0 -41
11 -56 40 -56 25 0 30 -7 65 -92 175 -427 444 -874 771 -1280 l46 -57 -27 -49
c-15 -28 -24 -55 -21 -61 5 -7 67 -11 182 -11 l174 0 0 -569 c0 -639 -8 -581
81 -581 l49 0 0 -41 c0 -32 4 -42 20 -46 19 -5 20 -14 20 -233 0 -220 -1 -229
-20 -235 -16 -5 -20 -15 -20 -51 0 -36 -3 -44 -19 -44 -10 0 -22 -7 -25 -16
-3 -9 -6 -104 -6 -213 l0 -197 -40 -39 c-38 -37 -40 -42 -40 -101 0 -47 4 -63
16 -68 24 -9 677 -7 692 2 9 7 12 77 10 318 l-3 309 -22 3 c-20 3 -23 9 -23
47 0 35 -4 45 -20 50 -19 6 -20 15 -20 235 0 219 1 228 20 233 16 4 20 14 20
46 l0 41 325 0 325 0 0 -41 c0 -32 4 -42 20 -46 19 -5 20 -14 20 -233 0 -220
-1 -229 -20 -235 -16 -5 -20 -15 -20 -51 0 -36 -3 -44 -19 -44 -10 0 -22 -7
-25 -16 -3 -9 -6 -148 -6 -309 0 -281 1 -295 19 -305 23 -12 669 -14 688 -2 6
4 13 33 14 65 3 55 1 59 -39 100 l-42 42 -2 210 c-3 209 -3 210 -25 213 -20 3
-23 9 -23 47 0 35 -4 45 -20 50 -19 6 -20 15 -20 235 0 219 1 228 20 233 16 4
20 14 20 46 l0 41 49 0 c79 0 81 3 81 82 l0 70 29 -7 c35 -7 63 5 108 48 l32
30 10 -26 c5 -14 35 -105 66 -202 32 -98 66 -186 76 -196 29 -29 64 -34 101
-12 56 33 57 56 9 210 -43 137 -43 152 -5 153 6 0 32 -67 58 -148 51 -163 70
-192 125 -192 37 0 91 46 91 77 0 10 -21 85 -46 166 -39 123 -45 151 -33 158
8 5 19 9 25 9 6 0 28 -56 49 -125 42 -139 64 -169 120 -169 45 0 85 36 85 78
0 33 -166 572 -183 594 -5 7 -17 10 -27 7 -13 -4 -21 5 -33 36 -15 37 -19 41
-46 37 -29 -4 -30 -3 -77 116 -103 262 -283 607 -449 863 l-74 112 120 148
119 147 0 73 0 73 69 0 c54 0 70 4 75 16 3 9 6 65 6 125 l0 109 198 0 197 0
13 -28 c15 -34 50 -55 92 -55 44 0 77 21 96 61 14 29 14 41 5 73 -27 90 -146
101 -195 19 l-17 -30 -195 0 -194 0 0 109 c0 60 -3 116 -6 125 -5 12 -21 16
-75 16 l-69 0 0 103 c0 128 -19 219 -66 312 -69 142 -197 252 -349 302 -66 22
-99 26 -185 27 -118 0 -163 -10 -269 -61 -93 -44 -211 -159 -259 -250 -22 -42
-41 -65 -55 -68 -44 -10 -534 -75 -564 -75 -17 0 -36 7 -43 15 -6 8 -31 25
-55 38 -138 78 -292 77 -431 0 -99 -56 -187 -181 -202 -290 l-7 -48 -70 -5
-70 -5 -5 -120 -5 -120 -105 -3 c-58 -1 -110 1 -116 5 -12 8 -106 192 -118
229 -5 17 -2 23 19 28 22 6 25 12 25 50 0 35 4 45 20 49 13 3 20 14 20 29 0
18 13 31 55 56 110 66 138 106 115 163 -14 33 -71 63 -103 53 -12 -4 -39 -18
-59 -30 l-38 -24 -4 22 c-3 13 -17 110 -31 217 -29 225 -36 241 -111 241 -34
0 -47 -5 -63 -26 -25 -32 -26 -70 -6 -209 19 -129 19 -125 -10 -125 -14 0 -25
4 -25 8 0 36 -42 297 -50 312 -24 45 -102 55 -138 17z m88 -33 c8 -8 24 -90
36 -181 23 -170 30 -186 69 -178 11 2 37 7 58 10 44 7 44 5 21 166 -18 132
-16 178 9 193 38 23 51 -17 80 -239 16 -114 26 -210 23 -212 -3 -3 -65 -14
-138 -24 -73 -10 -134 -18 -135 -18 -2 -1 -3 -10 -3 -21 0 -25 13 -25 184 -3
121 15 136 20 193 56 66 41 97 43 108 6 9 -27 -2 -38 -95 -99 -44 -29 -80 -59
-80 -66 0 -7 -15 -16 -32 -19 -82 -13 -501 -66 -504 -63 -5 6 -74 538 -74 574
0 44 31 63 58 36 13 -13 22 -52 35 -150 10 -72 20 -139 24 -147 4 -13 16 -15
62 -10 31 4 61 13 67 20 7 10 4 61 -12 182 -21 154 -21 169 -7 185 20 22 37
23 53 2z m2804 -104 c98 -25 165 -61 237 -128 309 -285 196 -800 -204 -927
-198 -63 -410 -11 -557 135 -219 218 -214 572 11 784 144 137 325 184 513 136z
m-1433 -363 c149 -72 240 -244 211 -398 -24 -132 -96 -227 -212 -283 -59 -28
-74 -31 -160 -31 -86 0 -101 3 -160 31 -302 144 -285 569 29 695 72 30 218 23
292 -14z m713 -29 c-3 -13 -8 -24 -9 -26 -1 -1 -114 -13 -251 -26 -174 -17
-253 -21 -262 -14 -7 6 -10 13 -8 16 6 6 451 69 499 71 35 1 38 -1 31 -21z
m-12 -126 c-16 -386 355 -687 736 -597 145 34 298 147 375 276 l37 64 0 -278
0 -277 -1195 0 -1195 0 0 212 0 211 28 -39 c159 -217 453 -246 647 -63 125
118 165 318 96 475 -12 26 -20 48 -19 49 4 4 406 42 453 44 l40 1 -3 -78z
m-1782 -81 c0 -23 -3 -24 -215 -51 -88 -11 -174 -22 -191 -25 -26 -4 -33 -2
-37 15 -3 11 -2 20 1 21 4 0 97 13 207 29 249 35 235 34 235 11z m-47 -95 c4
-11 -25 -21 -126 -45 -73 -17 -142 -34 -154 -37 -18 -5 -25 -1 -33 21 -6 15
-9 30 -6 32 5 5 245 40 287 42 15 1 29 -5 32 -13z m29 -70 c3 -19 -47 -43
-239 -119 l-42 -17 -21 47 c-11 25 -18 49 -14 52 3 3 69 22 147 42 148 38 161
37 169 -5z m508 -186 l0 -220 -50 0 -49 0 0 220 0 220 49 0 50 0 0 -220z
m2590 0 l0 -220 -50 0 -50 0 0 220 0 220 50 0 50 0 0 -220z m-3055 101 c14
-28 21 -52 17 -55 -22 -13 -267 -116 -278 -116 -10 0 -59 99 -52 106 5 4 273
113 280 114 4 0 19 -22 33 -49z m3645 -61 c11 -11 20 -29 20 -40 0 -24 -34
-60 -55 -60 -20 0 -65 45 -65 65 0 21 36 55 60 55 11 0 29 -9 40 -20z m-3587
-48 c9 -21 17 -41 17 -44 0 -7 -271 -160 -275 -156 -16 19 -55 112 -48 118 10
10 265 119 279 120 5 0 18 -17 27 -38z m267 -137 l5 -120 68 -3 67 -3 0 -72 0
-73 120 -148 121 -147 -28 -45 c-15 -24 -30 -44 -33 -44 -9 1 -172 217 -258
343 -80 117 -243 383 -258 420 -6 16 1 18 92 15 l99 -3 5 -120z m-212 36 c17
-30 19 -41 9 -49 -19 -15 -256 -162 -262 -162 -8 0 -46 81 -43 91 3 9 252 155
269 158 3 1 15 -16 27 -38z m60 -102 c13 -22 22 -42 20 -43 -187 -118 -270
-166 -278 -161 -14 9 -42 64 -38 76 4 11 248 167 263 168 6 1 20 -18 33 -40z
m50 -84 c7 -14 12 -28 12 -29 0 -5 -240 -177 -255 -183 -7 -2 -22 12 -34 32
l-21 36 67 42 c37 23 97 61 133 84 36 22 70 42 76 42 6 1 16 -10 22 -24z m67
-106 c9 -17 15 -32 13 -33 -2 -1 -56 -42 -122 -90 -65 -48 -124 -90 -131 -92
-13 -6 -45 31 -45 52 0 12 247 194 262 194 4 0 15 -14 23 -31z m1591 -79 c484
-22 889 -41 900 -43 20 -2 15 -11 -44 -84 l-65 -83 -169 0 c-161 0 -168 -1
-168 -20 0 -19 8 -20 168 -22 l167 -3 77 -115 c72 -107 229 -373 244 -412 6
-17 -59 -18 -1280 -18 l-1286 0 30 60 c40 80 169 294 242 402 l58 88 283 2
c243 3 282 5 282 18 0 13 -41 16 -287 20 -157 3 -288 7 -291 10 -43 52 -185
229 -192 239 -11 19 197 13 1331 -39z m985 33 c-5 -10 -20 -28 -33 -39 l-23
-21 -715 33 c-393 18 -737 35 -765 37 -27 2 309 4 748 5 757 2 797 1 788 -15z
m-2523 -33 c12 -16 22 -33 22 -37 0 -7 -242 -195 -258 -200 -7 -3 -52 62 -52
74 0 9 249 193 260 193 3 0 16 -13 28 -30z m81 -127 c0 -9 -237 -197 -254
-201 -9 -2 -50 54 -50 70 0 3 58 51 130 106 l129 100 23 -33 c13 -19 23 -38
22 -42z m60 -73 c0 -5 -203 -173 -241 -199 -18 -13 -22 -13 -39 10 -10 13 -19
29 -19 36 0 6 57 57 128 112 l127 101 22 -28 c13 -15 23 -29 22 -32z m54 -66
c10 -13 17 -29 15 -34 -2 -5 -59 -56 -126 -115 l-124 -105 -18 23 c-11 13 -20
29 -22 35 -3 9 238 221 252 221 3 0 13 -11 23 -25z m68 -85 c7 -15 -10 -50
-82 -171 -51 -84 -92 -154 -93 -155 -2 -3 -98 116 -109 133 -5 9 33 47 120
122 132 113 139 116 164 71z m663 -516 c-57 -131 -69 -246 -36 -364 25 -88 63
-152 134 -221 96 -95 202 -138 336 -138 129 0 230 36 326 117 160 135 216 376
131 568 l-24 55 262 -2 262 -3 0 -545 0 -545 -950 0 -950 0 -3 535 c-1 294 0
541 3 548 3 9 65 12 261 12 240 0 256 -1 248 -17z m79 -28 c-117 -210 -31
-475 187 -578 84 -40 208 -49 291 -22 247 82 362 349 249 580 -16 33 -27 61
-25 63 12 13 39 -14 61 -61 92 -203 22 -444 -166 -562 -203 -128 -476 -69
-609 132 -81 122 -95 295 -34 426 24 50 37 67 52 67 19 0 18 -2 -6 -45z m680
27 c9 -10 29 -44 44 -77 25 -53 28 -72 28 -155 0 -86 -3 -101 -32 -162 -118
-249 -436 -312 -631 -125 -83 80 -123 173 -123 287 0 80 15 136 57 207 l25 43
308 0 c282 0 309 -1 324 -18z m1012 -11 l15 -30 -143 -55 c-78 -31 -147 -56
-153 -56 -27 0 -68 143 -47 163 3 4 75 7 159 7 l153 0 16 -29z m55 -112 c8
-17 9 -33 4 -38 -5 -4 -74 -31 -153 -60 -158 -57 -159 -57 -165 10 -1 12 254
117 285 118 9 1 22 -13 29 -30z m44 -95 c9 -21 13 -41 9 -45 -7 -7 -295 -109
-307 -109 -5 0 -29 80 -25 84 8 8 274 105 290 105 8 1 23 -15 33 -35z m-319
-234 c51 -133 51 -136 32 -151 -18 -13 -19 -19 -8 -51 13 -41 19 -33 -101
-138 l-38 -32 1 318 1 319 30 -65 c17 -36 54 -126 83 -200z m360 134 c8 -20
15 -40 15 -45 0 -6 -295 -109 -314 -109 -7 0 -30 79 -25 84 5 5 290 104 301
105 4 1 15 -15 23 -35z m40 -101 c8 -20 13 -38 11 -40 -2 -3 -75 -26 -160 -53
-168 -51 -167 -51 -177 4 -4 18 38 35 308 125 2 1 10 -15 18 -36z m105 -111
c0 -13 -46 -31 -210 -83 -197 -62 -210 -65 -216 -47 -3 11 -4 21 -2 23 9 9
414 133 420 129 5 -3 8 -13 8 -22z m105 -172 c21 -66 36 -122 34 -124 -2 -2
-49 -17 -104 -34 -55 -17 -165 -51 -245 -76 -80 -25 -150 -46 -155 -46 -10 0
-88 231 -81 238 5 4 489 160 502 161 6 1 28 -53 49 -119z m-579 -126 c6 -34 3
-39 -37 -75 -52 -45 -75 -48 -91 -13 -11 24 -9 29 45 81 31 30 61 52 66 48 6
-3 13 -22 17 -41z m669 -160 c38 -123 40 -150 13 -168 -29 -18 -53 18 -87 131
-17 56 -34 109 -37 116 -4 12 31 31 68 36 4 1 23 -51 43 -115z m-209 -101 c48
-153 49 -175 7 -181 -11 -2 -25 3 -31 11 -6 7 -31 76 -55 153 l-44 139 31 12
c17 6 34 12 38 12 4 1 28 -65 54 -146z m-222 -57 c30 -96 37 -132 29 -144 -15
-24 -50 -27 -62 -5 -12 23 -81 236 -81 251 0 11 48 32 65 28 5 -1 28 -60 49
-130z m-1754 -6 c0 -19 -7 -20 -220 -20 -213 0 -220 1 -220 20 0 19 7 20 220
20 213 0 220 -1 220 -20z m1190 0 c0 -19 -7 -20 -220 -20 -213 0 -220 1 -220
20 0 19 7 20 220 20 213 0 220 -1 220 -20z m-1230 -105 l0 -35 -180 0 -180 0
0 35 0 35 180 0 180 0 0 -35z m1190 0 l0 -35 -180 0 -180 0 0 35 0 35 180 0
180 0 0 -35z m-1190 -80 l0 -35 -180 0 -180 0 0 35 0 35 180 0 180 0 0 -35z
m1190 0 l0 -35 -180 0 -180 0 0 35 0 35 180 0 180 0 0 -35z m-1190 -120 l0
-35 -180 0 -180 0 0 35 0 35 180 0 180 0 0 -35z m1190 0 l0 -35 -180 0 -180 0
0 35 0 35 180 0 180 0 0 -35z m-1190 -95 l0 -40 -180 0 -180 0 0 40 0 40 180
0 180 0 0 -40z m1190 0 l0 -40 -180 0 -180 0 0 40 0 40 180 0 180 0 0 -40z
m-1190 -95 l0 -35 -180 0 -180 0 0 35 0 35 180 0 180 0 0 -35z m1190 0 l0 -35
-180 0 -180 0 0 35 0 35 180 0 180 0 0 -35z m-1150 -110 l0 -25 -220 0 -220 0
0 25 0 25 220 0 220 0 0 -25z m1190 0 l0 -25 -220 0 -220 0 0 25 0 25 220 0
220 0 0 -25z m-1140 -345 l0 -270 -65 0 -65 0 0 38 c0 21 -5 43 -12 50 -9 9
-68 12 -205 12 l-193 0 0 220 0 220 270 0 270 0 0 -270z m1190 50 l0 -220
-193 0 c-137 0 -196 -3 -205 -12 -7 -7 -12 -29 -12 -50 l0 -38 -65 0 -65 0 0
270 0 270 270 0 270 0 0 -220z m-1370 -295 l0 -25 -219 0 c-220 0 -240 3 -227
35 4 13 42 15 226 15 l220 0 0 -25z m1455 0 c0 -19 -8 -20 -222 -23 l-223 -2
0 25 0 25 223 -2 c214 -3 222 -4 222 -23z"/>
<path d="M4300 5680 c-115 -14 -212 -62 -297 -148 -94 -96 -137 -204 -136
-347 0 -141 43 -246 143 -345 195 -196 504 -196 699 -1 96 96 143 208 143 344
2 303 -253 532 -552 497z m181 -44 c135 -41 237 -128 296 -253 34 -70 38 -88
41 -174 6 -149 -38 -258 -143 -358 -225 -213 -599 -144 -731 134 -123 258 6
559 276 646 67 22 197 24 261 5z"/>
<path d="M4235 5616 c-218 -69 -348 -273 -316 -494 36 -240 271 -413 509 -373
169 29 302 144 357 310 19 59 22 178 5 241 -40 149 -158 270 -307 315 -58 18
-193 18 -248 1z m240 -102 c17 -8 22 -12 13 -9 -10 2 -18 0 -18 -4 0 -13 34
-24 38 -12 9 27 104 -52 148 -121 28 -43 30 -56 9 -38 -16 14 -20 3 -6 -19 5
-7 14 -11 19 -7 13 8 25 -47 26 -114 1 -31 -3 -44 -11 -42 -8 1 -13 -9 -12
-25 0 -25 1 -26 9 -8 5 13 9 14 9 5 0 -19 -17 -59 -18 -42 -1 22 -21 2 -21
-21 0 -18 2 -19 10 -7 5 8 10 10 10 4 0 -6 -14 -32 -31 -57 -63 -96 -175 -156
-291 -157 -53 0 -66 3 -62 14 3 8 -3 16 -15 19 -12 3 -21 1 -21 -4 0 -5 5 -9
12 -9 6 0 9 -2 7 -5 -10 -9 -47 8 -43 20 6 16 -27 30 -36 15 -11 -17 -90 48
-128 105 -22 33 -29 51 -21 55 8 6 8 13 0 26 -10 18 -10 18 -11 -1 l-1 -20 -9
20 c-12 28 -12 47 0 40 6 -3 10 3 10 14 0 26 -17 36 -23 14 -3 -10 -5 10 -6
44 -1 49 2 61 13 57 8 -3 16 3 19 15 6 23 -8 29 -16 9 -4 -9 -6 -8 -6 2 -1 24
36 98 69 140 26 33 115 100 133 100 4 0 4 -7 0 -16 -5 -14 -3 -15 17 -4 17 9
19 14 10 20 -9 6 0 11 26 15 21 4 44 8 49 10 19 8 120 -7 150 -21z"/>
<path d="M4340 5520 c0 -5 9 -10 20 -10 11 0 20 5 20 10 0 6 -9 10 -20 10 -11
0 -20 -4 -20 -10z"/>
<path d="M4280 5511 c0 -5 9 -7 20 -4 11 3 20 7 20 9 0 2 -9 4 -20 4 -11 0
-20 -4 -20 -9z"/>
<path d="M4415 5510 c27 -12 35 -12 35 0 0 6 -12 10 -27 9 -25 0 -26 -1 -8 -9z"/>
<path d="M4170 5470 c-8 -5 -12 -11 -9 -14 3 -3 14 1 25 9 21 16 8 20 -16 5z"/>
<path d="M4532 5468 c5 -15 28 -23 28 -10 0 5 -7 13 -16 16 -10 4 -14 1 -12
-6z"/>
<path d="M4115 5429 c-12 -19 5 -23 22 -6 16 16 16 17 1 17 -9 0 -20 -5 -23
-11z"/>
<path d="M4580 5432 c0 -5 7 -15 15 -22 8 -7 15 -8 15 -2 0 5 -7 15 -15 22 -8
7 -15 8 -15 2z"/>
<path d="M4082 5388 c-14 -14 -16 -28 -3 -28 9 0 24 30 18 36 -2 2 -9 -2 -15
-8z"/>
<path d="M4620 5381 c0 -5 7 -14 15 -21 16 -14 18 -10 9 14 -6 17 -24 22 -24
7z"/>
<path d="M4046 5324 c-10 -25 1 -29 14 -5 6 12 7 21 1 21 -5 0 -12 -7 -15 -16z"/>
<path d="M4677 5273 c-3 -5 -1 -17 4 -28 7 -17 8 -17 8 8 1 27 -4 34 -12 20z"/>
<path d="M4022 5200 c0 -14 2 -19 5 -12 2 6 2 18 0 25 -3 6 -5 1 -5 -13z"/>
<path d="M4680 5190 c0 -11 5 -20 10 -20 6 0 10 9 10 20 0 11 -4 20 -10 20 -5
0 -10 -9 -10 -20z"/>
<path d="M4070 5009 c7 -11 14 -19 16 -16 7 7 -7 37 -17 37 -6 0 -5 -9 1 -21z"/>
<path d="M4630 5011 c-7 -15 -7 -21 0 -21 12 0 25 28 17 36 -3 3 -10 -4 -17
-15z"/>
<path d="M4100 4971 c0 -5 7 -14 15 -21 16 -14 18 -10 9 14 -6 17 -24 22 -24
7z"/>
<path d="M4590 4961 c-7 -15 -7 -21 0 -21 12 0 25 28 17 36 -3 3 -10 -4 -17
-15z"/>
<path d="M4150 4932 c0 -5 7 -15 15 -22 8 -7 15 -8 15 -2 0 5 -7 15 -15 22 -8
7 -15 8 -15 2z"/>
<path d="M4540 4920 c-8 -5 -11 -12 -7 -16 4 -4 15 0 24 9 18 18 8 23 -17 7z"/>
<path d="M4484 4885 c-10 -8 -14 -14 -9 -15 15 0 40 18 34 24 -3 3 -14 -1 -25
-9z"/>
<path d="M4410 4860 c0 -13 11 -13 30 0 12 8 11 10 -7 10 -13 0 -23 -4 -23
-10z"/>
<path d="M4338 4853 c12 -2 30 -2 40 0 9 3 -1 5 -23 4 -22 0 -30 -2 -17 -4z"/>
<path d="M2804 5326 c-131 -43 -225 -167 -226 -299 0 -81 15 -135 55 -193 104
-151 313 -186 460 -78 194 142 162 448 -57 554 -60 28 -171 36 -232 16z m213
-46 c230 -101 229 -428 -2 -531 -69 -31 -161 -31 -233 1 -67 29 -135 103 -158
172 -21 65 -15 167 14 223 21 42 77 99 124 128 66 41 172 44 255 7z"/>
<path d="M2824 5280 c-56 -18 -127 -73 -159 -124 -28 -46 -30 -57 -30 -140 0
-102 11 -132 72 -192 131 -131 358 -94 438 72 23 48 31 145 16 200 -27 102
-133 184 -245 190 -33 2 -75 -1 -92 -6z m180 -124 c42 -32 61 -65 69 -121 3
-22 3 -32 1 -22 -3 9 -10 17 -15 17 -13 0 -11 -48 2 -52 7 -2 9 -13 5 -25 -19
-60 -96 -113 -165 -113 -49 0 -78 10 -60 20 8 6 5 11 -11 20 -20 11 -22 10
-16 -5 6 -16 5 -16 -16 -3 -35 23 -66 75 -73 123 -9 54 18 119 64 158 32 27
58 36 46 17 -3 -5 1 -10 9 -10 20 0 29 17 14 24 -7 3 15 5 49 3 48 -3 68 -9
97 -31z"/>
<path d="M2898 5173 c6 -2 18 -2 25 0 6 3 1 5 -13 5 -14 0 -19 -2 -12 -5z"/>
<path d="M2955 5160 c3 -5 13 -10 21 -10 8 0 12 5 9 10 -3 6 -13 10 -21 10 -8
0 -12 -4 -9 -10z"/>
<path d="M2785 5139 c-11 -17 1 -21 15 -4 8 9 8 15 2 15 -6 0 -14 -5 -17 -11z"/>
<path d="M3010 5125 c7 -8 17 -15 22 -15 6 0 5 7 -2 15 -7 8 -17 15 -22 15 -6
0 -5 -7 2 -15z"/>
<path d="M2750 5091 c-6 -12 -7 -21 -1 -21 10 0 24 30 17 37 -2 3 -9 -5 -16
-16z"/>
<path d="M3040 5076 c0 -8 5 -18 10 -21 6 -3 10 1 10 9 0 8 -4 18 -10 21 -5 3
-10 -1 -10 -9z"/>
<path d="M2730 5030 c0 -11 5 -20 10 -20 6 0 10 9 10 20 0 11 -4 20 -10 20 -5
0 -10 -9 -10 -20z"/>
<path d="M2740 4973 c0 -13 5 -23 10 -23 13 0 13 11 0 30 -8 12 -10 11 -10 -7z"/>
<path d="M3036 4944 c-10 -25 1 -29 14 -5 6 12 7 21 1 21 -5 0 -12 -7 -15 -16z"/>
<path d="M2760 4921 c0 -5 7 -14 15 -21 16 -14 18 -10 9 14 -6 17 -24 22 -24
7z"/>
<path d="M2994 4895 c-17 -13 -17 -14 -2 -15 9 0 20 5 23 11 11 17 0 20 -21 4z"/>
<path d="M2930 4860 c0 -13 11 -13 30 0 12 8 11 10 -7 10 -13 0 -23 -4 -23
-10z"/>
<path d="M2873 4853 c9 -2 23 -2 30 0 6 3 -1 5 -18 5 -16 0 -22 -2 -12 -5z"/>
<path d="M3827 4066 c-9 -22 2 -26 70 -26 56 0 63 2 63 20 0 18 -7 20 -64 20
-46 0 -65 -4 -69 -14z"/>
<path d="M4036 4065 c-8 -23 9 -26 125 -23 84 2 104 6 104 18 0 23 -220 28
-229 5z"/>
</g>
</svg>
