<?xml version="1.0" encoding="utf-8"?>
<!-- Generator: Adobe Illustrator 20.1.0, SVG Export Plug-In . SVG Version: 6.00 Build 0)  -->
<svg version="1.1" id="Слой_1" xmlns="http://www.w3.org/2000/svg" xmlns:xlink="http://www.w3.org/1999/xlink" x="0px" y="0px"
	 viewBox="0 0 1136.1 380" style="enable-background:new 0 0 1136.1 380;" xml:space="preserve">
<style type="text/css">
	.st0{fill:#F4E1A1;}
	.st1{fill:none;stroke:#817957;stroke-width:2;stroke-linecap:round;stroke-linejoin:round;stroke-miterlimit:10;}
	.st2{fill:none;stroke:#817957;stroke-linecap:round;stroke-linejoin:round;stroke-miterlimit:10;}
</style>
<g id="_x30_3">
	<rect x="1" y="1" class="st0" width="1134.1" height="378"/>
	<rect x="1" y="1" class="st1" width="1134.1" height="378"/>
	<polyline class="st1" points="31.4,21.1 1115,21.1 1115,317.6 21.1,317.6 21.1,31.4 	"/>
	<rect x="780.7" y="348.6" class="st1" width="177.2" height="30.4"/>
	<rect x="178.2" y="348.6" class="st1" width="177.2" height="30.4"/>
	<line class="st1" x1="61.6" y1="21.1" x2="61.6" y2="295.7"/>
	<line class="st1" x1="102.2" y1="21.1" x2="102.2" y2="295.7"/>
	<line class="st1" x1="142.7" y1="21.1" x2="142.7" y2="295.7"/>
	<line class="st1" x1="183.3" y1="21.1" x2="183.3" y2="295.7"/>
	<line class="st1" x1="223.9" y1="21.1" x2="223.9" y2="295.7"/>
	<line class="st1" x1="264.4" y1="21.1" x2="264.4" y2="295.7"/>
	<line class="st1" x1="305" y1="21.1" x2="305" y2="295.7"/>
	<line class="st1" x1="345.5" y1="21.1" x2="345.5" y2="295.7"/>
	<line class="st1" x1="386.1" y1="21.1" x2="386.1" y2="295.7"/>
	<line class="st1" x1="426.7" y1="21.1" x2="426.7" y2="295.7"/>
	<line class="st1" x1="467.2" y1="21.1" x2="467.2" y2="295.7"/>
	<line class="st1" x1="507.8" y1="21.1" x2="507.8" y2="295.7"/>
	<line class="st1" x1="548.4" y1="21.1" x2="548.4" y2="295.7"/>
	<line class="st1" x1="588.9" y1="21.1" x2="588.9" y2="295.7"/>
	<line class="st1" x1="629.5" y1="21.1" x2="629.5" y2="295.7"/>
	<line class="st1" x1="670" y1="21.1" x2="670" y2="295.7"/>
	<line class="st1" x1="710.6" y1="21.1" x2="710.6" y2="295.7"/>
	<line class="st1" x1="751.2" y1="21.1" x2="751.2" y2="295.7"/>
	<line class="st1" x1="791.7" y1="21.1" x2="791.7" y2="295.7"/>
	<line class="st1" x1="832.3" y1="21.1" x2="832.3" y2="295.7"/>
	<line class="st1" x1="872.8" y1="21.1" x2="872.8" y2="295.7"/>
	<line class="st1" x1="913.4" y1="21.1" x2="913.4" y2="295.7"/>
	<line class="st1" x1="954" y1="21.1" x2="954" y2="295.7"/>
	<line class="st1" x1="994.5" y1="21.1" x2="994.5" y2="295.7"/>
	<line class="st1" x1="1035.1" y1="21.1" x2="1035.1" y2="295.7"/>
	<line class="st1" x1="1075.6" y1="21.1" x2="1075.6" y2="295.7"/>
	<g>
		<path class="st2" d="M142.7,67.2c12-5.1,25.1-7.7,39.1-7.7c0.5,0,0.9,0,1.4,0 M223.9,68.6c6.6,3.1,12.9,7,19,11.6
			c3.5,2.8,5.6,6.4,6.3,10.9c0.6,4.6-0.6,8.7-3.4,12.3c-2.8,3.6-6.4,5.7-10.9,6.3c-4,0.5-7.7-0.3-11-2.3 M183.3,92.7
			c-0.5,0-0.9,0-1.4,0c-14.8,0-27.8,4.2-39.1,12.6 M142.7,213.5c11.3,8.4,24.4,12.7,39.1,12.7c0.5,0,0.9,0,1.4,0 M223.9,211.5
			c1-0.8,2-1.7,3.1-2.6c3.4-3.1,7.3-4.5,11.9-4.3c4.6,0.2,8.4,2,11.5,5.5c3.1,3.4,4.5,7.3,4.3,11.9c-0.2,4.6-2,8.4-5.3,11.5
			c-7.9,7.2-16.4,12.9-25.4,17.1 M183.3,259.3c-0.5,0-0.9,0-1.4,0c-14.1,0-27.1-2.6-39.1-7.7 M102.2,219.8
			C88.7,202.4,82,182.3,82,159.5c0-22.9,6.7-43,20.1-60.4"/>
		<path class="st2" d="M305,66c0.5-0.6,1-1.1,1.5-1.7c3.2-3.3,7-4.9,11.6-4.9s8.4,1.6,11.6,4.9c3.3,3.2,4.9,7,4.9,11.6v166.8
			c0,4.6-1.6,8.4-4.9,11.6c-3.2,3.3-7,4.9-11.6,4.9s-8.4-1.6-11.6-4.9c-0.5-0.5-1-1.1-1.5-1.7"/>
		<path class="st2" d="M467.2,134.7l27.4,45.2l13.2-21.8 M548.4,91.1l15-24.9c1.9-3.2,4.5-5.5,8-6.9c3.4-1.3,5.2-2,5.2-2
			s1.8,0.5,5.5,1.4c2.7,0.8,5,2.1,6.9,4 M588.9,254.8c-3.2,3-7,4.6-11.4,4.6c-4.6,0-8.5-1.6-11.7-4.9c-3.2-3.2-4.8-7-4.8-11.6V134
			l-12.7,20.9 M507.8,221.8l-0.3,0.5c-0.4,0.4-0.6,0.6-0.7,0.7c-0.1,0.1-0.3,0.3-0.6,0.6c-0.3,0.3-0.5,0.5-0.6,0.6
			c-0.2,0.2-0.5,0.4-0.8,0.7l-0.4,0.4c-0.3,0.2-0.6,0.4-1,0.6c0,0.1,0,0.1-0.1,0.1l-0.1,0.1H503c-0.2,0.2-0.5,0.4-1,0.6
			c-0.4,0.2-0.5,0.3-0.4,0.3c-0.1,0-0.4,0.1-0.8,0.3c-2.1,0.9-4.4,1.3-6.7,1.3h-0.3c0.2,0,0,0-0.6-0.1c-1.2-0.1-2.4-0.3-3.6-0.7
			c-0.5-0.1-0.7-0.1-0.6-0.1c0.2,0.1,0,0-0.6-0.1c-0.5-0.2-0.8-0.3-1-0.4c0.1,0,0-0.1-0.3-0.3c-0.5-0.2-0.8-0.4-1.1-0.6h-0.1
			l-0.1-0.1l-0.1-0.1c-0.4-0.2-0.7-0.4-1-0.7c0,0.1-0.1,0-0.4-0.3c-0.4-0.3-0.7-0.5-0.8-0.7c-0.1-0.1-0.3-0.3-0.6-0.6
			c-0.3-0.3-0.5-0.5-0.6-0.6c-0.1-0.2-0.3-0.4-0.7-0.7c-0.2-0.3-0.3-0.5-0.3-0.6c-0.2-0.2-0.4-0.5-0.7-1l-0.1-0.1
			c0-0.1,0-0.1-0.1-0.1v-0.1c0-0.1,0-0.1-0.1-0.1l-12.9-21.4 M426.7,249.8c-0.8,1.7-1.9,3.3-3.4,4.7c-3.3,3.3-7.2,4.9-11.7,4.9
			c-4.6,0-8.4-1.6-11.6-4.9c-3.3-3.2-4.9-7-4.9-11.6V74.7c0-3.7,1.1-7,3.4-9.9c2.2-3,5.2-5,8.8-6c3.5-0.9,7-0.7,10.5,0.6
			c3.5,1.4,6.2,3.7,8.1,6.9l0.9,1.5"/>
		<path class="st2" d="M710.6,63.3c9.9-3.2,20.4-4.8,31.7-4.8c3,0,6,0.1,8.9,0.3 M791.7,71.2c7.7,4.4,14.9,10,21.6,16.6
			c7.9,8,14.3,16.6,19,25.9 M832.3,204c-4.7,9.3-11,17.9-19,25.8c-6.7,6.7-13.9,12.3-21.6,16.7 M751.2,259c-2.9,0.2-5.9,0.4-8.9,0.4
			c-11.2,0-21.8-1.6-31.7-4.8 M670,228.5c-18.8-19.3-28.2-42.5-28.2-69.6c0-27.1,9.4-50.3,28.2-69.7 M710.6,218.6
			c9.5,5.2,20,7.8,31.7,7.8c3,0,6-0.2,8.9-0.5 M791.7,204.6c12-12.8,17.9-28,17.9-45.7s-6-33-17.9-45.8 M751.2,92
			c-2.9-0.4-5.9-0.5-8.9-0.5c-11.6,0-22.2,2.6-31.7,7.7"/>
		<path class="st2" d="M913.4,59.5C913.4,59.5,913.4,59.5,913.4,59.5c3.4,1,6.1,2.9,8.3,5.7l32.3,41.6 M994.5,159l27.7,35.7V75.3
			c0-4.6,1.6-8.4,4.8-11.6c2.4-2.4,5.1-3.9,8.1-4.5 M1035.2,259c-0.1,0-0.2-0.1-0.6-0.2c-0.5-0.1-0.8-0.2-1.1-0.3
			c-0.1,0-0.3-0.1-0.6-0.3c-0.5-0.1-0.8-0.2-1.1-0.4c-0.2,0-0.4-0.1-0.6-0.3c-0.4-0.2-0.7-0.3-1-0.4c-0.3-0.2-0.5-0.3-0.6-0.4
			c-0.3-0.2-0.6-0.4-1-0.7c-0.3-0.2-0.5-0.3-0.6-0.4c-0.5-0.4-0.9-0.7-1.3-1.1l-0.1-0.1v-0.1c-0.4-0.4-0.6-0.6-0.6-0.6
			s-0.1-0.2-0.4-0.6h-0.1v-0.1l-31.2-40.1 M954,160.6l-28.8-37v119.3c0,4.6-1.6,8.4-4.9,11.6c-2,2.1-4.3,3.5-6.9,4.2"/>
	</g>
	<line class="st1" x1="21.1" y1="295.7" x2="1115" y2="295.7"/>
	<rect x="1" y="1" class="st1" width="30.4" height="30.4"/>
	<polyline class="st1" points="1104.7,21.1 1104.7,1 1135.1,1 1135.1,31.4 1115,31.4 	"/>
	<rect x="1" y="348.6" class="st1" width="30.4" height="30.4"/>
	<rect x="1104.7" y="348.6" class="st1" width="30.4" height="30.4"/>
	<path class="st2" d="M1,13.9C10.1,13,18.8,8.5,24.8,1.6"/>
	<path class="st2" d="M1.5,24.2c10.6,0,21.1-3.5,29.5-9.8"/>
	<path class="st2" d="M1105.5,12.5c4.3-0.8,9.1-1.4,12.7,1.1c6,4.2,5.6,14.7,12.3,17.6"/>
	<path class="st2" d="M1105.6,6c7-1.7,14,2,20.9,3.9c3,0.8,6,1.3,9.1,1.5"/>
	<path class="st2" d="M1105.1,376.1c9.5-3.1,19.4-4.7,29.4-4.7"/>
	<path class="st2" d="M1104.9,371.1c9.7-3.4,19.5-6.2,29.6-8.4"/>
	<path class="st2" d="M1104.8,367.4c4.5-1.8,9-3.4,13.6-4.9c2.6-0.9,5.3-1.7,7.5-3.3c1.6-1.1,2.9-2.6,4.1-4c1.5-1.7,3.1-3.4,4.6-5.1
		"/>
	<path class="st2" d="M1,371.9c8,2.4,16,4.8,24,7.1"/>
	<path class="st2" d="M0.9,364c10.1,2.9,20.3,5.7,30.5,8.4"/>
	<path class="st2" d="M1,359.8c10.2,0.3,20.3,0.5,30.5,0.8"/>
	<path class="st2" d="M179.2,364.3c26.3-9.7,54.3-14.8,82.3-15.2"/>
	<path class="st2" d="M178.5,357.1c9.9-1.9,19.6-4.7,29.1-8.2"/>
	<path class="st2" d="M178.4,371.3c26.6-5,53.2-10,79.8-15c1.7,3.3,5.6,5,9.4,5.1c3.7,0.1,7.4-1.2,10.9-2.3
		c19.2-6.1,39.3-9.4,59.4-9.9"/>
	<path class="st2" d="M780.9,366.1c9.5-7.2,20-13,31.2-17.3"/>
	<path class="st2" d="M781.3,371.4c16.4-7.4,32.8-14.8,49.2-22.2"/>
	<path class="st2" d="M803.2,361.5c24.3-2.7,48.5-6.9,72.3-12.4"/>
	<path class="st2" d="M781.2,375.5c30.2-4.5,59.7-12.8,89.8-17.5c17.6-2.7,35.4-4.3,52.5-9"/>
	<path class="st2" d="M924.8,378.5c6.4-1.3,12.9-2.6,18.9-5.2c4.6-2,9-4.7,13.9-5.7"/>
	<line class="st2" x1="106.5" y1="20.8" x2="106.5" y2="295"/>
	<line class="st2" x1="191.5" y1="21.8" x2="191.5" y2="295.8"/>
	<path class="st2" d="M24.5,31.8c0,0.7,0,1.3,0,2v262.4"/>
	<line class="st2" x1="273.5" y1="20.8" x2="273.5" y2="295.1"/>
	<line class="st2" x1="353.5" y1="22.8" x2="353.5" y2="293"/>
	<line class="st2" x1="431.5" y1="20.8" x2="431.5" y2="297.2"/>
	<line class="st2" x1="541.5" y1="19.8" x2="541.5" y2="295.7"/>
	<line class="st2" x1="673.5" y1="20.8" x2="673.5" y2="295.7"/>
	<path class="st2" d="M878.5,20.8c0,0.7,0,1.3,0,2V296"/>
	<line class="st2" x1="1084.5" y1="20.8" x2="1084.5" y2="295.1"/>
	<line class="st2" x1="1108.5" y1="21.8" x2="1108.5" y2="295.7"/>
	<line class="st2" x1="31.5" y1="12.8" x2="1104.7" y2="12.8"/>
	<path class="st2" d="M21.5,302.8c2,0,4,0,6,0H1115"/>
	<line class="st2" x1="355.4" y1="360.8" x2="780.7" y2="360.8"/>
	<line class="st2" x1="957.9" y1="368.8" x2="1103.9" y2="368.8"/>
	<line class="st2" x1="1.5" y1="328.8" x2="1135.5" y2="328.8"/>
</g>
</svg>
