<?xml version="1.0" encoding="utf-8"?>
<!-- Generator: Adobe Illustrator 20.1.0, SVG Export Plug-In . SVG Version: 6.00 Build 0)  -->
<svg version="1.1" id="Слой_1" xmlns="http://www.w3.org/2000/svg" xmlns:xlink="http://www.w3.org/1999/xlink" x="0px" y="0px"
	 viewBox="0 0 613 744" style="enable-background:new 0 0 613 744;" xml:space="preserve">
<style type="text/css">
	.st0{fill:#F4E1A1;}
	.st1{fill:none;stroke:#817957;stroke-width:2;stroke-linecap:round;stroke-linejoin:round;stroke-miterlimit:10;}
	.st2{fill:none;stroke:#817957;stroke-linecap:round;stroke-linejoin:round;stroke-miterlimit:10;}
	
		.st3{fill:none;stroke:#817957;stroke-width:2;stroke-linecap:round;stroke-linejoin:round;stroke-miterlimit:10;stroke-dasharray:6.8508;}
</style>
<g id="_x30_4">
	<g>
		<polygon class="st0" points="366.5,715.8 366.5,687.1 290.3,687.1 290.3,679.7 120,679.7 120,687.1 43.7,687.1 43.7,744.4 
			395.2,744.4 395.2,715.8 		"/>
		<polyline class="st1" points="395.2,744.4 395.2,715.8 366.5,715.8 366.5,687.1 43.7,687.1 43.7,744.4 395.2,744.4 		"/>
		<rect x="120" y="679.7" class="st1" width="170.2" height="7.4"/>
		<g>
			<g>
				<circle class="st1" cx="157.8" cy="723.2" r="10.8"/>
				<circle class="st1" cx="157.8" cy="723.2" r="6.9"/>
			</g>
			<g>
				<circle class="st1" cx="103.8" cy="723.2" r="10.8"/>
				<circle class="st1" cx="103.8" cy="723.2" r="6.9"/>
			</g>
			<g>
				<circle class="st1" cx="130.8" cy="723.2" r="10.8"/>
				<circle class="st1" cx="130.8" cy="723.2" r="6.9"/>
			</g>
		</g>
		<line class="st1" x1="366.5" y1="701.5" x2="43.7" y2="701.5"/>
		<line class="st2" x1="280.2" y1="680.1" x2="280.2" y2="686.4"/>
		<line class="st2" x1="276.2" y1="680.4" x2="276.2" y2="686.1"/>
		<line class="st2" x1="251.5" y1="679.8" x2="251.5" y2="686.8"/>
		<path class="st2" d="M158,730.4c-0.1,1.3,0,2.6,0.5,3.8"/>
		<path class="st2" d="M161.5,729c0.8,0.6,1.7,1.2,2.5,1.8"/>
		<path class="st2" d="M164.2,725.4c1.1-0.1,2.3,0.1,3.4,0.4"/>
		<path class="st2" d="M163.9,719.7c0.5-1,1.5-1.8,2.6-2.1"/>
		<path class="st2" d="M159.3,712.8c0.1,1.1,0,2.2-0.2,3.3"/>
		<path class="st2" d="M152,714.5c0.5,0.9,1.1,1.7,1.7,2.5"/>
		<path class="st2" d="M148.2,720.5c0.6,0.2,1.2,0.3,1.8,0.5"/>
		<path class="st2" d="M150.9,725.4c-0.7,0.7-1.4,1.4-2.2,2.2"/>
		<path class="st2" d="M153.5,728.9c-0.6,0.8-1.3,1.6-2,2.3"/>
		<path class="st2" d="M131.7,730.4c0,1.1,0.3,2.2,0.7,3.2"/>
		<path class="st2" d="M135.5,728.3c1,0.7,2,1.4,3,2.1"/>
		<path class="st2" d="M137.5,725.2c1.1,0.2,2.2,0.5,3.3,0.7"/>
		<path class="st2" d="M137.2,719.1c0,0.3,1.5-1.7,2-2.2"/>
		<path class="st2" d="M131.8,712.6c0,1.1-0.2,2.1-0.6,3.1"/>
		<path class="st2" d="M124.5,715.1c0.6,0.7,1.1,1.4,1.7,2.2"/>
		<path class="st2" d="M120.2,720.7c1.1,0.2,2.2,0.3,3.3,0.4"/>
		<path class="st2" d="M124.2,725.3c-0.9,1.2-2.9,1.5-3.5,3"/>
		<path class="st2" d="M126.9,728.6c-0.3,1.3-0.7,2.5-1.2,3.7"/>
		<line class="st2" x1="43.5" y1="695.9" x2="366" y2="695.9"/>
		<path class="st2" d="M168.5,722.4c0.3,0,0.7,0,1,0H395"/>
	</g>
	<g>
		<path class="st0" d="M31.8,559.6c-16.6,0-30,13.4-30,30c0,12.3,7.4,22.9,18.1,27.6v8h8.4v0h-8.4v20h-5.5v5.7H8.9v30.6h5.5v5.7h5.5
			v57.4h23.9V625.2h-8.4v0h8.4v-8h0c10.6-4.6,18.1-15.2,18.1-27.6C61.8,573.1,48.4,559.6,31.8,559.6z"/>
		<g>
			<polyline class="st1" points="14.4,681.4 8.9,681.4 8.9,650.8 14.4,650.8 			"/>
			
				<rect x="-3.9" y="663.4" transform="matrix(5.651816e-11 1 -1 5.651816e-11 683.2131 649.0115)" class="st1" width="41.9" height="5.5"/>
		</g>
		<polyline class="st1" points="43.7,625.2 43.7,744.4 19.8,744.4 19.8,625.2 		"/>
		<polyline class="st1" points="43.7,617.2 43.7,625.2 19.8,625.2 19.8,617.2 		"/>
		<path class="st1" d="M43.7,617.2c10.6-4.6,18.1-15.2,18.1-27.6c0-16.6-13.4-30-30-30s-30,13.4-30,30c0,12.3,7.4,22.9,18.1,27.6"/>
		<path class="st1" d="M31.8,576.5L31.8,576.5c-2,0-3.5,1.6-3.5,3.5v45.1h7.1V580C35.3,578.1,33.7,576.5,31.8,576.5z"/>
		<line class="st1" x1="19.8" y1="629" x2="43.7" y2="629"/>
		<line class="st1" x1="19.8" y1="634.9" x2="43.7" y2="634.9"/>
		<g>
			<circle class="st1" cx="31.8" cy="652" r="6.9"/>
			<circle class="st1" cx="31.8" cy="652" r="4.3"/>
		</g>
		<g>
			<circle class="st1" cx="31.8" cy="680.2" r="6.9"/>
			<circle class="st1" cx="31.8" cy="680.2" r="4.3"/>
		</g>
		<line class="st1" x1="28.2" y1="744.4" x2="28.2" y2="707"/>
		<path class="st2" d="M33.5,686.9c0,0.2,0,0.3,0,0.5v56.1"/>
	</g>
	<g>
		<line class="st3" x1="83.6" y1="687.1" x2="83.6" y2="447.1"/>
		<line class="st3" x1="326.7" y1="447.1" x2="326.7" y2="687.1"/>
	</g>
	<g>
		<g>
			<polygon class="st0" points="80.8,49.3 66.1,49.3 66.1,258.3 80.8,258.3 80.8,233.2 98.4,233.2 98.4,188 80.8,188 			"/>
			<rect x="98.4" y="197.1" class="st0" width="9.9" height="9.9"/>
			<rect x="98.4" y="215" class="st0" width="9.9" height="9.9"/>
		</g>
		<rect x="66.1" y="49.3" class="st1" width="14.7" height="209"/>
		<g>
			<rect x="80.8" y="188" class="st1" width="17.6" height="45.2"/>
			<rect x="98.4" y="197.1" class="st1" width="9.9" height="9.9"/>
			<rect x="98.4" y="215" class="st1" width="9.9" height="9.9"/>
		</g>
		<path class="st1" d="M108.4,202.4c29.4-0.2,58.9,0.3,88.3,1.9"/>
		<path class="st1" d="M212,205.2c3.8,0.3,7.5,0.5,11.3,0.8c10.2,0.8,20.5,1.7,30.8,2.3"/>
		<path class="st1" d="M276.5,208.7c9.4-0.2,18.8-1.1,28.1-3c26.7-5.4,53.1-21.1,63.4-46.4"/>
		<path class="st1" d="M108.4,220.1c25.4-2.8,51.2,0.4,75.9,6.7c4.1,1.1,8.2,2.2,12.3,3.4"/>
		<path class="st1" d="M212,234.8c30.4,9.3,61,18.9,91.8,13.6c41.9-7.2,78.7-42.5,79.2-89"/>
		<line class="st2" x1="71.5" y1="49.4" x2="71.5" y2="257.5"/>
		<line class="st2" x1="85" y1="187.9" x2="85" y2="231.5"/>
		<path class="st2" d="M88,188.4c-0.3,13.8,0.7,27.7,2.9,41.3c0.2,1.3,0.4,2.6,0.8,3.8"/>
		<path class="st2" d="M102.5,197.4c0.2,3.3,0.2,6.7-0.2,10"/>
		<path class="st2" d="M103.3,215.9c-0.4,3-0.8,6-1.2,9"/>
	</g>
	<g>
		
			<rect x="434" y="156.6" transform="matrix(-1.345112e-10 1 -1 -1.345112e-10 616.0456 -262.7432)" class="st0" width="10.8" height="40"/>
		<path class="st1" d="M471.3,159.4v5.4c0,6.6-5.3,11.9-11.9,11.9h0"/>
		<path class="st1" d="M419.4,176.7L419.4,176.7c-6.6,0-11.9-5.3-11.9-11.9v-5.4"/>
		
			<rect x="434" y="156.6" transform="matrix(-1.345112e-10 1 -1 -1.345112e-10 616.0456 -262.7432)" class="st1" width="10.8" height="40"/>
		<line class="st1" x1="451.6" y1="182" x2="451.6" y2="171.3"/>
		<line class="st1" x1="427.2" y1="182" x2="427.2" y2="171.3"/>
	</g>
	<g>
		
			<rect x="181.1" y="67.3" transform="matrix(4.455642e-11 -1 1 4.455642e-11 99.223 273.8373)" class="st0" width="10.8" height="40"/>
		<path class="st1" d="M154.6,104.6v-5.4c0-6.6,5.3-11.9,11.9-11.9h0"/>
		<path class="st1" d="M206.5,87.3L206.5,87.3c6.6,0,11.9,5.3,11.9,11.9v5.4"/>
		
			<rect x="181.1" y="67.3" transform="matrix(4.455642e-11 -1 1 4.455642e-11 99.223 273.8373)" class="st1" width="10.8" height="40"/>
		<line class="st1" x1="174.3" y1="81.9" x2="174.3" y2="92.7"/>
		<line class="st1" x1="198.8" y1="81.9" x2="198.8" y2="92.7"/>
	</g>
	<g>
		<path class="st0" d="M270.8,0.7c-16.6,0-30,13.4-30,30c0,12.3,7.4,22.9,18.1,27.6v0v8v0v38.4h23.9V66.2v0v-8v0
			c10.6-4.6,18.1-15.2,18.1-27.6C300.9,14.1,287.4,0.7,270.8,0.7z"/>
		<polyline class="st1" points="282.8,66.2 282.8,104.6 258.9,104.6 258.9,66.2 		"/>
		<polyline class="st1" points="282.8,58.3 282.8,66.2 258.9,66.2 258.9,58.3 		"/>
		<path class="st1" d="M282.8,58.3c10.6-4.6,18.1-15.2,18.1-27.6c0-16.6-13.4-30-30-30s-30,13.4-30,30c0,12.3,7.4,22.9,18.1,27.6"/>
		<path class="st1" d="M270.8,17.6L270.8,17.6c-2,0-3.5,1.6-3.5,3.5v45.1h7.1V21.1C274.4,19.1,272.8,17.6,270.8,17.6z"/>
		<line class="st1" x1="258.9" y1="70.1" x2="282.8" y2="70.1"/>
		<line class="st1" x1="258.9" y1="75.9" x2="282.8" y2="75.9"/>
		<line class="st2" x1="278" y1="75.9" x2="278" y2="104"/>
		<line class="st2" x1="274" y1="76.4" x2="274" y2="104.6"/>
		<line class="st2" x1="264" y1="76.4" x2="264" y2="104.6"/>
	</g>
	<g>
		<rect x="80.8" y="104.6" class="st0" width="533" height="54.8"/>
		<polyline class="st1" points="613.8,159.4 80.8,159.4 80.8,104.6 613.8,104.6 		"/>
		<line class="st1" x1="81.5" y1="114.9" x2="613.8" y2="114.9"/>
		<line class="st1" x1="81.5" y1="120.4" x2="613.8" y2="120.4"/>
		<rect x="174.3" y="120.4" class="st1" width="74.2" height="21.5"/>
		<line class="st2" x1="174.5" y1="124.4" x2="247.2" y2="124.4"/>
		<line class="st2" x1="174.5" y1="137.9" x2="247.6" y2="137.9"/>
		<line class="st2" x1="86" y1="120.4" x2="86" y2="158"/>
		<line class="st2" x1="89.5" y1="120.4" x2="89.5" y2="158.6"/>
		<line class="st2" x1="89.5" y1="152.4" x2="613.8" y2="152.4"/>
		<line class="st1" x1="613.8" y1="104.6" x2="613.8" y2="159.4"/>
	</g>
	<g>
		<polygon class="st0" points="290.3,363.4 290.3,356 276.5,356 276.5,325.2 276.5,325.2 276.5,325.2 276.5,159.4 254.1,159.4 
			254.1,356 212,356 212,159.4 196.6,159.4 196.6,356 176.4,356 176.4,314.6 176.4,314.6 176.4,314.6 176.4,307.3 176.4,307.3 
			176.4,307.3 176.4,159.4 133.7,159.4 133.7,308.3 133.7,308.3 133.7,308.3 133.7,312.9 133.7,312.9 133.7,312.9 133.7,320.8 
			133.7,320.8 133.7,320.8 133.7,356 120,356 120,363.4 120,363.4 43.7,420.7 43.7,428.1 68.1,428.1 68.1,447.1 342.2,447.1 
			342.2,428.1 366.5,428.1 366.5,420.7 		"/>
		<rect x="120" y="356" class="st1" width="170.2" height="7.4"/>
		<rect x="43.7" y="420.7" class="st1" width="322.8" height="7.4"/>
		<polygon class="st1" points="43.7,420.7 366.5,420.7 290.3,363.4 120,363.4 		"/>
		<line class="st1" x1="254.1" y1="341.7" x2="212" y2="341.7"/>
		<line class="st1" x1="196.6" y1="341.7" x2="176.4" y2="341.7"/>
		<polyline class="st1" points="133.7,159.4 133.7,356 176.4,356 176.4,159.4 		"/>
		<polyline class="st1" points="212,159.4 212,356 196.6,356 196.6,159.4 		"/>
		<polyline class="st1" points="276.5,159.4 276.5,356 254.1,356 254.1,159.4 		"/>
		<g>
			<polyline class="st1" points="170.1,420.7 170.1,409.8 124.9,409.8 124.9,420.7 			"/>
			
				<rect x="134" y="399.9" transform="matrix(-1.358895e-10 -1 1 -1.358895e-10 -265.8446 543.7997)" class="st1" width="9.9" height="9.9"/>
			
				<rect x="152" y="399.9" transform="matrix(-1.338751e-10 -1 1 -1.338751e-10 -247.8499 561.7944)" class="st1" width="9.9" height="9.9"/>
		</g>
		<rect x="68.1" y="428.1" class="st1" width="274" height="19"/>
		<line class="st1" x1="270.1" y1="363.4" x2="308.3" y2="420.7"/>
		<line class="st1" x1="249.4" y1="363.4" x2="265" y2="420.7"/>
		<line class="st1" x1="239.2" y1="363.4" x2="246.6" y2="420.7"/>
		<line class="st1" x1="139.1" y1="363.4" x2="80.8" y2="420.7"/>
		<line class="st1" x1="205.3" y1="363.4" x2="205.3" y2="420.7"/>
		<line class="st1" x1="210.7" y1="428.1" x2="210.7" y2="447.1"/>
		<line class="st1" x1="252.1" y1="428.1" x2="252.1" y2="447.1"/>
		<line class="st1" x1="272" y1="428.1" x2="272" y2="447.1"/>
		<line class="st1" x1="313.8" y1="428.1" x2="313.8" y2="447.1"/>
		<path class="st1" d="M139.2,398.8c-1.1-5.6-4.9-10.4-9.2-14.2c-4.3-3.8-9.3-6.8-13.8-10.4c-10.2-8.3-17.7-19.8-21.3-32.4"/>
		<path class="st1" d="M157.6,399.4c0.7-4.3-1.4-8.9-5.1-11.2c-1.4-0.9-3.1-1.5-4.8-1.4c-2.8,0.2-5.2,2.4-6.5,5
			c-1.2,2.5-1.6,5.3-1.8,8.1"/>
		<path class="st1" d="M254.1,348.4c7.5-0.5,15-0.5,22.5,0"/>
		<path class="st1" d="M254.1,336c7.5-0.8,15-1.6,22.5-2.6"/>
		<path class="st1" d="M254.1,327c7.5-1,15-1.6,22.5-1.8"/>
		<path class="st1" d="M254.1,317.1l4.5,0c4.2,0,8.4,0,12.7,0l5.3,0"/>
		<path class="st1" d="M254.1,310.7c7.5-0.8,15-1.1,22.5-1"/>
		<path class="st1" d="M133.7,325.5l5.8,0.6c10,1,19.9,1.9,29.9,2.9l6.9,0.7"/>
		<path class="st1" d="M133.7,320.8c14.2-0.9,28.5-0.7,42.7,0.5"/>
		<path class="st1" d="M133.7,312.9c14.2-0.4,28.5,0.2,42.7,1.6"/>
		<path class="st1" d="M133.7,308.3c14.2-1.2,28.4-1.6,42.7-1"/>
		<rect x="206.9" y="314.6" class="st1" width="5.2" height="18.8"/>
		<line class="st1" x1="163.7" y1="328.4" x2="163.7" y2="356"/>
		<line class="st1" x1="133.7" y1="164.4" x2="176.4" y2="164.4"/>
		<line class="st1" x1="133.7" y1="168.9" x2="176.5" y2="168.9"/>
		<line class="st1" x1="197" y1="164.9" x2="211.4" y2="164.9"/>
		<line class="st1" x1="254.5" y1="163.9" x2="276.5" y2="163.9"/>
		<line class="st1" x1="254" y1="172.9" x2="276.5" y2="172.9"/>
		<line class="st1" x1="134.5" y1="173.4" x2="175.7" y2="173.4"/>
		<path class="st1" d="M197,169.9c-0.2,0-0.3,0-0.5,0h14.3"/>
		<g>
			<path class="st2" d="M133.9,407.9c0.6-0.1,1.2-0.1,1.8-0.2c2.6-0.2,5.1-0.4,7.7-0.5"/>
			<path class="st2" d="M134.1,406.1c3.1,0.1,6.1,0.2,9.2,0.3"/>
			<path class="st2" d="M152,407.5c3.3,0.3,6.6,0.4,9.9,0.3"/>
			<path class="st2" d="M152.4,406c1.1,0.2,2.2,0,3.3-0.1c2-0.2,4.1-0.1,6,0.2c0,0.1,0,0.1,0,0.2"/>
			<path class="st2" d="M196.8,353.3c4.9-0.2,9.7,0,14.6,0.6c0.1,0,0.3,0,0.3,0.2s-0.1,0.3-0.2,0.2"/>
			<path class="st2" d="M196.8,350.7c5-0.2,10.1-0.5,15.1-0.7"/>
			<path class="st2" d="M273.8,356.3c0.3,2.5,0.3,5,0.2,7.5"/>
			<path class="st2" d="M269.6,357c0.3,2.1,0.7,4.3,1.2,6.4c0,0.1,0,0.3-0.1,0.3c-0.1,0.1-0.3,0-0.2-0.1"/>
			<path class="st2" d="M250.5,356.3c-0.1,2.7-0.2,5.5-0.3,8.2c0-0.1,0-0.2,0-0.2"/>
			<path class="st2" d="M245.9,356.7c0,2.4,0,4.7,0,7.1"/>
			<path class="st2" d="M234.8,356c0.1,2.5,0.3,5,0.7,7.5"/>
			<path class="st2" d="M282.2,355.6c0.2,2.6,0.4,5.2,0.7,7.8"/>
			<path class="st2" d="M137,356c0,1.9,0,3.9-0.1,5.8c0,0.8,0.1,1.8,0.7,2.2"/>
			<path class="st2" d="M139.6,356.3c0.1,2.5,0.8,4.9,1.8,7.2"/>
			<path class="st2" d="M143.2,356.5c0,2.2,0.2,4.3,0.7,6.4"/>
			<path class="st2" d="M165.6,410.2c-0.1,3.4-0.1,6.9,0.1,10.3"/>
		</g>
		<line class="st2" x1="271" y1="172.9" x2="271" y2="307.5"/>
		<line class="st2" x1="207" y1="170.4" x2="207" y2="313.5"/>
		<line class="st2" x1="167.5" y1="174.4" x2="167.5" y2="305.9"/>
		<path class="st2" d="M164,173.9c0.2,0,0.3,0,0.5,0v131.5"/>
		<line class="st2" x1="278.5" y1="429.4" x2="278.5" y2="446.5"/>
		<line class="st2" x1="217.5" y1="427.9" x2="217.5" y2="446.9"/>
		<line class="st2" x1="318.5" y1="428.4" x2="318.5" y2="447"/>
		<line class="st2" x1="256" y1="420.9" x2="256" y2="428.4"/>
		<path class="st2" d="M257.7,363.8c4.2,6.1,5.7,13.6,8.2,20.6c4.5,12.9,12.3,24.4,19.9,35.8"/>
		<path class="st2" d="M189.1,364c-2.9,18.7-6.2,37.4-9.8,55.9"/>
		<line class="st2" x1="91" y1="427.9" x2="91" y2="446.9"/>
		<line class="st2" x1="96.5" y1="429.4" x2="96.5" y2="446.4"/>
		<line class="st2" x1="99.5" y1="428.4" x2="99.5" y2="446.4"/>
		<line class="st2" x1="112" y1="428.4" x2="112" y2="447.4"/>
		<line class="st1" x1="133.7" y1="159.4" x2="176.4" y2="159.4"/>
		<line class="st1" x1="196.6" y1="159.4" x2="212" y2="159.4"/>
		<line class="st1" x1="254.1" y1="159.4" x2="276.5" y2="159.4"/>
	</g>
</g>
</svg>
