<?xml version="1.0" encoding="utf-8"?>
<!-- Generator: Adobe Illustrator 20.1.0, SVG Export Plug-In . SVG Version: 6.00 Build 0)  -->
<svg version="1.1" id="Слой_1" xmlns="http://www.w3.org/2000/svg" xmlns:xlink="http://www.w3.org/1999/xlink" x="0px" y="0px"
	 viewBox="0 0 1920 548" style="enable-background:new 0 0 1920 548;" xml:space="preserve">
<style type="text/css">
	.st0{fill:#F4E1A1;}
	.st1{fill:none;stroke:#817957;stroke-width:2;stroke-linecap:round;stroke-linejoin:round;stroke-miterlimit:10;}
	.st2{fill:none;stroke:#817957;stroke-linecap:round;stroke-linejoin:round;stroke-miterlimit:10;}
</style>
<g id="_x31_6">
	<g>
		<path class="st0" d="M371.8,37.7l32.9,12.2c0,0,92.4,34.4,206.4,34.4c87.1,0,161.7-20.1,192-29.6V42.5
			c-30.3,9.5-104.8,29.6-192,29.6c-114,0-206.4-34.4-206.4-34.4L371.8,37.7z"/>
		<line class="st1" x1="803.1" y1="37.7" x2="338.5" y2="37.7"/>
		<path class="st1" d="M355.7,37.7c0,41.6,46.1,75.3,102.9,75.3s102.9-75.3,102.9-75.3"/>
		<path class="st1" d="M500.8,37.7c0,8.7,1.2,17.1,3.5,25"/>
		<path class="st1" d="M655.7,104.1c17.5-16.7,28.5-40.3,28.5-66.4"/>
		<path class="st1" d="M509,75.7c14.5,31.6,46.4,53.6,83.5,53.6c10.4,0,20.3-1.7,29.6-4.9"/>
		<path class="st1" d="M670.4,37.7c0,10.8,1.7,21.2,4.7,31"/>
		<path class="st1" d="M679.6,80.4c16.3,35.9,52.4,60.8,94.3,60.8c10.2,0,20-1.5,29.3-4.2"/>
		<path class="st1" d="M803.1,42.5c-30.3,9.5-104.8,29.6-192,29.6c-114,0-206.4-34.4-206.4-34.4"/>
		<path class="st1" d="M803.1,54.7c-30.3,9.5-104.8,29.6-192,29.6c-114,0-206.4-34.4-206.4-34.4l-32.9-12.2"/>
		<path class="st1" d="M699.3,37.7c1.7,19.4,4.5,39.5,16.4,54.8c11.3,14.6,30,22.7,48.5,22.6c11.6,0,23-3.1,34.4-4.9
			c1.5-0.2,3-0.5,4.5-0.6"/>
		<path class="st1" d="M690.4,37.7c0,9.7,1.3,19.3,3.7,28.7"/>
		<path class="st1" d="M698,78.1c0.2,0.6,0.5,1.2,0.7,1.7c4.2,10.4,10.6,20.7,20.6,25.8c4.3,2.2,9,3.3,13.8,3.9
			c11.6,1.5,23.5,0.3,34.5-3.7c7-2.5,13.6-6.1,20.5-8.5c4.9-1.7,9.9-3.1,15-4"/>
		<path class="st1" d="M398.3,47.5c7.1,14,18.1,26.2,31.2,35.1c19.1,13,42.4,19.3,65.5,20.3c26.8,1.1,54.4-5,76.5-19.9"/>
		<path class="st1" d="M585.6,71.5c13-12.3,24.1-26.7,41.8-33.8"/>
		<g>
			<g>
				<polygon class="st0" points="659.7,109.8 655.7,109.8 655.7,93.9 653.7,93.9 653.7,89.8 644.1,89.8 644.1,93.9 637.9,93.9 
					637.9,89.8 628.3,89.8 628.3,93.9 626.3,93.9 626.3,109.8 622.3,109.8 622.3,118.5 644.5,118.5 659.7,118.5 				"/>
				<path class="st0" d="M643.4,118.5h-21.1v10c0,10.3,8.4,18.7,18.7,18.7s18.7-8.4,18.7-18.7v-10h-15.2l0,0H643.4z"/>
			</g>
			<path class="st1" d="M622.3,118.5v10c0,10.3,8.4,18.7,18.7,18.7l0,0c10.3,0,18.7-8.4,18.7-18.7v-10"/>
			<rect x="622.3" y="109.7" class="st1" width="37.4" height="8.7"/>
			<path class="st1" d="M637.5,118.5v14.7c0,2,1.6,3.5,3.5,3.5l0,0c2,0,3.5-1.6,3.5-3.5v-14.7"/>
			<rect x="626.3" y="93.9" class="st1" width="29.5" height="15.8"/>
			<rect x="628.3" y="89.8" class="st1" width="9.6" height="4.1"/>
			<rect x="644.1" y="89.9" class="st1" width="9.6" height="4.1"/>
		</g>
		<path class="st1" d="M633.3,89.8c-1.8-9.7-0.4-19.6,1.8-29.2c1.8-7.7,4-15.2,5.6-22.9"/>
		<path class="st1" d="M648.5,89.8c-0.3-2.2-0.6-4.4-0.8-6.7"/>
		<path class="st1" d="M647.5,70.9c0.1-2,0.2-4.1,0.4-6.1c0.8-7.8,2.5-15.5,2.3-23.4c0-1.3-0.1-2.5-0.3-3.8"/>
		<path class="st2" d="M797.7,44.6c0.9,3.4,1.8,6.7,2.7,10.1c0,0.1,0.1,0.3,0.2,0.3s0.1-0.2,0-0.2"/>
		<path class="st2" d="M794.7,45.6c0.9,3.6,2.2,7,3.8,10.3"/>
		<path class="st2" d="M792.5,46.3c0.2,3.9,0.8,7.8,1.6,11.7"/>
		<path class="st2" d="M789.1,47c0.7,3.4,1.5,6.8,2.5,10.1"/>
		<path class="st2" d="M653.4,109.6c0,3.1,0,6.1,0,9.2c0-0.1,0-0.3,0-0.4"/>
		<path class="st2" d="M650.4,110c0.3,2.2,0.4,4.4,0.5,6.6c0,0.5,0.1,0.9,0.1,1.4v0.1"/>
		<path class="st2" d="M648.6,110.3c0.1,2.6,0.3,5.2,0.4,7.8c0,0.1,0,0.2,0.1,0.2s0.2-0.1,0.1-0.1"/>
		<path class="st2" d="M652,94.6c-0.1,5-0.2,9.9-0.5,14.9"/>
		<path class="st2" d="M649.2,94.5c0.1,1.2,0.1,2.4,0.1,3.6c0.1,3.7,0.2,7.4,0.3,11.1"/>
		<path class="st2" d="M628.6,110c-0.1,2.9-0.1,5.7-0.2,8.6"/>
		<line class="st1" x1="803.1" y1="42.5" x2="803.1" y2="54.7"/>
	</g>
	<g>
		<g>
			<path class="st0" d="M802.4,440.4H0.8C267.5,440.4,535.5,440.4,802.4,440.4z"/>
			<path class="st0" d="M754.9,383v-1.2c-0.1,0-0.2,0-0.3,0c-0.7,0.4-1.5,0.7-2.5,0.7c-6.2,0-12.3,0.2-18.5,0.1
				c-3.7,0-7.4-0.5-11.1-0.7c-0.1,0-0.1,0.1-0.2,0.1c-2.2,0.8-4,0-6.2,0c-0.6,0-1.2-0.1-1.6-0.2c-12,0.9-24,0.8-36.1,0.6
				c-6.4-0.1-12.8,0.1-19.1-0.4c-0.5,0-1.1-0.1-1.7-0.1c-3.6,0.9-7.3,0.6-11.1,0.5c-3-0.1-6-0.2-9-0.5c-0.5,0.2-1.2,0.3-1.8,0.3
				c-0.5,0-1-0.1-1.4-0.2c-1.7,0.2-3.5,0.3-5.3,0.2c-2.1,0.1-4.1,0.2-6.1,0H593c-0.5,0-1-0.1-1.4-0.2c-1.4,0.4-3.1,0.4-4.8,0.1
				c-0.8-0.1-1.4-0.2-2.2-0.3v1.1h-46.5v-1c-4,0.5-8.3,0.1-12.1,0.1c-7.7-0.1-15.3,0-23,0c-7.6,0-15.2-0.2-22.8,0.1
				c-4.3,0.1-8.5,0.3-12.7-0.2c-0.1,0-0.1,0-0.2,0c-1.6,0.4-3.2,0.3-4.7,0.1c-0.4,0.1-0.8,0.2-1.3,0.2c-17.2,0-34.4,0.2-51.6,0.2
				c-8.8,0-17.6,0.3-26.4-0.1c-2.7-0.1-5.5-0.1-8.4-0.3c-2.2,0.9-4.8,0.9-7,0.3v0.7H322v-1.2c-0.1,0-0.2,0-0.3,0.1
				c-2.9,0.3-5.7,0.2-8.6,0.2h-19.3c-6.3,0-12.7-0.3-18.9,0.1c-3.7,0.2-7.5,0.7-11.2-0.2c-4,0.4-8.1,0.2-12.2,0.3
				c-5.2,0.1-10.4,0.2-15.6,0.2c-5.3,0-10.6,0-15.8-0.5c-0.2,0-0.3,0-0.5-0.1c-2,0.5-4.1,0.3-6.3,0.2c0,0,0,0-0.1,0
				c-1.5,0-3,0-4.4-0.3c-1.7,0.4-3.6,0.4-5.5,0.3c-3.7,0.3-7.5,0.2-11.3,0.1c-1.1,0.2-2.3,0.4-3.3,0.5c-2,0.1-4-0.1-5.8-0.8
				c-0.5,0.2-1.1,0.3-1.7,0.3c-5,0.1-11,1.5-16.1,0c-0.4,0.1-0.8,0.2-1.3,0.2c-0.5,0-1.1-0.1-1.5-0.2c-0.5,0.1-0.9,0.2-1.5,0.2
				c-0.5,0-0.9-0.1-1.3-0.2h-2.5c-0.4,0-0.7,0-1-0.1c0,0,0,0,0,0c-0.1,0-0.3,0-0.4-0.1c-0.1,0-0.3,0-0.4,0c-0.5,0-0.9-0.1-1.3-0.2
				c-0.4,0.1-0.9,0.2-1.3,0.2c-0.3,0-0.7,0-1-0.1v1H0.9v12.4c-0.1,0-0.1-0.1-0.2-0.1l0.2,13.3l-0.2,11.4c0.1,0,0.1-0.1,0.2-0.1v9.1
				h833.3V383H754.9z"/>
		</g>
		<g>
			<line class="st1" x1="0.8" y1="383.1" x2="834.2" y2="383.1"/>
			<line class="st1" x1="834.2" y1="429.1" x2="0.8" y2="429.1"/>
			<line class="st1" x1="0.8" y1="385.8" x2="834.2" y2="385.8"/>
			<line class="st1" x1="834.2" y1="426.4" x2="0.8" y2="426.4"/>
			<g>
				<circle class="st1" cx="120.1" cy="406.1" r="15.9"/>
				<path class="st1" d="M120.1,419.2c-7.2,0-13.1-5.9-13.1-13.1s5.9-13.1,13.1-13.1s13.1,5.9,13.1,13.1S127.3,419.2,120.1,419.2z"
					/>
				<circle class="st1" cx="120.1" cy="406.1" r="5.8"/>
				<line class="st1" x1="120.1" y1="411.9" x2="120.1" y2="422"/>
			</g>
			<g>
				<circle class="st1" cx="151.8" cy="406.1" r="5.8"/>
			</g>
			<g>
				<circle class="st1" cx="183.5" cy="406.1" r="15.9"/>
				<path class="st1" d="M183.5,419.2c-7.2,0-13.1-5.9-13.1-13.1s5.9-13.1,13.1-13.1s13.1,5.9,13.1,13.1S190.7,419.2,183.5,419.2z"
					/>
				<circle class="st1" cx="183.5" cy="406.1" r="5.8"/>
				<line class="st1" x1="183.5" y1="411.9" x2="183.5" y2="422"/>
			</g>
			<g>
				<circle class="st1" cx="215.2" cy="406.1" r="5.8"/>
			</g>
			<g>
				<circle class="st1" cx="246.9" cy="406.1" r="15.9"/>
				<path class="st1" d="M246.9,419.2c-7.2,0-13.1-5.9-13.1-13.1s5.9-13.1,13.1-13.1s13.1,5.9,13.1,13.1S254.2,419.2,246.9,419.2z"
					/>
				<circle class="st1" cx="246.9" cy="406.1" r="5.8"/>
				<line class="st1" x1="246.9" y1="411.9" x2="246.9" y2="422"/>
			</g>
			<g>
				<path class="st1" d="M1.2,392.3c4.8,2.7,8,7.9,8,13.8c0,6-3.4,11.3-8.4,14"/>
				<path class="st1" d="M0.8,395.4c3.4,2.4,5.6,6.3,5.6,10.8c0,4.3-2.1,8.2-5.4,10.6"/>
			</g>
			<g>
				<circle class="st1" cx="25" cy="406.1" r="5.8"/>
			</g>
			<g>
				<circle class="st1" cx="56.7" cy="406.1" r="15.9"/>
				<path class="st1" d="M56.7,419.2c-7.2,0-13.1-5.9-13.1-13.1S49.5,393,56.7,393s13.1,5.9,13.1,13.1S63.9,419.2,56.7,419.2z"/>
				<circle class="st1" cx="56.7" cy="406.1" r="5.8"/>
				<line class="st1" x1="56.7" y1="411.9" x2="56.7" y2="422"/>
			</g>
			<g>
				<circle class="st1" cx="88.4" cy="406.1" r="5.8"/>
			</g>
			<g>
				<circle class="st1" cx="278.6" cy="406.1" r="5.8"/>
			</g>
			<g>
				<circle class="st1" cx="310.3" cy="406.1" r="15.9"/>
				<path class="st1" d="M310.3,419.2c-7.2,0-13.1-5.9-13.1-13.1s5.9-13.1,13.1-13.1s13.1,5.9,13.1,13.1S317.6,419.2,310.3,419.2z"
					/>
				<circle class="st1" cx="310.3" cy="406.1" r="5.8"/>
				<line class="st1" x1="310.3" y1="411.9" x2="310.3" y2="422"/>
			</g>
			<g>
				<circle class="st1" cx="342" cy="406.1" r="5.8"/>
			</g>
			<g>
				<circle class="st1" cx="373.7" cy="406.1" r="15.9"/>
				<path class="st1" d="M373.7,419.2c-7.2,0-13.1-5.9-13.1-13.1s5.9-13.1,13.1-13.1s13.1,5.9,13.1,13.1S381,419.2,373.7,419.2z"/>
				<circle class="st1" cx="373.7" cy="406.1" r="5.8"/>
				<line class="st1" x1="373.7" y1="411.9" x2="373.7" y2="422"/>
			</g>
			<g>
				<circle class="st1" cx="405.5" cy="406.1" r="5.8"/>
			</g>
			<g>
				<circle class="st1" cx="437.2" cy="406.1" r="15.9"/>
				<path class="st1" d="M437.2,419.2c-7.2,0-13.1-5.9-13.1-13.1S430,393,437.2,393s13.1,5.9,13.1,13.1S444.4,419.2,437.2,419.2z"/>
				<circle class="st1" cx="437.2" cy="406.1" r="5.8"/>
				<line class="st1" x1="437.2" y1="411.9" x2="437.2" y2="422"/>
			</g>
			<g>
				<circle class="st1" cx="468.9" cy="406.1" r="5.8"/>
			</g>
			<g>
				<circle class="st1" cx="500.6" cy="406.1" r="15.9"/>
				<path class="st1" d="M500.6,419.2c-7.2,0-13.1-5.9-13.1-13.1s5.9-13.1,13.1-13.1s13.1,5.9,13.1,13.1S507.8,419.2,500.6,419.2z"
					/>
				<circle class="st1" cx="500.6" cy="406.1" r="5.8"/>
				<line class="st1" x1="500.6" y1="411.9" x2="500.6" y2="422"/>
			</g>
			<g>
				<circle class="st1" cx="532.3" cy="406.1" r="5.8"/>
			</g>
			<g>
				<circle class="st1" cx="564" cy="406.1" r="15.9"/>
				<path class="st1" d="M564,419.2c-7.2,0-13.1-5.9-13.1-13.1S556.7,393,564,393s13.1,5.9,13.1,13.1S571.2,419.2,564,419.2z"/>
				<circle class="st1" cx="564" cy="406.1" r="5.8"/>
				<line class="st1" x1="564" y1="411.9" x2="564" y2="422"/>
			</g>
			<g>
				<circle class="st1" cx="595.7" cy="406.1" r="5.8"/>
			</g>
			<g>
				<circle class="st1" cx="627.4" cy="406.1" r="15.9"/>
				<path class="st1" d="M627.4,419.2c-7.2,0-13.1-5.9-13.1-13.1s5.9-13.1,13.1-13.1s13.1,5.9,13.1,13.1S634.6,419.2,627.4,419.2z"
					/>
				<circle class="st1" cx="627.4" cy="406.1" r="5.8"/>
				<line class="st1" x1="627.4" y1="411.9" x2="627.4" y2="422"/>
			</g>
			<g>
				<circle class="st1" cx="659.1" cy="406.1" r="5.8"/>
			</g>
			<g>
				<circle class="st1" cx="690.8" cy="406.1" r="15.9"/>
				<path class="st1" d="M690.8,419.2c-7.2,0-13.1-5.9-13.1-13.1s5.9-13.1,13.1-13.1c7.2,0,13.1,5.9,13.1,13.1
					S698,419.2,690.8,419.2z"/>
				<circle class="st1" cx="690.8" cy="406.1" r="5.8"/>
				<line class="st1" x1="690.8" y1="411.9" x2="690.8" y2="422"/>
			</g>
			<g>
				<circle class="st1" cx="722.5" cy="406.1" r="5.8"/>
			</g>
			<g>
				<circle class="st1" cx="754.2" cy="406.1" r="15.9"/>
				<path class="st1" d="M754.2,419.2c-7.2,0-13.1-5.9-13.1-13.1S747,393,754.2,393s13.1,5.9,13.1,13.1S761.4,419.2,754.2,419.2z"/>
				<circle class="st1" cx="754.2" cy="406.1" r="5.8"/>
				<line class="st1" x1="754.2" y1="411.9" x2="754.2" y2="422"/>
			</g>
			<g>
				<circle class="st1" cx="785.9" cy="406.1" r="5.8"/>
			</g>
			<g>
				<circle class="st1" cx="817.6" cy="406.1" r="15.9"/>
				<path class="st1" d="M817.6,419.2c-7.2,0-13.1-5.9-13.1-13.1s5.9-13.1,13.1-13.1s13.1,5.9,13.1,13.1S824.8,419.2,817.6,419.2z"
					/>
				<circle class="st1" cx="817.6" cy="406.1" r="5.8"/>
				<line class="st1" x1="817.6" y1="411.9" x2="817.6" y2="422"/>
			</g>
		</g>
		<path class="st1" d="M802.4,440.4c-266.9,0-534.9,0-801.6,0"/>
		<line class="st1" x1="0.8" y1="383.1" x2="0.8" y2="429.1"/>
		<line class="st1" x1="834.2" y1="383.1" x2="834.2" y2="429.1"/>
	</g>
	<g>
		<path class="st0" d="M1151.3,36.7h-23c-0.1-0.1-0.2-0.2-0.3-0.2c-0.2,0-0.3,0.1-0.4,0.2H990.1v-8.9c0-0.6-0.4-1-1-1h-9.9
			c-0.6,0-1,0.4-1,1v8.9h-6.1v-8.9c0-0.6-0.4-1-1-1h-9.9c-0.6,0-1,0.4-1,1v8.9h-15.5V29c0-0.6-0.4-1-1-1H935v-9
			c0-10.9-8.8-19.7-19.7-19.7S895.6,8.1,895.6,19v9H887c-0.6,0-1,0.4-1,1v7.7h-82.8c-0.6,0-1,0.4-1,1v21.7c0,0.6,0.4,1,1,1h30.1
			v10.3h-23h-7.1c-0.6,0-1,0.4-1,1v85.1h-5.4c-0.6,0-1,0.4-1,1v5.3c-3.1,0.5-5.5,3.2-5.5,6.4s2.4,5.9,5.5,6.4v14.8
			c-3.1,0.5-5.5,3.2-5.5,6.4s2.4,5.9,5.5,6.4v5.3c0,0.6,0.4,1,1,1h5.4v173.4c0,0.4,0.2,0.7,0.6,0.9c0.2,0.3,0.5,0.5,0.8,0.5h30
			c0,18.4,0,36.8,0,55c-1.6,0-3.3,0-4.9,0l0,0c-0.6,0-1,0.4-1,1s0.4,1,1,1c1.9,0,3.9,0,5.8,0h0.1c19.7,0,38.4,0,58.3,0v29l-4,8.6
			c-0.1,0.3-0.1,0.7,0.1,1s0.5,0.5,0.8,0.5h32.9c0.3,0,0.7-0.2,0.8-0.5s0.2-0.7,0.1-1l-4-8.6v-29h200.7c0.6,0,1-0.4,1-1V136.5h9.9
			c0.6,0,1-0.4,1-1V90.3c0-0.6-0.4-1-1-1h-9.9c0.5-16.1,13.8-29,30.1-29c0.6,0,1-0.4,1-1V37.7C1152.3,37.1,1151.8,36.7,1151.3,36.7z
			"/>
		<path class="st1" d="M803.1,202.5c0.4,60,0.4,121,0.4,181c10,0,21,0,31,0c0-60,0-121-0.3-180.9c0,3.7,0,0,0,0
			c0.3,78.9,0.3,158.9,0.3,237.9c20,0,39,0,59.3,0c-1,0-0.3,0,0,0c-22.3,0-43.3,0-65.2,0"/>
		<polyline class="st1" points="803.1,163.9 803.1,71.7 834.2,71.7 834.2,163.9 834.2,59.4 		"/>
		<rect x="1063.3" y="90.3" class="st1" width="67.8" height="45.2"/>
		<polyline class="st1" points="1106.5,135.5 1106.5,426.7 918.5,426.7 		"/>
		<polyline class="st1" points="893.8,426.7 847.9,426.7 847.9,202.5 		"/>
		<polyline class="st1" points="847.9,163.9 847.9,73.1 1106.5,73.1 1106.5,90.3 		"/>
		<path class="st1" d="M796.7,202.5c-3,0-5.5-2.5-5.5-5.5s2.5-5.5,5.5-5.5"/>
		<path class="st1" d="M796.7,174.9c-3,0-5.5-2.5-5.5-5.5s2.5-5.5,5.5-5.5"/>
		<g>
			<rect x="886.9" y="349.3" class="st1" width="38.5" height="10.9"/>
			<path class="st1" d="M882,349.4c0,3-2.5,5.5-5.5,5.5s-5.5-2.5-5.5-5.5"/>
			<path class="st1" d="M941.2,349.4c0,3-2.5,5.5-5.5,5.5s-5.5-2.5-5.5-5.5"/>
		</g>
		<rect x="803.1" y="37.7" class="st1" width="348.2" height="21.7"/>
		<rect x="988.5" y="90.3" class="st1" width="17.6" height="45.2"/>
		<rect x="1006.1" y="99.4" class="st1" width="9.9" height="9.9"/>
		<rect x="1006.1" y="117.4" class="st1" width="9.9" height="9.9"/>
		<rect x="978.6" y="99.4" class="st1" width="9.9" height="9.9"/>
		<rect x="978.6" y="117.4" class="st1" width="9.9" height="9.9"/>
		<rect x="847.9" y="90.3" class="st1" width="17.6" height="45.2"/>
		<rect x="865.6" y="99.4" class="st1" width="9.9" height="9.9"/>
		<rect x="865.6" y="117.4" class="st1" width="9.9" height="9.9"/>
		<path class="st1" d="M816.6,163.9h141.3c10.6,0,19.3,8.6,19.3,19.3l0,0c0,10.6-8.6,19.3-19.3,19.3H816.6V163.9z"/>
		<path class="st1" d="M976.8,179.3c-1.8,8.8-9.6,15.4-18.9,15.4H816.6"/>
		<path class="st1" d="M939.3,202.5c4.8,4.7,11.4,7.5,18.6,7.5c14.8,0,26.8-12,26.8-26.8s-12-26.8-26.8-26.8
			c-7.2,0-13.8,2.9-18.6,7.5"/>
		<path class="st1" d="M931.2,202.5c6,8.3,15.7,13.7,26.7,13.7c18.2,0,33-14.8,33-33s-14.8-33-33-33c-11,0-20.7,5.4-26.7,13.7"/>
		<path class="st1" d="M1151.3,59.4c-17.1,0-31.1,13.9-31.1,31"/>
		<line class="st1" x1="847.9" y1="234.5" x2="1106.5" y2="234.5"/>
		<line class="st1" x1="964.3" y1="336.3" x2="847.9" y2="336.3"/>
		<line class="st1" x1="964.3" y1="349.4" x2="847.9" y2="349.4"/>
		<line class="st1" x1="1066.9" y1="336.3" x2="1106.5" y2="336.3"/>
		<rect x="829.4" y="83.5" class="st1" width="4.8" height="69.8"/>
		<rect x="825.3" y="121.8" class="st1" width="4.1" height="9.6"/>
		<rect x="825.3" y="105" class="st1" width="4.1" height="9.6"/>
		<rect x="825.3" y="88.2" class="st1" width="4.1" height="9.6"/>
		<rect x="803.1" y="71.7" class="st1" width="7.1" height="311.4"/>
		<circle class="st1" cx="810.2" cy="159.1" r="0"/>
		<rect x="810.2" y="157.8" class="st1" width="6.4" height="50.9"/>
		<rect x="796.7" y="157.8" class="st1" width="6.4" height="50.9"/>
		<polyline class="st1" points="918.5,440.4 1120.2,440.4 1120.2,135.5 		"/>
		
			<ellipse transform="matrix(0.7071 -0.7071 0.7071 0.7071 244.7234 785.212)" class="st1" cx="1070.2" cy="97.2" rx="2.2" ry="2.2"/>
		
			<ellipse transform="matrix(0.7071 -0.7071 0.7071 0.7071 222.4499 794.4377)" class="st1" cx="1070.2" cy="128.7" rx="2.2" ry="2.2"/>
		<line class="st1" x1="810.2" y1="258.2" x2="834.2" y2="258.2"/>
		<line class="st1" x1="810.2" y1="271.5" x2="834.2" y2="271.5"/>
		<line class="st1" x1="810.2" y1="284.7" x2="834.2" y2="284.7"/>
		<line class="st1" x1="810.2" y1="298" x2="834.2" y2="298"/>
		<line class="st1" x1="810.2" y1="311.2" x2="834.2" y2="311.2"/>
		<line class="st1" x1="810.2" y1="369.8" x2="834.2" y2="369.8"/>
		<g>
			<g>
				<line class="st1" x1="893.8" y1="463.5" x2="918.5" y2="463.5"/>
			</g>
			<rect x="889.9" y="360.3" class="st1" width="32.5" height="7"/>
			<line class="st1" x1="893.8" y1="470.7" x2="893.8" y2="367.3"/>
			<line class="st1" x1="918.5" y1="470.7" x2="918.5" y2="367.3"/>
		</g>
		<path class="st1" d="M1016.1,106.3c1.9,0.2,3.8,0.3,5.7,0.4c13.9,0.7,28.3,1.3,41.6-2.7"/>
		<path class="st1" d="M1016.1,123.4c15.7,2.4,31.7,2,47.3-1.1"/>
		<path class="st1" d="M875.5,105.8c33.9,6.6,69.2,6.4,103.1-0.6"/>
		<path class="st1" d="M875.5,124.1c34.4,5,70.2,9.3,103.1-1.2"/>
		<path class="st1" d="M1016.1,103c10.1,0.1,20.2-0.3,30.2-1.2c5.9-0.6,12-1.4,17-4.4"/>
		<polygon class="st1" points="922.6,479.4 889.7,479.4 893.8,470.7 918.5,470.7 		"/>
		<path class="st1" d="M899.2,479.4c-19.7,13-47.7,9-66.5-4.3"/>
		<path class="st1" d="M911.6,479.4c-7.2,25.5-23.8,47.7-47.8,59c-25.3,11.9-56,11.6-81-0.8c-5.3-2.6-10.3-5.7-15-9.2"/>
		<path class="st1" d="M743,503.8c-3.1-4-5.9-8.1-8.6-12.3c-8.7-13.6-15.6-28.3-20.6-43.6"/>
		<path class="st1" d="M901.7,479.4c0.9,2.2,2.5,4.1,4.3,5.5c3.1,2.4,6.9,3.6,10.8,4.1c4.3,0.6,8.8,0.3,12.9-1.2
			c4.1-1.5,7.8-4.4,9.8-8.3"/>
		<line class="st1" x1="911.6" y1="367.3" x2="911.6" y2="463.5"/>
		<g>
			<g>
				<rect x="868.7" y="248" class="st1" width="74.9" height="74.9"/>
				<path class="st1" d="M921.6,312.6h-30.9c-6.5,0-11.8-5.3-11.8-11.8V270c0-6.5,5.3-11.8,11.8-11.8h30.9c6.5,0,11.8,5.3,11.8,11.8
					v30.9C933.3,307.4,928.1,312.6,921.6,312.6z"/>
				
					<ellipse transform="matrix(0.7071 -0.7071 0.7071 0.7071 76.2473 693.6762)" class="st1" cx="875.5" cy="254.8" rx="2.2" ry="2.2"/>
				
					<ellipse transform="matrix(0.7071 -0.7071 0.7071 0.7071 94.1762 736.9524)" class="st1" cx="936.7" cy="254.8" rx="2.2" ry="2.2"/>
				
					<ellipse transform="matrix(0.7071 -0.7071 0.7071 0.7071 32.9711 711.6052)" class="st1" cx="875.5" cy="316" rx="2.2" ry="2.2"/>
				
					<ellipse transform="matrix(0.7071 -0.7071 0.7071 0.7071 50.8999 754.8813)" class="st1" cx="936.7" cy="316" rx="2.2" ry="2.2"/>
			</g>
			<path class="st1" d="M879.6,284.6c4.2-3.3,8.4-6.7,12.6-10c1.7,1.1,0.9,4.7,2.9,4.9c0.8,0.1,1.6-0.6,2.1-1.2
				c4.3-5,7.7-10.9,13-14.9c2.2-1.7,4.7-3,7.3-3.9"/>
			<path class="st1" d="M879.4,292.8c2.5-2.3,5.6-3.9,8.8-4.7c0,3.3,4.4,4.9,7.4,3.6s4.9-4.3,6.9-6.9c5.9-7.6,14.1-13,22.2-18.2
				c2-1.3,4.8-2.5,6.5-0.9"/>
			<path class="st1" d="M906.5,311.4c3.4,0.4,6.3-2.5,8.3-5.3c5.2-7.4,9.3-16.5,17.6-20.2"/>
		</g>
		<g>
			<g>
				<path class="st1" d="M1066.3,167.4c8.3,7.8,8.3,20.5,0,28.3s-21.7,7.8-30,0s-8.3-20.5,0-28.3
					C1044.5,159.5,1058,159.5,1066.3,167.4z"/>
				<path class="st1" d="M1069,181.5h-35.5c0-9.3,8-16.8,17.8-16.8C1061.1,164.8,1069,172.3,1069,181.5z"/>
				<path class="st1" d="M1068.5,153.4l-6.4,6.1c-6.8-3-14.8-3-21.6,0l-6.4-6.1l-12.6,11.9l6.4,6.1c-3.2,6.5-3.2,14,0,20.4l-6.4,6.1
					l12.6,11.9l6.4-6.1c6.8,3,14.8,3,21.6,0l6.4,6.1l12.6-11.9l-6.4-6.1c3.2-6.5,3.2-14,0-20.4l6.4-6.1L1068.5,153.4z"/>
				<path class="st1" d="M1033.6,198.2c0.9,0.8,0.9,2.2,0,3s-2.3,0.8-3.2,0c-0.9-0.8-0.9-2.2,0-3
					C1031.3,197.3,1032.8,197.3,1033.6,198.2z"/>
				<path class="st1" d="M1033.6,161.9c0.9,0.8,0.9,2.2,0,3s-2.3,0.8-3.2,0s-0.9-2.2,0-3S1032.8,161.1,1033.6,161.9z"/>
				<path class="st1" d="M1072,198.2c0.9,0.8,0.9,2.2,0,3s-2.3,0.8-3.2,0c-0.9-0.8-0.9-2.2,0-3
					C1069.8,197.3,1071.2,197.3,1072,198.2z"/>
				<path class="st1" d="M1072,161.9c0.9,0.8,0.9,2.2,0,3s-2.3,0.8-3.2,0c-0.9-0.8-0.9-2.2,0-3
					C1069.8,161.1,1071.2,161.1,1072,161.9z"/>
				<line class="st1" x1="1051.3" y1="181.5" x2="1056.5" y2="170.2"/>
				<line class="st1" x1="1033.5" y1="181.5" x2="1069" y2="181.5"/>
			</g>
			<path class="st2" d="M1034.5,176.6c0.8,0.4,1.6,0.7,2.4,1.1"/>
			<path class="st2" d="M1036.4,173.5c0.9,0.5,1.8,1,2.6,1.7"/>
			<path class="st2" d="M1039.3,170.2c0.5,0.5,1,1.1,1.5,1.6"/>
			<path class="st2" d="M1042.6,167.8c0.4,1,0.9,1.9,1.5,2.7"/>
			<path class="st2" d="M1047,166.4c0.2,1.1,0.4,2.2,0.6,3.3"/>
			<path class="st2" d="M1051.9,165.9c0,1.2-0.3,2.3-0.7,3.4"/>
			<path class="st2" d="M1056.1,166.9c-0.1,0.9-0.3,1.7-0.6,2.5"/>
			<path class="st2" d="M1060.4,169c-0.4,0.9-0.9,1.8-1.5,2.5"/>
			<path class="st2" d="M1063.8,170.9c-0.6,0.7-1.2,1.5-1.8,2.2"/>
			<path class="st2" d="M1064,176c0.9-0.2,1.8-0.7,2.5-1.3"/>
			<path class="st2" d="M1065,178.7c1-0.1,2.1-0.3,3.1-0.5"/>
		</g>
		<path class="st2" d="M985.1,99.4c0.5,3.3,1,6.5,1.4,9.8c0-0.1,0-0.2,0-0.3"/>
		<path class="st2" d="M983.6,99.9c0,3,0,6.1,0.1,9.1c0,0.1,0,0.1,0.1,0.2s0.1-0.1,0.1-0.1"/>
		<path class="st2" d="M986.2,118.1c0.1,0.1,0.1,0.3,0.1,0.5c-0.3,2.7-0.6,5.3-0.9,8"/>
		<path class="st2" d="M984.5,118c-0.5,3-0.9,6.1-1.2,9.1"/>
		<path class="st2" d="M1008,117.7c0,3.2,0,6.4,0,9.6"/>
		<path class="st2" d="M1009.7,117.8c0.3,3.3,0.6,6.5,0.8,9.8l0,0"/>
		<path class="st2" d="M1008.5,99.7c-0.1,3.2,0,6.3,0.1,9.5c0.1-0.1,0.1-0.2,0.1-0.3"/>
		<path class="st2" d="M1010.6,100.1c-0.2,3.1-0.5,6.1-0.8,9.1"/>
		<path class="st2" d="M1011.8,100c-0.1,3.2-0.2,6.4-0.3,9.6c0-0.1,0-0.2,0-0.3"/>
		<path class="st2" d="M868,99.5c0.1,3.2,0.2,6.5,0.3,9.7c0-0.2,0-0.4,0-0.6"/>
		<path class="st2" d="M870.3,99.9c-0.3,3.2-0.6,6.5-0.9,9.7c0,0.1,0,0.3,0.1,0.4c0.1,0,0.2-0.3,0-0.2"/>
		<path class="st2" d="M871.7,100.1c0,2.9,0,5.7,0,8.6"/>
		<path class="st2" d="M867.8,117.4c-0.3,3.3-0.5,6.5-0.8,9.8"/>
		<path class="st2" d="M869.2,118c-0.1,3.3-0.2,6.6-0.2,9.9"/>
		<path class="st2" d="M870.8,117.2c0,3.3,0.3,6.7,0.8,10"/>
		<path class="st2" d="M939.9,203.3c-1.6,1.3-3.1,2.7-4.7,4c0.1-0.1,0.2-0.1,0.3-0.2"/>
		<path class="st2" d="M941.6,204.7c-1.3,1.5-2.5,3.1-3.6,4.8"/>
		<path class="st2" d="M944.5,206.6c-0.9,1.4-1.9,2.9-2.8,4.3l-0.1,0.1c-0.1,0,0.1-0.1,0,0"/>
		<path class="st2" d="M946.3,207.7c-0.6,1.7-1.2,3.5-1.6,5.2"/>
		<path class="st2" d="M950.4,209.5c-0.8,1.6-1.3,3.3-1.6,5.1"/>
		<path class="st2" d="M953,210.1c-0.3,1.7-0.6,3.4-0.9,5.1"/>
		<path class="st2" d="M956.5,210.2c0,1.7,0,3.4-0.1,5.1"/>
		<path class="st2" d="M959.5,210.2c0.1,1.9,0.2,3.9,0.3,5.8c0,0.1,0,0.1,0.1,0.2s0.1-0.1,0-0.1"/>
		<path class="st2" d="M962.8,209.9c0.3,1.8,0.7,3.5,1.3,5.2"/>
		<path class="st2" d="M967,208.3c0.7,1.8,1.5,3.5,2.4,5.2c0-0.1,0-0.2,0-0.3"/>
		<path class="st2" d="M970.6,207.2c0.5,1.8,1,3.5,1.5,5.3"/>
		<path class="st2" d="M973.2,205.8c0.9,1.5,1.8,2.9,2.8,4.3c0,0.1,0.1,0.1,0.2,0.2s0.2-0.1,0.2-0.1"/>
		<path class="st2" d="M975.7,203.6c1.3,1.3,2.4,2.7,3.6,4.1"/>
		<path class="st2" d="M978.2,201.1c1.5,1.1,3.1,2.1,4.8,3"/>
		<path class="st2" d="M980,198.6c1.2,0.7,2.5,1.3,3.7,2c0.5,0.3,1.1,0.6,1.5,1"/>
		<path class="st2" d="M981.9,195.9c1.9,0.6,3.8,1.4,5.5,2.4"/>
		<path class="st2" d="M982.9,193c1.9,0.6,3.8,1,5.7,1.2"/>
		<path class="st2" d="M983.9,190.3c2.2,0.4,4.4,0.8,6.6,1"/>
		<path class="st2" d="M985.1,186.9c-0.1,0-0.2,0-0.3,0c1.9,0.1,3.7,0.1,5.6,0.2"/>
		<path class="st2" d="M984.9,183c2-0.2,4-0.2,6.1-0.2"/>
		<path class="st2" d="M984.6,180.1c-0.1-0.1,0.1-0.3,0.2-0.3c1.7-0.7,3.5-1.2,5.3-1.4"/>
		<path class="st2" d="M984.1,175.7c1.6-0.8,3.3-1.5,5-2c-0.1,0-0.2,0-0.3,0.1"/>
		<path class="st2" d="M982.6,172.3c-0.1-0.2,0.1-0.5,0.4-0.7c1.4-0.9,2.7-1.8,4.1-2.7"/>
		<path class="st2" d="M980.6,168.3c1.5-1.3,3-2.7,4.5-4"/>
		<path class="st2" d="M977.9,164.9c1.1-1.4,2.3-2.8,3.6-4.2"/>
		<path class="st2" d="M977.8,157.2c-1.2,1.4-2.3,2.8-3.3,4.3"/>
		<path class="st2" d="M974.1,155.3C974.2,155.4,974.2,155.2,974.1,155.3C974.1,155.2,974,155.3,974.1,155.3
			c-0.9,1.7-1.6,3.5-2.2,5.3c0-0.1,0-0.2,0-0.3"/>
		<path class="st2" d="M970.7,153.2c-0.8,1.7-1.5,3.5-2.2,5.3c0,0.1,0-0.1,0-0.1"/>
		<path class="st2" d="M966.9,151.9c-0.7,1.7-1.4,3.3-2.1,4.9"/>
		<path class="st2" d="M962.9,150.9c-0.2,1.8-0.6,3.6-1.1,5.3c0-0.1,0-0.2,0-0.3"/>
		<path class="st2" d="M957.9,150.7c0,1.7-0.1,3.4-0.1,5.1"/>
		<path class="st2" d="M953.8,150.7c0.1,1.8,0.3,3.6,0.4,5.5c0,0.1,0.1,0.1,0.1,0.2s-0.1,0-0.1,0"/>
		<path class="st2" d="M950,151.8c0.5,1.7,0.9,3.5,1.4,5.2"/>
		<path class="st2" d="M945.8,153.1c0.4,2,1,3.9,1.8,5.7"/>
		<path class="st2" d="M942.2,154.9c1,1.7,2.1,3.4,3.4,4.9"/>
		<path class="st2" d="M939.3,156.8c0.7,1.6,1.6,3.2,2.8,4.6"/>
		<path class="st2" d="M936.2,159c1.3,1.1,2.5,2.4,3.6,3.7"/>
		<path class="st2" d="M934.3,160.9c1.1,0.9,2.1,1.7,3.2,2.5"/>
		<path class="st2" d="M850.7,90.3c-0.3,15,0.3,30,1.9,44.8"/>
		<path class="st2" d="M820.3,163.9c0.3,3.5,0.5,7,0.7,10.5c0.6,9.3,1.2,18.6,1.8,27.9"/>
		<path class="st2" d="M824.3,164.3c0.3,12.9,0.7,25.7,1,38.6c0-0.5,0-1.1-0.1-1.6"/>
		<path class="st2" d="M812.9,258.5c0.2,4.2,0.2,8.5,0.1,12.7"/>
		<path class="st2" d="M815.7,259.2c-0.2,4.1,0,8.3,0.5,12.4"/>
		<path class="st2" d="M813.3,284.9c0.1,4,0.4,8,1,12c0,0.2,0.1,0.5,0.3,0.5s0.2-0.5,0-0.3"/>
		<path class="st2" d="M816,285.9c0.1,4.2,0.3,8.3,0.4,12.5c0-0.5,0-1,0.1-1.5"/>
		<path class="st2" d="M818.9,285.9c-0.2,4-0.2,8,0.2,12"/>
		<path class="st2" d="M921.1,349.4c-0.1,3.4-0.3,6.8-0.8,10.2c0,0.1-0.1,0.2-0.2,0.3s-0.1-0.2,0-0.2"/>
		<path class="st2" d="M919.2,349.9c0,3.5-0.1,7-0.1,10.4"/>
		<path class="st2" d="M916.1,349.8c-0.1,3.5-0.1,7-0.2,10.4"/>
		<path class="st2" d="M917.5,360.6c0,2-0.1,4-0.1,6"/>
		<path class="st2" d="M913.9,463.6c0.2,2.6,0.4,5.2,0.6,7.8"/>
		<path class="st2" d="M913,470.2c1.1,3,2.1,6,3.2,8.9c0,0.1,0.1,0.3,0.3,0.3c0.1,0,0.1-0.3,0-0.2"/>
		<path class="st2" d="M911.6,470.9c0.4,2.9,0.9,5.8,1.3,8.7"/>
		<path class="st2" d="M895.8,479.5c0.7-3.1,1.6-6.1,2.7-9.1c0.1,0.2,0.2,0.4,0.2,0.7"/>
		<g>
			<g>
				<g>
					<g>
						<g>
							<polyline class="st1" points="1015.6,315.2 995.5,315.2 995.5,299.8 978.9,299.8 978.9,315.2 970.2,315.2 970.2,289.3 
								1015.6,289.3 							"/>
							<polyline class="st1" points="1015.6,354.6 1012.7,354.6 1012.7,345.5 1015.6,345.5 983.5,345.5 983.5,340.5 983.5,305 
								990.8,305 990.8,340.5 1015.6,340.5 							"/>
							<path class="st1" d="M1015.6,412.2L1015.6,412.2c-5.9,0-10.3-5.4-9.2-11.2c3.6-18.5,4.5-36-2.5-46.4h11.6"/>
						</g>
						<g>
							<polyline class="st1" points="1015.6,315.2 1035.8,315.2 1035.8,299.8 1052.4,299.8 1052.4,315.2 1061.1,315.2 1061.1,289.3 
								1015.6,289.3 							"/>
							<polyline class="st1" points="1015.6,354.6 1018.6,354.6 1018.6,345.5 1015.6,345.5 1047.7,345.5 1047.7,340.5 1047.7,305 
								1040.4,305 1040.4,340.5 1015.6,340.5 							"/>
							<path class="st1" d="M1015.6,412.2L1015.6,412.2c5.9,0,10.3-5.4,9.2-11.2c-3.6-18.5-4.5-36,2.5-46.4h-11.6"/>
						</g>
					</g>
					<line class="st1" x1="990.8" y1="336.3" x2="1040.4" y2="336.3"/>
					<polyline class="st1" points="1009.2,379.2 964.3,379.2 964.3,282.2 1066.9,282.2 1066.9,379.2 1022.1,379.2 					"/>
				</g>
				<g>
					<circle class="st1" cx="975.1" cy="260.6" r="10.8"/>
					<circle class="st1" cx="975.1" cy="260.6" r="6.9"/>
				</g>
				<g>
					<circle class="st1" cx="1056.1" cy="260.6" r="10.8"/>
					<circle class="st1" cx="1056.1" cy="260.6" r="6.9"/>
				</g>
				<g>
					<circle class="st1" cx="1002.1" cy="260.6" r="10.8"/>
					<circle class="st1" cx="1002.1" cy="260.6" r="6.9"/>
				</g>
				<g>
					<circle class="st1" cx="1029.1" cy="260.6" r="10.8"/>
					<circle class="st1" cx="1029.1" cy="260.6" r="6.9"/>
				</g>
			</g>
			<path class="st2" d="M1006.3,358c1.2,1.3,2.3,2.6,3.5,3.9c0.7,0.8,1.4,1.5,2.3,2.1c0.9,0.5,2,0.7,2.9,0.3c1.6-0.8,2-3.1,3.6-3.9
				c0.8-0.4,1.8-0.3,2.7-0.5c1.8-0.3,3.1-1.7,4.4-3"/>
			<path class="st2" d="M1008,363c1.5,3,2.9,6,4.4,9c0.5,0.9,1,1.9,1.9,2.4c1.1,0.5,2.4,0.1,3.3-0.7s1.5-1.9,2-3s1-2.2,1.9-3
				c0.4-0.4,1-0.9,1-1.5"/>
			<path class="st2" d="M1009.6,372.5c0.8,3.1,1.8,6.4,4.5,8.2c0.2,0.1,0.3,0.2,0.5,0.2s0.4-0.1,0.6-0.1c3-1.3,4.8-4.4,6.6-7.1
				c0-0.1,0.1-0.1,0.2-0.1s0,0.2,0,0.1"/>
			<path class="st2" d="M1009.9,380.1c2.4,6.2,4.9,12.5,5.3,19.1c0.1,1.9,0.1,3.8-0.3,5.6c-0.5,2.2-1.5,4.4-2.9,6.2"/>
			<path class="st2" d="M1009,388.2c1.9,3.7,2.9,7.9,2.8,12.1c0,3.1-0.8,6.6-3.5,8.2"/>
			<path class="st2" d="M1006.5,404.9c1-0.4,1.4-1.6,1.5-2.7c0.2-1.6,0.1-3.1-0.2-4.7"/>
			<path class="st2" d="M1014.8,411.5c2.8-3.3,3.4-7.9,3.4-12.3c-0.1-4.3-0.6-8.7,0.3-13c0.3-1.6,1.2-3.4,2.9-3.5"/>
			<path class="st2" d="M1018.5,411.5c0.3-1.6,0.7-3.3,1-4.9s0.7-3.1,1.3-4.6s1.6-2.8,2.9-3.7"/>
			<path class="st2" d="M1023,387.3c-1.6,1.6-2.4,3.8-2.3,6.1c0,0.3,0,0.6,0.2,0.8c0.4,0.9,1.7,0.8,2.6,0.7"/>
			<path class="st2" d="M1008.5,354.7c0.4,1.6,1.2,3,2.2,4.3c0.3,0.3,0.5,0.7,0.9,0.9c1.1,0.7,2.7,0.1,3.5-1c0.8-1,1-2.4,1.2-3.7"/>
			<path class="st2" d="M971.7,254.9c0.9,2.5,1.7,5,2.6,7.5"/>
			<path class="st2" d="M1002.8,254.4c-0.2,2.6-0.4,5.2-0.5,7.9"/>
			<path class="st2" d="M1025.4,266.4c1.4-2.1,2.7-4.1,4.1-6.2"/>
			<path class="st2" d="M1049.7,261.8c2.4,0.1,4.8,0,7.2-0.3"/>
			<path class="st2" d="M983.5,306.2c2.6,1.2,5.1,2.4,7.7,3.6"/>
			<path class="st2" d="M983.8,309.8c2.6,0.3,5.1,0.8,7.6,1.5"/>
			<path class="st2" d="M984,312.4c2.4,0.2,4.7,0.4,7.1,0.7"/>
			<path class="st2" d="M1040.9,308.1c2.2-0.1,4.3-0.5,6.4-1"/>
			<path class="st2" d="M1040.7,309.2c2.2-0.1,4.4-0.2,6.6-0.3"/>
			<path class="st2" d="M1040.9,311.4c2.5,0.1,4.9,0.4,7.3,0.9"/>
			<path class="st2" d="M993.4,336.6c0,1.2,0,2.4,0,3.7"/>
			<path class="st2" d="M995.4,337c0,1.2-0.1,2.3-0.5,3.4"/>
			<path class="st2" d="M997.9,337c-0.4,1.2-0.6,2.4-0.6,3.7"/>
			<path class="st2" d="M1000.2,336.8c0.1,1.5,0.3,2.9,0.7,4.3"/>
		</g>
		<path class="st2" d="M1106.5,137.4c4.3-0.1,8.7,0.1,13,0.5"/>
		<path class="st2" d="M1106.5,139.7c4,0.1,7.9,0.2,11.9,0.3c0.6,0,1.3,0,1.7,0.5"/>
		<g>
			<rect x="979.2" y="27.8" class="st1" width="9.9" height="9.9"/>
			<rect x="961.2" y="27.8" class="st1" width="9.9" height="9.9"/>
			<path class="st1" d="M934,29V19c0-10.3-8.4-18.7-18.7-18.7l0,0c-10.3,0-18.7,8.4-18.7,18.7v10"/>
			<rect x="887" y="29" class="st1" width="56.7" height="8.7"/>
			<path class="st1" d="M918.9,29V14.3c0-2-1.6-3.5-3.5-3.5l0,0c-2,0-3.5,1.6-3.5,3.5V29"/>
			<path class="st2" d="M961,35.4c3.5-0.1,6.9-0.4,10.3-1.1"/>
			<path class="st2" d="M961.3,33.1c3.3,0.2,6.6,0,9.9-0.4"/>
			<path class="st2" d="M978.9,34.3c0.8,0.6,1.9,0.7,2.9,0.8c2.5,0.1,5,0.3,7.6,0.4"/>
			<path class="st2" d="M979.3,33.4c3.2,0.2,6.5-0.1,9.6-0.8"/>
			<path class="st2" d="M938.1,29.3c-0.1,2.7-0.1,5.5-0.2,8.2"/>
			<path class="st2" d="M930.6,29.5c0.2,2.4,0.4,4.8,0.6,7.2"/>
			<path class="st2" d="M928,29.7c0.2,2.4,0.3,4.8,0.5,7.2"/>
			<path class="st2" d="M892.1,29c-0.1,2.7-0.3,5.5-0.5,8.2"/>
		</g>
		<path class="st2" d="M1127.9,37c-0.8,7.4-1.4,14.8-1.9,22.2c0-0.3,0-0.7,0-1"/>
		<path class="st2" d="M1121,37.9c0.1,7.1,0.2,14.2,0.2,21.2"/>
		<path class="st2" d="M1092.3,37.9c-0.1,7-0.3,14-0.5,21"/>
		<path class="st2" d="M1088.8,37.7c-0.1,7.1-0.2,14.3-0.3,21.4c0-0.2,0-0.4,0.1-0.6"/>
		<path class="st2" d="M1075.9,37.2c-0.1,7.1,0.4,14.2,1.3,21.2"/>
		<path class="st2" d="M1132.6,38.2c0.2,7-0.1,14-0.7,20.9"/>
		<path class="st2" d="M1134.7,38.2c0.2,7,0.5,13.9,0.7,20.9"/>
		<path class="st2" d="M1023.5,37.5c-0.4,7.2-0.8,14.3-1,21.5c0-0.3,0.1-0.6,0.1-1"/>
	</g>
	<g>
		<g>
			<g>
				<rect x="1120.2" y="364.4" class="st0" width="10.9" height="45.2"/>
				<rect x="1131.1" y="373.5" class="st0" width="9.9" height="9.9"/>
				<rect x="1131.1" y="391.5" class="st0" width="9.9" height="9.9"/>
			</g>
			<g>
				<polyline class="st1" points="1120.2,409.6 1131.1,409.6 1131.1,364.4 1120.2,364.4 				"/>
				<rect x="1131.1" y="373.5" class="st1" width="9.9" height="9.9"/>
				<rect x="1131.1" y="391.5" class="st1" width="9.9" height="9.9"/>
			</g>
			<path class="st1" d="M1141,397.6c11.2,2.3,20.2,13.2,20,24.6"/>
			<path class="st1" d="M1141,395.7c7.2-1.7,13.9-5.4,19.1-10.6"/>
			<path class="st2" d="M1134.3,373.7c0,3.2-0.3,6.4-0.8,9.6"/>
			<path class="st2" d="M1135.8,374.1c0.3,2.9,0.5,5.7,0.6,8.6"/>
			<path class="st2" d="M1133.2,392.1c0.1,3,0,6-0.2,9c0-0.2,0-0.4,0-0.6"/>
			<path class="st2" d="M1135,392.2c-0.1,2.9,0,5.7,0,8.6"/>
			<path class="st2" d="M1135,394.1c0.7,2.2,1.4,4.3,2,6.5"/>
			<path class="st2" d="M1123.6,365.1c0.1,14.5-0.2,29.1-1,43.6"/>
			<line class="st1" x1="1120.2" y1="364.4" x2="1120.2" y2="409.6"/>
		</g>
		<g>
			<g>
				<path class="st0" d="M1131.1,110.4h9.9c0.6,0,1-0.4,1-1v-9.9c0-0.6-0.4-1-1-1h-9.9c-0.6,0-1,0.4-1,1v9.9
					C1130.1,109.9,1130.6,110.4,1131.1,110.4z"/>
				<path class="st0" d="M1131.1,128.3h9.9c0.6,0,1-0.4,1-1v-9.9c0-0.6-0.4-1-1-1h-9.9c-0.6,0-1,0.4-1,1v9.9
					C1130.1,127.9,1130.6,128.3,1131.1,128.3z"/>
				<path class="st0" d="M1183.2,49.6h7.2v8.9c0,0.6,0.4,1,1,1h9.9c0.6,0,1-0.4,1-1v-8.9h6.1v8.9c0,0.6,0.4,1,1,1h9.9
					c0.6,0,1-0.4,1-1v-8.9h2.5c0.1,0.1,0.2,0.1,0.3,0.1l0,0c0.1,0,0.2,0,0.2-0.1h5c0.6,0,1-0.4,1-1V37.7c0-0.6-0.4-1-1-1h-45.2
					c-0.6,0-1,0.4-1,1v10.9C1182.2,49.2,1182.7,49.6,1183.2,49.6z"/>
				<path class="st0" d="M1316.7,36.7h-52.9c-0.6,0-1,0.4-1,1v5.5c0,0.6,0.4,1,1,1h6.2v4.5c0,0.6,0.4,1,1,1h3.9
					c-6.1,33-23.6,63.1-49.3,84.9c-26.1,22.1-59.3,34.4-93.5,34.6V164c0-0.6-0.4-1-1-1h-9.9v-3c3.1-0.5,5.5-3.2,5.5-6.4
					c0-3.6-2.9-6.5-6.5-6.5c-0.6,0-1,0.4-1,1v15.8v38.5v15.8c0,0.6,0.4,1,1,1c3.6,0,6.5-2.9,6.5-6.5c0-3.2-2.4-5.9-5.5-6.4v-2.9h9.9
					c0.6,0,1-0.4,1-1v-4c2.1,0,4.2-0.1,6.3-0.1l0,0l0,0c0,0,0,0,0.1,0c2.8-0.1,5.6-0.3,8.3-0.5l0,0h0.1l0,0c2.4-0.2,4.9-0.5,7.3-0.8
					l0,0c0.1,0,0.2,0,0.2,0l0,0c2.4-0.3,4.7-0.7,7.1-1.1l0,0l0,0c3.1-0.5,6.2-1.2,9.3-1.9h0.1c0,0,0,0,0.1,0c2.7-0.6,5.3-1.3,7.9-2
					c0,0,0,0,0.1,0l0,0c3.2-0.9,6.4-1.9,9.6-3c0.1,0,0.1,0,0.2-0.1c2.6-0.9,5.3-1.9,7.9-2.9c0.1,0,0.2-0.1,0.2-0.1
					c2.1-0.9,4.2-1.8,6.3-2.7l0,0c0,0,0,0,0.1,0c5.1-2.3,10.1-4.9,15-7.7l0,0l0,0c2.5-1.4,5-3,7.4-4.5c0,0,0,0,0.1,0l0,0
					c2.1-1.3,4.1-2.7,6.1-4.1l0,0l0,0c1.6-1.1,3.2-2.3,4.7-3.5h0.1l0,0c2.1-1.6,4.1-3.2,6.2-4.9c0,0,0,0,0.1,0l0,0
					c2.4-2,4.8-4.1,7.2-6.3c0,0,0,0,0.1,0c0,0,0,0,0-0.1c1.6-1.5,3.2-3,4.8-4.6c0.2-0.2,0.4-0.5,0.7-0.7l0,0l0,0
					c26.3-26.6,43.1-60,48.7-96.7h4.8c0.6,0,1-0.4,1-1v-4.5h6.2c0.6,0,1-0.4,1-1v-5.5C1317.7,37.1,1317.3,36.7,1316.7,36.7z"/>
			</g>
			<line class="st1" x1="1920.8" y1="37.7" x2="1151.3" y2="37.7"/>
			<g>
				<rect x="1120.2" y="163.9" class="st1" width="10.9" height="38.5"/>
				<path class="st1" d="M1137.2,170c0.4,9.1,0.8,18.3,1.3,27.4"/>
				<path class="st1" d="M1143.2,169.6c1.2,9.1,2.4,18.1,3.6,27.2"/>
				<path class="st1" d="M1149,169c1.4,9.1,3.2,18.1,5.4,27"/>
				<path class="st1" d="M1120.2,207.3c3,0,5.5,2.5,5.5,5.5s-2.5,5.5-5.5,5.5"/>
				<path class="st1" d="M1120.2,148.2c3,0,5.5,2.5,5.5,5.5s-2.5,5.5-5.5,5.5"/>
				<rect x="1131.1" y="99.4" class="st1" width="9.9" height="9.9"/>
				<rect x="1131.1" y="117.4" class="st1" width="9.9" height="9.9"/>
				<path class="st2" d="M1133.7,99.5c-0.3,3.2-0.7,6.3-1,9.5c0-0.1,0.1-0.3,0.1-0.4"/>
				<path class="st2" d="M1135.3,100.1c0,3.2,0,6.3,0,9.5"/>
				<path class="st2" d="M1133.3,117.8c-0.3,3.2-0.4,6.4-0.4,9.7c0-0.1,0.1-0.2,0.1-0.3"/>
				<path class="st2" d="M1134.6,118c0,3,0.1,6.1,0.3,9.1"/>
				<path class="st2" d="M1136.5,118.3c0,3,0.1,6,0.3,9"/>
				<path class="st2" d="M1122.4,164.3c0.6,12.6,1.2,25.1,1.8,37.7"/>
			</g>
			<path class="st1" d="M1197.5,58.5c10.6,46.8,54,82,108.6,82c62.4,0,112.9-46.1,112.9-102.9"/>
			<path class="st1" d="M1131.1,170.1c72.5,0,132.8-52.4,145-121.5"/>
			<g>
				<polyline class="st1" points="1183.2,37.7 1183.2,48.6 1228.4,48.6 1228.4,37.7 				"/>
				<rect x="1209.5" y="48.6" class="st1" width="9.9" height="9.9"/>
				<rect x="1191.5" y="48.6" class="st1" width="9.9" height="9.9"/>
			</g>
			<path class="st1" d="M1284.6,106.5c11.4-0.6,22.6-3.8,32.4-9.6c20.7-12.2,34.2-35.4,35.3-59.3"/>
			<path class="st1" d="M1216,58.5c2.3,15.1,12.6,28.4,25.5,36.8c4.3,2.8,8.9,5.1,13.7,6.8"/>
			<path class="st1" d="M1141,105.9c16,0.4,32.1-3.6,46-11.5c7.4-4.2,14.2-9.6,19-16.6c3.9-5.6,6.3-12.4,6.3-19.2"/>
			<path class="st1" d="M1141,123c22.7,10.6,13.5,41.7,12.8,63.7c-0.7,22.8-3.6,45.8,1.2,68.1c1.3,6.2,3.3,12.4,7.1,17.4
				c3.8,5,9.8,8.7,16.1,8.5c3.1-0.1,6.3-1.2,8.2-3.7c1.9-2.4,2.1-6.3,0-8.5c-3.1-3.2-8.5-1.4-12.1,1.2
				c-16.3,11.7-20.3,34.7-17.6,54.6c1.5,11.4,4.8,22.9,3.1,34.2c-1.6,10.2-8.9,17.8-18.8,19.5"/>
			<path class="st1" d="M1141,121.1c27.8-4.4,49.2-34.2,53.4-62.6"/>
			<path class="st2" d="M1191.1,51.6c3.4,0,6.9-0.2,10.3-0.8"/>
			<path class="st2" d="M1191.7,52.9c3.1,0.1,6.2,0.2,9.3,0.3c0.2,0,0.5,0.1,0.5,0.3"/>
			<path class="st2" d="M1209.3,50.6c3.3,0.3,6.5,0.5,9.8,0.8"/>
			<path class="st2" d="M1209.1,52.9c3.2,0.3,6.5,0.2,9.8-0.2"/>
			<path class="st2" d="M1223,38.6c-0.1,3.5-0.1,7.1,0.1,10.6"/>
			<polyline class="st1" points="1309.5,43.1 1309.5,48.6 1271,48.6 1271,43.1 			"/>
			<path class="st1" d="M1303.9,48.6c-5.4,36.9-22.5,70.9-49.3,97.7c-33,33-76.9,51.2-123.5,51.2"/>
			<path class="st1" d="M1157.9,167.7c0.7,9.1,2,18.2,3.7,27.2"/>
			<path class="st1" d="M1164.9,166.2c2,8.9,4,17.8,6,26.8"/>
			<path class="st1" d="M1171.1,164.6c1.9,9,4.4,17.8,7.7,26.3"/>
			<path class="st1" d="M1176.2,163.1c3.7,8.5,7.8,16.8,12.3,24.8"/>
			<path class="st1" d="M1182.2,161c4.8,8,9.6,15.9,14.4,23.9"/>
			<path class="st1" d="M1193.5,156.3c3,8.7,6.2,17.3,9.5,25.8"/>
			<path class="st1" d="M1200.9,152.6c3,8.8,5.9,17.6,8.5,26.5"/>
			<path class="st1" d="M1205.8,149.8c4.1,8.2,8.1,16.4,12.2,24.7"/>
			<path class="st1" d="M1210,147.2c5.1,7.6,10.3,15.1,15.4,22.7"/>
			<path class="st1" d="M1216.1,143.1c5.3,7.4,10.5,15,15.5,22.6"/>
			<path class="st1" d="M1219.9,140.3c4.9,7.7,10.4,15.1,16.4,22"/>
			<path class="st1" d="M1223.9,137.2c3.3,4.1,6.9,8,10.6,11.8c2.7,2.8,5.4,5.6,8,8.4"/>
			<path class="st1" d="M1229.6,132.4c2.6,2.3,5.3,4.5,7.9,6.8c4.3,3.7,8.7,7.5,12.4,11.8"/>
			<path class="st1" d="M1235.2,127.1c6.8,6.1,13.6,12.3,20.2,18.6"/>
			<path class="st1" d="M1248.3,112.1c7.4,5.4,14.9,10.6,22.6,15.6"/>
			<path class="st1" d="M1252.7,106c7.8,4.9,16.1,9.1,24.7,12.5"/>
			<path class="st1" d="M1256.9,99.4c7.5,4.9,17.8,5.7,25.8,10.3"/>
			<path class="st1" d="M1260.8,92.7c8.5,3.6,16.9,7.2,25.3,10.9"/>
			<path class="st1" d="M1263.8,86.8c8.6,3.3,17.4,6.2,26.2,8.7"/>
			<path class="st1" d="M1266.6,80.7c8.6,3.2,17.2,6.4,25.8,9.5"/>
			<path class="st1" d="M1268.8,75.2c8.9,2.7,18,4.6,27.2,5.6"/>
			<path class="st1" d="M1271.2,68.5c9.3,0.8,18.5,1.9,27.7,3.2"/>
			<path class="st1" d="M1272.8,63.1c9.4,0.2,18.8,0.4,28.2,0.6"/>
			<path class="st1" d="M1274.5,56.7c7.5,0.1,15.1,0.3,22.6,0.4c1.8,0,3.5,0.1,5.3,0.2"/>
			<path class="st1" d="M1275.1,53.8c9.3-0.5,18.7-0.7,28-0.5"/>
			<rect x="1263.8" y="37.7" class="st1" width="52.9" height="5.5"/>
			<path class="st2" d="M1306.9,37.9c0,1.8,0,3.7,0,5.5"/>
			<path class="st2" d="M1304,37.5c0.3,1.5,0.3,3,0.2,4.5"/>
			<path class="st2" d="M1301,37.9c0.3,1.6,0.7,3.2,1,4.8"/>
			<path class="st2" d="M1305.6,43c0,1.9,0,3.9,0,5.8"/>
			<path class="st2" d="M1300.5,43.4c0.3,1.7,0.6,3.4,0.9,5.2"/>
			<path class="st2" d="M1279.5,43c-0.1,1.9,0.1,3.9,0.4,5.8"/>
			<line class="st1" x1="1120.2" y1="148.2" x2="1120.2" y2="218.2"/>
		</g>
	</g>
</g>
</svg>
