<?xml version="1.0" encoding="utf-8"?>
<!-- Generator: Adobe Illustrator 19.0.0, SVG Export Plug-In . SVG Version: 6.00 Build 0)  -->
<svg version="1.1" id="Слой_1" xmlns="http://www.w3.org/2000/svg" xmlns:xlink="http://www.w3.org/1999/xlink" x="0px" y="0px"
	 viewBox="947 -262 1920 548" style="enable-background:new 947 -262 1920 548;" xml:space="preserve">
<style type="text/css">
	.st0{fill:#F4E1A1;}
	.st1{fill:none;stroke:#817957;stroke-width:2;stroke-linecap:round;stroke-linejoin:round;stroke-miterlimit:10;}
	.st2{fill:none;stroke:#817957;stroke-linecap:round;stroke-linejoin:round;stroke-miterlimit:10;}
</style>
<g id="_x31_6">
	<g>
		<path class="st0" d="M1318.8-224.3l32.9,12.2c0,0,92.4,34.4,206.4,34.4c87.1,0,161.7-20.1,192-29.6v-12.2
			c-30.3,9.5-104.8,29.6-192,29.6c-114,0-206.4-34.4-206.4-34.4H1318.8z"/>
		<line class="st1" x1="1750.1" y1="-224.3" x2="1285.5" y2="-224.3"/>
		<path class="st1" d="M1302.7-224.3c0,41.6,46.1,75.3,102.9,75.3c56.8,0,102.9-75.3,102.9-75.3"/>
		<path class="st1" d="M1447.8-224.3c0,8.7,1.2,17.1,3.5,25"/>
		<path class="st1" d="M1602.7-157.9c17.5-16.7,28.5-40.3,28.5-66.4"/>
		<path class="st1" d="M1456-186.3c14.5,31.6,46.4,53.6,83.5,53.6c10.4,0,20.3-1.7,29.6-4.9"/>
		<path class="st1" d="M1617.4-224.3c0,10.8,1.7,21.2,4.7,31"/>
		<path class="st1" d="M1626.6-181.6c16.3,35.9,52.4,60.8,94.3,60.8c10.2,0,20-1.5,29.3-4.2"/>
		<path class="st1" d="M1750.1-219.5c-30.3,9.5-104.8,29.6-192,29.6c-114,0-206.4-34.4-206.4-34.4"/>
		<path class="st1" d="M1750.1-207.3c-30.3,9.5-104.8,29.6-192,29.6c-114,0-206.4-34.4-206.4-34.4l-32.9-12.2"/>
		<path class="st1" d="M1646.3-224.3c1.7,19.4,4.5,39.5,16.4,54.8c11.3,14.6,30,22.7,48.5,22.6c11.6,0,23-3.1,34.4-4.9
			c1.5-0.2,3-0.5,4.5-0.6"/>
		<path class="st1" d="M1637.4-224.3c0,9.7,1.3,19.3,3.7,28.7"/>
		<path class="st1" d="M1645-183.9c0.2,0.6,0.5,1.2,0.7,1.7c4.2,10.4,10.6,20.7,20.6,25.8c4.3,2.2,9,3.3,13.8,3.9
			c11.6,1.5,23.5,0.3,34.5-3.7c7-2.5,13.6-6.1,20.5-8.5c4.9-1.7,9.9-3.1,15-4"/>
		<path class="st1" d="M1345.3-214.5c7.1,14,18.1,26.2,31.2,35.1c19.1,13,42.4,19.3,65.5,20.3c26.8,1.1,54.4-5,76.5-19.9"/>
		<path class="st1" d="M1532.6-190.5c13-12.3,24.1-26.7,41.8-33.8"/>
		<g>
			<g>
				<polygon class="st0" points="1606.7,-152.2 1602.7,-152.2 1602.7,-168.1 1600.7,-168.1 1600.7,-172.2 1591.1,-172.2 
					1591.1,-168.1 1584.9,-168.1 1584.9,-172.2 1575.3,-172.2 1575.3,-168.1 1573.3,-168.1 1573.3,-152.2 1569.3,-152.2 
					1569.3,-143.5 1591.5,-143.5 1606.7,-143.5 				"/>
				<path class="st0" d="M1590.4-143.5h-21.1v10c0,10.3,8.4,18.7,18.7,18.7c10.3,0,18.7-8.4,18.7-18.7v-10h-15.2l0,0H1590.4z"/>
			</g>
			<path class="st1" d="M1569.3-143.5v10c0,10.3,8.4,18.7,18.7,18.7l0,0c10.3,0,18.7-8.4,18.7-18.7v-10"/>
			<rect x="1569.3" y="-152.3" class="st1" width="37.4" height="8.7"/>
			<path class="st1" d="M1584.5-143.5v14.7c0,2,1.6,3.5,3.5,3.5l0,0c2,0,3.5-1.6,3.5-3.5v-14.7"/>
			<rect x="1573.3" y="-168.1" class="st1" width="29.5" height="15.8"/>
			<rect x="1575.3" y="-172.2" class="st1" width="9.6" height="4.1"/>
			<rect x="1591.1" y="-172.1" class="st1" width="9.6" height="4.1"/>
		</g>
		<path class="st1" d="M1580.3-172.2c-1.8-9.7-0.4-19.6,1.8-29.2c1.8-7.7,4-15.2,5.6-22.9"/>
		<path class="st1" d="M1595.5-172.2c-0.3-2.2-0.6-4.4-0.8-6.7"/>
		<path class="st1" d="M1594.5-191.1c0.1-2,0.2-4.1,0.4-6.1c0.8-7.8,2.5-15.5,2.3-23.4c0-1.3-0.1-2.5-0.3-3.8"/>
		<path class="st2" d="M1744.7-217.4c0.9,3.4,1.8,6.7,2.7,10.1c0,0.1,0.1,0.3,0.2,0.3c0.1,0,0.1-0.2,0-0.2"/>
		<path class="st2" d="M1741.7-216.4c0.9,3.6,2.2,7,3.8,10.3"/>
		<path class="st2" d="M1739.5-215.7c0.2,3.9,0.8,7.8,1.6,11.7"/>
		<path class="st2" d="M1736.1-215c0.7,3.4,1.5,6.8,2.5,10.1"/>
		<path class="st2" d="M1600.4-152.4c0,3.1,0,6.1,0,9.2c0-0.1,0-0.3,0-0.4"/>
		<path class="st2" d="M1597.4-152c0.3,2.2,0.4,4.4,0.5,6.6c0,0.5,0.1,0.9,0.1,1.4v0.1"/>
		<path class="st2" d="M1595.6-151.7c0.1,2.6,0.3,5.2,0.4,7.8c0,0.1,0,0.2,0.1,0.2s0.2-0.1,0.1-0.1"/>
		<path class="st2" d="M1599-167.4c-0.1,5-0.2,9.9-0.5,14.9"/>
		<path class="st2" d="M1596.2-167.5c0.1,1.2,0.1,2.4,0.1,3.6c0.1,3.7,0.2,7.4,0.3,11.1"/>
		<path class="st2" d="M1575.6-152c-0.1,2.9-0.1,5.7-0.2,8.6"/>
		<line class="st1" x1="1750.1" y1="-219.5" x2="1750.1" y2="-207.3"/>
	</g>
	<g>
		<g>
			<path class="st0" d="M1749.4,178.4H947.8C1214.5,178.4,1482.5,178.4,1749.4,178.4z"/>
			<path class="st0" d="M1701.9,121v-1.2c-0.1,0-0.2,0-0.3,0c-0.7,0.4-1.5,0.7-2.5,0.7c-6.2,0-12.3,0.2-18.5,0.1
				c-3.7,0-7.4-0.5-11.1-0.7c-0.1,0-0.1,0.1-0.2,0.1c-2.2,0.8-4,0-6.2,0c-0.6,0-1.2-0.1-1.6-0.2c-12,0.9-24,0.8-36.1,0.6
				c-6.4-0.1-12.8,0.1-19.1-0.4c-0.5,0-1.1-0.1-1.7-0.1c-3.6,0.9-7.3,0.6-11.1,0.5c-3-0.1-6-0.2-9-0.5c-0.5,0.2-1.2,0.3-1.8,0.3
				c-0.5,0-1-0.1-1.4-0.2c-1.7,0.2-3.5,0.3-5.3,0.2c-2.1,0.1-4.1,0.2-6.1,0H1540c-0.5,0-1-0.1-1.4-0.2c-1.4,0.4-3.1,0.4-4.8,0.1
				c-0.8-0.1-1.4-0.2-2.2-0.3v1.1h-46.5v-1c-4,0.5-8.3,0.1-12.1,0.1c-7.7-0.1-15.3,0-23,0c-7.6,0-15.2-0.2-22.8,0.1
				c-4.3,0.1-8.5,0.3-12.7-0.2c-0.1,0-0.1,0-0.2,0c-1.6,0.4-3.2,0.3-4.7,0.1c-0.4,0.1-0.8,0.2-1.3,0.2c-17.2,0-34.4,0.2-51.6,0.2
				c-8.8,0-17.6,0.3-26.4-0.1c-2.7-0.1-5.5-0.1-8.4-0.3c-2.2,0.9-4.8,0.9-7,0.3v0.7H1269v-1.2c-0.1,0-0.2,0-0.3,0.1
				c-2.9,0.3-5.7,0.2-8.6,0.2h-19.3c-6.3,0-12.7-0.3-18.9,0.1c-3.7,0.2-7.5,0.7-11.2-0.2c-4,0.4-8.1,0.2-12.2,0.3
				c-5.2,0.1-10.4,0.2-15.6,0.2c-5.3,0-10.6,0-15.8-0.5c-0.2,0-0.3,0-0.5-0.1c-2,0.5-4.1,0.3-6.3,0.2c0,0,0,0-0.1,0
				c-1.5,0-3,0-4.4-0.3c-1.7,0.4-3.6,0.4-5.5,0.3c-3.7,0.3-7.5,0.2-11.3,0.1c-1.1,0.2-2.3,0.4-3.3,0.5c-2,0.1-4-0.1-5.8-0.8
				c-0.5,0.2-1.1,0.3-1.7,0.3c-5,0.1-11,1.5-16.1,0c-0.4,0.1-0.8,0.2-1.3,0.2s-1.1-0.1-1.5-0.2c-0.5,0.1-0.9,0.2-1.5,0.2
				c-0.5,0-0.9-0.1-1.3-0.2h-2.5c-0.4,0-0.7,0-1-0.1l0,0c-0.1,0-0.3,0-0.4-0.1c-0.1,0-0.3,0-0.4,0c-0.5,0-0.9-0.1-1.3-0.2
				c-0.4,0.1-0.9,0.2-1.3,0.2c-0.3,0-0.7,0-1-0.1v1H947.9v12.4c-0.1,0-0.1-0.1-0.2-0.1l0.2,13.3l-0.2,11.4c0.1,0,0.1-0.1,0.2-0.1
				v9.1h833.3V121H1701.9z"/>
		</g>
		<g>
			<line class="st1" x1="947.8" y1="121.1" x2="1781.2" y2="121.1"/>
			<line class="st1" x1="1781.2" y1="167.1" x2="947.8" y2="167.1"/>
			<line class="st1" x1="947.8" y1="123.8" x2="1781.2" y2="123.8"/>
			<line class="st1" x1="1781.2" y1="164.4" x2="947.8" y2="164.4"/>
			<g>
				<circle class="st1" cx="1067.1" cy="144.1" r="15.9"/>
				<path class="st1" d="M1067.1,157.2c-7.2,0-13.1-5.9-13.1-13.1s5.9-13.1,13.1-13.1c7.2,0,13.1,5.9,13.1,13.1
					S1074.3,157.2,1067.1,157.2z"/>
				<circle class="st1" cx="1067.1" cy="144.1" r="5.8"/>
				<line class="st1" x1="1067.1" y1="149.9" x2="1067.1" y2="160"/>
			</g>
			<g>
				<circle class="st1" cx="1098.8" cy="144.1" r="5.8"/>
			</g>
			<g>
				<circle class="st1" cx="1130.5" cy="144.1" r="15.9"/>
				<path class="st1" d="M1130.5,157.2c-7.2,0-13.1-5.9-13.1-13.1s5.9-13.1,13.1-13.1s13.1,5.9,13.1,13.1S1137.7,157.2,1130.5,157.2
					z"/>
				<circle class="st1" cx="1130.5" cy="144.1" r="5.8"/>
				<line class="st1" x1="1130.5" y1="149.9" x2="1130.5" y2="160"/>
			</g>
			<g>
				<circle class="st1" cx="1162.2" cy="144.1" r="5.8"/>
			</g>
			<g>
				<circle class="st1" cx="1193.9" cy="144.1" r="15.9"/>
				<path class="st1" d="M1193.9,157.2c-7.2,0-13.1-5.9-13.1-13.1s5.9-13.1,13.1-13.1c7.2,0,13.1,5.9,13.1,13.1
					S1201.2,157.2,1193.9,157.2z"/>
				<circle class="st1" cx="1193.9" cy="144.1" r="5.8"/>
				<line class="st1" x1="1193.9" y1="149.9" x2="1193.9" y2="160"/>
			</g>
			<g>
				<path class="st1" d="M948.2,130.3c4.8,2.7,8,7.9,8,13.8c0,6-3.4,11.3-8.4,14"/>
				<path class="st1" d="M947.8,133.4c3.4,2.4,5.6,6.3,5.6,10.8c0,4.3-2.1,8.2-5.4,10.6"/>
			</g>
			<g>
				<circle class="st1" cx="972" cy="144.1" r="5.8"/>
			</g>
			<g>
				<circle class="st1" cx="1003.7" cy="144.1" r="15.9"/>
				<path class="st1" d="M1003.7,157.2c-7.2,0-13.1-5.9-13.1-13.1s5.9-13.1,13.1-13.1s13.1,5.9,13.1,13.1S1010.9,157.2,1003.7,157.2
					z"/>
				<circle class="st1" cx="1003.7" cy="144.1" r="5.8"/>
				<line class="st1" x1="1003.7" y1="149.9" x2="1003.7" y2="160"/>
			</g>
			<g>
				<circle class="st1" cx="1035.4" cy="144.1" r="5.8"/>
			</g>
			<g>
				<circle class="st1" cx="1225.6" cy="144.1" r="5.8"/>
			</g>
			<g>
				<circle class="st1" cx="1257.3" cy="144.1" r="15.9"/>
				<path class="st1" d="M1257.3,157.2c-7.2,0-13.1-5.9-13.1-13.1s5.9-13.1,13.1-13.1c7.2,0,13.1,5.9,13.1,13.1
					S1264.6,157.2,1257.3,157.2z"/>
				<circle class="st1" cx="1257.3" cy="144.1" r="5.8"/>
				<line class="st1" x1="1257.3" y1="149.9" x2="1257.3" y2="160"/>
			</g>
			<g>
				<circle class="st1" cx="1289" cy="144.1" r="5.8"/>
			</g>
			<g>
				<circle class="st1" cx="1320.7" cy="144.1" r="15.9"/>
				<path class="st1" d="M1320.7,157.2c-7.2,0-13.1-5.9-13.1-13.1s5.9-13.1,13.1-13.1c7.2,0,13.1,5.9,13.1,13.1
					S1328,157.2,1320.7,157.2z"/>
				<circle class="st1" cx="1320.7" cy="144.1" r="5.8"/>
				<line class="st1" x1="1320.7" y1="149.9" x2="1320.7" y2="160"/>
			</g>
			<g>
				<circle class="st1" cx="1352.5" cy="144.1" r="5.8"/>
			</g>
			<g>
				<circle class="st1" cx="1384.2" cy="144.1" r="15.9"/>
				<path class="st1" d="M1384.2,157.2c-7.2,0-13.1-5.9-13.1-13.1s5.9-13.1,13.1-13.1c7.2,0,13.1,5.9,13.1,13.1
					S1391.4,157.2,1384.2,157.2z"/>
				<circle class="st1" cx="1384.2" cy="144.1" r="5.8"/>
				<line class="st1" x1="1384.2" y1="149.9" x2="1384.2" y2="160"/>
			</g>
			<g>
				<circle class="st1" cx="1415.9" cy="144.1" r="5.8"/>
			</g>
			<g>
				<circle class="st1" cx="1447.6" cy="144.1" r="15.9"/>
				<path class="st1" d="M1447.6,157.2c-7.2,0-13.1-5.9-13.1-13.1s5.9-13.1,13.1-13.1c7.2,0,13.1,5.9,13.1,13.1
					S1454.8,157.2,1447.6,157.2z"/>
				<circle class="st1" cx="1447.6" cy="144.1" r="5.8"/>
				<line class="st1" x1="1447.6" y1="149.9" x2="1447.6" y2="160"/>
			</g>
			<g>
				<circle class="st1" cx="1479.3" cy="144.1" r="5.8"/>
			</g>
			<g>
				<circle class="st1" cx="1511" cy="144.1" r="15.9"/>
				<path class="st1" d="M1511,157.2c-7.2,0-13.1-5.9-13.1-13.1s5.8-13.1,13.1-13.1s13.1,5.9,13.1,13.1S1518.2,157.2,1511,157.2z"/>
				<circle class="st1" cx="1511" cy="144.1" r="5.8"/>
				<line class="st1" x1="1511" y1="149.9" x2="1511" y2="160"/>
			</g>
			<g>
				<circle class="st1" cx="1542.7" cy="144.1" r="5.8"/>
			</g>
			<g>
				<circle class="st1" cx="1574.4" cy="144.1" r="15.9"/>
				<path class="st1" d="M1574.4,157.2c-7.2,0-13.1-5.9-13.1-13.1s5.9-13.1,13.1-13.1s13.1,5.9,13.1,13.1S1581.6,157.2,1574.4,157.2
					z"/>
				<circle class="st1" cx="1574.4" cy="144.1" r="5.8"/>
				<line class="st1" x1="1574.4" y1="149.9" x2="1574.4" y2="160"/>
			</g>
			<g>
				<circle class="st1" cx="1606.1" cy="144.1" r="5.8"/>
			</g>
			<g>
				<circle class="st1" cx="1637.8" cy="144.1" r="15.9"/>
				<path class="st1" d="M1637.8,157.2c-7.2,0-13.1-5.9-13.1-13.1s5.9-13.1,13.1-13.1s13.1,5.9,13.1,13.1S1645,157.2,1637.8,157.2z"
					/>
				<circle class="st1" cx="1637.8" cy="144.1" r="5.8"/>
				<line class="st1" x1="1637.8" y1="149.9" x2="1637.8" y2="160"/>
			</g>
			<g>
				<circle class="st1" cx="1669.5" cy="144.1" r="5.8"/>
			</g>
			<g>
				<circle class="st1" cx="1701.2" cy="144.1" r="15.9"/>
				<path class="st1" d="M1701.2,157.2c-7.2,0-13.1-5.9-13.1-13.1s5.9-13.1,13.1-13.1c7.2,0,13.1,5.9,13.1,13.1
					S1708.4,157.2,1701.2,157.2z"/>
				<circle class="st1" cx="1701.2" cy="144.1" r="5.8"/>
				<line class="st1" x1="1701.2" y1="149.9" x2="1701.2" y2="160"/>
			</g>
			<g>
				<circle class="st1" cx="1732.9" cy="144.1" r="5.8"/>
			</g>
			<g>
				<circle class="st1" cx="1764.6" cy="144.1" r="15.9"/>
				<path class="st1" d="M1764.6,157.2c-7.2,0-13.1-5.9-13.1-13.1s5.9-13.1,13.1-13.1s13.1,5.9,13.1,13.1S1771.8,157.2,1764.6,157.2
					z"/>
				<circle class="st1" cx="1764.6" cy="144.1" r="5.8"/>
				<line class="st1" x1="1764.6" y1="149.9" x2="1764.6" y2="160"/>
			</g>
		</g>
		<path class="st1" d="M1781.5,178.4c-277.6,0-556.3,0-833.7,0"/>
		<line class="st1" x1="947.8" y1="121.1" x2="947.8" y2="167.1"/>
		<line class="st1" x1="1781.2" y1="121.1" x2="1781.2" y2="167.1"/>
	</g>
	<g>
		<path class="st0" d="M2098.3-225.3h-23c-0.1-0.1-0.2-0.2-0.3-0.2c-0.2,0-0.3,0.1-0.4,0.2h-137.5v-8.9c0-0.6-0.4-1-1-1h-9.9
			c-0.6,0-1,0.4-1,1v8.9h-6.1v-8.9c0-0.6-0.4-1-1-1h-9.9c-0.6,0-1,0.4-1,1v8.9h-15.5v-7.7c0-0.6-0.4-1-1-1h-8.7v-9
			c0-10.9-8.8-19.7-19.7-19.7c-10.9,0-19.7,8.8-19.7,19.7v9h-8.6c-0.6,0-1,0.4-1,1v7.7h-82.8c-0.6,0-1,0.4-1,1v21.7c0,0.6,0.4,1,1,1
			h30.1v10.3h-23h-7.1c-0.6,0-1,0.4-1,1v85.1h-5.4c-0.6,0-1,0.4-1,1v5.3c-3.1,0.5-5.5,3.2-5.5,6.4s2.4,5.9,5.5,6.4v14.8
			c-3.1,0.5-5.5,3.2-5.5,6.4s2.4,5.9,5.5,6.4v5.3c0,0.6,0.4,1,1,1h5.4v173.4c0,0.4,0.2,0.7,0.6,0.9c0.2,0.3,0.5,0.5,0.8,0.5h30
			c0,18.4,0,36.8,0,55c-1.6,0-3.3,0-4.9,0l0,0c-0.6,0-1,0.4-1,1s0.4,1,1,1c1.9,0,3.9,0,5.8,0h0.1c19.7,0,38.4,0,58.3,0v29l-4,8.6
			c-0.1,0.3-0.1,0.7,0.1,1s0.5,0.5,0.8,0.5h32.9c0.3,0,0.7-0.2,0.8-0.5s0.2-0.7,0.1-1l-4-8.6v-29h200.7c0.6,0,1-0.4,1-1v-304.1h9.9
			c0.6,0,1-0.4,1-1v-45.2c0-0.6-0.4-1-1-1h-9.9c0.5-16.1,13.8-29,30.1-29c0.6,0,1-0.4,1-1v-21.6
			C2099.3-224.9,2098.8-225.3,2098.3-225.3z"/>
		<path class="st1" d="M1750.1-59.5c0.4,60,0.4,121,0.4,181c10,0,21,0,31,0c0-60,0-121-0.3-180.9c0,3.7,0,0,0,0
			c0.3,78.9,0.3,158.9,0.3,237.9c20,0,39,0,59.3,0c-1,0-0.3,0,0,0c-22.3,0-43.3,0-65.2,0"/>
		<polyline class="st1" points="1750.1,-98.1 1750.1,-190.3 1781.2,-190.3 1781.2,-98.1 1781.2,-202.6 		"/>
		<rect x="2010.3" y="-171.7" class="st1" width="67.8" height="45.2"/>
		<polyline class="st1" points="2053.5,-126.5 2053.5,164.7 1865.5,164.7 		"/>
		<polyline class="st1" points="1840.8,164.7 1794.9,164.7 1794.9,-59.5 		"/>
		<polyline class="st1" points="1794.9,-98.1 1794.9,-188.9 2053.5,-188.9 2053.5,-171.7 		"/>
		<path class="st1" d="M1743.7-59.5c-3,0-5.5-2.5-5.5-5.5s2.5-5.5,5.5-5.5"/>
		<path class="st1" d="M1743.7-87.1c-3,0-5.5-2.5-5.5-5.5s2.5-5.5,5.5-5.5"/>
		<g>
			<rect x="1833.9" y="87.3" class="st1" width="38.5" height="10.9"/>
			<path class="st1" d="M1829,87.4c0,3-2.5,5.5-5.5,5.5s-5.5-2.5-5.5-5.5"/>
			<path class="st1" d="M1888.2,87.4c0,3-2.5,5.5-5.5,5.5s-5.5-2.5-5.5-5.5"/>
		</g>
		<rect x="1750.1" y="-224.3" class="st1" width="348.2" height="21.7"/>
		<rect x="1935.5" y="-171.7" class="st1" width="17.6" height="45.2"/>
		<rect x="1953.1" y="-162.6" class="st1" width="9.9" height="9.9"/>
		<rect x="1953.1" y="-144.6" class="st1" width="9.9" height="9.9"/>
		<rect x="1925.6" y="-162.6" class="st1" width="9.9" height="9.9"/>
		<rect x="1925.6" y="-144.6" class="st1" width="9.9" height="9.9"/>
		<rect x="1794.9" y="-171.7" class="st1" width="17.6" height="45.2"/>
		<rect x="1812.6" y="-162.6" class="st1" width="9.9" height="9.9"/>
		<rect x="1812.6" y="-144.6" class="st1" width="9.9" height="9.9"/>
		<path class="st1" d="M1763.6-98.1h141.3c10.6,0,19.3,8.6,19.3,19.3l0,0c0,10.6-8.6,19.3-19.3,19.3h-141.3V-98.1z"/>
		<path class="st1" d="M1923.8-82.7c-1.8,8.8-9.6,15.4-18.9,15.4h-141.3"/>
		<path class="st1" d="M1886.3-59.5c4.8,4.7,11.4,7.5,18.6,7.5c14.8,0,26.8-12,26.8-26.8s-12-26.8-26.8-26.8
			c-7.2,0-13.8,2.9-18.6,7.5"/>
		<path class="st1" d="M1878.2-59.5c6,8.3,15.7,13.7,26.7,13.7c18.2,0,33-14.8,33-33s-14.8-33-33-33c-11,0-20.7,5.4-26.7,13.7"/>
		<path class="st1" d="M2098.3-202.6c-17.1,0-31.1,13.9-31.1,31"/>
		<line class="st1" x1="1794.9" y1="-27.5" x2="2053.5" y2="-27.5"/>
		<line class="st1" x1="1911.3" y1="74.3" x2="1794.9" y2="74.3"/>
		<line class="st1" x1="1911.3" y1="87.4" x2="1794.9" y2="87.4"/>
		<line class="st1" x1="2013.9" y1="74.3" x2="2053.5" y2="74.3"/>
		<rect x="1776.4" y="-178.5" class="st1" width="4.8" height="69.8"/>
		<rect x="1772.3" y="-140.2" class="st1" width="4.1" height="9.6"/>
		<rect x="1772.3" y="-157" class="st1" width="4.1" height="9.6"/>
		<rect x="1772.3" y="-173.8" class="st1" width="4.1" height="9.6"/>
		<rect x="1750.1" y="-190.3" class="st1" width="7.1" height="311.4"/>
		<circle class="st1" cx="1757.2" cy="-102.9" r="0"/>
		<rect x="1757.2" y="-104.2" class="st1" width="6.4" height="50.9"/>
		<rect x="1743.7" y="-104.2" class="st1" width="6.4" height="50.9"/>
		<polyline class="st1" points="1865.5,178.4 2067.2,178.4 2067.2,-126.5 		"/>
		<ellipse class="st1" cx="2017.2" cy="-164.8" rx="2.2" ry="2.2"/>
		<ellipse class="st1" cx="2017.2" cy="-133.3" rx="2.2" ry="2.2"/>
		<line class="st1" x1="1757.2" y1="-3.8" x2="1781.2" y2="-3.8"/>
		<line class="st1" x1="1757.2" y1="9.5" x2="1781.2" y2="9.5"/>
		<line class="st1" x1="1757.2" y1="22.7" x2="1781.2" y2="22.7"/>
		<line class="st1" x1="1757.2" y1="36" x2="1781.2" y2="36"/>
		<line class="st1" x1="1757.2" y1="49.2" x2="1781.2" y2="49.2"/>
		<line class="st1" x1="1757.2" y1="107.8" x2="1781.2" y2="107.8"/>
		<g>
			<g>
				<line class="st1" x1="1840.8" y1="201.5" x2="1865.5" y2="201.5"/>
			</g>
			<rect x="1836.9" y="98.3" class="st1" width="32.5" height="7"/>
			<line class="st1" x1="1840.8" y1="208.7" x2="1840.8" y2="105.3"/>
			<line class="st1" x1="1865.5" y1="208.7" x2="1865.5" y2="105.3"/>
		</g>
		<path class="st1" d="M1963.1-155.7c1.9,0.2,3.8,0.3,5.7,0.4c13.9,0.7,28.3,1.3,41.6-2.7"/>
		<path class="st1" d="M1963.1-138.6c15.7,2.4,31.7,2,47.3-1.1"/>
		<path class="st1" d="M1822.5-156.2c33.9,6.6,69.2,6.4,103.1-0.6"/>
		<path class="st1" d="M1822.5-137.9c34.4,5,70.2,9.3,103.1-1.2"/>
		<path class="st1" d="M1963.1-159c10.1,0.1,20.2-0.3,30.2-1.2c5.9-0.6,12-1.4,17-4.4"/>
		<polygon class="st1" points="1869.6,217.4 1836.7,217.4 1840.8,208.7 1865.5,208.7 		"/>
		<path class="st1" d="M1846.2,217.4c-19.7,13-47.7,9-66.5-4.3"/>
		<path class="st1" d="M1848.7,217.4c0.9,2.2,2.5,4.1,4.3,5.5c3.1,2.4,6.9,3.6,10.8,4.1c4.3,0.6,8.8,0.3,12.9-1.2
			c4.1-1.5,7.8-4.4,9.8-8.3"/>
		<line class="st1" x1="1858.6" y1="105.3" x2="1858.6" y2="201.5"/>
		<g>
			<g>
				<rect x="1815.7" y="-14" class="st1" width="74.9" height="74.9"/>
				<path class="st1" d="M1868.6,50.6h-30.9c-6.5,0-11.8-5.3-11.8-11.8V8c0-6.5,5.3-11.8,11.8-11.8h30.9c6.5,0,11.8,5.3,11.8,11.8
					v30.9C1880.3,45.4,1875.1,50.6,1868.6,50.6z"/>
				<ellipse class="st1" cx="1822.5" cy="-7.2" rx="2.2" ry="2.2"/>
				<ellipse class="st1" cx="1883.7" cy="-7.2" rx="2.2" ry="2.2"/>
				<ellipse class="st1" cx="1822.5" cy="54" rx="2.2" ry="2.2"/>
				<ellipse class="st1" cx="1883.7" cy="54" rx="2.2" ry="2.2"/>
			</g>
			<path class="st1" d="M1826.6,22.6c4.2-3.3,8.4-6.7,12.6-10c1.7,1.1,0.9,4.7,2.9,4.9c0.8,0.1,1.6-0.6,2.1-1.2
				c4.3-5,7.7-10.9,13-14.9c2.2-1.7,4.7-3,7.3-3.9"/>
			<path class="st1" d="M1826.4,30.8c2.5-2.3,5.6-3.9,8.8-4.7c0,3.3,4.4,4.9,7.4,3.6s4.9-4.3,6.9-6.9c5.9-7.6,14.1-13,22.2-18.2
				c2-1.3,4.8-2.5,6.5-0.9"/>
			<path class="st1" d="M1853.5,49.4c3.4,0.4,6.3-2.5,8.3-5.3c5.2-7.4,9.3-16.5,17.6-20.2"/>
		</g>
		<g>
			<g>
				<path class="st1" d="M2013.3-94.6c8.3,7.8,8.3,20.5,0,28.3s-21.7,7.8-30,0s-8.3-20.5,0-28.3
					C1991.5-102.5,2005-102.5,2013.3-94.6z"/>
				<path class="st1" d="M2016-80.5h-35.5c0-9.3,8-16.8,17.8-16.8C2008.1-97.2,2016-89.7,2016-80.5z"/>
				<path class="st1" d="M2015.5-108.6l-6.4,6.1c-6.8-3-14.8-3-21.6,0l-6.4-6.1l-12.6,11.9l6.4,6.1c-3.2,6.5-3.2,14,0,20.4l-6.4,6.1
					l12.6,11.9l6.4-6.1c6.8,3,14.8,3,21.6,0l6.4,6.1l12.6-11.9l-6.4-6.1c3.2-6.5,3.2-14,0-20.4l6.4-6.1L2015.5-108.6z"/>
				<path class="st1" d="M1980.6-63.8c0.9,0.8,0.9,2.2,0,3s-2.3,0.8-3.2,0c-0.9-0.8-0.9-2.2,0-3
					C1978.3-64.7,1979.8-64.7,1980.6-63.8z"/>
				<path class="st1" d="M1980.6-100.1c0.9,0.8,0.9,2.2,0,3s-2.3,0.8-3.2,0s-0.9-2.2,0-3S1979.8-100.9,1980.6-100.1z"/>
				<path class="st1" d="M2019-63.8c0.9,0.8,0.9,2.2,0,3s-2.3,0.8-3.2,0c-0.9-0.8-0.9-2.2,0-3C2016.8-64.7,2018.2-64.7,2019-63.8z"
					/>
				<path class="st1" d="M2019-100.1c0.9,0.8,0.9,2.2,0,3s-2.3,0.8-3.2,0c-0.9-0.8-0.9-2.2,0-3
					C2016.8-100.9,2018.2-100.9,2019-100.1z"/>
				<line class="st1" x1="1998.3" y1="-80.5" x2="2003.5" y2="-91.8"/>
				<line class="st1" x1="1980.5" y1="-80.5" x2="2016" y2="-80.5"/>
			</g>
			<path class="st2" d="M1981.5-85.4c0.8,0.4,1.6,0.7,2.4,1.1"/>
			<path class="st2" d="M1983.4-88.5c0.9,0.5,1.8,1,2.6,1.7"/>
			<path class="st2" d="M1986.3-91.8c0.5,0.5,1,1.1,1.5,1.6"/>
			<path class="st2" d="M1989.6-94.2c0.4,1,0.9,1.9,1.5,2.7"/>
			<path class="st2" d="M1994-95.6c0.2,1.1,0.4,2.2,0.6,3.3"/>
			<path class="st2" d="M1998.9-96.1c0,1.2-0.3,2.3-0.7,3.4"/>
			<path class="st2" d="M2003.1-95.1c-0.1,0.9-0.3,1.7-0.6,2.5"/>
			<path class="st2" d="M2007.4-93c-0.4,0.9-0.9,1.8-1.5,2.5"/>
			<path class="st2" d="M2010.8-91.1c-0.6,0.7-1.2,1.5-1.8,2.2"/>
			<path class="st2" d="M2011-86c0.9-0.2,1.8-0.7,2.5-1.3"/>
			<path class="st2" d="M2012-83.3c1-0.1,2.1-0.3,3.1-0.5"/>
		</g>
		<path class="st2" d="M1932.1-162.6c0.5,3.3,1,6.5,1.4,9.8c0-0.1,0-0.2,0-0.3"/>
		<path class="st2" d="M1930.6-162.1c0,3,0,6.1,0.1,9.1c0,0.1,0,0.1,0.1,0.2s0.1-0.1,0.1-0.1"/>
		<path class="st2" d="M1933.2-143.9c0.1,0.1,0.1,0.3,0.1,0.5c-0.3,2.7-0.6,5.3-0.9,8"/>
		<path class="st2" d="M1931.5-144c-0.5,3-0.9,6.1-1.2,9.1"/>
		<path class="st2" d="M1955-144.3c0,3.2,0,6.4,0,9.6"/>
		<path class="st2" d="M1956.7-144.2c0.3,3.3,0.6,6.5,0.8,9.8l0,0"/>
		<path class="st2" d="M1955.5-162.3c-0.1,3.2,0,6.3,0.1,9.5c0.1-0.1,0.1-0.2,0.1-0.3"/>
		<path class="st2" d="M1957.6-161.9c-0.2,3.1-0.5,6.1-0.8,9.1"/>
		<path class="st2" d="M1958.8-162c-0.1,3.2-0.2,6.4-0.3,9.6c0-0.1,0-0.2,0-0.3"/>
		<path class="st2" d="M1815-162.5c0.1,3.2,0.2,6.5,0.3,9.7c0-0.2,0-0.4,0-0.6"/>
		<path class="st2" d="M1817.3-162.1c-0.3,3.2-0.6,6.5-0.9,9.7c0,0.1,0,0.3,0.1,0.4c0.1,0,0.2-0.3,0-0.2"/>
		<path class="st2" d="M1818.7-161.9c0,2.9,0,5.7,0,8.6"/>
		<path class="st2" d="M1814.8-144.6c-0.3,3.3-0.5,6.5-0.8,9.8"/>
		<path class="st2" d="M1816.2-144c-0.1,3.3-0.2,6.6-0.2,9.9"/>
		<path class="st2" d="M1817.8-144.8c0,3.3,0.3,6.7,0.8,10"/>
		<path class="st2" d="M1886.9-58.7c-1.6,1.3-3.1,2.7-4.7,4c0.1-0.1,0.2-0.1,0.3-0.2"/>
		<path class="st2" d="M1888.6-57.3c-1.3,1.5-2.5,3.1-3.6,4.8"/>
		<path class="st2" d="M1891.5-55.4c-0.9,1.4-1.9,2.9-2.8,4.3l-0.1,0.1c-0.1,0,0.1-0.1,0,0"/>
		<path class="st2" d="M1893.3-54.3c-0.6,1.7-1.2,3.5-1.6,5.2"/>
		<path class="st2" d="M1897.4-52.5c-0.8,1.6-1.3,3.3-1.6,5.1"/>
		<path class="st2" d="M1900-51.9c-0.3,1.7-0.6,3.4-0.9,5.1"/>
		<path class="st2" d="M1903.5-51.8c0,1.7,0,3.4-0.1,5.1"/>
		<path class="st2" d="M1906.5-51.8c0.1,1.9,0.2,3.9,0.3,5.8c0,0.1,0,0.1,0.1,0.2c0.1,0.1,0.1-0.1,0-0.1"/>
		<path class="st2" d="M1909.8-52.1c0.3,1.8,0.7,3.5,1.3,5.2"/>
		<path class="st2" d="M1914-53.7c0.7,1.8,1.5,3.5,2.4,5.2c0-0.1,0-0.2,0-0.3"/>
		<path class="st2" d="M1917.6-54.8c0.5,1.8,1,3.5,1.5,5.3"/>
		<path class="st2" d="M1920.2-56.2c0.9,1.5,1.8,2.9,2.8,4.3c0,0.1,0.1,0.1,0.2,0.2c0.1,0.1,0.2-0.1,0.2-0.1"/>
		<path class="st2" d="M1922.7-58.4c1.3,1.3,2.4,2.7,3.6,4.1"/>
		<path class="st2" d="M1925.2-60.9c1.5,1.1,3.1,2.1,4.8,3"/>
		<path class="st2" d="M1927-63.4c1.2,0.7,2.5,1.3,3.7,2c0.5,0.3,1.1,0.6,1.5,1"/>
		<path class="st2" d="M1928.9-66.1c1.9,0.6,3.8,1.4,5.5,2.4"/>
		<path class="st2" d="M1929.9-69c1.9,0.6,3.8,1,5.7,1.2"/>
		<path class="st2" d="M1930.9-71.7c2.2,0.4,4.4,0.8,6.6,1"/>
		<path class="st2" d="M1932.1-75.1c-0.1,0-0.2,0-0.3,0c1.9,0.1,3.7,0.1,5.6,0.2"/>
		<path class="st2" d="M1931.9-79c2-0.2,4-0.2,6.1-0.2"/>
		<path class="st2" d="M1931.6-81.9c-0.1-0.1,0.1-0.3,0.2-0.3c1.7-0.7,3.5-1.2,5.3-1.4"/>
		<path class="st2" d="M1931.1-86.3c1.6-0.8,3.3-1.5,5-2c-0.1,0-0.2,0-0.3,0.1"/>
		<path class="st2" d="M1929.6-89.7c-0.1-0.2,0.1-0.5,0.4-0.7c1.4-0.9,2.7-1.8,4.1-2.7"/>
		<path class="st2" d="M1927.6-93.7c1.5-1.3,3-2.7,4.5-4"/>
		<path class="st2" d="M1924.9-97.1c1.1-1.4,2.3-2.8,3.6-4.2"/>
		<path class="st2" d="M1924.8-104.8c-1.2,1.4-2.3,2.8-3.3,4.3"/>
		<path class="st2" d="M1921.1-106.7C1921.2-106.6,1921.2-106.8,1921.1-106.7C1921.1-106.8,1921-106.7,1921.1-106.7
			c-0.9,1.7-1.6,3.5-2.2,5.3c0-0.1,0-0.2,0-0.3"/>
		<path class="st2" d="M1917.7-108.8c-0.8,1.7-1.5,3.5-2.2,5.3c0,0.1,0-0.1,0-0.1"/>
		<path class="st2" d="M1913.9-110.1c-0.7,1.7-1.4,3.3-2.1,4.9"/>
		<path class="st2" d="M1909.9-111.1c-0.2,1.8-0.6,3.6-1.1,5.3c0-0.1,0-0.2,0-0.3"/>
		<path class="st2" d="M1904.9-111.3c0,1.7-0.1,3.4-0.1,5.1"/>
		<path class="st2" d="M1900.8-111.3c0.1,1.8,0.3,3.6,0.4,5.5c0,0.1,0.1,0.1,0.1,0.2s-0.1,0-0.1,0"/>
		<path class="st2" d="M1897-110.2c0.5,1.7,0.9,3.5,1.4,5.2"/>
		<path class="st2" d="M1892.8-108.9c0.4,2,1,3.9,1.8,5.7"/>
		<path class="st2" d="M1889.2-107.1c1,1.7,2.1,3.4,3.4,4.9"/>
		<path class="st2" d="M1886.3-105.2c0.7,1.6,1.6,3.2,2.8,4.6"/>
		<path class="st2" d="M1883.2-103c1.3,1.1,2.5,2.4,3.6,3.7"/>
		<path class="st2" d="M1881.3-101.1c1.1,0.9,2.1,1.7,3.2,2.5"/>
		<path class="st2" d="M1797.7-171.7c-0.3,15,0.3,30,1.9,44.8"/>
		<path class="st2" d="M1767.3-98.1c0.3,3.5,0.5,7,0.7,10.5c0.6,9.3,1.2,18.6,1.8,27.9"/>
		<path class="st2" d="M1771.3-97.7c0.3,12.9,0.7,25.7,1,38.6c0-0.5,0-1.1-0.1-1.6"/>
		<path class="st2" d="M1759.9-3.5c0.2,4.2,0.2,8.5,0.1,12.7"/>
		<path class="st2" d="M1762.7-2.8c-0.2,4.1,0,8.3,0.5,12.4"/>
		<path class="st2" d="M1760.3,22.9c0.1,4,0.4,8,1,12c0,0.2,0.1,0.5,0.3,0.5s0.2-0.5,0-0.3"/>
		<path class="st2" d="M1763,23.9c0.1,4.2,0.3,8.3,0.4,12.5c0-0.5,0-1,0.1-1.5"/>
		<path class="st2" d="M1765.9,23.9c-0.2,4-0.2,8,0.2,12"/>
		<path class="st2" d="M1868.1,87.4c-0.1,3.4-0.3,6.8-0.8,10.2c0,0.1-0.1,0.2-0.2,0.3s-0.1-0.2,0-0.2"/>
		<path class="st2" d="M1866.2,87.9c0,3.5-0.1,7-0.1,10.4"/>
		<path class="st2" d="M1863.1,87.8c-0.1,3.5-0.1,7-0.2,10.4"/>
		<path class="st2" d="M1864.5,98.6c0,2-0.1,4-0.1,6"/>
		<path class="st2" d="M1860.9,201.6c0.2,2.6,0.4,5.2,0.6,7.8"/>
		<path class="st2" d="M1860,208.2c1.1,3,2.1,6,3.2,8.9c0,0.1,0.1,0.3,0.3,0.3c0.1,0,0.1-0.3,0-0.2"/>
		<path class="st2" d="M1858.6,208.9c0.4,2.9,0.9,5.8,1.3,8.7"/>
		<path class="st2" d="M1842.8,217.5c0.7-3.1,1.6-6.1,2.7-9.1c0.1,0.2,0.2,0.4,0.2,0.7"/>
		<g>
			<g>
				<g>
					<g>
						<g>
							<polyline class="st1" points="1962.6,53.2 1942.5,53.2 1942.5,37.8 1925.9,37.8 1925.9,53.2 1917.2,53.2 1917.2,27.3 
								1962.6,27.3 							"/>
							<polyline class="st1" points="1962.6,92.6 1959.7,92.6 1959.7,83.5 1962.6,83.5 1930.5,83.5 1930.5,78.5 1930.5,43 
								1937.8,43 1937.8,78.5 1962.6,78.5 							"/>
							<path class="st1" d="M1962.6,150.2L1962.6,150.2c-5.9,0-10.3-5.4-9.2-11.2c3.6-18.5,4.5-36-2.5-46.4h11.6"/>
						</g>
						<g>
							<polyline class="st1" points="1962.6,53.2 1982.8,53.2 1982.8,37.8 1999.4,37.8 1999.4,53.2 2008.1,53.2 2008.1,27.3 
								1962.6,27.3 							"/>
							<polyline class="st1" points="1962.6,92.6 1965.6,92.6 1965.6,83.5 1962.6,83.5 1994.7,83.5 1994.7,78.5 1994.7,43 
								1987.4,43 1987.4,78.5 1962.6,78.5 							"/>
							<path class="st1" d="M1962.6,150.2L1962.6,150.2c5.9,0,10.3-5.4,9.2-11.2c-3.6-18.5-4.5-36,2.5-46.4h-11.6"/>
						</g>
					</g>
					<line class="st1" x1="1937.8" y1="74.3" x2="1987.4" y2="74.3"/>
					<polyline class="st1" points="1956.2,117.2 1911.3,117.2 1911.3,20.2 2013.9,20.2 2013.9,117.2 1969.1,117.2 					"/>
				</g>
				<g>
					<circle class="st1" cx="1922.1" cy="-1.4" r="10.8"/>
					<circle class="st1" cx="1922.1" cy="-1.4" r="6.9"/>
				</g>
				<g>
					<circle class="st1" cx="2003.1" cy="-1.4" r="10.8"/>
					<circle class="st1" cx="2003.1" cy="-1.4" r="6.9"/>
				</g>
				<g>
					<circle class="st1" cx="1949.1" cy="-1.4" r="10.8"/>
					<circle class="st1" cx="1949.1" cy="-1.4" r="6.9"/>
				</g>
				<g>
					<circle class="st1" cx="1976.1" cy="-1.4" r="10.8"/>
					<circle class="st1" cx="1976.1" cy="-1.4" r="6.9"/>
				</g>
			</g>
			<path class="st2" d="M1953.3,96c1.2,1.3,2.3,2.6,3.5,3.9c0.7,0.8,1.4,1.5,2.3,2.1c0.9,0.5,2,0.7,2.9,0.3c1.6-0.8,2-3.1,3.6-3.9
				c0.8-0.4,1.8-0.3,2.7-0.5c1.8-0.3,3.1-1.7,4.4-3"/>
			<path class="st2" d="M1955,101c1.5,3,2.9,6,4.4,9c0.5,0.9,1,1.9,1.9,2.4c1.1,0.5,2.4,0.1,3.3-0.7c0.9-0.8,1.5-1.9,2-3
				s1-2.2,1.9-3c0.4-0.4,1-0.9,1-1.5"/>
			<path class="st2" d="M1956.6,110.5c0.8,3.1,1.8,6.4,4.5,8.2c0.2,0.1,0.3,0.2,0.5,0.2s0.4-0.1,0.6-0.1c3-1.3,4.8-4.4,6.6-7.1
				c0-0.1,0.1-0.1,0.2-0.1c0.1,0,0,0.2,0,0.1"/>
			<path class="st2" d="M1956.9,118.1c2.4,6.2,4.9,12.5,5.3,19.1c0.1,1.9,0.1,3.8-0.3,5.6c-0.5,2.2-1.5,4.4-2.9,6.2"/>
			<path class="st2" d="M1956,126.2c1.9,3.7,2.9,7.9,2.8,12.1c0,3.1-0.8,6.6-3.5,8.2"/>
			<path class="st2" d="M1953.5,142.9c1-0.4,1.4-1.6,1.5-2.7c0.2-1.6,0.1-3.1-0.2-4.7"/>
			<path class="st2" d="M1961.8,149.5c2.8-3.3,3.4-7.9,3.4-12.3c-0.1-4.3-0.6-8.7,0.3-13c0.3-1.6,1.2-3.4,2.9-3.5"/>
			<path class="st2" d="M1965.5,149.5c0.3-1.6,0.7-3.3,1-4.9s0.7-3.1,1.3-4.6c0.6-1.5,1.6-2.8,2.9-3.7"/>
			<path class="st2" d="M1970,125.3c-1.6,1.6-2.4,3.8-2.3,6.1c0,0.3,0,0.6,0.2,0.8c0.4,0.9,1.7,0.8,2.6,0.7"/>
			<path class="st2" d="M1955.5,92.7c0.4,1.6,1.2,3,2.2,4.3c0.3,0.3,0.5,0.7,0.9,0.9c1.1,0.7,2.7,0.1,3.5-1c0.8-1,1-2.4,1.2-3.7"/>
			<path class="st2" d="M1918.7-7.1c0.9,2.5,1.7,5,2.6,7.5"/>
			<path class="st2" d="M1949.8-7.6c-0.2,2.6-0.4,5.2-0.5,7.9"/>
			<path class="st2" d="M1972.4,4.4c1.4-2.1,2.7-4.1,4.1-6.2"/>
			<path class="st2" d="M1996.7-0.2c2.4,0.1,4.8,0,7.2-0.3"/>
			<path class="st2" d="M1930.5,44.2c2.6,1.2,5.1,2.4,7.7,3.6"/>
			<path class="st2" d="M1930.8,47.8c2.6,0.3,5.1,0.8,7.6,1.5"/>
			<path class="st2" d="M1931,50.4c2.4,0.2,4.7,0.4,7.1,0.7"/>
			<path class="st2" d="M1987.9,46.1c2.2-0.1,4.3-0.5,6.4-1"/>
			<path class="st2" d="M1987.7,47.2c2.2-0.1,4.4-0.2,6.6-0.3"/>
			<path class="st2" d="M1987.9,49.4c2.5,0.1,4.9,0.4,7.3,0.9"/>
			<path class="st2" d="M1940.4,74.6c0,1.2,0,2.4,0,3.7"/>
			<path class="st2" d="M1942.4,75c0,1.2-0.1,2.3-0.5,3.4"/>
			<path class="st2" d="M1944.9,75c-0.4,1.2-0.6,2.4-0.6,3.7"/>
			<path class="st2" d="M1947.2,74.8c0.1,1.5,0.3,2.9,0.7,4.3"/>
		</g>
		<path class="st2" d="M2053.5-124.6c4.3-0.1,8.7,0.1,13,0.5"/>
		<path class="st2" d="M2053.5-122.3c4,0.1,7.9,0.2,11.9,0.3c0.6,0,1.3,0,1.7,0.5"/>
		<g>
			<rect x="1926.2" y="-234.2" class="st1" width="9.9" height="9.9"/>
			<rect x="1908.2" y="-234.2" class="st1" width="9.9" height="9.9"/>
			<path class="st1" d="M1881-233v-10c0-10.3-8.4-18.7-18.7-18.7l0,0c-10.3,0-18.7,8.4-18.7,18.7v10"/>
			<rect x="1834" y="-233" class="st1" width="56.7" height="8.7"/>
			<path class="st1" d="M1865.9-233v-14.7c0-2-1.6-3.5-3.5-3.5l0,0c-2,0-3.5,1.6-3.5,3.5v14.7"/>
			<path class="st2" d="M1908-226.6c3.5-0.1,6.9-0.4,10.3-1.1"/>
			<path class="st2" d="M1908.3-228.9c3.3,0.2,6.6,0,9.9-0.4"/>
			<path class="st2" d="M1925.9-227.7c0.8,0.6,1.9,0.7,2.9,0.8c2.5,0.1,5,0.3,7.6,0.4"/>
			<path class="st2" d="M1926.3-228.6c3.2,0.2,6.5-0.1,9.6-0.8"/>
			<path class="st2" d="M1885.1-232.7c-0.1,2.7-0.1,5.5-0.2,8.2"/>
			<path class="st2" d="M1877.6-232.5c0.2,2.4,0.4,4.8,0.6,7.2"/>
			<path class="st2" d="M1875-232.3c0.2,2.4,0.3,4.8,0.5,7.2"/>
			<path class="st2" d="M1839.1-233c-0.1,2.7-0.3,5.5-0.5,8.2"/>
		</g>
		<path class="st2" d="M2074.9-225c-0.8,7.4-1.4,14.8-1.9,22.2c0-0.3,0-0.7,0-1"/>
		<path class="st2" d="M2068-224.1c0.1,7.1,0.2,14.2,0.2,21.2"/>
		<path class="st2" d="M2039.3-224.1c-0.1,7-0.3,14-0.5,21"/>
		<path class="st2" d="M2035.8-224.3c-0.1,7.1-0.2,14.3-0.3,21.4c0-0.2,0-0.4,0.1-0.6"/>
		<path class="st2" d="M2022.9-224.8c-0.1,7.1,0.4,14.2,1.3,21.2"/>
		<path class="st2" d="M2079.6-223.8c0.2,7-0.1,14-0.7,20.9"/>
		<path class="st2" d="M2081.7-223.8c0.2,7,0.5,13.9,0.7,20.9"/>
		<path class="st2" d="M1970.5-224.5c-0.4,7.2-0.8,14.3-1,21.5c0-0.3,0.1-0.6,0.1-1"/>
	</g>
	<g>
		<g>
			<g>
				<rect x="2067.2" y="102.4" class="st0" width="10.9" height="45.2"/>
				<rect x="2078.1" y="111.5" class="st0" width="9.9" height="9.9"/>
				<rect x="2078.1" y="129.5" class="st0" width="9.9" height="9.9"/>
			</g>
			<g>
				<polyline class="st1" points="2067.2,147.6 2078.1,147.6 2078.1,102.4 2067.2,102.4 				"/>
				<rect x="2078.1" y="111.5" class="st1" width="9.9" height="9.9"/>
				<rect x="2078.1" y="129.5" class="st1" width="9.9" height="9.9"/>
			</g>
			<path class="st1" d="M2088,135.6c11.2,2.3,20.2,13.2,20,24.6"/>
			<path class="st1" d="M2088,133.7c7.2-1.7,13.9-5.4,19.1-10.6"/>
			<path class="st2" d="M2081.3,111.7c0,3.2-0.3,6.4-0.8,9.6"/>
			<path class="st2" d="M2082.8,112.1c0.3,2.9,0.5,5.7,0.6,8.6"/>
			<path class="st2" d="M2080.2,130.1c0.1,3,0,6-0.2,9c0-0.2,0-0.4,0-0.6"/>
			<path class="st2" d="M2082,130.2c-0.1,2.9,0,5.7,0,8.6"/>
			<path class="st2" d="M2082,132.1c0.7,2.2,1.4,4.3,2,6.5"/>
			<path class="st2" d="M2070.6,103.1c0.1,14.5-0.2,29.1-1,43.6"/>
			<line class="st1" x1="2067.2" y1="102.4" x2="2067.2" y2="147.6"/>
		</g>
		<g>
			<g>
				<path class="st0" d="M2078.1-151.6h9.9c0.6,0,1-0.4,1-1v-9.9c0-0.6-0.4-1-1-1h-9.9c-0.6,0-1,0.4-1,1v9.9
					C2077.1-152.1,2077.6-151.6,2078.1-151.6z"/>
				<path class="st0" d="M2078.1-133.7h9.9c0.6,0,1-0.4,1-1v-9.9c0-0.6-0.4-1-1-1h-9.9c-0.6,0-1,0.4-1,1v9.9
					C2077.1-134.1,2077.6-133.7,2078.1-133.7z"/>
				<path class="st0" d="M2130.2-212.4h7.2v8.9c0,0.6,0.4,1,1,1h9.9c0.6,0,1-0.4,1-1v-8.9h6.1v8.9c0,0.6,0.4,1,1,1h9.9
					c0.6,0,1-0.4,1-1v-8.9h2.5c0.1,0.1,0.2,0.1,0.3,0.1l0,0c0.1,0,0.2,0,0.2-0.1h5c0.6,0,1-0.4,1-1v-10.9c0-0.6-0.4-1-1-1h-45.2
					c-0.6,0-1,0.4-1,1v10.9C2129.2-212.8,2129.7-212.4,2130.2-212.4z"/>
				<path class="st0" d="M2263.7-225.3h-52.9c-0.6,0-1,0.4-1,1v5.5c0,0.6,0.4,1,1,1h6.2v4.5c0,0.6,0.4,1,1,1h3.9
					c-6.1,33-23.6,63.1-49.3,84.9c-26.1,22.1-59.3,34.4-93.5,34.6V-98c0-0.6-0.4-1-1-1h-9.9v-3c3.1-0.5,5.5-3.2,5.5-6.4
					c0-3.6-2.9-6.5-6.5-6.5c-0.6,0-1,0.4-1,1v15.8v38.5v15.8c0,0.6,0.4,1,1,1c3.6,0,6.5-2.9,6.5-6.5c0-3.2-2.4-5.9-5.5-6.4v-2.9h9.9
					c0.6,0,1-0.4,1-1v-4c2.1,0,4.2-0.1,6.3-0.1l0,0l0,0c0,0,0,0,0.1,0c2.8-0.1,5.6-0.3,8.3-0.5l0,0h0.1l0,0c2.4-0.2,4.9-0.5,7.3-0.8
					l0,0c0.1,0,0.2,0,0.2,0l0,0c2.4-0.3,4.7-0.7,7.1-1.1l0,0l0,0c3.1-0.5,6.2-1.2,9.3-1.9h0.1c0,0,0,0,0.1,0c2.7-0.6,5.3-1.3,7.9-2
					c0,0,0,0,0.1,0l0,0c3.2-0.9,6.4-1.9,9.6-3c0.1,0,0.1,0,0.2-0.1c2.6-0.9,5.3-1.9,7.9-2.9c0.1,0,0.2-0.1,0.2-0.1
					c2.1-0.9,4.2-1.8,6.3-2.7l0,0c0,0,0,0,0.1,0c5.1-2.3,10.1-4.9,15-7.7l0,0l0,0c2.5-1.4,5-3,7.4-4.5c0,0,0,0,0.1,0l0,0
					c2.1-1.3,4.1-2.7,6.1-4.1l0,0l0,0c1.6-1.1,3.2-2.3,4.7-3.5h0.1l0,0c2.1-1.6,4.1-3.2,6.2-4.9c0,0,0,0,0.1,0l0,0
					c2.4-2,4.8-4.1,7.2-6.3c0,0,0,0,0.1,0c0,0,0,0,0-0.1c1.6-1.5,3.2-3,4.8-4.6c0.2-0.2,0.4-0.5,0.7-0.7l0,0l0,0
					c26.3-26.6,43.1-60,48.7-96.7h4.8c0.6,0,1-0.4,1-1v-4.5h6.2c0.6,0,1-0.4,1-1v-5.5C2264.7-224.9,2264.3-225.3,2263.7-225.3z"/>
			</g>
			<line class="st1" x1="2867.8" y1="-224.3" x2="2098.3" y2="-224.3"/>
			<g>
				<rect x="2067.2" y="-98.1" class="st1" width="10.9" height="38.5"/>
				<path class="st1" d="M2084.2-92c0.4,9.1,0.8,18.3,1.3,27.4"/>
				<path class="st1" d="M2090.2-92.4c1.2,9.1,2.4,18.1,3.6,27.2"/>
				<path class="st1" d="M2096-93c1.4,9.1,3.2,18.1,5.4,27"/>
				<path class="st1" d="M2067.2-54.7c3,0,5.5,2.5,5.5,5.5s-2.5,5.5-5.5,5.5"/>
				<path class="st1" d="M2067.2-113.8c3,0,5.5,2.5,5.5,5.5s-2.5,5.5-5.5,5.5"/>
				<rect x="2078.1" y="-162.6" class="st1" width="9.9" height="9.9"/>
				<rect x="2078.1" y="-144.6" class="st1" width="9.9" height="9.9"/>
				<path class="st2" d="M2080.7-162.5c-0.3,3.2-0.7,6.3-1,9.5c0-0.1,0.1-0.3,0.1-0.4"/>
				<path class="st2" d="M2082.3-161.9c0,3.2,0,6.3,0,9.5"/>
				<path class="st2" d="M2080.3-144.2c-0.3,3.2-0.4,6.4-0.4,9.7c0-0.1,0.1-0.2,0.1-0.3"/>
				<path class="st2" d="M2081.6-144c0,3,0.1,6.1,0.3,9.1"/>
				<path class="st2" d="M2083.5-143.7c0,3,0.1,6,0.3,9"/>
				<path class="st2" d="M2069.4-97.7c0.6,12.6,1.2,25.1,1.8,37.7"/>
			</g>
			<path class="st1" d="M2144.5-203.5c10.6,46.8,54,82,108.6,82c62.4,0,112.9-46.1,112.9-102.9"/>
			<path class="st1" d="M2078.1-91.9c72.5,0,132.8-52.4,145-121.5"/>
			<g>
				<polyline class="st1" points="2130.2,-224.3 2130.2,-213.4 2175.4,-213.4 2175.4,-224.3 				"/>
				<rect x="2156.5" y="-213.4" class="st1" width="9.9" height="9.9"/>
				<rect x="2138.5" y="-213.4" class="st1" width="9.9" height="9.9"/>
			</g>
			<path class="st1" d="M2231.6-155.5c11.4-0.6,22.6-3.8,32.4-9.6c20.7-12.2,34.2-35.4,35.3-59.3"/>
			<path class="st1" d="M2163-203.5c2.3,15.1,12.6,28.4,25.5,36.8c4.3,2.8,8.9,5.1,13.7,6.8"/>
			<path class="st1" d="M2088-156.1c16,0.4,32.1-3.6,46-11.5c7.4-4.2,14.2-9.6,19-16.6c3.9-5.6,6.3-12.4,6.3-19.2"/>
			<path class="st1" d="M2088-139c22.7,10.6,13.5,41.7,12.8,63.7c-0.7,22.8-3.6,45.8,1.2,68.1c1.3,6.2,3.3,12.4,7.1,17.4
				c3.8,5,9.8,8.7,16.1,8.5c3.1-0.1,6.3-1.2,8.2-3.7c1.9-2.4,2.1-6.3,0-8.5c-3.1-3.2-8.5-1.4-12.1,1.2
				c-16.3,11.7-20.3,34.7-17.6,54.6c1.5,11.4,4.8,22.9,3.1,34.2c-1.6,10.2-8.9,17.8-18.8,19.5"/>
			<path class="st1" d="M2088-140.9c27.8-4.4,49.2-34.2,53.4-62.6"/>
			<path class="st2" d="M2138.1-210.4c3.4,0,6.9-0.2,10.3-0.8"/>
			<path class="st2" d="M2138.7-209.1c3.1,0.1,6.2,0.2,9.3,0.3c0.2,0,0.5,0.1,0.5,0.3"/>
			<path class="st2" d="M2156.3-211.4c3.3,0.3,6.5,0.5,9.8,0.8"/>
			<path class="st2" d="M2156.1-209.1c3.2,0.3,6.5,0.2,9.8-0.2"/>
			<path class="st2" d="M2170-223.4c-0.1,3.5-0.1,7.1,0.1,10.6"/>
			<polyline class="st1" points="2256.5,-218.9 2256.5,-213.4 2218,-213.4 2218,-218.9 			"/>
			<path class="st1" d="M2250.9-213.4c-5.4,36.9-22.5,70.9-49.3,97.7c-33,33-76.9,51.2-123.5,51.2"/>
			<path class="st1" d="M2104.9-94.3c0.7,9.1,2,18.2,3.7,27.2"/>
			<path class="st1" d="M2111.9-95.8c2,8.9,4,17.8,6,26.8"/>
			<path class="st1" d="M2118.1-97.4c1.9,9,4.4,17.8,7.7,26.3"/>
			<path class="st1" d="M2123.2-98.9c3.7,8.5,7.8,16.8,12.3,24.8"/>
			<path class="st1" d="M2129.2-101c4.8,8,9.6,15.9,14.4,23.9"/>
			<path class="st1" d="M2140.5-105.7c3,8.7,6.2,17.3,9.5,25.8"/>
			<path class="st1" d="M2147.9-109.4c3,8.8,5.9,17.6,8.5,26.5"/>
			<path class="st1" d="M2152.8-112.2c4.1,8.2,8.1,16.4,12.2,24.7"/>
			<path class="st1" d="M2157-114.8c5.1,7.6,10.3,15.1,15.4,22.7"/>
			<path class="st1" d="M2163.1-118.9c5.3,7.4,10.5,15,15.5,22.6"/>
			<path class="st1" d="M2166.9-121.7c4.9,7.7,10.4,15.1,16.4,22"/>
			<path class="st1" d="M2170.9-124.8c3.3,4.1,6.9,8,10.6,11.8c2.7,2.8,5.4,5.6,8,8.4"/>
			<path class="st1" d="M2176.6-129.6c2.6,2.3,5.3,4.5,7.9,6.8c4.3,3.7,8.7,7.5,12.4,11.8"/>
			<path class="st1" d="M2182.2-134.9c6.8,6.1,13.6,12.3,20.2,18.6"/>
			<path class="st1" d="M2195.3-149.9c7.4,5.4,14.9,10.6,22.6,15.6"/>
			<path class="st1" d="M2199.7-156c7.8,4.9,16.1,9.1,24.7,12.5"/>
			<path class="st1" d="M2203.9-162.6c7.5,4.9,17.8,5.7,25.8,10.3"/>
			<path class="st1" d="M2207.8-169.3c8.5,3.6,16.9,7.2,25.3,10.9"/>
			<path class="st1" d="M2210.8-175.2c8.6,3.3,17.4,6.2,26.2,8.7"/>
			<path class="st1" d="M2213.6-181.3c8.6,3.2,17.2,6.4,25.8,9.5"/>
			<path class="st1" d="M2215.8-186.8c8.9,2.7,18,4.6,27.2,5.6"/>
			<path class="st1" d="M2218.2-193.5c9.3,0.8,18.5,1.9,27.7,3.2"/>
			<path class="st1" d="M2219.8-198.9c9.4,0.2,18.8,0.4,28.2,0.6"/>
			<path class="st1" d="M2221.5-205.3c7.5,0.1,15.1,0.3,22.6,0.4c1.8,0,3.5,0.1,5.3,0.2"/>
			<path class="st1" d="M2222.1-208.2c9.3-0.5,18.7-0.7,28-0.5"/>
			<rect x="2210.8" y="-224.3" class="st1" width="52.9" height="5.5"/>
			<path class="st2" d="M2253.9-224.1c0,1.8,0,3.7,0,5.5"/>
			<path class="st2" d="M2251-224.5c0.3,1.5,0.3,3,0.2,4.5"/>
			<path class="st2" d="M2248-224.1c0.3,1.6,0.7,3.2,1,4.8"/>
			<path class="st2" d="M2252.6-219c0,1.9,0,3.9,0,5.8"/>
			<path class="st2" d="M2247.5-218.6c0.3,1.7,0.6,3.4,0.9,5.2"/>
			<path class="st2" d="M2226.5-219c-0.1,1.9,0.1,3.9,0.4,5.8"/>
			<line class="st1" x1="2067.2" y1="-113.8" x2="2067.2" y2="-43.8"/>
		</g>
	</g>
</g>
</svg>
