<?xml version="1.0" encoding="utf-8"?>
<!-- Generator: Adobe Illustrator 19.0.0, SVG Export Plug-In . SVG Version: 6.00 Build 0)  -->
<svg version="1.1" id="Слой_1" xmlns="http://www.w3.org/2000/svg" xmlns:xlink="http://www.w3.org/1999/xlink" x="0px" y="0px"
	 viewBox="119.9 34.7 1489.7 711.3" style="enable-background:new 119.9 34.7 1489.7 711.3;" xml:space="preserve">
<style type="text/css">
	.st0{fill:#F4E1A1;}
	.st1{fill:none;stroke:#817957;stroke-width:2;stroke-linecap:round;stroke-linejoin:round;stroke-miterlimit:10;}
	.st2{fill:none;stroke:#817957;stroke-linecap:round;stroke-linejoin:round;stroke-miterlimit:10;}
	.st3{fill:#F0F0F0;}
	.st4{fill:#3C3C3B;}
	.st5{fill:#312F2C;}
	.st6{font-family:'ArialMT';}
	.st7{font-size:10px;}
	.st8{fill:none;}
	.st9{enable-background:new    ;}
	.st10{fill:#3B8F4E;}
	.st11{fill:#F7F6F5;}
	.st12{fill:#FFF0AA;}
	.st13{fill:none;stroke:#312F2C;stroke-width:1.8;stroke-linecap:round;stroke-linejoin:round;stroke-miterlimit:10;}
	.st14{fill:none;stroke:#312F2C;stroke-width:1.2;stroke-linecap:round;stroke-linejoin:round;stroke-miterlimit:10;}
	.st15{fill:none;stroke:#312F2C;stroke-width:0.6;stroke-linecap:round;stroke-linejoin:round;stroke-dasharray:1.173,1.173;}
</style>
<g id="_x31_2">
	<g>
		<path class="st0" d="M1500.2,35.7v8.6h34.9v7h3.9v15.9l0,0v20.9l0,0v3.4h-3.4h-20.9h-32.2h-33.6h-79.5h-8.8v-10h-44.9v10.1h-8.8
			H1209h-20.9h-3.4v-3.4l0,0V67.3l0,0V51.4h3.9v-7h17v-8.7h-59.7v8.6h10.2v7h3.9v15.9v20.9v3.4l0,0c0,13.6,11,24.7,24.7,24.7h3.4
			h20.9h97.9h8.8v10.1h44.9v-10h8.8h145.3h20.9h3.4l0,0c13.6,0,24.7-11,24.7-24.7l0,0v-3.4V67.3V51.4h3.9v-7h41.1v-8.7H1500.2z"/>
		<rect x="1500.2" y="35.7" class="st1" width="108.4" height="8.6"/>
		<rect x="1145.8" y="35.7" class="st1" width="59.7" height="8.6"/>
		<g>
			<path class="st1" d="M1184.6,91.7V51.4h-24.7v40.3l0,0c0,13.6,11,24.7,24.7,24.7l0,0h131V91.7H1184.6z"/>
			<g>
				<rect x="1188" y="91.7" class="st1" width="20.9" height="24.7"/>
				<line class="st1" x1="1201.9" y1="91.7" x2="1201.9" y2="116.3"/>
			</g>
			<g>
				<rect x="1160" y="67.4" class="st1" width="24.7" height="20.9"/>
				<line class="st1" x1="1160" y1="74.4" x2="1184.6" y2="74.4"/>
			</g>
			<rect x="1156.1" y="44.4" class="st1" width="32.5" height="7"/>
		</g>
		<g>
			<path class="st1" d="M1539,91.7V51.4h24.7v40.3l0,0c0,13.6-11,24.7-24.7,24.7l0,0h-178.4V91.7H1539z"/>
			<g>
				<rect x="1514.7" y="91.6" class="st1" width="20.9" height="24.7"/>
				<line class="st1" x1="1521.7" y1="91.7" x2="1521.7" y2="116.3"/>
			</g>
			<g>
				<rect x="1539.1" y="67.3" class="st1" width="24.7" height="20.9"/>
				<line class="st1" x1="1563.7" y1="74.4" x2="1539" y2="74.4"/>
			</g>
			<rect x="1535.1" y="44.4" class="st1" width="32.5" height="7"/>
		</g>
		<g>
			<rect x="1315.6" y="81.5" class="st1" width="44.9" height="44.9"/>
			<g>
				<circle class="st1" cx="1338.1" cy="104" r="10.8"/>
				<circle class="st1" cx="1338.1" cy="104" r="6.9"/>
			</g>
		</g>
		<rect x="1306.8" y="91.7" class="st1" width="8.8" height="24.7"/>
		<rect x="1360.6" y="91.7" class="st1" width="8.8" height="24.7"/>
		<rect x="1448.9" y="91.7" class="st1" width="33.6" height="12.3"/>
		<path class="st2" d="M1563.3,44.4c-0.4,2.5-0.8,4.9-1.1,7.4"/>
		<path class="st2" d="M1560.2,45c0.1,2.2,0.2,4.3,0.2,6.5"/>
		<path class="st2" d="M1557.7,44.9c-0.1,2.2-0.1,4.3,0.1,6.5"/>
		<path class="st2" d="M1362.7,92.2c0,7.7,0.1,15.3,0.3,23"/>
		<path class="st2" d="M1313.1,92c-0.5,7.8-0.8,15.6-0.9,23.5"/>
		<path class="st2" d="M1184.1,44.9c-0.2,2.4-0.6,4.7-1.2,7"/>
		<path class="st2" d="M1181.6,45.1c0,2.2-0.2,4.5-0.4,6.7"/>
		<path class="st2" d="M1178.5,45.2c0,1.9,0,3.9,0,5.8"/>
		<path class="st2" d="M1162.2,45c0.1,2.2,0.1,4.3,0.1,6.5"/>
	</g>
	<g>
		<path class="st0" d="M1086.1,35.7v8.6h16.8v7h3.9v15.9l0,0v20.9l0,0v3.4h-3.4h-20.9H747.7h-8.8h-8.8v24.7h3.2l0,0l0,0h5.6h8.8
			h40.2h37.9h256.7h20.9h3.4c13.6,0,24.7-11,24.7-24.7v-3.4V67.3V51.4h3.9v-7h10.4v-8.7L1086.1,35.7L1086.1,35.7z"/>
		<rect x="1086.1" y="35.7" class="st1" width="59.7" height="8.6"/>
		<path class="st1" d="M730,91.7h376.8V51.4h24.7v40.3c0,13.6-11,24.7-24.7,24.7H730"/>
		<g>
			<rect x="1082.5" y="91.6" class="st1" width="20.9" height="24.7"/>
			<line class="st1" x1="1089.5" y1="91.7" x2="1089.5" y2="116.3"/>
		</g>
		<g>
			<rect x="1106.9" y="67.3" class="st1" width="24.7" height="20.9"/>
			<line class="st1" x1="1131.5" y1="74.4" x2="1106.8" y2="74.4"/>
		</g>
		<rect x="1102.9" y="44.4" class="st1" width="32.5" height="7"/>
		<rect x="730" y="91.7" class="st1" width="8.8" height="24.7"/>
		<rect x="738.9" y="91.7" class="st1" width="8.8" height="24.7"/>
		<rect x="787.8" y="104" class="st1" width="37.9" height="12.3"/>
		<path class="st2" d="M1131.6,45.2c-0.1,2.3-0.2,4.7-0.3,7c0-0.1,0-0.1,0-0.2"/>
		<path class="st2" d="M1128.5,44.9c0.1,2.2,0.2,4.3,0.3,6.5"/>
		<path class="st2" d="M1126.5,44.4c-0.3,2.4-0.2,4.8,0.3,7.2"/>
		<path class="st2" d="M1108.2,45.4c-0.3,2.2-0.6,4.3-0.9,6.5"/>
		<path class="st2" d="M732.5,92c0.1,5.7,0.1,11.5,0.2,17.2c0,2.4,0,4.8,0.6,7.2c0.1-0.2,0.2-0.5,0.1-0.7"/>
	</g>
	<g>
		<rect x="502.4" y="91.7" class="st0" width="182.7" height="24.7"/>
		<line class="st1" x1="502.4" y1="91.7" x2="685.1" y2="91.7"/>
		<line class="st1" x1="685.1" y1="116.3" x2="502.4" y2="116.3"/>
		<rect x="676.3" y="91.7" class="st1" width="8.8" height="24.7"/>
		<line class="st1" x1="506.6" y1="91.8" x2="506.6" y2="116.3"/>
		<line class="st1" x1="513.6" y1="91.7" x2="513.6" y2="115.8"/>
		<line class="st1" x1="518.6" y1="92.3" x2="518.6" y2="115.4"/>
		<path class="st2" d="M682.6,91.8c-0.3,7.9-0.6,15.8-0.9,23.7c0,0.1,0,0.3,0.1,0.4c0.1,0.1,0.3-0.1,0.2-0.2"/>
		<line class="st1" x1="502.4" y1="91.7" x2="502.4" y2="116.3"/>
	</g>
	<g>
		<rect x="120.9" y="91.7" class="st0" width="336.6" height="24.7"/>
		<line class="st1" x1="120.9" y1="91.7" x2="457.5" y2="91.7"/>
		<line class="st1" x1="457.5" y1="116.3" x2="120.9" y2="116.3"/>
		<line class="st1" x1="452.6" y1="91.7" x2="452.6" y2="116.3"/>
		<line class="st1" x1="442.6" y1="92.3" x2="442.6" y2="115.3"/>
		<line class="st1" x1="457.5" y1="91.7" x2="457.5" y2="116.3"/>
		<line class="st1" x1="120.9" y1="91.7" x2="120.9" y2="116.3"/>
	</g>
	<g>
		<polygon class="st0" points="457.5,81.5 457.5,126.5 463.7,126.5 463.7,133.5 468.1,133.5 468.1,311 492.3,311 492.3,133.5 
			496.2,133.5 496.2,126.5 502.4,126.5 502.4,81.5 		"/>
		<g>
			<rect x="457.5" y="81.5" class="st1" width="44.9" height="44.9"/>
			<g>
				<circle class="st1" cx="479.9" cy="104" r="10.8"/>
				<circle class="st1" cx="479.9" cy="104" r="6.9"/>
			</g>
		</g>
		<g>
			<g>
				<g>
					<line class="st1" x1="467.6" y1="156.5" x2="492.3" y2="156.5"/>
				</g>
				<rect x="463.7" y="126.5" class="st1" width="32.5" height="7"/>
				<line class="st1" x1="467.6" y1="311" x2="467.6" y2="133.5"/>
				<line class="st1" x1="492.3" y1="311" x2="492.3" y2="133.5"/>
			</g>
			<line class="st1" x1="486.8" y1="133.5" x2="486.8" y2="156.5"/>
			<line class="st1" x1="467.6" y1="311" x2="492.3" y2="311"/>
		</g>
		<line class="st1" x1="467.6" y1="303.3" x2="491.1" y2="303.3"/>
		<line class="st1" x1="468.1" y1="297.8" x2="492.1" y2="297.8"/>
		<line class="st1" x1="467.6" y1="160.8" x2="492.1" y2="160.8"/>
		<line class="st1" x1="476.6" y1="160.8" x2="476.6" y2="296.3"/>
	</g>
	<g>
		<polygon class="st0" points="502.4,356 502.4,345.9 511.2,345.9 511.2,321.2 502.4,321.2 502.4,311 457.5,311 457.5,321.2 
			120.9,321.2 120.9,345.9 439.8,345.9 448.6,345.9 457.5,345.9 457.5,356 467.6,356 467.6,386.1 463.7,386.1 463.7,393.1 
			453,393.1 453,401.8 506.8,401.8 506.8,393.1 496.2,393.1 496.2,386.1 492.1,386.1 492.1,356 		"/>
		<rect x="453.1" y="393.2" class="st1" width="53.8" height="8.6"/>
		<g>
			<rect x="457.5" y="311.1" class="st1" width="44.9" height="44.9"/>
			<g>
				<circle class="st1" cx="479.9" cy="333.5" r="10.8"/>
				<circle class="st1" cx="479.9" cy="333.5" r="6.9"/>
			</g>
		</g>
		<rect x="448.7" y="321.1" class="st1" width="8.8" height="24.7"/>
		<rect x="439.9" y="321.1" class="st1" width="8.8" height="24.7"/>
		<rect x="502.4" y="321.1" class="st1" width="8.8" height="24.7"/>
		<g>
			<g>
				<line class="st1" x1="492.3" y1="363.2" x2="467.6" y2="363.2"/>
			</g>
			<rect x="463.7" y="386.2" class="st1" width="32.5" height="7"/>
			<line class="st1" x1="492.3" y1="356" x2="492.3" y2="386.1"/>
			<line class="st1" x1="467.6" y1="356" x2="467.6" y2="386.1"/>
		</g>
		<line class="st1" x1="473.1" y1="386.1" x2="473.1" y2="363.2"/>
		<line class="st1" x1="439.8" y1="339.7" x2="120.9" y2="339.7"/>
		<g>
			<line class="st1" x1="120.9" y1="321.2" x2="439.8" y2="321.2"/>
			<line class="st1" x1="439.8" y1="345.9" x2="120.9" y2="345.9"/>
		</g>
		<line class="st1" x1="120.9" y1="321.2" x2="120.9" y2="345.9"/>
	</g>
	<g>
		<g>
			<circle class="st0" cx="626.5" cy="249.7" r="41.8"/>
			<polygon class="st0" points="723.9,339.6 723.9,346.3 714,346.3 714,356.2 723.9,356.2 723.9,364 714,364 714,373.9 723.9,373.9 
				723.9,384.5 768.9,384.5 768.9,339.6 			"/>
			<polygon class="st0" points="723.8,51.4 723.8,44.4 734.5,44.4 734.5,35.7 680.7,35.7 680.7,44.4 691.3,44.4 691.3,51.4 
				695.2,51.4 695.2,81.5 685.1,81.5 685.1,126.5 690.8,126.5 690.8,136.4 700.7,136.4 700.7,126.5 708.5,126.5 708.5,136.4 
				718.4,136.4 718.4,126.5 730,126.5 730,81.5 719.9,81.5 719.9,51.4 			"/>
		</g>
		<rect x="680.7" y="35.7" class="st1" width="53.8" height="8.6"/>
		<g>
			<rect x="685.1" y="81.5" class="st1" width="44.9" height="44.9"/>
			<g>
				<circle class="st1" cx="707.6" cy="104" r="10.8"/>
				<circle class="st1" cx="707.6" cy="104" r="6.9"/>
			</g>
		</g>
		<g>
			<g>
				<line class="st1" x1="695.2" y1="74.4" x2="719.9" y2="74.4"/>
			</g>
			<rect x="691.3" y="44.4" class="st1" width="32.5" height="7"/>
			<line class="st1" x1="695.2" y1="81.5" x2="695.2" y2="51.4"/>
			<line class="st1" x1="719.9" y1="81.5" x2="719.9" y2="51.4"/>
		</g>
		<g>
			<g>
				<rect x="723.9" y="339.6" class="st1" width="44.9" height="44.9"/>
				<g>
					<circle class="st1" cx="746.4" cy="362.1" r="10.8"/>
					<circle class="st1" cx="746.4" cy="362.1" r="6.9"/>
				</g>
			</g>
			<rect x="714" y="346.3" class="st1" width="9.9" height="9.9"/>
			<rect x="714" y="364" class="st1" width="9.9" height="9.9"/>
		</g>
		<line class="st1" x1="714.4" y1="51.4" x2="714.4" y2="74.4"/>
		<circle class="st1" cx="626.5" cy="249.7" r="27.9"/>
		<circle class="st1" cx="626.5" cy="249.7" r="41.8"/>
		<g>
			<rect x="690.8" y="126.5" class="st1" width="9.9" height="9.9"/>
			<rect x="708.5" y="126.5" class="st1" width="9.9" height="9.9"/>
		</g>
		<path class="st1" d="M695.7,136.4c0.4,17.1-1.1,34.5-6.7,50.7c-6.8,19.8-20.3,37.8-40.1,46"/>
		<path class="st1" d="M638.6,289.7c5.1,15.8,14.9,30.1,27.8,40.5c13.5,10.9,30.4,19.5,47.7,20.7"/>
		<path class="st1" d="M713.6,136.4c2.2,46.7,1.9,94.8-15.3,138.3c-9.7,24.5-24.8,47.3-29.6,73.2c-1.3,7-1.5,15,3.2,20.3
			c6.3,7,17.4,5.6,26.7,3.6c5.1-1.1,10.3-2.2,15.4-3.4"/>
		<path class="st1" d="M511.2,326.5c38.8-1.4,76.2-25.7,92-61.5"/>
		<path class="st1" d="M511.2,334c18.4-3.1,36.7-6.9,53.3-15.6c15.3-8.1,29.1-19.7,38.1-34.4"/>
		<path class="st1" d="M511.2,341.5c25.3-3.3,50.6-9.4,72.1-22.9c22-13.8,39.6-36.3,42.7-62"/>
		<g>
			<g>
				<circle class="st1" cx="626.5" cy="249.7" r="10.8"/>
				<circle class="st1" cx="626.5" cy="249.7" r="6.9"/>
			</g>
		</g>
		<line class="st1" x1="762.9" y1="340" x2="762.9" y2="384.7"/>
		<path class="st2" d="M717.3,75c0,1.8,0,3.7,0,5.5"/>
		<path class="st2" d="M712.7,74.5c0.3,2.5,0.5,4.9,0.8,7.4"/>
		<path class="st2" d="M719.4,44.4c0,2.2-0.3,4.5-0.9,6.7"/>
		<path class="st2" d="M715.6,44.9c0.4,2.2,0.5,4.5,0.5,6.7"/>
		<path class="st2" d="M697.3,44.9c0.6,2.4,1,4.8,1.3,7.2"/>
		<path class="st2" d="M730.1,36.7c0.1,2.5,0,5-0.4,7.5"/>
		<path class="st2" d="M726.5,36.2c0.2,2.6,0.4,5.3,0.7,7.9"/>
	</g>
	<g>
		<polygon class="st0" points="757.2,445.9 739.6,477 739.6,500.7 584.6,500.7 584.6,445.9 570.9,445.9 570.9,582.3 584.6,582.3 
			584.6,527.5 739.6,527.5 739.6,551.3 757.2,582.3 768.9,582.3 768.9,445.9 		"/>
		<rect x="757.2" y="445.9" class="st1" width="11.7" height="136.4"/>
		<rect x="739.6" y="477" class="st1" width="17.7" height="74.3"/>
		<g>
			<rect x="584.6" y="500.7" class="st1" width="155" height="26.7"/>
			<line class="st1" x1="739.6" y1="514.1" x2="726.2" y2="527.5"/>
			<line class="st1" x1="732.7" y1="500.7" x2="706" y2="527.5"/>
			<line class="st1" x1="712.5" y1="500.7" x2="685.7" y2="527.5"/>
			<line class="st1" x1="692.3" y1="500.7" x2="665.5" y2="527.5"/>
			<line class="st1" x1="672" y1="500.7" x2="645.3" y2="527.5"/>
			<line class="st1" x1="651.8" y1="500.7" x2="625.1" y2="527.5"/>
			<line class="st1" x1="631.6" y1="500.7" x2="604.8" y2="527.5"/>
			<line class="st1" x1="611.4" y1="500.7" x2="584.6" y2="527.5"/>
			<line class="st1" x1="591.1" y1="500.7" x2="584.6" y2="507.3"/>
		</g>
		<circle class="st1" cx="748.4" cy="514.1" r="3"/>
		<circle class="st1" cx="748.4" cy="492.9" r="3"/>
		<circle class="st1" cx="748.4" cy="535.4" r="3"/>
		<line class="st1" x1="739.6" y1="477" x2="757.2" y2="445.9"/>
		<line class="st1" x1="739.6" y1="551.3" x2="757.2" y2="582.3"/>
		<rect x="570.9" y="445.9" class="st1" width="13.7" height="136.4"/>
		<line class="st1" x1="575.6" y1="445.8" x2="575.6" y2="582.4"/>
		<line class="st1" x1="763.6" y1="447.8" x2="763.6" y2="582.8"/>
	</g>
	<g>
		<path class="st0" d="M1473.5,624.3v-8.8V470.2v-20.9v-3.4c0-13.6-11-24.7-24.7-24.7l0,0h-3.4h-20.9h-15.9v-3.9h-7v-41.1h-8.6
			v108.4h8.6v-34.9h7v-3.8h15.9l0,0h20.9l0,0h3.4v3.4v20.9v32.2V536v79.5v8.8h-10.1v44.9h10.1v53h24.7v-53h10.1v-44.9H1473.5
			L1473.5,624.3z"/>
		<g>
			<rect x="1392.9" y="376.3" class="st1" width="8.6" height="108.4"/>
			<g>
				<path class="st1" d="M1448.8,445.9h-40.3v-24.7h40.3l0,0c13.6,0,24.7,11,24.7,24.7l0,0v178.4h-24.7V445.9z"/>
				<g>
					<rect x="1448.7" y="449.4" class="st1" width="24.7" height="20.9"/>
					<line class="st1" x1="1448.8" y1="463.2" x2="1473.5" y2="463.2"/>
				</g>
				<g>
					<rect x="1424.4" y="421.3" class="st1" width="20.9" height="24.7"/>
					<line class="st1" x1="1431.5" y1="421.2" x2="1431.5" y2="445.9"/>
				</g>
				<rect x="1401.5" y="417.4" class="st1" width="7" height="32.5"/>
			</g>
			<g>
				<rect x="1438.6" y="624.3" class="st1" width="44.9" height="44.9"/>
				<g>
					<circle class="st1" cx="1461.1" cy="646.8" r="10.8"/>
					<circle class="st1" cx="1461.1" cy="646.8" r="6.9"/>
				</g>
			</g>
			<rect x="1448.8" y="615.5" class="st1" width="24.7" height="8.8"/>
			<rect x="1448.8" y="502.3" class="st1" width="12.3" height="33.6"/>
		</g>
		<rect x="1448.8" y="669.3" class="st1" width="24.7" height="53"/>
		<line class="st1" x1="1448.8" y1="677.1" x2="1473.5" y2="677.1"/>
		<line class="st1" x1="1449.6" y1="715.3" x2="1471.6" y2="715.3"/>
		<line class="st1" x1="1448.9" y1="709.3" x2="1472.3" y2="709.3"/>
	</g>
	<g>
		<g>
			<rect x="768.9" y="298.3" class="st0" width="624" height="424"/>
			<rect x="768.9" y="298.3" class="st1" width="624" height="424"/>
		</g>
		<g>
			<rect x="1008.4" y="734.2" class="st0" width="40" height="10.8"/>
			<path class="st1" d="M1060.4,722.3v5.4c0,6.6-5.3,11.9-11.9,11.9l0,0"/>
			<path class="st1" d="M1008.4,739.6L1008.4,739.6c-6.6,0-11.9-5.3-11.9-11.9v-5.4"/>
			<rect x="1008.4" y="734.2" class="st1" width="40" height="10.8"/>
			<line class="st1" x1="1040.7" y1="745" x2="1040.7" y2="734.2"/>
			<line class="st1" x1="1016.2" y1="745" x2="1016.2" y2="734.2"/>
		</g>
		<g>
			<rect x="925.4" y="734.2" class="st0" width="40" height="10.8"/>
			<path class="st1" d="M977.3,722.3v5.4c0,6.6-5.3,11.9-11.9,11.9l0,0"/>
			<path class="st1" d="M925.4,739.6L925.4,739.6c-6.6,0-11.9-5.3-11.9-11.9v-5.4"/>
			<rect x="925.4" y="734.2" class="st1" width="40" height="10.8"/>
			<line class="st1" x1="957.6" y1="745" x2="957.6" y2="734.2"/>
			<line class="st1" x1="933.2" y1="745" x2="933.2" y2="734.2"/>
		</g>
		<g>
			<rect x="1142.8" y="734.2" class="st0" width="40" height="10.8"/>
			<path class="st1" d="M1194.7,722.3v5.4c0,6.6-5.3,11.9-11.9,11.9l0,0"/>
			<path class="st1" d="M1142.8,739.6L1142.8,739.6c-6.6,0-11.9-5.3-11.9-11.9v-5.4"/>
			<rect x="1142.8" y="734.2" class="st1" width="40" height="10.8"/>
			<line class="st1" x1="1175" y1="745" x2="1175" y2="734.2"/>
			<line class="st1" x1="1150.6" y1="745" x2="1150.6" y2="734.2"/>
		</g>
	</g>
</g>
<rect x="780.1" y="354.7" class="st3" width="601.8" height="358.5"/>
<g id="XMLID_81_">
	<path id="XMLID_89_" class="st4" d="M1383.4,307c0-1.1-0.8-2.1-1.7-2.1H780.6c-0.9,0-1.7,1-1.7,2.1v21.2v384.9
		c0,1.1,0.8,2.1,1.7,2.1h601.1c0.9,0,1.7-1,1.7-2.1V307z M1381.8,713.2H780.6V328.3h601.1L1381.8,713.2L1381.8,713.2z"/>
	<ellipse id="XMLID_88_" class="st0" cx="789.9" cy="316.6" rx="4.2" ry="3.9"/>
	<ellipse id="XMLID_87_" class="st0" cx="801.2" cy="316.6" rx="4.2" ry="3.9"/>
	<ellipse id="XMLID_86_" class="st0" cx="812.6" cy="316.6" rx="4.1" ry="3.9"/>
	<path id="XMLID_85_" class="st0" d="M1364.4,320.8c0,1.1-0.8,2.1-1.7,2.1H847.3c-0.9,0-1.7-1-1.7-2.1v-8.5c0-1.1,0.8-2.1,1.7-2.1
		h515.3c0.9,0,1.7,1,1.7,2.1L1364.4,320.8L1364.4,320.8z"/>
	<path id="XMLID_84_" class="st0" d="M1376.6,313h-1.5c-0.3,0-0.5-0.3-0.5-0.6c0-0.3,0.3-0.6,0.5-0.6h2.7c0.3,0,0.5,0.3,0.5,0.6l0,0
		v3.1c0,0.3-0.3,0.6-0.5,0.6c-0.3,0-0.5-0.3-0.5-0.6v-1.7l-4.2,4.8h1.5c0.3,0,0.5,0.3,0.5,0.6c0,0.3-0.3,0.6-0.5,0.6h-2.7l0,0l0,0
		l0,0l0,0c-0.3,0-0.4-0.2-0.4-0.5l0,0l0,0l0,0l0,0v-3.1c0-0.3,0.3-0.6,0.5-0.6s0.5,0.3,0.5,0.6v1.7L1376.6,313z"/>
	<path id="XMLID_83_" class="st0" d="M829,315.8L829,315.8L829,315.8h-4.6l1.8-1.6c0.3-0.3,0.3-0.8,0-1.1c-0.3-0.3-0.8-0.3-1.2,0
		l-3.2,2.9l0,0l0,0l0,0l0,0c-0.3,0.3-0.3,0.8,0,1l0,0l0,0l0,0l0,0l3.2,2.9c0.3,0.3,0.8,0.3,1.2,0c0.3-0.4,0.3-0.8,0-1.1l-1.8-1.6
		h4.6l0,0l0,0c0.3,0,0.6-0.3,0.6-0.5v-0.3C829.4,316.1,829.3,315.8,829,315.8z"/>
	<path id="XMLID_82_" class="st0" d="M834.5,317.3L834.5,317.3L834.5,317.3h4.8l-1.9,1.6c-0.3,0.3-0.3,0.8,0,1.1
		c0.3,0.3,0.9,0.3,1.3,0l3.4-2.9l0,0l0,0l0,0l0,0c0.3-0.3,0.3-0.8,0-1l0,0l0,0l0,0l0,0l-3.4-2.9c-0.3-0.3-0.9-0.3-1.3,0
		c-0.3,0.4-0.3,0.8,0,1.1l1.9,1.6h-4.8l0,0l0,0c-0.3,0-0.6,0.3-0.6,0.5v0.6C833.9,317.2,834.2,317.3,834.5,317.3z"/>
</g>
<g id="XMLID_80_">
	<g id="XMLID_222_">
		<text transform="matrix(1 0 0 1 867.2001 342.6916)" class="st5 st6 st7">cimon-io/billet</text>
	</g>
</g>
<line id="XMLID_93_" class="st8" x1="947" y1="337" x2="950" y2="340.9"/>
<line id="XMLID_94_" class="st8" x1="950" y1="340.9" x2="954.5" y2="337"/>
<line id="XMLID_95_" class="st8" x1="954.5" y1="337" x2="947" y2="337"/>
<line id="XMLID_96_" class="st8" x1="972.5" y1="372.2" x2="973.5" y2="372.2"/>
<g id="XMLID_99_" class="st9">
	<text transform="matrix(1 0 0 1 981.6996 342.2772)" class="st5 st6 st7">add-cimon  </text>
	<text transform="matrix(1 0 0 1 1031.2997 342.2772)" class="st5 st6 st7"> </text>
</g>
<ellipse id="XMLID_104_" class="st10" cx="975.5" cy="339.5" rx="4.3" ry="3.9"/>
<polygon id="XMLID_1_" class="st5" points="1029.6,339.2 1034.4,339.2 1032,342.5 "/>
<g id="XMLID_2_" class="st9">
	<g id="XMLID_216_">
		<text transform="matrix(1 0 0 1 1081.089 342.2772)" class="st5 st6 st7">05dc944</text>
	</g>
</g>
<g id="XMLID_5_" class="st9">
	<g id="XMLID_217_">
		<text transform="matrix(1 0 0 1 1166.7996 342.2772)" class="st5 st6 st7">test</text>
	</g>
</g>
<path id="XMLID_8_" class="st5" d="M1046.3,345.9L1046.3,345.9c-0.1-0.1-0.2-0.2-0.1-0.3l6.9-11.5c0.1-0.1,0.2-0.2,0.3-0.1l0,0
	c0.1,0.1,0.2,0.2,0.1,0.3l-6.9,11.5C1046.6,346,1046.4,346,1046.3,345.9z"/>
<line id="XMLID_4_" class="st8" x1="780.5" y1="344.2" x2="781.5" y2="344.2"/>
<line id="XMLID_6_" class="st8" x1="778.5" y1="345.2" x2="779.5" y2="345.2"/>
<path id="XMLID_25_" class="st5" d="M946.4,345.7L946.4,345.7c-0.1-0.1-0.2-0.2-0.1-0.3l6.9-11.5c0.1-0.1,0.2-0.2,0.3-0.1l0,0
	c0.1,0.1,0.2,0.2,0.1,0.3l-6.8,11.5C946.7,345.7,946.5,345.8,946.4,345.7z"/>
<path id="XMLID_9_" class="st5" d="M1132.9,345.5L1132.9,345.5c-0.1-0.1-0.2-0.2-0.1-0.3l6.9-11.5c0.1-0.1,0.2-0.2,0.3-0.1l0,0
	c0.1,0.1,0.2,0.2,0.1,0.3l-6.9,11.5C1133.1,345.6,1133,345.6,1132.9,345.5z"/>
<g>
	<g>
		<path class="st5" d="M794.8,344.4c-1.7,0-3.1-0.5-4.3-1.6c-1.2-1.1-1.8-2.4-1.8-3.9c0-1.5,0.6-2.8,1.8-3.9
			c1.2-1.1,2.6-1.6,4.3-1.6c1.4,0,2.6,0.4,3.7,1.1c0.2,0.2,0.3,0.4,0.4,0.6c0,0.3,0,0.5-0.2,0.7c-0.2,0.2-0.4,0.3-0.7,0.3
			c-0.3,0-0.5,0-0.7-0.2c-0.7-0.5-1.6-0.8-2.5-0.8c-1.1,0-2.1,0.4-2.9,1.1c-0.8,0.7-1.2,1.6-1.2,2.6c0,1,0.4,1.9,1.2,2.6
			c0.8,0.7,1.7,1.1,2.9,1.1c1.1,0,2-0.3,2.7-0.9c0.2-0.2,0.4-0.2,0.7-0.2c0.3,0,0.5,0.1,0.7,0.3c0.2,0.2,0.3,0.4,0.3,0.7
			c0,0.3-0.1,0.5-0.3,0.6C797.7,344,796.3,344.4,794.8,344.4z"/>
		<path class="st5" d="M803.1,344.4c-0.3,0-0.5-0.1-0.7-0.3c-0.2-0.2-0.3-0.4-0.3-0.6v-9.1c0-0.3,0.1-0.5,0.3-0.6
			c0.2-0.2,0.4-0.3,0.7-0.3s0.5,0.1,0.7,0.3c0.2,0.2,0.3,0.4,0.3,0.6v9.1c0,0.3-0.1,0.5-0.3,0.6
			C803.6,344.3,803.3,344.4,803.1,344.4z"/>
		<path class="st5" d="M819.1,333.4c0.2,0.1,0.4,0.2,0.5,0.3c0.1,0.2,0.2,0.3,0.2,0.5v9.2c0,0.3-0.1,0.5-0.3,0.6
			c-0.2,0.2-0.4,0.3-0.7,0.3c-0.3,0-0.5-0.1-0.7-0.3c-0.2-0.2-0.3-0.4-0.3-0.6v-6l-3.2,4.7v0l0,0l0,0l0,0c0,0,0,0,0,0.1l0,0
			c0,0,0,0,0,0c0,0,0,0,0,0c0,0,0,0,0,0c0,0,0,0-0.1,0l0,0c0,0,0,0-0.1,0c0,0,0,0,0,0l0,0h0c0,0,0,0-0.1,0c0,0,0,0,0,0
			c0,0,0,0-0.1,0c-0.1,0.1-0.3,0.1-0.4,0.1h0c0,0,0,0,0,0c-0.1,0-0.1,0-0.2,0c0,0,0,0,0,0c0,0,0,0,0,0c0,0,0,0-0.1,0c0,0,0,0,0,0
			c0,0-0.1,0-0.1,0h0l0,0l0,0c0,0,0,0-0.1,0c0,0,0,0,0,0c0,0,0,0-0.1,0c0,0,0,0,0,0c0,0,0,0,0,0c0,0,0,0,0,0c0,0,0,0,0,0
			c0,0,0,0,0-0.1l0,0c0,0,0,0,0,0v0c0,0,0,0,0,0l-3.2-4.7v6c0,0.3-0.1,0.5-0.3,0.6c-0.2,0.2-0.4,0.3-0.7,0.3s-0.5-0.1-0.7-0.3
			c-0.2-0.2-0.3-0.4-0.3-0.6v-9.2c0-0.2,0.1-0.4,0.2-0.5c0.1-0.2,0.3-0.3,0.5-0.3c0.2-0.1,0.4,0,0.6,0c0.2,0.1,0.4,0.2,0.5,0.4
			l4.2,6.2l4.2-6.2c0.1-0.2,0.3-0.3,0.5-0.4c0.2-0.1,0.3-0.1,0.3-0.1S818.9,333.4,819.1,333.4z"/>
		<path class="st5" d="M828.9,344.4c-1.7,0-3.1-0.5-4.3-1.6c-1.2-1.1-1.8-2.4-1.8-3.9c0-1.5,0.6-2.8,1.8-3.9
			c1.2-1.1,2.6-1.6,4.3-1.6c1.7,0,3.1,0.5,4.3,1.6c1.2,1.1,1.8,2.4,1.8,3.9c0,1.5-0.6,2.8-1.8,3.9
			C832,343.9,830.6,344.4,828.9,344.4z M828.9,335.2c-1.1,0-2.1,0.4-2.9,1.1c-0.8,0.7-1.2,1.6-1.2,2.6s0.4,1.9,1.2,2.6
			c0.8,0.7,1.8,1.1,2.9,1.1s2.1-0.4,2.9-1.1c0.8-0.7,1.2-1.6,1.2-2.6s-0.4-1.9-1.2-2.6C831,335.6,830,335.2,828.9,335.2z"/>
		<path class="st5" d="M846.1,344.1L846.1,344.1L846.1,344.1L840,337v6.5c0,0.3-0.1,0.5-0.3,0.6c-0.2,0.2-0.4,0.3-0.7,0.3
			s-0.5-0.1-0.7-0.3c-0.2-0.2-0.3-0.4-0.3-0.6v-9.2c0-0.2,0.1-0.4,0.2-0.5c0.1-0.2,0.3-0.3,0.5-0.3c0.2-0.1,0.4-0.1,0.6,0
			c0.2,0.1,0.4,0.2,0.5,0.3l6.1,7.1v-6.5c0-0.3,0.1-0.5,0.3-0.6c0.2-0.2,0.4-0.3,0.7-0.3s0.5,0.1,0.7,0.3c0.2,0.2,0.3,0.4,0.3,0.6
			v9.2c0,0,0,0,0,0c0,0,0,0,0,0c0,0,0,0,0,0c0,0,0,0,0,0l0,0c0,0,0,0,0,0c0,0,0,0,0,0c0,0,0,0,0,0l0,0l0,0c0,0,0,0,0,0l0,0
			c0,0,0,0,0,0l0,0c0,0,0,0,0,0c0,0,0,0,0,0c0,0,0,0,0,0c0,0,0,0,0,0c0,0,0,0,0,0l0,0c0,0-0.1,0.1-0.1,0.1h0c0,0-0.1,0-0.1,0.1
			c0,0,0,0,0,0c0,0-0.1,0-0.1,0l0,0c-0.1,0-0.1,0-0.1,0c0,0-0.1,0-0.1,0c0,0,0,0,0,0c0,0-0.1,0-0.1,0c0,0,0,0,0,0c0,0-0.1,0-0.1,0
			c0,0,0,0,0,0c0,0-0.1,0-0.1,0c0,0,0,0,0,0c0,0,0,0-0.1,0c0,0,0,0,0,0c0,0,0,0-0.1,0c0,0,0,0,0,0
			C846.2,344.2,846.2,344.2,846.1,344.1L846.1,344.1L846.1,344.1C846.2,344.1,846.1,344.1,846.1,344.1
			C846.1,344.1,846.1,344.1,846.1,344.1z"/>
	</g>
</g>
<ellipse id="XMLID_3_" class="st10" cx="1074.8" cy="338.9" rx="4.3" ry="3.9"/>
<ellipse id="XMLID_7_" class="st10" cx="1160.5" cy="339.7" rx="4.3" ry="3.9"/>
<polygon id="XMLID_10_" class="st5" points="1120.2,339.2 1124.9,339.2 1122.5,342.5 "/>
<polygon id="XMLID_11_" class="st5" points="1185.7,339.2 1190.5,339.2 1188.1,342.5 "/>
<ellipse class="st11" cx="1336.8" cy="340.6" rx="10.8" ry="10.3"/>
<g>
	<path class="st12" d="M1346,339.9c-0.1-0.3-0.1-0.5-0.1-0.8c-0.3-0.4-0.5-1-0.5-1.5c-0.3-0.3-0.5-0.8-0.5-1.2
		c-0.2-0.2-0.3-0.4-0.4-0.7c-0.6-0.3-1-0.8-1.2-1.5l-0.1,0c-1.6-1.5-3.9-2.4-6.3-2.4c-4.8,0-8.7,3.6-9.1,8.1c0,0.2,0,0.4-0.1,0.6
		c0.1,0.3,0.1,0.6,0.1,0.9c0.1,0.3-0.1,0.4-0.1,0.7l0.4,1.3c0.1,0.1,0.2,0.3,0.2,0.4c0.1,0.1,0.2,0.3,0.3,0.4
		c0.2,0.3,0.2,0.5,0.3,0.8c0,0.1,0.1,0.1,0.1,0.2c0,0.1,0.1,0.1,0.1,0.1c0,0,0.1,0.1,0.1,0.1c0.2,0.2,0.4,0.4,0.6,0.6
		c0.2,0.2,0.4,0.4,0.5,0.7c0.2,0.2,0.4,0.3,0.5,0.5c0.9,0.1,1.5,0.6,1.9,1.2c0.1,0,0.2,0,0.3,0c0.6,0,1,0.1,1.4,0.3c0,0,0,0,0,0
		c0.6,0,1.2,0.2,1.6,0.4c0.1,0,0.1,0,0.2,0c0.1,0,0.2,0,0.3,0c0.2-0.1,0.5-0.1,0.7-0.1c0.3,0,0.5,0,0.7,0.1c0.4-0.3,1-0.5,1.7-0.5
		c0.1,0,0.2,0,0.3,0c0.4-0.5,1.1-0.9,2-1c0.3-0.6,0.8-1.1,1.6-1.3c0.2-0.3,0.4-0.5,0.6-0.7c0.1-0.6,0.4-1.1,0.9-1.5
		c0-0.4,0.1-0.7,0.3-1c0-0.3,0.1-0.5,0.2-0.8c0-0.4,0.1-0.7,0.2-1.1C1345.9,340.9,1345.9,340.4,1346,339.9z"/>
	<g>
		<g>
			<g>
				<g>
					<ellipse class="st13" cx="1336.9" cy="340.7" rx="8.6" ry="8.3"/>
					<path class="st14" d="M1336.9,347c-3.7,0-6.6-2.9-6.6-6.4c0-3.5,3-6.4,6.6-6.4c3.7,0,6.6,2.9,6.6,6.4
						C1343.5,344.2,1340.5,347,1336.9,347z"/>
					<g>
						<path class="st15" d="M1336.9,344c-1.9,0-3.4-1.5-3.4-3.3s1.5-3.3,3.4-3.3c1.9,0,3.4,1.5,3.4,3.3S1338.8,344,1336.9,344z"/>
					</g>
					<path class="st13" d="M1328.2,340.7"/>
					<path class="st13" d="M1328.2,342.6"/>
				</g>
			</g>
		</g>
	</g>
</g>
<polygon id="XMLID_13_" class="st5" points="929.6,339.2 934.4,339.2 932,342.5 "/>
<polygon id="XMLID_12_" class="st5" points="1348.5,339.2 1353.3,339.2 1350.9,342.5 "/>
</svg>
