<?xml version="1.0" encoding="utf-8"?>
<!-- Generator: Adobe Illustrator 19.0.0, SVG Export Plug-In . SVG Version: 6.00 Build 0)  -->
<svg version="1.1" id="Слой_1" xmlns="http://www.w3.org/2000/svg" xmlns:xlink="http://www.w3.org/1999/xlink" x="0px" y="0px"
	 viewBox="569.9 -146.6 1489.7 711.3" enable-background="new 569.9 -146.6 1489.7 711.3" xml:space="preserve">
<g id="_x31_2">
	<g>
		<path fill="#F4E1A1" d="M1950.2-145.6v8.6h34.9v7h3.9v15.9l0,0v20.9l0,0v3.4h-3.4h-20.9h-32.2h-33.6h-79.5h-8.8v-10h-44.9v10.1
			h-8.8H1659h-20.9h-3.4v-3.4l0,0V-114l0,0v-15.9h3.9v-7h17v-8.7h-59.7v8.6h10.2v7h3.9v15.9v20.9v3.4l0,0c0,13.6,11,24.7,24.7,24.7
			h3.4h20.9h97.9h8.8V-55h44.9v-10h8.8h145.3h20.9h3.4l0,0c13.6,0,24.7-11,24.7-24.7l0,0v-3.4V-114v-15.9h3.9v-7h41.1v-8.7H1950.2z"
			/>
		
			<rect x="1950.2" y="-145.6" fill="none" stroke="#817957" stroke-width="2" stroke-linecap="round" stroke-linejoin="round" stroke-miterlimit="10" width="108.4" height="8.6"/>
		
			<rect x="1595.8" y="-145.6" fill="none" stroke="#817957" stroke-width="2" stroke-linecap="round" stroke-linejoin="round" stroke-miterlimit="10" width="59.7" height="8.6"/>
		<g>
			<path fill="none" stroke="#817957" stroke-width="2" stroke-linecap="round" stroke-linejoin="round" stroke-miterlimit="10" d="
				M1634.6-89.6v-40.3h-24.7v40.3l0,0c0,13.6,11,24.7,24.7,24.7l0,0h131v-24.7H1634.6z"/>
			<g>
				
					<rect x="1638" y="-89.6" fill="none" stroke="#817957" stroke-width="2" stroke-linecap="round" stroke-linejoin="round" stroke-miterlimit="10" width="20.9" height="24.7"/>
				
					<line fill="none" stroke="#817957" stroke-width="2" stroke-linecap="round" stroke-linejoin="round" stroke-miterlimit="10" x1="1651.9" y1="-89.6" x2="1651.9" y2="-65"/>
			</g>
			<g>
				
					<rect x="1610" y="-113.9" fill="none" stroke="#817957" stroke-width="2" stroke-linecap="round" stroke-linejoin="round" stroke-miterlimit="10" width="24.7" height="20.9"/>
				
					<line fill="none" stroke="#817957" stroke-width="2" stroke-linecap="round" stroke-linejoin="round" stroke-miterlimit="10" x1="1610" y1="-106.9" x2="1634.6" y2="-106.9"/>
			</g>
			
				<rect x="1606.1" y="-136.9" fill="none" stroke="#817957" stroke-width="2" stroke-linecap="round" stroke-linejoin="round" stroke-miterlimit="10" width="32.5" height="7"/>
		</g>
		<g>
			<path fill="none" stroke="#817957" stroke-width="2" stroke-linecap="round" stroke-linejoin="round" stroke-miterlimit="10" d="
				M1989-89.6v-40.3h24.7v40.3l0,0c0,13.6-11,24.7-24.7,24.7l0,0h-178.4v-24.7H1989z"/>
			<g>
				
					<rect x="1964.7" y="-89.7" fill="none" stroke="#817957" stroke-width="2" stroke-linecap="round" stroke-linejoin="round" stroke-miterlimit="10" width="20.9" height="24.7"/>
				
					<line fill="none" stroke="#817957" stroke-width="2" stroke-linecap="round" stroke-linejoin="round" stroke-miterlimit="10" x1="1971.7" y1="-89.6" x2="1971.7" y2="-65"/>
			</g>
			<g>
				
					<rect x="1989.1" y="-114" fill="none" stroke="#817957" stroke-width="2" stroke-linecap="round" stroke-linejoin="round" stroke-miterlimit="10" width="24.7" height="20.9"/>
				
					<line fill="none" stroke="#817957" stroke-width="2" stroke-linecap="round" stroke-linejoin="round" stroke-miterlimit="10" x1="2013.7" y1="-106.9" x2="1989" y2="-106.9"/>
			</g>
			
				<rect x="1985.1" y="-136.9" fill="none" stroke="#817957" stroke-width="2" stroke-linecap="round" stroke-linejoin="round" stroke-miterlimit="10" width="32.5" height="7"/>
		</g>
		<g>
			
				<rect x="1765.6" y="-99.8" fill="none" stroke="#817957" stroke-width="2" stroke-linecap="round" stroke-linejoin="round" stroke-miterlimit="10" width="44.9" height="44.9"/>
			<g>
				
					<circle fill="none" stroke="#817957" stroke-width="2" stroke-linecap="round" stroke-linejoin="round" stroke-miterlimit="10" cx="1788.1" cy="-77.3" r="10.8"/>
				
					<circle fill="none" stroke="#817957" stroke-width="2" stroke-linecap="round" stroke-linejoin="round" stroke-miterlimit="10" cx="1788.1" cy="-77.3" r="6.9"/>
			</g>
		</g>
		
			<rect x="1756.8" y="-89.6" fill="none" stroke="#817957" stroke-width="2" stroke-linecap="round" stroke-linejoin="round" stroke-miterlimit="10" width="8.8" height="24.7"/>
		
			<rect x="1810.6" y="-89.6" fill="none" stroke="#817957" stroke-width="2" stroke-linecap="round" stroke-linejoin="round" stroke-miterlimit="10" width="8.8" height="24.7"/>
		
			<rect x="1898.9" y="-89.6" fill="none" stroke="#817957" stroke-width="2" stroke-linecap="round" stroke-linejoin="round" stroke-miterlimit="10" width="33.6" height="12.3"/>
		<path fill="none" stroke="#817957" stroke-linecap="round" stroke-linejoin="round" stroke-miterlimit="10" d="M2013.3-136.9
			c-0.4,2.5-0.8,4.9-1.1,7.4"/>
		<path fill="none" stroke="#817957" stroke-linecap="round" stroke-linejoin="round" stroke-miterlimit="10" d="M2010.2-136.3
			c0.1,2.2,0.2,4.3,0.2,6.5"/>
		<path fill="none" stroke="#817957" stroke-linecap="round" stroke-linejoin="round" stroke-miterlimit="10" d="M2007.7-136.4
			c-0.1,2.2-0.1,4.3,0.1,6.5"/>
		<path fill="none" stroke="#817957" stroke-linecap="round" stroke-linejoin="round" stroke-miterlimit="10" d="M1812.7-89.1
			c0,7.7,0.1,15.3,0.3,23"/>
		<path fill="none" stroke="#817957" stroke-linecap="round" stroke-linejoin="round" stroke-miterlimit="10" d="M1763.1-89.3
			c-0.5,7.8-0.8,15.6-0.9,23.5"/>
		<path fill="none" stroke="#817957" stroke-linecap="round" stroke-linejoin="round" stroke-miterlimit="10" d="M1634.1-136.4
			c-0.2,2.4-0.6,4.7-1.2,7"/>
		<path fill="none" stroke="#817957" stroke-linecap="round" stroke-linejoin="round" stroke-miterlimit="10" d="M1631.6-136.2
			c0,2.2-0.2,4.5-0.4,6.7"/>
		<path fill="none" stroke="#817957" stroke-linecap="round" stroke-linejoin="round" stroke-miterlimit="10" d="M1628.5-136.1
			c0,1.9,0,3.9,0,5.8"/>
		<path fill="none" stroke="#817957" stroke-linecap="round" stroke-linejoin="round" stroke-miterlimit="10" d="M1612.2-136.3
			c0.1,2.2,0.1,4.3,0.1,6.5"/>
	</g>
	<g>
		<path fill="#F4E1A1" d="M1536.1-145.6v8.6h16.8v7h3.9v15.9l0,0v20.9l0,0v3.4h-3.4h-20.9h-334.8h-8.8h-8.8v24.7h3.2l0,0l0,0h5.6
			h8.8h40.2h37.9h256.7h20.9h3.4c13.6,0,24.7-11,24.7-24.7v-3.4V-114v-15.9h3.9v-7h10.4v-8.7H1536.1L1536.1-145.6z"/>
		
			<rect x="1536.1" y="-145.6" fill="none" stroke="#817957" stroke-width="2" stroke-linecap="round" stroke-linejoin="round" stroke-miterlimit="10" width="59.7" height="8.6"/>
		<path fill="none" stroke="#817957" stroke-width="2" stroke-linecap="round" stroke-linejoin="round" stroke-miterlimit="10" d="
			M1180-89.6h376.8v-40.3h24.7v40.3c0,13.6-11,24.7-24.7,24.7H1180"/>
		<g>
			
				<rect x="1532.5" y="-89.7" fill="none" stroke="#817957" stroke-width="2" stroke-linecap="round" stroke-linejoin="round" stroke-miterlimit="10" width="20.9" height="24.7"/>
			
				<line fill="none" stroke="#817957" stroke-width="2" stroke-linecap="round" stroke-linejoin="round" stroke-miterlimit="10" x1="1539.5" y1="-89.6" x2="1539.5" y2="-65"/>
		</g>
		<g>
			
				<rect x="1556.9" y="-114" fill="none" stroke="#817957" stroke-width="2" stroke-linecap="round" stroke-linejoin="round" stroke-miterlimit="10" width="24.7" height="20.9"/>
			
				<line fill="none" stroke="#817957" stroke-width="2" stroke-linecap="round" stroke-linejoin="round" stroke-miterlimit="10" x1="1581.5" y1="-106.9" x2="1556.8" y2="-106.9"/>
		</g>
		
			<rect x="1552.9" y="-136.9" fill="none" stroke="#817957" stroke-width="2" stroke-linecap="round" stroke-linejoin="round" stroke-miterlimit="10" width="32.5" height="7"/>
		
			<rect x="1180" y="-89.6" fill="none" stroke="#817957" stroke-width="2" stroke-linecap="round" stroke-linejoin="round" stroke-miterlimit="10" width="8.8" height="24.7"/>
		
			<rect x="1188.9" y="-89.6" fill="none" stroke="#817957" stroke-width="2" stroke-linecap="round" stroke-linejoin="round" stroke-miterlimit="10" width="8.8" height="24.7"/>
		
			<rect x="1237.8" y="-77.3" fill="none" stroke="#817957" stroke-width="2" stroke-linecap="round" stroke-linejoin="round" stroke-miterlimit="10" width="37.9" height="12.3"/>
		<path fill="none" stroke="#817957" stroke-linecap="round" stroke-linejoin="round" stroke-miterlimit="10" d="M1581.6-136.1
			c-0.1,2.3-0.2,4.7-0.3,7c0-0.1,0-0.1,0-0.2"/>
		<path fill="none" stroke="#817957" stroke-linecap="round" stroke-linejoin="round" stroke-miterlimit="10" d="M1578.5-136.4
			c0.1,2.2,0.2,4.3,0.3,6.5"/>
		<path fill="none" stroke="#817957" stroke-linecap="round" stroke-linejoin="round" stroke-miterlimit="10" d="M1576.5-136.9
			c-0.3,2.4-0.2,4.8,0.3,7.2"/>
		<path fill="none" stroke="#817957" stroke-linecap="round" stroke-linejoin="round" stroke-miterlimit="10" d="M1558.2-135.9
			c-0.3,2.2-0.6,4.3-0.9,6.5"/>
		<path fill="none" stroke="#817957" stroke-linecap="round" stroke-linejoin="round" stroke-miterlimit="10" d="M1182.5-89.3
			c0.1,5.7,0.1,11.5,0.2,17.2c0,2.4,0,4.8,0.6,7.2c0.1-0.2,0.2-0.5,0.1-0.7"/>
	</g>
	<g>
		<rect x="952.4" y="-89.6" fill="#F4E1A1" width="182.7" height="24.7"/>
		
			<line fill="none" stroke="#817957" stroke-width="2" stroke-linecap="round" stroke-linejoin="round" stroke-miterlimit="10" x1="952.4" y1="-89.6" x2="1135.1" y2="-89.6"/>
		
			<line fill="none" stroke="#817957" stroke-width="2" stroke-linecap="round" stroke-linejoin="round" stroke-miterlimit="10" x1="1135.1" y1="-65" x2="952.4" y2="-65"/>
		
			<rect x="1126.3" y="-89.6" fill="none" stroke="#817957" stroke-width="2" stroke-linecap="round" stroke-linejoin="round" stroke-miterlimit="10" width="8.8" height="24.7"/>
		
			<line fill="none" stroke="#817957" stroke-width="2" stroke-linecap="round" stroke-linejoin="round" stroke-miterlimit="10" x1="956.6" y1="-89.5" x2="956.6" y2="-65"/>
		
			<line fill="none" stroke="#817957" stroke-width="2" stroke-linecap="round" stroke-linejoin="round" stroke-miterlimit="10" x1="963.6" y1="-89.6" x2="963.6" y2="-65.5"/>
		
			<line fill="none" stroke="#817957" stroke-width="2" stroke-linecap="round" stroke-linejoin="round" stroke-miterlimit="10" x1="968.6" y1="-89" x2="968.6" y2="-65.9"/>
		<path fill="none" stroke="#817957" stroke-linecap="round" stroke-linejoin="round" stroke-miterlimit="10" d="M1132.6-89.5
			c-0.3,7.9-0.6,15.8-0.9,23.7c0,0.1,0,0.3,0.1,0.4c0.1,0.1,0.3-0.1,0.2-0.2"/>
		
			<line fill="none" stroke="#817957" stroke-width="2" stroke-linecap="round" stroke-linejoin="round" stroke-miterlimit="10" x1="952.4" y1="-89.6" x2="952.4" y2="-65"/>
	</g>
	<g>
		<rect x="570.9" y="-89.6" fill="#F4E1A1" width="336.6" height="24.7"/>
		
			<line fill="none" stroke="#817957" stroke-width="2" stroke-linecap="round" stroke-linejoin="round" stroke-miterlimit="10" x1="570.9" y1="-89.6" x2="907.5" y2="-89.6"/>
		
			<line fill="none" stroke="#817957" stroke-width="2" stroke-linecap="round" stroke-linejoin="round" stroke-miterlimit="10" x1="907.5" y1="-65" x2="570.9" y2="-65"/>
		
			<line fill="none" stroke="#817957" stroke-width="2" stroke-linecap="round" stroke-linejoin="round" stroke-miterlimit="10" x1="902.6" y1="-89.6" x2="902.6" y2="-65"/>
		
			<line fill="none" stroke="#817957" stroke-width="2" stroke-linecap="round" stroke-linejoin="round" stroke-miterlimit="10" x1="892.6" y1="-89" x2="892.6" y2="-66"/>
		
			<line fill="none" stroke="#817957" stroke-width="2" stroke-linecap="round" stroke-linejoin="round" stroke-miterlimit="10" x1="907.5" y1="-89.6" x2="907.5" y2="-65"/>
		
			<line fill="none" stroke="#817957" stroke-width="2" stroke-linecap="round" stroke-linejoin="round" stroke-miterlimit="10" x1="570.9" y1="-89.6" x2="570.9" y2="-65"/>
	</g>
	<g>
		<polygon fill="#F4E1A1" points="907.5,-99.8 907.5,-54.8 913.7,-54.8 913.7,-47.8 918.1,-47.8 918.1,129.7 942.3,129.7 
			942.3,-47.8 946.2,-47.8 946.2,-54.8 952.4,-54.8 952.4,-99.8 		"/>
		<g>
			
				<rect x="907.5" y="-99.8" fill="none" stroke="#817957" stroke-width="2" stroke-linecap="round" stroke-linejoin="round" stroke-miterlimit="10" width="44.9" height="44.9"/>
			<g>
				
					<circle fill="none" stroke="#817957" stroke-width="2" stroke-linecap="round" stroke-linejoin="round" stroke-miterlimit="10" cx="929.9" cy="-77.3" r="10.8"/>
				
					<circle fill="none" stroke="#817957" stroke-width="2" stroke-linecap="round" stroke-linejoin="round" stroke-miterlimit="10" cx="929.9" cy="-77.3" r="6.9"/>
			</g>
		</g>
		<g>
			<g>
				<g>
					
						<line fill="none" stroke="#817957" stroke-width="2" stroke-linecap="round" stroke-linejoin="round" stroke-miterlimit="10" x1="917.6" y1="-24.8" x2="942.3" y2="-24.8"/>
				</g>
				
					<rect x="913.7" y="-54.8" fill="none" stroke="#817957" stroke-width="2" stroke-linecap="round" stroke-linejoin="round" stroke-miterlimit="10" width="32.5" height="7"/>
				
					<line fill="none" stroke="#817957" stroke-width="2" stroke-linecap="round" stroke-linejoin="round" stroke-miterlimit="10" x1="917.6" y1="129.7" x2="917.6" y2="-47.8"/>
				
					<line fill="none" stroke="#817957" stroke-width="2" stroke-linecap="round" stroke-linejoin="round" stroke-miterlimit="10" x1="942.3" y1="129.7" x2="942.3" y2="-47.8"/>
			</g>
			
				<line fill="none" stroke="#817957" stroke-width="2" stroke-linecap="round" stroke-linejoin="round" stroke-miterlimit="10" x1="936.8" y1="-47.8" x2="936.8" y2="-24.8"/>
			
				<line fill="none" stroke="#817957" stroke-width="2" stroke-linecap="round" stroke-linejoin="round" stroke-miterlimit="10" x1="917.6" y1="129.7" x2="942.3" y2="129.7"/>
		</g>
		
			<line fill="none" stroke="#817957" stroke-width="2" stroke-linecap="round" stroke-linejoin="round" stroke-miterlimit="10" x1="917.6" y1="122" x2="941.1" y2="122"/>
		
			<line fill="none" stroke="#817957" stroke-width="2" stroke-linecap="round" stroke-linejoin="round" stroke-miterlimit="10" x1="918.1" y1="116.5" x2="942.1" y2="116.5"/>
		
			<line fill="none" stroke="#817957" stroke-width="2" stroke-linecap="round" stroke-linejoin="round" stroke-miterlimit="10" x1="917.6" y1="-20.5" x2="942.1" y2="-20.5"/>
		
			<line fill="none" stroke="#817957" stroke-width="2" stroke-linecap="round" stroke-linejoin="round" stroke-miterlimit="10" x1="926.6" y1="-20.5" x2="926.6" y2="115"/>
	</g>
	<g>
		<polygon fill="#F4E1A1" points="952.4,174.7 952.4,164.6 961.2,164.6 961.2,139.9 952.4,139.9 952.4,129.7 907.5,129.7 
			907.5,139.9 570.9,139.9 570.9,164.6 889.8,164.6 898.6,164.6 907.5,164.6 907.5,174.7 917.6,174.7 917.6,204.8 913.7,204.8 
			913.7,211.8 903,211.8 903,220.5 956.8,220.5 956.8,211.8 946.2,211.8 946.2,204.8 942.1,204.8 942.1,174.7 		"/>
		
			<rect x="903.1" y="211.9" fill="none" stroke="#817957" stroke-width="2" stroke-linecap="round" stroke-linejoin="round" stroke-miterlimit="10" width="53.8" height="8.6"/>
		<g>
			
				<rect x="907.5" y="129.8" fill="none" stroke="#817957" stroke-width="2" stroke-linecap="round" stroke-linejoin="round" stroke-miterlimit="10" width="44.9" height="44.9"/>
			<g>
				
					<circle fill="none" stroke="#817957" stroke-width="2" stroke-linecap="round" stroke-linejoin="round" stroke-miterlimit="10" cx="929.9" cy="152.2" r="10.8"/>
				
					<circle fill="none" stroke="#817957" stroke-width="2" stroke-linecap="round" stroke-linejoin="round" stroke-miterlimit="10" cx="929.9" cy="152.2" r="6.9"/>
			</g>
		</g>
		
			<rect x="898.7" y="139.8" fill="none" stroke="#817957" stroke-width="2" stroke-linecap="round" stroke-linejoin="round" stroke-miterlimit="10" width="8.8" height="24.7"/>
		
			<rect x="889.9" y="139.8" fill="none" stroke="#817957" stroke-width="2" stroke-linecap="round" stroke-linejoin="round" stroke-miterlimit="10" width="8.8" height="24.7"/>
		
			<rect x="952.4" y="139.8" fill="none" stroke="#817957" stroke-width="2" stroke-linecap="round" stroke-linejoin="round" stroke-miterlimit="10" width="8.8" height="24.7"/>
		<g>
			<g>
				
					<line fill="none" stroke="#817957" stroke-width="2" stroke-linecap="round" stroke-linejoin="round" stroke-miterlimit="10" x1="942.3" y1="181.9" x2="917.6" y2="181.9"/>
			</g>
			
				<rect x="913.7" y="204.9" fill="none" stroke="#817957" stroke-width="2" stroke-linecap="round" stroke-linejoin="round" stroke-miterlimit="10" width="32.5" height="7"/>
			
				<line fill="none" stroke="#817957" stroke-width="2" stroke-linecap="round" stroke-linejoin="round" stroke-miterlimit="10" x1="942.3" y1="174.7" x2="942.3" y2="204.8"/>
			
				<line fill="none" stroke="#817957" stroke-width="2" stroke-linecap="round" stroke-linejoin="round" stroke-miterlimit="10" x1="917.6" y1="174.7" x2="917.6" y2="204.8"/>
		</g>
		
			<line fill="none" stroke="#817957" stroke-width="2" stroke-linecap="round" stroke-linejoin="round" stroke-miterlimit="10" x1="923.1" y1="204.8" x2="923.1" y2="181.9"/>
		
			<line fill="none" stroke="#817957" stroke-width="2" stroke-linecap="round" stroke-linejoin="round" stroke-miterlimit="10" x1="889.8" y1="158.4" x2="570.9" y2="158.4"/>
		<g>
			
				<line fill="none" stroke="#817957" stroke-width="2" stroke-linecap="round" stroke-linejoin="round" stroke-miterlimit="10" x1="570.9" y1="139.9" x2="889.8" y2="139.9"/>
			
				<line fill="none" stroke="#817957" stroke-width="2" stroke-linecap="round" stroke-linejoin="round" stroke-miterlimit="10" x1="889.8" y1="164.6" x2="570.9" y2="164.6"/>
		</g>
		
			<line fill="none" stroke="#817957" stroke-width="2" stroke-linecap="round" stroke-linejoin="round" stroke-miterlimit="10" x1="570.9" y1="139.9" x2="570.9" y2="164.6"/>
	</g>
	<g>
		<g>
			<circle fill="#F4E1A1" cx="1076.5" cy="68.4" r="41.8"/>
			<polygon fill="#F4E1A1" points="1173.9,158.3 1173.9,165 1164,165 1164,174.9 1173.9,174.9 1173.9,182.7 1164,182.7 1164,192.6 
				1173.9,192.6 1173.9,203.2 1218.9,203.2 1218.9,158.3 			"/>
			<polygon fill="#F4E1A1" points="1173.8,-129.9 1173.8,-136.9 1184.5,-136.9 1184.5,-145.6 1130.7,-145.6 1130.7,-136.9 
				1141.3,-136.9 1141.3,-129.9 1145.2,-129.9 1145.2,-99.8 1135.1,-99.8 1135.1,-54.8 1140.8,-54.8 1140.8,-44.9 1150.7,-44.9 
				1150.7,-54.8 1158.5,-54.8 1158.5,-44.9 1168.4,-44.9 1168.4,-54.8 1180,-54.8 1180,-99.8 1169.9,-99.8 1169.9,-129.9 			"/>
		</g>
		
			<rect x="1130.7" y="-145.6" fill="none" stroke="#817957" stroke-width="2" stroke-linecap="round" stroke-linejoin="round" stroke-miterlimit="10" width="53.8" height="8.6"/>
		<g>
			
				<rect x="1135.1" y="-99.8" fill="none" stroke="#817957" stroke-width="2" stroke-linecap="round" stroke-linejoin="round" stroke-miterlimit="10" width="44.9" height="44.9"/>
			<g>
				
					<circle fill="none" stroke="#817957" stroke-width="2" stroke-linecap="round" stroke-linejoin="round" stroke-miterlimit="10" cx="1157.6" cy="-77.3" r="10.8"/>
				
					<circle fill="none" stroke="#817957" stroke-width="2" stroke-linecap="round" stroke-linejoin="round" stroke-miterlimit="10" cx="1157.6" cy="-77.3" r="6.9"/>
			</g>
		</g>
		<g>
			<g>
				
					<line fill="none" stroke="#817957" stroke-width="2" stroke-linecap="round" stroke-linejoin="round" stroke-miterlimit="10" x1="1145.2" y1="-106.9" x2="1169.9" y2="-106.9"/>
			</g>
			
				<rect x="1141.3" y="-136.9" fill="none" stroke="#817957" stroke-width="2" stroke-linecap="round" stroke-linejoin="round" stroke-miterlimit="10" width="32.5" height="7"/>
			
				<line fill="none" stroke="#817957" stroke-width="2" stroke-linecap="round" stroke-linejoin="round" stroke-miterlimit="10" x1="1145.2" y1="-99.8" x2="1145.2" y2="-129.9"/>
			
				<line fill="none" stroke="#817957" stroke-width="2" stroke-linecap="round" stroke-linejoin="round" stroke-miterlimit="10" x1="1169.9" y1="-99.8" x2="1169.9" y2="-129.9"/>
		</g>
		<g>
			<g>
				
					<rect x="1173.9" y="158.3" fill="none" stroke="#817957" stroke-width="2" stroke-linecap="round" stroke-linejoin="round" stroke-miterlimit="10" width="44.9" height="44.9"/>
				<g>
					
						<circle fill="none" stroke="#817957" stroke-width="2" stroke-linecap="round" stroke-linejoin="round" stroke-miterlimit="10" cx="1196.4" cy="180.8" r="10.8"/>
					
						<circle fill="none" stroke="#817957" stroke-width="2" stroke-linecap="round" stroke-linejoin="round" stroke-miterlimit="10" cx="1196.4" cy="180.8" r="6.9"/>
				</g>
			</g>
			
				<rect x="1164" y="165" fill="none" stroke="#817957" stroke-width="2" stroke-linecap="round" stroke-linejoin="round" stroke-miterlimit="10" width="9.9" height="9.9"/>
			
				<rect x="1164" y="182.7" fill="none" stroke="#817957" stroke-width="2" stroke-linecap="round" stroke-linejoin="round" stroke-miterlimit="10" width="9.9" height="9.9"/>
		</g>
		
			<line fill="none" stroke="#817957" stroke-width="2" stroke-linecap="round" stroke-linejoin="round" stroke-miterlimit="10" x1="1164.4" y1="-129.9" x2="1164.4" y2="-106.9"/>
		
			<circle fill="none" stroke="#817957" stroke-width="2" stroke-linecap="round" stroke-linejoin="round" stroke-miterlimit="10" cx="1076.5" cy="68.4" r="27.9"/>
		
			<circle fill="none" stroke="#817957" stroke-width="2" stroke-linecap="round" stroke-linejoin="round" stroke-miterlimit="10" cx="1076.5" cy="68.4" r="41.8"/>
		<g>
			
				<rect x="1140.8" y="-54.8" fill="none" stroke="#817957" stroke-width="2" stroke-linecap="round" stroke-linejoin="round" stroke-miterlimit="10" width="9.9" height="9.9"/>
			
				<rect x="1158.5" y="-54.8" fill="none" stroke="#817957" stroke-width="2" stroke-linecap="round" stroke-linejoin="round" stroke-miterlimit="10" width="9.9" height="9.9"/>
		</g>
		<path fill="none" stroke="#817957" stroke-width="2" stroke-linecap="round" stroke-linejoin="round" stroke-miterlimit="10" d="
			M1145.7-44.9c0.4,17.1-1.1,34.5-6.7,50.7c-6.8,19.8-20.3,37.8-40.1,46"/>
		<path fill="none" stroke="#817957" stroke-width="2" stroke-linecap="round" stroke-linejoin="round" stroke-miterlimit="10" d="
			M1088.6,108.4c5.1,15.8,14.9,30.1,27.8,40.5c13.5,10.9,30.4,19.5,47.7,20.7"/>
		<path fill="none" stroke="#817957" stroke-width="2" stroke-linecap="round" stroke-linejoin="round" stroke-miterlimit="10" d="
			M1163.6-44.9c2.2,46.7,1.9,94.8-15.3,138.3c-9.7,24.5-24.8,47.3-29.6,73.2c-1.3,7-1.5,15,3.2,20.3c6.3,7,17.4,5.6,26.7,3.6
			c5.1-1.1,10.3-2.2,15.4-3.4"/>
		<path fill="none" stroke="#817957" stroke-width="2" stroke-linecap="round" stroke-linejoin="round" stroke-miterlimit="10" d="
			M961.2,145.2c38.8-1.4,76.2-25.7,92-61.5"/>
		<path fill="none" stroke="#817957" stroke-width="2" stroke-linecap="round" stroke-linejoin="round" stroke-miterlimit="10" d="
			M961.2,152.7c18.4-3.1,36.7-6.9,53.3-15.6c15.3-8.1,29.1-19.7,38.1-34.4"/>
		<path fill="none" stroke="#817957" stroke-width="2" stroke-linecap="round" stroke-linejoin="round" stroke-miterlimit="10" d="
			M961.2,160.2c25.3-3.3,50.6-9.4,72.1-22.9c22-13.8,39.6-36.3,42.7-62"/>
		<g>
			<g>
				
					<circle fill="none" stroke="#817957" stroke-width="2" stroke-linecap="round" stroke-linejoin="round" stroke-miterlimit="10" cx="1076.5" cy="68.4" r="10.8"/>
				
					<circle fill="none" stroke="#817957" stroke-width="2" stroke-linecap="round" stroke-linejoin="round" stroke-miterlimit="10" cx="1076.5" cy="68.4" r="6.9"/>
			</g>
		</g>
		
			<line fill="none" stroke="#817957" stroke-width="2" stroke-linecap="round" stroke-linejoin="round" stroke-miterlimit="10" x1="1212.9" y1="158.7" x2="1212.9" y2="203.4"/>
		<path fill="none" stroke="#817957" stroke-linecap="round" stroke-linejoin="round" stroke-miterlimit="10" d="M1167.3-106.3
			c0,1.8,0,3.7,0,5.5"/>
		<path fill="none" stroke="#817957" stroke-linecap="round" stroke-linejoin="round" stroke-miterlimit="10" d="M1162.7-106.8
			c0.3,2.5,0.5,4.9,0.8,7.4"/>
		<path fill="none" stroke="#817957" stroke-linecap="round" stroke-linejoin="round" stroke-miterlimit="10" d="M1169.4-136.9
			c0,2.2-0.3,4.5-0.9,6.7"/>
		<path fill="none" stroke="#817957" stroke-linecap="round" stroke-linejoin="round" stroke-miterlimit="10" d="M1165.6-136.4
			c0.4,2.2,0.5,4.5,0.5,6.7"/>
		<path fill="none" stroke="#817957" stroke-linecap="round" stroke-linejoin="round" stroke-miterlimit="10" d="M1147.3-136.4
			c0.6,2.4,1,4.8,1.3,7.2"/>
		<path fill="none" stroke="#817957" stroke-linecap="round" stroke-linejoin="round" stroke-miterlimit="10" d="M1180.1-144.6
			c0.1,2.5,0,5-0.4,7.5"/>
		<path fill="none" stroke="#817957" stroke-linecap="round" stroke-linejoin="round" stroke-miterlimit="10" d="M1176.5-145.1
			c0.2,2.6,0.4,5.3,0.7,7.9"/>
	</g>
	<g>
		<polygon fill="#F4E1A1" points="1207.2,264.6 1189.6,295.7 1189.6,319.4 1034.6,319.4 1034.6,264.6 1020.9,264.6 1020.9,401 
			1034.6,401 1034.6,346.2 1189.6,346.2 1189.6,370 1207.2,401 1218.9,401 1218.9,264.6 		"/>
		
			<rect x="1207.2" y="264.6" fill="none" stroke="#817957" stroke-width="2" stroke-linecap="round" stroke-linejoin="round" stroke-miterlimit="10" width="11.7" height="136.4"/>
		
			<rect x="1189.6" y="295.7" fill="none" stroke="#817957" stroke-width="2" stroke-linecap="round" stroke-linejoin="round" stroke-miterlimit="10" width="17.7" height="74.3"/>
		<g>
			
				<rect x="1034.6" y="319.4" fill="none" stroke="#817957" stroke-width="2" stroke-linecap="round" stroke-linejoin="round" stroke-miterlimit="10" width="155" height="26.7"/>
			
				<line fill="none" stroke="#817957" stroke-width="2" stroke-linecap="round" stroke-linejoin="round" stroke-miterlimit="10" x1="1189.6" y1="332.8" x2="1176.2" y2="346.2"/>
			
				<line fill="none" stroke="#817957" stroke-width="2" stroke-linecap="round" stroke-linejoin="round" stroke-miterlimit="10" x1="1182.7" y1="319.4" x2="1156" y2="346.2"/>
			
				<line fill="none" stroke="#817957" stroke-width="2" stroke-linecap="round" stroke-linejoin="round" stroke-miterlimit="10" x1="1162.5" y1="319.4" x2="1135.7" y2="346.2"/>
			
				<line fill="none" stroke="#817957" stroke-width="2" stroke-linecap="round" stroke-linejoin="round" stroke-miterlimit="10" x1="1142.3" y1="319.4" x2="1115.5" y2="346.2"/>
			
				<line fill="none" stroke="#817957" stroke-width="2" stroke-linecap="round" stroke-linejoin="round" stroke-miterlimit="10" x1="1122" y1="319.4" x2="1095.3" y2="346.2"/>
			
				<line fill="none" stroke="#817957" stroke-width="2" stroke-linecap="round" stroke-linejoin="round" stroke-miterlimit="10" x1="1101.8" y1="319.4" x2="1075.1" y2="346.2"/>
			
				<line fill="none" stroke="#817957" stroke-width="2" stroke-linecap="round" stroke-linejoin="round" stroke-miterlimit="10" x1="1081.6" y1="319.4" x2="1054.8" y2="346.2"/>
			
				<line fill="none" stroke="#817957" stroke-width="2" stroke-linecap="round" stroke-linejoin="round" stroke-miterlimit="10" x1="1061.4" y1="319.4" x2="1034.6" y2="346.2"/>
			
				<line fill="none" stroke="#817957" stroke-width="2" stroke-linecap="round" stroke-linejoin="round" stroke-miterlimit="10" x1="1041.1" y1="319.4" x2="1034.6" y2="326"/>
		</g>
		
			<circle fill="none" stroke="#817957" stroke-width="2" stroke-linecap="round" stroke-linejoin="round" stroke-miterlimit="10" cx="1198.4" cy="332.8" r="3"/>
		
			<circle fill="none" stroke="#817957" stroke-width="2" stroke-linecap="round" stroke-linejoin="round" stroke-miterlimit="10" cx="1198.4" cy="311.6" r="3"/>
		
			<circle fill="none" stroke="#817957" stroke-width="2" stroke-linecap="round" stroke-linejoin="round" stroke-miterlimit="10" cx="1198.4" cy="354.1" r="3"/>
		
			<line fill="none" stroke="#817957" stroke-width="2" stroke-linecap="round" stroke-linejoin="round" stroke-miterlimit="10" x1="1189.6" y1="295.7" x2="1207.2" y2="264.6"/>
		
			<line fill="none" stroke="#817957" stroke-width="2" stroke-linecap="round" stroke-linejoin="round" stroke-miterlimit="10" x1="1189.6" y1="370" x2="1207.2" y2="401"/>
		
			<rect x="1020.9" y="264.6" fill="none" stroke="#817957" stroke-width="2" stroke-linecap="round" stroke-linejoin="round" stroke-miterlimit="10" width="13.7" height="136.4"/>
		
			<line fill="none" stroke="#817957" stroke-width="2" stroke-linecap="round" stroke-linejoin="round" stroke-miterlimit="10" x1="1025.6" y1="264.5" x2="1025.6" y2="401.1"/>
		
			<line fill="none" stroke="#817957" stroke-width="2" stroke-linecap="round" stroke-linejoin="round" stroke-miterlimit="10" x1="1213.6" y1="266.5" x2="1213.6" y2="401.5"/>
	</g>
	<g>
		<path fill="#F4E1A1" d="M1923.5,443v-8.8V288.9V268v-3.4c0-13.6-11-24.7-24.7-24.7l0,0h-3.4h-20.9h-15.9V236h-7v-41.1h-8.6v108.4
			h8.6v-34.9h7v-3.8h15.9l0,0h20.9l0,0h3.4v3.4v20.9v32.2v33.6v79.5v8.8h-10.1v44.9h10.1v53h24.7v-53h10.1V443H1923.5L1923.5,443z"
			/>
		<g>
			
				<rect x="1842.9" y="195" fill="none" stroke="#817957" stroke-width="2" stroke-linecap="round" stroke-linejoin="round" stroke-miterlimit="10" width="8.6" height="108.4"/>
			<g>
				
					<path fill="none" stroke="#817957" stroke-width="2" stroke-linecap="round" stroke-linejoin="round" stroke-miterlimit="10" d="
					M1898.8,264.6h-40.3v-24.7h40.3l0,0c13.6,0,24.7,11,24.7,24.7l0,0V443h-24.7V264.6z"/>
				<g>
					
						<rect x="1898.7" y="268.1" fill="none" stroke="#817957" stroke-width="2" stroke-linecap="round" stroke-linejoin="round" stroke-miterlimit="10" width="24.7" height="20.9"/>
					
						<line fill="none" stroke="#817957" stroke-width="2" stroke-linecap="round" stroke-linejoin="round" stroke-miterlimit="10" x1="1898.8" y1="281.9" x2="1923.5" y2="281.9"/>
				</g>
				<g>
					
						<rect x="1874.4" y="240" fill="none" stroke="#817957" stroke-width="2" stroke-linecap="round" stroke-linejoin="round" stroke-miterlimit="10" width="20.9" height="24.7"/>
					
						<line fill="none" stroke="#817957" stroke-width="2" stroke-linecap="round" stroke-linejoin="round" stroke-miterlimit="10" x1="1881.5" y1="239.9" x2="1881.5" y2="264.6"/>
				</g>
				
					<rect x="1851.5" y="236.1" fill="none" stroke="#817957" stroke-width="2" stroke-linecap="round" stroke-linejoin="round" stroke-miterlimit="10" width="7" height="32.5"/>
			</g>
			<g>
				
					<rect x="1888.6" y="443" fill="none" stroke="#817957" stroke-width="2" stroke-linecap="round" stroke-linejoin="round" stroke-miterlimit="10" width="44.9" height="44.9"/>
				<g>
					
						<circle fill="none" stroke="#817957" stroke-width="2" stroke-linecap="round" stroke-linejoin="round" stroke-miterlimit="10" cx="1911.1" cy="465.5" r="10.8"/>
					
						<circle fill="none" stroke="#817957" stroke-width="2" stroke-linecap="round" stroke-linejoin="round" stroke-miterlimit="10" cx="1911.1" cy="465.5" r="6.9"/>
				</g>
			</g>
			
				<rect x="1898.8" y="434.2" fill="none" stroke="#817957" stroke-width="2" stroke-linecap="round" stroke-linejoin="round" stroke-miterlimit="10" width="24.7" height="8.8"/>
			
				<rect x="1898.8" y="321" fill="none" stroke="#817957" stroke-width="2" stroke-linecap="round" stroke-linejoin="round" stroke-miterlimit="10" width="12.3" height="33.6"/>
		</g>
		
			<rect x="1898.8" y="488" fill="none" stroke="#817957" stroke-width="2" stroke-linecap="round" stroke-linejoin="round" stroke-miterlimit="10" width="24.7" height="53"/>
		
			<line fill="none" stroke="#817957" stroke-width="2" stroke-linecap="round" stroke-linejoin="round" stroke-miterlimit="10" x1="1898.8" y1="495.8" x2="1923.5" y2="495.8"/>
		
			<line fill="none" stroke="#817957" stroke-width="2" stroke-linecap="round" stroke-linejoin="round" stroke-miterlimit="10" x1="1899.6" y1="534" x2="1921.6" y2="534"/>
		
			<line fill="none" stroke="#817957" stroke-width="2" stroke-linecap="round" stroke-linejoin="round" stroke-miterlimit="10" x1="1898.9" y1="528" x2="1922.3" y2="528"/>
	</g>
	<g>
		<g>
			<rect x="1218.9" y="117" fill="#F4E1A1" width="624" height="424"/>
			
				<rect x="1218.9" y="117" fill="none" stroke="#817957" stroke-width="2" stroke-linecap="round" stroke-linejoin="round" stroke-miterlimit="10" width="624" height="424"/>
		</g>
		<g>
			<rect x="1458.4" y="552.9" fill="#F4E1A1" width="40" height="10.8"/>
			<path fill="none" stroke="#817957" stroke-width="2" stroke-linecap="round" stroke-linejoin="round" stroke-miterlimit="10" d="
				M1510.4,541v5.4c0,6.6-5.3,11.9-11.9,11.9l0,0"/>
			<path fill="none" stroke="#817957" stroke-width="2" stroke-linecap="round" stroke-linejoin="round" stroke-miterlimit="10" d="
				M1458.4,558.3L1458.4,558.3c-6.6,0-11.9-5.3-11.9-11.9V541"/>
			
				<rect x="1458.4" y="552.9" fill="none" stroke="#817957" stroke-width="2" stroke-linecap="round" stroke-linejoin="round" stroke-miterlimit="10" width="40" height="10.8"/>
			
				<line fill="none" stroke="#817957" stroke-width="2" stroke-linecap="round" stroke-linejoin="round" stroke-miterlimit="10" x1="1490.7" y1="563.7" x2="1490.7" y2="552.9"/>
			
				<line fill="none" stroke="#817957" stroke-width="2" stroke-linecap="round" stroke-linejoin="round" stroke-miterlimit="10" x1="1466.2" y1="563.7" x2="1466.2" y2="552.9"/>
		</g>
		<g>
			<rect x="1375.4" y="552.9" fill="#F4E1A1" width="40" height="10.8"/>
			<path fill="none" stroke="#817957" stroke-width="2" stroke-linecap="round" stroke-linejoin="round" stroke-miterlimit="10" d="
				M1427.3,541v5.4c0,6.6-5.3,11.9-11.9,11.9l0,0"/>
			<path fill="none" stroke="#817957" stroke-width="2" stroke-linecap="round" stroke-linejoin="round" stroke-miterlimit="10" d="
				M1375.4,558.3L1375.4,558.3c-6.6,0-11.9-5.3-11.9-11.9V541"/>
			
				<rect x="1375.4" y="552.9" fill="none" stroke="#817957" stroke-width="2" stroke-linecap="round" stroke-linejoin="round" stroke-miterlimit="10" width="40" height="10.8"/>
			
				<line fill="none" stroke="#817957" stroke-width="2" stroke-linecap="round" stroke-linejoin="round" stroke-miterlimit="10" x1="1407.6" y1="563.7" x2="1407.6" y2="552.9"/>
			
				<line fill="none" stroke="#817957" stroke-width="2" stroke-linecap="round" stroke-linejoin="round" stroke-miterlimit="10" x1="1383.2" y1="563.7" x2="1383.2" y2="552.9"/>
		</g>
		<g>
			<rect x="1592.8" y="552.9" fill="#F4E1A1" width="40" height="10.8"/>
			<path fill="none" stroke="#817957" stroke-width="2" stroke-linecap="round" stroke-linejoin="round" stroke-miterlimit="10" d="
				M1644.7,541v5.4c0,6.6-5.3,11.9-11.9,11.9l0,0"/>
			<path fill="none" stroke="#817957" stroke-width="2" stroke-linecap="round" stroke-linejoin="round" stroke-miterlimit="10" d="
				M1592.8,558.3L1592.8,558.3c-6.6,0-11.9-5.3-11.9-11.9V541"/>
			
				<rect x="1592.8" y="552.9" fill="none" stroke="#817957" stroke-width="2" stroke-linecap="round" stroke-linejoin="round" stroke-miterlimit="10" width="40" height="10.8"/>
			
				<line fill="none" stroke="#817957" stroke-width="2" stroke-linecap="round" stroke-linejoin="round" stroke-miterlimit="10" x1="1625" y1="563.7" x2="1625" y2="552.9"/>
			
				<line fill="none" stroke="#817957" stroke-width="2" stroke-linecap="round" stroke-linejoin="round" stroke-miterlimit="10" x1="1600.6" y1="563.7" x2="1600.6" y2="552.9"/>
		</g>
	</g>
</g>
<rect x="1230.1" y="173.4" fill="#F0F0F0" width="601.8" height="358.5"/>
<g id="XMLID_81_">
	<path id="XMLID_89_" fill="#3C3C3B" d="M1833.4,125.7c0-1.1-0.8-2.1-1.7-2.1h-601.1c-0.9,0-1.7,1-1.7,2.1v21.2v384.9
		c0,1.1,0.8,2.1,1.7,2.1h601.1c0.9,0,1.7-1,1.7-2.1L1833.4,125.7L1833.4,125.7z M1831.8,531.9h-601.2V147h601.1L1831.8,531.9
		L1831.8,531.9z"/>
	<ellipse id="XMLID_88_" fill="#F4E1A1" cx="1239.9" cy="135.3" rx="4.2" ry="3.9"/>
	<ellipse id="XMLID_87_" fill="#F4E1A1" cx="1251.2" cy="135.3" rx="4.2" ry="3.9"/>
	<ellipse id="XMLID_86_" fill="#F4E1A1" cx="1262.6" cy="135.3" rx="4.1" ry="3.9"/>
	<path id="XMLID_85_" fill="#F4E1A1" d="M1814.4,139.5c0,1.1-0.8,2.1-1.7,2.1h-515.4c-0.9,0-1.7-1-1.7-2.1V131
		c0-1.1,0.8-2.1,1.7-2.1h515.3c0.9,0,1.7,1,1.7,2.1L1814.4,139.5L1814.4,139.5z"/>
	<path id="XMLID_84_" fill="#F4E1A1" d="M1826.6,131.7h-1.5c-0.3,0-0.5-0.3-0.5-0.6c0-0.3,0.3-0.6,0.5-0.6h2.7
		c0.3,0,0.5,0.3,0.5,0.6l0,0v3.1c0,0.3-0.3,0.6-0.5,0.6c-0.3,0-0.5-0.3-0.5-0.6v-1.7l-4.2,4.8h1.5c0.3,0,0.5,0.3,0.5,0.6
		c0,0.3-0.3,0.6-0.5,0.6h-2.7l0,0l0,0l0,0l0,0c-0.3,0-0.4-0.2-0.4-0.5l0,0l0,0l0,0l0,0v-3.1c0-0.3,0.3-0.6,0.5-0.6s0.5,0.3,0.5,0.6
		v1.7L1826.6,131.7z"/>
	<path id="XMLID_83_" fill="#F4E1A1" d="M1279,134.5L1279,134.5L1279,134.5h-4.6l1.8-1.6c0.3-0.3,0.3-0.8,0-1.1
		c-0.3-0.3-0.8-0.3-1.2,0l-3.2,2.9l0,0l0,0l0,0l0,0c-0.3,0.3-0.3,0.8,0,1l0,0l0,0l0,0l0,0l3.2,2.9c0.3,0.3,0.8,0.3,1.2,0
		c0.3-0.4,0.3-0.8,0-1.1l-1.8-1.6h4.6l0,0l0,0c0.3,0,0.6-0.3,0.6-0.5v-0.3C1279.4,134.8,1279.3,134.5,1279,134.5z"/>
	<path id="XMLID_82_" fill="#F4E1A1" d="M1284.5,136L1284.5,136L1284.5,136h4.8l-1.9,1.6c-0.3,0.3-0.3,0.8,0,1.1
		c0.3,0.3,0.9,0.3,1.3,0l3.4-2.9l0,0l0,0l0,0l0,0c0.3-0.3,0.3-0.8,0-1l0,0l0,0l0,0l0,0l-3.4-2.9c-0.3-0.3-0.9-0.3-1.3,0
		c-0.3,0.4-0.3,0.8,0,1.1l1.9,1.6h-4.8l0,0l0,0c-0.3,0-0.6,0.3-0.6,0.5v0.6C1283.9,135.9,1284.2,136,1284.5,136z"/>
</g>
<g id="XMLID_80_">
	<g id="XMLID_222_">
		<text transform="matrix(1 0 0 1 1317.2 161.5001)" fill="#312F2C" font-family="'ArialMT'" font-size="10px">cimon-io/billet</text>
	</g>
</g>
<line id="XMLID_93_" fill="none" x1="1397" y1="155.7" x2="1400" y2="159.6"/>
<line id="XMLID_94_" fill="none" x1="1400" y1="159.6" x2="1404.5" y2="155.7"/>
<line id="XMLID_95_" fill="none" x1="1404.5" y1="155.7" x2="1397" y2="155.7"/>
<line id="XMLID_96_" fill="none" x1="1422.5" y1="190.9" x2="1423.5" y2="190.9"/>
<g id="XMLID_99_" enable-background="new    ">
	<text transform="matrix(1 0 0 1 1431.3246 161.3915)" fill="#312F2C" font-family="'ArialMT'" font-size="10px">add-cimon  </text>
	<text transform="matrix(1 0 0 1 1480.9247 161.3915)" fill="#312F2C" font-family="'ArialMT'" font-size="10px"> </text>
</g>
<ellipse id="XMLID_104_" fill="#3B8F4E" cx="1425.5" cy="158.2" rx="4.3" ry="3.9"/>
<polygon id="XMLID_1_" fill="#312F2C" points="1480.9,156.6 1485.7,156.6 1483.3,159.9 "/>
<g id="XMLID_2_" enable-background="new    ">
	<g id="XMLID_216_">
		<text transform="matrix(1 0 0 1 1531.0001 161.4999)" fill="#312F2C" font-family="'ArialMT'" font-size="10px">05dc944</text>
	</g>
</g>
<g id="XMLID_5_" enable-background="new    ">
	<g id="XMLID_217_">
		<text transform="matrix(1 0 0 1 1616.7993 161.4997)" fill="#312F2C" font-family="'ArialMT'" font-size="10px">test</text>
	</g>
</g>
<path id="XMLID_8_" fill="#312F2C" d="M1496.3,164.6L1496.3,164.6c-0.1-0.1-0.2-0.2-0.1-0.3l6.9-11.5c0.1-0.1,0.2-0.2,0.3-0.1l0,0
	c0.1,0.1,0.2,0.2,0.1,0.3l-6.9,11.5C1496.6,164.7,1496.4,164.7,1496.3,164.6z"/>
<line id="XMLID_4_" fill="none" x1="1230.5" y1="162.9" x2="1231.5" y2="162.9"/>
<line id="XMLID_6_" fill="none" x1="1228.5" y1="163.9" x2="1229.5" y2="163.9"/>
<path id="XMLID_25_" fill="#312F2C" d="M1396.4,164.4L1396.4,164.4c-0.1-0.1-0.2-0.2-0.1-0.3l6.9-11.5c0.1-0.1,0.2-0.2,0.3-0.1l0,0
	c0.1,0.1,0.2,0.2,0.1,0.3l-6.8,11.5C1396.7,164.4,1396.5,164.5,1396.4,164.4z"/>
<path id="XMLID_9_" fill="#312F2C" d="M1582.9,164.1L1582.9,164.1c-0.1-0.1-0.2-0.2-0.1-0.3l6.9-11.5c0.1-0.1,0.2-0.2,0.3-0.1l0,0
	c0.1,0.1,0.2,0.2,0.1,0.3l-6.9,11.5C1583.1,164.2,1583,164.2,1582.9,164.1z"/>
<g>
	<g>
		<path fill="#312F2C" d="M1244.8,163.1c-1.7,0-3.1-0.5-4.3-1.6c-1.2-1.1-1.8-2.4-1.8-3.9s0.6-2.8,1.8-3.9c1.2-1.1,2.6-1.6,4.3-1.6
			c1.4,0,2.6,0.4,3.7,1.1c0.2,0.2,0.3,0.4,0.4,0.6c0,0.3,0,0.5-0.2,0.7c-0.2,0.2-0.4,0.3-0.7,0.3c-0.3,0-0.5,0-0.7-0.2
			c-0.7-0.5-1.6-0.8-2.5-0.8c-1.1,0-2.1,0.4-2.9,1.1s-1.2,1.6-1.2,2.6s0.4,1.9,1.2,2.6c0.8,0.7,1.7,1.1,2.9,1.1c1.1,0,2-0.3,2.7-0.9
			c0.2-0.2,0.4-0.2,0.7-0.2c0.3,0,0.5,0.1,0.7,0.3c0.2,0.2,0.3,0.4,0.3,0.7c0,0.3-0.1,0.5-0.3,0.6
			C1247.7,162.7,1246.3,163.1,1244.8,163.1z"/>
		<path fill="#312F2C" d="M1253.1,163.1c-0.3,0-0.5-0.1-0.7-0.3c-0.2-0.2-0.3-0.4-0.3-0.6v-9.1c0-0.3,0.1-0.5,0.3-0.6
			c0.2-0.2,0.4-0.3,0.7-0.3c0.3,0,0.5,0.1,0.7,0.3c0.2,0.2,0.3,0.4,0.3,0.6v9.1c0,0.3-0.1,0.5-0.3,0.6
			C1253.6,163,1253.3,163.1,1253.1,163.1z"/>
		<path fill="#312F2C" d="M1269.1,152.1c0.2,0.1,0.4,0.2,0.5,0.3c0.1,0.2,0.2,0.3,0.2,0.5v9.2c0,0.3-0.1,0.5-0.3,0.6
			c-0.2,0.2-0.4,0.3-0.7,0.3c-0.3,0-0.5-0.1-0.7-0.3c-0.2-0.2-0.3-0.4-0.3-0.6v-6l-3.2,4.7l0,0l0,0l0,0l0,0c0,0,0,0,0,0.1l0,0l0,0
			l0,0l0,0c0,0,0,0-0.1,0l0,0c0,0,0,0-0.1,0l0,0l0,0l0,0c0,0,0,0-0.1,0l0,0c0,0,0,0-0.1,0c-0.1,0.1-0.3,0.1-0.4,0.1l0,0l0,0
			c-0.1,0-0.1,0-0.2,0l0,0l0,0c0,0,0,0-0.1,0l0,0h-0.1l0,0l0,0l0,0c0,0,0,0-0.1,0l0,0c0,0,0,0-0.1,0l0,0l0,0l0,0l0,0c0,0,0,0,0-0.1
			l0,0l0,0l0,0l0,0l-3.2-4.7v6c0,0.3-0.1,0.5-0.3,0.6c-0.2,0.2-0.4,0.3-0.7,0.3c-0.3,0-0.5-0.1-0.7-0.3c-0.2-0.2-0.3-0.4-0.3-0.6
			V153c0-0.2,0.1-0.4,0.2-0.5c0.1-0.2,0.3-0.3,0.5-0.3c0.2-0.1,0.4,0,0.6,0c0.2,0.1,0.4,0.2,0.5,0.4l4.2,6.2l4.2-6.2
			c0.1-0.2,0.3-0.3,0.5-0.4C1268.9,152.1,1269,152.1,1269.1,152.1C1269,152.1,1268.9,152.1,1269.1,152.1z"/>
		<path fill="#312F2C" d="M1278.9,163.1c-1.7,0-3.1-0.5-4.3-1.6c-1.2-1.1-1.8-2.4-1.8-3.9s0.6-2.8,1.8-3.9c1.2-1.1,2.6-1.6,4.3-1.6
			c1.7,0,3.1,0.5,4.3,1.6c1.2,1.1,1.8,2.4,1.8,3.9s-0.6,2.8-1.8,3.9C1282,162.6,1280.6,163.1,1278.9,163.1z M1278.9,153.9
			c-1.1,0-2.1,0.4-2.9,1.1c-0.8,0.7-1.2,1.6-1.2,2.6s0.4,1.9,1.2,2.6c0.8,0.7,1.8,1.1,2.9,1.1c1.1,0,2.1-0.4,2.9-1.1
			s1.2-1.6,1.2-2.6s-0.4-1.9-1.2-2.6S1280,153.9,1278.9,153.9z"/>
		<path fill="#312F2C" d="M1296.1,162.8L1296.1,162.8L1296.1,162.8l-6.1-7.1v6.5c0,0.3-0.1,0.5-0.3,0.6c-0.2,0.2-0.4,0.3-0.7,0.3
			c-0.3,0-0.5-0.1-0.7-0.3c-0.2-0.2-0.3-0.4-0.3-0.6V153c0-0.2,0.1-0.4,0.2-0.5c0.1-0.2,0.3-0.3,0.5-0.3c0.2-0.1,0.4-0.1,0.6,0
			s0.4,0.2,0.5,0.3l6.1,7.1v-6.5c0-0.3,0.1-0.5,0.3-0.6c0.2-0.2,0.4-0.3,0.7-0.3c0.3,0,0.5,0.1,0.7,0.3c0.2,0.2,0.3,0.4,0.3,0.6v9.2
			l0,0l0,0l0,0l0,0l0,0l0,0l0,0l0,0l0,0l0,0l0,0l0,0l0,0l0,0l0,0l0,0l0,0l0,0l0,0l0,0l-0.1,0.1l0,0c0,0-0.1,0-0.1,0.1l0,0h-0.1l0,0
			c-0.1,0-0.1,0-0.1,0h-0.1l0,0h-0.1l0,0h-0.1l0,0h-0.1l0,0c0,0,0,0-0.1,0l0,0c0,0,0,0-0.1,0l0,0
			C1296.2,162.9,1296.2,162.9,1296.1,162.8L1296.1,162.8L1296.1,162.8C1296.2,162.8,1296.1,162.8,1296.1,162.8L1296.1,162.8z"/>
	</g>
</g>
<ellipse id="XMLID_3_" fill="#3B8F4E" cx="1524.8" cy="158.2" rx="4.3" ry="3.9"/>
<ellipse id="XMLID_7_" fill="#3B8F4E" cx="1610.5" cy="158.2" rx="4.3" ry="3.9"/>
<polygon id="XMLID_10_" fill="#312F2C" points="1572.1,157 1576.8,157 1574.4,160.3 "/>
<polygon id="XMLID_11_" fill="#312F2C" points="1636.3,156.8 1641.1,156.8 1638.7,160.1 "/>
<ellipse fill="#F7F6F5" cx="1786.8" cy="159.3" rx="10.8" ry="10.3"/>
<g>
	<path fill="#FFF0AA" d="M1796,158.6c-0.1-0.3-0.1-0.5-0.1-0.8c-0.3-0.4-0.5-1-0.5-1.5c-0.3-0.3-0.5-0.8-0.5-1.2
		c-0.2-0.2-0.3-0.4-0.4-0.7c-0.6-0.3-1-0.8-1.2-1.5h-0.1c-1.6-1.5-3.9-2.4-6.3-2.4c-4.8,0-8.7,3.6-9.1,8.1c0,0.2,0,0.4-0.1,0.6
		c0.1,0.3,0.1,0.6,0.1,0.9c0.1,0.3-0.1,0.4-0.1,0.7l0.4,1.3c0.1,0.1,0.2,0.3,0.2,0.4c0.1,0.1,0.2,0.3,0.3,0.4
		c0.2,0.3,0.2,0.5,0.3,0.8c0,0.1,0.1,0.1,0.1,0.2s0.1,0.1,0.1,0.1l0.1,0.1c0.2,0.2,0.4,0.4,0.6,0.6s0.4,0.4,0.5,0.7
		c0.2,0.2,0.4,0.3,0.5,0.5c0.9,0.1,1.5,0.6,1.9,1.2c0.1,0,0.2,0,0.3,0c0.6,0,1,0.1,1.4,0.3l0,0c0.6,0,1.2,0.2,1.6,0.4
		c0.1,0,0.1,0,0.2,0s0.2,0,0.3,0c0.2-0.1,0.5-0.1,0.7-0.1c0.3,0,0.5,0,0.7,0.1c0.4-0.3,1-0.5,1.7-0.5c0.1,0,0.2,0,0.3,0
		c0.4-0.5,1.1-0.9,2-1c0.3-0.6,0.8-1.1,1.6-1.3c0.2-0.3,0.4-0.5,0.6-0.7c0.1-0.6,0.4-1.1,0.9-1.5c0-0.4,0.1-0.7,0.3-1
		c0-0.3,0.1-0.5,0.2-0.8c0-0.4,0.1-0.7,0.2-1.1C1795.9,159.6,1795.9,159.1,1796,158.6z"/>
	<g>
		<g>
			<g>
				<g>
					
						<ellipse fill="none" stroke="#312F2C" stroke-width="1.8" stroke-linecap="round" stroke-linejoin="round" stroke-miterlimit="10" cx="1786.9" cy="159.4" rx="8.6" ry="8.3"/>
					
						<path fill="none" stroke="#312F2C" stroke-width="1.2" stroke-linecap="round" stroke-linejoin="round" stroke-miterlimit="10" d="
						M1786.9,165.7c-3.7,0-6.6-2.9-6.6-6.4s3-6.4,6.6-6.4c3.7,0,6.6,2.9,6.6,6.4C1793.5,162.9,1790.5,165.7,1786.9,165.7z"/>
					<g>
						
							<path fill="none" stroke="#312F2C" stroke-width="0.6" stroke-linecap="round" stroke-linejoin="round" stroke-dasharray="1.173,1.173" d="
							M1786.9,162.7c-1.9,0-3.4-1.5-3.4-3.3s1.5-3.3,3.4-3.3s3.4,1.5,3.4,3.3S1788.8,162.7,1786.9,162.7z"/>
					</g>
					
						<path fill="none" stroke="#312F2C" stroke-width="1.8" stroke-linecap="round" stroke-linejoin="round" stroke-miterlimit="10" d="
						M1778.2,159.4"/>
					
						<path fill="none" stroke="#312F2C" stroke-width="1.8" stroke-linecap="round" stroke-linejoin="round" stroke-miterlimit="10" d="
						M1778.2,161.3"/>
				</g>
			</g>
		</g>
	</g>
</g>
<polygon id="XMLID_13_" fill="#312F2C" points="1381.8,156.8 1386.7,156.8 1384.3,160.1 "/>
<polygon id="XMLID_12_" fill="#312F2C" points="1799.8,156.7 1804.6,156.7 1802.2,160 "/>
<image overflow="visible" width="1274" height="1022" xlink:href="D:\Downloads\Screen Shot 2016-09-22 at 5.10.01 PM.png"  transform="matrix(0.3122 0 0 0.35 1233.6746 173.8)">
</image>
<image overflow="visible" width="748" height="454" xlink:href="D:\Downloads\Screen Shot1.png"  transform="matrix(0.264 0 0 0.2648 1632.8 176.4)">
</image>
</svg>
