<?xml version="1.0" encoding="utf-8"?>
<!-- Generator: Adobe Illustrator 19.0.0, SVG Export Plug-In . SVG Version: 6.00 Build 0)  -->
<svg version="1.1" id="Слой_1" xmlns="http://www.w3.org/2000/svg" xmlns:xlink="http://www.w3.org/1999/xlink" x="0px" y="0px"
	 viewBox="-215.2 -275.2 1489.7 711.3" style="enable-background:new -215.2 -275.2 1489.7 711.3;" xml:space="preserve">
<style type="text/css">
	.st0{fill:#F4E1A1;}
	.st1{fill:none;stroke:#817957;stroke-width:2;stroke-linecap:round;stroke-linejoin:round;stroke-miterlimit:10;}
	.st2{fill:none;stroke:#817957;stroke-linecap:round;stroke-linejoin:round;stroke-miterlimit:10;}
</style>
<g id="_x31_2">
	<g>
		<path class="st0" d="M1165.1-274.2v8.6h34.9v7h3.9v15.9l0,0v20.9l0,0v3.4h-3.4h-20.9h-32.2h-33.6h-79.5h-8.8v-10h-44.9v10.1h-8.8
			h-97.9H853h-3.4v-3.4l0,0v-20.9l0,0v-15.9h3.9v-7h17v-8.7h-59.7v8.6H821v7h3.9v15.9v20.9v3.4l0,0c0,13.6,11,24.7,24.7,24.7h3.4
			h20.9h97.9h8.8v10.1h44.9v-10h8.8h145.3h20.9h3.4l0,0c13.6,0,24.7-11,24.7-24.7l0,0v-3.4v-20.9v-15.9h3.9v-7h41.1v-8.7H1165.1z"/>
		<rect x="1165.1" y="-274.2" class="st1" width="108.4" height="8.6"/>
		<rect x="810.7" y="-274.2" class="st1" width="59.7" height="8.6"/>
		<g>
			<path class="st1" d="M849.5-218.2v-40.3h-24.7v40.3l0,0c0,13.6,11,24.7,24.7,24.7l0,0h131v-24.7H849.5z"/>
			<g>
				<rect x="852.9" y="-218.2" class="st1" width="20.9" height="24.7"/>
				<line class="st1" x1="866.8" y1="-218.2" x2="866.8" y2="-193.6"/>
			</g>
			<g>
				<rect x="824.9" y="-242.5" class="st1" width="24.7" height="20.9"/>
				<line class="st1" x1="824.9" y1="-235.5" x2="849.5" y2="-235.5"/>
			</g>
			<rect x="821" y="-265.5" class="st1" width="32.5" height="7"/>
		</g>
		<g>
			<path class="st1" d="M1203.9-218.2v-40.3h24.7v40.3l0,0c0,13.6-11,24.7-24.7,24.7l0,0h-178.4v-24.7H1203.9z"/>
			<g>
				<rect x="1179.6" y="-218.3" class="st1" width="20.9" height="24.7"/>
				<line class="st1" x1="1186.6" y1="-218.2" x2="1186.6" y2="-193.6"/>
			</g>
			<g>
				<rect x="1204" y="-242.6" class="st1" width="24.7" height="20.9"/>
				<line class="st1" x1="1228.6" y1="-235.5" x2="1203.9" y2="-235.5"/>
			</g>
			<rect x="1200" y="-265.5" class="st1" width="32.5" height="7"/>
		</g>
		<g>
			<rect x="980.5" y="-228.4" class="st1" width="44.9" height="44.9"/>
			<g>
				<circle class="st1" cx="1003" cy="-205.9" r="10.8"/>
				<circle class="st1" cx="1003" cy="-205.9" r="6.9"/>
			</g>
		</g>
		<rect x="971.7" y="-218.2" class="st1" width="8.8" height="24.7"/>
		<rect x="1025.5" y="-218.2" class="st1" width="8.8" height="24.7"/>
		<rect x="1113.8" y="-218.2" class="st1" width="33.6" height="12.3"/>
		<path class="st2" d="M1228.2-265.5c-0.4,2.5-0.8,4.9-1.1,7.4"/>
		<path class="st2" d="M1225.1-264.9c0.1,2.2,0.2,4.3,0.2,6.5"/>
		<path class="st2" d="M1222.6-265c-0.1,2.2-0.1,4.3,0.1,6.5"/>
		<path class="st2" d="M1027.6-217.7c0,7.7,0.1,15.3,0.3,23"/>
		<path class="st2" d="M978-217.9c-0.5,7.8-0.8,15.6-0.9,23.5"/>
		<path class="st2" d="M849-265c-0.2,2.4-0.6,4.7-1.2,7"/>
		<path class="st2" d="M846.5-264.8c0,2.2-0.2,4.5-0.4,6.7"/>
		<path class="st2" d="M843.4-264.7c0,1.9,0,3.9,0,5.8"/>
		<path class="st2" d="M827.1-264.9c0.1,2.2,0.1,4.3,0.1,6.5"/>
	</g>
	<g>
		<path class="st0" d="M751-274.2v8.6h16.8v7h3.9v15.9l0,0v20.9l0,0v3.4h-3.4h-20.9H412.6h-8.8H395v24.7h3.2l0,0l0,0h5.6h8.8h40.2
			h37.9h256.7h20.9h3.4c13.6,0,24.7-11,24.7-24.7v-3.4v-20.8v-15.9h3.9v-7h10.4v-8.7H751z"/>
		<rect x="751" y="-274.2" class="st1" width="59.7" height="8.6"/>
		<path class="st1" d="M394.9-218.2h376.8v-40.3h24.7v40.3c0,13.6-11,24.7-24.7,24.7H394.9"/>
		<g>
			<rect x="747.4" y="-218.3" class="st1" width="20.9" height="24.7"/>
			<line class="st1" x1="754.4" y1="-218.2" x2="754.4" y2="-193.6"/>
		</g>
		<g>
			<rect x="771.8" y="-242.6" class="st1" width="24.7" height="20.9"/>
			<line class="st1" x1="796.4" y1="-235.5" x2="771.7" y2="-235.5"/>
		</g>
		<rect x="767.8" y="-265.5" class="st1" width="32.5" height="7"/>
		<rect x="394.9" y="-218.2" class="st1" width="8.8" height="24.7"/>
		<rect x="403.8" y="-218.2" class="st1" width="8.8" height="24.7"/>
		<rect x="452.7" y="-205.9" class="st1" width="37.9" height="12.3"/>
		<path class="st2" d="M796.5-264.7c-0.1,2.3-0.2,4.7-0.3,7c0-0.1,0-0.1,0-0.2"/>
		<path class="st2" d="M793.4-265c0.1,2.2,0.2,4.3,0.3,6.5"/>
		<path class="st2" d="M791.4-265.5c-0.3,2.4-0.2,4.8,0.3,7.2"/>
		<path class="st2" d="M773.1-264.5c-0.3,2.2-0.6,4.3-0.9,6.5"/>
		<path class="st2" d="M397.4-217.9c0.1,5.7,0.1,11.5,0.2,17.2c0,2.4,0,4.8,0.6,7.2c0.1-0.2,0.2-0.5,0.1-0.7"/>
	</g>
	<g>
		<rect x="167.3" y="-218.2" class="st0" width="182.7" height="24.7"/>
		<line class="st1" x1="167.3" y1="-218.2" x2="350" y2="-218.2"/>
		<line class="st1" x1="350" y1="-193.6" x2="167.3" y2="-193.6"/>
		<rect x="341.2" y="-218.2" class="st1" width="8.8" height="24.7"/>
		<line class="st1" x1="171.5" y1="-218.1" x2="171.5" y2="-193.6"/>
		<line class="st1" x1="178.5" y1="-218.2" x2="178.5" y2="-194.1"/>
		<line class="st1" x1="183.5" y1="-217.6" x2="183.5" y2="-194.5"/>
		<path class="st2" d="M347.5-218.1c-0.3,7.9-0.6,15.8-0.9,23.7c0,0.1,0,0.3,0.1,0.4c0.1,0.1,0.3-0.1,0.2-0.2"/>
		<line class="st1" x1="167.3" y1="-218.2" x2="167.3" y2="-193.6"/>
	</g>
	<g>
		<rect x="-214.2" y="-218.2" class="st0" width="336.6" height="24.7"/>
		<line class="st1" x1="-214.2" y1="-218.2" x2="122.4" y2="-218.2"/>
		<line class="st1" x1="122.4" y1="-193.6" x2="-214.2" y2="-193.6"/>
		<line class="st1" x1="117.5" y1="-218.2" x2="117.5" y2="-193.6"/>
		<line class="st1" x1="107.5" y1="-217.6" x2="107.5" y2="-194.6"/>
		<line class="st1" x1="122.4" y1="-218.2" x2="122.4" y2="-193.6"/>
		<line class="st1" x1="-214.2" y1="-218.2" x2="-214.2" y2="-193.6"/>
	</g>
	<g>
		<polygon class="st0" points="122.4,-228.4 122.4,-183.4 128.6,-183.4 128.6,-176.4 133,-176.4 133,1.1 157.2,1.1 157.2,-176.4 
			161.1,-176.4 161.1,-183.4 167.3,-183.4 167.3,-228.4 		"/>
		<g>
			<rect x="122.4" y="-228.4" class="st1" width="44.9" height="44.9"/>
			<g>
				<circle class="st1" cx="144.8" cy="-205.9" r="10.8"/>
				<circle class="st1" cx="144.8" cy="-205.9" r="6.9"/>
			</g>
		</g>
		<g>
			<g>
				<g>
					<line class="st1" x1="132.5" y1="-153.4" x2="157.2" y2="-153.4"/>
				</g>
				<rect x="128.6" y="-183.4" class="st1" width="32.5" height="7"/>
				<line class="st1" x1="132.5" y1="1.1" x2="132.5" y2="-176.4"/>
				<line class="st1" x1="157.2" y1="1.1" x2="157.2" y2="-176.4"/>
			</g>
			<line class="st1" x1="151.7" y1="-176.4" x2="151.7" y2="-153.4"/>
			<line class="st1" x1="132.5" y1="1.1" x2="157.2" y2="1.1"/>
		</g>
		<line class="st1" x1="132.5" y1="-6.6" x2="156" y2="-6.6"/>
		<line class="st1" x1="133" y1="-12.1" x2="157" y2="-12.1"/>
		<line class="st1" x1="132.5" y1="-149.1" x2="157" y2="-149.1"/>
		<line class="st1" x1="141.5" y1="-149.1" x2="141.5" y2="-13.6"/>
	</g>
	<g>
		<polygon class="st0" points="167.3,46.1 167.3,36 176.1,36 176.1,11.3 167.3,11.3 167.3,1.1 122.4,1.1 122.4,11.3 -214.2,11.3 
			-214.2,36 104.7,36 113.5,36 122.4,36 122.4,46.1 132.5,46.1 132.5,76.2 128.6,76.2 128.6,83.2 117.9,83.2 117.9,91.9 171.7,91.9 
			171.7,83.2 161.1,83.2 161.1,76.2 157,76.2 157,46.1 		"/>
		<rect x="118" y="83.3" class="st1" width="53.8" height="8.6"/>
		<g>
			<rect x="122.4" y="1.2" class="st1" width="44.9" height="44.9"/>
			<g>
				<circle class="st1" cx="144.8" cy="23.6" r="10.8"/>
				<circle class="st1" cx="144.8" cy="23.6" r="6.9"/>
			</g>
		</g>
		<rect x="113.6" y="11.2" class="st1" width="8.8" height="24.7"/>
		<rect x="104.8" y="11.2" class="st1" width="8.8" height="24.7"/>
		<rect x="167.3" y="11.2" class="st1" width="8.8" height="24.7"/>
		<g>
			<g>
				<line class="st1" x1="157.2" y1="53.3" x2="132.5" y2="53.3"/>
			</g>
			<rect x="128.6" y="76.3" class="st1" width="32.5" height="7"/>
			<line class="st1" x1="157.2" y1="46.1" x2="157.2" y2="76.2"/>
			<line class="st1" x1="132.5" y1="46.1" x2="132.5" y2="76.2"/>
		</g>
		<line class="st1" x1="138" y1="76.2" x2="138" y2="53.3"/>
		<line class="st1" x1="104.7" y1="29.8" x2="-214.2" y2="29.8"/>
		<g>
			<line class="st1" x1="-214.2" y1="11.3" x2="104.7" y2="11.3"/>
			<line class="st1" x1="104.7" y1="36" x2="-214.2" y2="36"/>
		</g>
		<line class="st1" x1="-214.2" y1="11.3" x2="-214.2" y2="36"/>
	</g>
	<g>
		<g>
			<circle class="st0" cx="291.4" cy="-60.2" r="41.8"/>
			<polygon class="st0" points="388.8,29.7 388.8,36.4 378.9,36.4 378.9,46.3 388.8,46.3 388.8,54.1 378.9,54.1 378.9,64 388.8,64 
				388.8,74.6 433.8,74.6 433.8,29.7 			"/>
			<polygon class="st0" points="388.7,-258.5 388.7,-265.5 399.4,-265.5 399.4,-274.2 345.6,-274.2 345.6,-265.5 356.2,-265.5 
				356.2,-258.5 360.1,-258.5 360.1,-228.4 350,-228.4 350,-183.4 355.7,-183.4 355.7,-173.5 365.6,-173.5 365.6,-183.4 
				373.4,-183.4 373.4,-173.5 383.3,-173.5 383.3,-183.4 394.9,-183.4 394.9,-228.4 384.8,-228.4 384.8,-258.5 			"/>
		</g>
		<rect x="345.6" y="-274.2" class="st1" width="53.8" height="8.6"/>
		<g>
			<rect x="350" y="-228.4" class="st1" width="44.9" height="44.9"/>
			<g>
				<circle class="st1" cx="372.5" cy="-205.9" r="10.8"/>
				<circle class="st1" cx="372.5" cy="-205.9" r="6.9"/>
			</g>
		</g>
		<g>
			<g>
				<line class="st1" x1="360.1" y1="-235.5" x2="384.8" y2="-235.5"/>
			</g>
			<rect x="356.2" y="-265.5" class="st1" width="32.5" height="7"/>
			<line class="st1" x1="360.1" y1="-228.4" x2="360.1" y2="-258.5"/>
			<line class="st1" x1="384.8" y1="-228.4" x2="384.8" y2="-258.5"/>
		</g>
		<g>
			<g>
				<rect x="388.8" y="29.7" class="st1" width="44.9" height="44.9"/>
				<g>
					<circle class="st1" cx="411.3" cy="52.2" r="10.8"/>
					<circle class="st1" cx="411.3" cy="52.2" r="6.9"/>
				</g>
			</g>
			<rect x="378.9" y="36.4" class="st1" width="9.9" height="9.9"/>
			<rect x="378.9" y="54.1" class="st1" width="9.9" height="9.9"/>
		</g>
		<line class="st1" x1="379.3" y1="-258.5" x2="379.3" y2="-235.5"/>
		<circle class="st1" cx="291.4" cy="-60.2" r="27.9"/>
		<circle class="st1" cx="291.4" cy="-60.2" r="41.8"/>
		<g>
			<rect x="355.7" y="-183.4" class="st1" width="9.9" height="9.9"/>
			<rect x="373.4" y="-183.4" class="st1" width="9.9" height="9.9"/>
		</g>
		<path class="st1" d="M360.6-173.5c0.4,17.1-1.1,34.5-6.7,50.7c-6.8,19.8-20.3,37.8-40.1,46"/>
		<path class="st1" d="M303.5-20.2c5.1,15.8,14.9,30.1,27.8,40.5C344.8,31.2,361.7,39.8,379,41"/>
		<path class="st1" d="M378.5-173.5c2.2,46.7,1.9,94.8-15.3,138.3c-9.7,24.5-24.8,47.3-29.6,73.2c-1.3,7-1.5,15,3.2,20.3
			c6.3,7,17.4,5.6,26.7,3.6c5.1-1.1,10.3-2.2,15.4-3.4"/>
		<path class="st1" d="M176.1,16.6c38.8-1.4,76.2-25.7,92-61.5"/>
		<path class="st1" d="M176.1,24.1c18.4-3.1,36.7-6.9,53.3-15.6c15.3-8.1,29.1-19.7,38.1-34.4"/>
		<path class="st1" d="M176.1,31.6c25.3-3.3,50.6-9.4,72.1-22.9c22-13.8,39.6-36.3,42.7-62"/>
		<g>
			<g>
				<circle class="st1" cx="291.4" cy="-60.2" r="10.8"/>
				<circle class="st1" cx="291.4" cy="-60.2" r="6.9"/>
			</g>
		</g>
		<line class="st1" x1="427.8" y1="30.1" x2="427.8" y2="74.8"/>
		<path class="st2" d="M382.2-234.9c0,1.8,0,3.7,0,5.5"/>
		<path class="st2" d="M377.6-235.4c0.3,2.5,0.5,4.9,0.8,7.4"/>
		<path class="st2" d="M384.3-265.5c0,2.2-0.3,4.5-0.9,6.7"/>
		<path class="st2" d="M380.5-265c0.4,2.2,0.5,4.5,0.5,6.7"/>
		<path class="st2" d="M362.2-265c0.6,2.4,1,4.8,1.3,7.2"/>
		<path class="st2" d="M395-273.2c0.1,2.5,0,5-0.4,7.5"/>
		<path class="st2" d="M391.4-273.7c0.2,2.6,0.4,5.3,0.7,7.9"/>
	</g>
	<g>
		<polygon class="st0" points="422.1,136 404.5,167.1 404.5,190.8 249.5,190.8 249.5,136 235.8,136 235.8,272.4 249.5,272.4 
			249.5,217.6 404.5,217.6 404.5,241.4 422.1,272.4 433.8,272.4 433.8,136 		"/>
		<rect x="422.1" y="136" class="st1" width="11.7" height="136.4"/>
		<rect x="404.5" y="167.1" class="st1" width="17.7" height="74.3"/>
		<g>
			<rect x="249.5" y="190.8" class="st1" width="155" height="26.7"/>
			<line class="st1" x1="404.5" y1="204.2" x2="391.1" y2="217.6"/>
			<line class="st1" x1="397.6" y1="190.8" x2="370.9" y2="217.6"/>
			<line class="st1" x1="377.4" y1="190.8" x2="350.6" y2="217.6"/>
			<line class="st1" x1="357.2" y1="190.8" x2="330.4" y2="217.6"/>
			<line class="st1" x1="336.9" y1="190.8" x2="310.2" y2="217.6"/>
			<line class="st1" x1="316.7" y1="190.8" x2="290" y2="217.6"/>
			<line class="st1" x1="296.5" y1="190.8" x2="269.7" y2="217.6"/>
			<line class="st1" x1="276.3" y1="190.8" x2="249.5" y2="217.6"/>
			<line class="st1" x1="256" y1="190.8" x2="249.5" y2="197.4"/>
		</g>
		<circle class="st1" cx="413.3" cy="204.2" r="3"/>
		<circle class="st1" cx="413.3" cy="183" r="3"/>
		<circle class="st1" cx="413.3" cy="225.5" r="3"/>
		<line class="st1" x1="404.5" y1="167.1" x2="422.1" y2="136"/>
		<line class="st1" x1="404.5" y1="241.4" x2="422.1" y2="272.4"/>
		<rect x="235.8" y="136" class="st1" width="13.7" height="136.4"/>
		<line class="st1" x1="240.5" y1="135.9" x2="240.5" y2="272.5"/>
		<line class="st1" x1="428.5" y1="137.9" x2="428.5" y2="272.9"/>
	</g>
	<g>
		<path class="st0" d="M1138.4,314.4v-8.8V160.3v-20.9V136c0-13.6-11-24.7-24.7-24.7l0,0h-3.4h-20.9h-15.9v-3.9h-7V66.3h-8.6v108.4
			h8.6v-34.9h7V136h15.9l0,0h20.9l0,0h3.4v3.4v20.9v32.2v33.6v79.5v8.8h-10.1v44.9h10.1v53h24.7v-53h10.1v-44.9L1138.4,314.4
			L1138.4,314.4z"/>
		<g>
			<rect x="1057.8" y="66.4" class="st1" width="8.6" height="108.4"/>
			<g>
				<path class="st1" d="M1113.7,136h-40.3v-24.7h40.3l0,0c13.6,0,24.7,11,24.7,24.7l0,0v178.4h-24.7V136z"/>
				<g>
					<rect x="1113.6" y="139.5" class="st1" width="24.7" height="20.9"/>
					<line class="st1" x1="1113.7" y1="153.3" x2="1138.4" y2="153.3"/>
				</g>
				<g>
					<rect x="1089.3" y="111.4" class="st1" width="20.9" height="24.7"/>
					<line class="st1" x1="1096.4" y1="111.3" x2="1096.4" y2="136"/>
				</g>
				<rect x="1066.4" y="107.5" class="st1" width="7" height="32.5"/>
			</g>
			<g>
				<rect x="1103.5" y="314.4" class="st1" width="44.9" height="44.9"/>
				<g>
					<circle class="st1" cx="1126" cy="336.9" r="10.8"/>
					<circle class="st1" cx="1126" cy="336.9" r="6.9"/>
				</g>
			</g>
			<rect x="1113.7" y="305.6" class="st1" width="24.7" height="8.8"/>
			<rect x="1113.7" y="192.4" class="st1" width="12.3" height="33.6"/>
		</g>
		<rect x="1113.7" y="359.4" class="st1" width="24.7" height="53"/>
		<line class="st1" x1="1113.7" y1="367.2" x2="1138.4" y2="367.2"/>
		<line class="st1" x1="1114.5" y1="405.4" x2="1136.5" y2="405.4"/>
		<line class="st1" x1="1113.8" y1="399.4" x2="1137.2" y2="399.4"/>
	</g>
	<g>
		<g>
			<rect x="433.8" y="-11.6" class="st0" width="624" height="424"/>
			<rect x="433.8" y="-11.6" class="st1" width="624" height="424"/>
			<rect x="445.8" y="0.4" class="st1" width="600" height="400"/>
		</g>
		<g>
			<rect x="673.3" y="424.3" class="st0" width="40" height="10.8"/>
			<path class="st1" d="M725.3,412.4v5.4c0,6.6-5.3,11.9-11.9,11.9l0,0"/>
			<path class="st1" d="M673.3,429.7L673.3,429.7c-6.6,0-11.9-5.3-11.9-11.9v-5.4"/>
			<rect x="673.3" y="424.3" class="st1" width="40" height="10.8"/>
			<line class="st1" x1="705.6" y1="435.1" x2="705.6" y2="424.3"/>
			<line class="st1" x1="681.1" y1="435.1" x2="681.1" y2="424.3"/>
		</g>
		<g>
			<rect x="590.3" y="424.3" class="st0" width="40" height="10.8"/>
			<path class="st1" d="M642.2,412.4v5.4c0,6.6-5.3,11.9-11.9,11.9l0,0"/>
			<path class="st1" d="M590.3,429.7L590.3,429.7c-6.6,0-11.9-5.3-11.9-11.9v-5.4"/>
			<rect x="590.3" y="424.3" class="st1" width="40" height="10.8"/>
			<line class="st1" x1="622.5" y1="435.1" x2="622.5" y2="424.3"/>
			<line class="st1" x1="598.1" y1="435.1" x2="598.1" y2="424.3"/>
		</g>
		<g>
			<rect x="807.7" y="424.3" class="st0" width="40" height="10.8"/>
			<path class="st1" d="M859.6,412.4v5.4c0,6.6-5.3,11.9-11.9,11.9l0,0"/>
			<path class="st1" d="M807.7,429.7L807.7,429.7c-6.6,0-11.9-5.3-11.9-11.9v-5.4"/>
			<rect x="807.7" y="424.3" class="st1" width="40" height="10.8"/>
			<line class="st1" x1="839.9" y1="435.1" x2="839.9" y2="424.3"/>
			<line class="st1" x1="815.5" y1="435.1" x2="815.5" y2="424.3"/>
		</g>
	</g>
</g>
</svg>
