<?xml version="1.0" encoding="utf-8"?>
<!-- Generator: Adobe Illustrator 20.1.0, SVG Export Plug-In . SVG Version: 6.00 Build 0)  -->
<svg version="1.1" id="Слой_1" xmlns="http://www.w3.org/2000/svg" xmlns:xlink="http://www.w3.org/1999/xlink" x="0px" y="0px"
	 viewBox="0 0 1488 710" style="enable-background:new 0 0 1488 710;" xml:space="preserve">
<style type="text/css">
	.st0{fill:#F4E1A1;}
	.st1{fill:none;stroke:#817957;stroke-width:2;stroke-linecap:round;stroke-linejoin:round;stroke-miterlimit:10;}
	.st2{fill:none;stroke:#817957;stroke-linecap:round;stroke-linejoin:round;stroke-miterlimit:10;}
</style>
<g id="_x31_2">
	<g>
		<path class="st0" d="M1380.1,0.8v8.6h34.9v7h3.9v15.9h0v20.9h0v3.4h-3.4h-20.9h-32.2h-33.6h-79.5h-8.8V46.6h-44.9v10.1h-8.8h-97.9
			h-20.9h-3.4v-3.4h0V32.4h0V16.5h3.9v-7h17V0.8h-59.7v8.6h10.2v7h3.9v15.9v20.9v3.4v0c0,13.6,11,24.7,24.7,24.7h3.4h20.9h97.9h8.8
			v10.1h44.9V81.4h8.8h145.3h20.9h3.4l0,0c13.6,0,24.7-11,24.7-24.7v0v-3.4V32.4V16.5h3.9v-7h41.1V0.8H1380.1z"/>
		<rect x="1380.1" y="0.8" class="st1" width="108.4" height="8.6"/>
		<rect x="1025.7" y="0.8" class="st1" width="59.7" height="8.6"/>
		<g>
			<path class="st1" d="M1064.5,56.8V16.5h-24.7v40.3v0c0,13.6,11,24.7,24.7,24.7l0,0h131V56.8H1064.5z"/>
			<g>
				<rect x="1067.9" y="56.8" class="st1" width="20.9" height="24.7"/>
				<line class="st1" x1="1081.8" y1="56.8" x2="1081.8" y2="81.4"/>
			</g>
			<g>
				
					<rect x="1041.7" y="30.6" transform="matrix(4.456619e-11 -1 1 4.456619e-11 1009.3011 1095.067)" class="st1" width="20.9" height="24.7"/>
				<line class="st1" x1="1039.9" y1="39.5" x2="1064.5" y2="39.5"/>
			</g>
			<rect x="1036" y="9.5" class="st1" width="32.5" height="7"/>
		</g>
		<g>
			<path class="st1" d="M1418.9,56.8V16.5h24.7v40.3v0c0,13.6-11,24.7-24.7,24.7l0,0h-178.4V56.8H1418.9z"/>
			<g>
				
					<rect x="1394.6" y="56.8" transform="matrix(-1 -4.452273e-11 4.452273e-11 -1 2810.0671 138.1815)" class="st1" width="20.9" height="24.7"/>
				<line class="st1" x1="1401.6" y1="56.8" x2="1401.6" y2="81.4"/>
			</g>
			<g>
				
					<rect x="1420.8" y="30.6" transform="matrix(6.123234e-17 -1 1 6.123234e-17 1388.3584 1474.1243)" class="st1" width="20.9" height="24.7"/>
				<line class="st1" x1="1443.6" y1="39.5" x2="1418.9" y2="39.5"/>
			</g>
			
				<rect x="1415" y="9.5" transform="matrix(-1 -4.496771e-11 4.496771e-11 -1 2862.4827 25.9538)" class="st1" width="32.5" height="7"/>
		</g>
		<g>
			<rect x="1195.5" y="46.6" class="st1" width="44.9" height="44.9"/>
			<g>
				<circle class="st1" cx="1218" cy="69.1" r="10.8"/>
				<circle class="st1" cx="1218" cy="69.1" r="6.9"/>
			</g>
		</g>
		<rect x="1186.7" y="56.8" class="st1" width="8.8" height="24.7"/>
		<rect x="1240.5" y="56.8" class="st1" width="8.8" height="24.7"/>
		<rect x="1328.8" y="56.8" class="st1" width="33.6" height="12.3"/>
		<path class="st2" d="M1443.2,9.5c-0.4,2.5-0.8,4.9-1.1,7.4"/>
		<path class="st2" d="M1440.1,10.1c0.1,2.2,0.2,4.3,0.2,6.5"/>
		<path class="st2" d="M1437.6,10c-0.1,2.2-0.1,4.3,0.1,6.5"/>
		<path class="st2" d="M1242.6,57.3c0,7.7,0.1,15.3,0.3,23"/>
		<path class="st2" d="M1193,57.1c-0.5,7.8-0.8,15.6-0.9,23.5"/>
		<path class="st2" d="M1064,10c-0.2,2.4-0.6,4.7-1.2,7"/>
		<path class="st2" d="M1061.5,10.2c0,2.2-0.2,4.5-0.4,6.7"/>
		<path class="st2" d="M1058.4,10.3c0,1.9,0,3.9,0,5.8"/>
		<path class="st2" d="M1042.1,10.1c0.1,2.2,0.1,4.3,0.1,6.5"/>
	</g>
	<g>
		<path class="st0" d="M966,0.8v8.6h16.8v7h3.9v15.9h0v20.9h0v3.4h-3.4h-20.9H627.6h-8.8h-8.8v24.7h3.2c0,0,0,0,0,0c0,0,0,0,0,0h5.6
			h8.8h40.2h37.9h256.7h20.9h3.4c13.6,0,24.7-11,24.7-24.7v-3.4V32.4V16.5h3.9v-7h10.4V0.8H966z"/>
		<rect x="966" y="0.8" class="st1" width="59.7" height="8.6"/>
		<path class="st1" d="M609.9,56.8h376.8V16.5h24.7v40.3c0,13.6-11,24.7-24.7,24.7H609.9"/>
		<g>
			
				<rect x="962.4" y="56.8" transform="matrix(-1 -4.452273e-11 4.452273e-11 -1 1945.6696 138.1815)" class="st1" width="20.9" height="24.7"/>
			<line class="st1" x1="969.4" y1="56.8" x2="969.4" y2="81.4"/>
		</g>
		<g>
			
				<rect x="988.6" y="30.6" transform="matrix(6.123234e-17 -1 1 6.123234e-17 956.1595 1041.9254)" class="st1" width="20.9" height="24.7"/>
			<line class="st1" x1="1011.4" y1="39.5" x2="986.7" y2="39.5"/>
		</g>
		
			<rect x="982.8" y="9.5" transform="matrix(-1 -4.496771e-11 4.496771e-11 -1 1998.085 25.9538)" class="st1" width="32.5" height="7"/>
		<rect x="609.9" y="56.8" class="st1" width="8.8" height="24.7"/>
		<rect x="618.8" y="56.8" class="st1" width="8.8" height="24.7"/>
		<rect x="667.7" y="69.1" class="st1" width="37.9" height="12.3"/>
		<path class="st2" d="M1011.5,10.3c-0.1,2.3-0.2,4.7-0.3,7c0-0.1,0-0.1,0-0.2"/>
		<path class="st2" d="M1008.4,10c0.1,2.2,0.2,4.3,0.3,6.5"/>
		<path class="st2" d="M1006.4,9.5c-0.3,2.4-0.2,4.8,0.3,7.2"/>
		<path class="st2" d="M988.1,10.5c-0.3,2.2-0.6,4.3-0.9,6.5"/>
		<path class="st2" d="M612.4,57.1c0.1,5.7,0.1,11.5,0.2,17.2c0,2.4,0,4.8,0.6,7.2c0.1-0.2,0.2-0.5,0.1-0.7"/>
	</g>
	<g>
		<rect x="382.3" y="56.8" class="st0" width="182.7" height="24.7"/>
		<line class="st1" x1="382.3" y1="56.8" x2="565" y2="56.8"/>
		<line class="st1" x1="565" y1="81.4" x2="382.3" y2="81.4"/>
		<rect x="556.2" y="56.8" class="st1" width="8.8" height="24.7"/>
		<line class="st1" x1="386.5" y1="56.9" x2="386.5" y2="81.4"/>
		<line class="st1" x1="393.5" y1="56.8" x2="393.5" y2="80.9"/>
		<line class="st1" x1="398.5" y1="57.4" x2="398.5" y2="80.5"/>
		<path class="st2" d="M562.5,56.9c-0.3,7.9-0.6,15.8-0.9,23.7c0,0.1,0,0.3,0.1,0.4s0.3-0.1,0.2-0.2"/>
		<line class="st1" x1="382.3" y1="56.8" x2="382.3" y2="81.4"/>
	</g>
	<g>
		<rect x="0.8" y="56.8" class="st0" width="336.6" height="24.7"/>
		<line class="st1" x1="0.8" y1="56.8" x2="337.4" y2="56.8"/>
		<line class="st1" x1="337.4" y1="81.4" x2="0.8" y2="81.4"/>
		<line class="st1" x1="332.5" y1="56.8" x2="332.5" y2="81.4"/>
		<line class="st1" x1="322.5" y1="57.4" x2="322.5" y2="80.4"/>
		<line class="st1" x1="337.4" y1="56.8" x2="337.4" y2="81.4"/>
		<line class="st1" x1="0.8" y1="56.8" x2="0.8" y2="81.4"/>
	</g>
	<g>
		<polygon class="st0" points="337.4,46.6 337.4,91.6 343.6,91.6 343.6,98.6 348,98.6 348,276.1 372.2,276.1 372.2,98.6 376.1,98.6 
			376.1,91.6 382.3,91.6 382.3,46.6 		"/>
		<g>
			<rect x="337.4" y="46.6" class="st1" width="44.9" height="44.9"/>
			<g>
				<circle class="st1" cx="359.8" cy="69.1" r="10.8"/>
				<circle class="st1" cx="359.8" cy="69.1" r="6.9"/>
			</g>
		</g>
		<g>
			<g>
				<g>
					<line class="st1" x1="347.5" y1="121.6" x2="372.2" y2="121.6"/>
				</g>
				<rect x="343.6" y="91.6" class="st1" width="32.5" height="7"/>
				<line class="st1" x1="347.5" y1="276.1" x2="347.5" y2="98.6"/>
				<line class="st1" x1="372.2" y1="276.1" x2="372.2" y2="98.6"/>
			</g>
			<line class="st1" x1="366.7" y1="98.6" x2="366.7" y2="121.6"/>
			<line class="st1" x1="347.5" y1="276.1" x2="372.2" y2="276.1"/>
		</g>
		<line class="st1" x1="347.5" y1="268.4" x2="371" y2="268.4"/>
		<line class="st1" x1="348" y1="262.9" x2="372" y2="262.9"/>
		<line class="st1" x1="347.5" y1="125.9" x2="372" y2="125.9"/>
		<line class="st1" x1="356.5" y1="125.9" x2="356.5" y2="261.4"/>
	</g>
	<g>
		<polygon class="st0" points="382.3,321.1 382.3,311 391.1,311 391.1,286.3 382.3,286.3 382.3,276.1 337.4,276.1 337.4,286.3 
			0.8,286.3 0.8,311 319.7,311 328.5,311 337.4,311 337.4,321.1 347.5,321.1 347.5,351.2 343.6,351.2 343.6,358.2 332.9,358.2 
			332.9,366.9 386.7,366.9 386.7,358.2 376.1,358.2 376.1,351.2 372,351.2 372,321.1 		"/>
		
			<rect x="332.9" y="358.2" transform="matrix(-1 8.965705e-11 -8.965705e-11 -1 719.6603 725.1069)" class="st1" width="53.8" height="8.6"/>
		<g>
			
				<rect x="337.4" y="276.1" transform="matrix(-1 8.988753e-11 -8.988753e-11 -1 719.6603 597.2388)" class="st1" width="44.9" height="44.9"/>
			<g>
				<circle class="st1" cx="359.8" cy="298.6" r="10.8"/>
				<circle class="st1" cx="359.8" cy="298.6" r="6.9"/>
			</g>
		</g>
		
			<rect x="328.5" y="286.3" transform="matrix(-1 8.951272e-11 -8.951272e-11 -1 665.8962 597.2388)" class="st1" width="8.8" height="24.7"/>
		
			<rect x="319.7" y="286.3" transform="matrix(-1 8.961575e-11 -8.961575e-11 -1 648.2576 597.2388)" class="st1" width="8.8" height="24.7"/>
		
			<rect x="382.3" y="286.3" transform="matrix(-1 8.961575e-11 -8.961575e-11 -1 773.4243 597.2388)" class="st1" width="8.8" height="24.7"/>
		<g>
			<g>
				<line class="st1" x1="372.2" y1="328.3" x2="347.5" y2="328.3"/>
			</g>
			
				<rect x="343.6" y="351.2" transform="matrix(-1 8.993549e-11 -8.993549e-11 -1 719.6603 709.4665)" class="st1" width="32.5" height="7"/>
			<line class="st1" x1="372.2" y1="321.1" x2="372.2" y2="351.2"/>
			<line class="st1" x1="347.5" y1="321.1" x2="347.5" y2="351.2"/>
		</g>
		<line class="st1" x1="353" y1="351.2" x2="353" y2="328.3"/>
		<line class="st1" x1="319.7" y1="304.8" x2="0.8" y2="304.8"/>
		<g>
			<line class="st1" x1="0.8" y1="286.3" x2="319.7" y2="286.3"/>
			<line class="st1" x1="319.7" y1="311" x2="0.8" y2="311"/>
		</g>
		<line class="st1" x1="0.8" y1="286.3" x2="0.8" y2="311"/>
	</g>
	<g>
		<g>
			<circle class="st0" cx="506.4" cy="214.8" r="41.8"/>
			<polygon class="st0" points="603.8,304.7 603.8,311.4 593.9,311.4 593.9,321.3 603.8,321.3 603.8,329.1 593.9,329.1 593.9,339 
				603.8,339 603.8,349.6 648.8,349.6 648.8,304.7 			"/>
			<polygon class="st0" points="603.7,16.5 603.7,9.5 614.4,9.5 614.4,0.8 560.6,0.8 560.6,9.5 571.2,9.5 571.2,16.5 575.1,16.5 
				575.1,46.6 565,46.6 565,91.6 570.7,91.6 570.7,101.5 580.6,101.5 580.6,91.6 588.4,91.6 588.4,101.5 598.3,101.5 598.3,91.6 
				609.9,91.6 609.9,46.6 599.8,46.6 599.8,16.5 			"/>
		</g>
		<rect x="560.6" y="0.8" class="st1" width="53.8" height="8.6"/>
		<g>
			<rect x="565" y="46.6" class="st1" width="44.9" height="44.9"/>
			<g>
				<circle class="st1" cx="587.5" cy="69.1" r="10.8"/>
				<circle class="st1" cx="587.5" cy="69.1" r="6.9"/>
			</g>
		</g>
		<g>
			<g>
				<line class="st1" x1="575.1" y1="39.5" x2="599.8" y2="39.5"/>
			</g>
			<rect x="571.2" y="9.5" class="st1" width="32.5" height="7"/>
			<line class="st1" x1="575.1" y1="46.6" x2="575.1" y2="16.5"/>
			<line class="st1" x1="599.8" y1="46.6" x2="599.8" y2="16.5"/>
		</g>
		<g>
			<g>
				<rect x="603.8" y="304.7" class="st1" width="44.9" height="44.9"/>
				<g>
					<circle class="st1" cx="626.3" cy="327.2" r="10.8"/>
					<circle class="st1" cx="626.3" cy="327.2" r="6.9"/>
				</g>
			</g>
			<rect x="593.9" y="311.4" class="st1" width="9.9" height="9.9"/>
			<rect x="593.9" y="329.1" class="st1" width="9.9" height="9.9"/>
		</g>
		<line class="st1" x1="594.3" y1="16.5" x2="594.3" y2="39.5"/>
		<circle class="st1" cx="506.4" cy="214.8" r="27.9"/>
		<circle class="st1" cx="506.4" cy="214.8" r="41.8"/>
		<g>
			
				<rect x="570.7" y="91.6" transform="matrix(4.432017e-11 -1 1 4.432017e-11 479.1248 672.1832)" class="st1" width="9.9" height="9.9"/>
			
				<rect x="588.4" y="91.6" transform="matrix(4.432017e-11 -1 1 4.432017e-11 496.7925 689.851)" class="st1" width="9.9" height="9.9"/>
		</g>
		<path class="st1" d="M575.6,101.5c0.4,17.1-1.1,34.5-6.7,50.7c-6.8,19.8-20.3,37.8-40.1,46"/>
		<path class="st1" d="M518.5,254.8c5.1,15.8,14.9,30.1,27.8,40.5c13.5,10.9,30.4,19.5,47.7,20.7"/>
		<path class="st1" d="M593.5,101.5c2.2,46.7,1.9,94.8-15.3,138.3c-9.7,24.5-24.8,47.3-29.6,73.2c-1.3,7-1.5,15,3.2,20.3
			c6.3,7,17.4,5.6,26.7,3.6c5.1-1.1,10.3-2.2,15.4-3.4"/>
		<path class="st1" d="M391.1,291.6c38.8-1.4,76.2-25.7,92-61.5"/>
		<path class="st1" d="M391.1,299.1c18.4-3.1,36.7-6.9,53.3-15.6c15.3-8.1,29.1-19.7,38.1-34.4"/>
		<path class="st1" d="M391.1,306.6c25.3-3.3,50.6-9.4,72.1-22.9c22-13.8,39.6-36.3,42.7-62"/>
		<g>
			<g>
				<circle class="st1" cx="506.4" cy="214.8" r="10.8"/>
				<circle class="st1" cx="506.4" cy="214.8" r="6.9"/>
			</g>
		</g>
		<line class="st1" x1="642.8" y1="305.1" x2="642.8" y2="349.8"/>
		<path class="st2" d="M597.2,40.1c0,1.8,0,3.7,0,5.5"/>
		<path class="st2" d="M592.6,39.6c0.3,2.5,0.5,4.9,0.8,7.4"/>
		<path class="st2" d="M599.3,9.5c0,2.2-0.3,4.5-0.9,6.7"/>
		<path class="st2" d="M595.5,10c0.4,2.2,0.5,4.5,0.5,6.7"/>
		<path class="st2" d="M577.2,10c0.6,2.4,1,4.8,1.3,7.2"/>
		<path class="st2" d="M610,1.8c0.1,2.5,0,5-0.4,7.5"/>
		<path class="st2" d="M606.4,1.3c0.2,2.6,0.4,5.3,0.7,7.9"/>
	</g>
	<g>
		<polygon class="st0" points="637.1,411 619.5,442.1 619.5,465.8 464.5,465.8 464.5,411 450.8,411 450.8,547.4 464.5,547.4 
			464.5,492.6 619.5,492.6 619.5,516.4 637.1,547.4 648.8,547.4 648.8,411 		"/>
		<rect x="637.1" y="411" class="st1" width="11.7" height="136.4"/>
		<rect x="619.5" y="442.1" class="st1" width="17.7" height="74.3"/>
		<g>
			<rect x="464.5" y="465.8" class="st1" width="155" height="26.7"/>
			<line class="st1" x1="619.5" y1="479.2" x2="606.1" y2="492.6"/>
			<line class="st1" x1="612.6" y1="465.8" x2="585.9" y2="492.6"/>
			<line class="st1" x1="592.4" y1="465.8" x2="565.6" y2="492.6"/>
			<line class="st1" x1="572.2" y1="465.8" x2="545.4" y2="492.6"/>
			<line class="st1" x1="551.9" y1="465.8" x2="525.2" y2="492.6"/>
			<line class="st1" x1="531.7" y1="465.8" x2="505" y2="492.6"/>
			<line class="st1" x1="511.5" y1="465.8" x2="484.7" y2="492.6"/>
			<line class="st1" x1="491.3" y1="465.8" x2="464.5" y2="492.6"/>
			<line class="st1" x1="471" y1="465.8" x2="464.5" y2="472.4"/>
		</g>
		<circle class="st1" cx="628.3" cy="479.2" r="3"/>
		<circle class="st1" cx="628.3" cy="458" r="3"/>
		<circle class="st1" cx="628.3" cy="500.5" r="3"/>
		<line class="st1" x1="619.5" y1="442.1" x2="637.1" y2="411"/>
		<line class="st1" x1="619.5" y1="516.4" x2="637.1" y2="547.4"/>
		<rect x="450.8" y="411" class="st1" width="13.7" height="136.4"/>
		<line class="st1" x1="455.5" y1="410.9" x2="455.5" y2="547.5"/>
		<line class="st1" x1="643.5" y1="412.9" x2="643.5" y2="547.9"/>
	</g>
	<g>
		<path class="st0" d="M1353.4,589.4v-8.8V435.3v-20.9V411c0-13.6-11-24.7-24.7-24.7h0h-3.4h-20.9h-15.9v-3.9h-7v-41.1h-8.6v108.4
			h8.6v-34.9h7V411h15.9l0,0h20.9l0,0h3.4v3.4v20.9v32.2v33.6v79.5v8.8h-10.1v44.9h10.1v53h24.7v-53h10.1v-44.9H1353.4z"/>
		<g>
			
				<rect x="1222.9" y="391.3" transform="matrix(4.500229e-11 -1 1 4.500229e-11 881.5217 1672.6566)" class="st1" width="108.4" height="8.6"/>
			<g>
				<path class="st1" d="M1328.7,411h-40.3v-24.7h40.3h0c13.6,0,24.7,11,24.7,24.7l0,0v178.4h-24.7V411z"/>
				<g>
					
						<rect x="1330.6" y="412.6" transform="matrix(-8.948060e-11 1 -1 -8.948060e-11 1765.9066 -916.1398)" class="st1" width="20.9" height="24.7"/>
					<line class="st1" x1="1328.7" y1="428.3" x2="1353.4" y2="428.3"/>
				</g>
				<g>
					
						<rect x="1304.4" y="386.3" transform="matrix(-1 -4.491442e-11 4.491442e-11 -1 2629.6309 797.3514)" class="st1" width="20.9" height="24.7"/>
					<line class="st1" x1="1311.4" y1="386.3" x2="1311.4" y2="411"/>
				</g>
				
					<rect x="1268.7" y="395.2" transform="matrix(-9.027197e-11 1 -1 -9.027197e-11 1683.5851 -886.2336)" class="st1" width="32.5" height="7"/>
			</g>
			<g>
				
					<rect x="1318.6" y="589.4" transform="matrix(4.472162e-11 -1 1 4.472162e-11 729.1193 1952.9271)" class="st1" width="44.9" height="44.9"/>
				<g>
					<circle class="st1" cx="1341" cy="611.9" r="10.8"/>
					<circle class="st1" cx="1341" cy="611.9" r="6.9"/>
				</g>
			</g>
			
				<rect x="1336.6" y="572.7" transform="matrix(4.537532e-11 -1 1 4.537532e-11 756.0013 1926.045)" class="st1" width="8.8" height="24.7"/>
			
				<rect x="1318.1" y="478.1" transform="matrix(4.468698e-11 -1 1 4.468698e-11 850.5689 1819.1466)" class="st1" width="33.6" height="12.3"/>
		</g>
		<rect x="1328.7" y="634.4" class="st1" width="24.7" height="53"/>
		<line class="st1" x1="1328.7" y1="642.2" x2="1353.4" y2="642.2"/>
		<line class="st1" x1="1329.5" y1="680.4" x2="1351.5" y2="680.4"/>
		<line class="st1" x1="1328.8" y1="674.4" x2="1352.2" y2="674.4"/>
	</g>
	<g>
		<g>
			
				<rect x="748.8" y="163.4" transform="matrix(-1.836970e-16 1 -1 -1.836970e-16 1436.1881 -485.3705)" class="st0" width="424" height="624"/>
			
				<rect x="748.8" y="163.4" transform="matrix(-1.836970e-16 1 -1 -1.836970e-16 1436.1881 -485.3705)" class="st1" width="424" height="624"/>
			<rect x="660.8" y="275.4" class="st1" width="600" height="400"/>
		</g>
		<g>
			
				<rect x="903" y="684.7" transform="matrix(-1.343425e-10 1 -1 -1.343425e-10 1613.0424 -203.679)" class="st0" width="10.8" height="40"/>
			<path class="st1" d="M940.3,687.4v5.4c0,6.6-5.3,11.9-11.9,11.9l0,0"/>
			<path class="st1" d="M888.3,704.7L888.3,704.7c-6.6,0-11.9-5.3-11.9-11.9v-5.4"/>
			
				<rect x="903" y="684.7" transform="matrix(-1.343425e-10 1 -1 -1.343425e-10 1613.0424 -203.679)" class="st1" width="10.8" height="40"/>
			<line class="st1" x1="920.6" y1="710.1" x2="920.6" y2="699.3"/>
			<line class="st1" x1="896.1" y1="710.1" x2="896.1" y2="699.3"/>
		</g>
		<g>
			
				<rect x="819.9" y="684.7" transform="matrix(-1.353550e-10 1 -1 -1.353550e-10 1529.9816 -120.6182)" class="st0" width="10.8" height="40"/>
			<path class="st1" d="M857.2,687.4v5.4c0,6.6-5.3,11.9-11.9,11.9l0,0"/>
			<path class="st1" d="M805.3,704.7L805.3,704.7c-6.6,0-11.9-5.3-11.9-11.9v-5.4"/>
			
				<rect x="819.9" y="684.7" transform="matrix(-1.353550e-10 1 -1 -1.353550e-10 1529.9816 -120.6182)" class="st1" width="10.8" height="40"/>
			<line class="st1" x1="837.5" y1="710.1" x2="837.5" y2="699.3"/>
			<line class="st1" x1="813.1" y1="710.1" x2="813.1" y2="699.3"/>
		</g>
		<g>
			
				<rect x="1037.3" y="684.7" transform="matrix(3.311481e-09 1 -1 3.311481e-09 1747.3767 -338.0132)" class="st0" width="10.8" height="40"/>
			<path class="st1" d="M1074.6,687.4v5.4c0,6.6-5.3,11.9-11.9,11.9h0"/>
			<path class="st1" d="M1022.7,704.7L1022.7,704.7c-6.6,0-11.9-5.3-11.9-11.9v-5.4"/>
			
				<rect x="1037.3" y="684.7" transform="matrix(3.311481e-09 1 -1 3.311481e-09 1747.3767 -338.0132)" class="st1" width="10.8" height="40"/>
			<line class="st1" x1="1054.9" y1="710.1" x2="1054.9" y2="699.3"/>
			<line class="st1" x1="1030.5" y1="710.1" x2="1030.5" y2="699.3"/>
		</g>
	</g>
</g>
</svg>
