<?xml version="1.0" encoding="utf-8"?>
<!-- Generator: Adobe Illustrator 20.1.0, SVG Export Plug-In . SVG Version: 6.00 Build 0)  -->
<svg version="1.1" id="Слой_1" xmlns="http://www.w3.org/2000/svg" xmlns:xlink="http://www.w3.org/1999/xlink" x="0px" y="0px"
	 viewBox="0 0 770.3 850.3" style="enable-background:new 0 0 770.3 850.3;" xml:space="preserve">
<style type="text/css">
	.st0{fill:#F4E1A1;}
	.st1{fill:none;stroke:#817957;stroke-width:2;stroke-linecap:round;stroke-linejoin:round;stroke-miterlimit:10;}
	.st2{fill:none;stroke:#817957;stroke-linecap:round;stroke-linejoin:round;stroke-miterlimit:10;}
</style>
<g id="_x31_4">
	<g>
		<g>
			<path class="st0" d="M425.1,1h-10.9c0,3,2.5,5.5,5.5,5.5C422.7,6.5,425.1,4,425.1,1z"/>
			<path class="st0" d="M473.3,1c0,3,2.5,5.5,5.5,5.5c3,0,5.5-2.5,5.5-5.5H473.3z"/>
			<path class="st0" d="M461.5,125.6h10.1V80.7h-10.1V19h3.9v-7h3V1h-38.5v10.9h3v7h3.9v61.7h-10.1v6.7H425c0-0.1,0-0.2,0-0.3l0,0.3
				h-8.2v9.9h5.1c0,0.1,0,0.1,0,0.2c0.1-0.1,0.1-0.1,0.1-0.2h1.7c0,0,0,0,0,0l0,0h3v7.7h-2.1c0,0,0,0,0,0l0,0h-7.9v9.9h9.9v10.7
				h10.1v600.3h-17.4v12H479v-12h-17.4V125.6z"/>
		</g>
		<g>
			<g>
				<rect x="426.7" y="80.7" class="st1" width="44.9" height="44.9"/>
				<g>
					<circle class="st1" cx="449.2" cy="103.1" r="10.8"/>
					<circle class="st1" cx="449.2" cy="103.1" r="6.9"/>
				</g>
			</g>
			<rect x="416.8" y="87.4" class="st1" width="9.9" height="9.9"/>
			<rect x="416.8" y="105" class="st1" width="9.9" height="9.9"/>
			<path class="st1" d="M416.8,92.1c-14,0.3-28.2-4.3-38.6-13.6c-7.9-7-13.4-16.8-15.2-27.1"/>
			<path class="st1" d="M416.8,110.4c-15.3-2.5-29.3-12.5-36.5-26.2c-5.2-10-6.8-21.7-4.7-32.8"/>
			<path class="st2" d="M425,87c0,3.4-0.1,6.8-0.2,10.2"/>
			<path class="st2" d="M422.8,87.6c0.1,3.3,0.4,6.5,1,9.7"/>
			<path class="st2" d="M421.5,87.8c-0.1,3.2,0,6.5,0.4,9.7c0.1-0.1,0.1-0.3,0.1-0.4"/>
			<path class="st2" d="M424.7,105c0.1,3.3-0.1,6.6-0.4,9.9"/>
			<path class="st2" d="M423.2,105.4c-0.2,3.1-0.3,6.2-0.3,9.2"/>
			<path class="st2" d="M420.8,105.1c0.6,2,1.2,4,1.9,6"/>
		</g>
		<g>
			<g>
				
					<rect x="443.7" y="-12.8" transform="matrix(4.570015e-11 1 -1 4.570015e-11 455.6799 -442.734)" class="st1" width="10.9" height="38.5"/>
				<path class="st1" d="M425.1,1c0,3-2.5,5.5-5.5,5.5S414.2,4,414.2,1"/>
				<path class="st1" d="M484.2,1c0,3-2.5,5.5-5.5,5.5S473.3,4,473.3,1"/>
			</g>
			<g>
				<g>
					<line class="st1" x1="436.9" y1="73.3" x2="461.5" y2="73.3"/>
				</g>
				<rect x="433" y="11.9" class="st1" width="32.5" height="7"/>
				<line class="st1" x1="436.9" y1="80.5" x2="436.9" y2="19"/>
				<line class="st1" x1="461.5" y1="80.5" x2="461.5" y2="19"/>
			</g>
			<line class="st1" x1="455.4" y1="19" x2="455.4" y2="73.3"/>
			<path class="st2" d="M464.4,1.4c-0.1,3.3-0.3,6.6-0.7,9.9c0,0.1,0,0.2,0.1,0.3c0.1,0.1,0.2-0.1,0.1-0.1"/>
			<path class="st2" d="M462.3,1.8c-0.1,3.4-0.1,6.8,0,10.2c0-0.2,0-0.4,0.1-0.6"/>
			<path class="st2" d="M457.3,1.4c0.1,0.5,0.1,1.1,0.2,1.6c0.3,2.3,0.6,4.7,0.5,7.1c0,0.6,0,1.2,0.3,1.6"/>
			<path class="st2" d="M434.1,1.2c0,3.3-0.1,6.7-0.1,10c0,0.2,0.1,0.4,0.3,0.4"/>
			<path class="st2" d="M460,11.8c0,2.5-0.2,4.9-0.6,7.4c0-0.1,0-0.2,0.1-0.3"/>
			<path class="st2" d="M457,11.8c0.1,2.3,0.3,4.7,0.5,7"/>
			<path class="st2" d="M458.1,73.2c0.1,2.4,0,4.8-0.3,7.2c0-0.1,0-0.2,0.1-0.3"/>
			<line class="st1" x1="414.2" y1="1" x2="484.2" y2="1"/>
			<line class="st1" x1="436.9" y1="80.5" x2="461.5" y2="80.5"/>
		</g>
		<g>
			<line class="st1" x1="455.4" y1="125.6" x2="455.4" y2="725.9"/>
			<g>
				<line class="st1" x1="436.9" y1="725.9" x2="436.9" y2="125.6"/>
				<line class="st1" x1="461.5" y1="125.6" x2="461.5" y2="725.9"/>
			</g>
			<rect x="419.5" y="725.9" class="st1" width="59.5" height="12"/>
			<line class="st1" x1="419.5" y1="733" x2="479" y2="733"/>
			<line class="st1" x1="437.5" y1="131.5" x2="455.4" y2="131.5"/>
			<line class="st2" x1="420" y1="730.3" x2="478.3" y2="730.3"/>
			<line class="st1" x1="436.9" y1="125.6" x2="461.5" y2="125.6"/>
		</g>
	</g>
	<g>
		<rect x="2" y="737.9" class="st0" width="507" height="24.2"/>
		<rect x="1" y="737.9" class="st1" width="508.2" height="24.2"/>
		<line class="st1" x1="1" y1="746" x2="509.3" y2="746"/>
		<line class="st2" x1="491" y1="746.3" x2="491" y2="761"/>
		<line class="st2" x1="494" y1="737.6" x2="494" y2="761"/>
		<line class="st2" x1="496" y1="738.6" x2="496" y2="761"/>
		<line class="st2" x1="2" y1="751" x2="491" y2="751"/>
	</g>
	<g>
		<g>
			<polygon class="st0" points="461.5,841.9 461.5,780.1 465.4,780.1 465.4,773.1 468.5,773.1 468.5,762.1 429.9,762.1 429.9,773.1 
				433,773.1 433,780.1 436.9,780.1 436.9,841.9 335.8,841.9 335.8,762.1 297,762.1 297,841.9 281.4,841.9 281.4,849.3 509,849.3 
				509,841.9 			"/>
			<path class="st0" d="M419.6,767.6c3,0,5.5-2.5,5.5-5.5h-10.9C414.2,765.2,416.6,767.6,419.6,767.6z"/>
			<path class="st0" d="M478.8,767.6c3,0,5.5-2.5,5.5-5.5h-10.9C473.3,765.2,475.7,767.6,478.8,767.6z"/>
		</g>
		<rect x="281.4" y="841.9" class="st1" width="227.6" height="7.4"/>
		<g>
			<line class="st1" x1="297.3" y1="841.6" x2="297.3" y2="762.1"/>
			<line class="st1" x1="335.8" y1="762.1" x2="335.8" y2="841.6"/>
			<line class="st1" x1="297.3" y1="768" x2="335.6" y2="768"/>
			<line class="st1" x1="297.5" y1="772" x2="334.8" y2="772"/>
			<line class="st1" x1="297.3" y1="782.5" x2="335.8" y2="782.5"/>
			<line class="st2" x1="300.3" y1="762" x2="300.3" y2="767.3"/>
			<line class="st2" x1="302.3" y1="763" x2="302.3" y2="767.6"/>
			<line class="st2" x1="330" y1="762.6" x2="330" y2="767.3"/>
			<line class="st2" x1="326.7" y1="762.6" x2="326.7" y2="768"/>
			<line class="st2" x1="328.3" y1="772" x2="328.3" y2="782.1"/>
			<line class="st1" x1="297.3" y1="762.1" x2="335.8" y2="762.1"/>
		</g>
		<g>
			<g>
				<g>
					
						<rect x="443.7" y="748.3" transform="matrix(4.570015e-11 1 -1 4.570015e-11 1216.8196 318.4057)" class="st1" width="10.9" height="38.5"/>
					<path class="st1" d="M425.1,762.1c0,3-2.5,5.5-5.5,5.5s-5.5-2.5-5.5-5.5"/>
					<path class="st1" d="M484.2,762.1c0,3-2.5,5.5-5.5,5.5s-5.5-2.5-5.5-5.5"/>
				</g>
				<g>
					<g>
						<line class="st1" x1="436.9" y1="834.5" x2="461.5" y2="834.5"/>
					</g>
					<rect x="433" y="773.1" class="st1" width="32.5" height="7"/>
					<line class="st1" x1="436.9" y1="841.6" x2="436.9" y2="780.1"/>
					<line class="st1" x1="461.5" y1="841.6" x2="461.5" y2="780.1"/>
				</g>
				<line class="st1" x1="455.4" y1="780.1" x2="455.4" y2="834.5"/>
			</g>
			<line class="st2" x1="437.3" y1="783.3" x2="455.4" y2="783.3"/>
			<line class="st2" x1="430" y1="765.6" x2="467" y2="765.6"/>
			<line class="st1" x1="414.2" y1="762.1" x2="484.2" y2="762.1"/>
		</g>
	</g>
	<g>
		<g>
			<path class="st1" d="M364,638.5h5.4c6.6,0,11.9,5.3,11.9,11.9l0,0"/>
			<path class="st1" d="M381.3,690.4L381.3,690.4c0,6.6-5.3,11.9-11.9,11.9H364"/>
			<rect x="375.9" y="650.4" class="st0" width="10.8" height="40"/>
			<rect x="375.9" y="650.4" class="st1" width="10.8" height="40"/>
			<line class="st1" x1="386.7" y1="658.2" x2="375.9" y2="658.2"/>
			<line class="st1" x1="386.7" y1="682.7" x2="375.9" y2="682.7"/>
		</g>
		<g>
			<g>
				<rect x="375.9" y="571.8" class="st0" width="10.8" height="40"/>
				<path class="st1" d="M364,559.9h5.4c6.6,0,11.9,5.3,11.9,11.9l0,0"/>
				<path class="st1" d="M381.3,611.8L381.3,611.8c0,6.6-5.3,11.9-11.9,11.9H364"/>
				<rect x="375.9" y="571.8" class="st1" width="10.8" height="40"/>
				<line class="st1" x1="386.7" y1="579.6" x2="375.9" y2="579.6"/>
				<line class="st1" x1="386.7" y1="604.1" x2="375.9" y2="604.1"/>
			</g>
			<line class="st2" x1="383" y1="580.3" x2="383" y2="603"/>
		</g>
		<g>
			<polygon class="st0" points="269.9,342.1 269.9,737.9 297.3,737.9 335.8,737.9 363.2,737.9 363.2,342.1 			"/>
			<path class="st1" d="M297.3,737.9v-97.2c0-10.6,8.6-19.3,19.3-19.3c10.6,0,19.3,8.6,19.3,19.3v97.2"/>
			<path class="st1" d="M335.8,659.4c4.7-4.8,7.5-11.4,7.5-18.6c0-14.8-12-26.8-26.8-26.8c-14.8,0-26.8,12-26.8,26.8
				c0,7.2,2.9,13.8,7.5,18.6"/>
			<path class="st1" d="M335.8,667.5c8.3-6,13.7-15.7,13.7-26.7c0-18.2-14.8-33-33-33c-18.2,0-33,14.8-33,33
				c0,11,5.4,20.7,13.7,26.7"/>
			<rect x="269.9" y="342.1" class="st1" width="93.3" height="395.8"/>
			<g>
				<g>
					<circle class="st1" cx="316.5" cy="452" r="10.8"/>
					<circle class="st1" cx="316.5" cy="452" r="6.9"/>
				</g>
				<g>
					<circle class="st1" cx="316.5" cy="398" r="10.8"/>
					<circle class="st1" cx="316.5" cy="398" r="6.9"/>
				</g>
				<g>
					<circle class="st1" cx="316.5" cy="425" r="10.8"/>
					<circle class="st1" cx="316.5" cy="425" r="6.9"/>
				</g>
			</g>
			<line class="st1" x1="269.9" y1="492.6" x2="363.2" y2="492.6"/>
			<line class="st1" x1="269.9" y1="516.4" x2="363.2" y2="516.4"/>
			<line class="st1" x1="269.9" y1="529.7" x2="363.2" y2="529.7"/>
			<line class="st1" x1="269.9" y1="361.9" x2="363.2" y2="361.9"/>
			<g>
				<line class="st1" x1="292" y1="552.2" x2="341" y2="552.2"/>
				<line class="st1" x1="292" y1="557.8" x2="341" y2="557.8"/>
				<line class="st1" x1="292" y1="563.4" x2="341" y2="563.4"/>
				<line class="st1" x1="292" y1="569" x2="341" y2="569"/>
				<line class="st1" x1="292" y1="574.6" x2="341" y2="574.6"/>
				<line class="st1" x1="292" y1="580.3" x2="341" y2="580.3"/>
				<line class="st1" x1="292" y1="585.9" x2="341" y2="585.9"/>
				<line class="st1" x1="292" y1="591.5" x2="341" y2="591.5"/>
			</g>
			<line class="st1" x1="351.3" y1="361.9" x2="351.3" y2="491.8"/>
			<line class="st1" x1="344.7" y1="342.1" x2="344.7" y2="361"/>
			<line class="st1" x1="338.7" y1="342.1" x2="338.7" y2="360.3"/>
			<line class="st1" x1="282.7" y1="343" x2="282.7" y2="361"/>
			<line class="st1" x1="288.7" y1="343" x2="288.7" y2="361.7"/>
			<line class="st1" x1="304" y1="343" x2="304" y2="361"/>
			<line class="st1" x1="322.7" y1="342.1" x2="322.7" y2="361.6"/>
			<line class="st1" x1="355.7" y1="343" x2="355.7" y2="361"/>
			<line class="st2" x1="355.7" y1="360" x2="355.7" y2="491.6"/>
			<line class="st2" x1="354" y1="517" x2="354" y2="530.3"/>
			<line class="st2" x1="349" y1="517.3" x2="349" y2="529.3"/>
			<line class="st2" x1="274.7" y1="516.6" x2="274.7" y2="528.6"/>
			<line class="st2" x1="277.3" y1="517.3" x2="277.3" y2="528.3"/>
			<line class="st2" x1="283.3" y1="516.6" x2="283.3" y2="530"/>
			<path class="st2" d="M319.2,431c0.4,1.3,1.2,2.4,2.2,3.2"/>
			<path class="st2" d="M322.3,428.1c1,0.5,2,0.8,3.1,1.1"/>
			<path class="st2" d="M323.7,422.9c0.9-0.4,1.8-0.9,2.7-1.3"/>
			<path class="st2" d="M321.7,415.6c-0.1,1.4-0.6,2.8-1.4,4"/>
			<path class="st2" d="M312.6,415c0.5,1.2,1.2,2.3,2.1,3.3"/>
			<path class="st2" d="M307.3,420c1.2,0.5,2.5,1.1,3.7,1.6"/>
			<path class="st2" d="M310,425.6c-1,1-2,2-3,3"/>
			<path class="st2" d="M312.3,430.6c-0.7,0.9-1.1,1.9-1.2,3.1"/>
			<path class="st2" d="M315.8,432.3c-0.1,1-0.1,2.1-0.2,3.1c0,0.3,0,0.6,0.3,0.7s0.3-0.5,0.1-0.4"/>
			<path class="st2" d="M336.3,660c0.7,1.6,2,2.8,3.7,3.4"/>
			<path class="st2" d="M337,658.2c1.8,1,3.5,2.1,5.3,3.1"/>
			<path class="st2" d="M339.3,654.6c1.6,1.6,3.5,2.7,5.6,3.4"/>
			<path class="st2" d="M341,652c1.7,1.3,3.6,2.4,5.7,3"/>
			<path class="st2" d="M296.2,659.2c-1.2,1.4-2.3,2.9-3.2,4.4"/>
			<path class="st2" d="M295,657.3c-1.7,0.8-3.2,2.1-4.3,3.7"/>
			<path class="st2" d="M293.3,654.9c-1.7,1.3-3.3,2.7-5,4"/>
			<line class="st2" x1="297" y1="735" x2="334.7" y2="735"/>
			<line class="st2" x1="297.3" y1="730.3" x2="334.7" y2="730.3"/>
			<line class="st2" x1="297" y1="728.3" x2="335.4" y2="728.3"/>
		</g>
		<g>
			<g>
				<rect x="363.2" y="384.8" class="st0" width="10.9" height="45.2"/>
				<rect x="374.1" y="393.9" class="st0" width="9.9" height="9.9"/>
				<rect x="374.1" y="411.9" class="st0" width="9.9" height="9.9"/>
			</g>
			<g>
				<g>
					<polyline class="st1" points="363.2,430 374.1,430 374.1,384.8 363.2,384.8 					"/>
					<rect x="374.1" y="393.9" class="st1" width="9.9" height="9.9"/>
					<rect x="374.1" y="411.9" class="st1" width="9.9" height="9.9"/>
				</g>
			</g>
			<path class="st1" d="M384.1,399.8c17.5,2.4,35.4,2.1,52.8-0.7"/>
			<path class="st1" d="M461.5,393.2c1.8-0.6,3.6-1.2,5.4-1.8c23-8.1,44.1-20.9,64.7-34c42.3-26.7,83.8-54.7,127.1-79.9
				c34.3-20,71.4-38.5,110.6-41.3"/>
			<path class="st1" d="M384.1,418.6c27.8,3.8,56.4,0.9,82.9-8.4c23-8.1,44.1-20.9,64.7-34c42.3-26.7,83.8-54.7,127.1-79.9
				c34.3-20,71.4-38.5,110.5-41.3"/>
			<line class="st1" x1="367" y1="385.5" x2="367" y2="429.5"/>
			<line class="st1" x1="378" y1="395" x2="378" y2="403.5"/>
			<line class="st1" x1="378.5" y1="413" x2="378.5" y2="421"/>
			<line class="st2" x1="370.3" y1="385.6" x2="370.3" y2="429"/>
			<line class="st1" x1="363.2" y1="384.8" x2="363.2" y2="430"/>
		</g>
	</g>
	<g>
		<g>
			<g>
				<path class="st0" d="M224.4,273.5c0,10.3,8.4,18.7,18.7,18.7s18.7-8.4,18.7-18.7v-10h-37.4V273.5z"/>
				<polygon class="st0" points="436.9,187.4 375.5,187.4 375.5,179.6 357.5,179.6 357.5,187.4 224.4,187.4 224.4,193.6 
					235.2,193.6 235.2,234.8 230.4,234.8 230.4,238.9 228.3,238.9 228.3,254.8 224.4,254.8 224.4,263.4 261.8,263.4 261.8,254.8 
					257.8,254.8 257.8,238.9 255.8,238.9 255.8,234.8 251,234.8 251,193.6 357.5,193.6 357.5,213.9 375.5,213.9 375.5,193.6 
					436.9,193.6 				"/>
			</g>
			<line class="st1" x1="436.9" y1="187.4" x2="375.5" y2="187.4"/>
			<line class="st1" x1="357.5" y1="187.4" x2="224.4" y2="187.4"/>
			<line class="st1" x1="436.9" y1="193.6" x2="375.5" y2="193.6"/>
			<line class="st1" x1="357.5" y1="193.6" x2="224.4" y2="193.6"/>
			<rect x="357.5" y="179.6" class="st1" width="18" height="34.3"/>
			<g>
				<path class="st1" d="M224.4,263.4v10c0,10.3,8.4,18.7,18.7,18.7h0c10.3,0,18.7-8.4,18.7-18.7v-10"/>
				
					<rect x="224.4" y="254.8" transform="matrix(-1 -1.360429e-10 1.360429e-10 -1 486.1697 518.2056)" class="st1" width="37.4" height="8.7"/>
				<path class="st1" d="M239.5,263.4v14.7c0,2,1.6,3.5,3.5,3.5l0,0c2,0,3.5-1.6,3.5-3.5v-14.7"/>
				<rect x="228.3" y="238.9" class="st1" width="29.5" height="15.8"/>
				
					<rect x="233.1" y="232.1" transform="matrix(4.397133e-11 -1 1 4.397133e-11 -1.6663 472.061)" class="st1" width="4.1" height="9.6"/>
				
					<rect x="248.9" y="232.1" transform="matrix(4.885720e-11 -1 1 4.885720e-11 14.1087 487.836)" class="st1" width="4.1" height="9.6"/>
			</g>
			<line class="st1" x1="224.4" y1="187.4" x2="224.4" y2="193.6"/>
			<line class="st1" x1="235.2" y1="234.8" x2="235.2" y2="193.6"/>
			<line class="st1" x1="251" y1="234.8" x2="251" y2="193.6"/>
			<line class="st1" x1="235.2" y1="200" x2="251" y2="200"/>
			<line class="st1" x1="235.2" y1="204" x2="251" y2="204"/>
			<path class="st1" d="M231.9,234.8c-1.5-1.2-3-2.4-4.4-3.8c-2.6-2.6-4.5-6.4-3.3-9.8c1.6-4.4,7.2-5.6,11.9-5.8
				c11.4-0.5,22.8,0.9,34.2,1.3c29.8,1.1,59.9-4.7,87.2-16.8"/>
			<path class="st1" d="M248.6,234.8c-2.7-5.5-1.9-12.9,1.8-18c5.1-6.9,14.1-10,22.7-10.3c8.6-0.2,17.1,1.9,25.5,3.6
				c19.5,3.9,40.7,4.7,58.8-3"/>
			<path class="st1" d="M375.5,201.1c19.1,9.5,40.1,15.1,61.4,16.4"/>
			<path class="st1" d="M375.5,206.1c8.3,1.8,15.7,7.3,23.1,11.8c11.5,7,25,12.2,38.3,12.1"/>
			<line class="st1" x1="229" y1="250.5" x2="257" y2="250.5"/>
			<line class="st1" x1="353" y1="187.4" x2="353" y2="193.6"/>
			<line class="st1" x1="348" y1="187.5" x2="348" y2="192.5"/>
			<line class="st1" x1="381.5" y1="187.4" x2="381.5" y2="193.5"/>
			<line class="st1" x1="358.7" y1="183" x2="374.6" y2="183"/>
			<line class="st2" x1="239.3" y1="204.3" x2="239.3" y2="234"/>
			<line class="st2" x1="253.3" y1="239" x2="253.3" y2="250.6"/>
			<line class="st2" x1="249.7" y1="240" x2="249.7" y2="251"/>
			<line class="st2" x1="233" y1="239.6" x2="233" y2="250"/>
			<line class="st2" x1="254.3" y1="255.3" x2="254.3" y2="263.7"/>
			<line class="st2" x1="250" y1="255.3" x2="250" y2="263.3"/>
			<line class="st2" x1="357.7" y1="187.3" x2="374.3" y2="187.3"/>
			<line class="st2" x1="357.3" y1="211.3" x2="375" y2="211.3"/>
			<line class="st2" x1="432.7" y1="187.6" x2="432.7" y2="192.6"/>
			<line class="st2" x1="429.7" y1="187.6" x2="429.7" y2="192.3"/>
			<line class="st1" x1="436.9" y1="187.4" x2="436.9" y2="193.6"/>
		</g>
		<g>
			<polygon class="st0" points="767,187.4 661.4,187.4 661.4,179.6 643.4,179.6 643.4,187.4 518.4,187.4 518.4,179.6 500.4,179.6 
				500.4,187.4 461.5,187.4 461.5,193.6 500.4,193.6 500.4,213.9 518.4,213.9 518.4,193.6 643.4,193.6 643.4,213.9 661.4,213.9 
				661.4,193.6 767,193.6 			"/>
			<line class="st1" x1="767" y1="187.4" x2="661.4" y2="187.4"/>
			<line class="st1" x1="643.4" y1="187.4" x2="518.4" y2="187.4"/>
			<line class="st1" x1="500.4" y1="187.4" x2="461.5" y2="187.4"/>
			<line class="st1" x1="767" y1="193.6" x2="661.4" y2="193.6"/>
			<line class="st1" x1="643.4" y1="193.6" x2="518.4" y2="193.6"/>
			<line class="st1" x1="500.4" y1="193.6" x2="461.5" y2="193.6"/>
			<rect x="500.4" y="179.6" class="st1" width="18" height="34.3"/>
			<rect x="643.4" y="179.6" class="st1" width="18" height="34.3"/>
			<path class="st1" d="M461.5,216.9c13.8-1.5,27.4-5.3,38.9-12.6"/>
			<path class="st1" d="M461.5,222.7c13.4-8.2,24.4-21.2,38.9-26.7"/>
			<path class="st1" d="M518.4,199.6c38.1,20.5,86.3,21,124.9,1.5"/>
			<path class="st1" d="M518.4,208.6c8,2.2,15.6,6.8,23.1,10.6c14,7.1,29.5,11.7,45.2,12.3c15.7,0.5,31.7-3.2,44.9-11.8
				c4-2.6,7.8-5.7,11.8-8.4"/>
			<path class="st1" d="M661.4,201.5c18.4,4.9,36.3,11.9,55.1,14.5c17.7,2.4,35.9,0.9,52.8-4.7"/>
			<path class="st1" d="M661.4,208.1c19.1,5,37.5,12.9,56.9,16.7c17,3.3,36,2.6,50.9-5.3"/>
			<path class="st1" d="M661.4,210.5c15.6,13.1,32.5,24.9,51.6,31.7c18,6.4,38.5,7.9,56.3,1.8"/>
			<line class="st1" x1="495" y1="187.5" x2="495" y2="193.6"/>
			<line class="st1" x1="501" y1="183.6" x2="518.4" y2="183.6"/>
			<line class="st2" x1="501" y1="210.6" x2="517.7" y2="210.6"/>
			<line class="st2" x1="500.7" y1="207.6" x2="518.3" y2="207.6"/>
			<line class="st2" x1="644.3" y1="184" x2="660.4" y2="184"/>
			<line class="st2" x1="643.7" y1="186.3" x2="660.7" y2="186.3"/>
			<line class="st2" x1="643.7" y1="209.3" x2="661.4" y2="209.3"/>
			<line class="st2" x1="644" y1="200.3" x2="661.3" y2="200.3"/>
			<line class="st2" x1="521.3" y1="188.3" x2="521.3" y2="194.3"/>
			<line class="st2" x1="524.3" y1="188" x2="524.3" y2="193.6"/>
			<line class="st2" x1="665" y1="187.6" x2="665" y2="193"/>
			<line class="st2" x1="669.7" y1="187.6" x2="669.7" y2="193.6"/>
			<line class="st2" x1="464.7" y1="188.3" x2="464.7" y2="193.3"/>
			<line class="st2" x1="468" y1="188.3" x2="468" y2="193.3"/>
			<line class="st1" x1="461.5" y1="187.4" x2="461.5" y2="193.6"/>
			<line class="st1" x1="767" y1="187.4" x2="767" y2="193.6"/>
		</g>
	</g>
</g>
</svg>
