<?xml version="1.0" encoding="utf-8"?>
<!-- Generator: Adobe Illustrator 20.1.0, SVG Export Plug-In . SVG Version: 6.00 Build 0)  -->
<svg version="1.1" id="Слой_1" xmlns="http://www.w3.org/2000/svg" xmlns:xlink="http://www.w3.org/1999/xlink" x="0px" y="0px"
	 viewBox="0 0 452 325.8" style="enable-background:new 0 0 452 325.8;" xml:space="preserve">
<style type="text/css">
	.st0{fill:#F4E1A1;}
	.st1{fill:none;stroke:#817957;stroke-width:2;stroke-linecap:round;stroke-linejoin:round;stroke-miterlimit:10;}
</style>
<g id="_x30_9">
	<g>
		<g>
			<rect x="249.3" y="196.5" class="st0" width="10.9" height="45.2"/>
			<rect x="239.4" y="222.7" class="st0" width="9.9" height="9.9"/>
			<rect x="239.4" y="204.7" class="st0" width="9.9" height="9.9"/>
		</g>
		<g>
			<g>
				<polyline class="st1" points="260.3,196.5 249.3,196.5 249.3,241.8 260.3,241.8 				"/>
				
					<rect x="239.4" y="222.7" transform="matrix(-1 8.973787e-11 -8.973787e-11 -1 488.695 455.411)" class="st1" width="9.9" height="9.9"/>
				
					<rect x="239.4" y="204.7" transform="matrix(-1 8.973787e-11 -8.973787e-11 -1 488.695 419.4215)" class="st1" width="9.9" height="9.9"/>
			</g>
		</g>
		<path class="st1" d="M1,1c19.2,2.8,37.9,9.1,54.8,18.5"/>
		<path class="st1" d="M88.7,44.2c27.5,27.3,43.7,63.6,64.7,96.1c20.5,31.7,49,62.1,86,68.9"/>
		<path class="st1" d="M1,77c26.5,3.9,51.7,18.1,72.6,35.4c27.8,23,50.4,51.6,77.5,75.4c24.9,21.9,55.5,38.1,88.2,39.8"/>
		<line class="st1" x1="246.1" y1="205" x2="246.1" y2="213"/>
		<line class="st1" x1="244.7" y1="223.3" x2="244.7" y2="232.4"/>
		<line class="st1" x1="260.3" y1="196.5" x2="260.3" y2="241.8"/>
	</g>
	<g>
		<rect x="260.3" y="100.1" class="st0" width="190.8" height="224.7"/>
		<rect x="260.3" y="100.1" class="st1" width="190.8" height="224.7"/>
		<g>
			<path class="st1" d="M332.2,171.6c8.3,7.8,8.3,20.5,0,28.3c-8.3,7.8-21.7,7.8-30,0c-8.3-7.8-8.3-20.5,0-28.3
				C310.4,163.8,323.9,163.8,332.2,171.6z"/>
			<path class="st1" d="M334.9,185.8h-35.5c0-9.3,8-16.8,17.8-16.8S334.9,176.5,334.9,185.8z"/>
			<path class="st1" d="M334.4,157.6l-6.4,6.1c-6.8-3-14.8-3-21.6,0l-6.4-6.1l-12.6,11.9l6.4,6.1c-3.2,6.5-3.2,14,0,20.4l-6.4,6.1
				l12.6,11.9l6.4-6.1c6.8,3,14.8,3,21.6,0l6.4,6.1l12.6-11.9l-6.4-6.1c3.2-6.5,3.2-14,0-20.4l6.4-6.1L334.4,157.6z"/>
			<path class="st1" d="M299.5,202.4c0.9,0.8,0.9,2.2,0,3c-0.9,0.8-2.3,0.8-3.2,0s-0.9-2.2,0-3S298.7,201.6,299.5,202.4z"/>
			<path class="st1" d="M299.5,166.1c0.9,0.8,0.9,2.2,0,3c-0.9,0.8-2.3,0.8-3.2,0c-0.9-0.8-0.9-2.2,0-3
				C297.3,165.3,298.7,165.3,299.5,166.1z"/>
			<path class="st1" d="M338,202.4c0.9,0.8,0.9,2.2,0,3c-0.9,0.8-2.3,0.8-3.2,0s-0.9-2.2,0-3S337.1,201.6,338,202.4z"/>
			<path class="st1" d="M338,166.1c0.9,0.8,0.9,2.2,0,3c-0.9,0.8-2.3,0.8-3.2,0c-0.9-0.8-0.9-2.2,0-3
				C335.7,165.3,337.1,165.3,338,166.1z"/>
			<line class="st1" x1="317.2" y1="185.8" x2="314.2" y2="175.3"/>
			<line class="st1" x1="299.4" y1="185.8" x2="334.9" y2="185.8"/>
		</g>
		<g>
			<path class="st1" d="M409.2,171.6c8.3,7.8,8.3,20.5,0,28.3c-8.3,7.8-21.7,7.8-30,0c-8.3-7.8-8.3-20.5,0-28.3
				C387.5,163.8,400.9,163.8,409.2,171.6z"/>
			<path class="st1" d="M412,185.8h-35.5c0-9.3,8-16.8,17.8-16.8S412,176.5,412,185.8z"/>
			<path class="st1" d="M411.5,157.6l-6.4,6.1c-6.8-3-14.8-3-21.6,0l-6.4-6.1l-12.6,11.9l6.4,6.1c-3.2,6.5-3.2,14,0,20.4l-6.4,6.1
				l12.6,11.9l6.4-6.1c6.8,3,14.8,3,21.6,0l6.4,6.1l12.6-11.9l-6.4-6.1c3.2-6.5,3.2-14,0-20.4l6.4-6.1L411.5,157.6z"/>
			<path class="st1" d="M376.6,202.4c0.9,0.8,0.9,2.2,0,3c-0.9,0.8-2.3,0.8-3.2,0s-0.9-2.2,0-3S375.7,201.6,376.6,202.4z"/>
			<path class="st1" d="M376.6,166.1c0.9,0.8,0.9,2.2,0,3c-0.9,0.8-2.3,0.8-3.2,0c-0.9-0.8-0.9-2.2,0-3
				C374.3,165.3,375.7,165.3,376.6,166.1z"/>
			<path class="st1" d="M415,202.4c0.9,0.8,0.9,2.2,0,3c-0.9,0.8-2.3,0.8-3.2,0s-0.9-2.2,0-3S414.1,201.6,415,202.4z"/>
			<path class="st1" d="M415,166.1c0.9,0.8,0.9,2.2,0,3c-0.9,0.8-2.3,0.8-3.2,0c-0.9-0.8-0.9-2.2,0-3
				C412.7,165.3,414.1,165.3,415,166.1z"/>
			<line class="st1" x1="394.2" y1="185.8" x2="386.9" y2="177.4"/>
			<line class="st1" x1="376.4" y1="185.8" x2="412" y2="185.8"/>
		</g>
		<g>
			<rect x="287.3" y="119.6" class="st1" width="135.8" height="18.2"/>
			<line class="st1" x1="415.1" y1="119.7" x2="415.1" y2="137.7"/>
			<line class="st1" x1="408.4" y1="121" x2="408.4" y2="136.4"/>
			<line class="st1" x1="385.1" y1="120.3" x2="385.1" y2="137.8"/>
			<line class="st1" x1="361.1" y1="119.7" x2="361.1" y2="137"/>
			<line class="st1" x1="355.7" y1="119.7" x2="355.7" y2="136.3"/>
			<line class="st1" x1="343.7" y1="120.3" x2="343.7" y2="137.8"/>
			<line class="st1" x1="318.4" y1="120.3" x2="318.4" y2="137.8"/>
			<line class="st1" x1="314.4" y1="119.6" x2="314.4" y2="137.8"/>
			<line class="st1" x1="295.7" y1="120.3" x2="295.7" y2="137.8"/>
		</g>
		<g>
			<g>
				<line class="st1" x1="292.4" y1="233.7" x2="292.4" y2="249.6"/>
				<line class="st1" x1="292.4" y1="264.2" x2="292.4" y2="294.7"/>
				<rect x="287.4" y="249.6" class="st1" width="17" height="14.6"/>
				<line class="st1" x1="300.2" y1="249.4" x2="300.2" y2="264.3"/>
				<line class="st1" x1="295.7" y1="249.9" x2="295.7" y2="263.6"/>
			</g>
			<g>
				<line class="st1" x1="322.4" y1="233.7" x2="322.4" y2="257.8"/>
				<line class="st1" x1="322.4" y1="272.4" x2="322.4" y2="294.7"/>
				<rect x="317.3" y="257.8" class="st1" width="17" height="14.6"/>
				<line class="st1" x1="329.5" y1="258.2" x2="329.5" y2="272"/>
			</g>
			<g>
				<line class="st1" x1="352.3" y1="233.7" x2="352.3" y2="265.1"/>
				<line class="st1" x1="352.3" y1="279.7" x2="352.3" y2="294.7"/>
				<rect x="347.2" y="265.1" class="st1" width="17" height="14.6"/>
				<line class="st1" x1="359.7" y1="265.7" x2="359.7" y2="279"/>
				<line class="st1" x1="355.5" y1="265.7" x2="355.5" y2="278.5"/>
			</g>
			<g>
				<line class="st1" x1="382.2" y1="233.7" x2="382.2" y2="241.6"/>
				<line class="st1" x1="382.2" y1="256.2" x2="382.2" y2="294.7"/>
				<rect x="377.2" y="241.6" class="st1" width="17" height="14.6"/>
				<line class="st1" x1="390" y1="241.7" x2="390" y2="255.3"/>
				<line class="st1" x1="384.5" y1="242.4" x2="384.5" y2="255.2"/>
			</g>
			<g>
				<line class="st1" x1="412.1" y1="233.7" x2="412.1" y2="253.6"/>
				<line class="st1" x1="412.1" y1="268.2" x2="412.1" y2="294.7"/>
				<rect x="407.1" y="253.6" class="st1" width="17" height="14.6"/>
				<line class="st1" x1="416.5" y1="253.9" x2="416.5" y2="267.2"/>
			</g>
		</g>
	</g>
</g>
</svg>
