<?xml version="1.0" encoding="utf-8"?>
<!-- Generator: Adobe Illustrator 20.1.0, SVG Export Plug-In . SVG Version: 6.00 Build 0)  -->
<svg version="1.1" id="Слой_1" xmlns="http://www.w3.org/2000/svg" xmlns:xlink="http://www.w3.org/1999/xlink" x="0px" y="0px"
	 viewBox="0 0 650.1 263" style="enable-background:new 0 0 650.1 263;" xml:space="preserve">
<style type="text/css">
	.st0{fill:#F4E1A1;}
	.st1{fill:none;stroke:#817957;stroke-width:2;stroke-linecap:round;stroke-linejoin:round;stroke-miterlimit:10;}
</style>
<g id="_x30_7">
	<g>
		<g>
			<polygon class="st0" points="198.6,233.2 198.6,224.5 194.6,224.5 194.6,208.7 192.5,208.7 192.5,204.6 183,204.6 183,208.7 
				176.8,208.7 176.8,204.6 167.2,204.6 167.2,208.7 165.1,208.7 165.1,224.5 161.2,224.5 161.2,233.2 183.4,233.2 			"/>
			<path class="st0" d="M182.2,233.2h-21.1v10c0,10.3,8.4,18.7,18.7,18.7h0c10.3,0,18.7-8.4,18.7-18.7v-10h-15.2v0L182.2,233.2z"/>
		</g>
		<g>
			<path class="st1" d="M161.2,233.2v10c0,10.3,8.4,18.7,18.7,18.7h0c10.3,0,18.7-8.4,18.7-18.7v-10"/>
			
				<rect x="161.2" y="224.5" transform="matrix(-1 -1.360917e-10 1.360917e-10 -1 359.7299 457.7693)" class="st1" width="37.4" height="8.7"/>
			<path class="st1" d="M176.3,233.2v14.7c0,2,1.6,3.5,3.5,3.5h0c2,0,3.5-1.6,3.5-3.5v-14.7"/>
			<rect x="165.1" y="208.7" class="st1" width="29.5" height="15.8"/>
			
				<rect x="169.9" y="201.8" transform="matrix(4.397133e-11 -1 1 4.397133e-11 -34.6681 378.623)" class="st1" width="4.1" height="9.6"/>
			
				<rect x="185.7" y="201.8" transform="matrix(4.641427e-11 -1 1 4.641427e-11 -18.8931 394.398)" class="st1" width="4.1" height="9.6"/>
		</g>
		<path class="st1" d="M188.2,204.6c-0.3-17.4-0.1-34.8,1.5-52.2"/>
		<path class="st1" d="M171.9,152.4c1.3,17.3,1.3,34.8,1,52.2"/>
		<line class="st1" x1="188.8" y1="208.7" x2="188.8" y2="224.5"/>
		<line class="st1" x1="180.3" y1="208.7" x2="180.3" y2="224.5"/>
		<line class="st1" x1="184.8" y1="224.5" x2="184.8" y2="233.2"/>
		<line class="st1" x1="190.8" y1="224.7" x2="190.8" y2="232.7"/>
		<line class="st1" x1="169.8" y1="225.2" x2="169.8" y2="231.8"/>
	</g>
	<g>
		<path class="st0" d="M649.1,15.1V8.8H546.2V1h-18v6.7L528,7.6c0,0.3,0.1,0.6,0.2,1v0.2H403.3V1h-18v7.8H260.3V1h-18v7.8H117.4V1
			h-18v5.4l0,0c0,0,0,0,0,0v2.4H1.1v6.3h98.3v20.2h18V15.1h124.3h0.6v0.3l-0.6-0.3c0.2,0.5,0.4,1,0.6,1.5v18.7h18V15.1h124.9v20.2
			h18v-3.7c0,0,0,0,0,0l0,0V15.1h124.9v20.2h18v-7.6c0,0,0,0,0-0.1l0,0V15.1H649.1z"/>
		<g>
			<line class="st1" x1="649.1" y1="8.8" x2="546.2" y2="8.8"/>
			<line class="st1" x1="528.2" y1="8.8" x2="403.3" y2="8.8"/>
			<line class="st1" x1="385.3" y1="8.8" x2="260.3" y2="8.8"/>
			<line class="st1" x1="242.3" y1="8.8" x2="117.4" y2="8.8"/>
			<line class="st1" x1="99.4" y1="8.8" x2="1.1" y2="8.8"/>
			<line class="st1" x1="649.1" y1="15" x2="546.2" y2="15"/>
			<line class="st1" x1="528.2" y1="15" x2="403.3" y2="15"/>
			<line class="st1" x1="385.3" y1="15" x2="260.3" y2="15"/>
			<line class="st1" x1="242.3" y1="15" x2="117.4" y2="15"/>
			<line class="st1" x1="99.4" y1="15" x2="1.1" y2="15"/>
			<rect x="99.4" y="1" class="st1" width="18" height="34.3"/>
			<rect x="242.3" y="1" class="st1" width="18" height="34.3"/>
			<rect x="385.3" y="1" class="st1" width="18" height="34.3"/>
			<rect x="528.2" y="1" class="st1" width="18" height="34.3"/>
		</g>
		<path class="st1" d="M192.7,128.4c0-0.2,0.1-0.3,0.1-0.5c4.4-25.8,12.8-51.1,27-73.1c5.8-9,13.1-17.8,22.6-22.6"/>
		<path class="st1" d="M117.4,28.2c24.2,19.9,39.6,49.2,47.4,79.6c1.8,6.8,3.2,13.7,4.3,20.7"/>
		<path class="st1" d="M260.3,30.6c16.6,5.2,31.7,14.9,48.8,18.7c13.7,3,28.2,2,41.3-3c12.1-4.6,23-12.3,34.9-17.2"/>
		<path class="st1" d="M403.3,26.6c9.1-0.7,18.1,2.6,26.8,5.4c28.1,8.9,59.2,13.1,86.5,1.9c3.8-1.6,7.7-3.5,11.7-4.6"/>
		<path class="st1" d="M546.2,28.2c16.3,0.6,32.2,5.1,48.4,7.6c18.6,2.9,38.9,2.8,54.5-8.3"/>
		<path class="st1" d="M117.4,26.4c12.8,2.2,25,7.9,37.8,10.8c15.6,3.6,32.2,2.8,47.5-2.1c13.3-4.3,25.9-11.7,39.6-13.1"/>
		<path class="st1" d="M99.4,30.1c-8.1,0.6-15.9,3.4-23.7,5.9C51.5,43.6,26.3,48,1,49"/>
		<path class="st1" d="M260.3,24.6c4.8,1.1,9.4,3,14,4.7c21,7.4,43.8,9.3,65.7,5.6c15.3-2.6,30-7.9,45.2-10.8"/>
		<path class="st1" d="M403.3,22.7c5.4-0.7,10.9-0.8,16.4-0.5c9,0.6,17.9,2.6,26.9,3.5c10,1,20.1,0.5,30.1,0
			c17.2-0.8,34.3-1.6,51.5-2.5"/>
		<path class="st1" d="M546.2,22.7c8-0.9,16.3,0.9,24.3,2.4c26.1,5,53.8,7.7,78.6-1.6"/>
		<path class="st1" d="M2.6,39.2C17.1,40.6,32,38.3,46.3,35c17.7-4,35.1-9.5,53.1-11.5"/>
		<line class="st1" x1="380.8" y1="8.7" x2="380.8" y2="14.2"/>
		<line class="st1" x1="408.8" y1="8.7" x2="408.8" y2="13.2"/>
		<line class="st1" x1="413.8" y1="9.2" x2="413.8" y2="14.2"/>
		<line class="st1" x1="523.8" y1="9.7" x2="523.8" y2="14.2"/>
		<line class="st1" x1="552.3" y1="8.8" x2="552.3" y2="14.3"/>
		<line class="st1" x1="385.3" y1="5.7" x2="401.8" y2="5.7"/>
		<line class="st1" x1="528.3" y1="4.2" x2="544.5" y2="4.2"/>
		<line class="st1" x1="99.3" y1="4.7" x2="117.3" y2="4.7"/>
		<line class="st1" x1="242.8" y1="5.7" x2="258.8" y2="5.7"/>
		<line class="st1" x1="120.8" y1="8.7" x2="120.8" y2="14.9"/>
		<line class="st1" x1="124.3" y1="9.2" x2="124.3" y2="13.8"/>
		<line class="st1" x1="129.3" y1="8.7" x2="129.3" y2="15"/>
		<line class="st1" x1="139.3" y1="9.7" x2="139.3" y2="14.3"/>
		<line class="st1" x1="94.8" y1="8.7" x2="94.8" y2="15"/>
		<line class="st1" x1="90.8" y1="9.2" x2="90.8" y2="13.7"/>
		<line class="st1" x1="84.8" y1="9.2" x2="84.8" y2="13.7"/>
		<line class="st1" x1="237.3" y1="8.7" x2="237.3" y2="13.7"/>
		<line class="st1" x1="231.8" y1="8.7" x2="231.8" y2="13.7"/>
		<line class="st1" x1="226.8" y1="8.7" x2="226.8" y2="14.3"/>
		<line class="st1" x1="264.3" y1="8.7" x2="264.3" y2="14.3"/>
		<line class="st1" x1="268.3" y1="9.7" x2="268.3" y2="14.8"/>
		<line class="st1" x1="279.3" y1="9.7" x2="279.3" y2="14.4"/>
		<line class="st1" x1="288.8" y1="9.7" x2="288.8" y2="14.7"/>
		<line class="st1" x1="420.8" y1="8.8" x2="420.8" y2="14.8"/>
		<line class="st1" x1="431.3" y1="8.7" x2="431.3" y2="15.2"/>
		<path class="st1" d="M99.4,6.4c1,2.1,2.1,4.1,3.1,6.2c0.8,1.6,1.7,3.2,3.1,4.3c1.7,1.2,4.1,1.3,6.1,0.6c2-0.7,3.7-2.1,5-3.8"/>
		<path class="st1" d="M99.7,15.8c1.6,3.6,1.7,8.2,4.7,10.8c3.4,3,9.1,1.6,12.3-1.5"/>
		<path class="st1" d="M242.4,10c1.6,0.8,2.7,2.4,4,3.6c3.9,3.6,10.8,3.6,14-1.8"/>
		<path class="st1" d="M241.7,15.1c1.6,3.9,3.4,8,6.7,10.6c3.4,2.6,8.8,2.9,11.4-0.5"/>
		<path class="st1" d="M385.4,10.6c1.6,3.6,4.1,6.9,7.8,8.2s8.5-0.4,9.5-4.2"/>
		<path class="st1" d="M385.7,16.6c2,8,9.4,14.3,17.7,15"/>
		<path class="st1" d="M528,7.6c0.4,3.7,3.1,6.9,6.5,8.4s7.3,1.4,10.9,0.3"/>
		<path class="st1" d="M528.7,17c2.6,5.8,8.1,10.3,14.3,11.6c1.2,0.3,2.8,0.2,3.2-0.9"/>
	</g>
</g>
</svg>
