<?xml version="1.0" encoding="utf-8"?>
<!-- Generator: Adobe Illustrator 20.1.0, SVG Export Plug-In . SVG Version: 6.00 Build 0)  -->
<svg version="1.1" id="Слой_1" xmlns="http://www.w3.org/2000/svg" xmlns:xlink="http://www.w3.org/1999/xlink" x="0px" y="0px"
	 viewBox="0 0 604.6 1032.1" style="enable-background:new 0 0 604.6 1032.1;" xml:space="preserve">
<style type="text/css">
	.st0{fill:#F4E1A1;}
	.st1{fill:none;stroke:#817957;stroke-width:2;stroke-linecap:round;stroke-linejoin:round;stroke-miterlimit:10;}
</style>
<g id="_x31_5">
	<g>
		<path class="st0" d="M558.4,821.1v-6.5h-16v-37.5h-0.1c-0.2-1.8-1.1-3.5-2.3-4.8l0,0l-16-16.1l-2.7-3.1h0v-57h-16.5V543h12.7v-14
			h21v-6h-91.3v6h21v14h12.7v153.2h-16.5v57h0l-3,3.4h0.3l-14.8,14.7c-0.9,0.6-1.7,1.4-2.3,2.3l-0.5,0.5l0.1,0.1
			c-0.6,1.2-1,2.5-1,3.9c0,0,0,0,0,0v36.5h-16v6.5H404v9.4h63.8v27.3h16.8v173.4h16.5V857.7h16.8v-27.3h63.8v-9.4H558.4z
			 M484.6,814.6h-25v-33.8l24.5-24.2h0.5V814.6z M501.1,814.6v-58h0.1l24.8,24.9v33.1H501.1z"/>
		<rect x="464.3" y="696.2" class="st1" width="57" height="57"/>
		<polyline class="st1" points="480.8,543 480.8,696.2 504.8,696.2 504.8,543 		"/>
		<g>
			<g>
				<circle class="st1" cx="451.4" cy="778.1" r="8.2"/>
				<line class="st1" x1="445.6" y1="772.3" x2="464.8" y2="753.2"/>
				<line class="st1" x1="457.2" y1="783.9" x2="484.5" y2="756.6"/>
				<line class="st1" x1="443.2" y1="778.1" x2="443.2" y2="814.6"/>
				<line class="st1" x1="459.6" y1="781.5" x2="459.6" y2="814.6"/>
			</g>
			<g>
				<circle class="st1" cx="534.2" cy="778.1" r="8.2"/>
				<line class="st1" x1="540" y1="772.3" x2="520.9" y2="753.2"/>
				<line class="st1" x1="528.4" y1="783.9" x2="501.1" y2="756.6"/>
				<line class="st1" x1="542.4" y1="778.1" x2="542.4" y2="814.6"/>
				<line class="st1" x1="526" y1="781.5" x2="526" y2="814.6"/>
			</g>
		</g>
		<line class="st1" x1="461.4" y1="756.6" x2="524.3" y2="756.6"/>
		<rect x="404" y="821.1" class="st1" width="177.7" height="9.4"/>
		<rect x="467.8" y="830.5" class="st1" width="50" height="27.3"/>
		<rect x="484.6" y="857.7" class="st1" width="16.5" height="173.4"/>
		<rect x="484.6" y="756.6" class="st1" width="16.5" height="58"/>
		<rect x="427.2" y="814.6" class="st1" width="131.2" height="6.5"/>
		<rect x="447.2" y="523" class="st1" width="91.3" height="6"/>
		<rect x="468.2" y="529" class="st1" width="49.3" height="14"/>
		<line class="st1" x1="481" y1="547.9" x2="503.7" y2="547.9"/>
		<line class="st1" x1="481" y1="553.9" x2="504.8" y2="553.9"/>
		<line class="st1" x1="481" y1="562.9" x2="504.1" y2="562.9"/>
		<line class="st1" x1="513" y1="696.2" x2="513" y2="753.2"/>
		<line class="st1" x1="501" y1="697.4" x2="501" y2="751.9"/>
		<line class="st1" x1="468.5" y1="696.9" x2="468.5" y2="751.4"/>
		<line class="st1" x1="475" y1="697.4" x2="475" y2="751.9"/>
		<line class="st1" x1="467.8" y1="836.4" x2="517.8" y2="836.4"/>
		<line class="st1" x1="484.5" y1="862.9" x2="501.1" y2="862.9"/>
		<line class="st1" x1="485" y1="868.4" x2="501.1" y2="868.4"/>
		<line class="st1" x1="495.2" y1="562.9" x2="495.2" y2="696.2"/>
		<line class="st1" x1="468" y1="535.4" x2="517.5" y2="535.4"/>
	</g>
	<g>
		<polygon class="st0" points="517.5,483.9 517.5,469.9 504.8,469.9 504.8,173.9 480.8,173.9 480.8,469.9 468.2,469.9 468.2,483.9 
			447.2,483.9 447.2,489.9 538.5,489.9 538.5,483.9 		"/>
		<line class="st1" x1="480.8" y1="173.9" x2="480.8" y2="469.9"/>
		<line class="st1" x1="504.8" y1="469.9" x2="504.8" y2="173.9"/>
		<rect x="447.2" y="483.9" class="st1" width="91.3" height="6"/>
		<rect x="468.2" y="469.9" class="st1" width="49.3" height="14"/>
		<line class="st1" x1="480.8" y1="180.9" x2="504.8" y2="180.9"/>
		<line class="st1" x1="481" y1="185.9" x2="503.5" y2="185.9"/>
		<line class="st1" x1="481.5" y1="197.4" x2="503.6" y2="197.4"/>
		<line class="st1" x1="468" y1="478.4" x2="517" y2="478.4"/>
		<line class="st1" x1="482" y1="463.4" x2="504" y2="463.4"/>
		<line class="st1" x1="481" y1="455.9" x2="504.5" y2="455.9"/>
		<line class="st1" x1="495.2" y1="197.4" x2="495.2" y2="455.9"/>
		<line class="st1" x1="480.8" y1="173.9" x2="504.8" y2="173.9"/>
	</g>
	<g>
		<g>
			<path class="st0" d="M392.6,125.9V88.7c-15.8,0-29.6,8.6-36.9,21.3h-33v7.5h-9.9v9.9h9.9v7.7h-9.9v9.9h9.9v7.5h33
				c7.4,12.7,21.1,21.3,36.9,21.3v-37.3h21.3v-10.7H392.6z"/>
			<path class="st1" d="M392.6,173.9V88.7l0,0c-15.8,0-29.6,8.6-36.9,21.3h-33v42.6h33C363,165.3,376.8,173.9,392.6,173.9
				L392.6,173.9z"/>
			<rect x="392.6" y="125.9" class="st1" width="21.3" height="10.7"/>
			<line class="st1" x1="383.9" y1="89.5" x2="383.9" y2="172.2"/>
			<rect x="312.7" y="117.5" class="st1" width="9.9" height="9.9"/>
			<rect x="312.7" y="135.1" class="st1" width="9.9" height="9.9"/>
			<path class="st1" d="M312.7,121.5c-7.2-1.8-15.7,1.8-19.1,8.5c-0.7,1.4-1.2,2.9-1.3,4.4c-0.1,4.2,3.4,7.8,7.4,9.1
				c4.1,1.4,8.6-3,13-3.4"/>
			<path class="st1" d="M312.7,122.9c-4.6-0.3-9.6-3.3-13.1-5.8c-13.2-9.2-19.7-27.5-22.1-40.8"/>
			<line class="st1" x1="332" y1="110.8" x2="332" y2="152.6"/>
			<line class="st1" x1="355.6" y1="110" x2="355.6" y2="152.6"/>
			<line class="st1" x1="350.5" y1="110.8" x2="350.5" y2="152.6"/>
			<line class="st1" x1="384" y1="99.4" x2="392.2" y2="99.4"/>
			<line class="st1" x1="384" y1="106.9" x2="391.3" y2="106.9"/>
			<line class="st1" x1="383.9" y1="117.4" x2="391.6" y2="117.4"/>
			<line class="st1" x1="384.5" y1="127.4" x2="392.6" y2="127.4"/>
			<line class="st1" x1="384" y1="135.4" x2="392.6" y2="135.4"/>
			<line class="st1" x1="397.5" y1="126.9" x2="397.5" y2="136.4"/>
			<line class="st1" x1="403" y1="126.4" x2="403" y2="135.4"/>
			<line class="st1" x1="384.5" y1="144.4" x2="392" y2="144.4"/>
			<line class="st1" x1="383.9" y1="154.4" x2="391.6" y2="154.4"/>
			<line class="st1" x1="384" y1="165.4" x2="392" y2="165.4"/>
			<line class="st1" x1="332" y1="147.4" x2="350.5" y2="147.4"/>
			<line class="st1" x1="332.5" y1="141.4" x2="350.1" y2="141.4"/>
			<line class="st1" x1="318.5" y1="117.9" x2="318.5" y2="126.9"/>
			<line class="st1" x1="319" y1="135.9" x2="319" y2="145"/>
			<path class="st1" d="M355.9,144.2c1.8,0.7,2.8,2.6,3.9,4.2c4.9,7.7,13.7,12.7,22.7,13"/>
			<path class="st1" d="M356.3,136.7c5.2,9,16.6,13.8,26.8,11.5"/>
			<path class="st1" d="M356.8,117.6c7.8-5.8,17.3-9.3,27-9.9"/>
		</g>
		<g>
			<g>
				<rect x="583.7" y="111.3" class="st0" width="10.8" height="40"/>
				<path class="st0" d="M603.6,76.7v-24h-42.2c5.8-5.4,9.5-13.2,9.5-21.8c0-0.2,0-0.3,0-0.5c0,0,0,0,0,0l0,0
					C570.6,14.1,557.4,1,541.1,1c-16.5,0-29.8,13.4-29.8,29.8c0,5.2,1.3,10.1,3.7,14.3c0,0,0,0,0,0l0,0c1.5,2.8,3.5,5.3,5.8,7.5
					h-46.5h-2.9c5.8-5.4,9.5-13.2,9.5-21.8C480.8,14.4,467.5,1,451,1s-29.8,13.4-29.8,29.8c0,8.6,3.7,16.4,9.5,21.8H1v24h439.5v12
					h-26.6v85.2h9.8v44.9h6.7v9.9h9.9v-9.9h7.7v9.9h9.9v-9.9h10.7v-44.9h103.2V88.7h-20.2v-12H603.6z M451,34.4
					c-12.5,0-10.5,14.4-10.5,14.4c-5.7-3.5-9.5-9.8-9.5-17c0-11,9-20,20-20s20,9,20,20c0,7.2-3.8,13.5-9.5,17
					C461.5,48.8,463.5,34.4,451,34.4z M530.6,88.7h-69.1v-12h69.1V88.7z M541.1,34.4c-12.7,0-10.5,14.4-10.5,14.4
					c-5.7-3.5-9.5-9.8-9.5-17c0-11,9-20,20-20c11,0,20,9,20,20c0,7.2-3.8,13.5-9.5,17C551.6,48.8,553.7,34.4,541.1,34.4z"/>
			</g>
			<g>
				<path class="st1" d="M571.8,99.3h5.4c6.6,0,11.9,5.3,11.9,11.9v0"/>
				<path class="st1" d="M589.1,151.3L589.1,151.3c0,6.6-5.3,11.9-11.9,11.9h-5.4"/>
				<rect x="583.7" y="111.3" class="st1" width="10.8" height="40"/>
				<line class="st1" x1="594.5" y1="119" x2="583.7" y2="119"/>
				<line class="st1" x1="594.5" y1="143.5" x2="583.7" y2="143.5"/>
			</g>
			<g>
				<g>
					<g>
						
							<rect x="423.7" y="173.9" transform="matrix(6.123234e-17 -1 1 6.123234e-17 249.7733 642.5286)" class="st1" width="44.9" height="44.9"/>
						<g>
							<circle class="st1" cx="446.2" cy="196.4" r="10.8"/>
							<circle class="st1" cx="446.2" cy="196.4" r="6.9"/>
						</g>
					</g>
					
						<rect x="430.4" y="218.8" transform="matrix(6.123234e-17 -1 1 6.123234e-17 211.5179 659.1501)" class="st1" width="9.9" height="9.9"/>
					
						<rect x="448" y="218.8" transform="matrix(6.123234e-17 -1 1 6.123234e-17 229.1857 676.8179)" class="st1" width="9.9" height="9.9"/>
				</g>
				<line class="st1" x1="585.3" y1="52.7" x2="551.6" y2="52.7"/>
				<line class="st1" x1="530.6" y1="52.7" x2="461.5" y2="52.7"/>
				<polyline class="st1" points="440.5,52.7 1,52.7 1,76.7 440.5,76.7 				"/>
				<line class="st1" x1="461.5" y1="76.7" x2="530.6" y2="76.7"/>
				<line class="st1" x1="551.6" y1="76.7" x2="582.4" y2="76.7"/>
				<line class="st1" x1="461.5" y1="88.7" x2="530.6" y2="88.7"/>
				<polyline class="st1" points="551.6,88.7 571.8,88.7 571.8,173.9 413.9,173.9 413.9,88.7 440.5,88.7 				"/>
				<rect x="582.4" y="52.7" class="st1" width="21.2" height="24"/>
				<line class="st1" x1="426.5" y1="88.7" x2="426.5" y2="173.9"/>
				<rect x="440.5" y="44.9" class="st1" width="21" height="67.5"/>
				<path class="st1" d="M461.5,44.9c0-5.8-4.7-10.5-10.5-10.5s-10.5,4.7-10.5,10.5"/>
				<g>
					<rect x="530.6" y="44.9" class="st1" width="21" height="67.5"/>
					<path class="st1" d="M551.6,44.9c0-5.8-4.7-10.5-10.5-10.5c-5.8,0-10.5,4.7-10.5,10.5"/>
				</g>
				<path class="st1" d="M461.5,49.7c5.9-3.6,9.9-10.1,9.9-17.5c0-11.3-9.1-20.4-20.4-20.4s-20.4,9.1-20.4,20.4
					c0,7.4,4,13.9,9.9,17.5"/>
				<path class="st1" d="M551.6,49.7c5.9-3.6,9.9-10.1,9.9-17.5c0-11.3-9.1-20.4-20.4-20.4c-11.3,0-20.4,9.1-20.4,20.4
					c0,7.4,4,13.9,9.9,17.5"/>
				<path class="st1" d="M430.7,52.7c-5.8-5.4-9.5-13.2-9.5-21.8C421.2,14.4,434.5,1,451,1s29.8,13.4,29.8,29.8
					c0,8.6-3.7,16.4-9.5,21.8"/>
				<path class="st1" d="M520.7,52.7c-5.8-5.4-9.5-13.2-9.5-21.8c0-16.5,13.4-29.8,29.8-29.8c16.5,0,29.8,13.4,29.8,29.8
					c0,8.6-3.7,16.4-9.5,21.8"/>
				<g>
					<rect x="484" y="110.8" class="st1" width="17.6" height="45.2"/>
					<rect x="501.6" y="119.8" class="st1" width="9.9" height="9.9"/>
					<rect x="501.6" y="137.8" class="st1" width="9.9" height="9.9"/>
					<rect x="474.1" y="119.8" class="st1" width="9.9" height="9.9"/>
					<rect x="474.1" y="137.8" class="st1" width="9.9" height="9.9"/>
				</g>
				<path class="st1" d="M511.6,125.6c5,1.1,10.1,2,15.2,1.8c5.3-0.2,10.7-1.6,14.9-4.9c3.5-2.7,4-6.4,6.3-10.2"/>
				<path class="st1" d="M511.6,143.6c5.9,0.8,12,1.1,17-1.9c5.2-3.1,7.8-9.1,9.6-14.8c1.5-4.7,2.6-9.6,3.3-14.5"/>
				<path class="st1" d="M474.1,143.3c-4.4,1.1-8.7,2.7-12.9,4.3c-18.1,6.8-37.2,14.3-48.8,29.7c-8.8,11.6-12.3,26.5-12.1,41.1
					c0.1,9.1,1.9,18.8,8.3,25.3s18.5,7.8,24.1,0.6c3.3-4.3,3.6-10.2,3.3-15.5"/>
				<path class="st1" d="M474.1,125.2c-10.7,3.5-20,10.4-28.2,18.2c-12.4,11.7-22.8,25.6-29.1,41.5c-6.3,15.8-8.1,33.6-3.8,50.1
					c2.7,10.4,8.5,20.7,18.3,25.2c5.6,2.6,12.7,2.8,17.4-1.1c4-3.3,5.5-8.7,6.1-13.8c0.6-5.5,0.2-11-0.9-16.3"/>
				<line class="st1" x1="555.5" y1="53.4" x2="555.5" y2="76.7"/>
				<line class="st1" x1="561.5" y1="53.9" x2="561.5" y2="76.7"/>
				<line class="st1" x1="467.5" y1="53.9" x2="467.5" y2="76.7"/>
				<line class="st1" x1="473.5" y1="52.9" x2="473.5" y2="75.4"/>
				<line class="st1" x1="525.5" y1="53.4" x2="525.5" y2="75.4"/>
				<line class="st1" x1="434.5" y1="53.4" x2="434.5" y2="76.7"/>
				<line class="st1" x1="429.5" y1="51.9" x2="429.5" y2="75.4"/>
				<line class="st1" x1="414" y1="52.9" x2="414" y2="76"/>
				<line class="st1" x1="414.5" y1="98.4" x2="425.5" y2="98.4"/>
				<line class="st1" x1="414" y1="105.9" x2="425" y2="105.9"/>
				<line class="st1" x1="413.9" y1="145.9" x2="425.5" y2="145.9"/>
				<line class="st1" x1="441" y1="106.9" x2="460" y2="106.9"/>
				<line class="st1" x1="441" y1="99.4" x2="461" y2="99.4"/>
				<path class="st1" d="M531.5,107.9c0.2,0,0.3,0,0.5,0h18.5"/>
				<line class="st1" x1="531.5" y1="99.9" x2="550.5" y2="99.9"/>
				<line class="st1" x1="505.5" y1="120.4" x2="505.5" y2="128.4"/>
				<line class="st1" x1="506.5" y1="139.4" x2="506.5" y2="146.5"/>
				<line class="st1" x1="480" y1="138.4" x2="480" y2="146.9"/>
				<line class="st1" x1="479.5" y1="120.9" x2="479.5" y2="128.4"/>
				<line class="st1" x1="424" y1="178.4" x2="468.6" y2="178.4"/>
				<line class="st1" x1="430.4" y1="223.4" x2="440.3" y2="223.4"/>
				<line class="st1" x1="448" y1="222.9" x2="458" y2="222.9"/>
				<line class="st1" x1="456.5" y1="45.9" x2="456.5" y2="97.9"/>
				<line class="st1" x1="453" y1="45.4" x2="453" y2="99.4"/>
				<line class="st1" x1="536.5" y1="45.9" x2="536.5" y2="99.9"/>
				<line class="st1" x1="541" y1="46.4" x2="541" y2="99.9"/>
				<path class="st1" d="M555.3,46.8c1.6,2,3.5,3.7,5.7,5"/>
				<path class="st1" d="M559.1,42.8c2,1.2,4,2.4,5.9,3.6"/>
				<path class="st1" d="M560.9,37.1c2.7,1.2,5.7,1.8,8.6,1.9"/>
				<path class="st1" d="M561.5,31.9c3.2-0.2,6.3-0.7,9.4-1.5"/>
				<path class="st1" d="M525.7,46.1c-1.9,1.5-3.9,3-5.8,4.6"/>
				<path class="st1" d="M522.3,40.3c-2.7,1.2-5.2,2.9-7.4,4.9"/>
				<path class="st1" d="M520,35.2c-2.7,0.7-5.3,1.3-8,2"/>
				<path class="st1" d="M511.5,29.9c2.8,0,5.7,0,8.5,0"/>
				<path class="st1" d="M465.6,47.4c1.5,1.7,3,3.3,4.5,5"/>
				<path class="st1" d="M469.5,43.4c2,1.2,4.2,2.1,6.5,2.5"/>
				<path class="st1" d="M471,36.9c2.5,0.5,5,1.1,7.5,1.6"/>
				<path class="st1" d="M472.5,30.9c2.3-0.3,4.7-0.7,7-1"/>
				<path class="st1" d="M470.6,23.5c2.3-1,4.6-2.1,7-3.1"/>
				<path class="st1" d="M436.9,46.8c-1.6,1.9-3.2,3.8-4.8,5.6"/>
				<path class="st1" d="M432.7,42.5c-2,1.5-4,3.1-6,4.7"/>
				<path class="st1" d="M429.5,36.3c-2.1,0.7-4.3,1.4-6.4,2.2"/>
				<path class="st1" d="M421.2,30.5c2.9-0.1,5.9-0.3,8.8-0.4"/>
				<path class="st1" d="M423,21.3c3.3,0.5,6.6,1.1,9.9,1.6"/>
				<line class="st1" x1="427.2" y1="166.6" x2="571.2" y2="166.6"/>
				<line class="st1" x1="1.5" y1="69.9" x2="412.5" y2="69.9"/>
				<line class="st1" x1="2" y1="65.9" x2="412.7" y2="65.9"/>
			</g>
		</g>
	</g>
</g>
</svg>
