<?xml version="1.0" encoding="utf-8"?>
<!-- Generator: Adobe Illustrator 20.1.0, SVG Export Plug-In . SVG Version: 6.00 Build 0)  -->
<svg version="1.1" id="Слой_1" xmlns="http://www.w3.org/2000/svg" xmlns:xlink="http://www.w3.org/1999/xlink" x="0px" y="0px"
	 viewBox="0 0 481 402.3" style="enable-background:new 0 0 481 402.3;" xml:space="preserve">
<style type="text/css">
	.st0{fill:#F4E1A1;}
	.st1{fill:none;stroke:#817957;stroke-width:2;stroke-linecap:round;stroke-linejoin:round;stroke-miterlimit:10;}
	
		.st2{fill:none;stroke:#817957;stroke-width:2;stroke-linecap:round;stroke-linejoin:round;stroke-miterlimit:10;stroke-dasharray:6.8508;}
</style>
<g id="_x30_6">
	<g>
		<g>
			<polygon class="st0" points="277,393.8 277,331.3 280.9,331.3 280.9,324.3 283.9,324.3 283.9,313.3 245.3,313.3 245.3,324.3 
				248.4,324.3 248.4,331.3 252.3,331.3 252.3,393.8 171.7,393.8 171.7,331.3 175.6,331.3 175.6,324.3 178.6,324.3 178.6,313.3 
				140.1,313.3 140.1,324.3 143.1,324.3 143.1,331.3 147,331.3 147,393.8 129.8,393.8 129.8,401.3 300,401.3 300,393.8 			"/>
			<path class="st0" d="M135.2,313.3h-10.9c0,3,2.5,5.5,5.5,5.5C132.8,318.8,135.2,316.4,135.2,313.3z"/>
			<path class="st0" d="M188.9,318.8c3,0,5.5-2.5,5.5-5.5h-10.9C183.4,316.4,185.9,318.8,188.9,318.8z"/>
			<path class="st0" d="M235.1,318.8c3,0,5.5-2.5,5.5-5.5h-10.9C229.6,316.4,232,318.8,235.1,318.8z"/>
			<path class="st0" d="M294.2,318.8c3,0,5.5-2.5,5.5-5.5h-10.9C288.7,316.4,291.2,318.8,294.2,318.8z"/>
		</g>
		<rect x="129.8" y="393.8" class="st1" width="170.2" height="7.4"/>
		<g>
			<g>
				
					<rect x="153.9" y="299.5" transform="matrix(4.387139e-11 1 -1 4.387139e-11 478.1282 159.4786)" class="st1" width="10.9" height="38.5"/>
				<path class="st1" d="M135.2,313.3c0,3-2.5,5.5-5.5,5.5c-3,0-5.5-2.5-5.5-5.5"/>
				<path class="st1" d="M194.4,313.3c0,3-2.5,5.5-5.5,5.5c-3,0-5.5-2.5-5.5-5.5"/>
			</g>
			<g>
				<g>
					<line class="st1" x1="147" y1="385.7" x2="171.7" y2="385.7"/>
				</g>
				<rect x="143.1" y="324.3" class="st1" width="32.5" height="7"/>
				<line class="st1" x1="147" y1="392.8" x2="147" y2="331.3"/>
				<line class="st1" x1="171.7" y1="392.8" x2="171.7" y2="331.3"/>
			</g>
			<line class="st1" x1="165.5" y1="331.3" x2="165.5" y2="385.7"/>
			<line class="st1" x1="124.3" y1="313.3" x2="194.4" y2="313.3"/>
		</g>
		<g>
			<g>
				
					<rect x="259.1" y="299.5" transform="matrix(4.486881e-11 1 -1 4.486881e-11 583.4244 54.1825)" class="st1" width="10.9" height="38.5"/>
				<path class="st1" d="M240.5,313.3c0,3-2.5,5.5-5.5,5.5s-5.5-2.5-5.5-5.5"/>
				<path class="st1" d="M299.7,313.3c0,3-2.5,5.5-5.5,5.5c-3,0-5.5-2.5-5.5-5.5"/>
			</g>
			<g>
				<g>
					<line class="st1" x1="252.3" y1="385.7" x2="277" y2="385.7"/>
				</g>
				<rect x="248.4" y="324.3" class="st1" width="32.5" height="7"/>
				<line class="st1" x1="252.3" y1="392.8" x2="252.3" y2="331.3"/>
				<line class="st1" x1="277" y1="392.8" x2="277" y2="331.3"/>
			</g>
			<line class="st1" x1="270.8" y1="331.3" x2="270.8" y2="385.7"/>
			<line class="st1" x1="229.6" y1="313.3" x2="299.7" y2="313.3"/>
		</g>
	</g>
	<g>
		<rect x="175.2" y="130.5" class="st0" width="170.2" height="7.4"/>
		<rect x="175.2" y="130.5" class="st1" width="170.2" height="7.4"/>
		<line class="st2" x1="177.9" y1="108.9" x2="344.1" y2="108.9"/>
		<g>
			<path class="st0" d="M260.3,1c-47,0-85.1,38.1-85.1,85.1h170.2C345.4,39.1,307.3,1,260.3,1z"/>
			<path class="st1" d="M345.4,86.1c0-47-38.1-85.1-85.1-85.1s-85.1,38.1-85.1,85.1"/>
			<line class="st1" x1="175.2" y1="86.1" x2="345.4" y2="86.1"/>
			<path class="st1" d="M197.1,30.5c-1.5,2-1.8,4.9-0.6,7.1c1.2,2.2,3.6,3.7,6.2,3.6c3.7-0.1,6.7-3.3,10.3-4.1
				c5.6-1.4,11,2.9,16.8,3.5c4.6,0.5,9.1-1.4,13.1-3.7c11.6-6.7,21.6-18.7,20.5-32c-0.1-1.2-0.4-2.6-1.3-3.4"/>
			<path class="st1" d="M186.9,43.5c-1.2,5.9-2,13,2.5,17.1c4.4,4.1,11.3,2.7,17.3,2.8c4.6,0.1,9.1,1.1,13.7,1.7
				c16.7,2,34.2-3.4,46.3-15c12.1-11.6,18.3-29.3,15.2-45.8"/>
			<path class="st1" d="M205.7,20.8c0.4,1.8-1.4,3.4-1.3,5.2c0.1,1.3,1.2,2.3,2.4,2.7s2.5,0.3,3.8,0.2c5.5-0.6,10.9-2.1,15.5-5.1
				c4.6-3,8.2-7.7,9.1-13.2c0.2-1.2,0.2-2.4-0.3-3.4s-1.7-1.8-2.9-1.5"/>
			<path class="st1" d="M296.5,86.1c10.8-3.8,20.1-11.8,25.7-21.8c5-9,7-19.7,5.5-30"/>
			<path class="st1" d="M318.7,85.3c11.2-1.7,20.9-10.5,23.6-21.5"/>
		</g>
	</g>
	<g>
		<g>
			<polygon class="st0" points="404.5,181.3 404.5,152.3 79.9,152.3 79.9,194.1 69,194.1 69,239.3 79.9,239.3 79.9,280.2 
				404.5,280.2 404.5,256.2 404.5,239.3 415.5,239.3 415.5,194.1 404.5,194.1 			"/>
			<rect x="415.5" y="203.2" class="st0" width="9.9" height="9.9"/>
			<rect x="415.5" y="221.2" class="st0" width="9.9" height="9.9"/>
			<rect x="59" y="220.3" class="st0" width="9.9" height="9.9"/>
			<rect x="59" y="202.3" class="st0" width="9.9" height="9.9"/>
		</g>
		<rect x="79.9" y="152.3" class="st1" width="324.6" height="127.9"/>
		<g>
			<g>
				<circle class="st1" cx="218" cy="192.1" r="10.8"/>
				<circle class="st1" cx="218" cy="192.1" r="6.9"/>
			</g>
			<g>
				<circle class="st1" cx="164" cy="192.1" r="10.8"/>
				<circle class="st1" cx="164" cy="192.1" r="6.9"/>
			</g>
			<g>
				<circle class="st1" cx="191" cy="192.1" r="10.8"/>
				<circle class="st1" cx="191" cy="192.1" r="6.9"/>
			</g>
		</g>
		<g>
			<g>
				<circle class="st1" cx="218" cy="239.3" r="10.8"/>
				<circle class="st1" cx="218" cy="239.3" r="6.9"/>
			</g>
			<g>
				<circle class="st1" cx="164" cy="239.3" r="10.8"/>
				<circle class="st1" cx="164" cy="239.3" r="6.9"/>
			</g>
			<g>
				<circle class="st1" cx="191" cy="239.3" r="10.8"/>
				<circle class="st1" cx="191" cy="239.3" r="6.9"/>
			</g>
		</g>
		<g>
			<rect x="289.3" y="181.3" class="st1" width="115.2" height="74.9"/>
			<g>
				<line class="st1" x1="302.3" y1="199.1" x2="351.3" y2="199.1"/>
				<line class="st1" x1="302.3" y1="204.7" x2="351.3" y2="204.7"/>
				<line class="st1" x1="302.3" y1="210.3" x2="351.3" y2="210.3"/>
				<line class="st1" x1="302.3" y1="215.9" x2="351.3" y2="215.9"/>
				<line class="st1" x1="302.3" y1="221.6" x2="351.3" y2="221.6"/>
				<line class="st1" x1="302.3" y1="227.2" x2="351.3" y2="227.2"/>
				<line class="st1" x1="302.3" y1="232.8" x2="351.3" y2="232.8"/>
				<line class="st1" x1="302.3" y1="238.4" x2="351.3" y2="238.4"/>
			</g>
			
				<ellipse transform="matrix(0.7071 -0.7071 0.7071 0.7071 -46.2876 264.5411)" class="st1" cx="296.2" cy="188.1" rx="2.2" ry="2.2"/>
			
				<ellipse transform="matrix(0.7071 -0.7071 0.7071 0.7071 -89.5553 282.4631)" class="st1" cx="296.2" cy="249.3" rx="2.2" ry="2.2"/>
		</g>
		<g>
			<g>
				<polyline class="st1" points="404.5,239.3 415.5,239.3 415.5,194.1 404.5,194.1 				"/>
				<rect x="415.5" y="203.2" class="st1" width="9.9" height="9.9"/>
				<rect x="415.5" y="221.2" class="st1" width="9.9" height="9.9"/>
			</g>
		</g>
		<g>
			<g>
				<polyline class="st1" points="79.9,194.1 69,194.1 69,239.3 79.9,239.3 				"/>
				
					<rect x="59" y="220.3" transform="matrix(-1 2.695807e-10 -2.695807e-10 -1 127.9729 450.4763)" class="st1" width="9.9" height="9.9"/>
				
					<rect x="59" y="202.3" transform="matrix(-1 2.695807e-10 -2.695807e-10 -1 127.9729 414.4868)" class="st1" width="9.9" height="9.9"/>
			</g>
		</g>
		<line class="st1" x1="79.9" y1="215.7" x2="289.3" y2="215.7"/>
		<path class="st1" d="M59,207.8c-21-3.2-41.1-11.7-58-24.5"/>
		<path class="st1" d="M59,225.1c-19.7,1.1-39.6-2.4-57.7-10.1"/>
		<path class="st1" d="M425.4,207.4c18.1-2.5,36.5-4,54.6-3.1"/>
		<path class="st1" d="M425.4,224.3c18.2-1.7,36.7-1.4,54.6,1.9"/>
		<line class="st1" x1="395.7" y1="181.2" x2="395.7" y2="254.3"/>
		<line class="st1" x1="420.7" y1="203.7" x2="420.7" y2="211.7"/>
		<line class="st1" x1="419.7" y1="221.7" x2="419.7" y2="230.7"/>
		<line class="st1" x1="76.7" y1="194.7" x2="76.7" y2="238.2"/>
		<line class="st1" x1="63.7" y1="203.2" x2="63.7" y2="211.9"/>
		<line class="st1" x1="66.2" y1="220.7" x2="66.2" y2="230.2"/>
		<line class="st1" x1="407.7" y1="195.7" x2="407.7" y2="239"/>
		<line class="st1" x1="392.2" y1="181.2" x2="392.2" y2="255.7"/>
	</g>
</g>
</svg>
