<?xml version="1.0" encoding="utf-8"?>
<!-- Generator: Adobe Illustrator 20.1.0, SVG Export Plug-In . SVG Version: 6.00 Build 0)  -->
<svg version="1.1" id="Слой_1" xmlns="http://www.w3.org/2000/svg" xmlns:xlink="http://www.w3.org/1999/xlink" x="0px" y="0px"
	 viewBox="0 0 245.3 498.8" style="enable-background:new 0 0 245.3 498.8;" xml:space="preserve">
<style type="text/css">
	.st0{fill:#F4E1A1;}
	.st1{fill:none;stroke:#817957;stroke-width:2;stroke-linecap:round;stroke-linejoin:round;stroke-miterlimit:10;}
</style>
<g id="_x30_1">
	<g>
		<rect x="233.5" y="121.9" class="st0" width="10.8" height="40"/>
		<path class="st1" d="M221.7,110h5.4c6.6,0,11.9,5.3,11.9,11.9v0"/>
		<path class="st1" d="M239,161.9L239,161.9c0,6.6-5.3,11.9-11.9,11.9h-5.4"/>
		<rect x="233.5" y="121.9" class="st1" width="10.8" height="40"/>
		<line class="st1" x1="244.3" y1="129.7" x2="233.5" y2="129.7"/>
		<line class="st1" x1="244.3" y1="154.2" x2="233.5" y2="154.2"/>
	</g>
	<g>
		<rect x="138.3" y="1" class="st0" width="47.3" height="71.6"/>
		<rect x="45" y="1" class="st0" width="17.3" height="71.6"/>
		<rect x="45" y="1" class="st1" width="17.3" height="71.6"/>
		<rect x="138.3" y="1" class="st1" width="47.3" height="71.6"/>
		<rect x="175" y="15.8" class="st1" width="10.7" height="40.7"/>
		<line class="st1" x1="138.7" y1="7.8" x2="185.7" y2="7.8"/>
		<line class="st1" x1="45.7" y1="7.8" x2="62.3" y2="7.8"/>
		<line class="st1" x1="45.7" y1="11.8" x2="61.7" y2="11.8"/>
		<line class="st1" x1="45.7" y1="62.8" x2="61.7" y2="62.8"/>
		<line class="st1" x1="151.7" y1="7.8" x2="151.7" y2="70.9"/>
		<line class="st1" x1="138.3" y1="68.2" x2="150.3" y2="68.2"/>
	</g>
	<g>
		<g>
			<rect x="221.7" y="243.9" class="st0" width="17.9" height="82.6"/>
			<polygon class="st0" points="18.9,231.3 1.1,231.3 1.1,313.9 18.9,313.9 18.9,343.8 221.7,343.8 221.7,211.8 18.9,211.8 			"/>
		</g>
		<rect x="221.7" y="243.9" class="st1" width="17.9" height="82.6"/>
		<rect x="1.1" y="231.3" class="st1" width="17.9" height="82.6"/>
		<g>
			<rect x="92.9" y="235.2" class="st1" width="74.9" height="74.9"/>
			<path class="st1" d="M145.8,299.8h-30.9c-6.5,0-11.8-5.3-11.8-11.8v-30.9c0-6.5,5.3-11.8,11.8-11.8h30.9
				c6.5,0,11.8,5.3,11.8,11.8V288C157.5,294.6,152.3,299.8,145.8,299.8z"/>
			
				<ellipse transform="matrix(0.7071 -0.7071 0.7071 0.7071 -141.9211 141.3926)" class="st1" cx="99.7" cy="242" rx="2.2" ry="2.2"/>
			
				<ellipse transform="matrix(0.7071 -0.7071 0.7071 0.7071 -123.9991 184.6602)" class="st1" cx="160.9" cy="242" rx="2.2" ry="2.2"/>
			
				<ellipse transform="matrix(0.7071 -0.7071 0.7071 0.7071 -185.1888 159.3146)" class="st1" cx="99.7" cy="303.2" rx="2.2" ry="2.2"/>
			
				<ellipse transform="matrix(0.7071 -0.7071 0.7071 0.7071 -167.2667 202.5823)" class="st1" cx="160.9" cy="303.2" rx="2.2" ry="2.2"/>
		</g>
		<line class="st1" x1="214.7" y1="211.8" x2="214.7" y2="343.8"/>
		<g>
			<g>
				<circle class="st1" cx="59.8" cy="299.6" r="10.8"/>
				<circle class="st1" cx="59.8" cy="299.6" r="6.9"/>
			</g>
			<g>
				<circle class="st1" cx="59.8" cy="245.6" r="10.8"/>
				<circle class="st1" cx="59.8" cy="245.6" r="6.9"/>
			</g>
			<g>
				<circle class="st1" cx="59.8" cy="272.6" r="10.8"/>
				<circle class="st1" cx="59.8" cy="272.6" r="6.9"/>
			</g>
		</g>
		<line class="st1" x1="10.7" y1="232.8" x2="10.7" y2="313.9"/>
		<line class="st1" x1="229.7" y1="243.9" x2="229.7" y2="325.8"/>
		<rect x="18.9" y="211.8" class="st1" width="202.7" height="132"/>
		<line class="st1" x1="146.3" y1="309.8" x2="146.3" y2="342.5"/>
		<line class="st1" x1="141" y1="312.5" x2="141" y2="342.5"/>
		<line class="st1" x1="116.3" y1="309.8" x2="116.3" y2="342.6"/>
		<line class="st1" x1="109" y1="211.8" x2="109" y2="233.2"/>
		<path class="st1" d="M167.7,255.8c0.7,0,1.3,0,2,0h43"/>
		<line class="st1" x1="167.7" y1="264.8" x2="213.7" y2="264.8"/>
		<line class="st1" x1="167.7" y1="290.8" x2="213.7" y2="290.8"/>
		<line class="st1" x1="1" y1="237.2" x2="10" y2="237.2"/>
		<line class="st1" x1="1" y1="243.8" x2="10.4" y2="243.8"/>
		<line class="st1" x1="1.1" y1="251.2" x2="10.7" y2="251.2"/>
		<line class="st1" x1="1" y1="259.8" x2="10" y2="259.8"/>
		<line class="st1" x1="1.1" y1="267.2" x2="9.7" y2="267.2"/>
		<line class="st1" x1="1.1" y1="274.2" x2="10.4" y2="274.2"/>
		<line class="st1" x1="1.7" y1="280.5" x2="10.7" y2="280.5"/>
		<line class="st1" x1="1" y1="286.8" x2="10.5" y2="286.8"/>
		<line class="st1" x1="1.7" y1="293.5" x2="9.7" y2="293.5"/>
		<line class="st1" x1="1.7" y1="301.8" x2="9.3" y2="301.8"/>
		<line class="st1" x1="1.3" y1="308.5" x2="10" y2="308.5"/>
		<line class="st1" x1="230" y1="250.5" x2="239.3" y2="250.5"/>
		<line class="st1" x1="171.3" y1="256.8" x2="171.3" y2="264.2"/>
		<line class="st1" x1="175" y1="257.5" x2="175" y2="264.5"/>
		<line class="st1" x1="181.7" y1="256.8" x2="181.7" y2="263.5"/>
		<line class="st1" x1="141" y1="314.5" x2="145.2" y2="314.5"/>
		<line class="st1" x1="141.3" y1="323.2" x2="146.3" y2="323.2"/>
		<line class="st1" x1="230.3" y1="257.2" x2="238" y2="257.2"/>
		<line class="st1" x1="230" y1="264.5" x2="238.7" y2="264.5"/>
		<line class="st1" x1="230.3" y1="271.5" x2="238.7" y2="271.5"/>
		<line class="st1" x1="230.3" y1="278.8" x2="238.4" y2="278.8"/>
		<line class="st1" x1="230.3" y1="285.2" x2="238" y2="285.2"/>
		<line class="st1" x1="230.3" y1="291.2" x2="238.4" y2="291.2"/>
		<line class="st1" x1="230.3" y1="298.8" x2="238.7" y2="298.8"/>
		<line class="st1" x1="230.3" y1="305.2" x2="238.7" y2="305.2"/>
		<line class="st1" x1="230" y1="311.5" x2="238.3" y2="311.5"/>
		<line class="st1" x1="230.3" y1="319.2" x2="238.3" y2="319.2"/>
		<path class="st1" d="M103.3,276.5c4.6,3.1,9.4,5.8,14.6,7.4s11,2,16.2,0.3c2.2-0.7,4.3-1.8,6.6-2.5c5.4-1.6,11.6-0.6,16.2,2.7"/>
		<path class="st1" d="M103.1,260.4c2,3.7,6.7,4.8,10.9,5.5c5.6,0.9,11.2,1.8,16.8,1.2c4.8-0.6,9.5-2.3,14.4-2.3
			c4.2-0.1,8.5,1.2,12,3.5"/>
		<path class="st1" d="M103.5,256.4c7.1,2.4,14.8,3.3,22.3,2.7c2.8-0.3,6.4-1.7,6-4.5c-0.2-1.2-1.1-2.1-2-2.9
			c-1.8-1.7-3.6-3.4-5.4-5.1"/>
	</g>
	<g>
		<polygon class="st0" points="221.7,484 221.7,349.8 18.9,349.8 18.9,371.4 1.1,371.4 1.1,453.9 18.9,453.9 18.9,484 18.9,497.8 
			221.7,497.8 221.7,484 		"/>
		<rect x="1.1" y="371.4" class="st1" width="17.9" height="82.6"/>
		<g>
			<rect x="92.9" y="375.2" class="st1" width="74.9" height="74.9"/>
			<path class="st1" d="M145.8,439.9h-30.9c-6.5,0-11.8-5.3-11.8-11.8v-30.9c0-6.5,5.3-11.8,11.8-11.8h30.9
				c6.5,0,11.8,5.3,11.8,11.8v30.9C157.5,434.6,152.3,439.9,145.8,439.9z"/>
			
				<ellipse transform="matrix(0.7071 -0.7071 0.7071 0.7071 -240.9361 182.4059)" class="st1" cx="99.7" cy="382" rx="2.2" ry="2.2"/>
			
				<ellipse transform="matrix(0.7071 -0.7071 0.7071 0.7071 -223.0141 225.6736)" class="st1" cx="160.9" cy="382" rx="2.2" ry="2.2"/>
			
				<ellipse transform="matrix(0.7071 -0.7071 0.7071 0.7071 -284.2038 200.328)" class="st1" cx="99.7" cy="443.2" rx="2.2" ry="2.2"/>
			
				<ellipse transform="matrix(0.7071 -0.7071 0.7071 0.7071 -266.2817 243.5956)" class="st1" cx="160.9" cy="443.2" rx="2.2" ry="2.2"/>
		</g>
		<rect x="18.9" y="484" class="st1" width="202.7" height="13.8"/>
		<line class="st1" x1="214.7" y1="349.8" x2="214.7" y2="484"/>
		<g>
			<g>
				<circle class="st1" cx="59.8" cy="439.6" r="10.8"/>
				<circle class="st1" cx="59.8" cy="439.6" r="6.9"/>
			</g>
			<g>
				<circle class="st1" cx="59.8" cy="385.6" r="10.8"/>
				<circle class="st1" cx="59.8" cy="385.6" r="6.9"/>
			</g>
		</g>
		<line class="st1" x1="13.7" y1="371.8" x2="13.7" y2="452.8"/>
		<rect x="18.9" y="349.8" class="st1" width="202.7" height="148"/>
		<line class="st1" x1="112.3" y1="449.8" x2="112.3" y2="484"/>
		<line class="st1" x1="121" y1="451.2" x2="121" y2="483.2"/>
		<line class="st1" x1="129.7" y1="351.2" x2="129.7" y2="373.2"/>
		<path class="st1" d="M167.7,432.8c0-0.3,0-0.7,0-1h47"/>
		<line class="st1" x1="19.7" y1="404.8" x2="91.7" y2="404.8"/>
		<line class="st1" x1="2" y1="377.8" x2="13" y2="377.8"/>
		<line class="st1" x1="2" y1="384.5" x2="13.3" y2="384.5"/>
		<line class="st1" x1="2.3" y1="391.8" x2="13.3" y2="391.8"/>
		<line class="st1" x1="2" y1="399.2" x2="13" y2="399.2"/>
		<line class="st1" x1="1.7" y1="405.8" x2="13" y2="405.8"/>
		<line class="st1" x1="2" y1="412.8" x2="13" y2="412.8"/>
		<line class="st1" x1="2" y1="418.8" x2="13" y2="418.8"/>
		<line class="st1" x1="1.3" y1="425.8" x2="12.7" y2="425.8"/>
		<line class="st1" x1="1.7" y1="432.2" x2="13" y2="432.2"/>
		<line class="st1" x1="2" y1="438.2" x2="12.3" y2="438.2"/>
		<line class="st1" x1="1.7" y1="444.5" x2="13" y2="444.5"/>
		<line class="st1" x1="112.7" y1="455.8" x2="121" y2="455.8"/>
		<line class="st1" x1="113.3" y1="460.5" x2="121" y2="460.5"/>
		<line class="st1" x1="113" y1="478.5" x2="121.1" y2="478.5"/>
		<path class="st1" d="M103.5,425.5c9.1,4.6,21.1,2.4,27.9-5.2c2.1-2.3,3.8-5.1,6.6-6.3c3.3-1.4,7.1-0.2,10.6-0.8
			c3.6-0.6,6.7-3.3,8-6.8"/>
		<path class="st1" d="M103.2,412.8c7.2,0.5,14.6-2.9,18.9-8.7c1.7-2.3,3.1-5,5.5-6.5c4-2.6,9.3-0.9,14.1-1.4
			c4.4-0.4,8.5-2.8,11.1-6.4"/>
		<path class="st1" d="M157.6,424c-4.3-1.9-9.6-1.1-13.1,2.1c-3.4,3.2-4.7,8.5-3.1,12.9"/>
	</g>
	<g>
		<polygon class="st0" points="18.9,72.6 18.9,91.3 1.1,91.3 1.1,173.9 18.9,173.9 18.9,197.2 221.7,197.2 221.7,72.6 		"/>
		<rect x="1.1" y="91.3" class="st1" width="17.9" height="82.6"/>
		<g>
			<rect x="92.9" y="95.1" class="st1" width="74.9" height="74.9"/>
			<path class="st1" d="M145.8,159.8h-30.9c-6.5,0-11.8-5.3-11.8-11.8v-30.9c0-6.5,5.3-11.8,11.8-11.8h30.9
				c6.5,0,11.8,5.3,11.8,11.8V148C157.5,154.5,152.3,159.8,145.8,159.8z"/>
			
				<ellipse transform="matrix(0.7071 -0.7071 0.7071 0.7071 -42.9061 100.3792)" class="st1" cx="99.7" cy="102" rx="2.2" ry="2.2"/>
			
				<ellipse transform="matrix(0.7071 -0.7071 0.7071 0.7071 -24.9841 143.6469)" class="st1" cx="160.9" cy="102" rx="2.2" ry="2.2"/>
			
				<ellipse transform="matrix(0.7071 -0.7071 0.7071 0.7071 -86.1738 118.3013)" class="st1" cx="99.7" cy="163.2" rx="2.2" ry="2.2"/>
			
				<ellipse transform="matrix(0.7071 -0.7071 0.7071 0.7071 -68.2517 161.5689)" class="st1" cx="160.9" cy="163.2" rx="2.2" ry="2.2"/>
		</g>
		<line class="st1" x1="214.7" y1="72.6" x2="214.7" y2="197.2"/>
		<g>
			<g>
				<circle class="st1" cx="59.8" cy="159.6" r="10.8"/>
				<circle class="st1" cx="59.8" cy="159.6" r="6.9"/>
			</g>
			<g>
				<circle class="st1" cx="59.8" cy="132.6" r="10.8"/>
				<circle class="st1" cx="59.8" cy="132.6" r="6.9"/>
			</g>
		</g>
		<line class="st1" x1="11.7" y1="91.8" x2="11.7" y2="173"/>
		<rect x="18.9" y="72.6" class="st1" width="202.7" height="124.6"/>
		<line class="st1" x1="121.7" y1="170.5" x2="121.7" y2="196.8"/>
		<line class="st1" x1="154.3" y1="169.8" x2="154.3" y2="196.5"/>
		<line class="st1" x1="111.7" y1="73.8" x2="111.7" y2="95.2"/>
		<line class="st1" x1="169.7" y1="129.8" x2="212.8" y2="129.8"/>
		<path class="st1" d="M18.9,106.8c1.2,0,2.5,0,3.7,0h67.3"/>
		<line class="st1" x1="1.3" y1="97.8" x2="11.1" y2="97.8"/>
		<line class="st1" x1="1" y1="106.2" x2="11.7" y2="106.2"/>
		<line class="st1" x1="1" y1="112.2" x2="10.7" y2="112.2"/>
		<line class="st1" x1="1" y1="119.2" x2="11.7" y2="119.2"/>
		<line class="st1" x1="1.3" y1="126.2" x2="11" y2="126.2"/>
		<line class="st1" x1="1.3" y1="133.2" x2="10.7" y2="133.2"/>
		<line class="st1" x1="1.7" y1="140.2" x2="11.7" y2="140.2"/>
		<line class="st1" x1="1.7" y1="146.8" x2="11.7" y2="146.8"/>
		<line class="st1" x1="1" y1="152.8" x2="11.7" y2="152.8"/>
		<line class="st1" x1="1.3" y1="158.8" x2="11" y2="158.8"/>
		<line class="st1" x1="1.3" y1="166.5" x2="11" y2="166.5"/>
		<path class="st1" d="M136.6,158.2c-4.2-5.8-9.2-12.1-16.3-13.3c-1.9-0.3-4-0.3-5.5-1.4c-0.8-0.6-1.3-1.4-1.9-2.2
			c-2.3-2.9-5.6-4.9-9.2-5.6"/>
		<path class="st1" d="M103.3,120.2c3.5-0.6,6.9,1.3,9.7,3.5c2.7,2.2,5.1,4.9,8.2,6.7c3.6,2,7.9,2.6,11.9,3.8
			c9.6,3.1,17.5,11.2,20.4,20.9"/>
		<path class="st1" d="M116.9,106.5c0.1,5.1,1.3,10.9,5.6,13.7c4.6,3,10.9,1.2,15.5-1.9c4.3-2.9,8-6.9,9.6-11.8"/>
	</g>
	<g>
		<line class="st1" x1="18.9" y1="197.2" x2="18.9" y2="211.8"/>
		<line class="st1" x1="221.7" y1="197.2" x2="221.7" y2="211.8"/>
		<line class="st1" x1="18.9" y1="343.8" x2="18.9" y2="349.8"/>
		<line class="st1" x1="221.7" y1="343.8" x2="221.7" y2="349.8"/>
	</g>
</g>
</svg>
