<?xml version="1.0" encoding="utf-8"?>
<!-- Generator: Adobe Illustrator 20.1.0, SVG Export Plug-In . SVG Version: 6.00 Build 0)  -->
<svg version="1.1" id="Слой_1" xmlns="http://www.w3.org/2000/svg" xmlns:xlink="http://www.w3.org/1999/xlink" x="0px" y="0px"
	 viewBox="0 0 890.9 498.8" style="enable-background:new 0 0 890.9 498.8;" xml:space="preserve">
<style type="text/css">
	.st0{fill:#F4E1A1;}
	.st1{fill:none;stroke:#817957;stroke-width:2;stroke-linecap:round;stroke-linejoin:round;stroke-miterlimit:10;}
	.st2{fill:#FFF0AA;}
	.st3{fill:none;stroke:#312F2C;stroke-width:1.8;stroke-linecap:round;stroke-linejoin:round;stroke-miterlimit:10;}
	.st4{fill:none;stroke:#312F2C;stroke-width:0.6;stroke-linecap:round;stroke-linejoin:round;stroke-miterlimit:10;}
	.st5{fill:none;stroke:#312F2C;stroke-width:0.6;stroke-miterlimit:10;}
	.st6{fill:none;stroke:#312F2C;stroke-width:1.2;stroke-linecap:round;stroke-linejoin:round;stroke-miterlimit:10;}
	.st7{fill:none;stroke:#312F2C;stroke-width:3.6;stroke-linecap:round;stroke-linejoin:round;stroke-miterlimit:10;}
	
		.st8{fill:none;stroke:#312F2C;stroke-width:0.6;stroke-linecap:round;stroke-linejoin:round;stroke-miterlimit:10;stroke-dasharray:1.2;}
	.st9{fill:none;stroke:#312F2C;stroke-width:0.6;stroke-linecap:round;stroke-linejoin:round;stroke-dasharray:1.1675,1.1675;}
</style>
<g id="_x30_1">
	<g>
		<rect x="338.2" y="121.9" class="st0" width="10.8" height="40"/>
		<path class="st1" d="M326.3,110h5.4c6.6,0,11.9,5.3,11.9,11.9v0"/>
		<path class="st1" d="M343.7,161.9L343.7,161.9c0,6.6-5.3,11.9-11.9,11.9h-5.4"/>
		<rect x="338.2" y="121.9" class="st1" width="10.8" height="40"/>
		<line class="st1" x1="349" y1="129.7" x2="338.2" y2="129.7"/>
		<line class="st1" x1="349" y1="154.2" x2="338.2" y2="154.2"/>
	</g>
	<g>
		<rect x="243" y="1" class="st0" width="47.3" height="71.6"/>
		<rect x="149.7" y="1" class="st0" width="17.3" height="71.6"/>
		<rect x="149.7" y="1" class="st1" width="17.3" height="71.6"/>
		<rect x="243" y="1" class="st1" width="47.3" height="71.6"/>
		<rect x="279.7" y="15.8" class="st1" width="10.7" height="40.7"/>
		<line class="st1" x1="243.3" y1="7.8" x2="290.3" y2="7.8"/>
		<line class="st1" x1="150.3" y1="7.8" x2="167" y2="7.8"/>
		<line class="st1" x1="150.3" y1="11.8" x2="166.3" y2="11.8"/>
		<line class="st1" x1="150.3" y1="62.8" x2="166.4" y2="62.8"/>
		<line class="st1" x1="256.3" y1="7.8" x2="256.3" y2="70.9"/>
		<line class="st1" x1="243" y1="68.2" x2="255" y2="68.2"/>
	</g>
	<g>
		<g>
			<rect x="326.3" y="243.9" class="st0" width="17.9" height="82.6"/>
			<polygon class="st0" points="123.6,231.3 105.7,231.3 105.7,313.9 123.6,313.9 123.6,343.8 326.3,343.8 326.3,211.8 123.6,211.8 
							"/>
		</g>
		<rect x="326.3" y="243.9" class="st1" width="17.9" height="82.6"/>
		<rect x="105.7" y="231.3" class="st1" width="17.9" height="82.6"/>
		<g>
			<rect x="197.5" y="235.2" class="st1" width="74.9" height="74.9"/>
			<path class="st1" d="M250.4,299.8h-30.9c-6.5,0-11.8-5.3-11.8-11.8v-30.9c0-6.5,5.3-11.8,11.8-11.8h30.9
				c6.5,0,11.8,5.3,11.8,11.8V288C262.2,294.6,256.9,299.8,250.4,299.8z"/>
			
				<ellipse transform="matrix(0.7071 -0.7071 0.7071 0.7071 -111.2607 215.4135)" class="st1" cx="204.4" cy="242" rx="2.2" ry="2.2"/>
			
				<ellipse transform="matrix(0.7071 -0.7071 0.7071 0.7071 -93.3386 258.6811)" class="st1" cx="265.6" cy="242" rx="2.2" ry="2.2"/>
			
				<ellipse transform="matrix(0.7071 -0.7071 0.7071 0.7071 -154.5283 233.3355)" class="st1" cx="204.4" cy="303.2" rx="2.2" ry="2.2"/>
			
				<ellipse transform="matrix(0.7071 -0.7071 0.7071 0.7071 -136.6063 276.6032)" class="st1" cx="265.6" cy="303.2" rx="2.2" ry="2.2"/>
		</g>
		<line class="st1" x1="319.3" y1="211.8" x2="319.3" y2="343.8"/>
		<g>
			<g>
				<circle class="st1" cx="164.5" cy="299.6" r="10.8"/>
				<circle class="st1" cx="164.5" cy="299.6" r="6.9"/>
			</g>
			<g>
				<circle class="st1" cx="164.5" cy="245.6" r="10.8"/>
				<circle class="st1" cx="164.5" cy="245.6" r="6.9"/>
			</g>
			<g>
				<circle class="st1" cx="164.5" cy="272.6" r="10.8"/>
				<circle class="st1" cx="164.5" cy="272.6" r="6.9"/>
			</g>
		</g>
		<line class="st1" x1="115.3" y1="232.8" x2="115.3" y2="313.9"/>
		<line class="st1" x1="334.3" y1="243.9" x2="334.3" y2="325.8"/>
		<rect x="123.6" y="211.8" class="st1" width="202.7" height="132"/>
		<line class="st1" x1="251" y1="309.8" x2="251" y2="342.5"/>
		<line class="st1" x1="245.7" y1="312.5" x2="245.7" y2="342.5"/>
		<line class="st1" x1="221" y1="309.8" x2="221" y2="342.6"/>
		<line class="st1" x1="213.7" y1="211.8" x2="213.7" y2="233.2"/>
		<path class="st1" d="M272.3,255.8c0.7,0,1.3,0,2,0h43"/>
		<line class="st1" x1="272.3" y1="264.8" x2="318.4" y2="264.8"/>
		<line class="st1" x1="272.3" y1="290.8" x2="318.4" y2="290.8"/>
		<line class="st1" x1="105.7" y1="237.2" x2="114.7" y2="237.2"/>
		<line class="st1" x1="105.7" y1="243.8" x2="115" y2="243.8"/>
		<line class="st1" x1="105.7" y1="251.2" x2="115.3" y2="251.2"/>
		<line class="st1" x1="105.7" y1="259.8" x2="114.7" y2="259.8"/>
		<line class="st1" x1="105.7" y1="267.2" x2="114.3" y2="267.2"/>
		<line class="st1" x1="105.7" y1="274.2" x2="115.1" y2="274.2"/>
		<line class="st1" x1="106.3" y1="280.5" x2="115.4" y2="280.5"/>
		<line class="st1" x1="105.7" y1="286.8" x2="115.2" y2="286.8"/>
		<line class="st1" x1="106.3" y1="293.5" x2="114.4" y2="293.5"/>
		<line class="st1" x1="106.3" y1="301.8" x2="114" y2="301.8"/>
		<line class="st1" x1="106" y1="308.5" x2="114.7" y2="308.5"/>
		<line class="st1" x1="334.7" y1="250.5" x2="344" y2="250.5"/>
		<line class="st1" x1="276" y1="256.8" x2="276" y2="264.2"/>
		<line class="st1" x1="279.7" y1="257.5" x2="279.7" y2="264.5"/>
		<line class="st1" x1="286.3" y1="256.8" x2="286.3" y2="263.5"/>
		<line class="st1" x1="245.7" y1="314.5" x2="249.9" y2="314.5"/>
		<line class="st1" x1="246" y1="323.2" x2="251" y2="323.2"/>
		<line class="st1" x1="335" y1="257.2" x2="342.7" y2="257.2"/>
		<line class="st1" x1="334.7" y1="264.5" x2="343.4" y2="264.5"/>
		<line class="st1" x1="335" y1="271.5" x2="343.4" y2="271.5"/>
		<line class="st1" x1="335" y1="278.8" x2="343.1" y2="278.8"/>
		<line class="st1" x1="335" y1="285.2" x2="342.7" y2="285.2"/>
		<line class="st1" x1="335" y1="291.2" x2="343.1" y2="291.2"/>
		<line class="st1" x1="335" y1="298.8" x2="343.4" y2="298.8"/>
		<line class="st1" x1="335" y1="305.2" x2="343.4" y2="305.2"/>
		<line class="st1" x1="334.7" y1="311.5" x2="343" y2="311.5"/>
		<line class="st1" x1="335" y1="319.2" x2="343" y2="319.2"/>
		<path class="st1" d="M208,276.5c4.6,3.1,9.4,5.8,14.6,7.4s11,2,16.2,0.3c2.2-0.7,4.3-1.8,6.6-2.5c5.4-1.6,11.6-0.6,16.2,2.7"/>
		<path class="st1" d="M207.8,260.4c2,3.7,6.7,4.8,10.9,5.5c5.6,0.9,11.2,1.8,16.8,1.2c4.8-0.6,9.5-2.3,14.4-2.3
			c4.2-0.1,8.5,1.2,12,3.5"/>
		<path class="st1" d="M208.2,256.4c7.1,2.4,14.8,3.3,22.3,2.7c2.8-0.3,6.4-1.7,6-4.5c-0.2-1.2-1.1-2.1-2-2.9
			c-1.8-1.7-3.6-3.4-5.4-5.1"/>
	</g>
	<g>
		<polygon class="st0" points="326.3,484 326.3,349.8 123.6,349.8 123.6,371.4 105.7,371.4 105.7,453.9 123.6,453.9 123.6,484 
			123.6,497.8 326.3,497.8 326.3,484 		"/>
		<rect x="105.7" y="371.4" class="st1" width="17.9" height="82.6"/>
		<g>
			<rect x="197.5" y="375.2" class="st1" width="74.9" height="74.9"/>
			<path class="st1" d="M250.4,439.9h-30.9c-6.5,0-11.8-5.3-11.8-11.8v-30.9c0-6.5,5.3-11.8,11.8-11.8h30.9
				c6.5,0,11.8,5.3,11.8,11.8v30.9C262.2,434.6,256.9,439.9,250.4,439.9z"/>
			
				<ellipse transform="matrix(0.7071 -0.7071 0.7071 0.7071 -210.2757 256.4268)" class="st1" cx="204.4" cy="382" rx="2.2" ry="2.2"/>
			
				<ellipse transform="matrix(0.7071 -0.7071 0.7071 0.7071 -192.3536 299.6945)" class="st1" cx="265.6" cy="382" rx="2.2" ry="2.2"/>
			
				<ellipse transform="matrix(0.7071 -0.7071 0.7071 0.7071 -253.5433 274.3489)" class="st1" cx="204.4" cy="443.2" rx="2.2" ry="2.2"/>
			
				<ellipse transform="matrix(0.7071 -0.7071 0.7071 0.7071 -235.6213 317.6165)" class="st1" cx="265.6" cy="443.2" rx="2.2" ry="2.2"/>
		</g>
		<rect x="123.6" y="484" class="st1" width="202.7" height="13.8"/>
		<line class="st1" x1="319.3" y1="349.8" x2="319.3" y2="484"/>
		<g>
			<g>
				<circle class="st1" cx="164.5" cy="439.6" r="10.8"/>
				<circle class="st1" cx="164.5" cy="439.6" r="6.9"/>
			</g>
			<g>
				<circle class="st1" cx="164.5" cy="385.6" r="10.8"/>
				<circle class="st1" cx="164.5" cy="385.6" r="6.9"/>
			</g>
		</g>
		<line class="st1" x1="118.3" y1="371.8" x2="118.3" y2="452.8"/>
		<rect x="123.6" y="349.8" class="st1" width="202.7" height="148"/>
		<line class="st1" x1="217" y1="449.8" x2="217" y2="484"/>
		<line class="st1" x1="225.7" y1="451.2" x2="225.7" y2="483.2"/>
		<line class="st1" x1="234.3" y1="351.2" x2="234.3" y2="373.2"/>
		<path class="st1" d="M272.3,432.8c0-0.3,0-0.7,0-1h47"/>
		<line class="st1" x1="124.3" y1="404.8" x2="196.4" y2="404.8"/>
		<line class="st1" x1="106.7" y1="377.8" x2="117.7" y2="377.8"/>
		<line class="st1" x1="106.7" y1="384.5" x2="118" y2="384.5"/>
		<line class="st1" x1="107" y1="391.8" x2="118" y2="391.8"/>
		<line class="st1" x1="106.7" y1="399.2" x2="117.7" y2="399.2"/>
		<line class="st1" x1="106.3" y1="405.8" x2="117.7" y2="405.8"/>
		<line class="st1" x1="106.7" y1="412.8" x2="117.7" y2="412.8"/>
		<line class="st1" x1="106.7" y1="418.8" x2="117.7" y2="418.8"/>
		<line class="st1" x1="106" y1="425.8" x2="117.4" y2="425.8"/>
		<line class="st1" x1="106.3" y1="432.2" x2="117.7" y2="432.2"/>
		<line class="st1" x1="106.7" y1="438.2" x2="117" y2="438.2"/>
		<line class="st1" x1="106.3" y1="444.5" x2="117.7" y2="444.5"/>
		<line class="st1" x1="217.3" y1="455.8" x2="225.7" y2="455.8"/>
		<line class="st1" x1="218" y1="460.5" x2="225.7" y2="460.5"/>
		<line class="st1" x1="217.7" y1="478.5" x2="225.7" y2="478.5"/>
		<path class="st1" d="M208.2,425.5c9.1,4.6,21.1,2.4,27.9-5.2c2.1-2.3,3.8-5.1,6.6-6.3c3.3-1.4,7.1-0.2,10.6-0.8
			c3.6-0.6,6.7-3.3,8-6.8"/>
		<path class="st1" d="M207.9,412.8c7.2,0.5,14.6-2.9,18.9-8.7c1.7-2.3,3.1-5,5.5-6.5c4-2.6,9.3-0.9,14.1-1.4
			c4.4-0.4,8.5-2.8,11.1-6.4"/>
		<path class="st1" d="M262.3,424c-4.3-1.9-9.6-1.1-13.1,2.1c-3.4,3.2-4.7,8.5-3.1,12.9"/>
	</g>
	<g>
		<polygon class="st0" points="123.6,72.6 123.6,91.3 105.7,91.3 105.7,173.9 123.6,173.9 123.6,197.2 326.3,197.2 326.3,72.6 		"/>
		<rect x="105.7" y="91.3" class="st1" width="17.9" height="82.6"/>
		<g>
			<rect x="197.5" y="95.1" class="st1" width="74.9" height="74.9"/>
			<path class="st1" d="M250.4,159.8h-30.9c-6.5,0-11.8-5.3-11.8-11.8v-30.9c0-6.5,5.3-11.8,11.8-11.8h30.9
				c6.5,0,11.8,5.3,11.8,11.8V148C262.2,154.5,256.9,159.8,250.4,159.8z"/>
			
				<ellipse transform="matrix(0.7071 -0.7071 0.7071 0.7071 -12.2457 174.4001)" class="st1" cx="204.4" cy="102" rx="2.2" ry="2.2"/>
			<ellipse transform="matrix(0.7071 -0.7071 0.7071 0.7071 5.6764 217.6678)" class="st1" cx="265.6" cy="102" rx="2.2" ry="2.2"/>
			
				<ellipse transform="matrix(0.7071 -0.7071 0.7071 0.7071 -55.5133 192.3222)" class="st1" cx="204.4" cy="163.2" rx="2.2" ry="2.2"/>
			
				<ellipse transform="matrix(0.7071 -0.7071 0.7071 0.7071 -37.5913 235.5898)" class="st1" cx="265.6" cy="163.2" rx="2.2" ry="2.2"/>
		</g>
		<line class="st1" x1="319.3" y1="72.6" x2="319.3" y2="197.2"/>
		<g>
			<g>
				<circle class="st1" cx="164.5" cy="159.6" r="10.8"/>
				<circle class="st1" cx="164.5" cy="159.6" r="6.9"/>
			</g>
			<g>
				<circle class="st1" cx="164.5" cy="132.6" r="10.8"/>
				<circle class="st1" cx="164.5" cy="132.6" r="6.9"/>
			</g>
		</g>
		<line class="st1" x1="116.3" y1="91.8" x2="116.3" y2="173"/>
		<rect x="123.6" y="72.6" class="st1" width="202.7" height="124.6"/>
		<line class="st1" x1="226.3" y1="170.5" x2="226.3" y2="196.8"/>
		<line class="st1" x1="259" y1="169.8" x2="259" y2="196.5"/>
		<line class="st1" x1="216.3" y1="73.8" x2="216.3" y2="95.2"/>
		<line class="st1" x1="274.3" y1="129.8" x2="317.5" y2="129.8"/>
		<path class="st1" d="M123.6,106.8c1.2,0,2.5,0,3.7,0h67.3"/>
		<line class="st1" x1="106" y1="97.8" x2="115.8" y2="97.8"/>
		<line class="st1" x1="105.7" y1="106.2" x2="116.4" y2="106.2"/>
		<line class="st1" x1="105.7" y1="112.2" x2="115.3" y2="112.2"/>
		<line class="st1" x1="105.7" y1="119.2" x2="116.3" y2="119.2"/>
		<line class="st1" x1="106" y1="126.2" x2="115.7" y2="126.2"/>
		<line class="st1" x1="106" y1="133.2" x2="115.4" y2="133.2"/>
		<line class="st1" x1="106.3" y1="140.2" x2="116.3" y2="140.2"/>
		<line class="st1" x1="106.3" y1="146.8" x2="116.3" y2="146.8"/>
		<line class="st1" x1="105.7" y1="152.8" x2="116.3" y2="152.8"/>
		<line class="st1" x1="106" y1="158.8" x2="115.7" y2="158.8"/>
		<line class="st1" x1="106" y1="166.5" x2="115.7" y2="166.5"/>
		<path class="st1" d="M241.3,158.2c-4.2-5.8-9.2-12.1-16.3-13.3c-1.9-0.3-4-0.3-5.5-1.4c-0.8-0.6-1.3-1.4-1.9-2.2
			c-2.3-2.9-5.6-4.9-9.2-5.6"/>
		<path class="st1" d="M207.9,120.2c3.5-0.6,6.9,1.3,9.7,3.5c2.7,2.2,5.1,4.9,8.2,6.7c3.6,2,7.9,2.6,11.9,3.8
			c9.6,3.1,17.5,11.2,20.4,20.9"/>
		<path class="st1" d="M221.6,106.5c0.1,5.1,1.3,10.9,5.6,13.7c4.6,3,10.9,1.2,15.5-1.9c4.3-2.9,8-6.9,9.6-11.8"/>
	</g>
	<g>
		<line class="st1" x1="123.6" y1="197.2" x2="123.6" y2="211.8"/>
		<line class="st1" x1="326.3" y1="197.2" x2="326.3" y2="211.8"/>
		<line class="st1" x1="123.6" y1="343.8" x2="123.6" y2="349.8"/>
		<line class="st1" x1="326.3" y1="343.8" x2="326.3" y2="349.8"/>
	</g>
</g>
<g>
	<path class="st2" d="M24.7,148.6c0.8-0.3,1.5-0.9,1.9-1.7l2.7-5.6h0.8c0.5,0,0.9-0.4,0.9-0.9v-0.8h2.6c0.5,0,0.9-0.4,0.9-0.9v-0.7
		h4.2c0.5,0.6,1,1.1,1.6,1.6v3.2c0,0.5,0.4,0.9,0.9,0.9h11.4c0.5,0,0.9-0.4,0.9-0.9v-3.2c0.6-0.5,1.1-1,1.6-1.6h4.2v0.7
		c0,0.5,0.4,0.9,0.9,0.9h11.4c0.5,0,0.9-0.4,0.9-0.9v-0.7h32.3c0.5,0,0.9-0.4,0.9-0.9v-15.2c0-0.5-0.4-0.9-0.9-0.9H72.5v-0.7
		c0-0.5-0.4-0.9-0.9-0.9H60.2c-0.5,0-0.9,0.4-0.9,0.9v0.7h-5.8v-0.7c0-0.5-0.4-0.9-0.9-0.9H41.2c-0.5,0-0.9,0.4-0.9,0.9v0.7h-5.8
		v-0.7c0-0.5-0.4-0.9-0.9-0.9H31v-0.8c0-0.5-0.4-0.9-0.9-0.9H17.3h0h0H7.2c-1.8,0-3.3,1.5-3.3,3.3c0,1.8,1.5,3.3,3.3,3.3h9.2v1.9
		h-11c-1.8,0-3.3,1.5-3.3,3.3c0,1.8,1.5,3.3,3.3,3.3h11v1.9H6.6c-1.8,0-3.3,1.5-3.3,3.3s1.5,3.3,3.3,3.3h10.7h4.6l-1.3,2.8
		c-0.2,0.5-0.3,0.9-0.3,1.4c0,0.4,0.1,0.7,0.2,1.1c0.3,0.8,0.9,1.5,1.7,1.9C22.9,148.8,23.8,148.9,24.7,148.6z"/>
	<g>
		<g>
			<g>
				<line class="st3" x1="33.6" y1="121.7" x2="41.2" y2="121.7"/>
				<line class="st3" x1="52.6" y1="121.7" x2="60.2" y2="121.7"/>
				<line class="st3" x1="71.6" y1="121.7" x2="105.7" y2="121.7"/>
				<line class="st4" x1="94.4" y1="137" x2="94.4" y2="121.7"/>
				<line class="st4" x1="90.6" y1="137" x2="90.6" y2="121.7"/>
				<line class="st4" x1="98.1" y1="137" x2="98.1" y2="121.7"/>
				<line class="st4" x1="101.9" y1="137" x2="101.9" y2="121.7"/>
				<line class="st4" x1="105.7" y1="137" x2="105.7" y2="121.7"/>
				<line class="st4" x1="75.3" y1="137" x2="75.3" y2="121.7"/>
				<line class="st4" x1="79.1" y1="137" x2="79.1" y2="121.7"/>
				<line class="st4" x1="86.8" y1="137" x2="86.8" y2="121.7"/>
				<line class="st4" x1="83" y1="137" x2="83" y2="121.7"/>
				<line class="st3" x1="33.6" y1="137" x2="39.2" y2="137"/>
				<line class="st3" x1="54.7" y1="137" x2="60.2" y2="137"/>
				<line class="st3" x1="71.6" y1="137" x2="105.7" y2="137"/>
				<line class="st4" x1="56.4" y1="121.7" x2="56.4" y2="137"/>
			</g>
			<path class="st3" d="M17.3,135.5H6.6c-1.3,0-2.4,1.1-2.4,2.4l0,0c0,1.3,1.1,2.4,2.4,2.4h10.7"/>
			<path class="st3" d="M23.3,140.3l-1.9,4c-0.6,1.2-0.1,2.7,1.1,3.2h0c1.2,0.6,2.7,0.1,3.2-1.1l2.9-6.1"/>
			<path class="st3" d="M17.3,118.4H7.2c-1.3,0-2.4,1.1-2.4,2.4v0c0,1.3,1.1,2.4,2.4,2.4h10.1"/>
			<path class="st3" d="M17.3,127H5.4c-1.3,0-2.4,1.1-2.4,2.4l0,0c0,1.3,1.1,2.4,2.4,2.4h11.9"/>
			
				<rect x="12.7" y="123" transform="matrix(4.518412e-11 1 -1 4.518412e-11 153.0889 105.7101)" class="st3" width="21.9" height="12.8"/>
			
				<rect x="22.6" y="127.6" transform="matrix(4.509086e-11 1 -1 4.509086e-11 161.2388 97.5602)" class="st3" width="18.4" height="3.5"/>
		</g>
		<circle class="st3" cx="46.9" cy="131.5" r="9.5"/>
		<polyline class="st3" points="41.2,123.9 41.2,120.2 52.6,120.2 52.6,123.9 		"/>
		<polyline class="st3" points="52.6,139.1 52.6,142.7 41.2,142.7 41.2,139.1 		"/>
		<circle class="st4" cx="46.9" cy="131.5" r="7.4"/>
		<line class="st3" x1="46.9" y1="131.5" x2="44.4" y2="129"/>
		<line class="st4" x1="46.9" y1="131.5" x2="51.4" y2="126.9"/>
		
			<rect x="60.2" y="120.2" transform="matrix(-1 -1.224647e-16 1.224647e-16 -1 131.8502 258.7989)" class="st3" width="11.4" height="18.4"/>
		<rect x="60.2" y="123.5" class="st3" width="11.4" height="11.4"/>
		<g>
			<path class="st5" d="M63,131.5c0,0.1,0,0.1-0.1,0.1c0,0-0.1,0.1-0.1,0.1c-0.1,0-0.1,0-0.1-0.1c0,0-0.1-0.1-0.1-0.1v-4.6
				c0-0.1,0-0.1,0.1-0.1c0,0,0.1-0.1,0.1-0.1c0.1,0,0.1,0,0.1,0.1c0,0,0.1,0.1,0.1,0.1V131.5z"/>
			<path class="st5" d="M64.6,131.5c0,0.1,0,0.1-0.1,0.1c0,0-0.1,0.1-0.1,0.1c-0.1,0-0.1,0-0.1-0.1c0,0-0.1-0.1-0.1-0.1v-4.6
				c0-0.1,0-0.1,0.1-0.1c0,0,0.1-0.1,0.1-0.1c0.1,0,0.1,0,0.1,0.1c0,0,0.1,0.1,0.1,0.1V131.5z"/>
			<path class="st5" d="M65.8,128c0,0,0.1-0.1,0.1-0.1c0.1,0,0.1,0,0.1,0.1c0,0,0.1,0.1,0.1,0.1s0,0.1-0.1,0.1c0,0-0.1,0.1-0.1,0.1
				c-0.1,0-0.1,0-0.1-0.1c0,0-0.1-0.1-0.1-0.1S65.7,128.1,65.8,128z M65.8,130c0,0,0.1-0.1,0.1-0.1c0.1,0,0.1,0,0.1,0.1
				c0,0,0.1,0.1,0.1,0.1c0,0.1,0,0.1-0.1,0.1c0,0-0.1,0.1-0.1,0.1c-0.1,0-0.1,0-0.1-0.1c0,0-0.1-0.1-0.1-0.1
				C65.7,130.1,65.7,130.1,65.8,130z"/>
			<path class="st5" d="M67.7,131.5c0,0.1,0,0.1-0.1,0.1c0,0-0.1,0.1-0.1,0.1s-0.1,0-0.1-0.1c0,0-0.1-0.1-0.1-0.1v-4.6
				c0-0.1,0-0.1,0.1-0.1c0,0,0.1-0.1,0.1-0.1s0.1,0,0.1,0.1c0,0,0.1,0.1,0.1,0.1V131.5z"/>
			<path class="st5" d="M69.2,131.5c0,0.1,0,0.1-0.1,0.1c0,0-0.1,0.1-0.1,0.1s-0.1,0-0.1-0.1c0,0-0.1-0.1-0.1-0.1v-4.6
				c0-0.1,0-0.1,0.1-0.1c0,0,0.1-0.1,0.1-0.1s0.1,0,0.1,0.1c0,0,0.1,0.1,0.1,0.1V131.5z"/>
		</g>
	</g>
</g>
<g>
	<path class="st2" d="M31.2,281.9V281h2.6c0.5,0,0.9-0.4,0.9-0.9v-0.7H105c0.5,0,0.9-0.4,0.9-0.9v-15.2c0-0.5-0.4-0.9-0.9-0.9H34.8
		v-0.7c0-0.5-0.4-0.9-0.9-0.9h-2.6V260c0-0.5-0.4-0.9-0.9-0.9h-0.8l-2.7-5.6c-0.8-1.7-2.8-2.4-4.4-1.6c-1.7,0.8-2.4,2.8-1.6,4.4
		l1.3,2.7H3.8c-1.8,0-3.3,1.5-3.3,3.3c0,1.1,0.6,2.1,1.4,2.7c-1.5,0.3-2.6,1.7-2.6,3.3c0,1.8,1.5,3.3,3.3,3.3h14v10.2
		c0,0.5,0.4,0.9,0.9,0.9h10.4h2.4C30.8,282.8,31.2,282.4,31.2,281.9z"/>
	<g>
		<g>
			<line class="st3" x1="33.9" y1="278.6" x2="105.9" y2="278.6"/>
			<line class="st3" x1="33.9" y1="263.3" x2="105.9" y2="263.3"/>
			<line class="st4" x1="60.5" y1="278.6" x2="60.5" y2="263.3"/>
			<line class="st4" x1="64.3" y1="278.6" x2="64.3" y2="263.3"/>
			<line class="st4" x1="71.9" y1="278.6" x2="71.9" y2="263.3"/>
			<line class="st4" x1="68.1" y1="278.6" x2="68.1" y2="263.3"/>
			<line class="st4" x1="49.2" y1="278.6" x2="49.2" y2="263.3"/>
			<line class="st4" x1="53" y1="278.6" x2="53" y2="263.3"/>
			<line class="st4" x1="56.8" y1="278.6" x2="56.8" y2="263.3"/>
			<line class="st4" x1="75.6" y1="278.6" x2="75.6" y2="263.3"/>
			<line class="st4" x1="79.4" y1="278.6" x2="79.4" y2="263.3"/>
			<line class="st4" x1="87" y1="278.6" x2="87" y2="263.3"/>
			<line class="st4" x1="83.2" y1="278.6" x2="83.2" y2="263.3"/>
			<line class="st4" x1="94.6" y1="278.6" x2="94.6" y2="263.3"/>
			<line class="st4" x1="90.8" y1="278.6" x2="90.8" y2="263.3"/>
			<line class="st4" x1="98.3" y1="278.6" x2="98.3" y2="263.3"/>
			<line class="st4" x1="102.1" y1="278.6" x2="102.1" y2="263.3"/>
			<line class="st4" x1="105.9" y1="278.6" x2="105.9" y2="263.3"/>
			<line class="st4" x1="37.8" y1="278.6" x2="37.8" y2="263.3"/>
			<line class="st4" x1="41.6" y1="278.6" x2="41.6" y2="263.3"/>
			<line class="st4" x1="45.4" y1="278.6" x2="45.4" y2="263.3"/>
		</g>
		<g>
			<path class="st3" d="M17.6,281.9h10.4c1.3,0,2.4-1.1,2.4-2.4l0,0c0-1.3-1.1-2.4-2.4-2.4H17.6"/>
			<path class="st3" d="M17.6,277h10.4c1.3,0,2.4-1.1,2.4-2.4l0,0c0-1.3-1.1-2.4-2.4-2.4H17.6"/>
			<g>
				<g>
					<path class="st3" d="M23.6,260l-1.9-4c-0.6-1.2-0.1-2.7,1.1-3.2s2.7-0.1,3.2,1.1l2.9,6.1h1.4v21.9H17.6l0-4.9l0-6.2H2.6
						c-1.3,0-2.4-1.1-2.4-2.4s1.1-2.4,2.4-2.4h14.9l0-1.1H3.8c-1.3,0-2.4-1.1-2.4-2.4s1.1-2.4,2.4-2.4h13.7H23.6z"/>
					
						<rect x="22.9" y="269.2" transform="matrix(6.123234e-17 -1 1 6.123234e-17 -238.8119 303.0174)" class="st3" width="18.4" height="3.5"/>
				</g>
				<line class="st3" x1="23.6" y1="260" x2="23.6" y2="270.9"/>
			</g>
		</g>
	</g>
</g>
<g>
	<path class="st2" d="M31.2,420.5v-0.8h2.6c0.5,0,0.9-0.4,0.9-0.9v-0.7h2.9h5.7c0.6,1.7,2.9,2.8,3.4,3c0.2,0.1,0.5,0.1,0.7,0
		c0.5-0.2,2.8-1.3,3.4-3h5.7H105c0.5,0,0.9-0.4,0.9-0.9V402c0-0.5-0.4-0.9-0.9-0.9H56.6h-5.7c-0.6-1.6-2.9-2.7-3.4-3
		c-0.2-0.1-0.5-0.1-0.7,0c-0.5,0.2-2.7,1.3-3.4,3h-5.7h-2.9v-0.7c0-0.5-0.4-0.9-0.9-0.9h-2.6v-0.8c0-0.5-0.4-0.9-0.9-0.9h-0.8
		l-2.7-5.6c-0.4-0.8-1.1-1.4-1.9-1.7c-0.8-0.3-1.7-0.2-2.5,0.1c-0.8,0.4-1.4,1.1-1.7,1.9c-0.1,0.4-0.2,0.7-0.2,1.1
		c0,0.5,0.1,1,0.3,1.4l1.3,2.7H6.8c-1.8,0-3.3,1.5-3.3,3.3s1.5,3.3,3.3,3.3h8.4c-0.6,0.6-1,1.4-1,2.4c0,1.2,0.7,2.3,1.6,2.8
		c-1,0.6-1.6,1.6-1.6,2.8c0,0.9,0.4,1.7,1,2.4H7.4c-1.8,0-3.3,1.5-3.3,3.3s1.5,3.3,3.3,3.3h10.1h0h0h12.8
		C30.8,421.4,31.2,421,31.2,420.5z"/>
	<g>
		<line class="st3" x1="23.5" y1="398.6" x2="23.5" y2="409.6"/>
		<g>
			<line class="st3" x1="33.8" y1="417.2" x2="105.9" y2="417.2"/>
			<line class="st4" x1="94.6" y1="417.2" x2="94.6" y2="401.9"/>
			<line class="st4" x1="90.8" y1="417.2" x2="90.8" y2="401.9"/>
			<line class="st4" x1="98.3" y1="417.2" x2="98.3" y2="401.9"/>
			<line class="st4" x1="102.1" y1="417.2" x2="102.1" y2="401.9"/>
			<line class="st4" x1="105.9" y1="417.2" x2="105.9" y2="401.9"/>
			<line class="st3" x1="33.8" y1="402" x2="105.9" y2="402"/>
			<line class="st4" x1="71.8" y1="417.3" x2="71.8" y2="402"/>
			<line class="st4" x1="75.5" y1="417.3" x2="75.5" y2="402"/>
			<line class="st4" x1="79.3" y1="417.3" x2="79.3" y2="402"/>
			<line class="st4" x1="87" y1="417.3" x2="87" y2="402"/>
			<line class="st4" x1="83.2" y1="417.3" x2="83.2" y2="402"/>
			<line class="st4" x1="60.4" y1="417.2" x2="60.4" y2="401.9"/>
			<line class="st4" x1="64.2" y1="417.2" x2="64.2" y2="401.9"/>
			<line class="st4" x1="68" y1="417.2" x2="68" y2="401.9"/>
		</g>
		<path class="st3" d="M17.5,403.5H6.8c-1.3,0-2.4-1.1-2.4-2.4v0c0-1.3,1.1-2.4,2.4-2.4h16.7"/>
		<path class="st3" d="M23.5,398.6l-1.9-4c-0.6-1.2-0.1-2.7,1.1-3.2h0c1.2-0.6,2.7-0.1,3.2,1.1l2.9,6.1"/>
		<path class="st3" d="M17.5,420.5H7.4c-1.3,0-2.4-1.1-2.4-2.4l0,0c0-1.3,1.1-2.4,2.4-2.4h10.1"/>
		<path class="st3" d="M17.5,409.2c-1.3,0-2.4-1.1-2.4-2.4l0,0c0-1.3,1.1-2.4,2.4-2.4"/>
		<path class="st3" d="M17.5,414.9c-1.3,0-2.4-1.1-2.4-2.4l0,0c0-1.3,1.1-2.4,2.4-2.4"/>
		<polyline class="st3" points="17.5,420.5 30.3,420.5 30.3,398.6 28.9,398.6 		"/>
		
			<rect x="22.8" y="407.8" transform="matrix(6.123234e-17 -1 1 6.123234e-17 -377.5434 441.6214)" class="st3" width="18.4" height="3.5"/>
		<rect x="37.6" y="402" class="st3" width="19" height="15.2"/>
		<circle class="st3" cx="47.1" cy="409.6" r="3"/>
		<path class="st3" d="M44.1,417.3c0,1.7,3,3,3,3s3-1.4,3-3"/>
		<path class="st3" d="M50.2,402c0-1.7-3-3-3-3s-3,1.4-3,3"/>
		<path class="st3" d="M17.5,409.2h3.6c1.3,0,2.4-1.1,2.4-2.4l0,0c0-1.3-1.1-2.4-2.4-2.4h-3.6"/>
		<path class="st3" d="M17.5,414.9h5.4c1.3,0,2.4-1.1,2.4-2.4l0,0c0-1.3-1.1-2.4-2.4-2.4h-5.4"/>
	</g>
</g>
<g id="_x30_8">
	<g>
		<polygon class="st0" points="651.6,409.4 651.6,380.7 575.3,380.7 575.3,373.3 328.8,373.3 328.8,380.7 328.8,438.1 564.5,438.1 
			589.1,438.1 680.3,438.1 680.3,409.4 		"/>
		<rect x="328.8" y="373.3" class="st1" width="246.5" height="7.4"/>
		<polyline class="st1" points="680.3,438.1 680.3,409.4 651.6,409.4 651.6,380.7 328.8,380.7 328.8,438.1 564.5,438.1 		"/>
		<line class="st1" x1="589.1" y1="438.1" x2="892.3" y2="438.1"/>
		<g>
			<g>
				<circle class="st1" cx="442.9" cy="416.9" r="10.8"/>
				<circle class="st1" cx="442.9" cy="416.9" r="6.9"/>
			</g>
			<g>
				<circle class="st1" cx="388.9" cy="416.9" r="10.8"/>
				<circle class="st1" cx="388.9" cy="416.9" r="6.9"/>
			</g>
		</g>
		<line class="st1" x1="651.6" y1="395.1" x2="328.8" y2="395.1"/>
	</g>
	<g>
		<g>
			<polygon class="st0" points="557.5,406.1 560.6,406.1 560.6,413.1 564.5,413.1 564.5,499.3 589.1,499.3 589.1,413.1 593,413.1 
				593,406.1 596.1,406.1 596.1,395.1 557.5,395.1 			"/>
			<path class="st0" d="M547.2,400.6c3,0,5.5-2.5,5.5-5.5h-10.9C541.8,398.1,544.2,400.6,547.2,400.6z"/>
			<path class="st0" d="M600.9,395.1c0,3,2.5,5.5,5.5,5.5c3,0,5.5-2.5,5.5-5.5H600.9z"/>
		</g>
		<g>
			
				<rect x="571.3" y="381.3" transform="matrix(4.570015e-11 1 -1 4.570015e-11 977.374 -176.2173)" class="st1" width="10.9" height="38.5"/>
			<path class="st1" d="M552.7,395.1c0,3-2.5,5.5-5.5,5.5s-5.5-2.5-5.5-5.5"/>
			<path class="st1" d="M611.8,395.1c0,3-2.5,5.5-5.5,5.5c-3,0-5.5-2.5-5.5-5.5"/>
		</g>
		<g>
			<g>
				<line class="st1" x1="564.5" y1="467.5" x2="589.1" y2="467.5"/>
			</g>
			<rect x="560.6" y="406.1" class="st1" width="32.5" height="7"/>
			<line class="st1" x1="564.5" y1="499.3" x2="564.5" y2="413.1"/>
			<line class="st1" x1="589.1" y1="499.3" x2="589.1" y2="413.1"/>
		</g>
		<line class="st1" x1="564.5" y1="499.3" x2="589.1" y2="499.3"/>
		<line class="st1" x1="541.8" y1="395.1" x2="611.8" y2="395.1"/>
	</g>
</g>
<g>
	
		<rect x="345.7" y="269.2" transform="matrix(-1 -8.989710e-11 8.989710e-11 -1 763.4412 553.5535)" class="st2" width="72.1" height="15.2"/>
	<path class="st2" d="M520.4,228.4c-1.9,0-3.5,1.3-3.9,3.1h-14.8v-8.2c0-0.5-0.4-0.9-0.9-0.9h-4.6v-5.5c0-12.3-10-22.3-22.3-22.3
		c-9.4,0-17.5,5.9-20.8,14.2l-22.4,3.1c-2.9-2.7-6.7-4.4-11-4.4c-8.5,0-15.4,6.6-15.8,15h-4.6c-0.5,0-0.9,0.4-0.9,0.9v8.2h-16.8
		c-0.4-1.8-2-3.1-3.9-3.1c-2.2,0-4,1.8-4,4s1.8,4,4,4c1.9,0,3.5-1.3,3.9-3.1h16.8v8.2c0,0.5,0.4,0.9,0.9,0.9h4.6v5.2
		c0,0,0,0.1,0,0.1c0,0.1,0,0.1,0,0.2c0,0.1,0.1,0.1,0.1,0.2c0,0,0,0.1,0.1,0.1l9.1,11.2c0.2,0.2,0.4,0.3,0.7,0.3h6.7
		c-4.6,6.7-8.7,13.7-12.4,20.9c0,0,0,0,0,0c0,0.1,0,0.1,0,0.2c0,0.1,0,0.1,0,0.2c0,0,0,0,0,0c0,0,0,0.1,0,0.1c0,0.1,0,0.1,0,0.2
		c0,0.1,0.1,0.1,0.1,0.1c0,0.1,0.1,0.1,0.1,0.1c0,0,0.1,0.1,0.1,0.1c0,0,0.1,0.1,0.1,0.1c0,0,0,0,0,0c0.1,0.1,0.2,0.1,0.4,0.1
		c0,0,0,0,0,0c0,0,0,0,0,0h5.7v26.7c0,0.5,0.3,0.8,0.8,0.9c0.1,0.5,0.3,1,0.7,1.4c0.6,0.7,1.4,1.1,2.3,1.2l3,0.3l-2.3,3.9l-5.5,9.2
		c-0.5,0.8-0.6,1.7-0.4,2.5c0.2,0.9,0.8,1.6,1.5,2c0.5,0.3,1.1,0.5,1.7,0.5c0.3,0,0.6,0,0.8-0.1c0.9-0.2,1.6-0.8,2-1.5l5-8.5
		l1.6,0.9l-5.6,9.5c-0.5,0.8-0.6,1.7-0.4,2.5c0.2,0.9,0.8,1.6,1.5,2c0.5,0.3,1.1,0.5,1.7,0.5c0.3,0,0.6,0,0.8-0.1
		c0.9-0.2,1.6-0.8,2-1.5l5.6-9.5l1.6,1l-4.7,7.9c-0.5,0.8-0.6,1.7-0.4,2.5c0.2,0.9,0.8,1.6,1.5,2c0.5,0.3,1.1,0.5,1.7,0.5
		c0.3,0,0.6,0,0.8-0.1c0.9-0.2,1.6-0.8,2-1.5l5.2-8.7c0,0,0,0,0,0l2.3-3.9h3.5v2.6c0,0.5,0.4,0.9,0.9,0.9h0.7v17.1h-0.7
		c-0.5,0-0.9,0.4-0.9,0.9v2.6h-0.8c-0.5,0-0.9,0.4-0.9,0.9v14.7l-6.2,2.9c0,0-0.1,0.1-0.1,0.1c-0.1,0-0.1,0.1-0.2,0.1
		c0,0-0.1,0.1-0.1,0.1c0,0-0.1,0.1-0.1,0.2c0,0.1,0,0.1,0,0.2c0,0,0,0.1,0,0.1v3.5c0,0.5,0.4,0.9,0.9,0.9h17.7h11
		c0.5,0,0.9-0.4,0.9-0.9v-21.9c0-0.5-0.4-0.9-0.9-0.9h-0.8V346c0-0.5-0.4-0.9-0.9-0.9H464v-17.1h0.7c0.5,0,0.9-0.4,0.9-0.9v-2.6
		h20.6c0.5,0,0.9-0.4,0.9-0.9v-14h2.5c0.5,0,0.9-0.4,0.9-0.9v-38.2c0-0.5-0.4-0.9-0.9-0.9h-2.5v-10.4l8.9-10.9c0,0,0-0.1,0.1-0.1
		c0-0.1,0.1-0.1,0.1-0.2c0-0.1,0-0.1,0-0.2c0,0,0-0.1,0-0.1v-5.2h4.6c0.5,0,0.9-0.4,0.9-0.9v-8.2h14.8c0.4,1.8,2,3.1,3.9,3.1
		c2.2,0,4-1.8,4-4S522.7,228.4,520.4,228.4z"/>
	<g>
		<g>
			<line class="st3" x1="415.6" y1="269.2" x2="345.7" y2="269.2"/>
			<line class="st3" x1="415.6" y1="284.4" x2="345.7" y2="284.4"/>
			<line class="st4" x1="391.1" y1="269.2" x2="391.1" y2="284.5"/>
			<line class="st4" x1="387.3" y1="269.2" x2="387.3" y2="284.5"/>
			<line class="st4" x1="379.7" y1="269.2" x2="379.7" y2="284.5"/>
			<line class="st4" x1="383.5" y1="269.2" x2="383.5" y2="284.5"/>
			<line class="st4" x1="402.5" y1="269.2" x2="402.5" y2="284.5"/>
			<line class="st4" x1="398.7" y1="269.2" x2="398.7" y2="284.5"/>
			<line class="st4" x1="394.9" y1="269.2" x2="394.9" y2="284.5"/>
			<line class="st4" x1="376" y1="269.2" x2="376" y2="284.5"/>
			<line class="st4" x1="372.2" y1="269.2" x2="372.2" y2="284.5"/>
			<line class="st4" x1="364.6" y1="269.2" x2="364.6" y2="284.5"/>
			<line class="st4" x1="368.4" y1="269.2" x2="368.4" y2="284.5"/>
			<line class="st4" x1="357" y1="269.2" x2="357" y2="284.5"/>
			<line class="st4" x1="360.8" y1="269.2" x2="360.8" y2="284.5"/>
			<line class="st4" x1="353.3" y1="269.2" x2="353.3" y2="284.5"/>
			<line class="st4" x1="349.5" y1="269.2" x2="349.5" y2="284.5"/>
			<line class="st4" x1="345.7" y1="269.2" x2="345.7" y2="284.5"/>
			<line class="st4" x1="413.8" y1="281" x2="413.8" y2="284.5"/>
			<line class="st4" x1="410" y1="269.2" x2="410" y2="284.5"/>
			<line class="st4" x1="406.2" y1="269.2" x2="406.2" y2="284.5"/>
		</g>
		<g>
			<g>
				<g>
					<g>
						<circle class="st3" cx="473.9" cy="216.9" r="21.4"/>
						<path class="st6" d="M473.9,234.8c-9.9,0-17.9-8-17.9-17.9c0-9.9,8-17.9,17.9-17.9c9.9,0,17.9,8,17.9,17.9
							C491.8,226.8,483.8,234.8,473.9,234.8z"/>
						<path class="st7" d="M473.9,231.7c-8.1,0-14.8-6.6-14.8-14.8c0-8.1,6.6-14.8,14.8-14.8c8.1,0,14.8,6.6,14.8,14.8
							C488.7,225,482,231.7,473.9,231.7z"/>
						<path class="st8" d="M473.9,229.3c-6.8,0-12.4-5.6-12.4-12.4c0-6.8,5.6-12.4,12.4-12.4s12.4,5.6,12.4,12.4
							C486.3,223.7,480.7,229.3,473.9,229.3z"/>
					</g>
					<circle class="st3" cx="419.8" cy="223.3" r="15"/>
					<path class="st6" d="M419.8,234.8c-6.3,0-11.5-5.2-11.5-11.5c0-6.3,5.2-11.5,11.5-11.5s11.5,5.2,11.5,11.5
						C431.3,229.7,426.1,234.8,419.8,234.8z"/>
					<circle class="st7" cx="419.8" cy="223.3" r="8.4"/>
					<g>
						<circle class="st9" cx="419.8" cy="223.3" r="6"/>
					</g>
					<polyline class="st3" points="495.3,216.9 495.3,247.6 404.8,247.6 404.8,223.3 					"/>
					<polyline class="st3" points="495.3,247.6 486.2,258.8 473.9,258.8 					"/>
					<polyline class="st3" points="434.7,258.8 413.8,258.8 404.8,247.6 					"/>
					<line class="st3" x1="430.4" y1="212.8" x2="453.8" y2="209.6"/>
					<polyline class="st3" points="404.8,223.3 399.3,223.3 399.3,241.6 404.8,241.6 					"/>
					<polyline class="st3" points="495.3,241.6 500.8,241.6 500.8,223.3 495.3,223.3 					"/>
					<line class="st3" x1="399.3" y1="232.4" x2="380.8" y2="232.4"/>
					<line class="st3" x1="500.8" y1="232.4" x2="517.3" y2="232.4"/>
					<circle class="st3" cx="377.6" cy="232.4" r="3.1"/>
					<circle class="st3" cx="520.4" cy="232.4" r="3.1"/>
					<line class="st3" x1="469.8" y1="258.8" x2="462.8" y2="258.8"/>
					<line class="st3" x1="458.4" y1="258.8" x2="454.9" y2="258.8"/>
					<line class="st4" x1="432.1" y1="214.9" x2="452.8" y2="213"/>
					<line class="st4" x1="404.8" y1="247.6" x2="492.1" y2="251.6"/>
				</g>
				<g>
					<rect x="446.3" y="323.5" class="st3" width="18.4" height="3.5"/>
					<rect x="437.8" y="367.9" class="st3" width="17.7" height="3.5"/>
					<g>
						<polyline class="st3" points="444.6,367.9 444.6,349.5 466.5,349.5 466.5,371.4 455.5,371.4 						"/>
						<rect x="446.3" y="346" class="st3" width="18.4" height="3.5"/>
						<g>
							<line class="st3" x1="447.9" y1="346" x2="447.9" y2="327"/>
							<line class="st3" x1="463.1" y1="346" x2="463.1" y2="327"/>
							<line class="st4" x1="447.9" y1="342.1" x2="463.2" y2="342.1"/>
							<line class="st4" x1="447.9" y1="338.3" x2="463.2" y2="338.3"/>
							<line class="st3" x1="447.9" y1="334.5" x2="463.1" y2="334.5"/>
							<line class="st4" x1="447.9" y1="330.7" x2="463.2" y2="330.7"/>
						</g>
					</g>
					<line class="st3" x1="437.8" y1="367.9" x2="444.6" y2="364.7"/>
				</g>
				<line class="st3" x1="486.2" y1="258.8" x2="422.2" y2="258.8"/>
				<g>
					<path class="st3" d="M453.5,281c0-3.8-3.1-6.9-6.9-6.9s-6.9,3.1-6.9,6.9"/>
					<g>
						<g>
							<path class="st3" d="M424.1,319.2l-5.5,9.2c-0.7,1.2-2.2,1.5-3.3,0.9l0,0c-1.2-0.7-1.5-2.2-0.9-3.3l5.5-9.2"/>
							<path class="st3" d="M423,311.6l-4.5-0.4c-1.3-0.1-2.3-1.3-2.2-2.6l0,0c0.1-1.3,1.3-2.3,2.6-2.2l6.8,0.6"/>
							<path class="st3" d="M438.8,327.9l-5.2,8.7c-0.7,1.2-2.2,1.5-3.3,0.9l0,0c-1.2-0.7-1.5-2.2-0.9-3.3l5.2-8.7"/>
							<path class="st3" d="M431.4,323.5l-6.1,10.3c-0.7,1.2-2.2,1.5-3.3,0.9l0,0c-1.2-0.7-1.5-2.2-0.9-3.3l6.1-10.3"/>
							
								<rect x="426.5" y="306.5" transform="matrix(0.5096 -0.8604 0.8604 0.5096 -61.1266 527.5781)" class="st3" width="11.4" height="21.9"/>
							<g>
								
									<rect x="434.3" y="301.8" transform="matrix(0.5096 -0.8604 0.8604 0.5096 -53.7528 527.7007)" class="st3" width="3.5" height="18.4"/>
							</g>
						</g>
						<g>
							<g>
								<path class="st3" d="M443.1,312.5c4-7.5,7.4-15.4,10.4-23.6"/>
								<path class="st3" d="M430.8,305c3.3-5.9,6.3-12.1,9-18.4"/>
								<g>
									<line class="st3" x1="450.3" y1="297.1" x2="438" y2="290.8"/>
									<line class="st4" x1="448.7" y1="301" x2="436.3" y2="294.4"/>
									<line class="st4" x1="446.9" y1="304.9" x2="434.6" y2="298"/>
									<line class="st4" x1="445" y1="308.7" x2="432.7" y2="301.5"/>
									<line class="st3" x1="443.1" y1="312.5" x2="430.8" y2="305"/>
									<path class="st4" d="M439.2,288c4.5,0.9,8.9,2.3,13.1,4.2"/>
									<path class="st4" d="M439.4,286.6c5,0.6,10.1,1.1,14.9,2.5"/>
									<path class="st4" d="M439.8,283.7c4.5-0.9,9.1-1.2,13.7-1"/>
									<path class="st4" d="M439.9,279.9c4.4-0.8,8.8-1.2,13.2-1.1"/>
								</g>
							</g>
						</g>
					</g>
					<line class="st3" x1="439.8" y1="281" x2="439.8" y2="286.6"/>
					<line class="st3" x1="453.5" y1="281" x2="453.5" y2="288.9"/>
				</g>
				<g>
					<polyline class="st3" points="486.2,308.6 486.2,323.5 453.2,323.5 					"/>
					<line class="st3" x1="422.2" y1="306.6" x2="422.2" y2="281"/>
					<line class="st3" x1="457.2" y1="281" x2="468.9" y2="281"/>
					<line class="st3" x1="409" y1="281" x2="436.1" y2="281"/>
					<path class="st3" d="M409,281c3.9-7.6,8.3-15,13.3-22.2"/>
					<polyline class="st3" points="416.3,308.6 415.6,308.6 415.6,281 422.2,281 422.2,306.6 					"/>
					<rect x="468.9" y="270.4" class="st3" width="20.8" height="38.2"/>
					<line class="st3" x1="486.2" y1="270.4" x2="486.2" y2="258.8"/>
					<path class="st3" d="M439,288.4c-1.8-1.9-3-4.5-3-7.4c0-5.8,4.7-10.6,10.6-10.6s10.6,4.7,10.6,10.6c0,3.1-1.3,5.9-3.4,7.8"/>
					<line class="st3" x1="436.1" y1="281" x2="436.1" y2="270.4"/>
					<line class="st3" x1="436.1" y1="270.4" x2="486.2" y2="270.4"/>
					<line class="st3" x1="446.3" y1="323.5" x2="441.4" y2="323.5"/>
				</g>
			</g>
		</g>
	</g>
</g>
</svg>
