<?xml version="1.0" encoding="utf-8"?>
<!-- Generator: Adobe Illustrator 20.1.0, SVG Export Plug-In . SVG Version: 6.00 Build 0)  -->
<svg version="1.1" id="Слой_1" xmlns="http://www.w3.org/2000/svg" xmlns:xlink="http://www.w3.org/1999/xlink" x="0px" y="0px"
	 viewBox="0 0 565.5 128" style="enable-background:new 0 0 565.5 128;" xml:space="preserve">
<style type="text/css">
	.st0{fill:#F4E1A1;}
	.st1{fill:none;stroke:#817957;stroke-width:2;stroke-linecap:round;stroke-linejoin:round;stroke-miterlimit:10;}
</style>
<g id="_x30_8">
	<g>
		<polygon class="st0" points="323.8,37.1 323.8,8.4 247.5,8.4 247.5,1 1,1 1,8.4 1,65.8 236.6,65.8 261.3,65.8 352.5,65.8 
			352.5,37.1 		"/>
		<rect x="1" y="1" class="st1" width="246.5" height="7.4"/>
		<polyline class="st1" points="352.5,65.8 352.5,37.1 323.8,37.1 323.8,8.4 1,8.4 1,65.8 236.6,65.8 		"/>
		<line class="st1" x1="261.3" y1="65.8" x2="564.5" y2="65.8"/>
		<g>
			<g>
				<circle class="st1" cx="115.1" cy="44.6" r="10.8"/>
				<circle class="st1" cx="115.1" cy="44.6" r="6.9"/>
			</g>
			<g>
				<circle class="st1" cx="61.1" cy="44.6" r="10.8"/>
				<circle class="st1" cx="61.1" cy="44.6" r="6.9"/>
			</g>
		</g>
		<line class="st1" x1="323.8" y1="22.8" x2="1" y2="22.8"/>
	</g>
	<g>
		<g>
			<polygon class="st0" points="229.7,33.8 232.7,33.8 232.7,40.8 236.6,40.8 236.6,127 261.3,127 261.3,40.8 265.2,40.8 
				265.2,33.8 268.2,33.8 268.2,22.8 229.7,22.8 			"/>
			<path class="st0" d="M219.4,28.3c3,0,5.5-2.5,5.5-5.5h-10.9C213.9,25.8,216.4,28.3,219.4,28.3z"/>
			<path class="st0" d="M273.1,22.8c0,3,2.5,5.5,5.5,5.5c3,0,5.5-2.5,5.5-5.5H273.1z"/>
		</g>
		<g>
			
				<rect x="243.5" y="9" transform="matrix(4.570015e-11 1 -1 4.570015e-11 277.2481 -220.6821)" class="st1" width="10.9" height="38.5"/>
			<path class="st1" d="M224.9,22.8c0,3-2.5,5.5-5.5,5.5c-3,0-5.5-2.5-5.5-5.5"/>
			<path class="st1" d="M284,22.8c0,3-2.5,5.5-5.5,5.5s-5.5-2.5-5.5-5.5"/>
		</g>
		<g>
			<g>
				<line class="st1" x1="236.6" y1="95.2" x2="261.3" y2="95.2"/>
			</g>
			<rect x="232.7" y="33.8" class="st1" width="32.5" height="7"/>
			<line class="st1" x1="236.6" y1="127" x2="236.6" y2="40.8"/>
			<line class="st1" x1="261.3" y1="127" x2="261.3" y2="40.8"/>
		</g>
		<line class="st1" x1="236.6" y1="127" x2="261.3" y2="127"/>
		<line class="st1" x1="213.9" y1="22.8" x2="284" y2="22.8"/>
	</g>
</g>
</svg>
