<?xml version="1.0" encoding="utf-8"?>
<!-- Generator: Adobe Illustrator 19.0.0, SVG Export Plug-In . SVG Version: 6.00 Build 0)  -->
<svg version="1.1" id="Слой_1" xmlns="http://www.w3.org/2000/svg" xmlns:xlink="http://www.w3.org/1999/xlink" x="0px" y="0px"
	 viewBox="935 -277.8 1922.8 607.8" style="enable-background:new 935 -277.8 1922.8 607.8;" xml:space="preserve">
<style type="text/css">
	.st0{fill:#F4E1A1;}
	.st1{fill:none;stroke:#817957;stroke-width:2.0006;stroke-linecap:round;stroke-linejoin:round;stroke-miterlimit:10;}
	.st2{fill:none;stroke:#817957;stroke-width:2;stroke-linecap:round;stroke-linejoin:round;stroke-miterlimit:10;}
	.st3{fill:none;stroke:#817957;stroke-linecap:round;stroke-linejoin:round;stroke-miterlimit:10;}
	.st4{fill:none;stroke:#817957;stroke-width:2.0066;stroke-linecap:round;stroke-linejoin:round;stroke-miterlimit:10;}
	.st5{display:none;fill:none;stroke:#817957;stroke-width:2;stroke-linecap:round;stroke-linejoin:round;stroke-miterlimit:10;}
	.st6{fill:#3C3C3B;}
</style>
<g id="_x31_7">
	<g>
		<g>
			<path class="st0" d="M1915.5-57.4v-10c0-10.3-8.4-18.7-18.7-18.7l0,0c-10.3,0-18.7,8.4-18.7,18.7v10H1915.5z"/>
			<path class="st0" d="M2039.9-14.9c0-4.8-3.2-8.8-7.6-10c0,0-0.1,0-0.1-0.1l0,0c-0.8-0.2-1.7-0.3-2.6-0.3
				c-5.7,0-10.3,4.6-10.3,10.3c0,1.7,0.4,3.3,1.1,4.7l-0.1,0.2c0.1,0,0.2,0,0.3,0c1.5,2.7,4.1,4.7,7.2,5.3l0,0V59h-5.3V41.9h-15.6
				v-90.6h-81.5v-8.7h-56.7v8.7h-96.9v235.5h34.2l0,0h133.5l0,0h67.1v-81.9h15.6V87.4h14.6V59h-5.3V-4.8l0,0
				C2036.3-5.6,2039.9-9.8,2039.9-14.9z"/>
		</g>
		<polyline class="st1" points="1771.5,186.8 1771.5,-48.7 2006.6,-48.7 2006.6,186.8 		"/>
		<g>
			<g>
				<g>
					<rect x="1812.8" y="99.9" class="st2" width="48" height="24"/>
					<rect x="1812.8" y="51.9" class="st2" width="48" height="48"/>
					<rect x="1812.8" y="27.9" class="st2" width="48" height="24"/>
					<rect x="1806.8" y="21.9" class="st2" width="60" height="108"/>
					<rect x="1812.8" y="27.9" class="st2" width="48" height="96"/>
					<circle class="st2" cx="1836.8" cy="75.9" r="18"/>
					<path class="st2" d="M1854.8,27.9c0,9.9-8.1,18-18,18c-9.9,0-18-8.1-18-18"/>
					<path class="st2" d="M1818.8,123.9c0-9.9,8.1-18,18-18c9.9,0,18,8.1,18,18"/>
				</g>
				<rect x="1799.3" y="21.9" class="st2" width="67.5" height="108"/>
			</g>
			<g>
				<g>
					<rect x="1872.8" y="99.9" class="st2" width="48" height="24"/>
					<rect x="1872.8" y="51.9" class="st2" width="48" height="48"/>
					<rect x="1872.8" y="27.9" class="st2" width="48" height="24"/>
					<rect x="1866.8" y="21.9" class="st2" width="60" height="108"/>
					<rect x="1872.8" y="27.9" class="st2" width="48" height="96"/>
					<circle class="st2" cx="1896.8" cy="75.9" r="18"/>
					<path class="st2" d="M1914.8,27.9c0,9.9-8.1,18-18,18c-9.9,0-18-8.1-18-18"/>
					<path class="st2" d="M1878.8,123.9c0-9.9,8.1-18,18-18c9.9,0,18,8.1,18,18"/>
				</g>
			</g>
			<g>
				<g>
					<rect x="1932.8" y="99.9" class="st2" width="48" height="24"/>
					<rect x="1932.8" y="51.9" class="st2" width="48" height="48"/>
					<rect x="1932.8" y="27.9" class="st2" width="48" height="24"/>
					<rect x="1926.8" y="21.9" class="st2" width="60" height="108"/>
					<rect x="1932.8" y="27.9" class="st2" width="48" height="96"/>
					<circle class="st2" cx="1956.8" cy="75.9" r="18"/>
					<path class="st2" d="M1974.8,27.9c0,9.9-8.1,18-18,18s-18-8.1-18-18"/>
					<path class="st2" d="M1938.8,123.9c0-9.9,8.1-18,18-18c9.9,0,18,8.1,18,18"/>
				</g>
				<rect x="1926.8" y="21.9" class="st2" width="67.5" height="108"/>
			</g>
		</g>
		<rect x="1799.3" y="-38" class="st2" width="195" height="49"/>
		<g>
			<path class="st2" d="M1915.5-57.4v-10c0-10.3-8.4-18.7-18.7-18.7l0,0c-10.3,0-18.7,8.4-18.7,18.7v10"/>
			<rect x="1868.4" y="-57.4" class="st2" width="56.7" height="8.7"/>
			<path class="st2" d="M1900.3-57.4v-14.7c0-2-1.6-3.5-3.5-3.5l0,0c-2,0-3.5,1.6-3.5,3.5v14.7"/>
		</g>
		<rect x="1806" y="155.9" class="st2" width="133.5" height="30.9"/>
		<line class="st2" x1="1806" y1="171.3" x2="1939.5" y2="171.3"/>
		<line class="st2" x1="1806" y1="179.4" x2="1939.5" y2="179.4"/>
		<circle class="st2" cx="1973.3" cy="160.9" r="16.5"/>
		<rect x="1970.3" y="150.4" class="st2" width="6" height="21"/>
		<line class="st3" x1="1974.2" y1="150.1" x2="1974.2" y2="170.8"/>
		<g>
			<rect x="2006.7" y="41.9" class="st2" width="15.6" height="63"/>
			<polyline class="st2" points="2031.5,59 2036.9,59 2036.9,87.4 2022.3,87.4 2022.3,59 2027.6,59 			"/>
			<polyline class="st2" points="2027.6,-4.7 2027.6,70.6 2031.5,70.6 2031.5,-4.7 			"/>
			<circle class="st2" cx="2029.6" cy="-14.9" r="10.3"/>
			<line class="st2" x1="2022.5" y1="80.6" x2="2036.5" y2="80.6"/>
			<line class="st2" x1="2007" y1="98.1" x2="2021" y2="98.1"/>
			<line class="st2" x1="2006.5" y1="93.6" x2="2021.5" y2="93.6"/>
			<line class="st2" x1="2007" y1="48.6" x2="2021" y2="48.6"/>
			<line class="st2" x1="2007.5" y1="54.1" x2="2022" y2="54.1"/>
			<line class="st2" x1="2007.5" y1="62.6" x2="2022.3" y2="62.6"/>
			<path class="st2" d="M2007.5,75.6c0,0.2,0,0.3,0,0.5h14"/>
			<path class="st3" d="M2019.8-11.8c2.9-0.3,5.7-1.9,7.3-4.3c1.6-2.4,2.2-5.6,1.3-8.4"/>
			<path class="st3" d="M2020.2-10c2.2,0.4,4.4,0.7,6.5,0.4c2.2-0.3,4.3-1.3,5.6-3.1c1.6-2.2,1.6-5.3,1.6-8c0-1.6-0.3-3.5-1.7-4.2"
				/>
		</g>
		<line class="st3" x1="1921" y1="-56.4" x2="1921" y2="-49.4"/>
		<line class="st3" x1="1912" y1="-56.9" x2="1912" y2="-49.4"/>
		<line class="st3" x1="1916.5" y1="-56.9" x2="1916.5" y2="-49.9"/>
		<line class="st3" x1="1874" y1="-56.9" x2="1874" y2="-49.4"/>
	</g>
	<g>
		<polygon class="st0" points="1329.7,264.9 1329.7,280.7 936.8,280.7 936.8,301.3 1329.7,301.3 1329.7,317.1 1335.1,317.1 
			1335.1,264.9 		"/>
		<rect x="936.8" y="280.7" class="st2" width="392.9" height="20.7"/>
		<rect x="1329.7" y="264.9" class="st2" width="5.4" height="52.2"/>
		<line class="st2" x1="1324.2" y1="280.8" x2="1324.2" y2="301.4"/>
		<line class="st2" x1="1318.8" y1="281.4" x2="1318.8" y2="300.1"/>
		<line class="st3" x1="936.5" y1="295.1" x2="1318.5" y2="295.1"/>
	</g>
	<g>
		<rect x="936.8" y="186.8" class="st0" width="398.3" height="33.1"/>
		<polyline class="st2" points="1335.1,219.9 936.8,219.9 936.8,186.8 1335.1,186.8 		"/>
		<line class="st2" x1="1328.8" y1="187.4" x2="1328.8" y2="219.5"/>
		<line class="st2" x1="1323.5" y1="188.1" x2="1323.5" y2="220.1"/>
		<line class="st2" x1="1302.2" y1="188.1" x2="1302.2" y2="219.4"/>
		<line class="st2" x1="1302.1" y1="208.7" x2="936" y2="208.7"/>
		<line class="st3" x1="936.5" y1="201.1" x2="1301.5" y2="201.1"/>
		<line class="st2" x1="1335.1" y1="186.8" x2="1335.1" y2="219.9"/>
	</g>
	<g>
		<g>
			<rect x="1637.2" y="-48.7" class="st0" width="134.5" height="235.5"/>
			<rect x="1614.6" y="6" class="st0" width="10.8" height="40"/>
		</g>
		<polyline class="st4" points="1637.2,186.8 1637.2,-48.7 1771.7,-48.7 1771.7,186.8 		"/>
		<g>
			<rect x="1661.9" y="-26.5" class="st2" width="74.9" height="74.9"/>
			<g>
				<line class="st2" x1="1674.8" y1="-8.7" x2="1723.8" y2="-8.7"/>
				<line class="st2" x1="1674.8" y1="-3.1" x2="1723.8" y2="-3.1"/>
				<line class="st2" x1="1674.8" y1="2.5" x2="1723.8" y2="2.5"/>
				<line class="st2" x1="1674.8" y1="8.2" x2="1723.8" y2="8.2"/>
				<line class="st2" x1="1674.8" y1="13.8" x2="1723.8" y2="13.8"/>
				<line class="st2" x1="1674.8" y1="19.4" x2="1723.8" y2="19.4"/>
				<line class="st2" x1="1674.8" y1="25" x2="1723.8" y2="25"/>
				<line class="st2" x1="1674.8" y1="30.7" x2="1723.8" y2="30.7"/>
			</g>
			<ellipse class="st2" cx="1668.7" cy="-19.6" rx="2.2" ry="2.2"/>
			<ellipse class="st2" cx="1729.9" cy="-19.6" rx="2.2" ry="2.2"/>
			<ellipse class="st2" cx="1668.7" cy="41.6" rx="2.2" ry="2.2"/>
			<ellipse class="st2" cx="1729.9" cy="41.6" rx="2.2" ry="2.2"/>
		</g>
		<g>
			<path class="st2" d="M1637.2,57.9h-5.4c-6.6,0-11.9-5.3-11.9-11.9l0,0"/>
			<path class="st2" d="M1619.9,6L1619.9,6c0-6.6,5.3-11.9,11.9-11.9h5.4"/>
			<rect x="1614.5" y="6" class="st2" width="10.8" height="40"/>
			<line class="st2" x1="1614.6" y1="38.2" x2="1625.3" y2="38.2"/>
			<line class="st2" x1="1614.6" y1="13.7" x2="1625.3" y2="13.7"/>
		</g>
		<line class="st2" x1="1673.5" y1="127.1" x2="1771.7" y2="127.1"/>
		<line class="st2" x1="1673.5" y1="138.1" x2="1771.5" y2="138.1"/>
		<line class="st2" x1="1672.5" y1="154.1" x2="1771.5" y2="154.1"/>
		<line class="st2" x1="1678.2" y1="127.1" x2="1678.2" y2="137.1"/>
		<line class="st2" x1="1683.8" y1="127.4" x2="1683.8" y2="138.3"/>
		<line class="st2" x1="1766.5" y1="127.1" x2="1766.5" y2="138.1"/>
		<line class="st2" x1="1760.2" y1="127.8" x2="1760.2" y2="137.8"/>
		<line class="st2" x1="1750.5" y1="127.1" x2="1750.5" y2="138.1"/>
		<line class="st4" x1="1771.7" y1="186.8" x2="1637.2" y2="186.8"/>
		<line class="st4" x1="1673.5" y1="127.1" x2="1673.5" y2="138.1"/>
	</g>
	<g>
		<path class="st0" d="M2856.8-252.4h-102.9v-7.5h-18v7.5H2611v-7.5h-18v7.5h-125v-7.5h-18v7.5h-124.9v-7.5h-18v4.5h-0.1
			c0,0.1,0,0.1,0.1,0.2v2.8h-98.3v-24.4h-28.6v51.2h28.6v-20.2h98.3v20.2h18v-20.2H2450v1l-0.2-0.1c0,0.9,0,1.7,0.2,2.6v16.8h18
			v-20.3h125v4l0,0l0,0v16.2h18v-20.2h124.9v1.5h-0.1c0,0.1,0.1,0.3,0.1,0.4v18.4h18v-20.3h102.9V-252.4z"/>
		<g>
			<line class="st2" x1="2856.8" y1="-252.1" x2="2753.9" y2="-252.1"/>
			<line class="st2" x1="2735.9" y1="-252.1" x2="2611" y2="-252.1"/>
			<line class="st2" x1="2593" y1="-252.1" x2="2468" y2="-252.1"/>
			<line class="st2" x1="2450" y1="-252.1" x2="2325.1" y2="-252.1"/>
			<line class="st2" x1="2307.1" y1="-252.1" x2="2208.8" y2="-252.1"/>
			<line class="st2" x1="2856.8" y1="-245.9" x2="2753.9" y2="-245.9"/>
			<line class="st2" x1="2735.9" y1="-245.9" x2="2611" y2="-245.9"/>
			<line class="st2" x1="2593" y1="-245.9" x2="2468" y2="-245.9"/>
			<line class="st2" x1="2450" y1="-245.9" x2="2325.1" y2="-245.9"/>
			<line class="st2" x1="2307.1" y1="-245.9" x2="2208.8" y2="-245.9"/>
			<rect x="2307.1" y="-259.9" class="st2" width="18" height="34.3"/>
			<rect x="2450" y="-259.9" class="st2" width="18" height="34.3"/>
			<rect x="2593" y="-259.9" class="st2" width="18" height="34.3"/>
			<rect x="2735.9" y="-259.9" class="st2" width="18" height="34.3"/>
		</g>
		<rect x="2180.2" y="-276.8" class="st2" width="28.6" height="51.2"/>
		<g>
			<g>
				<path class="st0" d="M2368.9-156.8v10c0,10.3,8.4,18.7,18.7,18.7l0,0c10.3,0,18.7-8.4,18.7-18.7v-10H2368.9z"/>
				<polygon class="st0" points="2402.3,-165.5 2402.3,-181.3 2400.3,-181.3 2400.3,-185.4 2390.7,-185.4 2390.7,-181.3 
					2384.5,-181.3 2384.5,-185.4 2374.9,-185.4 2374.9,-181.3 2372.8,-181.3 2372.8,-165.5 2368.9,-165.5 2368.9,-156.8 
					2406.3,-156.8 2406.3,-165.5 				"/>
			</g>
			<path class="st2" d="M2368.9-156.8v10c0,10.3,8.4,18.7,18.7,18.7l0,0c10.3,0,18.7-8.4,18.7-18.7v-10"/>
			<rect x="2368.8" y="-165.4" class="st2" width="37.4" height="8.7"/>
			<path class="st2" d="M2384-156.8v14.7c0,2,1.6,3.5,3.5,3.5l0,0c2,0,3.5-1.6,3.5-3.5v-14.7"/>
			<rect x="2372.8" y="-181.3" class="st2" width="29.5" height="15.8"/>
			<rect x="2374.9" y="-185.4" class="st2" width="9.6" height="4.1"/>
			<rect x="2390.7" y="-185.4" class="st2" width="9.6" height="4.1"/>
		</g>
		<g>
			<g>
				<rect x="2327.7" y="-59.6" class="st0" width="45.2" height="10.9"/>
				<rect x="2336.8" y="-69.6" class="st0" width="9.9" height="9.9"/>
				<rect x="2354.8" y="-69.6" class="st0" width="9.9" height="9.9"/>
			</g>
			<g>
				<polyline class="st2" points="2372.9,-48.7 2372.9,-59.6 2327.7,-59.6 2327.7,-48.7 				"/>
				<rect x="2336.7" y="-69.6" class="st2" width="9.9" height="9.9"/>
				<rect x="2354.7" y="-69.6" class="st2" width="9.9" height="9.9"/>
			</g>
		</g>
		<path class="st2" d="M2325.1-234.5c12.3,2.1,24.5,5.9,34.7,12.9c11.7,8.1,20.7,21.1,21.4,35.3"/>
		<path class="st2" d="M2450-233.6c-13.2,4.2-25.6,10.6-36.7,18.9c-9.7,7.2-18.9,17.1-18.8,29.3"/>
		<path class="st2" d="M2325.1-239.7c22.4,6.6,45.1,12.8,68.4,12.6c9-0.1,18.1-1.2,27-2.8c10-1.8,20-4.3,29.7-7.5"/>
		<path class="st2" d="M2208.8-237.7c31.2,11.2,66.6,7.4,98.3-3.4"/>
		<path class="st2" d="M2208.8-228.1c15,6.6,31,11.2,47.4,11.7c17.9,0.6,36.3-3.8,50.9-14.1"/>
		<path class="st2" d="M2468-238c18.6,5.1,37.3,10,56.3,12.2"/>
		<path class="st2" d="M2549-224.7c15.2-0.5,30.2-3.4,43.9-9.6"/>
		<path class="st2" d="M2467.9-230.4c6,1.7,12,3.4,17.9,5.2c12.7,3.7,25.5,7.3,38.6,9.2"/>
		<path class="st2" d="M2549-215.1c15.5-1.2,30.8-5.8,44.4-13.6"/>
		<path class="st2" d="M2611-237.8c37.7,21.6,86.8,22.1,124.9,1.1"/>
		<path class="st2" d="M2610.9-231.3c18.7,10.7,40.4,16.3,61.9,15.9c22.2-0.4,44.3-7.2,62.9-19.3"/>
		<path class="st2" d="M2753.9-237.6c32.7,11.9,68.4,15.6,102.9,10.7"/>
		<path class="st2" d="M2753.9-229.1c28.8,21.8,66.4,30,102.9,30.4"/>
		<path class="st2" d="M2307.1-237c-14.8,14.2-15.6,38.5-8.6,57.9c7.2,19.9,21.1,36.6,31.9,54.8c9.8,16.5,14.4,36,11.4,54.6"/>
		<path class="st2" d="M2307.1-242.4c-14.6,16.1-27.2,35.8-26.6,57.5c0.5,16.8,9.2,32.5,20.3,45.1c11.2,12.6,24.8,22.6,37.8,33.4
			c6.4,5.3,12.8,11,17,18.2c3.2,5.5,5,12.2,4.2,18.4"/>
		<path class="st2" d="M2468.1-231.4c8.9,8.9,19.6,15.8,30.7,21.8c6.1,3.3,12.3,6.4,19,8.2c14.5,3.7,30.2,0.7,43.4-6.4
			c12.6-6.7,23-16.9,31.7-28.2"/>
		<line class="st2" x1="2180.5" y1="-271.9" x2="2208.8" y2="-271.9"/>
		<line class="st2" x1="2181" y1="-266.9" x2="2207.2" y2="-266.9"/>
		<line class="st2" x1="2213.5" y1="-251.9" x2="2213.5" y2="-246.9"/>
		<line class="st2" x1="2304" y1="-251.4" x2="2304" y2="-245.9"/>
		<line class="st2" x1="2299" y1="-251.4" x2="2299" y2="-246.9"/>
		<line class="st2" x1="2330.5" y1="-251.4" x2="2330.5" y2="-245.9"/>
		<line class="st2" x1="2337" y1="-250.9" x2="2337" y2="-246.4"/>
		<line class="st2" x1="2445" y1="-251.4" x2="2445" y2="-246.9"/>
		<line class="st2" x1="2438.5" y1="-252.1" x2="2438.5" y2="-245.9"/>
		<line class="st2" x1="2474.5" y1="-250.9" x2="2474.5" y2="-246.4"/>
		<line class="st2" x1="2479.5" y1="-250.4" x2="2479.5" y2="-245.9"/>
		<line class="st2" x1="2588" y1="-251.4" x2="2588" y2="-245.9"/>
		<line class="st2" x1="2307.5" y1="-256.2" x2="2324" y2="-256.2"/>
		<line class="st2" x1="2450" y1="-254.9" x2="2467.5" y2="-254.9"/>
		<line class="st2" x1="2397.5" y1="-179.9" x2="2397.5" y2="-165.9"/>
		<line class="st2" x1="2376.5" y1="-180.4" x2="2376.5" y2="-165.5"/>
		<line class="st2" x1="2380.5" y1="-180.4" x2="2380.5" y2="-165.5"/>
		<line class="st2" x1="2369.5" y1="-161.4" x2="2405.6" y2="-161.4"/>
		<path class="st2" d="M2307-255.4c1.7,6.5,8.8,11.1,15.4,10c0.9-0.2,2-0.6,2.2-1.5"/>
		<path class="st2" d="M2308.3-245.9c0.4,0.9,0.8,1.9,1.1,2.8c1,2.4,1.9,4.8,3.6,6.7c2.9,3.5,7.7,5.2,12.1,4.3"/>
		<path class="st2" d="M2450.9-252.4c0.4,3.6,2.6,7,5.8,8.7c3.2,1.7,7.3,1.8,10.5,0.1"/>
		<path class="st2" d="M2449.9-244.9c-0.1,4.4,2,9,5.9,11s9.5,0.5,11.3-3.5"/>
		<path class="st2" d="M2593.1-254.1c1.9,2.7,5.1,4.5,8.4,4.6c3.3,0.1,6.6-1.5,8.6-4.2"/>
		<path class="st2" d="M2593-247.9c3.9,5.5,12,7.3,18,4.3"/>
		<path class="st2" d="M2592.9-241.8c4.8,4.4,11.1,6.9,17.6,7"/>
		<path class="st2" d="M2736.6-250.7c0.5,1.1,1.2,2.1,2.1,2.9c2.2,1.9,5.4,2.5,8.3,1.8c3-0.7,5.6-2.8,6.9-5.6"/>
		<path class="st2" d="M2735.9-244.4c0.4,4.1,2.8,7.9,6.2,10.1s7.9,2.8,11.8,1.5"/>
		<line class="st2" x1="2616.5" y1="-251.9" x2="2616.5" y2="-246.4"/>
		<line class="st2" x1="2623" y1="-252.1" x2="2623" y2="-246.8"/>
		<line class="st2" x1="2648.5" y1="-252.1" x2="2648.5" y2="-246.3"/>
		<line class="st2" x1="2732" y1="-252.1" x2="2732" y2="-245.9"/>
		<line class="st2" x1="2728.5" y1="-251.4" x2="2728.5" y2="-245.9"/>
		<line class="st2" x1="2759.5" y1="-252.1" x2="2759.5" y2="-246.8"/>
		<line class="st2" x1="2767.5" y1="-251.4" x2="2767.5" y2="-245.9"/>
		<line class="st2" x1="2775.5" y1="-251.4" x2="2775.5" y2="-246.4"/>
		<line class="st2" x1="2488" y1="-252.1" x2="2488" y2="-245.9"/>
		<line class="st2" x1="2428.5" y1="-251.9" x2="2428.5" y2="-245.8"/>
		<line class="st3" x1="2327.7" y1="-51.9" x2="2371.6" y2="-51.9"/>
		<line class="st3" x1="2336.8" y1="-63.9" x2="2346.2" y2="-63.9"/>
		<line class="st3" x1="2354.8" y1="-63.2" x2="2364.2" y2="-63.2"/>
		<line class="st2" x1="2327.7" y1="-48.7" x2="2372.9" y2="-48.7"/>
		<line class="st2" x1="2856.8" y1="-252.1" x2="2856.8" y2="-245.9"/>
	</g>
	<g>
		<g>
			<path class="st0" d="M2855.8,186.8H2412l0,0h56.4V-48.7h-310.3v235.5h60.7l0,0h-546.2v33.3h546.3v23.8v47.9v37.1h38.5V220.1
				h116.1v108.8h38.5l0,0V220.1h443.7v-33.3H2855.8z M2257.4,186.8L2257.4,186.8h116.1l0,0H2257.4z"/>
			<rect x="2006.6" y="134.9" class="st0" width="9.9" height="9.9"/>
			<rect x="2006.6" y="152.9" class="st0" width="9.9" height="9.9"/>
			<rect x="2135.5" y="85.9" class="st0" width="10.8" height="40"/>
		</g>
		<polyline class="st2" points="2158.1,186.8 2158.1,-48.7 2468.5,-48.7 2468.5,186.8 		"/>
		<line class="st2" x1="1672.6" y1="186.8" x2="2218.9" y2="186.8"/>
		<line class="st2" x1="2257.4" y1="186.8" x2="2373.5" y2="186.8"/>
		<line class="st2" x1="2855.8" y1="219.9" x2="2412" y2="219.9"/>
		<line class="st2" x1="2412" y1="186.8" x2="2855.8" y2="186.8"/>
		<line class="st2" x1="2373.5" y1="219.9" x2="2257.4" y2="219.9"/>
		<line class="st2" x1="2218.9" y1="219.9" x2="1672.6" y2="219.9"/>
		<g>
			<rect x="2205.2" y="-30.5" class="st2" width="227" height="74.9"/>
			<g>
				<line class="st2" x1="2218.1" y1="-12.7" x2="2419.2" y2="-12.7"/>
				<line class="st2" x1="2218.1" y1="-7.1" x2="2419.2" y2="-7.1"/>
				<line class="st2" x1="2218.1" y1="-1.5" x2="2419.2" y2="-1.5"/>
				<line class="st2" x1="2218.1" y1="4.2" x2="2419.2" y2="4.2"/>
				<line class="st2" x1="2218.1" y1="9.8" x2="2419.2" y2="9.8"/>
				<line class="st2" x1="2218.1" y1="15.4" x2="2419.2" y2="15.4"/>
				<line class="st2" x1="2218.1" y1="21" x2="2419.2" y2="21"/>
				<line class="st2" x1="2218.1" y1="26.7" x2="2419.2" y2="26.7"/>
			</g>
			<ellipse class="st2" cx="2212" cy="-23.6" rx="2.2" ry="2.2"/>
			<ellipse class="st2" cx="2425.3" cy="-23.6" rx="2.2" ry="2.2"/>
			<ellipse class="st2" cx="2212" cy="37.6" rx="2.2" ry="2.2"/>
			<ellipse class="st2" cx="2425.3" cy="37.6" rx="2.2" ry="2.2"/>
		</g>
		<g>
			<path class="st2" d="M2218.9,329V93.5c0-10.6,8.6-19.3,19.3-19.3l0,0c10.6,0,19.3,8.6,19.3,19.3V329"/>
			<path class="st2" d="M2257.4,112.1c4.7-4.8,7.5-11.4,7.5-18.6c0-14.8-12-26.8-26.8-26.8c-14.8,0-26.8,12-26.8,26.8
				c0,7.2,2.9,13.8,7.5,18.6"/>
			<path class="st2" d="M2257.4,120.2c8.3-6,13.7-15.7,13.7-26.7c0-18.2-14.8-33-33-33c-18.2,0-33,14.8-33,33
				c0,11,5.4,20.7,13.7,26.7"/>
		</g>
		<g>
			<path class="st2" d="M2373.5,329V93.5c0-10.6,8.6-19.3,19.3-19.3l0,0c10.6,0,19.3,8.6,19.3,19.3V329"/>
			<path class="st2" d="M2412,112.1c4.7-4.8,7.5-11.4,7.5-18.6c0-14.8-12-26.8-26.8-26.8s-26.8,12-26.8,26.8
				c0,7.2,2.9,13.8,7.5,18.6"/>
			<path class="st2" d="M2412,120.2c8.3-6,13.7-15.7,13.7-26.7c0-18.2-14.8-33-33-33s-33,14.8-33,33c0,11,5.4,20.7,13.7,26.7"/>
		</g>
		<g>
			<rect x="2306.6" y="121.8" class="st2" width="17.6" height="45.2"/>
			<rect x="2324.3" y="130.9" class="st2" width="9.9" height="9.9"/>
			<rect x="2324.3" y="148.8" class="st2" width="9.9" height="9.9"/>
			<rect x="2296.7" y="130.9" class="st2" width="9.9" height="9.9"/>
			<rect x="2296.7" y="148.8" class="st2" width="9.9" height="9.9"/>
		</g>
		<rect x="2006.6" y="134.9" class="st2" width="9.9" height="9.9"/>
		<rect x="2006.6" y="152.9" class="st2" width="9.9" height="9.9"/>
		<g>
			<path class="st2" d="M2158.1,137.9h-5.4c-6.6,0-11.9-5.3-11.9-11.9l0,0"/>
			<path class="st2" d="M2140.8,85.9L2140.8,85.9c0-6.6,5.3-11.9,11.9-11.9h5.4"/>
			<rect x="2135.4" y="85.9" class="st2" width="10.8" height="40"/>
			<line class="st2" x1="2135.5" y1="118.2" x2="2146.3" y2="118.2"/>
			<line class="st2" x1="2135.5" y1="93.7" x2="2146.3" y2="93.7"/>
		</g>
		<rect x="2218.9" y="243.9" class="st2" width="23.3" height="47.9"/>
		<rect x="2392.8" y="144.8" class="st2" width="19.3" height="56.8"/>
		<path class="st2" d="M2016.5,138.9c66.7,11.7,135.2,18.1,202.3,12.3"/>
		<path class="st2" d="M2257.4,146.5c13.2-2.1,26.3-4.8,39.3-8"/>
		<path class="st2" d="M2016.5,156.1c4.4-0.6,8.9,0,13.4,0.6c62.6,7.9,126,9.8,188.9,5.6"/>
		<path class="st2" d="M2257.4,159c13.1-1.4,26.2-3,39.3-5"/>
		<path class="st2" d="M2334.2,155.1c13,2.4,26.2,4.6,39.3,6.6"/>
		<path class="st2" d="M2412,166.6c66.4,7.1,133.5,7,199.5-3c87.6-13.3,173.2-44.6,245.2-96"/>
		<path class="st2" d="M2334.2,135.8c13.1,0.7,26.2,1.3,39.3,1.9"/>
		<path class="st2" d="M2412,139.2c49.9,1.6,99.8,1.3,149.4-4c103.9-11.1,205.2-44.6,295.3-97.4"/>
		<line class="st2" x1="2219.5" y1="324.1" x2="2257.5" y2="324.1"/>
		<line class="st2" x1="2218.9" y1="316.1" x2="2257.4" y2="316.1"/>
		<line class="st2" x1="2373.5" y1="322.1" x2="2412" y2="322.1"/>
		<line class="st2" x1="2374" y1="317.1" x2="2412" y2="317.1"/>
		<line class="st2" x1="2373.5" y1="299.6" x2="2412" y2="299.6"/>
		<line class="st2" x1="2262.5" y1="186.6" x2="2262.5" y2="219.1"/>
		<line class="st2" x1="2270.5" y1="187.1" x2="2270.5" y2="219.1"/>
		<line class="st2" x1="2368.5" y1="186.8" x2="2368.5" y2="219.9"/>
		<path class="st2" d="M2213,188.6c0-0.5,0-1,0-1.5v32.8"/>
		<line class="st2" x1="2418.5" y1="186.8" x2="2418.5" y2="220.1"/>
		<line class="st2" x1="2425.5" y1="187.6" x2="2425.5" y2="219.9"/>
		<line class="st2" x1="1678.5" y1="186.8" x2="1678.5" y2="219.9"/>
		<line class="st2" x1="1688.5" y1="186.8" x2="1688.5" y2="219.9"/>
		<line class="st2" x1="1694.5" y1="187.1" x2="1694.5" y2="219.1"/>
		<line class="st2" x1="1695.1" y1="208.7" x2="2213" y2="208.7"/>
		<line class="st2" x1="2010.5" y1="135.1" x2="2010.5" y2="144.6"/>
		<line class="st2" x1="2011.5" y1="153.6" x2="2011.5" y2="161.7"/>
		<line class="st2" x1="2302.5" y1="131.1" x2="2302.5" y2="140.1"/>
		<line class="st2" x1="2302.5" y1="149.6" x2="2302.5" y2="158.2"/>
		<line class="st2" x1="2328" y1="131.6" x2="2328" y2="139.1"/>
		<line class="st2" x1="2329.5" y1="149.6" x2="2329.5" y2="158.8"/>
		<line class="st3" x1="1696.5" y1="203.1" x2="2213" y2="203.1"/>
		<line class="st3" x1="2320" y1="122.1" x2="2320" y2="165.6"/>
		<line class="st3" x1="2316" y1="123.1" x2="2316" y2="167.1"/>
		<line class="st3" x1="2270.5" y1="208.1" x2="2368.5" y2="208.1"/>
		<path class="st3" d="M2412.4,110.2c1.9,1.6,3.9,3.1,6.1,4.4"/>
		<path class="st3" d="M2416,107.1c1.7,1.3,3.5,2.3,5.5,3"/>
		<path class="st3" d="M2418.4,101.2c1.9,0.2,3.7,0.3,5.6,0.5"/>
		<path class="st3" d="M2372.5,110.6c-1.7,1.1-3.1,2.7-4.1,4.4"/>
		<path class="st3" d="M2369,106c-2,0.5-3.9,1.3-5.5,2.5"/>
		<path class="st3" d="M2258.7,111.9c1.4,1.2,2.7,2.3,4.1,3.5"/>
		<path class="st3" d="M2262,105.3c2-0.2,4.1,0.1,6,0.8"/>
		<path class="st3" d="M2216.9,111.5c-1.2,1.2-2.4,2.4-3.7,3.6"/>
		<path class="st3" d="M2209.8,110.3c2-1.2,4.1-2.2,6.3-3"/>
		<line class="st3" x1="2158.5" y1="180.1" x2="2219" y2="180.1"/>
		<line class="st3" x1="2257" y1="180.6" x2="2373" y2="180.6"/>
		<line class="st3" x1="2412.5" y1="182.1" x2="2467.6" y2="182.1"/>
		<line class="st3" x1="2397" y1="145.1" x2="2397" y2="201.6"/>
		<line class="st3" x1="2226" y1="244.1" x2="2226" y2="291.1"/>
		<line class="st3" x1="2204.8" y1="51.4" x2="2467.6" y2="51.4"/>
		<line class="st3" x1="2426" y1="207.3" x2="2855.8" y2="207.3"/>
		<line class="st3" x1="2426" y1="210.8" x2="2855.8" y2="210.8"/>
		<path class="st3" d="M2425.5,192.8c0.2,0,0.3,0,0.5,0h429.8"/>
		<line class="st3" x1="2426" y1="216.8" x2="2855.8" y2="216.8"/>
		<line class="st4" x1="1672.6" y1="186.8" x2="1672.6" y2="219.9"/>
		<line class="st4" x1="2218.9" y1="329" x2="2257.4" y2="329"/>
		<line class="st4" x1="2373.5" y1="329" x2="2412" y2="329"/>
		<line class="st2" x1="2855.8" y1="186.8" x2="2855.8" y2="219.9"/>
	</g>
	<g>
		<path class="st0" d="M2524.4-23.6v20.9v3.4h-3.4l0,0h-20.9l0,0h-15.9v-3.9h-7v-17h-8.6V99.2h8.6V82.4h7v-3.9h15.9l0,0h20.9l0,0
			h3.4v3.4v20.9v83.9h24.7v-83.9V81.9v-3.4c0-13.6-11-24.7-24.7-24.7h-3.4h-20.9h-15.9v-3.9h-7V29.2h7v-3.9h15.9h20.9h3.4
			c13.6,0,24.7-11,24.7-24.7v-3.4v-20.9v-253.1h-24.7V-23.6z"/>
		<line class="st2" x1="2524.4" y1="182.6" x2="2549" y2="182.6"/>
		<rect x="2468.5" y="-20.2" class="st2" width="8.6" height="119.4"/>
		<g>
			<g>
				<rect x="2524.3" y="-23.6" class="st2" width="24.7" height="20.9"/>
				<line class="st2" x1="2524.4" y1="-16.6" x2="2549" y2="-16.6"/>
			</g>
			<g>
				<rect x="2500" y="0.8" class="st2" width="20.9" height="24.7"/>
				<line class="st2" x1="2507.1" y1="25.4" x2="2507.1" y2="0.7"/>
			</g>
			<rect x="2477.1" y="-3.2" class="st2" width="7" height="32.5"/>
		</g>
		<path class="st2" d="M2524.4,186.8V78.6h-40.3V53.9h40.3c13.6,0,24.7,11,24.7,24.7v108.2"/>
		<g>
			<rect x="2524.3" y="82" class="st2" width="24.7" height="20.9"/>
			<line class="st2" x1="2524.4" y1="95.9" x2="2549" y2="95.9"/>
		</g>
		<g>
			<rect x="2500" y="53.8" class="st2" width="20.9" height="24.7"/>
			<line class="st2" x1="2507.1" y1="53.9" x2="2507.1" y2="78.6"/>
		</g>
		<rect x="2477.1" y="50" class="st2" width="7" height="32.5"/>
		<path class="st2" d="M2549-245.9v124.4h-24.7v-124.4V0.7H2484v24.7h40.3c13.6,0,24.7-11,24.7-24.7V-245.9z"/>
		<polygon class="st2" points="2549,-252.1 2549,-276.8 2524.4,-276.8 2524.4,-252.1 2524.4,-276.8 2549,-276.8 		"/>
		<line class="st2" x1="2526" y1="-271.4" x2="2548.6" y2="-271.4"/>
		<line class="st2" x1="2524.5" y1="-265.9" x2="2548" y2="-265.9"/>
		<line class="st2" x1="2525.5" y1="-239.4" x2="2547.6" y2="-239.4"/>
		<line class="st2" x1="2524.5" y1="-233.4" x2="2548" y2="-233.4"/>
		<line class="st3" x1="2472.8" y1="-20.6" x2="2472.8" y2="98.1"/>
		<line class="st3" x1="2488.2" y1="54.8" x2="2488.2" y2="78.1"/>
		<line class="st3" x1="2487.5" y1="1.4" x2="2487.5" y2="25.4"/>
		<line class="st2" x1="2524.4" y1="-245.9" x2="2549" y2="-245.9"/>
		<line class="st2" x1="2524.4" y1="-252.1" x2="2549" y2="-252.1"/>
		<line class="st2" x1="2524.4" y1="186.8" x2="2549" y2="186.8"/>
	</g>
	<g>
		<g>
			<g>
				<polyline class="st2" points="1672.6,291.8 1672.6,329 1335.1,329 1335.1,105.9 1672.6,105.9 1672.6,253.3 				"/>
				<line class="st3" x1="1335.5" y1="322.1" x2="1671.6" y2="322.1"/>
				<g>
					<rect x="1923.4" y="220.4" class="st0" width="45.2" height="10.9"/>
					<rect x="1949.6" y="231.3" class="st0" width="9.9" height="9.9"/>
					<rect x="1931.6" y="231.3" class="st0" width="9.9" height="9.9"/>
					<path class="st0" d="M1720.8,241.2v12h-48.3V105.9h6.5c2.3,0,4.2-1.9,4.2-4.2c0-2.3-1.9-4.2-4.2-4.2h-350.4
						c-2.3,0-4.2,1.9-4.2,4.2c0,2.3,1.9,4.2,4.2,4.2h6.5v223h337.5v-37.1h48.3v12h34.6v-62.6H1720.8z"/>
				</g>
				<line class="st2" x1="1923.4" y1="220.4" x2="1968.6" y2="220.4"/>
			</g>
			<g>
				<g>
					<polyline class="st2" points="1923.4,220.4 1923.4,231.3 1968.6,231.3 1968.6,220.4 					"/>
					<rect x="1949.6" y="231.3" class="st2" width="9.9" height="9.9"/>
					<rect x="1931.6" y="231.3" class="st2" width="9.9" height="9.9"/>
				</g>
			</g>
			<path class="st2" d="M1679.1,97.5h-350.5c-2.3,0-4.2,1.9-4.2,4.2l0,0c0,2.3,1.9,4.2,4.2,4.2h350.5c2.3,0,4.2-1.9,4.2-4.2l0,0
				C1683.3,99.3,1681.4,97.5,1679.1,97.5z"/>
			<path class="st2" d="M1335.1,154.9c24.1,0,24.1,12,48.2,12c24.1,0,24.1-12,48.2-12c24.1,0,24.1,12,48.2,12
				c24.1,0,24.1-12,48.2-12s24.1,12,48.2,12c24.1,0,24.1-12,48.2-12c24.1,0,24.1,12,48.2,12"/>
			<g>
				<path class="st2" d="M1720.8,291.8h-141.3c-10.6,0-19.3-8.6-19.3-19.3l0,0c0-10.6,8.6-19.3,19.3-19.3h141.3"/>
				<path class="st2" d="M1598.2,253.3c-4.8-4.7-11.4-7.5-18.6-7.5c-14.8,0-26.8,12-26.8,26.8s12,26.8,26.8,26.8
					c7.2,0,13.8-2.9,18.6-7.5"/>
				<path class="st2" d="M1606.3,253.3c-6-8.3-15.7-13.7-26.7-13.7c-18.2,0-33,14.8-33,33s14.8,33,33,33c11,0,20.7-5.4,26.7-13.7"/>
			</g>
			<circle class="st2" cx="1478.8" cy="236.3" r="7.7"/>
			<circle class="st2" cx="1518.5" cy="259.1" r="7.2"/>
			<circle class="st2" cx="1607" cy="180.4" r="3"/>
			<circle class="st2" cx="1532.1" cy="183.7" r="6.4"/>
			<circle class="st2" cx="1525" cy="233.8" r="2.5"/>
			<circle class="st2" cx="1482.7" cy="284.5" r="3.8"/>
			<circle class="st2" cx="1442.5" cy="277.6" r="3"/>
			<circle class="st2" cx="1364.3" cy="187.9" r="4.2"/>
			<circle class="st2" cx="1396.3" cy="261.8" r="2.8"/>
			<circle class="st2" cx="1578.7" cy="222.2" r="2.3"/>
			<circle class="st2" cx="1481.7" cy="196.9" r="2.8"/>
			<circle class="st2" cx="1429.8" cy="255.6" r="3.8"/>
			<circle class="st2" cx="1404.3" cy="199.3" r="5.3"/>
			<circle class="st2" cx="1516.8" cy="310.3" r="4.8"/>
			<circle class="st2" cx="1570.7" cy="192.6" r="4.7"/>
			<circle class="st2" cx="1552.5" cy="234.3" r="3"/>
			<circle class="st2" cx="1447" cy="213.1" r="4.5"/>
			<circle class="st2" cx="1503.2" cy="181.6" r="2.2"/>
			<circle class="st2" cx="1494.8" cy="218.7" r="6.3"/>
			<circle class="st2" cx="1463.8" cy="264.1" r="2.3"/>
			<rect x="1720.8" y="241.2" class="st2" width="34.6" height="62.6"/>
			<path class="st2" d="M1937.5,241.2c1.4,9.7-5.9,19.2-14,25.3c-20.8,15.8-48.1,20.2-74.2,20.2c-32-0.1-64.1-6.2-93.9-17.9"/>
			<path class="st2" d="M1755.4,259.1c7.1,2.4,13.8,6.1,20.4,9.7c20.8,11.3,42,22.1,64.5,29.2c22.5,7.1,46.6,10.5,70,6.7
				c12.6-2,25.5-6.6,33.6-16.4c10.4-12.7,12.3-30.5,11.1-47"/>
			<path class="st2" d="M1755.4,285.2c20.1,1.3,40.8-3.1,57.8-14c17.9-11.5,31.4-30.3,34.7-51.3"/>
			<path class="st2" d="M1755.4,295.4c20.6,3.9,42.1,4.7,61.7-2.1c31.2-10.9,53.6-40.9,59.5-73.4"/>
			<line class="st2" x1="1931.5" y1="236.1" x2="1940.6" y2="236.1"/>
			<line class="st2" x1="1950.5" y1="235.6" x2="1959" y2="235.6"/>
			<line class="st2" x1="1751" y1="242.1" x2="1751" y2="302.6"/>
			<line class="st2" x1="1743" y1="241.2" x2="1743" y2="303.8"/>
			<line class="st2" x1="1584.8" y1="279.4" x2="1708.9" y2="279.4"/>
			<line class="st3" x1="1336.5" y1="112.1" x2="1671.8" y2="112.1"/>
			<line class="st3" x1="1721.5" y1="300.1" x2="1755.4" y2="300.1"/>
			<line class="st3" x1="1721.5" y1="295.1" x2="1742.5" y2="295.1"/>
			<line class="st3" x1="1923.5" y1="224.1" x2="1967.6" y2="224.1"/>
			<line class="st2" x1="1714.8" y1="253.3" x2="1714.8" y2="291.8"/>
			<line class="st2" x1="1709" y1="253.3" x2="1709" y2="291.8"/>
			<g>
				<polyline class="st2" points="1672.6,291.8 1672.6,329 1335.1,329 1335.1,105.9 1672.6,105.9 1672.6,253.3 				"/>
				<line class="st3" x1="1335.5" y1="322.1" x2="1671.6" y2="322.1"/>
				<line class="st2" x1="1923.4" y1="220.4" x2="1968.6" y2="220.4"/>
			</g>
			<line class="st3" x1="1335.5" y1="322.1" x2="1671.6" y2="322.1"/>
			<polyline class="st2" points="1672.6,291.8 1672.6,329 1335.1,329 1335.1,105.9 1672.6,105.9 1672.6,253.3 			"/>
			<line class="st2" x1="1923.4" y1="220.4" x2="1968.6" y2="220.4"/>
			<line class="st2" x1="1714.8" y1="253.3" x2="1714.8" y2="291.8"/>
			<line class="st5" x1="1709" y1="253.3" x2="1709" y2="291.8"/>
		</g>
	</g>
</g>
<path class="st6" d="M1828.6,83.2c5.9,0.7,11.6,1.4,17.5,2.2c-2-3-4-6-5.9-9C1840.2,76.4,1828.6,83.2,1828.6,83.2z M1847.8,66.3
	c-0.5,0.7-1,1.4-1.6,2.1c-1.8,2.4-3.5,4.9-5.3,7.3c-0.1,0.1-0.2,0.2-0.1,0.5c1.7,2.6,3.4,5.2,5.1,7.8c0.3,0.4,0.5,0.8,0.9,1.2
	C1847.2,78.9,1847.5,72.6,1847.8,66.3C1847.9,66.4,1847.8,66.3,1847.8,66.3z M1824.4,74.4c0.1,0.1,0.3,0.1,0.4,0.1
	c1.6-0.7,3.3-1.5,4.9-2.3c0.5-0.3,0.9-0.7,1.4-1.1c1.5-1.3,3-2.5,4.5-3.8c0.1-0.1,0.2-0.2,0.3-0.2c0.5-1,1.1-1.9,1.6-2.9
	c-0.7-0.2-1.3-0.4-1.9-0.6c-0.1,0-0.2,0-0.3,0.1c-1.4,0.7-2.9,1.4-4.3,2.2c-0.7,0.4-1.3,1-1.9,1.5c-1,0.8-2,1.7-3,2.5
	c-0.3,0.2-0.5,0.5-0.7,0.8c-0.7,0.9-1.3,1.8-2,2.7C1823.7,73.7,1824.1,74.1,1824.4,74.4z M1830.4,73.2c-0.8,3.1-1.6,6.3-2.5,9.5
	c3.9-2.3,7.8-4.6,11.6-6.8C1836.5,75,1833.5,74.1,1830.4,73.2z M1846.8,66.4c-3.3,0.5-6.6,1-9.9,1.5c1.1,2.5,2.2,4.9,3.3,7.4
	C1842.5,72.3,1844.6,69.4,1846.8,66.4z M1830.6,72.5c3,0.9,5.9,1.8,9,2.7c-1.1-2.5-2.2-4.9-3.3-7.4
	C1834.3,69.4,1832.5,70.9,1830.6,72.5z M1824.6,76.2c-1.1,2.3-2.1,4.6-3.1,6.8c2-0.1,4-0.1,6-0.2
	C1826.4,80.7,1825.5,78.5,1824.6,76.2z M1827.5,81.3L1827.5,81.3c0.8-2.7,1.5-5.4,2.2-8.3c-1.6,0.8-3.2,1.5-4.8,2.3
	C1825.7,77.3,1826.6,79.3,1827.5,81.3z M1845.6,65.9c-1-0.2-1.9-0.5-2.9-0.7c-1.4-0.3-2.7-0.7-4.1-1c-0.2,0-0.3-0.1-0.4,0.1
	c-0.5,0.9-1,1.8-1.5,2.7c0,0,0,0.1,0,0.1C1839.7,66.8,1842.7,66.4,1845.6,65.9C1845.6,66,1845.6,65.9,1845.6,65.9z M1840.1,63.9
	l7.8,2c-0.4-1.2-0.9-2.2-1.3-3.3L1840.1,63.9C1840.1,63.8,1840.1,63.9,1840.1,63.9z M1828.1,83.7c-1-0.1-1.9,0-2.9,0
	c-0.8,0-1.6,0-2.4,0.1c-0.1,0-0.2,0-0.2,0.1c6.6,0.6,13.3,1.1,19.9,1.7l0-0.1c-2.1-0.3-4.2-0.5-6.4-0.8
	C1833.4,84.3,1830.8,84,1828.1,83.7z M1821.6,81c0.9-1.8,1.7-3.6,2.6-5.4c0.1-0.2,0.1-0.3-0.1-0.5c-0.4-0.3-0.7-0.6-1.1-1
	c-0.5,2.4-1,4.7-1.6,7l0.1,0C1821.5,81.1,1821.5,81,1821.6,81z M1838.4,63.4c1.4-0.3,2.9-0.6,4.4-0.9c0.1,0,0.2,0,0.3-0.1l0-0.1
	c-2,0.3-4.1,0.5-6.2,0.8C1837.3,63.4,1837.8,63.5,1838.4,63.4z"/>
<path class="st6" d="M1907.8,67.3l-10.2-6.4c-0.6-0.4-1.5-0.4-2.1,0l-10.3,6.4c-0.7,0.4-1.1,1.2-1.1,2v12.8c0,0.8,0.5,1.6,1.2,2
	l2.7,1.7c1.3,0.7,1.8,0.7,2.4,0.7c1.9,0,3-1.3,3-3.5V70.4c0-0.2-0.1-0.4-0.2-0.4h-1.3c-0.2,0-0.5,0.3-0.5,0.4v12.7
	c0,1-0.8,1.9-2.3,1.1l-2.8-1.8c-0.1-0.1-0.2-0.2-0.2-0.3V69.3c0-0.1,0.1-0.2,0.2-0.3l10.3-6.4c0.1-0.1,0.2-0.1,0.3,0l10.2,6.4
	c0.1,0.1,0.1,0.2,0.1,0.3v12.8c0,0.1,0,0.2-0.1,0.3l-10.2,6.4c-0.1,0.1-0.2,0.1-0.3,0l-2.6-1.7c-0.1,0-0.2-0.1-0.2,0
	c-0.7,0.4-0.9,0.5-1.6,0.8c-0.2,0.1-0.4,0.2,0.1,0.5l3.4,2.2c0.3,0.2,0.7,0.3,1.1,0.3c0.4,0,0.8-0.1,1.1-0.3l10.2-6.4
	c0.7-0.4,1-1.2,1-2V69.3C1908.8,68.5,1908.5,67.7,1907.8,67.3z M1899.7,80.1c-2.7,0-3.3-0.8-3.5-2.3c0-0.2-0.1-0.3-0.3-0.3h-1.3
	c-0.2,0-0.3,0.2-0.3,0.4c0,1.9,0.9,4.1,5.4,4.1c3.3,0,5.1-1.4,5.1-3.8c0-2.4-1.5-3-4.7-3.5c-3.2-0.5-3.5-0.7-3.5-1.5
	c0-0.7,0.3-1.6,2.6-1.6c2.1,0,2.9,0.5,3.2,2c0,0.1,0.1,0.2,0.3,0.2h1.3c0.1,0,0.2,0,0.2-0.1c0.1-0.1,0.1-0.2,0.1-0.2
	c-0.2-2.6-1.8-3.9-5.1-3.9c-2.9,0-4.7,1.3-4.7,3.6c0,2.4,1.7,3.1,4.6,3.4c3.4,0.4,3.6,0.9,3.6,1.6
	C1902.8,79.6,1901.9,80.1,1899.7,80.1z"/>
<g>
	<path class="st6" d="M1966.4,75.5C1966.4,75.5,1966.3,75.5,1966.4,75.5l-0.1-0.1c0,0,0,0,0,0l0,0c0,0,0,0,0,0l0,0c0,0,0,0,0,0l0,0
		c0,0,0,0,0,0c0,0,0,0,0,0l-0.1,0c0,0,0,0,0,0l-0.1,0h0l-0.1,0h0c0,0,0,0-0.1,0h-0.5c-0.1-3.1,0.1-6.3-0.6-9.3
		c2.9-1.1,0.6-5.2-1.9-3.4c-1.7-1.5-4-1.8-6.5-1.8c-2.4,0.2-4.7,0.7-6.2,2c-0.6-0.3-1.3-0.4-1.8-0.3v0c0,0-0.1,0-0.1,0
		c0,0-0.1,0-0.1,0h0c0,0,0,0-0.1,0h0l-0.1,0h0l-0.1,0h0l-0.1,0c0,0,0,0,0,0l-0.1,0c0,0,0,0,0,0l-0.1,0c0,0,0,0,0,0l-0.1,0l0,0
		c0,0,0,0,0,0l0,0l0,0l0,0c0,0,0,0,0,0l0,0c0,0,0,0,0,0l0,0c0,0,0,0,0,0l0,0c0,0,0,0,0,0l0,0c0,0,0,0,0,0l0,0l0,0.1c0,0,0,0,0,0
		l0,0.1c0,0,0,0,0,0l0,0.1c0,0,0,0,0,0l0,0.1c0,0,0,0,0,0c0.1,0.1,0.1,0.1,0.1,0.1v0l0,0.1v0c0,0,0,0,0,0.1v0.7c0,0,0,0,0,0.1v0
		l0,0.1v0l0,0.1c0,0,0,0,0,0l0,0.1c0,0,0,0,0,0l0,0.1c0,0,0,0,0,0l0,0.1c0,0,0,0,0,0l0,0.1c0,0,0,0,0,0l0,0.1l0,0l0.1,0.1l0.1,0.1h0
		c0.2,0.2,0.5,0.4,0.9,0.5v-0.1c-1,3-0.2,5.9-0.1,9c-0.1,0-0.2,0.1-0.4,0.1h-0.1c0,0-0.1,0-0.1,0c0,0-0.1,0-0.1,0l-0.1,0h0l-0.1,0h0
		l-0.1,0h0l-0.1,0c0,0,0,0,0,0l-0.1,0l0,0c0,0,0,0,0,0l0,0l0,0c0,0,0,0,0,0l0,0l-0.1,0.1c0,0,0,0-0.1,0l-0.1,0.1l0,0
		c0,0-0.1,0.1-0.1,0.1l0,0.1l-0.1,0.1l0,0.1v0.1c0,0.1,0,0.2,0.2,0.3c0,0.9,0.9,0.5,1.3,0.2l0,0c0,0,0.1-0.1,0.1-0.1h0l0,0
		c0,0,0,0,0,0c0,0,0.1,0,0.1,0c0,0,0,0,0,0l0,0c0,0,0-0.1,0-0.3l0-0.3v0.4c-0.1,3.1-0.9,7.2,0.8,10c0.3,0.5,0.7,0.9,1.1,1.3h-0.1
		c0,0-0.1,0.1-0.2,0.1l-0.2,0.1l-0.1,0l-0.1,0.1l-0.2,0.2l-0.3,0.2c0,0-0.1,0.1-0.1,0.1l-0.1,0.1l0,0.1c0,0,0,0.1,0,0.1l0,0.1
		c0,0.2,0,0.4,0.1,0.6l0.1,0.1h0c0,0,0,0,0.1,0c0,0.1,0.3,0.6,0.9,0.2c0.6-0.4,1.1-1.1,1.8-1.2l-0.1-0.1c1.3,0.7,2.9,0.9,4.3,1
		c2,0.1,4.2-0.2,6-1.2c0.5,0.2,0.9,0.9,1.3,1.3l0,0l0,0l0,0l0,0c0,0,0,0,0,0c0,0,0,0,0,0c0,0,0,0,0,0h0.5c0,0,0,0,0,0h0c0,0,0,0,0,0
		h0c0,0,0,0,0,0c0,0,0,0,0,0l0,0c0,0,0,0,0,0l0,0h0l0,0l0,0h0l0,0h0l0,0l0,0l0,0l0,0l0,0l0,0l0,0v0c0,0,0,0,0,0v0c0,0,0,0,0,0v0
		c0,0,0,0,0,0v-0.3c0,0-0.1,0-0.1,0l-0.1,0v0l0.1,0c0,0,0,0,0,0l0,0v-0.5c0,0,0,0,0,0v0c0,0,0,0,0,0v0c0,0,0,0,0,0c0,0,0,0,0,0
		c0,0,0,0,0,0c0,0,0,0,0,0c0,0,0,0,0,0c0,0,0,0,0,0c0,0,0,0,0,0c0,0,0,0,0,0c0,0,0,0,0,0c0,0,0,0,0,0c0,0,0,0,0,0c0,0,0,0,0,0
		c0,0,0,0,0,0c0,0,0,0,0,0l0,0l0,0l0,0l0,0l0,0l0,0l0,0l0,0l0,0l0,0l0,0l0,0v0l0,0l0,0l0,0l0,0l0,0l0,0l0,0l0,0l0,0l0,0l0,0l0,0l0,0
		l0,0l0,0l0,0l0,0l0,0l0,0c0.5-0.4,0.9-1,1.2-1.6c1.3-2.8,1.1-6.1,0.9-9.2h0c0,0,0,0,0,0h0.1c0,0,0,0,0,0h0c0,0,0,0,0,0l0,0
		c0.4,0.3,1.2,0.7,1.3-0.2C1967,76.2,1966.6,75.7,1966.4,75.5L1966.4,75.5z M1949.9,65.7c-0.7-3.8,5.1-4.5,5.3-0.8
		C1955.4,68,1950.7,68.7,1949.9,65.7z M1958.2,69.2c-0.3,0.3-0.6,0.3-0.9,0.2c0,0.4,0.1,0.9,0,1.4c-0.1,0.2-0.3,0.2-0.5,0.3
		c-0.3,0-0.5-0.2-0.6-0.5l0,0c-0.9,1.2-1.4-0.3-1.2-1.2c-0.3,0-0.5,0-0.7-0.4c-0.3-0.6,0.2-1.4,0.8-1.5c0.2,0.7,2,0.6,2.3,0
		C1958,67.9,1958.8,68.6,1958.2,69.2z M1956.6,65.1c-0.2-3.2,4.6-4.1,5.3-0.9C1962.7,67.7,1957.2,68.6,1956.6,65.1z M1951.2,64.3
		c-0.4,0-0.8,0.4-0.8,0.9s0.4,0.9,0.8,0.9s0.8-0.4,0.8-0.9C1952,64.7,1951.7,64.3,1951.2,64.3z M1951.6,65.6c-0.1,0-0.2-0.1-0.2-0.2
		c0-0.1,0.1-0.2,0.2-0.2c0.1,0,0.2,0.1,0.2,0.2C1951.8,65.5,1951.7,65.6,1951.6,65.6z M1957.9,64.1c-0.4,0-0.8,0.4-0.8,0.9
		s0.3,0.9,0.8,0.9c0.4,0,0.8-0.4,0.8-0.9S1958.4,64.1,1957.9,64.1z M1958.3,65.4c-0.1,0-0.2-0.1-0.2-0.2c0-0.1,0.1-0.2,0.2-0.2
		s0.2,0.1,0.2,0.2S1958.4,65.4,1958.3,65.4z"/>
</g>
</svg>
