<?xml version="1.0" encoding="utf-8"?>
<!-- Generator: Adobe Illustrator 20.1.0, SVG Export Plug-In . SVG Version: 6.00 Build 0)  -->
<svg version="1.1" id="Слой_1" xmlns="http://www.w3.org/2000/svg" xmlns:xlink="http://www.w3.org/1999/xlink" x="0px" y="0px"
	 viewBox="0 0 1922.8 607.8" style="enable-background:new 0 0 1922.8 607.8;" xml:space="preserve">
<style type="text/css">
	.st0{fill:#F4E1A1;}
	.st1{fill:none;stroke:#817957;stroke-width:2.0006;stroke-linecap:round;stroke-linejoin:round;stroke-miterlimit:10;}
	.st2{fill:none;stroke:#817957;stroke-width:2;stroke-linecap:round;stroke-linejoin:round;stroke-miterlimit:10;}
	.st3{fill:none;stroke:#817957;stroke-linecap:round;stroke-linejoin:round;stroke-miterlimit:10;}
	.st4{fill:none;stroke:#817957;stroke-width:2.0066;stroke-linecap:round;stroke-linejoin:round;stroke-miterlimit:10;}
	.st5{display:none;fill:none;stroke:#817957;stroke-width:2;stroke-linecap:round;stroke-linejoin:round;stroke-miterlimit:10;}
</style>
<g id="_x31_7">
	<g>
		<g>
			<path class="st0" d="M980.5,220.4v-10c0-10.3-8.4-18.7-18.7-18.7h0c-10.3,0-18.7,8.4-18.7,18.7v10H980.5z"/>
			<path class="st0" d="M1104.9,262.9c0-4.8-3.2-8.8-7.6-10c0,0-0.1,0-0.1-0.1l0,0c-0.8-0.2-1.7-0.3-2.6-0.3
				c-5.7,0-10.3,4.6-10.3,10.3c0,1.7,0.4,3.3,1.1,4.7l-0.1,0.2c0.1,0,0.2,0,0.3,0c1.5,2.7,4.1,4.7,7.2,5.3h0v63.8h-5.3v-17.1h-15.6
				v-90.6h-81.5v-8.7h-56.7v8.7h-96.9v235.5H871v0h133.5v0h67.1v-81.9h15.6v-17.5h14.6v-28.4h-5.3v-63.8h0
				C1101.3,272.2,1104.9,268,1104.9,262.9z"/>
		</g>
		<polyline class="st1" points="836.5,464.6 836.5,229.1 1071.6,229.1 1071.6,464.6 		"/>
		<g>
			<g>
				<g>
					<rect x="877.8" y="377.7" class="st2" width="48" height="24"/>
					<rect x="877.8" y="329.7" class="st2" width="48" height="48"/>
					<rect x="877.8" y="305.7" class="st2" width="48" height="24"/>
					
						<rect x="847.8" y="323.7" transform="matrix(-1.836970e-16 1 -1 -1.836970e-16 1255.5017 -548.0579)" class="st2" width="108" height="60"/>
					<rect x="877.8" y="305.7" class="st2" width="48" height="96"/>
					<circle class="st2" cx="901.8" cy="353.7" r="18"/>
					<path class="st2" d="M919.8,305.7c0,9.9-8.1,18-18,18s-18-8.1-18-18"/>
					<path class="st2" d="M883.8,401.7c0-9.9,8.1-18,18-18s18,8.1,18,18"/>
				</g>
				<rect x="864.3" y="299.7" class="st2" width="67.5" height="108"/>
			</g>
			<g>
				<g>
					<rect x="937.8" y="377.7" class="st2" width="48" height="24"/>
					<rect x="937.8" y="329.7" class="st2" width="48" height="48"/>
					<rect x="937.8" y="305.7" class="st2" width="48" height="24"/>
					
						<rect x="907.8" y="323.7" transform="matrix(-1.836970e-16 1 -1 -1.836970e-16 1315.5017 -608.0579)" class="st2" width="108" height="60"/>
					<rect x="937.8" y="305.7" class="st2" width="48" height="96"/>
					<circle class="st2" cx="961.8" cy="353.7" r="18"/>
					<path class="st2" d="M979.8,305.7c0,9.9-8.1,18-18,18s-18-8.1-18-18"/>
					<path class="st2" d="M943.8,401.7c0-9.9,8.1-18,18-18s18,8.1,18,18"/>
				</g>
			</g>
			<g>
				<g>
					<rect x="997.8" y="377.7" class="st2" width="48" height="24"/>
					<rect x="997.8" y="329.7" class="st2" width="48" height="48"/>
					<rect x="997.8" y="305.7" class="st2" width="48" height="24"/>
					
						<rect x="967.8" y="323.7" transform="matrix(-1.836970e-16 1 -1 -1.836970e-16 1375.5017 -668.0579)" class="st2" width="108" height="60"/>
					<rect x="997.8" y="305.7" class="st2" width="48" height="96"/>
					<circle class="st2" cx="1021.8" cy="353.7" r="18"/>
					<path class="st2" d="M1039.8,305.7c0,9.9-8.1,18-18,18c-9.9,0-18-8.1-18-18"/>
					<path class="st2" d="M1003.8,401.7c0-9.9,8.1-18,18-18c9.9,0,18,8.1,18,18"/>
				</g>
				<rect x="991.8" y="299.7" class="st2" width="67.5" height="108"/>
			</g>
		</g>
		<rect x="864.3" y="239.8" class="st2" width="195" height="49"/>
		<g>
			<path class="st2" d="M980.5,220.4v-10c0-10.3-8.4-18.7-18.7-18.7l0,0c-10.3,0-18.7,8.4-18.7,18.7v10"/>
			<rect x="933.4" y="220.4" class="st2" width="56.7" height="8.7"/>
			<path class="st2" d="M965.3,220.4v-14.7c0-2-1.6-3.5-3.5-3.5l0,0c-2,0-3.5,1.6-3.5,3.5v14.7"/>
		</g>
		<rect x="871" y="433.7" class="st2" width="133.5" height="30.9"/>
		<line class="st2" x1="871" y1="449.1" x2="1004.5" y2="449.1"/>
		<line class="st2" x1="871" y1="457.2" x2="1004.5" y2="457.2"/>
		<circle class="st2" cx="1038.3" cy="438.7" r="16.5"/>
		<rect x="1035.3" y="428.2" class="st2" width="6" height="21"/>
		<line class="st3" x1="1039.2" y1="427.9" x2="1039.2" y2="448.6"/>
		<g>
			
				<rect x="1071.6" y="319.7" transform="matrix(-1 -4.489132e-11 4.489132e-11 -1 2158.8672 702.4278)" class="st2" width="15.6" height="63"/>
			<polyline class="st2" points="1096.5,336.8 1101.9,336.8 1101.9,365.2 1087.3,365.2 1087.3,336.8 1092.6,336.8 			"/>
			<polyline class="st2" points="1092.6,273.1 1092.6,348.4 1096.5,348.4 1096.5,273.1 			"/>
			<circle class="st2" cx="1094.6" cy="262.9" r="10.3"/>
			<line class="st2" x1="1087.5" y1="358.4" x2="1101.5" y2="358.4"/>
			<line class="st2" x1="1072" y1="375.9" x2="1086" y2="375.9"/>
			<line class="st2" x1="1071.5" y1="371.4" x2="1086.5" y2="371.4"/>
			<line class="st2" x1="1072" y1="326.4" x2="1086" y2="326.4"/>
			<line class="st2" x1="1072.5" y1="331.9" x2="1087" y2="331.9"/>
			<line class="st2" x1="1072.5" y1="340.4" x2="1087.3" y2="340.4"/>
			<path class="st2" d="M1072.5,353.4c0,0.2,0,0.3,0,0.5h14"/>
			<path class="st3" d="M1084.8,266c2.9-0.3,5.7-1.9,7.3-4.3c1.6-2.4,2.2-5.6,1.3-8.4"/>
			<path class="st3" d="M1085.2,267.8c2.2,0.4,4.4,0.7,6.5,0.4c2.2-0.3,4.3-1.3,5.6-3.1c1.6-2.2,1.6-5.3,1.6-8
				c0-1.6-0.3-3.5-1.7-4.2"/>
		</g>
		<line class="st3" x1="986" y1="221.4" x2="986" y2="228.4"/>
		<line class="st3" x1="977" y1="220.9" x2="977" y2="228.4"/>
		<line class="st3" x1="981.5" y1="220.9" x2="981.5" y2="227.9"/>
		<line class="st3" x1="939" y1="220.9" x2="939" y2="228.4"/>
	</g>
	<g>
		<polygon class="st0" points="394.7,542.7 394.7,558.5 1.8,558.5 1.8,579.1 394.7,579.1 394.7,594.9 400.1,594.9 400.1,542.7 		"/>
		<rect x="1.8" y="558.5" class="st2" width="392.9" height="20.7"/>
		<rect x="394.7" y="542.7" class="st2" width="5.4" height="52.2"/>
		<line class="st2" x1="389.2" y1="558.6" x2="389.2" y2="579.2"/>
		<line class="st2" x1="383.8" y1="559.2" x2="383.8" y2="577.9"/>
		<line class="st3" x1="1.5" y1="572.9" x2="383.5" y2="572.9"/>
	</g>
	<g>
		<rect x="1.8" y="464.6" class="st0" width="398.3" height="33.1"/>
		<polyline class="st2" points="400.1,497.7 1.8,497.7 1.8,464.6 400.1,464.6 		"/>
		<line class="st2" x1="393.8" y1="465.2" x2="393.8" y2="497.3"/>
		<line class="st2" x1="388.5" y1="465.9" x2="388.5" y2="497.9"/>
		<line class="st2" x1="367.2" y1="465.9" x2="367.2" y2="497.2"/>
		<line class="st2" x1="367.1" y1="486.5" x2="1" y2="486.5"/>
		<line class="st3" x1="1.5" y1="478.9" x2="366.5" y2="478.9"/>
		<line class="st2" x1="400.1" y1="464.6" x2="400.1" y2="497.7"/>
	</g>
	<g>
		<g>
			<rect x="702.2" y="229.1" class="st0" width="134.5" height="235.5"/>
			<rect x="679.6" y="283.8" class="st0" width="10.8" height="40"/>
		</g>
		<polyline class="st4" points="702.2,464.6 702.2,229.1 836.7,229.1 836.7,464.6 		"/>
		<g>
			<rect x="726.9" y="251.3" class="st2" width="74.9" height="74.9"/>
			<g>
				<line class="st2" x1="739.8" y1="269.1" x2="788.8" y2="269.1"/>
				<line class="st2" x1="739.8" y1="274.7" x2="788.8" y2="274.7"/>
				<line class="st2" x1="739.8" y1="280.3" x2="788.8" y2="280.3"/>
				<line class="st2" x1="739.8" y1="286" x2="788.8" y2="286"/>
				<line class="st2" x1="739.8" y1="291.6" x2="788.8" y2="291.6"/>
				<line class="st2" x1="739.8" y1="297.2" x2="788.8" y2="297.2"/>
				<line class="st2" x1="739.8" y1="302.8" x2="788.8" y2="302.8"/>
				<line class="st2" x1="739.8" y1="308.5" x2="788.8" y2="308.5"/>
			</g>
			<ellipse transform="matrix(0.7071 -0.7071 0.7071 0.7071 32.338 594.45)" class="st2" cx="733.7" cy="258.2" rx="2.2" ry="2.2"/>
			
				<ellipse transform="matrix(0.7071 -0.7071 0.7071 0.7071 50.26 637.7176)" class="st2" cx="794.9" cy="258.2" rx="2.2" ry="2.2"/>
			
				<ellipse transform="matrix(0.7071 -0.7071 0.7071 0.7071 -10.9297 612.372)" class="st2" cx="733.7" cy="319.4" rx="2.2" ry="2.2"/>
			
				<ellipse transform="matrix(0.7071 -0.7071 0.7071 0.7071 6.9924 655.6396)" class="st2" cx="794.9" cy="319.4" rx="2.2" ry="2.2"/>
		</g>
		<g>
			<path class="st2" d="M702.2,335.7h-5.4c-6.6,0-11.9-5.3-11.9-11.9l0,0"/>
			<path class="st2" d="M684.9,283.8L684.9,283.8c0-6.6,5.3-11.9,11.9-11.9h5.4"/>
			
				<rect x="679.6" y="283.8" transform="matrix(-1 -8.978697e-11 8.978697e-11 -1 1369.8799 607.5653)" class="st2" width="10.8" height="40"/>
			<line class="st2" x1="679.6" y1="316" x2="690.3" y2="316"/>
			<line class="st2" x1="679.6" y1="291.5" x2="690.3" y2="291.5"/>
		</g>
		<line class="st2" x1="738.5" y1="404.9" x2="836.7" y2="404.9"/>
		<line class="st2" x1="738.5" y1="415.9" x2="836.5" y2="415.9"/>
		<line class="st2" x1="737.5" y1="431.9" x2="836.5" y2="431.9"/>
		<line class="st2" x1="743.2" y1="404.9" x2="743.2" y2="414.9"/>
		<line class="st2" x1="748.8" y1="405.2" x2="748.8" y2="416.1"/>
		<line class="st2" x1="831.5" y1="404.9" x2="831.5" y2="415.9"/>
		<line class="st2" x1="825.2" y1="405.6" x2="825.2" y2="415.6"/>
		<line class="st2" x1="815.5" y1="404.9" x2="815.5" y2="415.9"/>
		<line class="st4" x1="836.7" y1="464.6" x2="702.2" y2="464.6"/>
		<line class="st4" x1="738.5" y1="404.9" x2="738.5" y2="415.9"/>
	</g>
	<g>
		<path class="st0" d="M1921.8,25.4h-102.9v-7.5h-18v7.5H1676v-7.5h-18v7.5H1533v-7.5h-18v7.5h-124.9v-7.5h-18v4.5l-0.1,0
			c0,0.1,0,0.1,0.1,0.2v2.8h-98.3V1h-28.6v51.2h28.6V32h98.3v20.2h18V32H1515v1l-0.2-0.1c0,0.9,0,1.7,0.2,2.6v16.8h18V32H1658v4l0,0
			c0,0,0,0,0,0v16.2h18V32h124.9v1.5l-0.1,0c0,0.1,0.1,0.3,0.1,0.4v18.4h18V32h102.9V25.4z"/>
		<g>
			<line class="st2" x1="1921.8" y1="25.7" x2="1818.9" y2="25.7"/>
			<line class="st2" x1="1800.9" y1="25.7" x2="1676" y2="25.7"/>
			<line class="st2" x1="1658" y1="25.7" x2="1533" y2="25.7"/>
			<line class="st2" x1="1515" y1="25.7" x2="1390.1" y2="25.7"/>
			<line class="st2" x1="1372.1" y1="25.7" x2="1273.8" y2="25.7"/>
			<line class="st2" x1="1921.8" y1="31.9" x2="1818.9" y2="31.9"/>
			<line class="st2" x1="1800.9" y1="31.9" x2="1676" y2="31.9"/>
			<line class="st2" x1="1658" y1="31.9" x2="1533" y2="31.9"/>
			<line class="st2" x1="1515" y1="31.9" x2="1390.1" y2="31.9"/>
			<line class="st2" x1="1372.1" y1="31.9" x2="1273.8" y2="31.9"/>
			<rect x="1372.1" y="17.9" class="st2" width="18" height="34.3"/>
			<rect x="1515" y="17.9" class="st2" width="18" height="34.3"/>
			<rect x="1658" y="17.9" class="st2" width="18" height="34.3"/>
			<rect x="1800.9" y="17.9" class="st2" width="18" height="34.3"/>
		</g>
		<rect x="1245.2" y="1" class="st2" width="28.6" height="51.2"/>
		<g>
			<g>
				<path class="st0" d="M1433.9,121v10c0,10.3,8.4,18.7,18.7,18.7l0,0c10.3,0,18.7-8.4,18.7-18.7v-10H1433.9z"/>
				<polygon class="st0" points="1467.3,112.3 1467.3,96.5 1465.3,96.5 1465.3,92.4 1455.7,92.4 1455.7,96.5 1449.5,96.5 
					1449.5,92.4 1439.9,92.4 1439.9,96.5 1437.8,96.5 1437.8,112.3 1433.9,112.3 1433.9,121 1471.3,121 1471.3,112.3 				"/>
			</g>
			<path class="st2" d="M1433.9,121v10c0,10.3,8.4,18.7,18.7,18.7l0,0c10.3,0,18.7-8.4,18.7-18.7v-10"/>
			
				<rect x="1433.9" y="112.3" transform="matrix(-1 -1.360429e-10 1.360429e-10 -1 2905.1389 233.3775)" class="st2" width="37.4" height="8.7"/>
			<path class="st2" d="M1449,121v14.7c0,2,1.6,3.5,3.5,3.5l0,0c2,0,3.5-1.6,3.5-3.5V121"/>
			<rect x="1437.8" y="96.5" class="st2" width="29.5" height="15.8"/>
			
				<rect x="1442.6" y="89.7" transform="matrix(4.397133e-11 -1 1 4.397133e-11 1350.2323 1539.1316)" class="st2" width="4.1" height="9.6"/>
			
				<rect x="1458.4" y="89.7" transform="matrix(4.352724e-11 -1 1 4.352724e-11 1366.0073 1554.9065)" class="st2" width="4.1" height="9.6"/>
		</g>
		<g>
			<g>
				<rect x="1392.7" y="218.2" class="st0" width="45.2" height="10.9"/>
				<rect x="1401.8" y="208.2" class="st0" width="9.9" height="9.9"/>
				<rect x="1419.8" y="208.2" class="st0" width="9.9" height="9.9"/>
			</g>
			<g>
				<polyline class="st2" points="1437.9,229.1 1437.9,218.2 1392.7,218.2 1392.7,229.1 				"/>
				
					<rect x="1401.8" y="208.2" transform="matrix(-1.349729e-10 -1 1 -1.349729e-10 1193.5157 1619.9347)" class="st2" width="9.9" height="9.9"/>
				
					<rect x="1419.8" y="208.2" transform="matrix(-1.340580e-10 -1 1 -1.340580e-10 1211.5105 1637.9294)" class="st2" width="9.9" height="9.9"/>
			</g>
		</g>
		<path class="st2" d="M1390.1,43.3c12.3,2.1,24.5,5.9,34.7,12.9c11.7,8.1,20.7,21.1,21.4,35.3"/>
		<path class="st2" d="M1515,44.2c-13.2,4.2-25.6,10.6-36.7,18.9c-9.7,7.2-18.9,17.1-18.8,29.3"/>
		<path class="st2" d="M1390.1,38.1c22.4,6.6,45.1,12.8,68.4,12.6c9-0.1,18.1-1.2,27-2.8c10-1.8,20-4.3,29.7-7.5"/>
		<path class="st2" d="M1273.8,40.1c31.2,11.2,66.6,7.4,98.3-3.4"/>
		<path class="st2" d="M1273.8,49.7c15,6.6,31,11.2,47.4,11.7c17.9,0.6,36.3-3.8,50.9-14.1"/>
		<path class="st2" d="M1533,39.8c18.6,5.1,37.3,10,56.3,12.2"/>
		<path class="st2" d="M1614,53.1c15.2-0.5,30.2-3.4,43.9-9.6"/>
		<path class="st2" d="M1532.9,47.4c6,1.7,12,3.4,17.9,5.2c12.7,3.7,25.5,7.3,38.6,9.2"/>
		<path class="st2" d="M1614,62.7c15.5-1.2,30.8-5.8,44.4-13.6"/>
		<path class="st2" d="M1676,40c37.7,21.6,86.8,22.1,124.9,1.1"/>
		<path class="st2" d="M1675.9,46.5c18.7,10.7,40.4,16.3,61.9,15.9c22.2-0.4,44.3-7.2,62.9-19.3"/>
		<path class="st2" d="M1818.9,40.2c32.7,11.9,68.4,15.6,102.9,10.7"/>
		<path class="st2" d="M1818.9,48.7c28.8,21.8,66.4,30,102.9,30.4"/>
		<path class="st2" d="M1372.1,40.8c-14.8,14.2-15.6,38.5-8.6,57.9c7.2,19.9,21.1,36.6,31.9,54.8c9.8,16.5,14.4,36,11.4,54.6"/>
		<path class="st2" d="M1372.1,35.4c-14.6,16.1-27.2,35.8-26.6,57.5c0.5,16.8,9.2,32.5,20.3,45.1c11.2,12.6,24.8,22.6,37.8,33.4
			c6.4,5.3,12.8,11,17,18.2c3.2,5.5,5,12.2,4.2,18.4"/>
		<path class="st2" d="M1533.1,46.4c8.9,8.9,19.6,15.8,30.7,21.8c6.1,3.3,12.3,6.4,19,8.2c14.5,3.7,30.2,0.7,43.4-6.4
			c12.6-6.7,23-16.9,31.7-28.2"/>
		<line class="st2" x1="1245.5" y1="5.9" x2="1273.8" y2="5.9"/>
		<line class="st2" x1="1246" y1="10.9" x2="1272.2" y2="10.9"/>
		<line class="st2" x1="1278.5" y1="25.9" x2="1278.5" y2="30.9"/>
		<line class="st2" x1="1369" y1="26.4" x2="1369" y2="31.9"/>
		<line class="st2" x1="1364" y1="26.4" x2="1364" y2="30.9"/>
		<line class="st2" x1="1395.5" y1="26.4" x2="1395.5" y2="31.9"/>
		<line class="st2" x1="1402" y1="26.9" x2="1402" y2="31.4"/>
		<line class="st2" x1="1510" y1="26.4" x2="1510" y2="30.9"/>
		<line class="st2" x1="1503.5" y1="25.7" x2="1503.5" y2="31.9"/>
		<line class="st2" x1="1539.5" y1="26.9" x2="1539.5" y2="31.4"/>
		<line class="st2" x1="1544.5" y1="27.4" x2="1544.5" y2="31.9"/>
		<line class="st2" x1="1653" y1="26.4" x2="1653" y2="31.9"/>
		<line class="st2" x1="1372.5" y1="21.6" x2="1389" y2="21.6"/>
		<line class="st2" x1="1515" y1="22.9" x2="1532.5" y2="22.9"/>
		<line class="st2" x1="1462.5" y1="97.9" x2="1462.5" y2="111.9"/>
		<line class="st2" x1="1441.5" y1="97.4" x2="1441.5" y2="112.3"/>
		<line class="st2" x1="1445.5" y1="97.4" x2="1445.5" y2="112.3"/>
		<line class="st2" x1="1434.5" y1="116.4" x2="1470.6" y2="116.4"/>
		<path class="st2" d="M1372,22.4c1.7,6.5,8.8,11.1,15.4,10c0.9-0.2,2-0.6,2.2-1.5"/>
		<path class="st2" d="M1373.3,31.9c0.4,0.9,0.8,1.9,1.1,2.8c1,2.4,1.9,4.8,3.6,6.7c2.9,3.5,7.7,5.2,12.1,4.3"/>
		<path class="st2" d="M1515.9,25.4c0.4,3.6,2.6,7,5.8,8.7c3.2,1.7,7.3,1.8,10.5,0.1"/>
		<path class="st2" d="M1514.9,32.9c-0.1,4.4,2,9,5.9,11c3.9,2,9.5,0.5,11.3-3.5"/>
		<path class="st2" d="M1658.1,23.7c1.9,2.7,5.1,4.5,8.4,4.6c3.3,0.1,6.6-1.5,8.6-4.2"/>
		<path class="st2" d="M1658,29.9c3.9,5.5,12,7.3,18,4.3"/>
		<path class="st2" d="M1657.9,36c4.8,4.4,11.1,6.9,17.6,7"/>
		<path class="st2" d="M1801.6,27.1c0.5,1.1,1.2,2.1,2.1,2.9c2.2,1.9,5.4,2.5,8.3,1.8c3-0.7,5.6-2.8,6.9-5.6"/>
		<path class="st2" d="M1800.9,33.4c0.4,4.1,2.8,7.9,6.2,10.1c3.4,2.2,7.9,2.8,11.8,1.5"/>
		<line class="st2" x1="1681.5" y1="25.9" x2="1681.5" y2="31.4"/>
		<line class="st2" x1="1688" y1="25.7" x2="1688" y2="31"/>
		<line class="st2" x1="1713.5" y1="25.7" x2="1713.5" y2="31.5"/>
		<line class="st2" x1="1797" y1="25.7" x2="1797" y2="31.9"/>
		<line class="st2" x1="1793.5" y1="26.4" x2="1793.5" y2="31.9"/>
		<line class="st2" x1="1824.5" y1="25.7" x2="1824.5" y2="31"/>
		<line class="st2" x1="1832.5" y1="26.4" x2="1832.5" y2="31.9"/>
		<line class="st2" x1="1840.5" y1="26.4" x2="1840.5" y2="31.4"/>
		<line class="st2" x1="1553" y1="25.7" x2="1553" y2="31.9"/>
		<line class="st2" x1="1493.5" y1="25.9" x2="1493.5" y2="32"/>
		<line class="st3" x1="1392.7" y1="225.9" x2="1436.6" y2="225.9"/>
		<line class="st3" x1="1401.8" y1="213.9" x2="1411.2" y2="213.9"/>
		<line class="st3" x1="1419.8" y1="214.6" x2="1429.2" y2="214.6"/>
		<line class="st2" x1="1392.7" y1="229.1" x2="1437.9" y2="229.1"/>
		<line class="st2" x1="1921.8" y1="25.7" x2="1921.8" y2="31.9"/>
	</g>
	<g>
		<g>
			<path class="st0" d="M1920.8,464.6H1477v0h56.4V229.1h-310.3v235.5h60.7v0H737.6v33.3h546.3v23.8v47.9v37.1h38.5V497.9h116.1
				v108.8h38.5h0V497.9h443.7V464.6z M1322.4,464.6L1322.4,464.6l116.1,0v0H1322.4z"/>
			<rect x="1071.6" y="412.7" class="st0" width="9.9" height="9.9"/>
			<rect x="1071.6" y="430.7" class="st0" width="9.9" height="9.9"/>
			<rect x="1200.5" y="363.7" class="st0" width="10.8" height="40"/>
		</g>
		<polyline class="st2" points="1223.1,464.6 1223.1,229.1 1533.5,229.1 1533.5,464.6 		"/>
		<line class="st2" x1="737.6" y1="464.6" x2="1283.9" y2="464.6"/>
		<line class="st2" x1="1322.4" y1="464.6" x2="1438.5" y2="464.6"/>
		<line class="st2" x1="1920.8" y1="497.7" x2="1477" y2="497.7"/>
		<line class="st2" x1="1477" y1="464.6" x2="1920.8" y2="464.6"/>
		<line class="st2" x1="1438.5" y1="497.7" x2="1322.4" y2="497.7"/>
		<line class="st2" x1="1283.9" y1="497.7" x2="737.6" y2="497.7"/>
		<g>
			<rect x="1270.2" y="247.3" class="st2" width="227" height="74.9"/>
			<g>
				<line class="st2" x1="1283.1" y1="265.1" x2="1484.2" y2="265.1"/>
				<line class="st2" x1="1283.1" y1="270.7" x2="1484.2" y2="270.7"/>
				<line class="st2" x1="1283.1" y1="276.3" x2="1484.2" y2="276.3"/>
				<line class="st2" x1="1283.1" y1="282" x2="1484.2" y2="282"/>
				<line class="st2" x1="1283.1" y1="287.6" x2="1484.2" y2="287.6"/>
				<line class="st2" x1="1283.1" y1="293.2" x2="1484.2" y2="293.2"/>
				<line class="st2" x1="1283.1" y1="298.8" x2="1484.2" y2="298.8"/>
				<line class="st2" x1="1283.1" y1="304.5" x2="1484.2" y2="304.5"/>
			</g>
			
				<ellipse transform="matrix(0.7071 -0.7071 0.7071 0.7071 194.2965 977.446)" class="st2" cx="1277" cy="254.2" rx="2.2" ry="2.2"/>
			
				<ellipse transform="matrix(0.7071 -0.7071 0.7071 0.7071 256.7757 1128.2841)" class="st2" cx="1490.3" cy="254.2" rx="2.2" ry="2.2"/>
			
				<ellipse transform="matrix(0.7071 -0.7071 0.7071 0.7071 151.0289 995.368)" class="st2" cx="1277" cy="315.4" rx="2.2" ry="2.2"/>
			
				<ellipse transform="matrix(0.7071 -0.7071 0.7071 0.7071 213.508 1146.2062)" class="st2" cx="1490.3" cy="315.4" rx="2.2" ry="2.2"/>
		</g>
		<g>
			<path class="st2" d="M1283.9,606.8V371.3c0-10.6,8.6-19.3,19.3-19.3l0,0c10.6,0,19.3,8.6,19.3,19.3v235.5"/>
			<path class="st2" d="M1322.4,389.9c4.7-4.8,7.5-11.4,7.5-18.6c0-14.8-12-26.8-26.8-26.8c-14.8,0-26.8,12-26.8,26.8
				c0,7.2,2.9,13.8,7.5,18.6"/>
			<path class="st2" d="M1322.4,398c8.3-6,13.7-15.7,13.7-26.7c0-18.2-14.8-33-33-33c-18.2,0-33,14.8-33,33c0,11,5.4,20.7,13.7,26.7
				"/>
		</g>
		<g>
			<path class="st2" d="M1438.5,606.8V371.3c0-10.6,8.6-19.3,19.3-19.3l0,0c10.6,0,19.3,8.6,19.3,19.3v235.5"/>
			<path class="st2" d="M1477,389.9c4.7-4.8,7.5-11.4,7.5-18.6c0-14.8-12-26.8-26.8-26.8s-26.8,12-26.8,26.8
				c0,7.2,2.9,13.8,7.5,18.6"/>
			<path class="st2" d="M1477,398c8.3-6,13.7-15.7,13.7-26.7c0-18.2-14.8-33-33-33c-18.2,0-33,14.8-33,33c0,11,5.4,20.7,13.7,26.7"
				/>
		</g>
		<g>
			<rect x="1371.6" y="399.6" class="st2" width="17.6" height="45.2"/>
			<rect x="1389.3" y="408.7" class="st2" width="9.9" height="9.9"/>
			<rect x="1389.3" y="426.6" class="st2" width="9.9" height="9.9"/>
			<rect x="1361.7" y="408.7" class="st2" width="9.9" height="9.9"/>
			<rect x="1361.7" y="426.6" class="st2" width="9.9" height="9.9"/>
		</g>
		<rect x="1071.6" y="412.7" class="st2" width="9.9" height="9.9"/>
		<rect x="1071.6" y="430.7" class="st2" width="9.9" height="9.9"/>
		<g>
			<path class="st2" d="M1223.1,415.7h-5.4c-6.6,0-11.9-5.3-11.9-11.9l0,0"/>
			<path class="st2" d="M1205.8,363.7L1205.8,363.7c0-6.6,5.3-11.9,11.9-11.9h5.4"/>
			
				<rect x="1200.5" y="363.7" transform="matrix(-1 -8.978697e-11 8.978697e-11 -1 2411.7339 767.4438)" class="st2" width="10.8" height="40"/>
			<line class="st2" x1="1200.5" y1="396" x2="1211.3" y2="396"/>
			<line class="st2" x1="1200.5" y1="371.5" x2="1211.3" y2="371.5"/>
		</g>
		<rect x="1283.9" y="521.7" class="st2" width="23.3" height="47.9"/>
		<rect x="1457.8" y="422.6" class="st2" width="19.3" height="56.8"/>
		<path class="st2" d="M1081.5,416.7c66.7,11.7,135.2,18.1,202.3,12.3"/>
		<path class="st2" d="M1322.4,424.3c13.2-2.1,26.3-4.8,39.3-8"/>
		<path class="st2" d="M1081.5,433.9c4.4-0.6,8.9,0,13.4,0.6c62.6,7.9,126,9.8,188.9,5.6"/>
		<path class="st2" d="M1322.4,436.8c13.1-1.4,26.2-3,39.3-5"/>
		<path class="st2" d="M1399.2,432.9c13,2.4,26.2,4.6,39.3,6.6"/>
		<path class="st2" d="M1477,444.4c66.4,7.1,133.5,7,199.5-3c87.6-13.3,173.2-44.6,245.2-96"/>
		<path class="st2" d="M1399.2,413.6c13.1,0.7,26.2,1.3,39.3,1.9"/>
		<path class="st2" d="M1477,417c49.9,1.6,99.8,1.3,149.4-4c103.9-11.1,205.2-44.6,295.3-97.4"/>
		<line class="st2" x1="1284.5" y1="601.9" x2="1322.5" y2="601.9"/>
		<line class="st2" x1="1283.9" y1="593.9" x2="1322.4" y2="593.9"/>
		<line class="st2" x1="1438.5" y1="599.9" x2="1477" y2="599.9"/>
		<line class="st2" x1="1439" y1="594.9" x2="1477" y2="594.9"/>
		<line class="st2" x1="1438.5" y1="577.4" x2="1477" y2="577.4"/>
		<line class="st2" x1="1327.5" y1="464.4" x2="1327.5" y2="496.9"/>
		<line class="st2" x1="1335.5" y1="464.9" x2="1335.5" y2="496.9"/>
		<line class="st2" x1="1433.5" y1="464.6" x2="1433.5" y2="497.7"/>
		<path class="st2" d="M1278,466.4c0-0.5,0-1,0-1.5v32.8"/>
		<line class="st2" x1="1483.5" y1="464.6" x2="1483.5" y2="497.9"/>
		<line class="st2" x1="1490.5" y1="465.4" x2="1490.5" y2="497.7"/>
		<line class="st2" x1="743.5" y1="464.6" x2="743.5" y2="497.7"/>
		<line class="st2" x1="753.5" y1="464.6" x2="753.5" y2="497.7"/>
		<line class="st2" x1="759.5" y1="464.9" x2="759.5" y2="496.9"/>
		<line class="st2" x1="760.1" y1="486.5" x2="1278" y2="486.5"/>
		<line class="st2" x1="1075.5" y1="412.9" x2="1075.5" y2="422.4"/>
		<line class="st2" x1="1076.5" y1="431.4" x2="1076.5" y2="439.5"/>
		<line class="st2" x1="1367.5" y1="408.9" x2="1367.5" y2="417.9"/>
		<line class="st2" x1="1367.5" y1="427.4" x2="1367.5" y2="436"/>
		<line class="st2" x1="1393" y1="409.4" x2="1393" y2="416.9"/>
		<line class="st2" x1="1394.5" y1="427.4" x2="1394.5" y2="436.6"/>
		<line class="st3" x1="761.5" y1="480.9" x2="1278" y2="480.9"/>
		<line class="st3" x1="1385" y1="399.9" x2="1385" y2="443.4"/>
		<line class="st3" x1="1381" y1="400.9" x2="1381" y2="444.9"/>
		<line class="st3" x1="1335.5" y1="485.9" x2="1433.5" y2="485.9"/>
		<path class="st3" d="M1477.4,388c1.9,1.6,3.9,3.1,6.1,4.4"/>
		<path class="st3" d="M1481,384.9c1.7,1.3,3.5,2.3,5.5,3"/>
		<path class="st3" d="M1483.4,379c1.9,0.2,3.7,0.3,5.6,0.5"/>
		<path class="st3" d="M1437.5,388.4c-1.7,1.1-3.1,2.7-4.1,4.4"/>
		<path class="st3" d="M1434,383.8c-2,0.5-3.9,1.3-5.5,2.5"/>
		<path class="st3" d="M1323.7,389.7c1.4,1.2,2.7,2.3,4.1,3.5"/>
		<path class="st3" d="M1327,383.1c2-0.2,4.1,0.1,6,0.8"/>
		<path class="st3" d="M1281.9,389.3c-1.2,1.2-2.4,2.4-3.7,3.6"/>
		<path class="st3" d="M1274.8,388.1c2-1.2,4.1-2.2,6.3-3"/>
		<line class="st3" x1="1223.5" y1="457.9" x2="1284" y2="457.9"/>
		<line class="st3" x1="1322" y1="458.4" x2="1438" y2="458.4"/>
		<line class="st3" x1="1477.5" y1="459.9" x2="1532.6" y2="459.9"/>
		<line class="st3" x1="1462" y1="422.9" x2="1462" y2="479.4"/>
		<line class="st3" x1="1291" y1="521.9" x2="1291" y2="568.9"/>
		<line class="st3" x1="1269.8" y1="329.2" x2="1532.6" y2="329.2"/>
		<line class="st3" x1="1491" y1="485.1" x2="1920.8" y2="485.1"/>
		<line class="st3" x1="1491" y1="488.6" x2="1920.8" y2="488.6"/>
		<path class="st3" d="M1490.5,470.6c0.2,0,0.3,0,0.5,0h429.8"/>
		<line class="st3" x1="1491" y1="494.6" x2="1920.8" y2="494.6"/>
		<line class="st4" x1="737.6" y1="464.6" x2="737.6" y2="497.7"/>
		<line class="st4" x1="1283.9" y1="606.8" x2="1322.4" y2="606.8"/>
		<line class="st4" x1="1438.5" y1="606.8" x2="1477" y2="606.8"/>
		<line class="st2" x1="1920.8" y1="464.6" x2="1920.8" y2="497.7"/>
	</g>
	<g>
		<path class="st0" d="M1589.4,254.2v20.9v3.4h-3.4v0h-20.9v0h-15.9v-3.9h-7v-17h-8.6v119.4h8.6v-16.8h7v-3.9h15.9v0h20.9v0h3.4v3.4
			v20.9v83.9h24.7v-83.9v-20.9v-3.4c0-13.6-11-24.7-24.7-24.7h-3.4h-20.9h-15.9v-3.9h-7v-20.7h7v-3.9h15.9h20.9h3.4
			c13.6,0,24.7-11,24.7-24.7v-3.4v-20.9V1h-24.7V254.2z"/>
		<line class="st2" x1="1589.4" y1="460.4" x2="1614" y2="460.4"/>
		
			<rect x="1478.1" y="313.1" transform="matrix(4.488860e-11 -1 1 4.488860e-11 1220.4124 1855.1334)" class="st2" width="119.4" height="8.6"/>
		<g>
			<g>
				
					<rect x="1591.3" y="252.3" transform="matrix(4.447915e-11 -1 1 4.447915e-11 1337.0349 1866.379)" class="st2" width="20.9" height="24.7"/>
				<line class="st2" x1="1589.4" y1="261.2" x2="1614" y2="261.2"/>
			</g>
			<g>
				
					<rect x="1565.1" y="278.5" transform="matrix(-1 -8.982871e-11 8.982871e-11 -1 3150.9983 581.7595)" class="st2" width="20.9" height="24.7"/>
				<line class="st2" x1="1572.1" y1="303.2" x2="1572.1" y2="278.5"/>
			</g>
			
				<rect x="1529.4" y="287.4" transform="matrix(4.499607e-11 -1 1 4.499607e-11 1254.7134 1836.4729)" class="st2" width="32.5" height="7"/>
		</g>
		<path class="st2" d="M1589.4,464.6V356.4h-40.3v-24.7h40.3c13.6,0,24.7,11,24.7,24.7v108.2"/>
		<g>
			
				<rect x="1591.3" y="357.9" transform="matrix(-9.035102e-11 1 -1 -9.035102e-11 1971.936 -1231.4779)" class="st2" width="20.9" height="24.7"/>
			<line class="st2" x1="1589.4" y1="373.7" x2="1614" y2="373.7"/>
		</g>
		<g>
			
				<rect x="1565.1" y="331.7" transform="matrix(-1 -4.491442e-11 4.491442e-11 -1 3150.9983 688.0427)" class="st2" width="20.9" height="24.7"/>
			<line class="st2" x1="1572.1" y1="331.7" x2="1572.1" y2="356.4"/>
		</g>
		
			<rect x="1529.4" y="340.5" transform="matrix(-8.965557e-11 1 -1 -8.965557e-11 1889.6145 -1201.5718)" class="st2" width="32.5" height="7"/>
		<path class="st2" d="M1614,31.9v124.4h-24.7V31.9v246.6h-40.3v24.7h40.3c13.6,0,24.7-11,24.7-24.7V31.9z"/>
		<polygon class="st2" points="1614,25.7 1614,1 1589.4,1 1589.4,25.7 1589.4,1 1614,1 		"/>
		<line class="st2" x1="1591" y1="6.4" x2="1613.6" y2="6.4"/>
		<line class="st2" x1="1589.5" y1="11.9" x2="1613" y2="11.9"/>
		<line class="st2" x1="1590.5" y1="38.4" x2="1612.6" y2="38.4"/>
		<line class="st2" x1="1589.5" y1="44.4" x2="1613" y2="44.4"/>
		<line class="st3" x1="1537.8" y1="257.2" x2="1537.8" y2="375.9"/>
		<line class="st3" x1="1553.2" y1="332.6" x2="1553.2" y2="355.9"/>
		<line class="st3" x1="1552.5" y1="279.2" x2="1552.5" y2="303.2"/>
		<line class="st2" x1="1589.4" y1="31.9" x2="1614" y2="31.9"/>
		<line class="st2" x1="1589.4" y1="25.7" x2="1614" y2="25.7"/>
		<line class="st2" x1="1589.4" y1="464.6" x2="1614" y2="464.6"/>
	</g>
	<g>
		<g>
			<g>
				<polyline class="st2" points="737.6,569.6 737.6,606.8 400.1,606.8 400.1,383.7 737.6,383.7 737.6,531.1 				"/>
				<line class="st3" x1="400.5" y1="599.9" x2="736.6" y2="599.9"/>
				<g>
					<rect x="988.4" y="498.2" class="st0" width="45.2" height="10.9"/>
					<rect x="1014.6" y="509.1" class="st0" width="9.9" height="9.9"/>
					<rect x="996.6" y="509.1" class="st0" width="9.9" height="9.9"/>
					<path class="st0" d="M785.8,519v12h-48.3V383.7h6.5c2.3,0,4.2-1.9,4.2-4.2c0-2.3-1.9-4.2-4.2-4.2H393.6c-2.3,0-4.2,1.9-4.2,4.2
						c0,2.3,1.9,4.2,4.2,4.2h6.5v223h337.5v-37.1h48.3v12h34.6V519H785.8z"/>
				</g>
				<line class="st2" x1="988.4" y1="498.2" x2="1033.6" y2="498.2"/>
			</g>
			<g>
				<g>
					<polyline class="st2" points="988.4,498.2 988.4,509.1 1033.6,509.1 1033.6,498.2 					"/>
					
						<rect x="1014.6" y="509.1" transform="matrix(4.431992e-11 1 -1 4.431992e-11 1533.5857 -505.4546)" class="st2" width="9.9" height="9.9"/>
					
						<rect x="996.6" y="509.1" transform="matrix(4.431992e-11 1 -1 4.431992e-11 1515.5909 -487.4599)" class="st2" width="9.9" height="9.9"/>
				</g>
			</g>
			<path class="st2" d="M744.1,375.3H393.6c-2.3,0-4.2,1.9-4.2,4.2l0,0c0,2.3,1.9,4.2,4.2,4.2h350.5c2.3,0,4.2-1.9,4.2-4.2l0,0
				C748.3,377.1,746.4,375.3,744.1,375.3z"/>
			<path class="st2" d="M400.1,432.7c24.1,0,24.1,12,48.2,12c24.1,0,24.1-12,48.2-12c24.1,0,24.1,12,48.2,12c24.1,0,24.1-12,48.2-12
				c24.1,0,24.1,12,48.2,12c24.1,0,24.1-12,48.2-12c24.1,0,24.1,12,48.2,12"/>
			<g>
				<path class="st2" d="M785.8,569.6H644.5c-10.6,0-19.3-8.6-19.3-19.3v0c0-10.6,8.6-19.3,19.3-19.3h141.3"/>
				<path class="st2" d="M663.2,531.1c-4.8-4.7-11.4-7.5-18.6-7.5c-14.8,0-26.8,12-26.8,26.8c0,14.8,12,26.8,26.8,26.8
					c7.2,0,13.8-2.9,18.6-7.5"/>
				<path class="st2" d="M671.3,531.1c-6-8.3-15.7-13.7-26.7-13.7c-18.2,0-33,14.8-33,33c0,18.2,14.8,33,33,33
					c11,0,20.7-5.4,26.7-13.7"/>
			</g>
			<circle class="st2" cx="543.8" cy="514.1" r="7.7"/>
			<circle class="st2" cx="583.5" cy="536.9" r="7.2"/>
			<circle class="st2" cx="672" cy="458.2" r="3"/>
			<circle class="st2" cx="597.1" cy="461.5" r="6.4"/>
			<circle class="st2" cx="590" cy="511.6" r="2.5"/>
			<circle class="st2" cx="547.7" cy="562.3" r="3.8"/>
			<circle class="st2" cx="507.5" cy="555.4" r="3"/>
			<circle class="st2" cx="429.3" cy="465.7" r="4.2"/>
			<circle class="st2" cx="461.3" cy="539.6" r="2.8"/>
			<circle class="st2" cx="643.7" cy="500" r="2.3"/>
			<circle class="st2" cx="546.7" cy="474.7" r="2.8"/>
			<circle class="st2" cx="494.8" cy="533.4" r="3.8"/>
			<circle class="st2" cx="469.3" cy="477.1" r="5.3"/>
			<circle class="st2" cx="581.8" cy="588.1" r="4.8"/>
			<circle class="st2" cx="635.7" cy="470.4" r="4.7"/>
			<circle class="st2" cx="617.5" cy="512.1" r="3"/>
			<circle class="st2" cx="512" cy="490.9" r="4.5"/>
			<circle class="st2" cx="568.2" cy="459.4" r="2.2"/>
			<circle class="st2" cx="559.8" cy="496.5" r="6.3"/>
			<circle class="st2" cx="528.8" cy="541.9" r="2.3"/>
			<rect x="785.8" y="519" class="st2" width="34.6" height="62.6"/>
			<path class="st2" d="M1002.5,519c1.4,9.7-5.9,19.2-14,25.3c-20.8,15.8-48.1,20.2-74.2,20.2c-32-0.1-64.1-6.2-93.9-17.9"/>
			<path class="st2" d="M820.4,536.9c7.1,2.4,13.8,6.1,20.4,9.7c20.8,11.3,42,22.1,64.5,29.2c22.5,7.1,46.6,10.5,70,6.7
				c12.6-2,25.5-6.6,33.6-16.4c10.4-12.7,12.3-30.5,11.1-47"/>
			<path class="st2" d="M820.4,563c20.1,1.3,40.8-3.1,57.8-14c17.9-11.5,31.4-30.3,34.7-51.3"/>
			<path class="st2" d="M820.4,573.2c20.6,3.9,42.1,4.7,61.7-2.1c31.2-10.9,53.6-40.9,59.5-73.4"/>
			<line class="st2" x1="996.5" y1="513.9" x2="1005.6" y2="513.9"/>
			<line class="st2" x1="1015.5" y1="513.4" x2="1024" y2="513.4"/>
			<line class="st2" x1="816" y1="519.9" x2="816" y2="580.4"/>
			<line class="st2" x1="808" y1="519" x2="808" y2="581.6"/>
			<line class="st2" x1="649.8" y1="557.2" x2="773.9" y2="557.2"/>
			<line class="st3" x1="401.5" y1="389.9" x2="736.8" y2="389.9"/>
			<line class="st3" x1="786.5" y1="577.9" x2="820.4" y2="577.9"/>
			<line class="st3" x1="786.5" y1="572.9" x2="807.5" y2="572.9"/>
			<line class="st3" x1="988.5" y1="501.9" x2="1032.6" y2="501.9"/>
			<line class="st2" x1="779.8" y1="531.1" x2="779.8" y2="569.6"/>
			<line class="st2" x1="774" y1="531.1" x2="774" y2="569.6"/>
			<g>
				<polyline class="st2" points="737.6,569.6 737.6,606.8 400.1,606.8 400.1,383.7 737.6,383.7 737.6,531.1 				"/>
				<line class="st3" x1="400.5" y1="599.9" x2="736.6" y2="599.9"/>
				<line class="st2" x1="988.4" y1="498.2" x2="1033.6" y2="498.2"/>
			</g>
			<line class="st3" x1="400.5" y1="599.9" x2="736.6" y2="599.9"/>
			<polyline class="st2" points="737.6,569.6 737.6,606.8 400.1,606.8 400.1,383.7 737.6,383.7 737.6,531.1 			"/>
			<line class="st2" x1="988.4" y1="498.2" x2="1033.6" y2="498.2"/>
			<line class="st2" x1="779.8" y1="531.1" x2="779.8" y2="569.6"/>
			<line class="st5" x1="774" y1="531.1" x2="774" y2="569.6"/>
		</g>
	</g>
</g>
</svg>
