<?xml version="1.0" encoding="utf-8"?>
<!-- Generator: Adobe Illustrator 20.1.0, SVG Export Plug-In . SVG Version: 6.00 Build 0)  -->
<svg version="1.1" id="Слой_1" xmlns="http://www.w3.org/2000/svg" xmlns:xlink="http://www.w3.org/1999/xlink" x="0px" y="0px"
	 viewBox="0 0 1921.3 867.1" style="enable-background:new 0 0 1921.3 867.1;" xml:space="preserve">
<style type="text/css">
	.st0{fill:#F4E1A1;}
	.st1{fill:none;stroke:#817957;stroke-width:2;stroke-linecap:round;stroke-linejoin:round;stroke-miterlimit:10;}
	.st2{fill:none;stroke:#817957;stroke-linecap:round;stroke-linejoin:round;stroke-miterlimit:10;}
</style>
<g id="_x30_2">
	<g>
		<g>
			<g>
				<polygon class="st0" points="381.4,210.3 374.4,210.3 374.4,214.2 1,214.2 1,238.8 374.4,238.8 374.4,242.7 381.4,242.7 
					381.4,245.8 392.4,245.8 392.4,207.2 381.4,207.2 				"/>
				<path class="st0" d="M386.9,196.9c0,3,2.5,5.5,5.5,5.5v-10.9C389.4,191.5,386.9,193.9,386.9,196.9z"/>
				<path class="st0" d="M386.9,256.1c0,3,2.5,5.5,5.5,5.5v-10.9C389.4,250.6,386.9,253,386.9,256.1z"/>
			</g>
			<g>
				
					<rect x="381.4" y="207.2" transform="matrix(-1 8.957134e-11 -8.957134e-11 -1 773.8008 453.0104)" class="st1" width="10.9" height="38.5"/>
				<path class="st1" d="M392.4,202.4c-3,0-5.5-2.5-5.5-5.5c0-3,2.5-5.5,5.5-5.5"/>
				<path class="st1" d="M392.4,261.5c-3,0-5.5-2.5-5.5-5.5c0-3,2.5-5.5,5.5-5.5"/>
			</g>
			<g>
				<g>
					<line class="st1" x1="320" y1="214.2" x2="320" y2="232.7"/>
				</g>
				
					<rect x="361.7" y="223" transform="matrix(4.496740e-11 1 -1 4.496740e-11 604.4224 -151.412)" class="st1" width="32.5" height="7"/>
				<line class="st1" x1="1" y1="214.2" x2="374.4" y2="214.2"/>
				<line class="st1" x1="1" y1="238.8" x2="374.4" y2="238.8"/>
				<line class="st1" x1="1" y1="214.2" x2="1" y2="238.8"/>
			</g>
			<line class="st2" x1="388.6" y1="207.7" x2="388.6" y2="245.7"/>
			<line class="st1" x1="374.4" y1="232.7" x2="1" y2="232.7"/>
			<line class="st1" x1="392.4" y1="191.5" x2="392.4" y2="261.5"/>
		</g>
		<g>
			<g>
				<polygon class="st0" points="381.4,317.9 374.4,317.9 374.4,321.8 1,321.8 1,346.5 374.4,346.5 374.4,350.4 381.4,350.4 
					381.4,353.4 392.4,353.4 392.4,314.9 381.4,314.9 				"/>
				<path class="st0" d="M386.9,304.6c0,3,2.5,5.5,5.5,5.5v-10.9C389.4,299.1,386.9,301.5,386.9,304.6z"/>
				<path class="st0" d="M386.9,363.7c0,3,2.5,5.5,5.5,5.5v-10.9C389.4,358.2,386.9,360.7,386.9,363.7z"/>
			</g>
			<g>
				
					<rect x="381.4" y="314.9" transform="matrix(-1 8.957134e-11 -8.957134e-11 -1 773.8008 668.2561)" class="st1" width="10.9" height="38.5"/>
				<path class="st1" d="M392.4,310c-3,0-5.5-2.5-5.5-5.5s2.5-5.5,5.5-5.5"/>
				<path class="st1" d="M392.4,369.2c-3,0-5.5-2.5-5.5-5.5c0-3,2.5-5.5,5.5-5.5"/>
			</g>
			<g>
				<g>
					<line class="st1" x1="320" y1="321.8" x2="320" y2="340.3"/>
				</g>
				
					<rect x="361.7" y="330.6" transform="matrix(4.496740e-11 1 -1 4.496740e-11 712.0453 -43.7892)" class="st1" width="32.5" height="7"/>
				<line class="st1" x1="1" y1="321.8" x2="374.4" y2="321.8"/>
				<line class="st1" x1="1" y1="346.5" x2="374.4" y2="346.5"/>
				<line class="st1" x1="1" y1="321.8" x2="1" y2="346.5"/>
			</g>
			<line class="st2" x1="389.6" y1="315.2" x2="389.6" y2="352.2"/>
			<line class="st1" x1="374.4" y1="340.3" x2="1.5" y2="340.3"/>
			<line class="st1" x1="392.4" y1="299.1" x2="392.4" y2="369.2"/>
		</g>
	</g>
	<g>
		<rect x="392.4" y="110.1" class="st0" width="1134.1" height="378"/>
		<g>
			<g>
				<rect x="392.4" y="110.1" class="st1" width="1134.1" height="378"/>
				
					<rect x="811.1" y="-268.6" transform="matrix(-1.836970e-16 1 -1 -1.836970e-16 1237.8552 -680.9924)" class="st1" width="296.6" height="1094"/>
				<rect x="1172.1" y="457.7" class="st1" width="177.2" height="30.4"/>
				<rect x="569.6" y="457.7" class="st1" width="177.2" height="30.4"/>
				<g>
					<g>
						<line class="st1" x1="453" y1="130.1" x2="453" y2="404.8"/>
						<line class="st1" x1="493.6" y1="130.1" x2="493.6" y2="404.8"/>
						<line class="st1" x1="534.1" y1="130.1" x2="534.1" y2="404.8"/>
						<line class="st1" x1="574.7" y1="130.1" x2="574.7" y2="404.8"/>
						<line class="st1" x1="615.2" y1="130.1" x2="615.2" y2="404.8"/>
						<line class="st2" x1="655.8" y1="130.1" x2="655.8" y2="404.8"/>
						<line class="st1" x1="696.4" y1="130.1" x2="696.4" y2="404.8"/>
						<line class="st1" x1="736.9" y1="130.1" x2="736.9" y2="404.8"/>
						<line class="st1" x1="777.5" y1="130.1" x2="777.5" y2="404.8"/>
						<line class="st1" x1="818" y1="130.1" x2="818" y2="404.8"/>
						<line class="st1" x1="858.6" y1="130.1" x2="858.6" y2="404.8"/>
						<line class="st1" x1="899.2" y1="130.1" x2="899.2" y2="404.8"/>
						<line class="st1" x1="939.7" y1="130.1" x2="939.7" y2="404.8"/>
						<line class="st1" x1="980.3" y1="130.1" x2="980.3" y2="404.8"/>
						<line class="st1" x1="1020.8" y1="130.1" x2="1020.8" y2="404.8"/>
						<line class="st1" x1="1061.4" y1="130.1" x2="1061.4" y2="404.8"/>
						<line class="st1" x1="1102" y1="130.1" x2="1102" y2="404.8"/>
						<line class="st1" x1="1142.5" y1="130.1" x2="1142.5" y2="404.8"/>
						<line class="st1" x1="1183.1" y1="130.1" x2="1183.1" y2="404.8"/>
						<line class="st1" x1="1223.7" y1="130.1" x2="1223.7" y2="404.8"/>
						<line class="st1" x1="1264.2" y1="130.1" x2="1264.2" y2="404.8"/>
						<line class="st1" x1="1304.8" y1="130.1" x2="1304.8" y2="404.8"/>
						<line class="st1" x1="1345.3" y1="130.1" x2="1345.3" y2="404.8"/>
						<line class="st1" x1="1385.9" y1="130.1" x2="1385.9" y2="404.8"/>
						<line class="st1" x1="1426.5" y1="130.1" x2="1426.5" y2="404.8"/>
						<line class="st1" x1="1467" y1="130.1" x2="1467" y2="404.8"/>
					</g>
					<g>
						<path class="st2" d="M534.1,176.3c12-5.1,25.1-7.7,39.1-7.7c0.5,0,0.9,0,1.4,0 M615.2,177.7c6.6,3.1,12.9,7,19,11.6
							c3.5,2.8,5.6,6.4,6.3,10.9c0.6,4.6-0.6,8.7-3.4,12.3c-2.8,3.6-6.4,5.7-10.9,6.3c-4,0.5-7.7-0.3-11-2.3 M574.7,201.7
							c-0.5,0-0.9,0-1.4,0c-14.8,0-27.8,4.2-39.1,12.6 M534.1,322.6c11.3,8.4,24.4,12.7,39.1,12.7c0.5,0,0.9,0,1.4,0 M615.2,320.6
							c1-0.8,2-1.7,3.1-2.6c3.4-3.1,7.3-4.5,11.9-4.3c4.6,0.2,8.4,2,11.5,5.5c3.1,3.4,4.5,7.3,4.3,11.9c-0.2,4.6-2,8.4-5.3,11.5
							c-7.9,7.2-16.4,12.9-25.4,17.1 M574.7,368.4c-0.5,0-0.9,0-1.4,0c-14.1,0-27.1-2.6-39.1-7.7 M493.6,328.9
							c-13.4-17.4-20.1-37.5-20.1-60.3c0-22.9,6.7-43,20.1-60.4"/>
						<path class="st2" d="M696.4,175.1c0.5-0.6,1-1.1,1.5-1.6c3.2-3.3,7-4.9,11.6-4.9s8.4,1.6,11.6,4.9c3.3,3.2,4.9,7,4.9,11.6
							v166.8c0,4.6-1.6,8.4-4.9,11.6c-3.2,3.3-7,4.9-11.6,4.9s-8.4-1.6-11.6-4.9c-0.5-0.5-1-1.1-1.5-1.6"/>
						<path class="st2" d="M858.6,243.8L886,289l13.2-21.8 M939.7,200.1l15-24.9c1.9-3.2,4.5-5.5,8-6.9c3.4-1.3,5.2-2,5.2-2
							s1.8,0.5,5.5,1.4c2.7,0.8,5,2.1,6.9,4 M980.3,363.9c-3.2,3-7,4.6-11.4,4.6c-4.6,0-8.5-1.6-11.7-4.9c-3.2-3.2-4.8-7-4.8-11.6
							V243.1L939.7,264 M899.2,330.9l-0.3,0.5c-0.4,0.4-0.6,0.6-0.7,0.7c-0.1,0.1-0.3,0.3-0.6,0.6c-0.3,0.3-0.5,0.5-0.6,0.6
							c-0.2,0.2-0.5,0.4-0.8,0.7l-0.4,0.4c-0.3,0.2-0.6,0.4-1,0.6c0,0.1,0,0.1-0.1,0.1l-0.1,0.1h-0.1c-0.2,0.2-0.5,0.4-1,0.6
							c-0.4,0.2-0.5,0.3-0.4,0.3c-0.1,0-0.4,0.1-0.8,0.3c-2.1,0.9-4.4,1.3-6.7,1.3h-0.3c0.2,0,0,0-0.6-0.1c-1.2-0.1-2.4-0.3-3.6-0.7
							c-0.5-0.1-0.7-0.1-0.6-0.1c0.2,0.1,0,0-0.6-0.1c-0.5-0.2-0.8-0.3-1-0.4c0.1,0,0-0.1-0.3-0.3c-0.5-0.2-0.8-0.4-1.1-0.6h-0.1
							l-0.1-0.1l-0.1-0.1c-0.4-0.2-0.7-0.4-1-0.7c0,0.1-0.1,0-0.4-0.3c-0.4-0.3-0.7-0.5-0.8-0.7c-0.1-0.1-0.3-0.3-0.6-0.6
							c-0.3-0.3-0.5-0.5-0.6-0.6c-0.1-0.2-0.3-0.4-0.7-0.7c-0.2-0.3-0.3-0.5-0.3-0.6c-0.2-0.2-0.4-0.5-0.7-1l-0.1-0.1
							c0-0.1,0-0.1-0.1-0.1v-0.1c0-0.1,0-0.1-0.1-0.1l-12.9-21.4 M818,358.8c-0.8,1.7-1.9,3.3-3.4,4.7c-3.3,3.3-7.2,4.9-11.7,4.9
							s-8.4-1.6-11.6-4.9c-3.3-3.2-4.9-7-4.9-11.6V183.8c0-3.7,1.1-7,3.4-9.9c2.2-3,5.2-5,8.8-6c3.5-0.9,7-0.7,10.5,0.6
							c3.5,1.4,6.2,3.7,8.1,6.9l0.9,1.5"/>
						<path class="st2" d="M1102,172.4c9.9-3.2,20.4-4.8,31.7-4.8c3,0,6,0.1,8.9,0.3 M1183.1,180.3c7.7,4.4,14.9,10,21.6,16.6
							c7.9,8,14.3,16.6,19,25.9 M1223.7,313.1c-4.7,9.3-11,17.9-19,25.8c-6.7,6.7-13.9,12.3-21.6,16.7 M1142.5,368.1
							c-2.9,0.2-5.9,0.4-8.9,0.4c-11.2,0-21.8-1.6-31.7-4.8 M1061.4,337.6c-18.8-19.3-28.2-42.5-28.2-69.6
							c0-27.1,9.4-50.3,28.2-69.7 M1102,327.6c9.5,5.2,20,7.8,31.7,7.8c3,0,6-0.2,8.9-0.5 M1183.1,313.7c12-12.8,17.9-28,17.9-45.7
							s-6-33-17.9-45.8 M1142.5,201.1c-2.9-0.4-5.9-0.5-8.9-0.5c-11.6,0-22.2,2.6-31.7,7.7"/>
						<path class="st2" d="M1304.8,168.6C1304.8,168.6,1304.8,168.6,1304.8,168.6c3.4,1,6.1,2.9,8.3,5.7l32.3,41.6 M1385.9,268.1
							l27.7,35.7V184.4c0-4.6,1.6-8.4,4.8-11.6c2.4-2.4,5.1-3.9,8.1-4.5 M1426.6,368c-0.1,0-0.2-0.1-0.6-0.2
							c-0.5-0.1-0.8-0.2-1.1-0.3c-0.1,0-0.3-0.1-0.6-0.3c-0.5-0.1-0.8-0.2-1.1-0.4c-0.2,0-0.4-0.1-0.6-0.3c-0.4-0.2-0.7-0.3-1-0.4
							c-0.3-0.2-0.5-0.3-0.6-0.4c-0.3-0.2-0.6-0.4-1-0.7c-0.3-0.2-0.5-0.3-0.6-0.4c-0.5-0.4-0.9-0.7-1.3-1.1l-0.1-0.1v-0.1
							c-0.4-0.4-0.6-0.6-0.6-0.6s-0.1-0.2-0.4-0.6h-0.1V362l-31.2-40.1 M1345.3,269.7l-28.8-37v119.3c0,4.6-1.6,8.4-4.9,11.6
							c-2,2.1-4.3,3.5-6.9,4.2"/>
					</g>
				</g>
			</g>
			<line class="st1" x1="412.4" y1="404.8" x2="1506.4" y2="404.8"/>
			<polyline class="st1" points="412.4,140.5 392.4,140.5 392.4,110.1 422.8,110.1 422.8,130.1 			"/>
			<polyline class="st1" points="1496.1,130.1 1496.1,110.1 1526.5,110.1 1526.5,140.5 1506.4,140.5 			"/>
			<rect x="392.4" y="457.7" class="st1" width="30.4" height="30.4"/>
			<rect x="1496.1" y="457.7" class="st1" width="30.4" height="30.4"/>
		</g>
		<line class="st2" x1="448.6" y1="129.7" x2="448.6" y2="404.2"/>
		<line class="st2" x1="529.1" y1="130.2" x2="529.1" y2="404.7"/>
		<line class="st1" x1="660.6" y1="130.2" x2="660.6" y2="404.7"/>
		<line class="st2" x1="601.1" y1="130.2" x2="601.1" y2="404.2"/>
		<line class="st2" x1="769.1" y1="131.2" x2="769.1" y2="404.2"/>
		<line class="st2" x1="853.1" y1="131.2" x2="853.1" y2="403.4"/>
		<line class="st2" x1="1015.1" y1="130.2" x2="1015.1" y2="403.3"/>
		<line class="st2" x1="1177.1" y1="130.2" x2="1177.1" y2="402.2"/>
		<line class="st2" x1="1259.1" y1="130.2" x2="1259.1" y2="402.2"/>
		<line class="st2" x1="1457.1" y1="130.1" x2="1457.1" y2="404.2"/>
		<path class="st2" d="M392.6,135.2c3.7-9.5,9.7-18,17.4-24.6"/>
		<path class="st2" d="M397.8,140.3c4.6-10.2,13.6-18.3,24.3-21.9"/>
		<path class="st2" d="M392.6,483c5.6,1.2,11.1,2.8,16.5,4.9"/>
		<path class="st2" d="M393.2,476.6c9.1,2.7,18.5,4.2,28,4.4"/>
		<path class="st2" d="M393.1,471.7c-0.6-0.2-1.2,0.5-0.9,1c10.1,1,20.3,1.3,30.4,0.9"/>
		<path class="st2" d="M1496.7,485.4c9.5-1.9,19-4.1,28.3-6.6"/>
		<path class="st2" d="M1496.2,482.1c6.5-1.7,12.8-4.3,18.7-7.7c3.3-1.9,7.2-4.2,10.8-2.9"/>
		<path class="st2" d="M1496.7,476.8c9.2-4.1,18.9-7.2,28.9-9"/>
		<path class="st2" d="M1173,484.6c10.9-10.7,23.5-19.5,37.2-26.2"/>
		<path class="st2" d="M1172.4,475.5c5.5-5.2,10.5-11,14.8-17.2"/>
		<path class="st2" d="M1184.5,487.9c23.5-9.6,46.9-19.5,70-30"/>
		<path class="st2" d="M1210.6,487.2c9.2-1.2,18.2-3.4,26.9-6.7c2.9-1.1,6.2-2.7,7-5.7c0.2-0.9,0.2-1.9,0.7-2.7
			c0.5-1,1.7-1.6,2.7-2.1c12.6-6,26.1-10.1,39.8-12.2"/>
		<path class="st2" d="M1320.1,458.5c10.2,2.3,21.1,5,28.2,12.7c0.5,0.5,0.9,1.3,0.5,1.9"/>
		<path class="st2" d="M570.1,468.1c4.4-4.4,10-7.7,16.1-9.4"/>
		<path class="st2" d="M570,477.5c10.8-7.2,22.2-13.6,34-19.2"/>
		<path class="st2" d="M569.3,485c9.7-4.3,19.4-8.5,29.2-12.8c5.5-2.4,11.2-4.9,17.2-5.3c2.4-0.2,4.8,0,7-0.8
			c4.6-1.7,7.2-7,11.9-8.1"/>
		<path class="st2" d="M579.7,488.6c12.6-1.6,25.3-3.2,37.9-4.7c4.3-0.5,8.9-1.2,12.3-3.9c3.4-2.7,5-8.3,2-11.5
			c18-5.2,36.5-8.6,55.2-10"/>
		<line class="st2" x1="423.2" y1="123.3" x2="1495.7" y2="123.3"/>
		<path class="st2" d="M393.2,439.8c1,0,2,0,3,0h1124.9"/>
		<line class="st2" x1="747.2" y1="474.3" x2="1171.8" y2="474.3"/>
		<line class="st2" x1="422.8" y1="466.8" x2="569.6" y2="466.8"/>
		<path class="st2" d="M1496.7,122.9c9.4,3.6,19.4,5.8,29.4,6.3"/>
		<path class="st2" d="M1501.9,110.1c6.1,6.8,15.1,10.8,24.2,10.9"/>
	</g>
	<g>
		<path class="st0" d="M1628.9,860.4c-3.1,0-5.6,2.4-5.7,5.5h-4.3v-10.7c0-0.1-0.1-0.3-0.3-0.3h-2.8v-6.8c0-0.1-0.1-0.3-0.3-0.3
			h-3.7v-54.1v-7.2V290.2v-8.6h9.9c0.1,0,0.3-0.1,0.3-0.3v-8.7h9.7c0.1,0,0.3-0.1,0.3-0.3v-9.9c0-0.1-0.1-0.3-0.3-0.3h-9.7V255h9.7
			c0.1,0,0.3-0.1,0.3-0.3v-9.9c0-0.1-0.1-0.3-0.3-0.3h-9.7v-8.1c0-0.1-0.1-0.3-0.3-0.3h-9.9v-8.6v-8.8v-40.2v-37.9V1
			c0-0.1-0.1-0.3-0.3-0.3H1587c-0.1,0-0.3,0.1-0.3,0.3v217.8v8.8v8.6h-9.9c-0.1,0-0.3,0.1-0.3,0.3v9.9H1547v-3.7
			c0-0.1-0.1-0.3-0.3-0.3h-6.8V232c0-0.1-0.1-0.3-0.3-0.3h-7.8v-0.6c0-0.1-0.1-0.3-0.3-0.3s-0.3,0.1-0.3,0.3v0.6h-4.9
			c-0.1,0-0.3,0.1-0.3,0.3v53.8c0,0.1,0.1,0.3,0.3,0.3h13.3c0.1,0,0.3-0.1,0.3-0.3v-10.4h6.8c0.1,0,0.3-0.1,0.3-0.3v-3.6h29.6v9.9
			c0,0.1,0.1,0.3,0.3,0.3h9.9v8.6v496.4v7.2v54.1h-3.6c-0.1,0-0.3,0.1-0.3,0.3v6.8h-2.8c-0.1,0-0.3,0.1-0.3,0.3v10.7h-4.3
			c-0.1-3-2.6-5.5-5.7-5.5c-3.2,0-5.7,2.6-5.7,5.7c0,0.1,0.1,0.3,0.3,0.3h15.8h38.5h15.8c0.1,0,0.3-0.1,0.3-0.3
			C1634.6,863,1632.1,860.4,1628.9,860.4z"/>
		<g>
			
				<rect x="1506.2" y="252.3" transform="matrix(6.918827e-11 -1 1 6.918827e-11 1274.1824 1792.0183)" class="st1" width="53.8" height="13.3"/>
			<line class="st1" x1="1587" y1="236.4" x2="1587" y2="1"/>
			<line class="st1" x1="1611.7" y1="1" x2="1611.7" y2="236.4"/>
			<g>
				<line class="st1" x1="1587" y1="793.8" x2="1587" y2="281.4"/>
				<line class="st1" x1="1611.7" y1="281.4" x2="1611.7" y2="793.8"/>
			</g>
			<g>
				
					<rect x="1576.9" y="236.4" transform="matrix(4.492413e-11 -1 1 4.492413e-11 1340.4329 1858.2688)" class="st1" width="44.9" height="44.9"/>
				<g>
					<circle class="st1" cx="1599.4" cy="258.9" r="10.8"/>
					<circle class="st1" cx="1599.4" cy="258.9" r="6.9"/>
				</g>
			</g>
			
				<rect x="1594.9" y="219.7" transform="matrix(4.207485e-11 -1 1 4.207485e-11 1367.3148 1831.3868)" class="st1" width="8.8" height="24.7"/>
			
				<rect x="1594.9" y="210.9" transform="matrix(4.661255e-11 -1 1 4.661255e-11 1376.1342 1822.5675)" class="st1" width="8.8" height="24.7"/>
			
				<rect x="1594.9" y="273.5" transform="matrix(4.640650e-11 -1 1 4.640650e-11 1313.5509 1885.1508)" class="st1" width="8.8" height="24.7"/>
			<g>
				<g>
					<line class="st1" x1="1569.7" y1="271.2" x2="1569.7" y2="246.6"/>
				</g>
				
					<rect x="1527" y="255.4" transform="matrix(4.527585e-11 -1 1 4.527585e-11 1284.3191 1802.1549)" class="st1" width="32.5" height="7"/>
				<line class="st1" x1="1576.9" y1="271.2" x2="1546.7" y2="271.2"/>
				<line class="st1" x1="1576.9" y1="246.6" x2="1546.7" y2="246.6"/>
			</g>
			
				<rect x="1586.6" y="153.5" transform="matrix(4.539309e-11 -1 1 4.539309e-11 1445.8273 1765.2052)" class="st1" width="37.9" height="12.3"/>
			<line class="st1" x1="1546.7" y1="252.1" x2="1569.7" y2="252.1"/>
			<rect x="1621.8" y="244.8" class="st1" width="9.9" height="9.9"/>
			<rect x="1621.8" y="262.5" class="st1" width="9.9" height="9.9"/>
			<path class="st1" d="M1631.8,250.3c41.7,2.2,83.5,4.2,125,0.1c57.1-5.6,113-22.8,163.5-50.1"/>
			<path class="st1" d="M1631.8,269c91.5,9,186.3,5,270.8-31c5.7-2.4,11.3-5,16.9-7.6"/>
			<g>
				<g>
					
						<rect x="1593.9" y="841.4" transform="matrix(-1.361026e-10 -1 1 -1.361026e-10 738.6766 2460.0251)" class="st1" width="10.9" height="38.5"/>
					<path class="st1" d="M1623.4,866.1c0-3,2.5-5.5,5.5-5.5s5.5,2.5,5.5,5.5"/>
					<path class="st1" d="M1564.3,866.1c0-3,2.5-5.5,5.5-5.5s5.5,2.5,5.5,5.5"/>
				</g>
				<g>
					<g>
						<line class="st1" x1="1611.7" y1="793.8" x2="1587" y2="793.8"/>
					</g>
					
						<rect x="1583.1" y="848.2" transform="matrix(-1 8.982358e-11 -8.982358e-11 -1 3198.7017 1703.3821)" class="st1" width="32.5" height="7"/>
					<line class="st1" x1="1611.7" y1="786.6" x2="1611.7" y2="848.2"/>
					<line class="st1" x1="1587" y1="786.6" x2="1587" y2="848.2"/>
				</g>
				<line class="st1" x1="1593.2" y1="848.2" x2="1593.2" y2="793.8"/>
			</g>
			<line class="st1" x1="1587.1" y1="7.2" x2="1611" y2="7.2"/>
			<line class="st1" x1="1587.1" y1="12.2" x2="1611.7" y2="12.2"/>
			<line class="st1" x1="1587" y1="23.2" x2="1610.7" y2="23.2"/>
			<line class="st1" x1="1531.6" y1="231.2" x2="1531.6" y2="285.7"/>
		</g>
		<line class="st2" x1="1602.2" y1="289.8" x2="1602.2" y2="793.8"/>
		<line class="st1" x1="1564.3" y1="866.1" x2="1634.4" y2="866.1"/>
		<line class="st1" x1="1587" y1="1" x2="1611.7" y2="1"/>
	</g>
</g>
</svg>
