<?xml version="1.0" encoding="utf-8"?>
<!-- Generator: Adobe Illustrator 19.0.0, SVG Export Plug-In . SVG Version: 6.00 Build 0)  -->
<svg version="1.1" id="Слой_1" xmlns="http://www.w3.org/2000/svg" xmlns:xlink="http://www.w3.org/1999/xlink" x="0px" y="0px"
	 viewBox="0 -110.2 1920 380.2" style="enable-background:new 0 -110.2 1920 380.2;" xml:space="preserve">
<style type="text/css">
	.st0{fill:#F4E1A1;}
	.st1{fill:none;stroke:#817957;stroke-width:2;stroke-linecap:round;stroke-linejoin:round;stroke-miterlimit:10;}
	.st2{fill:none;stroke:#817957;stroke-linecap:round;stroke-linejoin:round;stroke-miterlimit:10;}
</style>
<g id="_x31_3">
	<g>
		<g>
			<g>
				<rect x="968.9" y="-22.6" class="st0" width="10.9" height="45.2"/>
				<path class="st0" d="M979.8-13.5v9.9h4.1c0,0.1,0,0.1,0,0.2v-0.2h5.9v-9.9H979.8z"/>
				<path class="st0" d="M984.9,4.5h-5.1v9.9h4.3v0.2c0-0.1,0-0.1,0-0.2h5.6V4.5h-4.6C985.1,4.4,985,4.4,984.9,4.5z"/>
			</g>
			<g>
				<g>
					<polyline class="st1" points="968.9,22.6 979.8,22.6 979.8,-22.6 968.9,-22.6 					"/>
					<rect x="979.8" y="-13.5" class="st1" width="9.9" height="9.9"/>
					<rect x="979.8" y="4.5" class="st1" width="9.9" height="9.9"/>
				</g>
			</g>
			<path class="st1" d="M989.7-9.9c21.4-8.1,40.3-22.7,53.3-41.5c11.8-16.9,18.8-37.2,20.1-57.8"/>
			<path class="st1" d="M989.7,10.2c13.1,1.9,26.9-2.4,38.9-8.6c40.4-21,67.4-65.4,68.2-110.8"/>
			<line class="st2" x1="973.2" y1="-22.1" x2="973.2" y2="21.9"/>
			<path class="st2" d="M984.1-12.8c-0.4,3.1-0.4,6.3-0.2,9.4"/>
			<path class="st2" d="M984.7,4.9c-0.3-0.2,0.2-0.6,0.5-0.4s0.2,0.6,0.2,1c-0.4,3.1-0.9,6.1-1.3,9.2"/>
			<line class="st1" x1="968.9" y1="-22.6" x2="968.9" y2="22.6"/>
		</g>
		<g>
			<path class="st0" d="M968.9,238.4V-78.8v-30.4h-30.4H621.2h-30.4v30.4v317.2v30.4h30.4h70h32.4c-0.2,0.1-0.4,0.1-0.6,0.2
				l51.6-0.2h93.8h70h30.4L968.9,238.4L968.9,238.4z"/>
			<g>
				<path class="st1" d="M1923,268.8"/>
				<path class="st1" d="M1223,268.8"/>
				<path class="st1" d="M1232.6,268.8"/>
				<path class="st1" d="M968.9,268.8"/>
			</g>
			<path class="st2" d="M591.3-99.9c6.8-3.1,13.6-6.1,20.4-9.2"/>
			<path class="st2" d="M590.9-91.8c7.6-1.5,15.2-3.6,22.6-6.1c2.3-0.8,4.6-1.6,6.9-2.5"/>
			<path class="st2" d="M937.8-102.7c10-0.3,20-0.2,30,0.2"/>
			<path class="st2" d="M938.5-98.8c10,1.3,20,2.6,30,3.9"/>
			<line class="st2" x1="692" y1="243.4" x2="866.8" y2="243.4"/>
			<line class="st2" x1="691.5" y1="246.4" x2="868.2" y2="246.4"/>
			<line class="st2" x1="691.5" y1="253.4" x2="867" y2="253.4"/>
			<path class="st2" d="M696.1,268.5c6.2-4.3,13.9-5.5,21.4-6.5c49.8-6.5,100.3-4.7,150.5-2.9"/>
			<path class="st2" d="M723,269c23.3-6.4,48.2-6.4,71.5-0.2"/>
			<path class="st2" d="M938.4,260.6c9.2,3.2,18.5,5.9,28,8.2"/>
			<path class="st2" d="M938,255.8c10.3,1.2,20.7,2.5,31,3.7"/>
			<path class="st2" d="M937.5,252.2c10,0.4,20.1,1.1,30.1,2.1c0.3,0,0.7,0.1,0.8,0.3c0.2,0.2,0,0.7-0.3,0.7"/>
			<path class="st2" d="M591.5,262.1c9.6,2.4,19.6,3.7,29.5,3.8"/>
			<path class="st2" d="M591.1,257.7c9.4,1.6,18.8,2.6,28.3,3c0.5,0,1.1,0.2,1.2,0.7c0.1,0.5-1,0.3-0.6,0"/>
			<path class="st2" d="M591,255.5c9.8-0.1,19.7-0.3,29.5-0.4"/>
			<line class="st2" x1="591.8" y1="222.6" x2="968.5" y2="222.6"/>
			<line class="st2" x1="955.1" y1="-78" x2="955.1" y2="216.6"/>
			<line class="st2" x1="602.6" y1="-78.8" x2="602.6" y2="216.6"/>
			<line class="st2" x1="620.6" y1="-102" x2="938.6" y2="-102"/>
			<line class="st2" x1="616.1" y1="-89.1" x2="616.1" y2="207.4"/>
			<line class="st2" x1="849.8" y1="-88.8" x2="849.8" y2="88.3"/>
			<line class="st2" x1="849.8" y1="163.2" x2="849.8" y2="205.6"/>
			<path class="st2" d="M697.8-88.1c0,2.7,0,5.3,0,8v287.3"/>
			<line class="st2" x1="602.6" y1="216.6" x2="955.1" y2="216.6"/>
			<line class="st1" x1="713.4" y1="-89.1" x2="713.4" y2="207.4"/>
			<line class="st1" x1="743" y1="-89.1" x2="743" y2="207.4"/>
			<line class="st1" x1="816.2" y1="-89.1" x2="816.2" y2="88.3"/>
			<line class="st1" x1="845.8" y1="-89.1" x2="845.8" y2="88.3"/>
			<rect x="590.8" y="-109.2" class="st1" width="378" height="378"/>
			<polyline class="st1" points="948.8,-78.8 948.8,207.4 610.9,207.4 610.9,-89.1 938.4,-89.1 			"/>
			<rect x="938.4" y="-109.2" class="st1" width="30.4" height="30.4"/>
			<polyline class="st1" points="610.9,-78.8 590.8,-78.8 590.8,-109.2 621.2,-109.2 621.2,-89.1 			"/>
			<rect x="938.4" y="238.4" class="st1" width="30.4" height="30.4"/>
			<rect x="590.8" y="238.4" class="st1" width="30.4" height="30.4"/>
			<rect x="691.2" y="238.4" class="st1" width="177.2" height="30.4"/>
			<line class="st1" x1="948.8" y1="59.2" x2="610.9" y2="59.2"/>
			<line class="st1" x1="948.8" y1="-15" x2="610.9" y2="-15"/>
			<line class="st1" x1="779.8" y1="-89.1" x2="779.8" y2="100.3"/>
			<line class="st1" x1="779.8" y1="128.2" x2="779.8" y2="207.4"/>
			<g>
				<path class="st1" d="M816.2,163.2v44.3V163.2z"/>
				<line class="st1" x1="948.8" y1="133.3" x2="869.4" y2="133.3"/>
				<path class="st1" d="M845.8,163.2v44.3V163.2z"/>
				<g>
					<line class="st1" x1="713.4" y1="133.3" x2="713.4" y2="207.4"/>
					<line class="st1" x1="743" y1="133.3" x2="743" y2="207.4"/>
				</g>
			</g>
			<g>
				<line class="st1" x1="816.2" y1="-89.1" x2="816.2" y2="-15"/>
				<line class="st1" x1="845.8" y1="-89.1" x2="845.8" y2="-15"/>
				<g>
					<line class="st1" x1="713.4" y1="-89.1" x2="713.4" y2="-15"/>
					<line class="st1" x1="743" y1="-89.1" x2="743" y2="-15"/>
				</g>
			</g>
		</g>
		<g>
			<g>
				<polygon class="st0" points="794.5,88.3 794.5,92.1 783.8,92.1 783.8,137.3 794.5,137.3 794.5,163.2 869.4,163.2 869.4,88.3 
									"/>
				<rect x="773.8" y="118.3" class="st0" width="9.9" height="9.9"/>
				<rect x="773.8" y="100.3" class="st0" width="9.9" height="9.9"/>
			</g>
			<line class="st2" x1="791.2" y1="91.9" x2="791.2" y2="136.6"/>
			<line class="st2" x1="775.2" y1="107.6" x2="782.8" y2="107.6"/>
			<line class="st2" x1="774.5" y1="125.6" x2="782.5" y2="125.6"/>
			<path class="st2" d="M805.1,142.7c3.3-5,11-6.5,12.7-12.2c0.6-2,0.3-4.1,0.8-6.1c1.1-4.4,5.4-7.1,9.4-9.2
				c2.6-1.4,6.3-2.7,8.2-0.4c2.3,2.8-0.7,7.9,2.1,10.3c1.3,1.1,3.3,0.9,4.8,0.1s2.6-2.2,3.8-3.4c3.2-3.1,7.5-5.1,11.9-5.7"/>
			<path class="st2" d="M810.8,150.9c2.9-3.1,6-6.1,9.2-9c3.7-3.3,8-6.5,12.9-6.3c4,0.2,7.5,2.7,11.4,3.9c5,1.4,10.6,0.4,14.6-2.8"
				/>
			<path class="st2" d="M805.1,122.2c8.4-4.6,14.6-13,23.8-15.9c3.3-1,7.3-1.1,9.8,1.3c1.7,1.6,2.5,4.3,4.7,5.2
				c2.6,1.1,5.3-0.9,7.2-3c2-2.3,3.8-4.8,5.1-7.5"/>
			<line class="st1" x1="783.8" y1="133.3" x2="610.9" y2="133.3"/>
			<line class="st1" x1="779.8" y1="110.3" x2="779.8" y2="118.3"/>
			<g>
				<rect x="794.5" y="88.3" class="st1" width="74.9" height="74.9"/>
				<path class="st1" d="M847.4,152.9h-30.9c-6.5,0-11.8-5.3-11.8-11.8v-30.9c0-6.5,5.3-11.8,11.8-11.8h30.9
					c6.5,0,11.8,5.3,11.8,11.8v30.9C859.2,147.7,853.9,152.9,847.4,152.9z"/>
				<ellipse class="st1" cx="801.4" cy="95.1" rx="2.2" ry="2.2"/>
				<ellipse class="st1" cx="862.6" cy="95.1" rx="2.2" ry="2.2"/>
				<ellipse class="st1" cx="801.4" cy="156.3" rx="2.2" ry="2.2"/>
				<ellipse class="st1" cx="862.6" cy="156.3" rx="2.2" ry="2.2"/>
			</g>
			<g>
				<g>
					<polyline class="st1" points="794.7,92.1 783.8,92.1 783.8,137.3 794.7,137.3 					"/>
					<rect x="773.9" y="118.4" class="st1" width="9.9" height="9.9"/>
					<rect x="773.9" y="100.4" class="st1" width="9.9" height="9.9"/>
				</g>
			</g>
			<path class="st1" d="M583.7,132.6c13.3,19.1,55.3,37.8,80.6,33.9c21-3.2,36.6-21.1,54.8-31.9c16.5-9.8,36-14.4,54.6-11.4"/>
			<path class="st1" d="M583.7,140.4c17.9,19.9,44.5,45,74.7,44c16.8-0.5,32.5-9.2,45.1-20.3c12.6-11.2,22.6-24.8,33.4-37.8
				c5.3-6.4,11-12.8,18.2-17c5.5-3.2,12.2-5,18.4-4.2"/>
		</g>
	</g>
	<g>
		<path class="st0" d="M584.4,257.4c-0.2,0-0.5,0.1-0.7,0.1v-19.1V-78.8v-30.4h-30.4H1L1.3-15h327.1l-0.1,283.8h225h30.4v-11.3
			L584.4,257.4z"/>
		<g>
			<line class="st1" x1="357.9" y1="-89.1" x2="357.9" y2="207.4"/>
			<line class="st1" x1="431.1" y1="-89.1" x2="431.1" y2="207.4"/>
			<line class="st1" x1="460.7" y1="-89.1" x2="460.7" y2="207.4"/>
			<path class="st1" d="M1-109.2c194,0.2,389,0.2,582.7,0c0,0.4,0,0.8-0.1,1.1c0-0.4,0-0.7,0.1-1.1C582,17,584,143,581,269
				c-84,0-169,0-252.7-0.2"/>
			<polyline class="st1" points="1.8,-89.1 563.7,-89.1 563.7,207.4 328.3,207.4 			"/>
			<polyline class="st1" points="553.3,-89.1 553.3,-109.2 583.7,-109.2 583.7,-78.8 563.7,-78.8 			"/>
			<rect x="553.3" y="238.4" class="st1" width="30.4" height="30.4"/>
			<polyline class="st1" points="483.3,268.8 483.3,238.4 328.3,238.4 			"/>
			<line class="st1" x1="563.7" y1="133.3" x2="328.3" y2="133.3"/>
			<line class="st1" x1="563.7" y1="59.2" x2="328.3" y2="59.2"/>
			<line class="st1" x1="563.7" y1="-15" x2="1.8" y2="-15"/>
			<line class="st1" x1="394.7" y1="-89.1" x2="394.7" y2="207.4"/>
			<g>
				<line class="st1" x1="431.1" y1="133.3" x2="431.1" y2="207.4"/>
				<line class="st1" x1="460.7" y1="133.3" x2="460.7" y2="207.4"/>
				<g>
					<line class="st1" x1="357.9" y1="133.3" x2="357.9" y2="207.4"/>
				</g>
			</g>
			<g>
				<line class="st1" x1="431.1" y1="-89.1" x2="431.1" y2="-15"/>
				<line class="st1" x1="460.7" y1="-89.1" x2="460.7" y2="-15"/>
				<g>
					<line class="st1" x1="357.9" y1="-89.1" x2="357.9" y2="-15"/>
				</g>
			</g>
			<path class="st2" d="M553.8-101.4c9.7-1.4,19.5-1.8,29.3-1.3"/>
			<path class="st2" d="M553.2-95.6c9.8,0.1,19.6,0.2,29.3,0.3"/>
			<path class="st2" d="M553.2,246.9c6.1-2.6,12.1-5.2,18.1-7.9"/>
			<path class="st2" d="M554,259c9.3-3.7,19.1-6,29-7"/>
			<path class="st2" d="M553.4,262.3c1.7-0.9,3.6-1.2,5.5-1.5c8.5-1.1,17-2.3,25.5-3.4"/>
			<path class="st2" d="M557.4,268.5c8.6-2,17.3-3.7,26.1-5.2"/>
			<path class="st2" d="M333,239.2c12.3,2.3,24.3,6.4,36.2,10.4c18.1,6.1,36.2,12.2,54.3,18.4"/>
			<path class="st2" d="M352.2,237.9c31.4,11.6,63.3,21.6,95.6,30.2"/>
			<path class="st2" d="M378.6,238.1c17.2,4.1,34.4,8.2,51.5,12.3c2.2,0.5,4.4,1.1,5.9,2.8c1.1,1.2,1.6,2.8,2.7,4.1
				c3.1,3.5,8.6,2.1,13.1,2.9c2.9,0.5,5.5,1.9,8.3,3c7.1,2.7,15.2,2.6,22.2-0.3"/>
			<path class="st2" d="M418.1,237.9c13.4,3.6,26.8,7.3,40.2,10.9c7.2,2,14.6,3.9,22,3.5c0.9-0.1,2.2,0.1,2.3,1.1"/>
			<path class="st2" d="M452.1,238.1c9.8,4.2,20.3,7.2,30.9,8.7"/>
			<path class="st2" d="M340.1,207.2c24.8,10.5,52.4,11.6,79.3,12.5c35.4,1.2,70.9,2.5,106.3,3.7c19,0.7,38,1.3,56.9-0.4"/>
			<line class="st2" x1="571.1" y1="-78.8" x2="571.1" y2="223.5"/>
			<line class="st2" x1="553.1" y1="-97.5" x2="1.8" y2="-97.5"/>
			<line class="st2" x1="542.6" y1="-89.1" x2="542.6" y2="207.4"/>
			<line class="st2" x1="437.6" y1="-89.1" x2="437.6" y2="208.5"/>
			<line class="st2" x1="465.2" y1="-89.4" x2="465.2" y2="206"/>
			<path class="st2" d="M397.2-89.4c0,0.2,0,0.4,0,0.7V206"/>
			<line class="st1" x1="328.3" y1="-109.1" x2="328.3" y2="269"/>
			<line class="st1" x1="1" y1="-109.2" x2="1" y2="-15"/>
		</g>
		<g>
			<path class="st1" d="M1.8-72.5C36.2-56,76.3-55.2,114.7-56.9c30.9-1.4,61.9-4.2,91.5-13.2c25.5-7.8,50-20.5,69-39.1"/>
			<path class="st1" d="M1.7-95.3c38.8,21.8,80.5,39.1,124.5,46c47.1,7.4,97,2.2,138.9-20.4c17.5-9.4,33.9-22.5,43.7-39.5"/>
			<g>
				<g>
					<polygon class="st0" points="338.1,-59.6 334.1,-59.6 334.1,-75.5 332.1,-75.5 332.1,-79.6 322.5,-79.6 322.5,-75.5 
						316.3,-75.5 316.3,-79.6 306.7,-79.6 306.7,-75.5 304.7,-75.5 304.7,-59.6 300.7,-59.6 300.7,-51 322.9,-51 338.1,-51 					"/>
					<path class="st0" d="M321.8-51h-21.1v10c0,10.3,8.4,18.7,18.7,18.7s18.7-8.4,18.7-18.7v-10h-15.2l0,0L321.8-51z"/>
				</g>
				<g>
					<path class="st1" d="M300.7-51v10c0,10.3,8.4,18.7,18.7,18.7l0,0c10.3,0,18.7-8.4,18.7-18.7v-10"/>
					<rect x="300.7" y="-59.7" class="st1" width="37.4" height="8.7"/>
					<path class="st1" d="M315.9-51v14.8c0,2,1.6,3.5,3.5,3.5l0,0c2,0,3.5-1.6,3.5-3.5V-51"/>
					<rect x="304.7" y="-75.5" class="st1" width="29.5" height="15.8"/>
					<rect x="306.8" y="-79.6" class="st1" width="9.6" height="4.1"/>
					<rect x="322.5" y="-79.5" class="st1" width="9.6" height="4.1"/>
				</g>
				<path class="st1" d="M327.7-79.6c-0.2-9.9-0.2-19.8,0.1-29.6"/>
				<path class="st1" d="M312.5-109.2c0.2,9.9,0.1,19.8-0.1,29.6"/>
				<line class="st1" x1="328.3" y1="-74" x2="328.3" y2="-59.6"/>
				<line class="st1" x1="319.8" y1="-74" x2="319.8" y2="-60.9"/>
				<line class="st1" x1="324.3" y1="-59.6" x2="324.3" y2="-51"/>
				<line class="st1" x1="330.3" y1="-59.5" x2="330.3" y2="-51.5"/>
				<line class="st1" x1="309.3" y1="-59" x2="309.3" y2="-51"/>
			</g>
		</g>
	</g>
</g>
</svg>
