<?xml version="1.0" encoding="utf-8"?>
<!-- Generator: Adobe Illustrator 20.1.0, SVG Export Plug-In . SVG Version: 6.00 Build 0)  -->
<svg version="1.1" id="Слой_1" xmlns="http://www.w3.org/2000/svg" xmlns:xlink="http://www.w3.org/1999/xlink" x="0px" y="0px"
	 viewBox="0 0 1920 380.2" style="enable-background:new 0 0 1920 380.2;" xml:space="preserve">
<style type="text/css">
	.st0{fill:#F4E1A1;}
	.st1{fill:none;stroke:#817957;stroke-width:2;stroke-linecap:round;stroke-linejoin:round;stroke-miterlimit:10;}
	.st2{fill:none;stroke:#817957;stroke-linecap:round;stroke-linejoin:round;stroke-miterlimit:10;}
</style>
<g id="_x31_3">
	<g>
		<g>
			<g>
				<rect x="968.9" y="87.6" class="st0" width="10.9" height="45.2"/>
				<path class="st0" d="M979.8,96.7v9.9h4.1c0,0.1,0,0.1,0,0.2v-0.2h5.9v-9.9H979.8z"/>
				<path class="st0" d="M984.9,114.7h-5.1v9.9h4.3v0.2c0-0.1,0-0.1,0-0.2h5.6v-9.9h-4.6C985.1,114.6,985,114.6,984.9,114.7z"/>
			</g>
			<g>
				<g>
					<polyline class="st1" points="968.9,132.8 979.8,132.8 979.8,87.6 968.9,87.6 					"/>
					<rect x="979.8" y="96.7" class="st1" width="9.9" height="9.9"/>
					<rect x="979.8" y="114.7" class="st1" width="9.9" height="9.9"/>
				</g>
			</g>
			<path class="st1" d="M989.7,100.3c21.4-8.1,40.3-22.7,53.3-41.5c11.8-16.9,18.8-37.2,20.1-57.8"/>
			<path class="st1" d="M989.7,120.4c13.1,1.9,26.9-2.4,38.9-8.6c40.4-21,67.4-65.4,68.2-110.8"/>
			<line class="st2" x1="973.2" y1="88.1" x2="973.2" y2="132.1"/>
			<path class="st2" d="M984.1,97.4c-0.4,3.1-0.4,6.3-0.2,9.4"/>
			<path class="st2" d="M984.7,115.1c-0.3-0.2,0.2-0.6,0.5-0.4s0.2,0.6,0.2,1c-0.4,3.1-0.9,6.1-1.3,9.2"/>
			<line class="st1" x1="968.9" y1="87.6" x2="968.9" y2="132.8"/>
		</g>
		<g>
			<path class="st0" d="M968.9,348.6V31.4V1h-30.4H621.2h-30.4v30.4v317.2V379h30.4h70h32.4c-0.2,0.1-0.4,0.1-0.6,0.2l51.6-0.2h93.8
				h70h30.4L968.9,348.6L968.9,348.6z"/>
			<g>
				<line class="st1" x1="1223" y1="379" x2="1923" y2="379"/>
				<line class="st1" x1="968.9" y1="379" x2="1232.6" y2="379"/>
			</g>
			<path class="st2" d="M591.3,10.3c6.8-3.1,13.6-6.1,20.4-9.2"/>
			<path class="st2" d="M590.9,18.4c7.6-1.5,15.2-3.6,22.6-6.1c2.3-0.8,4.6-1.6,6.9-2.5"/>
			<path class="st2" d="M937.8,7.5c10-0.3,20-0.2,30,0.2"/>
			<path class="st2" d="M938.5,11.4c10,1.3,20,2.6,30,3.9"/>
			<line class="st2" x1="692" y1="353.6" x2="866.8" y2="353.6"/>
			<line class="st2" x1="691.5" y1="356.6" x2="868.2" y2="356.6"/>
			<line class="st2" x1="691.5" y1="363.6" x2="867" y2="363.6"/>
			<path class="st2" d="M696.1,378.7c6.2-4.3,13.9-5.5,21.4-6.5c49.8-6.5,100.3-4.7,150.5-2.9"/>
			<path class="st2" d="M723,379.2c23.3-6.4,48.2-6.4,71.5-0.2"/>
			<path class="st2" d="M938.4,370.8c9.2,3.2,18.5,5.9,28,8.2"/>
			<path class="st2" d="M938,366c10.3,1.2,20.7,2.5,31,3.7"/>
			<path class="st2" d="M937.5,362.4c10,0.4,20.1,1.1,30.1,2.1c0.3,0,0.7,0.1,0.8,0.3c0.2,0.2,0,0.7-0.3,0.7"/>
			<path class="st2" d="M591.5,372.3c9.6,2.4,19.6,3.7,29.5,3.8"/>
			<path class="st2" d="M591.1,367.9c9.4,1.6,18.8,2.6,28.3,3c0.5,0,1.1,0.2,1.2,0.7c0.1,0.5-1,0.3-0.6,0"/>
			<path class="st2" d="M591,365.7c9.8-0.1,19.7-0.3,29.5-0.4"/>
			<line class="st2" x1="591.8" y1="332.8" x2="968.5" y2="332.8"/>
			<line class="st2" x1="955.1" y1="32.2" x2="955.1" y2="326.8"/>
			<line class="st2" x1="602.6" y1="31.4" x2="602.6" y2="326.8"/>
			<line class="st2" x1="620.6" y1="8.2" x2="938.6" y2="8.2"/>
			<line class="st2" x1="616.1" y1="21.1" x2="616.1" y2="317.6"/>
			<line class="st2" x1="849.8" y1="21.4" x2="849.8" y2="198.5"/>
			<line class="st2" x1="849.8" y1="273.4" x2="849.8" y2="315.8"/>
			<path class="st2" d="M697.8,22.1c0,2.7,0,5.3,0,8v287.3"/>
			<line class="st2" x1="602.6" y1="326.8" x2="955.1" y2="326.8"/>
			<line class="st1" x1="713.4" y1="21.1" x2="713.4" y2="317.6"/>
			<line class="st1" x1="743" y1="21.1" x2="743" y2="317.6"/>
			<line class="st1" x1="816.2" y1="21.1" x2="816.2" y2="198.5"/>
			<line class="st1" x1="845.8" y1="21.1" x2="845.8" y2="198.5"/>
			<rect x="590.8" y="1" class="st1" width="378" height="378"/>
			<polyline class="st1" points="948.8,31.4 948.8,317.6 610.9,317.6 610.9,21.1 938.4,21.1 			"/>
			<rect x="938.4" y="1" class="st1" width="30.4" height="30.4"/>
			<polyline class="st1" points="610.9,31.4 590.8,31.4 590.8,1 621.2,1 621.2,21.1 			"/>
			<rect x="938.4" y="348.6" class="st1" width="30.4" height="30.4"/>
			<rect x="590.8" y="348.6" class="st1" width="30.4" height="30.4"/>
			<rect x="691.2" y="348.6" class="st1" width="177.2" height="30.4"/>
			<line class="st1" x1="948.8" y1="169.4" x2="610.9" y2="169.4"/>
			<line class="st1" x1="948.8" y1="95.2" x2="610.9" y2="95.2"/>
			<line class="st1" x1="779.8" y1="21.1" x2="779.8" y2="210.5"/>
			<line class="st1" x1="779.8" y1="238.4" x2="779.8" y2="317.6"/>
			<g>
				<path class="st1" d="M816.2,273.4v44.3V273.4z"/>
				<line class="st1" x1="948.8" y1="243.5" x2="869.4" y2="243.5"/>
				<path class="st1" d="M845.8,273.4v44.3V273.4z"/>
				<g>
					<line class="st1" x1="713.4" y1="243.5" x2="713.4" y2="317.6"/>
					<line class="st1" x1="743" y1="243.5" x2="743" y2="317.6"/>
				</g>
			</g>
			<g>
				<line class="st1" x1="816.2" y1="21.1" x2="816.2" y2="95.2"/>
				<line class="st1" x1="845.8" y1="21.1" x2="845.8" y2="95.2"/>
				<g>
					<line class="st1" x1="713.4" y1="21.1" x2="713.4" y2="95.2"/>
					<line class="st1" x1="743" y1="21.1" x2="743" y2="95.2"/>
				</g>
			</g>
		</g>
		<g>
			<g>
				<polygon class="st0" points="794.5,198.5 794.5,202.3 783.8,202.3 783.8,247.5 794.5,247.5 794.5,273.4 869.4,273.4 
					869.4,198.5 				"/>
				<rect x="773.8" y="228.5" class="st0" width="9.9" height="9.9"/>
				<rect x="773.8" y="210.5" class="st0" width="9.9" height="9.9"/>
			</g>
			<line class="st2" x1="791.2" y1="202.1" x2="791.2" y2="246.8"/>
			<line class="st2" x1="775.2" y1="217.8" x2="782.8" y2="217.8"/>
			<line class="st2" x1="774.5" y1="235.8" x2="782.5" y2="235.8"/>
			<path class="st2" d="M805.1,252.9c3.3-5,11-6.5,12.7-12.2c0.6-2,0.3-4.1,0.8-6.1c1.1-4.4,5.4-7.1,9.4-9.2
				c2.6-1.4,6.3-2.7,8.2-0.4c2.3,2.8-0.7,7.9,2.1,10.3c1.3,1.1,3.3,0.9,4.8,0.1s2.6-2.2,3.8-3.4c3.2-3.1,7.5-5.1,11.9-5.7"/>
			<path class="st2" d="M810.8,261.1c2.9-3.1,6-6.1,9.2-9c3.7-3.3,8-6.5,12.9-6.3c4,0.2,7.5,2.7,11.4,3.9c5,1.4,10.6,0.4,14.6-2.8"
				/>
			<path class="st2" d="M805.1,232.4c8.4-4.6,14.6-13,23.8-15.9c3.3-1,7.3-1.1,9.8,1.3c1.7,1.6,2.5,4.3,4.7,5.2
				c2.6,1.1,5.3-0.9,7.2-3c2-2.3,3.8-4.8,5.1-7.5"/>
			<line class="st1" x1="783.8" y1="243.5" x2="610.9" y2="243.5"/>
			<line class="st1" x1="779.8" y1="220.5" x2="779.8" y2="228.5"/>
			<g>
				<rect x="794.5" y="198.5" class="st1" width="74.9" height="74.9"/>
				<path class="st1" d="M847.4,263.1h-30.9c-6.5,0-11.8-5.3-11.8-11.8v-30.9c0-6.5,5.3-11.8,11.8-11.8h30.9
					c6.5,0,11.8,5.3,11.8,11.8v30.9C859.2,257.9,853.9,263.1,847.4,263.1z"/>
				
					<ellipse transform="matrix(0.7071 -0.7071 0.7071 0.7071 89.5593 626.7888)" class="st1" cx="801.4" cy="205.3" rx="2.2" ry="2.2"/>
				
					<ellipse transform="matrix(0.7071 -0.7071 0.7071 0.7071 107.4883 670.0648)" class="st1" cx="862.6" cy="205.3" rx="2.2" ry="2.2"/>
				
					<ellipse transform="matrix(0.7071 -0.7071 0.7071 0.7071 46.2831 644.7176)" class="st1" cx="801.4" cy="266.5" rx="2.2" ry="2.2"/>
				
					<ellipse transform="matrix(0.7071 -0.7071 0.7071 0.7071 64.212 687.9938)" class="st1" cx="862.6" cy="266.5" rx="2.2" ry="2.2"/>
			</g>
			<g>
				<g>
					<polyline class="st1" points="794.7,202.3 783.8,202.3 783.8,247.5 794.7,247.5 					"/>
					<rect x="773.9" y="228.6" class="st1" width="9.9" height="9.9"/>
					<rect x="773.9" y="210.6" class="st1" width="9.9" height="9.9"/>
				</g>
			</g>
			<path class="st1" d="M583.7,242.8c13.3,19.1,55.3,37.8,80.6,33.9c21-3.2,36.6-21.1,54.8-31.9c16.5-9.8,36-14.4,54.6-11.4"/>
			<path class="st1" d="M583.7,250.6c17.9,19.9,44.5,45,74.7,44c16.8-0.5,32.5-9.2,45.1-20.3c12.6-11.2,22.6-24.8,33.4-37.8
				c5.3-6.4,11-12.8,18.2-17c5.5-3.2,12.2-5,18.4-4.2"/>
		</g>
	</g>
	<g>
		<path class="st0" d="M584.4,367.6c-0.2,0-0.5,0.1-0.7,0.1v-19.1V31.4V1h-30.4H1l0.3,94.2h327.1L328.3,379h225h30.4v-11.3
			L584.4,367.6z"/>
		<g>
			<line class="st1" x1="357.9" y1="21.1" x2="357.9" y2="317.6"/>
			<line class="st1" x1="431.1" y1="21.1" x2="431.1" y2="317.6"/>
			<line class="st1" x1="460.7" y1="21.1" x2="460.7" y2="317.6"/>
			<polyline class="st1" points="1,1 583.7,1 583.7,379 2.1,379 			"/>
			<polyline class="st1" points="1.8,21.1 563.7,21.1 563.7,317.6 328.3,317.6 			"/>
			<polyline class="st1" points="553.3,21.1 553.3,1 583.7,1 583.7,31.4 563.7,31.4 			"/>
			<rect x="553.3" y="348.6" class="st1" width="30.4" height="30.4"/>
			<polyline class="st1" points="483.3,379 483.3,348.6 328.3,348.6 			"/>
			<line class="st1" x1="563.7" y1="243.5" x2="328.3" y2="243.5"/>
			<line class="st1" x1="563.7" y1="169.4" x2="328.3" y2="169.4"/>
			<line class="st1" x1="563.7" y1="95.2" x2="1.8" y2="95.2"/>
			<line class="st1" x1="394.7" y1="21.1" x2="394.7" y2="317.6"/>
			<g>
				<line class="st1" x1="431.1" y1="243.5" x2="431.1" y2="317.6"/>
				<line class="st1" x1="460.7" y1="243.5" x2="460.7" y2="317.6"/>
				<g>
					<line class="st1" x1="357.9" y1="243.5" x2="357.9" y2="317.6"/>
				</g>
			</g>
			<g>
				<line class="st1" x1="431.1" y1="21.1" x2="431.1" y2="95.2"/>
				<line class="st1" x1="460.7" y1="21.1" x2="460.7" y2="95.2"/>
				<g>
					<line class="st1" x1="357.9" y1="21.1" x2="357.9" y2="95.2"/>
				</g>
			</g>
			<path class="st2" d="M553.8,8.8c9.7-1.4,19.5-1.8,29.3-1.3"/>
			<path class="st2" d="M553.2,14.6c9.8,0.1,19.6,0.2,29.3,0.3"/>
			<path class="st2" d="M553.2,357.1c6.1-2.6,12.1-5.2,18.1-7.9"/>
			<path class="st2" d="M554,369.2c9.3-3.7,19.1-6,29-7"/>
			<path class="st2" d="M553.4,372.5c1.7-0.9,3.6-1.2,5.5-1.5c8.5-1.1,17-2.3,25.5-3.4"/>
			<path class="st2" d="M557.4,378.7c8.6-2,17.3-3.7,26.1-5.2"/>
			<path class="st2" d="M333,349.4c12.3,2.3,24.3,6.4,36.2,10.4c18.1,6.1,36.2,12.2,54.3,18.4"/>
			<path class="st2" d="M352.2,348.1c31.4,11.6,63.3,21.6,95.6,30.2"/>
			<path class="st2" d="M378.6,348.3c17.2,4.1,34.4,8.2,51.5,12.3c2.2,0.5,4.4,1.1,5.9,2.8c1.1,1.2,1.6,2.8,2.7,4.1
				c3.1,3.5,8.6,2.1,13.1,2.9c2.9,0.5,5.5,1.9,8.3,3c7.1,2.7,15.2,2.6,22.2-0.3"/>
			<path class="st2" d="M418.1,348.1c13.4,3.6,26.8,7.3,40.2,10.9c7.2,2,14.6,3.9,22,3.5c0.9-0.1,2.2,0.1,2.3,1.1"/>
			<path class="st2" d="M452.1,348.3c9.8,4.2,20.3,7.2,30.9,8.7"/>
			<path class="st2" d="M340.1,317.4c24.8,10.5,52.4,11.6,79.3,12.5c35.4,1.2,70.9,2.5,106.3,3.7c19,0.7,38,1.3,56.9-0.4"/>
			<line class="st2" x1="571.1" y1="31.4" x2="571.1" y2="333.7"/>
			<line class="st2" x1="553.1" y1="12.7" x2="1.8" y2="12.7"/>
			<line class="st2" x1="542.6" y1="21.1" x2="542.6" y2="317.6"/>
			<line class="st2" x1="437.6" y1="21.1" x2="437.6" y2="318.7"/>
			<line class="st2" x1="465.2" y1="20.8" x2="465.2" y2="316.2"/>
			<path class="st2" d="M397.2,20.8c0,0.2,0,0.4,0,0.7v294.7"/>
			<line class="st1" x1="328.3" y1="1.1" x2="328.3" y2="379.2"/>
			<line class="st1" x1="1" y1="1" x2="1" y2="95.2"/>
		</g>
		<g>
			<path class="st1" d="M1.8,37.7C36.2,54.2,76.3,55,114.7,53.3c30.9-1.4,61.9-4.2,91.5-13.2c25.5-7.8,50-20.5,69-39.1"/>
			<path class="st1" d="M1.7,14.9c38.8,21.8,80.5,39.1,124.5,46c47.1,7.4,97,2.2,138.9-20.4C282.6,31.1,299,18,308.8,1"/>
			<g>
				<g>
					<polygon class="st0" points="338.1,50.6 334.1,50.6 334.1,34.7 332.1,34.7 332.1,30.6 322.5,30.6 322.5,34.7 316.3,34.7 
						316.3,30.6 306.7,30.6 306.7,34.7 304.7,34.7 304.7,50.6 300.7,50.6 300.7,59.2 322.9,59.2 338.1,59.2 					"/>
					<path class="st0" d="M321.8,59.2h-21.1v10c0,10.3,8.4,18.7,18.7,18.7s18.7-8.4,18.7-18.7v-10h-15.2l0,0L321.8,59.2z"/>
				</g>
				<g>
					<path class="st1" d="M300.7,59.2v10c0,10.3,8.4,18.7,18.7,18.7l0,0c10.3,0,18.7-8.4,18.7-18.7v-10"/>
					<rect x="300.7" y="50.5" class="st1" width="37.4" height="8.7"/>
					<path class="st1" d="M315.9,59.2V74c0,2,1.6,3.5,3.5,3.5l0,0c2,0,3.5-1.6,3.5-3.5V59.2"/>
					<rect x="304.7" y="34.7" class="st1" width="29.5" height="15.8"/>
					<rect x="306.8" y="30.6" class="st1" width="9.6" height="4.1"/>
					<rect x="322.5" y="30.7" class="st1" width="9.6" height="4.1"/>
				</g>
				<path class="st1" d="M327.7,30.6c-0.2-9.9-0.2-19.8,0.1-29.6"/>
				<path class="st1" d="M312.5,1c0.2,9.9,0.1,19.8-0.1,29.6"/>
				<line class="st1" x1="328.3" y1="36.2" x2="328.3" y2="50.6"/>
				<line class="st1" x1="319.8" y1="36.2" x2="319.8" y2="49.3"/>
				<line class="st1" x1="324.3" y1="50.6" x2="324.3" y2="59.2"/>
				<line class="st1" x1="330.3" y1="50.7" x2="330.3" y2="58.7"/>
				<line class="st1" x1="309.3" y1="51.2" x2="309.3" y2="59.2"/>
			</g>
		</g>
	</g>
</g>
</svg>
