<?xml version="1.0" encoding="utf-8"?>
<!-- Generator: Adobe Illustrator 20.1.0, SVG Export Plug-In . SVG Version: 6.00 Build 0)  -->
<svg version="1.1" id="Слой_1" xmlns="http://www.w3.org/2000/svg" xmlns:xlink="http://www.w3.org/1999/xlink" x="0px" y="0px"
	 viewBox="0 0 325.8 285.3" style="enable-background:new 0 0 325.8 285.3;" xml:space="preserve">
<style type="text/css">
	.st0{fill:#F4E1A1;}
	.st1{fill:none;stroke:#817957;stroke-width:2;stroke-linecap:round;stroke-linejoin:round;stroke-miterlimit:10;}
</style>
<g id="_x30_5">
	<g>
		<g>
			
				<rect x="119.2" y="78.7" transform="matrix(5.142446e-11 1 -1 5.142446e-11 403.5524 -118.224)" class="st0" width="283.3" height="127.9"/>
			
				<rect x="119.2" y="78.7" transform="matrix(5.142446e-11 1 -1 5.142446e-11 403.5524 -118.224)" class="st1" width="283.3" height="127.9"/>
			<g>
				<g>
					<circle class="st1" cx="285.1" cy="97.8" r="10.8"/>
					<circle class="st1" cx="285.1" cy="97.8" r="6.9"/>
				</g>
				<g>
					<circle class="st1" cx="285.1" cy="43.8" r="10.8"/>
					<circle class="st1" cx="285.1" cy="43.8" r="6.9"/>
				</g>
				<g>
					<circle class="st1" cx="285.1" cy="70.8" r="10.8"/>
					<circle class="st1" cx="285.1" cy="70.8" r="6.9"/>
				</g>
			</g>
			<g>
				<g>
					<circle class="st1" cx="237.9" cy="97.8" r="10.8"/>
					<circle class="st1" cx="237.9" cy="97.8" r="6.9"/>
				</g>
				<g>
					<circle class="st1" cx="237.9" cy="43.8" r="10.8"/>
					<circle class="st1" cx="237.9" cy="43.8" r="6.9"/>
				</g>
				<g>
					<circle class="st1" cx="237.9" cy="70.8" r="10.8"/>
					<circle class="st1" cx="237.9" cy="70.8" r="6.9"/>
				</g>
			</g>
			<g>
				
					<rect x="200.8" y="189.3" transform="matrix(4.487503e-11 1 -1 4.487503e-11 485.157 -31.6987)" class="st1" width="115.2" height="74.9"/>
				<g>
					<line class="st1" x1="278.1" y1="182.1" x2="278.1" y2="231.1"/>
					<line class="st1" x1="272.5" y1="182.1" x2="272.5" y2="231.1"/>
					<line class="st1" x1="266.9" y1="182.1" x2="266.9" y2="231.1"/>
					<line class="st1" x1="261.2" y1="182.1" x2="261.2" y2="231.1"/>
					<line class="st1" x1="255.6" y1="182.1" x2="255.6" y2="231.1"/>
					<line class="st1" x1="250" y1="182.1" x2="250" y2="231.1"/>
					<line class="st1" x1="244.4" y1="182.1" x2="244.4" y2="231.1"/>
					<line class="st1" x1="238.7" y1="182.1" x2="238.7" y2="231.1"/>
				</g>
				
					<ellipse transform="matrix(0.7071 -0.7071 0.7071 0.7071 -39.7883 255.9151)" class="st1" cx="289" cy="176" rx="2.2" ry="2.2"/>
				
					<ellipse transform="matrix(0.7071 -0.7071 0.7071 0.7071 -57.7103 212.6475)" class="st1" cx="227.8" cy="176" rx="2.2" ry="2.2"/>
			</g>
			<line class="st1" x1="261.5" y1="1" x2="261.5" y2="169.1"/>
			<line class="st1" x1="295.9" y1="275.5" x2="222.9" y2="275.5"/>
			<line class="st1" x1="295.9" y1="272" x2="221.4" y2="272"/>
		</g>
	</g>
	<g>
		<g>
			<polygon class="st0" points="186,81.8 179,81.8 179,85.7 1,85.7 1,110.3 179,110.3 179,114.2 186,114.2 186,117.3 196.9,117.3 
				196.9,78.7 186,78.7 			"/>
			<path class="st0" d="M191.5,68.4c0,3,2.5,5.5,5.5,5.5V63C193.9,63,191.5,65.4,191.5,68.4z"/>
			<path class="st0" d="M191.5,127.6c0,3,2.5,5.5,5.5,5.5v-10.9C193.9,122.1,191.5,124.5,191.5,127.6z"/>
		</g>
		<g>
			
				<rect x="186" y="78.7" transform="matrix(-1 8.957134e-11 -8.957134e-11 -1 382.9283 195.9963)" class="st1" width="10.9" height="38.5"/>
			<path class="st1" d="M196.9,73.9c-3,0-5.5-2.5-5.5-5.5c0-3,2.5-5.5,5.5-5.5"/>
			<path class="st1" d="M196.9,133c-3,0-5.5-2.5-5.5-5.5c0-3,2.5-5.5,5.5-5.5"/>
		</g>
		<g>
			<g>
				<line class="st1" x1="8.2" y1="85.7" x2="8.2" y2="110.3"/>
			</g>
			
				<rect x="166.2" y="94.5" transform="matrix(4.505178e-11 1 -1 4.505178e-11 280.4791 -84.4828)" class="st1" width="32.5" height="7"/>
			<line class="st1" x1="1" y1="85.7" x2="179" y2="85.7"/>
			<line class="st1" x1="1" y1="110.3" x2="179" y2="110.3"/>
			<line class="st1" x1="1" y1="85.7" x2="1" y2="110.3"/>
		</g>
		<line class="st1" x1="179" y1="104.2" x2="8.2" y2="104.2"/>
		<line class="st1" x1="196.9" y1="63" x2="196.9" y2="133"/>
	</g>
	<g>
		<g>
			<polygon class="st0" points="186,187.1 179,187.1 179,191 1,191 1,215.6 179,215.6 179,219.5 186,219.5 186,222.6 196.9,222.6 
				196.9,184 186,184 			"/>
			<path class="st0" d="M191.5,173.7c0,3,2.5,5.5,5.5,5.5v-10.9C193.9,168.3,191.5,170.7,191.5,173.7z"/>
			<path class="st0" d="M191.5,232.9c0,3,2.5,5.5,5.5,5.5v-10.9C193.9,227.4,191.5,229.8,191.5,232.9z"/>
		</g>
		<g>
			
				<rect x="186" y="184" transform="matrix(-1 8.957134e-11 -8.957134e-11 -1 382.9283 406.5886)" class="st1" width="10.9" height="38.5"/>
			<path class="st1" d="M196.9,179.2c-3,0-5.5-2.5-5.5-5.5c0-3,2.5-5.5,5.5-5.5"/>
			<path class="st1" d="M196.9,238.3c-3,0-5.5-2.5-5.5-5.5s2.5-5.5,5.5-5.5"/>
		</g>
		<g>
			<g>
				<line class="st1" x1="8.2" y1="191" x2="8.2" y2="215.6"/>
			</g>
			
				<rect x="166.2" y="199.8" transform="matrix(4.499582e-11 1 -1 4.499582e-11 385.7752 20.8134)" class="st1" width="32.5" height="7"/>
			<line class="st1" x1="1" y1="191" x2="179" y2="191"/>
			<line class="st1" x1="1" y1="215.6" x2="179" y2="215.6"/>
			<line class="st1" x1="1" y1="191" x2="1" y2="215.6"/>
		</g>
		<line class="st1" x1="179" y1="209.5" x2="8.2" y2="209.5"/>
		<line class="st1" x1="196.9" y1="168.3" x2="196.9" y2="238.3"/>
	</g>
</g>
</svg>
