<?xml version="1.0" encoding="utf-8"?>
<!-- Generator: Adobe Illustrator 19.0.0, SVG Export Plug-In . SVG Version: 6.00 Build 0)  -->
<svg version="1.1" id="Слой_1" xmlns="http://www.w3.org/2000/svg" xmlns:xlink="http://www.w3.org/1999/xlink" x="0px" y="0px"
	 viewBox="0 -537 1920 3560" style="enable-background:new 0 -537 1920 3560;" xml:space="preserve">
<style type="text/css">
	.st0{fill:none;stroke:#DECD94;stroke-width:3;stroke-miterlimit:10;}
	.st1{fill:#DECD94;}
	.st2{fill:none;}
	.st3{fill:none;stroke:#F393BD;stroke-width:3;stroke-linecap:round;stroke-linejoin:round;stroke-miterlimit:10;}
</style>
<line id="XMLID_51_" class="st0" x1="395.7" y1="1808.4" x2="425.5" y2="1808.4"/>
<line id="XMLID_50_" class="st0" x1="400.4" y1="1835.4" x2="429.8" y2="1835.4"/>
<line id="XMLID_49_" class="st0" x1="561.4" y1="1467.9" x2="580.3" y2="1467.9"/>
<line id="XMLID_48_" class="st0" x1="559.9" y1="1503.9" x2="583.6" y2="1503.9"/>
<line id="XMLID_47_" class="st0" x1="449.9" y1="1586.4" x2="468.8" y2="1586.4"/>
<line id="XMLID_46_" class="st0" x1="448.4" y1="1577.4" x2="478.2" y2="1577.4"/>
<line id="XMLID_45_" class="st0" x1="282.7" y1="1249" x2="324.8" y2="1249"/>
<line id="XMLID_44_" class="st0" x1="281.1" y1="1259.5" x2="332.3" y2="1259.5"/>
<path id="XMLID_43_" class="st0" d="M588.5,1134.9c3.3,27.6,13.8,54.9,32.8,75.9c18.9,20.9,46.8,34.9,75.6,34.5
	c18.6-0.2,39.5-8.9,44.4-26.3"/>
<path id="XMLID_42_" class="st0" d="M123.8,1138.8c39.1,56.7,98,88.1,155.8,83"/>
<path id="XMLID_41_" class="st0" d="M324.6,1257.3c29.5-0.7,59.3-4.4,86.8-14.6c27.6-10.2,52.9-27.4,69.4-51.1
	c11.8-17,18.6-36.7,26.4-55.7"/>
<path id="XMLID_40_" class="st0" d="M436,1579.4c-56.2-0.4-107.7,89.9,39.6,133.4"/>
<path id="XMLID_39_" class="st0" d="M554.6,1255.5c-235.4,12-246.5,221.9-140.9,309.5c10.7,8.9,23.8,16.9,37.8,15.7"/>
<path id="XMLID_38_" class="st0" d="M115.8,1807.6c29.5,18.6,66.4,26,101,20.1s66.8-24.9,88-52.1c4.9-6.2,9.3-13.3,9.4-21.1"/>
<path id="XMLID_37_" class="st0" d="M149.4,1752.4c25.6,40.2,75.1,63.8,123.4,60.8c40.8-2.5,79.9-23.9,103.2-56.5"/>
<path id="XMLID_36_" class="st0" d="M624.2,1764.1c31.6,28.4,79.6,38.5,120.5,25.3c14-4.5,28.1-12.7,33-26.1"/>
<path id="XMLID_35_" class="st0" d="M114,2170.8c34,134,184.9,213.8,360,190.5c75.3-10.1,152-36.8,227.7-61.2"/>
<path id="XMLID_33_" class="st0" d="M84.2,1414.2c67.8,5.1,137.4-16.2,189.8-58.3"/>
<rect id="XMLID_32_" x="100" y="1865" class="st1" width="345.8" height="313.1"/>
<rect id="XMLID_31_" x="78.2" y="1847.9" class="st1" width="277.2" height="37.9"/>
<rect id="XMLID_30_" x="83.8" y="1388" class="st1" width="54" height="155.9"/>
<rect id="XMLID_29_" x="415.3" y="1902.8" class="st1" width="139.9" height="72.8"/>
<rect id="XMLID_28_" x="201.1" y="2146.9" class="st1" width="161.6" height="47.9"/>
<line id="XMLID_27_" class="st2" x1="120.1" y1="1107.5" x2="149.9" y2="1107.5"/>
<rect id="XMLID_26_" x="464.6" y="1570.3" class="st1" width="124.2" height="181.5"/>
<rect id="XMLID_25_" x="543.9" y="1116.3" class="st1" width="20" height="477.7"/>
<polyline id="XMLID_24_" class="st1" points="110.8,1073.7 110.8,1149.6 787.3,1149.6 787.3,1073.7 "/>
<line id="XMLID_23_" class="st2" x1="487" y1="1126.7" x2="450.5" y2="1126.7"/>
<line id="XMLID_22_" class="st2" x1="571.1" y1="1121.3" x2="548.7" y2="1121.3"/>
<rect id="XMLID_21_" x="259.4" y="1121.3" class="st1" width="28.4" height="630.6"/>
<polyline id="XMLID_20_" class="st1" points="281.9,2455.5 281.9,2170.8 298.1,2170.8 298.1,2455.5 "/>
<polyline id="XMLID_19_" class="st1" points="765.8,2304.3 81.5,2304.3 81.5,2288.3 765.8,2288.3 "/>
<rect id="XMLID_18_" x="387.1" y="1750.8" class="st1" width="19" height="184.2"/>
<rect id="XMLID_17_" x="308.9" y="1244.3" class="st1" width="26.4" height="24.6"/>
<rect id="XMLID_16_" x="431.3" y="1570.3" class="st1" width="21.8" height="23.7"/>
<rect id="XMLID_15_" x="576.8" y="1464.2" class="st1" width="12" height="50.4"/>
<rect id="XMLID_14_" x="422.3" y="1802.4" class="st1" width="10.8" height="38.3"/>
<polyline id="XMLID_11_" class="st1" points="787.3,1027.9 787.3,1230.5 699.7,1230.5 699.7,1027.9 787.3,1027.9 "/>
<rect id="XMLID_10_" x="552.1" y="1116.3" class="st1" width="92.7" height="44.9"/>
<rect id="XMLID_9_" x="588.8" y="1751.8" class="st1" width="92.6" height="29.6"/>
<rect id="XMLID_8_" x="748.6" y="1751.8" class="st1" width="38.7" height="31"/>
<line id="XMLID_7_" class="st2" x1="756" y1="1028.5" x2="756" y2="1107.5"/>
<rect id="XMLID_6_" x="576.8" y="1612.6" class="st1" width="20.6" height="85.3"/>
<polyline id="XMLID_5_" class="st1" points="1920,1741.3 0.3,1741.3 0.3,1760.3 1920,1760.3 "/>
<rect id="_x3C_Фрагмент_x3E__2_" x="701.7" y="2275.5" class="st2" width="9.3" height="9"/>
<polyline id="_x3C_Фрагмент_x3E__3_" class="st2" points="992.8,1774.5 983.5,1774.5 983.5,1729.5 992.8,1729.5 "/>
<line id="XMLID_3_" class="st3" x1="0" y1="3189.4" x2="0" y2="1675"/>
<line id="XMLID_2_" class="st3" x1="0" y1="1675" x2="0" y2="-810.6"/>
<rect id="XMLID_1_" x="105.4" y="1794.3" class="st1" width="10.8" height="56.9"/>
</svg>
