<?xml version="1.0" encoding="utf-8"?>
<!-- Generator: Adobe Illustrator 19.0.0, SVG Export Plug-In . SVG Version: 6.00 Build 0)  -->
<svg version="1.1" id="Слой_1" xmlns="http://www.w3.org/2000/svg" xmlns:xlink="http://www.w3.org/1999/xlink" x="0px" y="0px"
	 viewBox="934 -1754 1920 3560" style="enable-background:new 934 -1754 1920 3560;" xml:space="preserve">
<style type="text/css">
	.st0{fill:none;stroke:#DECD94;stroke-width:3;stroke-miterlimit:10;}
	.st1{fill:none;}
	.st2{fill:#DECD94;}
	.st3{fill:none;stroke:#F393BD;stroke-width:3;stroke-linecap:round;stroke-linejoin:round;stroke-miterlimit:10;}
</style>
<g>
	<path id="XMLID_150_" class="st0" d="M2617.7,1287"/>
	<path id="XMLID_149_" class="st0" d="M2620.9,1309.3"/>
	<path id="XMLID_146_" class="st0" d="M2599.1,1390.2"/>
	<line id="XMLID_137_" class="st1" x1="2540.9" y1="1221.5" x2="2540.9" y2="1191.3"/>
	<g>
		<line id="XMLID_163_" class="st0" x1="2051" y1="1384.8" x2="2051" y2="1408.8"/>
		<line id="XMLID_162_" class="st0" x1="2108" y1="1384.8" x2="2108" y2="1410.5"/>
		<line id="XMLID_161_" class="st0" x1="2225" y1="1383.3" x2="2225" y2="1407.4"/>
		<line id="XMLID_160_" class="st0" x1="2312" y1="1383.3" x2="2312" y2="1411.9"/>
		<line id="XMLID_159_" class="st0" x1="2050.5" y1="1394.7" x2="2108.5" y2="1394.7"/>
		<line id="XMLID_158_" class="st0" x1="2224.5" y1="1396.1" x2="2311.2" y2="1396.1"/>
		<path id="XMLID_157_" class="st0" d="M945,1107.5c140.2,88.8,288,152.9,404.6,156.4"/>
		<path id="XMLID_156_" class="st0" d="M939.6,1095.8c169.6,124.7,242.9-23.9,421.9,40.8"/>
		<path id="XMLID_155_" class="st0" d="M1744.8,829c9.5,29.2,33.4,48.2,59,57.1c21.9,7.6,45.1,8.6,67.9,8.8
			c23.8,0.1,47.8-0.5,70.8-7.1c27.3-7.8,53.5-24.4,68.3-52.4"/>
		<path id="XMLID_154_" class="st0" d="M1700.7,836.6c18.8,66.9,72.9,102.1,125.8,112.5c24.2,4.9,49,5.5,73.2,0.5
			c53.1-10.8,102.5-49.6,134.3-105.9"/>
		<path id="XMLID_153_" class="st0" d="M2241.8,867.1"/>
		<path id="XMLID_151_" class="st0" d="M2240.5,867.4"/>
		<path id="XMLID_148_" class="st0" d="M2083.7,1410.5c5.8,8.5,15.7,12.9,25.5,16.1c45.9,14.8,98.3,7.8,138.8-18.5"/>
		<path id="XMLID_147_" class="st0" d="M1911.1,1477.6c19.1,2.8,38.8,2.1,57.7-2.1c13.5-3,26.5-7.7,39.3-13
			c13.3-5.5,26.5-11.9,37.5-21.1c11.1-9.2,20-21.7,22.6-35.8"/>
		<path id="XMLID_145_" class="st2" d="M2315.4,1047.3"/>
		<rect id="XMLID_144_" x="1977.2" y="964.1" class="st2" width="195.1" height="92"/>
		<rect id="XMLID_142_" x="2006.5" y="829" class="st2" width="49.3" height="157.1"/>
		<line id="XMLID_141_" class="st1" x1="2333.1" y1="1047.3" x2="2301.5" y2="1047.3"/>
		<rect id="XMLID_140_" x="1761.8" y="1304.2" class="st2" width="85" height="498.8"/>
		<rect id="XMLID_139_" x="1896.3" y="1240.7" class="st2" width="15" height="567.3"/>
		<line id="XMLID_138_" class="st1" x1="1625.2" y1="1391.1" x2="1625.2" y2="1335.2"/>
		<rect id="XMLID_136_" x="2038.3" y="1404.3" class="st2" width="81.1" height="10.8"/>
		<rect id="XMLID_135_" x="2214.5" y="1404.3" class="st2" width="107.7" height="10.9"/>
		<rect id="XMLID_134_" x="1690.3" y="820.5" class="st2" width="20.8" height="204.1"/>
		<rect id="XMLID_133_" x="1815.7" y="829" class="st2" width="11" height="193.2"/>
		<rect id="XMLID_132_" x="1887.6" y="920.5" class="st2" width="40.1" height="89.7"/>
		<rect id="XMLID_131_" x="1916.6" y="940.5" class="st2" width="109.9" height="8.9"/>
		<rect id="XMLID_130_" x="1336.2" y="994.7" class="st2" width="1120.3" height="385.8"/>
		<line id="XMLID_129_" class="st3" x1="2595.7" y1="1802.9" x2="1195.7" y2="1802.9"/>
		<line id="XMLID_128_" class="st3" x1="2055.7" y1="1802.9" x2="1735.7" y2="1802.9"/>
		<rect id="XMLID_192_" x="2793.5" y="1671.3" class="st2" width="60.5" height="118.3"/>
		<rect id="XMLID_191_" x="2753.3" y="1730.5" class="st2" width="100.7" height="77.3"/>
		<rect id="XMLID_190_" x="2522.5" y="1730.5" class="st2" width="153.2" height="77.2"/>
		<rect id="XMLID_219_" x="937.4" y="1465" class="st2" width="286" height="343"/>
		<rect id="XMLID_218_" x="934" y="1282.4" class="st2" width="259.3" height="83.4"/>
		<rect id="XMLID_217_" x="1080.4" y="994.7" class="st2" width="89.4" height="309.5"/>
		<line id="XMLID_215_" class="st1" x1="1015.2" y1="1224.1" x2="837.6" y2="1224.1"/>
		<line id="XMLID_53_" class="st1" x1="919.1" y1="1104.2" x2="895.7" y2="1104.2"/>
		<rect id="XMLID_1_" x="1607.7" y="810.5" class="st2" width="564.6" height="30.3"/>
	</g>
	<rect x="1184.4" y="1791.1" class="st2" width="1613.4" height="16.9"/>
	<rect x="937.3" y="1129.4" class="st2" width="177.6" height="24.7"/>
	<rect x="937.3" y="1237.1" class="st2" width="177.6" height="24.7"/>
	<line class="st1" x1="1018.8" y1="1112.2" x2="995.4" y2="1112.2"/>
	<line class="st1" x1="1018.8" y1="1025.3" x2="1018.8" y2="1076.1"/>
	<line class="st0" x1="1014.4" y1="1029.5" x2="1014.4" y2="1091"/>
	<rect x="1002.7" y="1000" class="st2" width="23.4" height="50.8"/>
	<path class="st2" d="M1014.4,1137.6L1014.4,1137.6c-6.5,0-11.7-5.2-11.7-11.7v-27.4c0-6.5,5.2-11.7,11.7-11.7l0,0
		c6.5,0,11.7,5.2,11.7,11.7v27.4C1026.1,1132.3,1020.9,1137.6,1014.4,1137.6z"/>
</g>
</svg>
