<?xml version="1.0" encoding="utf-8"?>
<!-- Generator: Adobe Illustrator 19.0.0, SVG Export Plug-In . SVG Version: 6.00 Build 0)  -->
<svg version="1.1" id="Слой_1" xmlns="http://www.w3.org/2000/svg" xmlns:xlink="http://www.w3.org/1999/xlink" x="0px" y="0px"
	 viewBox="0 221 1920 3560" style="enable-background:new 0 221 1920 3560;" xml:space="preserve">
<style type="text/css">
	.st0{fill:none;stroke:#DECD94;stroke-width:3;stroke-miterlimit:10;}
	.st1{fill:#DECD94;}
	.st2{fill:#817957;}
	.st3{fill:none;}
</style>
<path id="XMLID_38_" class="st0" d="M1653.4,306.6c-3.5,18-7,36.1-10.4,54.1c-5.9,30.7-11.9,62-7.9,93c1.4,11.2,4.2,22.4,10.4,31.8
	c6.2,9.4,16.1,16.9,27.3,18c17,1.7,33.7-13.7,33.3-30.8"/>
<rect id="XMLID_37_" x="1691.3" y="237.6" class="st1" width="163.5" height="196.7"/>
<rect id="XMLID_36_" x="1751.2" y="371.6" class="st1" width="82.4" height="120.3"/>
<rect id="XMLID_35_" x="1347.7" y="457.9" class="st1" width="464.4" height="5.2"/>
<rect id="XMLID_34_" x="1683.7" y="460.5" class="st1" width="43.9" height="22.5"/>
<rect id="XMLID_33_" y="216" class="st1" width="1920" height="26.9"/>
<rect id="XMLID_32_" x="1622" y="232.6" class="st1" width="113.4" height="67.2"/>
<rect id="XMLID_31_" x="1643.2" y="295.7" class="st1" width="19.5" height="20.3"/>
<rect id="XMLID_30_" x="773.3" y="233.4" class="st1" width="266.9" height="23.2"/>
<rect id="XMLID_29_" x="260.3" y="233.4" class="st1" width="77.4" height="23.2"/>
<rect id="XMLID_28_" x="972.4" y="251.7" class="st1" width="30.2" height="20"/>
<path id="XMLID_92_" class="st2" d="M5960,2702.8V221h-130.4v34h-6.9v28.2h6.9V334h-21.5v214.3h21.5v217.4h-14.8v162.5h14.8V1519
	h-14.8v42.6h-26.1v107.6h26.1v79.5h14.8v280.6H5814v155.9h15.6v159.5H5814v213.7h15.6v143.3
	C5873.4,2701.6,5916.3,2703.4,5960,2702.8z"/>
<path id="XMLID_178_" class="st1" d="M2150.4,3881H2020v105.6c43.8,0,86.7,0,130.4,0V3881z"/>
<path id="XMLID_195_" class="st1" d="M2075.2,7147.5v-94.2h75.2V3986.6c-43.7,0-86.6,0-130.4,0V7437c35,0.2,70,0.8,105-0.1v-3
	c8.5-0.5,17-0.7,25.4-0.7v-285.7L2075.2,7147.5z"/>
<path id="XMLID_209_" class="st1" d="M3809.6,3881v3540.8c43.5-0.3,87,0.5,130.4,0.5V3881H3809.6z"/>
<rect id="XMLID_175_" x="2107.7" y="4292" class="st1" width="221.8" height="186.3"/>
<rect id="XMLID_174_" x="2307.7" y="4395.6" class="st1" width="247" height="45.5"/>
<rect id="XMLID_173_" x="2266.1" y="4046.4" class="st1" width="1120.3" height="363.9"/>
<rect id="_x3C_Фрагмент_x3E_" x="3786" y="7434" class="st3" width="6" height="7"/>
<path id="XMLID_231_" class="st0" d="M2049.3,4104.6c61.5-11.9,127.8,3.3,177.9,40.8c21.7,16.2,41.7,40,39.2,66.9"/>
<rect id="XMLID_230_" x="2053.8" y="4084.7" class="st1" width="13.2" height="28.2"/>
<rect id="XMLID_229_" x="2245.5" y="4201.9" class="st1" width="106.7" height="28.5"/>
<rect id="XMLID_233_" x="2160.8" y="3900.8" class="st1" width="13.2" height="28.2"/>
<rect id="XMLID_232_" x="2352.5" y="4017.9" class="st1" width="106.7" height="28.5"/>
<path id="XMLID_237_" class="st0" d="M2147.4,3919.6c61.5-11.9,127.8,3.3,177.9,40.8c21.7,16.2,41.7,40,39.2,66.9"/>
<rect id="XMLID_236_" x="2141.5" y="3900.8" class="st1" width="23.6" height="28.2"/>
<rect id="XMLID_235_" x="2343.6" y="4017.9" class="st1" width="106.7" height="35.2"/>
</svg>
