<?xml version="1.0" encoding="utf-8"?>
<!-- Generator: Adobe Illustrator 19.0.0, SVG Export Plug-In . SVG Version: 6.00 Build 0)  -->
<svg version="1.1" id="Слой_1" xmlns="http://www.w3.org/2000/svg" xmlns:xlink="http://www.w3.org/1999/xlink" x="0px" y="0px"
	 viewBox="0 221 1920 3560" style="enable-background:new 0 221 1920 3560;" xml:space="preserve">
<style type="text/css">
	.st0{fill:#817957;}
	.st1{fill:none;}
	.st2{fill:none;stroke:#DECD94;stroke-width:3;stroke-miterlimit:10;}
	.st3{fill:#DECD94;}
</style>
<path id="XMLID_92_" class="st0" d="M5955.5-1285.2V-3767h-130.4v34h-6.9v28.2h6.9v50.8h-21.5v214.3h21.5v217.4h-14.8v162.5h14.8
	v590.8h-14.8v42.6h-26.1v107.6h26.1v79.5h14.8v280.6h-15.6v155.9h15.6v159.5h-15.6v213.7h15.6v143.3
	C5868.9-1286.4,5911.8-1284.6,5955.5-1285.2z"/>
<line id="XMLID_273_" class="st1" x1="5014.6" y1="1470.1" x2="5014.6" y2="1684.3"/>
<line id="XMLID_495_" class="st2" x1="513.9" y1="1535.4" x2="537.7" y2="1535.4"/>
<line id="XMLID_456_" class="st2" x1="515.9" y1="1544.4" x2="536.6" y2="1544.4"/>
<line id="XMLID_455_" class="st2" x1="514.9" y1="1557.4" x2="539.3" y2="1557.4"/>
<line id="XMLID_454_" class="st2" x1="516.9" y1="1570.4" x2="539.7" y2="1570.4"/>
<line id="XMLID_453_" class="st2" x1="512.9" y1="1584.4" x2="537.9" y2="1584.4"/>
<line id="XMLID_452_" class="st2" x1="218.9" y1="1316.4" x2="247.1" y2="1316.4"/>
<line id="XMLID_451_" class="st2" x1="222.9" y1="1357.4" x2="256" y2="1357.4"/>
<line id="XMLID_450_" class="st2" x1="238.9" y1="1317.4" x2="238.9" y2="1358.5"/>
<path id="XMLID_449_" class="st2" d="M257.3,723.5c4.4,21.8,16.7,38.7,31,49.1c14.3,10.4,30.8,14.9,47.1,18.1
	c16.7,3.3,34.3,5.2,50.8-2.5c11.4-5.3,21.7-14.7,31.9-24.1c12.1-11.2,24.2-22.3,36.3-33.5"/>
<path id="XMLID_448_" class="st2" d="M313.8,734.4c25.1,52.2,64.4,95.7,112,116s103.5,15.8,145.6-17.4c34.2-27,57-69.3,78.8-110.5"
	/>
<path id="XMLID_447_" class="st2" d="M592.5,875.9c41.4,3.8,83.1-2.8,123.2-13.6c19.4-5.2,38.6-11.5,55.8-21.9
	c17.1-10.4,32.1-25.3,39.6-43.8"/>
<path id="XMLID_446_" class="st2" d="M595.5,897.2c84.7,8.7,172.7-23.4,231.9-84.7"/>
<path id="XMLID_445_" class="st2" d="M123,860.7c88.3,10.4,179.8-39.6,232.8-127.5"/>
<path id="XMLID_444_" class="st2" d="M135.1,888c90.3-1.2,179.3-42.7,238.3-111.1"/>
<path id="XMLID_443_" class="st2" d="M590.9,830.5c-0.3,0.9-1.8-0.1-1.4-0.9c0.4-0.8,1.5-1,2.4-1c45.8-1,91.2-16.5,128.1-43.7"/>
<path id="XMLID_442_" class="st2" d="M595.4,771.3c39.5,10.7,82,10.5,121.4-0.7c1.7-0.5,3.6-2.8,2-3.5"/>
<path id="XMLID_441_" class="st2" d="M592.5,825.2c45.1,19,98,18.8,142.9-0.5"/>
<path id="XMLID_440_" class="st2" d="M66.8,1102.6c47.8,61.3,131.9,96.3,215.7,96c89.4-0.3,177.2-39.8,230.6-102.5"/>
<path id="XMLID_439_" class="st2" d="M66.8,1138.2c26,47.4,83.5,76.2,139.9,74.9c74.6-1.7,144.4-52,170.8-117.2"/>
<path id="XMLID_438_" class="st2" d="M134.9,1595.8c118.8,15.6,245.5-30.2,319.4-130.3"/>
<path id="XMLID_437_" class="st2" d="M137.6,1543.7c104.5,32.7,222.6,21.9,317.6-36.3"/>
<path id="XMLID_436_" class="st2" d="M252.1,1332.9c29.6,5.5,53.3,31.6,83.3,32.7c34.7,1.4,65.3-31.3,99.6-25.8
	c0.5,1.4,1,2.8,1.5,4.3"/>
<path id="XMLID_435_" class="st2" d="M252,1346.8c21.2,2.9,37.5,19.2,54.6,32.1s40.5,23.1,59.2,12.7c5.7-3.2,10.3-8,15.3-12.2
	c14.7-12.2,33.7-19.1,52.7-19.1c4.2,0,9.9,2.3,8.6,6.3"/>
<path id="XMLID_434_" class="st2" d="M464,1541.6c14,12.7,33.2,19.3,52.1,18"/>
<path id="XMLID_433_" class="st2" d="M456.2,1509c13.7,20.8,37.9,34.4,62.8,35.3"/>
<polyline id="XMLID_432_" class="st3" points="215.7,199.7 215.7,1459.9 184,1459.9 184,199.7 "/>
<rect id="XMLID_431_" x="38.7" y="1440.2" class="st3" width="194.7" height="25"/>
<polygon id="XMLID_430_" class="st3" points="835.7,1038.2 198.1,1038.2 198.1,1112.8 586.1,1112.8 586.1,1102.7 756.3,1102.7 
	756.3,1112.8 835.7,1112.8 "/>
<polyline id="XMLID_429_" class="st3" points="141.3,1754.6 141.3,1524.9 74,1524.9 74,1754.6 "/>
<rect id="XMLID_428_" x="134.7" y="1567.5" class="st3" width="38.9" height="107.6"/>
<rect id="XMLID_427_" x="203" y="1295.6" class="st3" width="24.9" height="87"/>
<rect id="XMLID_426_" x="207.5" y="868.2" class="st3" width="15" height="92"/>
<rect id="XMLID_425_" x="369.3" y="728.4" class="st3" width="26.3" height="342.2"/>
<rect id="XMLID_424_" x="461.9" y="727.3" class="st3" width="20" height="340.9"/>
<rect id="XMLID_423_" x="575.8" y="728.4" class="st3" width="33" height="353.2"/>
<rect id="XMLID_422_" x="506.9" y="727.3" class="st3" width="14.2" height="330.6"/>
<rect id="XMLID_421_" x="700.8" y="723.5" class="st3" width="130.1" height="134.9"/>
<rect id="XMLID_420_" x="98.5" y="339.9" class="st3" width="55.6" height="214.3"/>
<rect id="XMLID_419_" x="105.7" y="771.6" class="st3" width="41.8" height="162.5"/>
<rect id="XMLID_418_" x="198.1" y="485.2" class="st3" width="98.9" height="42.4"/>
<line id="XMLID_417_" class="st1" x1="764.8" y1="1720.8" x2="109.5" y2="1720.8"/>
<polyline id="XMLID_416_" class="st3" points="438.6,1854 438.6,1093.4 473.9,1093.4 473.9,1854 "/>
<polyline id="XMLID_415_" class="st3" points="533.7,1854 533.7,1093.4 555.4,1093.4 555.4,1854 "/>
<polyline id="XMLID_414_" class="st3" points="1205.1,1000.9 595.5,1000.9 595.5,982.6 1205.1,982.6 "/>
<polyline id="XMLID_413_" class="st3" points="1210.9,1066 787.4,1066 787.4,1045.3 1210.9,1045.3 "/>
<rect id="XMLID_412_" x="600.7" y="900.5" class="st3" width="19.5" height="74.4"/>
<rect id="XMLID_411_" x="744.4" y="826.4" class="st3" width="9.5" height="252.9"/>
<polyline id="XMLID_410_" class="st3" points="1206.6,1024.9 594.8,1024.9 594.8,1012.4 1206.6,1012.4 "/>
<rect id="XMLID_409_" x="243.9" y="1310.8" class="st3" width="12.1" height="56.6"/>
<rect id="XMLID_408_" x="507" y="1528.7" class="st3" width="13.4" height="64.4"/>
<polyline id="XMLID_407_" class="st3" points="222.5,271 222.5,387.8 200.9,387.8 200.9,271 "/>
<rect id="XMLID_406_" x="880.3" y="375.8" class="st3" width="39.6" height="16"/>
<rect id="XMLID_405_" x="948.1" y="378.2" class="st3" width="31.2" height="23.6"/>
<rect id="XMLID_404_" x="1048.5" y="370.1" class="st3" width="30.2" height="31.6"/>
<polyline id="XMLID_403_" class="st3" points="650.2,1202.2 650.2,1087.4 782.9,1087.4 782.9,1202.2 "/>
<rect id="XMLID_402_" x="428.4" y="1312.5" class="st3" width="18.1" height="66.1"/>
<line id="XMLID_607_" class="st2" x1="5787.7" y1="353.7" x2="5805.7" y2="353.7"/>
<line id="XMLID_606_" class="st2" x1="5786.4" y1="390.3" x2="5804.4" y2="390.3"/>
<line id="XMLID_605_" class="st2" x1="5787.7" y1="385" x2="5804.4" y2="385"/>
<line id="XMLID_604_" class="st2" x1="5719" y1="577" x2="5719" y2="605.7"/>
<line id="XMLID_603_" class="st2" x1="5751" y1="579.7" x2="5751" y2="606.3"/>
<line id="XMLID_602_" class="st2" x1="5745.7" y1="579" x2="5745.7" y2="605"/>
<line id="XMLID_601_" class="st2" x1="5464.4" y1="111.7" x2="5464.4" y2="125.7"/>
<line id="XMLID_600_" class="st2" x1="5495" y1="112.3" x2="5495" y2="125.7"/>
<line id="XMLID_599_" class="st2" x1="5769.7" y1="837.3" x2="5799.8" y2="837.3"/>
<line id="XMLID_598_" class="st2" x1="5768.7" y1="876.3" x2="5801.7" y2="876.3"/>
<line id="XMLID_597_" class="st2" x1="5770.7" y1="853.3" x2="5794.8" y2="853.3"/>
<line id="XMLID_596_" class="st2" x1="5769.7" y1="859.3" x2="5800.8" y2="859.3"/>
<line id="XMLID_595_" class="st2" x1="5493.7" y1="1075.3" x2="5530.9" y2="1075.3"/>
<line id="XMLID_594_" class="st2" x1="5496.7" y1="1080.3" x2="5527.3" y2="1080.3"/>
<line id="XMLID_593_" class="st2" x1="5496.7" y1="1106.3" x2="5529.8" y2="1106.3"/>
<line id="XMLID_592_" class="st2" x1="5499.7" y1="1100.3" x2="5527.7" y2="1100.3"/>
<line id="XMLID_591_" class="st2" x1="5770.7" y1="1414.3" x2="5800.7" y2="1414.3"/>
<line id="XMLID_590_" class="st2" x1="5771.7" y1="1431.3" x2="5798.7" y2="1431.3"/>
<line id="XMLID_589_" class="st2" x1="5382.7" y1="1558.3" x2="5382.7" y2="1591.4"/>
<line id="XMLID_588_" class="st2" x1="5415.7" y1="1557.3" x2="5415.7" y2="1589.4"/>
<line id="XMLID_587_" class="st2" x1="5409.7" y1="1559.3" x2="5409.7" y2="1595.3"/>
<path id="XMLID_586_" class="st2" d="M5374.7,243.8c129.8,88.5,305.1,105.7,449.6,44.2"/>
<path id="XMLID_585_" class="st2" d="M5360.3,232c60.5,61.9,142.1,102.4,227.8,113.9c27,3.7,54.4,4.5,81.7,5.1
	c55.5,1.3,115,0.6,160.6-31.1"/>
<path id="XMLID_584_" class="st2" d="M5402.6,379.5c53,11.3,108,13.9,161.8,7.5"/>
<path id="XMLID_583_" class="st2" d="M5403.6,393.3c51.4,27.2,115.1,29.9,168.7,7.2"/>
<path id="XMLID_582_" class="st2" d="M5646.1,119c1.4,11.2,4.2,22.4,10.4,31.8c6.2,9.4,16.1,16.9,27.3,18
	c17,1.7,33.7-13.7,33.3-30.8"/>
<path id="XMLID_581_" class="st2" d="M5664.4-28.1"/>
<path id="XMLID_580_" class="st2" d="M4754.9,860.7c15,30.8,40.6,56.8,72.1,70.2s68.9,13.5,99.6-1.7c35.2-17.4,60.3-55.3,57.8-95.1"
	/>
<path id="XMLID_579_" class="st2" d="M4780.9,862.7c0.2,4.1,4.9,6.3,8.9,7.3c9.5,2.4,19.4,3.5,29.2,3.4c11.1-0.2,22.3-2.1,32-7.4
	c6.9-3.7,12.8-9,18.6-14.2c6.9-6.2,13.8-12.3,20.7-18.5"/>
<path id="XMLID_578_" class="st2" d="M5105.2,837.1c0,11.2,7.9,20.9,16.9,27.5c16.6,12.1,38.4,16.9,58.5,12.8
	c20.2-4,38.4-16.8,49.1-34.4"/>
<path id="XMLID_577_" class="st2" d="M5484.5,1051.1c46.3,11.9,95.3,13,142.1,3.1c25-5.3,50.4-14.3,67.6-33.2"/>
<path id="XMLID_576_" class="st2" d="M5687.2,1022.9c19.8,14.4,43.6,22.5,67.8,26.1c24.2,3.6,48.8,2.8,73.2,0.7"/>
<path id="XMLID_575_" class="st2" d="M5488.3,886.7c44,37.4,103.4,53.9,161.1,52.6c57.7-1.3,114.1-19.3,166.1-44.4"/>
<path id="XMLID_574_" class="st2" d="M5258.4,791.6c11.4,2,23.5,4.1,34.4,0.1c12.8-4.7,21.4-16.6,32.8-24.1
	c33.9-22.3,94-3.7,76.5,80.8"/>
<path id="XMLID_573_" class="st2" d="M5742.8,606.1c-5.3,46.4,18.3,94.9,58.1,119.3c0.5,0.3,1.3,0.7,1.8,0.3s-0.3-1.4-0.6-0.8"/>
<path id="XMLID_572_" class="st2" d="M5728.6,607.5c-3.6,30.7-1,62.6,11.5,91c12.4,28.3,35.4,52.7,64.5,63.1"/>
<path id="XMLID_571_" class="st2" d="M5487,1022.6c58.6,44.5,134.8,65,207.8,55.9"/>
<path id="XMLID_570_" class="st2" d="M5424.8,1388.9c41.6-3,83.5-1,124.6,5.9c73.4,12.4,147.7,40.7,220.3,24.1"/>
<path id="XMLID_569_" class="st2" d="M5484.2,1426.4c42.8-3.1,81.1,18.4,122.3,25.2c35.7,5.8,73.7-0.1,104.3-19.3
	s52.9-52.3,56.2-88.3"/>
<path id="XMLID_568_" class="st2" d="M5238.4,1567.6c11.3,25.4,35.1,44.9,62.3,50.7c8.3,1.8,16.9,2.4,25.4,2.4
	c15.5,0.1,31.2-1.7,45.5-7.5s27.3-15.9,34.5-29.6"/>
<path id="XMLID_567_" class="st2" d="M5415.2,1593.5c16.9,20.2,45,27.4,71.3,27.6c46.6,0.3,91.1-17.8,135.5-32.2
	c44.4-14.4,92.9-25.1,137.1-10.3"/>
<path id="XMLID_566_" class="st2" d="M5270.3,653.3c19.3,5,40.5-4.7,52.5-20.6c12.1-15.9,16-36.7,14.9-56.6"/>
<path id="XMLID_565_" class="st2" d="M5102.2,413.3c7,41,44.2,71.4,84.2,74.6c2.2,0.2,4.6,0.3,6.5,1.5s3.2,3.7,2.2,5.7"/>
<path id="XMLID_564_" class="st2" d="M5152.6,669c1.8,21.2,2.1,42.9-3.5,63.5c-15,55-77.7,102.4-181.8-11.3"/>
<rect id="XMLID_563_" x="5728.7" y="1081.1" class="st3" width="148.4" height="273.2"/>
<rect id="XMLID_562_" x="5726.7" y="480.9" class="st3" width="149.2" height="59.9"/>
<rect id="XMLID_561_" x="5762.2" y="36.8" class="st3" width="82.4" height="120.3"/>
<rect id="XMLID_560_" x="5794.2" y="637.4" class="st3" width="64" height="314"/>
<rect id="XMLID_559_" x="5790.5" y="1286.4" class="st3" width="43.2" height="211.9"/>
<rect id="XMLID_558_" x="5656.7" y="1200.8" class="st3" width="81.7" height="98.9"/>
<polyline id="XMLID_557_" class="st3" points="5690.7,1701.8 5690.7,1264.3 5703.7,1264.3 5703.7,1701.8 "/>
<rect id="XMLID_556_" x="5747.5" y="1549.2" class="st3" width="80.6" height="59.5"/>
<polyline id="XMLID_555_" class="st3" points="5358.7,128.4 5358.7,123.1 5823.1,123.1 5823.1,128.4 "/>
<rect id="XMLID_554_" x="5784.6" y="694" class="st3" width="34.5" height="95.9"/>
<polyline id="XMLID_553_" class="st3" points="5477,1652.3 5477,837.3 5499.6,837.3 5499.6,1652.3 "/>
<rect id="XMLID_552_" x="5685.8" y="843.3" class="st3" width="18" height="387.9"/>
<rect id="XMLID_551_" x="5186.9" y="403.1" class="st3" width="32.7" height="442.4"/>
<rect id="XMLID_550_" x="5209.3" y="610.2" class="st3" width="72.1" height="233.1"/>
<rect id="XMLID_549_" x="5269.8" y="765" class="st3" width="17.8" height="46"/>
<rect id="XMLID_548_" x="5267.1" y="637.4" class="st3" width="20.4" height="78.7"/>
<rect id="XMLID_547_" x="5250.7" y="422.7" class="st3" width="16.4" height="214.6"/>
<rect id="XMLID_546_" x="5263.6" y="476" class="st3" width="555.5" height="7.3"/>
<rect id="XMLID_545_" x="5258.4" y="492.2" class="st3" width="488" height="8"/>
<rect id="XMLID_544_" x="5259.5" y="568.4" class="st3" width="574.2" height="16"/>
<line id="XMLID_543_" class="st1" x1="5213.8" y1="658.5" x2="5213.8" y2="676.7"/>
<line id="XMLID_542_" class="st1" x1="5219.6" y1="721.1" x2="5219.6" y2="741.9"/>
<rect id="XMLID_541_" x="4755.5" y="806.8" class="st3" width="480.1" height="38.7"/>
<line id="XMLID_540_" class="st1" x1="5215.3" y1="688.3" x2="5215.3" y2="700.8"/>
<rect id="XMLID_539_" x="5763.7" y="1407.2" class="st3" width="13.4" height="31.7"/>
<rect id="XMLID_538_" x="5373.7" y="1581.8" class="st3" width="49.8" height="14.8"/>
<rect id="XMLID_537_" x="5519.2" y="1071.9" class="st3" width="15.2" height="41.4"/>
<rect id="XMLID_536_" x="5763.7" y="832" class="st3" width="13.4" height="50.4"/>
<rect id="XMLID_535_" x="5714.4" y="600" class="st3" width="40.3" height="10.6"/>
<rect id="XMLID_534_" x="5784.6" y="348.8" class="st3" width="6" height="45.8"/>
<rect id="XMLID_307_" x="5777.1" y="180.8" class="st3" width="29.7" height="33"/>
<rect id="XMLID_306_" x="5362.4" y="180.8" class="st3" width="82.6" height="40.4"/>
<rect id="XMLID_305_" x="5422.6" y="125.7" class="st3" width="6.5" height="60.4"/>
<rect id="XMLID_304_" x="5458.4" y="106.3" class="st3" width="43.3" height="10.1"/>
<rect id="XMLID_303_" x="5590" y="191.6" class="st3" width="201.9" height="16.1"/>
<rect id="XMLID_302_" x="5370.1" y="371.7" class="st3" width="47.6" height="44.3"/>
<rect id="XMLID_301_" x="5558.4" y="371.7" class="st3" width="31.6" height="44.3"/>
<polyline id="XMLID_300_" class="st3" points="5654.2,-18.8 5654.2,-39.1 5673.7,-39.1 5673.7,-18.8 "/>
<rect id="XMLID_299_" x="5370.1" y="111.4" class="st3" width="22.6" height="25.6"/>
<rect id="XMLID_298_" x="5221.3" y="1554.6" class="st3" width="36" height="21.7"/>
<polyline id="XMLID_297_" class="st3" points="4743.2,1430.5 5302.7,1430.5 5302.7,1351.5 4743.2,1351.5 "/>
<rect id="XMLID_296_" x="5289.3" y="1371.9" class="st3" width="206.1" height="24.5"/>
<line id="XMLID_295_" class="st1" x1="4791.7" y1="878.1" x2="4659" y2="878.1"/>
<rect id="XMLID_294_" x="5174.7" y="832" class="st3" width="596" height="31.7"/>
<rect id="XMLID_293_" x="5171.7" y="1546.9" class="st3" width="525.5" height="12.4"/>
<rect id="XMLID_292_" x="5584.2" y="125.7" class="st3" width="20.8" height="352.4"/>
<rect id="XMLID_1_" x="38.7" y="1055.6" class="st3" width="41.8" height="162.5"/>
<rect id="XMLID_2_" x="211.9" y="722.5" class="st3" width="500" height="9.5"/>
</svg>
