<?xml version="1.0" encoding="utf-8"?>
<!-- Generator: Adobe Illustrator 19.0.0, SVG Export Plug-In . SVG Version: 6.00 Build 0)  -->
<svg version="1.1" id="Слой_1" xmlns="http://www.w3.org/2000/svg" xmlns:xlink="http://www.w3.org/1999/xlink" x="0px" y="0px"
	 viewBox="0 -1700 1920 3560" style="enable-background:new 0 -1700 1920 3560;" xml:space="preserve">
<style type="text/css">
	.st0{fill:none;stroke:#DECD94;stroke-width:3;stroke-miterlimit:10;}
	.st1{fill:none;}
	.st2{fill:#DECD94;}
	.st3{fill:none;stroke:#F393BD;stroke-width:3;stroke-linecap:round;stroke-linejoin:round;stroke-miterlimit:10;}
</style>
<g>
	<path id="XMLID_150_" class="st0" d="M1683.7,1339"/>
	<path id="XMLID_149_" class="st0" d="M1686.9,1361.3"/>
	<path id="XMLID_146_" class="st0" d="M1665.1,1442.2"/>
	<line id="XMLID_137_" class="st1" x1="1606.9" y1="1273.5" x2="1606.9" y2="1243.3"/>
	<g>
		<line id="XMLID_163_" class="st0" x1="1117" y1="1436.8" x2="1117" y2="1460.8"/>
		<line id="XMLID_162_" class="st0" x1="1174" y1="1436.8" x2="1174" y2="1462.5"/>
		<line id="XMLID_161_" class="st0" x1="1291" y1="1435.3" x2="1291" y2="1459.4"/>
		<line id="XMLID_160_" class="st0" x1="1378" y1="1435.3" x2="1378" y2="1463.9"/>
		<line id="XMLID_159_" class="st0" x1="1116.5" y1="1446.7" x2="1174.5" y2="1446.7"/>
		<line id="XMLID_158_" class="st0" x1="1290.5" y1="1448.1" x2="1377.2" y2="1448.1"/>
		<path id="XMLID_157_" class="st0" d="M11,1159.5c140.2,88.8,288,152.9,404.6,156.4"/>
		<path id="XMLID_156_" class="st0" d="M5.6,1147.8c169.6,124.7,242.9-23.9,421.9,40.8"/>
		<path id="XMLID_155_" class="st0" d="M810.8,881c9.5,29.2,33.4,48.2,59,57.1c21.9,7.6,45.1,8.6,67.9,8.8
			c23.8,0.1,47.8-0.5,70.8-7.1c27.3-7.8,53.5-24.4,68.3-52.4"/>
		<path id="XMLID_154_" class="st0" d="M766.7,888.6c18.8,66.9,72.9,102.1,125.8,112.5c24.2,4.9,49,5.5,73.2,0.5
			c53.1-10.8,102.5-49.6,134.3-105.9"/>
		<path id="XMLID_153_" class="st0" d="M1307.8,919.1"/>
		<path id="XMLID_151_" class="st0" d="M1306.5,919.4"/>
		<path id="XMLID_148_" class="st0" d="M1149.7,1462.5c5.8,8.5,15.7,12.9,25.5,16.1c45.9,14.8,98.3,7.8,138.8-18.5"/>
		<path id="XMLID_147_" class="st0" d="M977.1,1529.6c19.1,2.8,38.8,2.1,57.7-2.1c13.5-3,26.5-7.7,39.3-13
			c13.3-5.5,26.5-11.9,37.5-21.1c11.1-9.2,20-21.7,22.6-35.8"/>
		<path id="XMLID_145_" class="st2" d="M1381.4,1099.3"/>
		<rect id="XMLID_144_" x="1043.2" y="1016.1" class="st2" width="195.1" height="92"/>
		<rect id="XMLID_142_" x="1072.5" y="881" class="st2" width="49.3" height="157.1"/>
		<line id="XMLID_141_" class="st1" x1="1399.1" y1="1099.3" x2="1367.5" y2="1099.3"/>
		<rect id="XMLID_140_" x="827.8" y="1356.2" class="st2" width="85" height="498.8"/>
		<rect id="XMLID_139_" x="962.3" y="1292.7" class="st2" width="15" height="567.3"/>
		<line id="XMLID_138_" class="st1" x1="691.2" y1="1443.1" x2="691.2" y2="1387.2"/>
		<rect id="XMLID_136_" x="1104.3" y="1456.3" class="st2" width="81.1" height="10.8"/>
		<rect id="XMLID_135_" x="1280.5" y="1456.3" class="st2" width="107.7" height="10.9"/>
		<rect id="XMLID_134_" x="756.3" y="872.5" class="st2" width="20.8" height="204.1"/>
		<rect id="XMLID_133_" x="881.7" y="881" class="st2" width="11" height="193.2"/>
		<rect id="XMLID_132_" x="953.6" y="972.5" class="st2" width="40.1" height="89.7"/>
		<rect id="XMLID_131_" x="982.6" y="992.5" class="st2" width="109.9" height="8.9"/>
		<rect id="XMLID_130_" x="402.2" y="1046.7" class="st2" width="1120.3" height="385.8"/>
		<path id="XMLID_3_" class="st3" d="M261.7,1854.9"/>
		<path id="XMLID_2_" class="st3" d="M1661.7,1854.9"/>
		<path id="XMLID_5_" class="st3" d="M801.7,1854.9"/>
		<path id="XMLID_4_" class="st3" d="M1121.7,1854.9"/>
		<rect id="XMLID_192_" x="1859.5" y="1723.3" class="st2" width="60.5" height="118.3"/>
		<rect id="XMLID_191_" x="1819.3" y="1782.5" class="st2" width="100.7" height="77.3"/>
		<rect id="XMLID_190_" x="1588.5" y="1782.5" class="st2" width="153.2" height="77.2"/>
		<rect id="XMLID_219_" x="3.4" y="1517" class="st2" width="286" height="343"/>
		<rect id="XMLID_218_" y="1334.4" class="st2" width="259.3" height="83.4"/>
		<rect id="XMLID_217_" x="146.4" y="1046.7" class="st2" width="89.4" height="309.5"/>
		<line id="XMLID_215_" class="st1" x1="81.2" y1="1276.1" x2="-96.4" y2="1276.1"/>
		<line id="XMLID_53_" class="st1" x1="-14.9" y1="1156.2" x2="-38.3" y2="1156.2"/>
		<rect id="XMLID_1_" x="673.7" y="862.5" class="st2" width="564.6" height="30.3"/>
	</g>
	<path class="st2" d="M973.1,1848.1c-1.5-1.1-2.1-3.1-1.8-5H250.4v16.9h722.7C971.5,1856.2,971.4,1851.9,973.1,1848.1z"/>
	<rect x="3.3" y="1181.4" class="st2" width="177.6" height="24.7"/>
	<rect x="3.3" y="1289.1" class="st2" width="177.6" height="24.7"/>
	<line class="st1" x1="84.8" y1="1164.2" x2="61.4" y2="1164.2"/>
	<line class="st1" x1="84.8" y1="1077.3" x2="84.8" y2="1128.1"/>
	<line class="st0" x1="80.4" y1="1081.5" x2="80.4" y2="1143"/>
	<rect x="68.7" y="1052" class="st2" width="23.4" height="50.8"/>
	<path class="st2" d="M80.4,1189.6L80.4,1189.6c-6.5,0-11.7-5.2-11.7-11.7v-27.4c0-6.5,5.2-11.7,11.7-11.7l0,0
		c6.5,0,11.7,5.2,11.7,11.7v27.4C92.1,1184.3,86.9,1189.6,80.4,1189.6z"/>
</g>
</svg>
