<?xml version="1.0" encoding="utf-8"?>
<!-- Generator: Adobe Illustrator 19.0.0, SVG Export Plug-In . SVG Version: 6.00 Build 0)  -->
<svg version="1.1" id="Слой_1" xmlns="http://www.w3.org/2000/svg" xmlns:xlink="http://www.w3.org/1999/xlink" x="0px" y="0px"
	 viewBox="0 221 1920 3560" style="enable-background:new 0 221 1920 3560;" xml:space="preserve">
<style type="text/css">
	.st0{fill:none;stroke:#DECD94;stroke-width:3;stroke-miterlimit:10;}
	.st1{fill:#DECD94;}
	.st2{fill:#817957;}
	.st3{fill:none;}
</style>
<path id="XMLID_38_" class="st0" d="M-366.6-3890.4c-3.5,18-7,36.1-10.4,54.1c-5.9,30.7-11.9,62-7.9,93c1.4,11.2,4.2,22.4,10.4,31.8
	c6.2,9.4,16.1,16.9,27.3,18c17,1.7,33.7-13.7,33.3-30.8"/>
<rect id="XMLID_37_" x="-328.7" y="-3959.4" class="st1" width="163.5" height="196.7"/>
<rect id="XMLID_36_" x="-268.8" y="-3825.4" class="st1" width="82.4" height="120.3"/>
<rect id="XMLID_35_" x="-672.3" y="-3739.1" class="st1" width="464.4" height="5.2"/>
<rect id="XMLID_34_" x="-336.3" y="-3736.5" class="st1" width="43.9" height="22.5"/>
<rect id="XMLID_33_" x="-2020" y="-3974.7" class="st1" width="1920" height="20.6"/>
<rect id="XMLID_32_" x="-398" y="-3964.4" class="st1" width="113.4" height="67.2"/>
<rect id="XMLID_31_" x="-376.8" y="-3901.3" class="st1" width="19.5" height="20.3"/>
<rect id="XMLID_30_" x="-1246.7" y="-3963.6" class="st1" width="266.9" height="23.2"/>
<rect id="XMLID_29_" x="-1759.7" y="-3963.6" class="st1" width="77.4" height="23.2"/>
<rect id="XMLID_28_" x="-1047.6" y="-3945.3" class="st1" width="30.2" height="20"/>
<path id="XMLID_78_" class="st2" d="M183.3-1489.3v-68h-42.9V-1676h-10v-293.4h23.4v-217.8h-23.4v-193.4h10v-144h14.8v-273.2h-24.9
	V-3665h23.4v-33h-23.4v-23.7h38.3v-57.6h27.5V-3976h-65.9h-65H0v2487.6C60.9-1488.3,122.3-1487.7,183.3-1489.3z"/>
<path id="XMLID_92_" class="st2" d="M3940-1494.2V-3976h-130.4v34h-6.9v28.2h6.9v50.8h-21.5v214.3h21.5v217.4h-14.8v162.5h14.8
	v590.8h-14.8v42.6h-26.1v107.6h26.1v79.5h14.8v280.6H3794v155.9h15.6v159.5H3794v213.7h15.6v143.3
	C3853.4-1495.4,3896.3-1493.6,3940-1494.2z"/>
<path id="XMLID_178_" class="st1" d="M130.4,217.5H0v105.6c43.8,0,86.7,0,130.4,0V217.5z"/>
<path class="st1" d="M0,308v3067.1c43.7,2.4,86.8,1.8,130.4-0.4V308C86.7,308,43.8,308,0,308z"/>
<path class="st1" d="M0,3366v429.6c35,0.2,70,0.8,105-0.1v-3.3c8.5-0.5,17-0.7,25.4-0.7v-309.4H55.2v-102h75.2v-14.5
	C86.8,3368.1,43.7,3368.6,0,3366z"/>
<path id="XMLID_209_" class="st1" d="M1789.6,207.6v3588.3c43.5-0.3,87,0.5,130.4,0.5V207.6H1789.6z"/>
<rect id="XMLID_175_" x="87.7" y="628.5" class="st1" width="221.8" height="186.3"/>
<rect id="XMLID_174_" x="287.7" y="732.1" class="st1" width="247" height="45.5"/>
<rect id="XMLID_173_" x="246.1" y="382.9" class="st1" width="1120.3" height="363.9"/>
<rect id="_x3C_Фрагмент_x3E_" x="1766" y="3770.5" class="st3" width="6" height="7"/>
<path id="XMLID_231_" class="st0" d="M29.3,441.1c61.5-11.9,127.8,3.3,177.9,40.8c21.7,16.2,41.7,40,39.2,66.9"/>
<rect id="XMLID_230_" x="33.8" y="421.2" class="st1" width="13.2" height="28.2"/>
<rect id="XMLID_229_" x="225.5" y="538.4" class="st1" width="106.7" height="28.5"/>
<rect id="XMLID_233_" x="140.8" y="237.3" class="st1" width="13.2" height="28.2"/>
<rect id="XMLID_232_" x="332.5" y="354.4" class="st1" width="106.7" height="28.5"/>
<path id="XMLID_237_" class="st0" d="M127.4,256.1c61.5-11.9,127.8,3.3,177.9,40.8c21.7,16.2,41.7,40,39.2,66.9"/>
<rect id="XMLID_236_" x="121.5" y="237.3" class="st1" width="23.6" height="28.2"/>
<rect id="XMLID_235_" x="323.6" y="354.4" class="st1" width="106.7" height="35.2"/>
</svg>
