<?xml version="1.0" encoding="utf-8"?>
<!-- Generator: Adobe Illustrator 20.1.0, SVG Export Plug-In . SVG Version: 6.00 Build 0)  -->
<svg version="1.1" id="Слой_1" xmlns="http://www.w3.org/2000/svg" xmlns:xlink="http://www.w3.org/1999/xlink" x="0px" y="0px"
	 viewBox="0 0 84.1 4000" style="enable-background:new 0 0 84.1 4000;" xml:space="preserve">
<style type="text/css">
	.st0{fill:#867F5E;}
</style>
<path class="st0" d="M90.2,25c0-8.3,0-16.7,0-25H43.9v34h-7.4v28.2h7.4v50.8h-23v214.3h23v217.4H28v162.5h15.9v590.8H28v42.6H0
	v107.6h28v79.5h15.9v280.6H27.2v155.9h16.7v159.5H27.2v213.7h16.7v146.1h-43v131.6h21.6v47.8h21.4v213H18.1v118.6h25.8v74h-11v133.2
	H22.5v149h10.4v119.9h11v212.9h-43V4000h43h0.2h46.1"/>
</svg>
