<?xml version="1.0" encoding="utf-8"?>
<!-- Generator: Adobe Illustrator 19.0.0, SVG Export Plug-In . SVG Version: 6.00 Build 0)  -->
<svg version="1.1" id="Слой_1" xmlns="http://www.w3.org/2000/svg" xmlns:xlink="http://www.w3.org/1999/xlink" x="0px" y="0px"
	 viewBox="0 0 238.7 162.2" style="enable-background:new 0 0 238.7 162.2;" xml:space="preserve">
<style type="text/css">
	.st0{fill:#FFF0AA;stroke:#817957;stroke-width:2;stroke-linecap:round;stroke-linejoin:round;stroke-miterlimit:10;}
	.st1{fill:#FFF0AA;}
	.st2{fill:none;stroke:#312F2C;stroke-width:1.8;stroke-linecap:round;stroke-linejoin:round;stroke-miterlimit:10;}
	.st3{fill:none;stroke:#312F2C;stroke-width:0.6;stroke-linecap:round;stroke-linejoin:round;stroke-miterlimit:10;}
	.st4{fill:none;stroke:#817957;stroke-width:2;stroke-linecap:round;stroke-linejoin:round;stroke-miterlimit:10;}
</style>
<path id="_x31_8" class="st0" d="M1,42.8c0,65.4,53,118.4,118.4,118.4c65.4,0,118.4-53,118.4-118.4"/>
<g id="XMLID_3_">
	<path id="XMLID_41_" class="st1" d="M123.7,89.1l-0.4-1.1l11.7-43.5l0.5-0.4c0,0,0.1-0.1,0.1-0.1c0,0,0.1-0.1,0.1-0.1
		c0.1-0.1,0.1-0.2,0.1-0.3l1.3-4.8c0.1-0.5-0.1-1-0.5-1.2c-2.4-1.3-5.4-4.1-6.1-5.4c0.3-0.4,0.5-0.9,0.6-1.3c0.1-0.5,0-0.9-0.2-1.3
		c2.3-4.4,2.3-8.4,2.2-11.5c0-2.2,0-4,0.8-5.3c0.1-0.1,0.1-0.2,0.1-0.3l1-3.7c0.4-0.3,0.5-0.7,0.6-1l0-0.2l0-0.1
		c0.1-0.3,0.2-0.7,0-1.2l0.7-2.6c0.1-0.5-0.2-1.1-0.7-1.3L126.2,0c-0.5-0.1-1.1,0.2-1.3,0.7l-0.7,2.6c-0.4,0.3-0.5,0.7-0.6,1l0,0.2
		l0,0.1c-0.1,0.3-0.2,0.7,0,1.2l-1,3.7c0,0.1,0,0.2,0,0.3c0.1,1.5-0.8,3-2,5c-1.6,2.7-3.6,6.1-3.8,11.1c-0.3,0.2-0.6,0.6-0.8,1
		c-0.2,0.4-0.3,0.9-0.2,1.4c-1.2,0.7-5.2,1.6-8,1.6c-0.5,0-0.9,0.3-1,0.8l-1.3,4.8c0,0.1,0,0.2,0,0.3c0,0,0,0.1,0,0.1
		c0,0,0,0.1,0,0.1l0.2,0.6L94.1,80.2l-0.9,0.8c-0.1,0.1-0.3,0.3-0.3,0.5l-1.7,6.7c-0.1,0.5,0.2,1,0.6,1.1l28.9,7.8
		c0.5,0.1,1-0.2,1.1-0.6l1.9-6.7C123.7,89.5,123.7,89.3,123.7,89.1z"/>
	<g id="XMLID_4_">
		<g id="XMLID_112_">
			<g id="XMLID_119_">
				<path id="XMLID_129_" class="st2" d="M92,88.4l1.7-6.7l1.1-0.9l11.8-44l-0.3-0.9l1.3-4.8c0-0.1,0.1-0.1,0.2-0.1
					c2.8,0.1,8.2-1,9-2.3c-0.5-0.5,0-2.1,0.8-2.1c0.2-8.8,6-12.6,5.8-16.7l1.1-4.2c-0.4-0.1-0.2-0.4-0.1-0.8s0.1-0.7,0.5-0.6
					l0.8-3.2c0-0.1,0.1-0.1,0.2-0.1c0.1,0,9.5,2.5,9.4,2.5c0.1,0,0.1,0.1,0.1,0.2l-0.8,3.2c0.4,0.1,0.2,0.4,0.1,0.8
					c-0.1,0.4-0.1,0.7-0.5,0.6l-1.1,4.2c-2.3,3.5,0.9,9.7-3.3,17.4c0.7,0.4,0.3,2-0.4,2.2c0.1,1.5,4.3,5.1,6.7,6.5
					c0.1,0,0.1,0.1,0.1,0.2l-1.3,4.8l-0.7,0.6l-11.8,44l0.5,1.4l-1.9,6.7L92,88.4z"/>
				<line id="XMLID_128_" class="st3" x1="118.7" y1="20.7" x2="131.7" y2="24.2"/>
				<line id="XMLID_127_" class="st3" x1="117.3" y1="26.6" x2="129.9" y2="30"/>
				<line id="XMLID_126_" class="st3" x1="116.9" y1="28.6" x2="129.3" y2="31.9"/>
				<line id="XMLID_125_" class="st2" x1="123.4" y1="9.8" x2="133.1" y2="12.4"/>
				<line id="XMLID_124_" class="st2" x1="136.1" y1="38.6" x2="107.7" y2="30.9"/>
				<line id="XMLID_123_" class="st3" x1="124.5" y1="5.6" x2="134.2" y2="8.2"/>
				<line id="XMLID_122_" class="st3" x1="124.6" y1="4.2" x2="134.8" y2="7"/>
				<line id="XMLID_121_" class="st2" x1="106.4" y1="35.8" x2="134.8" y2="43.4"/>
				<line id="XMLID_120_" class="st2" x1="94.9" y1="80.7" x2="122.3" y2="88"/>
			</g>
			<path id="XMLID_118_" class="st3" d="M125.1,46.6c3.2,2.5,2.4,3.7-1.9,2.6c-3.5-0.9-8.4-3.2-11-5.2c-2.1-1.6-1.5-2.3,1.2-1.7
				c2.2,0.6,5.3,2,7,3.3c1.3,1,1,1.5-0.8,1.1c-1.4-0.4-3.4-1.3-4.5-2.1"/>
			<line id="XMLID_117_" class="st3" x1="125.1" y1="46.6" x2="124.3" y2="49.4"/>
			<line id="XMLID_116_" class="st3" x1="127" y1="49" x2="116.9" y2="86.6"/>
			<line id="XMLID_115_" class="st3" x1="110.9" y1="42.3" x2="100.3" y2="82.1"/>
			<line id="XMLID_114_" class="st3" x1="115.1" y1="44.6" x2="114.8" y2="45.7"/>
			<line id="XMLID_113_" class="st3" x1="121.2" y1="46.5" x2="120.7" y2="48.4"/>
		</g>
	</g>
</g>
<path id="XMLID_2_" class="st4" d="M3.5,58c15.4,0.5,15.9,8.4,32.3,8.4c16.9,0,16.9-8.4,33.8-8.4c16.9,0,16.9,8.4,33.8,8.4
	c16.9,0,16.9-8.4,33.8-8.4c16.9,0,16.9,8.4,33.8,8.4c16.9,0,16.9-8.4,33.8-8.4c15.8,0,16.8,7.3,30.7,8.3"/>
</svg>
