<?xml version="1.0" encoding="utf-8"?>
<!-- Generator: Adobe Illustrator 20.1.0, SVG Export Plug-In . SVG Version: 6.00 Build 0)  -->
<svg version="1.1" id="Слой_1" xmlns="http://www.w3.org/2000/svg" xmlns:xlink="http://www.w3.org/1999/xlink" x="0px" y="0px"
	 viewBox="0 0 172.2 186.1" style="enable-background:new 0 0 172.2 186.1;" xml:space="preserve">
<style type="text/css">
	.st0{fill:#FFF0AA;}
	.st1{fill:none;stroke:#312F2C;stroke-width:1.8;stroke-linecap:round;stroke-linejoin:round;stroke-miterlimit:10;}
	.st2{fill:none;stroke:#312F2C;stroke-width:0.6;stroke-linecap:round;stroke-linejoin:round;stroke-miterlimit:10;}
	.st3{fill:none;stroke:#312F2C;stroke-width:1.2;stroke-linecap:round;stroke-linejoin:round;stroke-miterlimit:10;}
	.st4{fill:none;stroke:#312F2C;stroke-width:3.6;stroke-linecap:round;stroke-linejoin:round;stroke-miterlimit:10;}
	
		.st5{fill:none;stroke:#312F2C;stroke-width:0.6;stroke-linecap:round;stroke-linejoin:round;stroke-miterlimit:10;stroke-dasharray:1.2;}
	.st6{fill:none;stroke:#312F2C;stroke-width:0.6;stroke-linecap:round;stroke-linejoin:round;stroke-dasharray:1.1675,1.1675;}
	.st7{fill:#FFF1AB;stroke:#817957;stroke-width:2;stroke-linecap:round;stroke-linejoin:round;stroke-miterlimit:10;}
</style>
<g>
	<g>
		<path class="st0" d="M111,40.8c10.2,0,18.5-8.3,18.5-18.5S121.2,3.8,111,3.8s-18.5,8.3-18.5,18.5S100.7,40.8,111,40.8z M111,5
			c9.6,0,17.3,7.8,17.3,17.3s-7.8,17.3-17.3,17.3s-17.3-7.8-17.3-17.3S101.4,5,111,5z"/>
		<path class="st0" d="M111,38.9c9.1,0,16.6-7.4,16.6-16.6S120.1,5.7,111,5.7s-16.6,7.4-16.6,16.6S101.8,38.9,111,38.9z M111,9.3
			c7.2,0,13,5.8,13,13c0,7.2-5.8,13-13,13s-13-5.8-13-13C98,15.2,103.8,9.3,111,9.3z"/>
		<path class="st0" d="M110.5,10.2c0.4,0,0.8,0,1.2,0c0,0,0,0,0,0c0.2,0,0.3-0.1,0.3-0.3c0-0.2-0.1-0.3-0.3-0.3c-0.4,0-0.8,0-1.2,0
			c-0.2,0-0.3,0.1-0.3,0.3C110.2,10.1,110.3,10.2,110.5,10.2z"/>
		<path class="st0" d="M112.8,10.4c0.4,0.1,0.8,0.1,1.1,0.2c0,0,0,0,0.1,0c0.1,0,0.3-0.1,0.3-0.2c0-0.2-0.1-0.3-0.2-0.4
			c-0.4-0.1-0.8-0.2-1.2-0.2c-0.2,0-0.3,0.1-0.3,0.3C112.5,10.2,112.6,10.3,112.8,10.4z"/>
		<path class="st0" d="M109.7,34.9c0.4,0,0.8,0.1,1.2,0.1c0.3,0,0.7,0,1,0c0.2,0,0.3-0.2,0.3-0.3c0-0.2-0.1-0.3-0.3-0.3
			c-0.7,0.1-1.4,0.1-2.1,0c-0.2,0-0.3,0.1-0.3,0.3C109.4,34.8,109.6,34.9,109.7,34.9z"/>
		<path class="st0" d="M118.4,31.8c-0.3,0.2-0.6,0.5-1,0.7c-0.1,0.1-0.2,0.3-0.1,0.4c0.1,0.1,0.2,0.1,0.3,0.1c0.1,0,0.1,0,0.2,0
			c0.3-0.2,0.7-0.5,1-0.7c0.1-0.1,0.2-0.3,0.1-0.4C118.7,31.8,118.5,31.7,118.4,31.8z"/>
		<path class="st0" d="M115.3,33.6c-0.2,0.1-0.2,0.2-0.2,0.4c0,0.1,0.2,0.2,0.3,0.2c0,0,0.1,0,0.1,0c0.4-0.1,0.8-0.3,1.1-0.5
			c0.1-0.1,0.2-0.3,0.1-0.4c-0.1-0.1-0.3-0.2-0.4-0.1C116.1,33.3,115.7,33.4,115.3,33.6z"/>
		<path class="st0" d="M113.1,34.2c-0.2,0-0.3,0.2-0.2,0.3c0,0.1,0.2,0.2,0.3,0.2c0,0,0,0,0.1,0c0.4-0.1,0.8-0.2,1.2-0.3
			c0.2,0,0.3-0.2,0.2-0.4c0-0.2-0.2-0.3-0.4-0.2C113.9,34,113.5,34.1,113.1,34.2z"/>
		<path class="st0" d="M115.1,11c0.4,0.1,0.7,0.3,1.1,0.5c0,0,0.1,0,0.1,0c0.1,0,0.2-0.1,0.3-0.2c0.1-0.1,0-0.3-0.1-0.4
			c-0.4-0.2-0.7-0.3-1.1-0.5c-0.2-0.1-0.3,0-0.4,0.2C114.8,10.7,114.9,10.9,115.1,11z"/>
		<path class="st0" d="M119.9,14.2c0.1,0.1,0.1,0.1,0.2,0.1c0.1,0,0.1,0,0.2-0.1c0.1-0.1,0.1-0.3,0-0.4c-0.3-0.3-0.6-0.6-0.9-0.9
			c-0.1-0.1-0.3-0.1-0.4,0c-0.1,0.1-0.1,0.3,0,0.4C119.3,13.6,119.6,13.9,119.9,14.2z"/>
		<path class="st0" d="M120.1,30.2c-0.3,0.3-0.5,0.6-0.8,0.8c-0.1,0.1-0.1,0.3,0,0.4c0.1,0.1,0.1,0.1,0.2,0.1c0.1,0,0.1,0,0.2-0.1
			c0.3-0.3,0.6-0.6,0.8-0.9c0.1-0.1,0.1-0.3,0-0.4C120.4,30.1,120.2,30.1,120.1,30.2z"/>
		<path class="st0" d="M118.2,12.6c0.1,0,0.1,0.1,0.2,0.1c0.1,0,0.2,0,0.2-0.1c0.1-0.1,0.1-0.3-0.1-0.4c-0.3-0.2-0.7-0.5-1-0.7
			c-0.1-0.1-0.3,0-0.4,0.1c-0.1,0.1,0,0.3,0.1,0.4C117.5,12.2,117.8,12.4,118.2,12.6z"/>
		<path class="st0" d="M121.4,28.3c-0.2,0.3-0.4,0.7-0.6,1c-0.1,0.1-0.1,0.3,0.1,0.4c0.1,0,0.1,0.1,0.2,0.1c0.1,0,0.2,0,0.2-0.1
			c0.2-0.3,0.5-0.7,0.7-1c0.1-0.1,0-0.3-0.1-0.4C121.7,28.1,121.5,28.2,121.4,28.3z"/>
		<path class="st0" d="M100.4,28.2c-0.1-0.1-0.3-0.2-0.4-0.1c-0.1,0.1-0.2,0.3-0.1,0.4c0.2,0.4,0.4,0.7,0.6,1
			c0.1,0.1,0.2,0.1,0.2,0.1c0.1,0,0.1,0,0.2-0.1c0.1-0.1,0.2-0.3,0.1-0.4C100.8,28.8,100.6,28.5,100.4,28.2z"/>
		<path class="st0" d="M121.3,16.1c0.1,0.1,0.2,0.1,0.3,0.1c0.1,0,0.1,0,0.2,0c0.1-0.1,0.2-0.3,0.1-0.4c-0.2-0.3-0.4-0.7-0.7-1
			c-0.1-0.1-0.3-0.2-0.4-0.1c-0.1,0.1-0.2,0.3-0.1,0.4C120.9,15.4,121.1,15.7,121.3,16.1z"/>
		<path class="st0" d="M99.9,27.1c-0.2-0.4-0.3-0.7-0.4-1.1c0-0.2-0.2-0.2-0.4-0.2c-0.2,0.1-0.2,0.2-0.2,0.4
			c0.1,0.4,0.3,0.8,0.4,1.1c0,0.1,0.2,0.2,0.3,0.2c0,0,0.1,0,0.1,0C99.9,27.4,99.9,27.3,99.9,27.1z"/>
		<path class="st0" d="M122.8,26c-0.2-0.1-0.3,0-0.4,0.2c-0.1,0.4-0.3,0.7-0.4,1.1c-0.1,0.2,0,0.3,0.1,0.4c0,0,0.1,0,0.1,0
			c0.1,0,0.2-0.1,0.3-0.2c0.2-0.4,0.3-0.8,0.5-1.1C123,26.2,122.9,26.1,122.8,26z"/>
		<path class="st0" d="M99.2,24.9c-0.1-0.4-0.1-0.8-0.2-1.2c0-0.2-0.2-0.3-0.3-0.3c-0.2,0-0.3,0.2-0.3,0.3c0,0.4,0.1,0.8,0.2,1.2
			c0,0.1,0.2,0.2,0.3,0.2c0,0,0,0,0.1,0C99.1,25.2,99.2,25,99.2,24.9z"/>
		<path class="st0" d="M108.1,10.6C108.1,10.6,108.1,10.6,108.1,10.6c0.4-0.1,0.8-0.2,1.2-0.2c0.2,0,0.3-0.2,0.3-0.3
			c0-0.2-0.2-0.3-0.3-0.3c-0.4,0.1-0.8,0.1-1.2,0.2c-0.2,0-0.3,0.2-0.2,0.4C107.8,10.5,108,10.6,108.1,10.6z"/>
		<path class="st0" d="M122.7,19.3c0.1,0.4,0.2,0.8,0.2,1.1c0,0.1,0.2,0.3,0.3,0.3c0,0,0,0,0,0c0.2,0,0.3-0.2,0.2-0.3
			c-0.1-0.4-0.1-0.8-0.3-1.2c0-0.2-0.2-0.3-0.4-0.2C122.7,19,122.6,19.1,122.7,19.3z"/>
		<path class="st0" d="M121.8,17.1c0.2,0.4,0.3,0.7,0.5,1.1c0,0.1,0.2,0.2,0.3,0.2c0,0,0.1,0,0.1,0c0.2-0.1,0.2-0.2,0.2-0.4
			c-0.1-0.4-0.3-0.8-0.5-1.1c-0.1-0.1-0.3-0.2-0.4-0.1C121.8,16.8,121.8,16.9,121.8,17.1z"/>
		<path class="st0" d="M123,21.6c0,0.2,0,0.5,0,0.7c0,0.1,0,0.3,0,0.4c0,0.2,0.1,0.3,0.3,0.3c0,0,0,0,0,0c0.2,0,0.3-0.1,0.3-0.3
			c0-0.2,0-0.3,0-0.5c0-0.3,0-0.5,0-0.8c0-0.2-0.2-0.3-0.3-0.3C123.1,21.3,123,21.4,123,21.6z"/>
		<path class="st0" d="M123.3,23.7c-0.2,0-0.3,0.1-0.3,0.3c-0.1,0.4-0.1,0.8-0.2,1.2c0,0.2,0.1,0.3,0.2,0.4c0,0,0,0,0.1,0
			c0.1,0,0.3-0.1,0.3-0.2c0.1-0.4,0.2-0.8,0.2-1.2C123.6,23.8,123.4,23.7,123.3,23.7z"/>
		<path class="st0" d="M99.3,18.1c0,0,0.1,0,0.1,0c0.1,0,0.2-0.1,0.3-0.2c0.1-0.4,0.3-0.7,0.5-1.1c0.1-0.1,0-0.3-0.1-0.4
			c-0.1-0.1-0.3,0-0.4,0.1c-0.2,0.4-0.3,0.7-0.5,1.1C99.1,17.9,99.1,18.1,99.3,18.1z"/>
		<path class="st0" d="M100.5,16c0.1,0,0.2,0,0.3-0.1c0.2-0.3,0.4-0.7,0.7-1c0.1-0.1,0.1-0.3-0.1-0.4s-0.3-0.1-0.4,0.1
			c-0.2,0.3-0.5,0.7-0.7,1c-0.1,0.1,0,0.3,0.1,0.4C100.4,16,100.4,16,100.5,16z"/>
		<path class="st0" d="M98.3,22.6c0,0.2,0.1,0.3,0.3,0.3c0,0,0,0,0,0c0.2,0,0.3-0.1,0.3-0.3l0-0.2c0-0.3,0-0.6,0-0.9
			c0-0.2-0.1-0.3-0.3-0.3c-0.2,0-0.3,0.1-0.3,0.3c0,0.3,0,0.6,0,1L98.3,22.6z"/>
		<path class="st0" d="M107.3,34.5c0.4,0.1,0.8,0.2,1.2,0.3c0,0,0,0,0.1,0c0.1,0,0.3-0.1,0.3-0.2c0-0.2-0.1-0.3-0.2-0.4
			c-0.4-0.1-0.8-0.2-1.1-0.3c-0.2,0-0.3,0-0.4,0.2S107.2,34.4,107.3,34.5z"/>
		<path class="st0" d="M101.3,30.5c0.3,0.3,0.5,0.6,0.8,0.9c0.1,0.1,0.1,0.1,0.2,0.1c0.1,0,0.2,0,0.2-0.1c0.1-0.1,0.1-0.3,0-0.4
			c-0.3-0.3-0.5-0.6-0.8-0.9c-0.1-0.1-0.3-0.1-0.4,0C101.2,30.1,101.1,30.3,101.3,30.5z"/>
		<path class="st0" d="M98.7,20.5C98.7,20.5,98.7,20.5,98.7,20.5c0.2,0,0.3-0.1,0.3-0.2c0.1-0.4,0.2-0.8,0.3-1.1
			c0-0.2,0-0.3-0.2-0.4c-0.2,0-0.3,0-0.4,0.2c-0.1,0.4-0.2,0.8-0.3,1.2C98.4,20.3,98.6,20.4,98.7,20.5z"/>
		<path class="st0" d="M105.1,33.5c0.4,0.2,0.7,0.4,1.1,0.5c0,0,0.1,0,0.1,0c0.1,0,0.2-0.1,0.3-0.2c0.1-0.2,0-0.3-0.2-0.4
			c-0.4-0.1-0.7-0.3-1.1-0.5c-0.1-0.1-0.3,0-0.4,0.1S104.9,33.5,105.1,33.5z"/>
		<path class="st0" d="M105.8,11.4c0,0,0.1,0,0.1,0c0.4-0.2,0.7-0.3,1.1-0.4c0.2-0.1,0.2-0.2,0.2-0.4c-0.1-0.2-0.2-0.2-0.4-0.2
			c-0.4,0.1-0.8,0.3-1.1,0.5c-0.2,0.1-0.2,0.2-0.1,0.4C105.6,11.3,105.7,11.4,105.8,11.4z"/>
		<path class="st0" d="M103.8,12.6c0.1,0,0.1,0,0.2-0.1c0.3-0.2,0.6-0.4,1-0.6c0.1-0.1,0.2-0.3,0.1-0.4c-0.1-0.1-0.3-0.2-0.4-0.1
			c-0.4,0.2-0.7,0.4-1,0.7c-0.1,0.1-0.2,0.3-0.1,0.4C103.6,12.5,103.7,12.6,103.8,12.6z"/>
		<path class="st0" d="M101.9,14.1c0.1,0,0.2,0,0.2-0.1c0.3-0.3,0.5-0.6,0.8-0.8c0.1-0.1,0.1-0.3,0-0.4c-0.1-0.1-0.3-0.1-0.4,0
			c-0.3,0.3-0.6,0.6-0.9,0.9c-0.1,0.1-0.1,0.3,0,0.4C101.8,14.1,101.9,14.1,101.9,14.1z"/>
		<path class="st0" d="M103,32.2c0.3,0.3,0.6,0.5,1,0.7c0.1,0,0.1,0,0.2,0c0.1,0,0.2,0,0.3-0.1c0.1-0.1,0.1-0.3-0.1-0.4
			c-0.3-0.2-0.6-0.4-0.9-0.7c-0.1-0.1-0.3-0.1-0.4,0C102.9,31.9,102.9,32.1,103,32.2z"/>
		<path class="st0" d="M56.8,40.8c6.7,0,12.1-5.4,12.1-12.1s-5.4-12.1-12.1-12.1c-6.7,0-12.1,5.4-12.1,12.1S50.1,40.8,56.8,40.8z
			 M56.8,17.8c6,0,10.9,4.9,10.9,10.9s-4.9,10.9-10.9,10.9c-6,0-10.9-4.9-10.9-10.9S50.8,17.8,56.8,17.8z"/>
		<path class="st0" d="M56.8,38.9c5.6,0,10.2-4.6,10.2-10.2s-4.6-10.2-10.2-10.2c-5.6,0-10.2,4.6-10.2,10.2S51.2,38.9,56.8,38.9z
			 M56.8,22.2c3.6,0,6.6,2.9,6.6,6.6s-2.9,6.6-6.6,6.6c-3.6,0-6.6-2.9-6.6-6.6S53.2,22.2,56.8,22.2z"/>
		<path class="st0" d="M52.6,24.8c0.1,0,0.2,0,0.2-0.1c0.3-0.3,0.5-0.5,0.9-0.7c0.1-0.1,0.2-0.3,0.1-0.4c-0.1-0.1-0.3-0.2-0.4-0.1
			c-0.3,0.2-0.7,0.5-0.9,0.8c-0.1,0.1-0.1,0.3,0,0.4C52.4,24.8,52.5,24.8,52.6,24.8z"/>
		<path class="st0" d="M54.5,23.5c0,0,0.1,0,0.1,0c0.3-0.1,0.7-0.3,1.1-0.3c0.2,0,0.3-0.2,0.2-0.4c0-0.2-0.2-0.3-0.4-0.2
			c-0.4,0.1-0.8,0.2-1.2,0.4c-0.2,0.1-0.2,0.2-0.2,0.4C54.3,23.5,54.4,23.5,54.5,23.5z"/>
		<path class="st0" d="M56.8,23.1c0.4,0,0.7,0,1.1,0.1c0,0,0,0,0.1,0c0.1,0,0.3-0.1,0.3-0.2c0-0.2-0.1-0.3-0.2-0.4
			c-0.4-0.1-0.8-0.1-1.2-0.1h0c-0.2,0-0.3,0.1-0.3,0.3S56.7,23.1,56.8,23.1z"/>
		<path class="st0" d="M51.2,26.8c0,0,0.1,0,0.1,0c0.1,0,0.2-0.1,0.3-0.2c0.1-0.3,0.3-0.7,0.5-1c0.1-0.1,0.1-0.3-0.1-0.4
			c-0.1-0.1-0.3-0.1-0.4,0.1c-0.2,0.3-0.4,0.7-0.6,1.1C51,26.5,51,26.7,51.2,26.8z"/>
		<path class="st0" d="M52.6,33.3c0.1,0,0.2,0,0.2-0.1c0.1-0.1,0.1-0.3,0-0.4c-0.3-0.3-0.5-0.5-0.7-0.9c-0.1-0.1-0.3-0.2-0.4-0.1
			c-0.1,0.1-0.2,0.3-0.1,0.4c0.2,0.3,0.5,0.7,0.8,0.9C52.5,33.2,52.5,33.3,52.6,33.3z"/>
		<path class="st0" d="M51.2,28.7c0-0.4,0-0.7,0.1-1.1c0-0.2-0.1-0.3-0.2-0.4c-0.2,0-0.3,0.1-0.4,0.2c-0.1,0.4-0.1,0.8-0.1,1.2v0
			c0,0.2,0.1,0.3,0.3,0.3S51.2,28.9,51.2,28.7z"/>
		<path class="st0" d="M51.6,30.9c-0.1-0.3-0.3-0.7-0.3-1.1c0-0.2-0.2-0.3-0.4-0.2c-0.2,0-0.3,0.2-0.2,0.4c0.1,0.4,0.2,0.8,0.4,1.2
			c0,0.1,0.2,0.2,0.3,0.2c0,0,0.1,0,0.1,0C51.6,31.2,51.7,31.1,51.6,30.9z"/>
		<path class="st0" d="M60.9,32.7c-0.3,0.3-0.5,0.5-0.8,0.7c-0.1,0.1-0.2,0.3-0.1,0.4c0.1,0.1,0.2,0.1,0.2,0.1c0.1,0,0.1,0,0.2-0.1
			c0.3-0.2,0.7-0.5,0.9-0.8c0.1-0.1,0.1-0.3,0-0.4C61.2,32.6,61,32.6,60.9,32.7z"/>
		<path class="st0" d="M58.9,23.5c0.3,0.1,0.7,0.3,1,0.5c0.1,0,0.1,0,0.2,0c0.1,0,0.2,0,0.3-0.1c0.1-0.1,0.1-0.3-0.1-0.4
			c-0.3-0.2-0.7-0.4-1.1-0.6c-0.2-0.1-0.3,0-0.4,0.2C58.7,23.3,58.8,23.4,58.9,23.5z"/>
		<path class="st0" d="M59,33.9c-0.3,0.1-0.7,0.3-1.1,0.3c-0.2,0-0.3,0.2-0.2,0.4c0,0.1,0.2,0.2,0.3,0.2c0,0,0,0,0.1,0
			c0.4-0.1,0.8-0.2,1.2-0.4c0.2-0.1,0.2-0.2,0.2-0.4C59.4,33.9,59.2,33.9,59,33.9z"/>
		<path class="st0" d="M53.7,33.4c-0.1-0.1-0.3-0.1-0.4,0.1c-0.1,0.1-0.1,0.3,0.1,0.4c0.3,0.2,0.7,0.4,1.1,0.6c0,0,0.1,0,0.1,0
			c0.1,0,0.2-0.1,0.3-0.2c0.1-0.2,0-0.3-0.2-0.4C54.3,33.8,54,33.6,53.7,33.4z"/>
		<path class="st0" d="M62.5,30.7c-0.2-0.1-0.3,0-0.4,0.2c-0.1,0.3-0.3,0.7-0.5,1c-0.1,0.1-0.1,0.3,0.1,0.4c0.1,0,0.1,0,0.2,0
			c0.1,0,0.2,0,0.3-0.1c0.2-0.3,0.4-0.7,0.6-1.1C62.7,30.9,62.6,30.7,62.5,30.7z"/>
		<path class="st0" d="M56.8,34.4c-0.4,0-0.7,0-1.1-0.1c-0.2,0-0.3,0.1-0.4,0.2c0,0.2,0.1,0.3,0.2,0.4C56,35,56.4,35,56.8,35
			c0,0,0,0,0,0c0.2,0,0.3-0.1,0.3-0.3C57.2,34.5,57,34.4,56.8,34.4z"/>
		<path class="st0" d="M62.5,28.7c0,0.4,0,0.7-0.1,1.1c0,0.2,0.1,0.3,0.2,0.4c0,0,0,0,0.1,0c0.1,0,0.3-0.1,0.3-0.2
			c0.1-0.4,0.1-0.8,0.1-1.2v-0.1c0-0.2-0.1-0.3-0.3-0.3S62.5,28.6,62.5,28.7z"/>
		<path class="st0" d="M62,26.5c0.1,0.3,0.3,0.7,0.3,1.1c0,0.1,0.2,0.2,0.3,0.2c0,0,0,0,0.1,0c0.2,0,0.3-0.2,0.2-0.4
			c-0.1-0.4-0.2-0.8-0.4-1.2c-0.1-0.2-0.2-0.2-0.4-0.2C62,26.2,62,26.4,62,26.5z"/>
		<path class="st0" d="M61.5,25.6c0.1,0.1,0.2,0.1,0.2,0.1c0.1,0,0.1,0,0.2-0.1c0.1-0.1,0.2-0.3,0.1-0.4c-0.2-0.3-0.5-0.7-0.8-0.9
			c-0.1-0.1-0.3-0.1-0.4,0c-0.1,0.1-0.1,0.3,0,0.4C61.1,25,61.3,25.3,61.5,25.6z"/>
		<path class="st0" d="M133.1,53.5c0-0.1,0.1-0.1,0.1-0.2c0-0.1,0-0.1,0-0.2c0,0,0-0.1,0-0.1v-5.2h4.6c0.5,0,0.9-0.4,0.9-0.9v-8.2
			h14.8c0.4,1.8,2,3.1,3.9,3.1c2.2,0,4-1.8,4-4s-1.8-4-4-4c-1.9,0-3.5,1.3-3.9,3.1h-14.8v-8.2c0-0.5-0.4-0.9-0.9-0.9h-4.6v-5.5
			C133.3,10,123.3,0,111,0c-9.4,0-17.5,5.9-20.8,14.2l-22.4,3.1c-2.9-2.7-6.7-4.4-11-4.4c-8.5,0-15.4,6.6-15.8,15h-4.6
			c-0.5,0-0.9,0.4-0.9,0.9V37H18.6c-0.4-1.8-2-3.1-3.9-3.1c-2.2,0-4,1.8-4,4s1.8,4,4,4c1.9,0,3.5-1.3,3.9-3.1h16.8V47
			c0,0.5,0.4,0.9,0.9,0.9h4.6V53c0,0,0,0.1,0,0.1c0,0.1,0,0.1,0,0.2c0,0.1,0.1,0.1,0.1,0.2c0,0,0,0.1,0.1,0.1l8.7,10.7
			c-4.8,7-9.1,14.3-12.9,21.8l0,0c-0.6,1.2-1.2,2.3-1.7,3.5c0,0,0,0,0,0.1c0,0,0,0,0,0c-2.4,5-4.6,10.2-6.6,15.4l-1.4-0.4
			c-0.5-0.2-1,0.1-1.1,0.6l-0.8,2.5l-0.8-0.3c-0.2-0.1-0.5-0.1-0.7,0.1c-0.2,0.1-0.4,0.3-0.4,0.5l-0.3,0.8l-6.2,0.9
			c-0.9,0.1-1.7,0.6-2.2,1.3s-0.8,1.6-0.6,2.5c0.3,1.8,1.9,3.1,3.8,2.8l3-0.4l-4.6,14.6c-0.6,1.8,0.4,3.6,2.2,4.2
			c1.8,0.6,3.6-0.4,4.2-2.2l3-9.4l1.8,0.6l-3.3,10.5c-0.6,1.8,0.4,3.6,2.2,4.2c0.8,0.3,1.7,0.2,2.5-0.2c0.8-0.4,1.4-1.1,1.6-1.9
			l3.3-10.5l1.8,0.6l-2.8,8.8c-0.3,0.8-0.2,1.7,0.2,2.5c0.4,0.8,1.1,1.4,1.9,1.6c0.3,0.1,0.7,0.2,1,0.2c1.4,0,2.7-0.9,3.2-2.3
			l6.9-21.9c0.1-0.2,0.1-0.5-0.1-0.7s-0.3-0.4-0.5-0.4l-0.8-0.3l0.8-2.5c0.1-0.5-0.1-1-0.6-1.1l-0.8-0.2c1.8-5.2,3.9-10.3,6.1-15.3
			v34.4c0,0.5,0.4,0.9,0.9,0.9h4v2.6c0,0.5,0.4,0.9,0.9,0.9h0.7v17.1h-0.7c-0.5,0-0.9,0.4-0.9,0.9v2.6h-0.8c-0.5,0-0.9,0.4-0.9,0.9
			v14.9l-2.9,2.9c0,0,0,0,0,0c-0.1,0.1-0.1,0.2-0.2,0.3c0,0.1-0.1,0.2-0.1,0.3c0,0,0,0,0,0v3.5c0,0.5,0.4,0.9,0.9,0.9h18.4H76
			c0.5,0,0.9-0.4,0.9-0.9v-21.9c0-0.5-0.4-0.9-0.9-0.9h-0.8v-2.6c0-0.5-0.4-0.9-0.9-0.9h-0.7v-17.1h0.7c0.5,0,0.9-0.4,0.9-0.9v-2.6
			h24v2.6c0,0.5,0.4,0.9,0.9,0.9h0.7v17.1H100c-0.5,0-0.9,0.4-0.9,0.9v2.6h-0.8c-0.5,0-0.9,0.4-0.9,0.9v21.9c0,0.5,0.4,0.9,0.9,0.9
			h6.6h18.4c0.5,0,0.9-0.4,0.9-0.9v-3.5c0,0,0,0,0,0c0-0.1,0-0.2-0.1-0.3c0-0.1-0.1-0.2-0.2-0.3c0,0,0,0,0,0l-2.9-2.9v-14.9
			c0-0.5-0.4-0.9-0.9-0.9h-0.8v-2.6c0-0.5-0.4-0.9-0.9-0.9h-0.7v-17.1h0.7c0.5,0,0.9-0.4,0.9-0.9v-2.6h4c0.5,0,0.9-0.4,0.9-0.9V94.6
			c2.3,5,4.3,10.2,6.1,15.3l-0.8,0.2c-0.5,0.1-0.7,0.7-0.6,1.1l0.8,2.5L129,114c-0.5,0.1-0.7,0.7-0.6,1.1l6.9,21.9
			c0.3,0.8,0.9,1.5,1.6,1.9c0.5,0.3,1,0.4,1.5,0.4c0.3,0,0.7-0.1,1-0.2c1.8-0.6,2.7-2.4,2.2-4.2l-2.8-8.8l1.8-0.6l3.3,10.5
			c0.3,0.8,0.9,1.5,1.6,1.9c0.8,0.4,1.7,0.5,2.5,0.2c0.8-0.3,1.5-0.9,1.9-1.6c0.4-0.8,0.5-1.7,0.2-2.5l-3.3-10.5l1.8-0.6l3,9.4
			c0.3,0.8,0.9,1.5,1.6,1.9c0.8,0.4,1.7,0.5,2.5,0.2c1.8-0.6,2.7-2.4,2.2-4.2l-4.6-14.6l3,0.4c0.9,0.1,1.8-0.1,2.5-0.6
			c0.7-0.5,1.2-1.3,1.3-2.2c0.1-0.9-0.1-1.8-0.6-2.5s-1.3-1.2-2.2-1.3l-6.2-0.9L151,108c-0.2-0.5-0.7-0.7-1.1-0.6l-0.8,0.3l-0.8-2.5
			c-0.1-0.2-0.2-0.4-0.4-0.5c-0.2-0.1-0.5-0.1-0.7-0.1l-1.4,0.4c-2-5.2-4.2-10.3-6.6-15.4c0,0,0,0,0,0c0,0,0-0.1-0.1-0.1
			c-0.6-1.2-1.1-2.4-1.7-3.5l0,0c-3.8-7.5-8.2-14.8-12.9-21.8l8.7-10.7C133.1,53.6,133.1,53.5,133.1,53.5z"/>
		<path class="st0" d="M106.8,63.3h-7c-0.5,0-0.9,0.4-0.9,0.9c0,0.5,0.4,0.9,0.9,0.9h7c0.5,0,0.9-0.4,0.9-0.9
			C107.7,63.7,107.3,63.3,106.8,63.3z"/>
		<path class="st0" d="M95.4,63.3H92c-0.5,0-0.9,0.4-0.9,0.9c0,0.5,0.4,0.9,0.9,0.9h3.5c0.5,0,0.9-0.4,0.9-0.9
			C96.3,63.7,95.9,63.3,95.4,63.3z"/>
		<g>
			<g>
				<g>
					<polyline class="st1" points="123.3,86.4 123.3,128.9 50.9,128.9 50.9,86.4 					"/>
					<path class="st2" d="M98.2,86.4c2.4,2.7,3.9,6.2,3.9,10.1c0,8.3-6.8,15.1-15.1,15.1c-8.3,0-15.1-6.8-15.1-15.1
						c0-3.9,1.5-7.5,3.9-10.1"/>
					<path class="st1" d="M101.3,86.4c2,2.9,3.2,6.4,3.2,10.1c0,9.6-7.8,17.5-17.5,17.5s-17.5-7.8-17.5-17.5c0-3.8,1.2-7.3,3.2-10.1
						"/>
				</g>
				<g>
					<g>
						<circle class="st1" cx="111" cy="22.3" r="21.4"/>
						<path class="st3" d="M111,40.2c-9.9,0-17.9-8-17.9-17.9s8-17.9,17.9-17.9c9.9,0,17.9,8,17.9,17.9S120.8,40.2,111,40.2z"/>
						<path class="st4" d="M111,37.1c-8.1,0-14.8-6.6-14.8-14.8S102.8,7.5,111,7.5s14.8,6.6,14.8,14.8S119.1,37.1,111,37.1z"/>
						<path class="st5" d="M111,34.7c-6.8,0-12.4-5.6-12.4-12.4S104.1,9.9,111,9.9s12.4,5.6,12.4,12.4S117.8,34.7,111,34.7z"/>
					</g>
					<circle class="st1" cx="56.8" cy="28.7" r="15"/>
					<path class="st3" d="M56.8,40.2c-6.3,0-11.5-5.2-11.5-11.5c0-6.3,5.2-11.5,11.5-11.5s11.5,5.2,11.5,11.5
						C68.3,35.1,63.2,40.2,56.8,40.2z"/>
					<circle class="st4" cx="56.8" cy="28.7" r="8.4"/>
					<g>
						<circle class="st6" cx="56.8" cy="28.7" r="6"/>
					</g>
					<polyline class="st1" points="132.4,22.3 132.4,53 41.8,53 41.8,28.7 					"/>
					<polyline class="st1" points="132.4,53 123.3,64.2 111,64.2 					"/>
					<polyline class="st1" points="71.8,64.2 50.9,64.2 41.8,53 					"/>
					<line class="st1" x1="67.5" y1="18.2" x2="90.8" y2="15"/>
					<polyline class="st1" points="41.8,28.7 36.4,28.7 36.4,47 41.8,47 					"/>
					<polyline class="st1" points="132.4,47 137.8,47 137.8,28.7 132.4,28.7 					"/>
					<line class="st1" x1="36.4" y1="37.9" x2="17.9" y2="37.9"/>
					<line class="st1" x1="137.8" y1="37.9" x2="154.4" y2="37.9"/>
					<circle class="st1" cx="14.7" cy="37.9" r="3.1"/>
					<circle class="st1" cx="157.5" cy="37.9" r="3.1"/>
					<line class="st1" x1="106.8" y1="64.2" x2="99.8" y2="64.2"/>
					<line class="st1" x1="95.4" y1="64.2" x2="92" y2="64.2"/>
					<line class="st2" x1="69.2" y1="20.3" x2="89.9" y2="18.4"/>
					<line class="st2" x1="41.8" y1="53" x2="129.1" y2="57"/>
					<line class="st1" x1="37.7" y1="86.4" x2="136.6" y2="86.4"/>
					<path class="st1" d="M37.6,86.4c3.9-7.6,8.3-15,13.3-22.2"/>
					<path class="st1" d="M136.6,86.4c-3.9-7.6-8.3-15-13.3-22.2"/>
				</g>
				<g>
					<rect x="100" y="128.9" class="st1" width="18.4" height="3.5"/>
					<rect x="104.9" y="173.3" class="st1" width="18.4" height="3.5"/>
					<g>
						<polyline class="st1" points="120.1,173.3 120.1,154.9 98.2,154.9 98.2,176.8 104.9,176.8 						"/>
						<rect x="100" y="151.4" class="st1" width="18.4" height="3.5"/>
						<g>
							<line class="st1" x1="116.8" y1="151.4" x2="116.8" y2="132.4"/>
							<line class="st1" x1="101.6" y1="151.4" x2="101.6" y2="132.4"/>
							<line class="st2" x1="116.8" y1="147.6" x2="101.5" y2="147.6"/>
							<line class="st2" x1="116.8" y1="143.8" x2="101.5" y2="143.8"/>
							<line class="st1" x1="116.8" y1="140" x2="101.6" y2="140"/>
							<line class="st2" x1="116.8" y1="136.2" x2="101.5" y2="136.2"/>
						</g>
					</g>
					<line class="st1" x1="123.3" y1="173.3" x2="120.1" y2="170.1"/>
				</g>
				<g>
					<rect x="55.8" y="128.9" class="st1" width="18.4" height="3.5"/>
					<rect x="50.9" y="173.3" class="st1" width="18.4" height="3.5"/>
					<g>
						<polyline class="st1" points="54.1,173.3 54.1,154.9 76,154.9 76,176.8 69.3,176.8 						"/>
						<rect x="55.8" y="151.4" class="st1" width="18.4" height="3.5"/>
						<g>
							<line class="st1" x1="57.4" y1="151.4" x2="57.4" y2="132.4"/>
							<line class="st1" x1="72.6" y1="151.4" x2="72.6" y2="132.4"/>
							<line class="st2" x1="57.4" y1="147.6" x2="72.7" y2="147.6"/>
							<line class="st2" x1="57.4" y1="143.8" x2="72.7" y2="143.8"/>
							<line class="st1" x1="57.4" y1="140" x2="72.6" y2="140"/>
							<line class="st2" x1="57.4" y1="136.2" x2="72.7" y2="136.2"/>
						</g>
					</g>
					<line class="st1" x1="50.9" y1="173.3" x2="54.1" y2="170.1"/>
				</g>
				<g>
					<g>
						<path class="st1" d="M29.2,105.6c2.4-6.5,5.2-12.9,8.4-19.2"/>
						<path class="st1" d="M43,109.8c2.3-6.5,4.9-13,7.9-19.3"/>
						<g>
							<line class="st1" x1="35.9" y1="90" x2="48.8" y2="94.9"/>
							<line class="st2" x1="34.1" y1="93.8" x2="47.3" y2="98.6"/>
							<line class="st2" x1="32.4" y1="97.7" x2="45.8" y2="102.3"/>
							<line class="st2" x1="30.8" y1="101.6" x2="44.3" y2="106"/>
							<line class="st1" x1="29.2" y1="105.6" x2="43" y2="109.8"/>
						</g>
					</g>
					<g>
						<g>
							<path class="st1" d="M22.1,114.7l-4.4,0.6c-1.3,0.2-2.6-0.7-2.7-2.1s0.7-2.6,2.1-2.7l6.7-0.9l0.4-1.3l20.9,6.6l-3.9,12.2
								l-3.1,9.7c-0.4,1.3-1.8,2-3,1.6c-1.3-0.4-2-1.8-1.6-3l3.1-9.7l-3.5-1.1l-3.6,11.4c-0.4,1.3-1.8,2-3,1.6c-1.3-0.4-2-1.8-1.6-3
								l3.6-11.4l-3.5-1.1l-3.2,10.2c-0.4,1.3-1.8,2-3,1.6c-1.3-0.4-2-1.8-1.6-3l3.2-10.2L22.1,114.7z"/>
							
								<rect x="33.3" y="100.7" transform="matrix(0.3018 -0.9534 0.9534 0.3018 -80.2793 110.1669)" class="st1" width="3.5" height="18.4"/>
						</g>
						<line class="st1" x1="22.1" y1="114.7" x2="32.5" y2="118"/>
					</g>
				</g>
				<g>
					<g>
						<path class="st1" d="M145,105.6c-2.4-6.5-5.2-12.9-8.4-19.2"/>
						<path class="st1" d="M131.2,109.8c-2.3-6.5-4.9-13-7.9-19.3"/>
						<g>
							<line class="st1" x1="138.3" y1="90" x2="125.4" y2="94.9"/>
							<line class="st2" x1="140.1" y1="93.8" x2="126.9" y2="98.6"/>
							<line class="st2" x1="141.8" y1="97.7" x2="128.5" y2="102.3"/>
							<line class="st2" x1="143.4" y1="101.6" x2="129.9" y2="106"/>
							<line class="st1" x1="145" y1="105.6" x2="131.2" y2="109.8"/>
						</g>
					</g>
					<g>
						<g>
							<path class="st1" d="M152.2,114.7l4.4,0.6c1.3,0.2,2.6-0.7,2.7-2.1c0.2-1.3-0.7-2.6-2.1-2.7l-6.7-0.9l-0.4-1.3l-20.9,6.6
								l3.9,12.2l3.1,9.7c0.4,1.3,1.8,2,3,1.6c1.3-0.4,2-1.8,1.6-3l-3.1-9.7l3.5-1.1l3.6,11.4c0.4,1.3,1.8,2,3,1.6
								c1.3-0.4,2-1.8,1.6-3l-3.6-11.4l3.5-1.1l3.2,10.2c0.4,1.3,1.8,2,3,1.6c1.3-0.4,2-1.8,1.6-3l-3.2-10.2L152.2,114.7z"/>
							
								<rect x="129.9" y="108.1" transform="matrix(0.9534 -0.3018 0.3018 0.9534 -26.674 47.1055)" class="st1" width="18.4" height="3.5"/>
						</g>
						<line class="st1" x1="152.2" y1="114.7" x2="141.7" y2="118"/>
					</g>
				</g>
			</g>
		</g>
	</g>
	<rect x="1" y="177.7" class="st7" width="170.2" height="7.4"/>
</g>
</svg>
