<?xml version="1.0" encoding="utf-8"?>
<!-- Generator: Adobe Illustrator 20.1.0, SVG Export Plug-In . SVG Version: 6.00 Build 0)  -->
<svg version="1.1" id="Слой_1" xmlns="http://www.w3.org/2000/svg" xmlns:xlink="http://www.w3.org/1999/xlink" x="0px" y="0px"
	 viewBox="0 0 355.3 367" style="enable-background:new 0 0 355.3 367;" xml:space="preserve">
<style type="text/css">
	.st0{fill:#DECD94;}
	.st1{fill:#FFF0AA;}
	.st2{fill:none;stroke:#312F2C;stroke-width:1.8;stroke-linecap:round;stroke-linejoin:round;stroke-miterlimit:10;}
	.st3{fill:none;stroke:#312F2C;stroke-width:0.6;stroke-linecap:round;stroke-linejoin:round;stroke-miterlimit:10;}
	.st4{fill:none;stroke:#312F2C;stroke-width:1.2;stroke-linecap:round;stroke-linejoin:round;stroke-miterlimit:10;}
	.st5{fill:none;stroke:#312F2C;stroke-width:3.6;stroke-linecap:round;stroke-linejoin:round;stroke-miterlimit:10;}
	
		.st6{fill:none;stroke:#312F2C;stroke-width:0.6;stroke-linecap:round;stroke-linejoin:round;stroke-miterlimit:10;stroke-dasharray:1.2;}
	.st7{fill:none;stroke:#312F2C;stroke-width:0.6;stroke-linecap:round;stroke-linejoin:round;stroke-dasharray:1.1675,1.1675;}
</style>
<path class="st0" d="M219.7,0C144.8,0,84.1,38.8,84.1,86.7c0,38,38.3,70.3,91.6,82L158.3,194l42-21.6c6.3,0.6,12.8,0.9,19.4,0.9
	c74.9,0,135.6-38.8,135.6-86.7C355.3,38.8,294.6,0,219.7,0z"/>
<g>
	<path class="st1" d="M122.5,242.8c0-0.1,0.1-0.1,0.1-0.2c0-0.1,0-0.1,0-0.2c0,0,0-0.1,0-0.1v-5.2h4.6c0.5,0,0.9-0.4,0.9-0.9V228
		h14.8c0.4,1.8,2,3.1,3.9,3.1c2.2,0,4-1.8,4-4s-1.8-4-4-4c-1.9,0-3.5,1.3-3.9,3.1h-14.8V218c0-0.5-0.4-0.9-0.9-0.9h-4.6v-5.5
		c0-7.8-4-14.7-10.1-18.7c4.1-4.3,5.8-9.5,4.9-15.1c0-0.2-0.2-0.4-0.4-0.6c-0.2-0.1-0.4-0.2-0.7-0.2c-7.3,1.2-17.4-10-25.5-19.1
		c-6.6-7.4-11.8-13.2-15.3-12.6c-0.4,0.1-0.6,0.3-0.7,0.7c-1.4,6-6.3,10.5-12.4,11.6c-6.1,1-12.2-1.7-15.5-6.9
		c-0.2-0.3-0.5-0.5-0.9-0.4c-3.5,0.6-6.5,7.8-10.3,16.9c-4.7,11.2-10.5,25.2-17.9,26.4c-0.5,0.1-0.8,0.5-0.7,1
		c1.3,7.6,6.9,12.9,15.6,14.8c-1.4,2.2-2.3,4.8-2.5,7.6h-4.6c-0.5,0-0.9,0.4-0.9,0.9v8.2H8c-0.4-1.8-2-3.1-3.9-3.1c-2.2,0-4,1.8-4,4
		s1.8,4,4,4c1.9,0,3.5-1.3,3.9-3.1h16.8v8.2c0,0.5,0.4,0.9,0.9,0.9h4.6v5.2c0,0,0,0.1,0,0.1c0,0.1,0,0.1,0,0.2
		c0,0.1,0.1,0.1,0.1,0.2c0,0,0,0.1,0.1,0.1l8.7,10.7c-4.8,7-9.1,14.3-12.9,21.8c0,0,0,0,0,0c-0.6,1.2-1.2,2.4-1.8,3.6c0,0,0,0,0,0
		c0,0,0,0,0,0c-2.5,5.1-4.7,10.3-6.7,15.7c0,0,0,0,0,0.1c0,0,0,0,0,0c-0.9,2.4-1.7,4.8-2.5,7.2l-1.1-0.3c-0.2-0.1-0.5,0-0.7,0.1
		c-0.2,0.1-0.4,0.3-0.4,0.5l-0.9,3.4l0,0c-0.7,2.6-0.4,5.3,1,7.7c1.2,2.1,3,3.6,5.2,4.5l-2.2,8c-2-0.3-4,0-5.8,1
		c-2,1.2-3.5,3.1-4.1,5.3c-1.3,4.7,1.5,9.5,6.2,10.8c0.8,0.2,1.6,0.3,2.4,0.3c1.5,0,3-0.4,4.3-1.2c2-1.2,3.5-3.1,4.1-5.3
		c0.1-0.5-0.1-1-0.6-1.1c-0.5-0.1-1,0.1-1.1,0.6c-0.5,1.8-1.7,3.3-3.3,4.2c-1.6,0.9-3.5,1.2-5.3,0.7c-3.7-1-5.9-4.9-4.9-8.6
		c0.5-1.8,1.7-3.3,3.3-4.2c1.6-0.9,3.5-1.2,5.3-0.7c0.1,0,0.2,0,0.2,0c0,0,0,0,0.1,0c0,0,0.1,0,0.1,0c0.1,0,0.1,0,0.2-0.1
		c0,0,0.1,0,0.1,0c0.1,0,0.1-0.1,0.2-0.1c0,0,0,0,0.1-0.1c0.1-0.1,0.1-0.2,0.2-0.3l2.4-8.9c0.6,0.1,1.2,0.2,1.8,0.2
		c1.7,0,3.4-0.4,5-1.3c2.3-1.3,4-3.5,4.8-6.1l0,0l0.9-3.4c0.1-0.2,0-0.5-0.1-0.7c-0.1-0.2-0.3-0.4-0.5-0.4l-0.9-0.2
		c2.3-7.6,5.1-15.1,8.4-22.4v34.4c0,0.5,0.4,0.9,0.9,0.9h4v2.6c0,0.5,0.4,0.9,0.9,0.9h0.7v17.1h-0.7c-0.5,0-0.9,0.4-0.9,0.9v2.6
		h-0.8c-0.5,0-0.9,0.4-0.9,0.9V359l-2.9,2.9c0,0,0,0,0,0c-0.1,0.1-0.1,0.2-0.2,0.3c0,0.1-0.1,0.2-0.1,0.3c0,0,0,0,0,0v3.5
		c0,0.5,0.4,0.9,0.9,0.9h18.4h6.6c0.5,0,0.9-0.4,0.9-0.9v-21.9c0-0.5-0.4-0.9-0.9-0.9h-0.8v-2.6c0-0.5-0.4-0.9-0.9-0.9h-0.7v-17.1
		h0.7c0.5,0,0.9-0.4,0.9-0.9v-2.6h24v2.6c0,0.5,0.4,0.9,0.9,0.9H90v6.6v3.5c0,0.5,0.4,0.9,0.9,0.9h3.7v32.4c0,0.5,0.4,0.9,0.9,0.9
		h6.1c0.5,0,0.9-0.4,0.9-0.9v-32.4h3.7c0.5,0,0.9-0.4,0.9-0.9v-3.5v-6.6h0.7c0.5,0,0.9-0.4,0.9-0.9v-2.6h4c0.5,0,0.9-0.4,0.9-0.9
		v-34.4c2.3,5,4.3,10.1,6.1,15.3l-0.8,0.2c-0.5,0.1-0.7,0.7-0.6,1.1l0.8,2.5l-0.8,0.3c-0.5,0.1-0.7,0.7-0.6,1.1l6.9,21.9
		c0.4,1.4,1.8,2.3,3.2,2.3c0.3,0,0.7,0,1-0.2c0.8-0.3,1.5-0.9,1.9-1.6c0.4-0.8,0.5-1.7,0.2-2.5l-2.8-8.8l1.8-0.6l3.3,10.5
		c0.6,1.7,2.4,2.7,4.2,2.2c0.8-0.3,1.5-0.9,1.9-1.6c0.4-0.8,0.5-1.7,0.2-2.5l-3.3-10.5l1.8-0.6l3,9.4c0.6,1.7,2.4,2.7,4.2,2.2
		c0.8-0.3,1.5-0.9,1.9-1.6c0.4-0.8,0.5-1.7,0.2-2.5l-4.6-14.6l3,0.4c0.9,0.1,1.8-0.1,2.5-0.6c0.7-0.5,1.2-1.3,1.3-2.2
		c0.1-0.9-0.1-1.8-0.6-2.5s-1.3-1.2-2.2-1.3l-6.2-0.9l-0.3-0.8c-0.2-0.5-0.7-0.7-1.1-0.6l-0.8,0.3l-0.8-2.5
		c-0.1-0.2-0.2-0.4-0.4-0.5c-0.2-0.1-0.5-0.1-0.7-0.1l-1.4,0.4c-1.9-5.2-4.2-10.3-6.6-15.4c0,0,0,0,0,0c0,0,0,0,0-0.1
		c-0.6-1.2-1.1-2.4-1.7-3.5l0,0c-3.8-7.5-8.2-14.8-12.9-21.8l8.7-10.7C122.4,242.9,122.4,242.8,122.5,242.8z"/>
	<g>
		<g>
			<g>
				<polyline class="st2" points="112.6,275.7 112.6,318.2 40.2,318.2 40.2,275.7 				"/>
				<path class="st3" d="M87.6,275.7c2.4,2.7,3.9,6.2,3.9,10.1c0,8.3-6.8,15.1-15.1,15.1c-8.3,0-15.1-6.8-15.1-15.1
					c0-3.9,1.5-7.5,3.9-10.1"/>
				<path class="st2" d="M90.6,275.7c2,2.9,3.2,6.4,3.2,10.1c0,9.6-7.8,17.5-17.5,17.5S59,295.5,59,285.9c0-3.8,1.2-7.3,3.2-10.1"/>
			</g>
			<g>
				<g>
					<g>
						<g>
							<path class="st2" d="M34.3,208.9c-8.5-1.5-14.9-6.4-16.2-14.4c13.5-2.3,21-42.1,28.2-43.3c3.4,5.3,9.8,8.4,16.4,7.3"/>
							<path class="st4" d="M63.2,162.1c-1.1,0.2-2.2,0.3-3.3,0.3c-5.3,0-10.4-2.2-14.2-5.9c-1.8,2.9-4.1,8.5-5.8,12.6
								c-4.7,11.1-9.9,23.6-17.5,27.8c2.3,5.7,8.3,8.4,15.3,9"/>
						</g>
						<g>
							<path class="st2" d="M111.1,193.1c4.3-4,6.4-9.2,5.4-15.1c-13.5,2.3-33.6-32.9-40.8-31.7c-1.5,6.1-6.5,11.1-13.1,12.2"/>
							<path class="st4" d="M107.5,191.4c0.4-0.3,0.8-0.7,1.1-1c2.8-2.6,4.3-5.6,4.5-8.9C104.5,180,95.5,170,87.5,161
								c-2.9-3.3-7-7.8-9.6-10c-2.7,5.8-8.2,10-14.7,11.1"/>
						</g>
					</g>
					<g>
						<line class="st2" x1="57" y1="169.5" x2="73.9" y2="181.6"/>
						<line class="st2" x1="59.4" y1="184" x2="71.5" y2="167.1"/>
					</g>
				</g>
				<path class="st2" d="M89.3,193.2c-6.4-2.7-13.6-3.7-21-2.5c-8.9,1.5-16.5,6-22.1,12.3"/>
				<g>
					<circle class="st2" cx="100.3" cy="211.6" r="21.4"/>
					<path class="st4" d="M100.3,229.5c-9.9,0-17.9-8-17.9-17.9c0-9.9,8-17.9,17.9-17.9c9.9,0,17.9,8,17.9,17.9
						C118.2,221.5,110.2,229.5,100.3,229.5z"/>
					<path class="st5" d="M100.3,226.4c-8.1,0-14.8-6.6-14.8-14.8c0-8.1,6.6-14.8,14.8-14.8s14.8,6.6,14.8,14.8
						C115.1,219.7,108.4,226.4,100.3,226.4z"/>
					<path class="st6" d="M100.3,224c-6.8,0-12.4-5.6-12.4-12.4s5.6-12.4,12.4-12.4s12.4,5.6,12.4,12.4S107.1,224,100.3,224z"/>
				</g>
				<circle class="st2" cx="46.1" cy="218" r="15"/>
				<path class="st4" d="M46.1,229.5c-6.3,0-11.5-5.2-11.5-11.5c0-6.3,5.2-11.5,11.5-11.5s11.5,5.2,11.5,11.5
					C57.6,224.4,52.5,229.5,46.1,229.5z"/>
				<circle class="st5" cx="46.1" cy="218" r="8.4"/>
				<g>
					<circle class="st7" cx="46.1" cy="218" r="6"/>
				</g>
				<polyline class="st2" points="121.7,211.6 121.7,242.3 31.2,242.3 31.2,218 				"/>
				<polyline class="st2" points="121.7,242.3 112.6,253.5 100.3,253.5 				"/>
				<polyline class="st2" points="61.1,253.5 40.2,253.5 31.2,242.3 				"/>
				<line class="st2" x1="56.8" y1="207.5" x2="80.2" y2="204.3"/>
				<polyline class="st2" points="31.2,218 25.7,218 25.7,236.3 31.2,236.3 				"/>
				<polyline class="st2" points="121.7,236.3 127.2,236.3 127.2,218 121.7,218 				"/>
				<line class="st2" x1="25.7" y1="227.1" x2="7.2" y2="227.1"/>
				<line class="st2" x1="127.2" y1="227.1" x2="143.7" y2="227.1"/>
				<circle class="st2" cx="4" cy="227.1" r="3.1"/>
				<circle class="st2" cx="146.8" cy="227.1" r="3.1"/>
				<line class="st2" x1="96.2" y1="253.5" x2="89.2" y2="253.5"/>
				<line class="st2" x1="84.8" y1="253.5" x2="81.3" y2="253.5"/>
				<line class="st3" x1="58.5" y1="209.6" x2="79.2" y2="207.7"/>
				<line class="st3" x1="31.2" y1="242.3" x2="118.5" y2="246.3"/>
				<line class="st2" x1="27" y1="275.7" x2="125.9" y2="275.7"/>
				<path class="st2" d="M27,275.7c3.9-7.6,8.3-15,13.3-22.2"/>
				<path class="st2" d="M125.9,275.7c-3.9-7.6-8.3-15-13.3-22.2"/>
			</g>
			<g>
				<rect x="45.1" y="318.2" class="st2" width="18.4" height="3.5"/>
				<rect x="40.2" y="362.6" class="st2" width="18.4" height="3.5"/>
				<g>
					<polyline class="st2" points="43.4,362.6 43.4,344.2 65.3,344.2 65.3,366.1 58.7,366.1 					"/>
					<rect x="45.1" y="340.7" class="st2" width="18.4" height="3.5"/>
					<g>
						<line class="st2" x1="46.7" y1="340.7" x2="46.7" y2="321.7"/>
						<line class="st2" x1="61.9" y1="340.7" x2="61.9" y2="321.7"/>
						<line class="st3" x1="46.7" y1="336.8" x2="62" y2="336.8"/>
						<line class="st3" x1="46.7" y1="333" x2="62" y2="333"/>
						<line class="st2" x1="46.7" y1="329.2" x2="61.9" y2="329.2"/>
						<line class="st3" x1="46.7" y1="325.4" x2="62" y2="325.4"/>
					</g>
				</g>
				<line class="st2" x1="40.2" y1="362.6" x2="43.4" y2="359.4"/>
			</g>
			<g>
				<rect x="89.4" y="318.2" class="st2" width="18.4" height="3.5"/>
				<rect x="95.5" y="333" class="st2" width="6.1" height="33"/>
				<rect x="90.9" y="329.2" class="st2" width="15.2" height="3.5"/>
				<line class="st2" x1="106.2" y1="329.2" x2="106.2" y2="321.7"/>
				<line class="st2" x1="90.9" y1="329.2" x2="90.9" y2="321.7"/>
				<line class="st3" x1="106.2" y1="325.4" x2="90.9" y2="325.4"/>
				<line class="st2" x1="101.6" y1="362.6" x2="95.5" y2="362.6"/>
			</g>
			<g>
				<g>
					<path class="st2" d="M15.8,302.9c3-9.2,6.7-18.3,11.2-27.2"/>
					<path class="st2" d="M29.8,306.7c2.7-9.1,6.2-18.1,10.4-26.9"/>
					<g>
						<line class="st2" x1="25.2" y1="279.2" x2="38.2" y2="284.2"/>
						<line class="st3" x1="23.4" y1="283.1" x2="36.6" y2="287.9"/>
						<line class="st3" x1="21.7" y1="287" x2="35.1" y2="291.6"/>
						<line class="st3" x1="20.1" y1="290.9" x2="33.7" y2="295.3"/>
						<line class="st2" x1="18.6" y1="294.9" x2="32.3" y2="299.1"/>
						<line class="st3" x1="17.1" y1="298.9" x2="31" y2="302.9"/>
						<line class="st3" x1="15.8" y1="302.9" x2="29.8" y2="306.7"/>
					</g>
				</g>
			</g>
			<g>
				
					<rect x="20.5" y="297.4" transform="matrix(0.2661 -0.964 0.964 0.2661 -279.2042 246.44)" class="st2" width="3.5" height="18.4"/>
				<path class="st2" d="M30.6,310.7c-1.4,4.9-6.4,7.8-11.3,6.4c-4.9-1.4-7.8-6.4-6.4-11.3"/>
				<line class="st2" x1="19.3" y1="317.1" x2="16.7" y2="326.8"/>
				<path class="st2" d="M22.2,336.5c-1.2,4.2-5.5,6.7-9.7,5.5c-4.2-1.2-6.7-5.5-5.5-9.7c1.2-4.2,5.5-6.7,9.7-5.5"/>
			</g>
			<g>
				<g>
					<path class="st2" d="M134.3,294.9c-2.4-6.5-5.2-12.9-8.4-19.2"/>
					<path class="st2" d="M120.6,299.1c-2.3-6.5-4.9-13-7.9-19.3"/>
					<g>
						<line class="st2" x1="127.6" y1="279.2" x2="114.7" y2="284.2"/>
						<line class="st3" x1="129.4" y1="283.1" x2="116.3" y2="287.9"/>
						<line class="st3" x1="131.1" y1="287" x2="117.8" y2="291.6"/>
						<line class="st3" x1="132.8" y1="290.9" x2="119.2" y2="295.3"/>
						<line class="st2" x1="134.3" y1="294.9" x2="120.6" y2="299.1"/>
					</g>
				</g>
				<g>
					<g>
						<path class="st2" d="M141.5,304l4.4,0.6c1.3,0.2,2.6-0.7,2.7-2.1s-0.7-2.6-2.1-2.7l-6.7-0.9l-0.4-1.3l-20.9,6.6l3.9,12.2
							l3.1,9.7c0.4,1.3,1.8,2,3,1.6c1.3-0.4,2-1.8,1.6-3l-3.1-9.7l3.5-1.1l3.6,11.4c0.4,1.3,1.8,2,3,1.6s2-1.8,1.6-3l-3.6-11.4
							l3.5-1.1l3.2,10.2c0.4,1.3,1.8,2,3,1.6c1.3-0.4,2-1.8,1.6-3l-3.2-10.2L141.5,304z"/>
						
							<rect x="119.3" y="297.4" transform="matrix(0.9534 -0.3018 0.3018 0.9534 -84.2867 52.7086)" class="st2" width="18.4" height="3.5"/>
					</g>
					<line class="st2" x1="141.5" y1="304" x2="131" y2="307.3"/>
				</g>
			</g>
		</g>
	</g>
</g>
</svg>
