<?xml version="1.0" encoding="utf-8"?>
<!-- Generator: Adobe Illustrator 20.1.0, SVG Export Plug-In . SVG Version: 6.00 Build 0)  -->
<svg version="1.1" id="Слой_1" xmlns="http://www.w3.org/2000/svg" xmlns:xlink="http://www.w3.org/1999/xlink" x="0px" y="0px"
	 viewBox="0 0 162.2 181.4" style="enable-background:new 0 0 162.2 181.4;" xml:space="preserve">
<style type="text/css">
	.st0{fill:#FFF0AA;}
	.st1{fill:none;stroke:#312F2C;stroke-width:1.8;stroke-linecap:round;stroke-linejoin:round;stroke-miterlimit:10;}
	.st2{fill:none;stroke:#312F2C;stroke-width:0.6;stroke-linecap:round;stroke-linejoin:round;stroke-miterlimit:10;}
	.st3{fill:none;stroke:#312F2C;stroke-width:1.2;stroke-linecap:round;stroke-linejoin:round;stroke-miterlimit:10;}
	.st4{fill:none;stroke:#312F2C;stroke-width:3.6;stroke-linecap:round;stroke-linejoin:round;stroke-miterlimit:10;}
	
		.st5{fill:none;stroke:#312F2C;stroke-width:0.6;stroke-linecap:round;stroke-linejoin:round;stroke-miterlimit:10;stroke-dasharray:1.2;}
	.st6{fill:none;stroke:#312F2C;stroke-width:0.6;stroke-linecap:round;stroke-linejoin:round;stroke-dasharray:1.1675,1.1675;}
</style>
<g>
	<path class="st0" d="M111.6,7.5c-10.2,0-18.5,8.3-18.5,18.5s8.3,18.5,18.5,18.5s18.5-8.3,18.5-18.5S121.8,7.5,111.6,7.5z
		 M111.6,43.3c-9.6,0-17.3-7.8-17.3-17.3s7.8-17.3,17.3-17.3s17.3,7.8,17.3,17.3S121.2,43.3,111.6,43.3z"/>
	<path class="st0" d="M111.6,9.4C102.5,9.4,95,16.8,95,26s7.4,16.6,16.6,16.6s16.6-7.4,16.6-16.6S120.8,9.4,111.6,9.4z M111.6,39
		c-7.2,0-13-5.8-13-13s5.8-13,13-13s13,5.8,13,13S118.8,39,111.6,39z"/>
	<path class="st0" d="M119,16.3c0.1,0,0.2,0,0.2-0.1c0.1-0.1,0.1-0.3-0.1-0.4c-0.3-0.2-0.7-0.5-1-0.7c-0.1-0.1-0.3,0-0.4,0.1
		c-0.1,0.1,0,0.3,0.1,0.4c0.3,0.2,0.7,0.4,1,0.7C118.9,16.3,118.9,16.3,119,16.3z"/>
	<path class="st0" d="M119.7,16.6c-0.1,0.1-0.1,0.3,0,0.4c0.3,0.3,0.6,0.5,0.8,0.8c0.1,0.1,0.1,0.1,0.2,0.1c0.1,0,0.1,0,0.2-0.1
		c0.1-0.1,0.1-0.3,0-0.4c-0.3-0.3-0.6-0.6-0.9-0.9C120,16.5,119.8,16.5,119.7,16.6z"/>
	<path class="st0" d="M120.7,33.9c-0.3,0.3-0.5,0.6-0.8,0.8c-0.1,0.1-0.1,0.3,0,0.4c0.1,0.1,0.1,0.1,0.2,0.1c0.1,0,0.1,0,0.2-0.1
		c0.3-0.3,0.6-0.6,0.8-0.9c0.1-0.1,0.1-0.3,0-0.4C121,33.8,120.8,33.8,120.7,33.9z"/>
	<path class="st0" d="M119,35.5c-0.3,0.2-0.6,0.5-1,0.7c-0.1,0.1-0.2,0.3-0.1,0.4c0.1,0.1,0.2,0.1,0.3,0.1c0.1,0,0.1,0,0.2,0
		c0.3-0.2,0.7-0.5,1-0.7c0.1-0.1,0.2-0.3,0.1-0.4C119.4,35.4,119.2,35.4,119,35.5z"/>
	<path class="st0" d="M114.9,37.6c-0.4,0.1-0.8,0.2-1.1,0.3c-0.2,0-0.3,0.2-0.2,0.3c0,0.1,0.2,0.2,0.3,0.2c0,0,0,0,0.1,0
		c0.4-0.1,0.8-0.2,1.2-0.3c0.2,0,0.3-0.2,0.2-0.4C115.2,37.7,115,37.6,114.9,37.6z"/>
	<path class="st0" d="M114.7,14.3c0.1,0,0.3-0.1,0.3-0.2c0-0.2-0.1-0.3-0.2-0.4c-0.4-0.1-0.8-0.2-1.2-0.2c-0.2,0-0.3,0.1-0.3,0.3
		c0,0.2,0.1,0.3,0.3,0.3C113.8,14.1,114.2,14.2,114.7,14.3C114.6,14.3,114.7,14.3,114.7,14.3z"/>
	<path class="st0" d="M116.9,15.1c0.1,0,0.2-0.1,0.3-0.2c0.1-0.1,0-0.3-0.1-0.4c-0.4-0.2-0.7-0.3-1.1-0.5c-0.2-0.1-0.3,0-0.4,0.2
		c-0.1,0.2,0,0.3,0.2,0.4c0.4,0.1,0.7,0.3,1.1,0.5C116.8,15.1,116.9,15.1,116.9,15.1z"/>
	<path class="st0" d="M117.1,36.8c-0.3,0.2-0.7,0.3-1.1,0.5c-0.2,0.1-0.2,0.2-0.2,0.4c0,0.1,0.2,0.2,0.3,0.2c0,0,0.1,0,0.1,0
		c0.4-0.1,0.8-0.3,1.1-0.5c0.1-0.1,0.2-0.3,0.1-0.4C117.4,36.7,117.2,36.7,117.1,36.8z"/>
	<path class="st0" d="M121.9,19.7c0.1,0.1,0.2,0.1,0.3,0.1c0.1,0,0.1,0,0.2,0c0.1-0.1,0.2-0.3,0.1-0.4c-0.2-0.3-0.4-0.7-0.7-1
		c-0.1-0.1-0.3-0.2-0.4-0.1c-0.1,0.1-0.2,0.3-0.1,0.4C121.5,19.1,121.7,19.4,121.9,19.7z"/>
	<path class="st0" d="M111.1,13.9c0.2,0,0.3,0,0.5,0c0.2,0,0.5,0,0.7,0c0,0,0,0,0,0c0.2,0,0.3-0.1,0.3-0.3c0-0.2-0.1-0.3-0.3-0.3
		c-0.2,0-0.5,0-0.7,0c-0.2,0-0.3,0-0.5,0c-0.2,0-0.3,0.1-0.3,0.3C110.8,13.8,110.9,13.9,111.1,13.9z"/>
	<path class="st0" d="M101,31.8c-0.1-0.1-0.3-0.2-0.4-0.1c-0.1,0.1-0.2,0.3-0.1,0.4c0.2,0.4,0.4,0.7,0.6,1c0.1,0.1,0.2,0.1,0.2,0.1
		c0.1,0,0.1,0,0.2-0.1c0.1-0.1,0.2-0.3,0.1-0.4C101.4,32.5,101.2,32.2,101,31.8z"/>
	<path class="st0" d="M100.5,30.8c-0.2-0.4-0.3-0.7-0.4-1.1c0-0.2-0.2-0.2-0.4-0.2c-0.2,0.1-0.2,0.2-0.2,0.4
		c0.1,0.4,0.3,0.8,0.4,1.1c0,0.1,0.2,0.2,0.3,0.2c0,0,0.1,0,0.1,0C100.5,31.1,100.6,30.9,100.5,30.8z"/>
	<path class="st0" d="M122.1,32c-0.2,0.3-0.4,0.7-0.6,1c-0.1,0.1-0.1,0.3,0.1,0.4c0.1,0,0.1,0.1,0.2,0.1c0.1,0,0.2,0,0.2-0.1
		c0.2-0.3,0.5-0.7,0.7-1c0.1-0.1,0-0.3-0.1-0.4C122.4,31.8,122.2,31.8,122.1,32z"/>
	<path class="st0" d="M122.5,20.7c0.2,0.4,0.3,0.7,0.5,1.1c0,0.1,0.2,0.2,0.3,0.2c0,0,0.1,0,0.1,0c0.2-0.1,0.2-0.2,0.2-0.4
		c-0.1-0.4-0.3-0.8-0.5-1.1c-0.1-0.1-0.2-0.2-0.4-0.1C122.5,20.4,122.4,20.6,122.5,20.7z"/>
	<path class="st0" d="M99.8,28.5c-0.1-0.4-0.1-0.8-0.2-1.2c0-0.2-0.2-0.3-0.3-0.3c-0.2,0-0.3,0.2-0.3,0.3c0,0.4,0.1,0.8,0.2,1.2
		c0,0.1,0.2,0.2,0.3,0.2c0,0,0,0,0.1,0C99.7,28.9,99.8,28.7,99.8,28.5z"/>
	<path class="st0" d="M123.3,22.9c0.1,0.4,0.2,0.8,0.2,1.1c0,0.1,0.2,0.3,0.3,0.3c0,0,0,0,0,0c0.2,0,0.3-0.2,0.2-0.3
		c-0.1-0.4-0.1-0.8-0.3-1.2c0-0.2-0.2-0.3-0.4-0.2C123.4,22.6,123.3,22.8,123.3,22.9z"/>
	<path class="st0" d="M123.4,29.7c-0.2-0.1-0.3,0-0.4,0.2c-0.1,0.4-0.3,0.7-0.4,1.1c-0.1,0.2,0,0.3,0.1,0.4c0,0,0.1,0,0.1,0
		c0.1,0,0.2-0.1,0.3-0.2c0.2-0.4,0.3-0.8,0.5-1.1C123.7,29.9,123.6,29.7,123.4,29.7z"/>
	<path class="st0" d="M123.9,27.3c-0.2,0-0.3,0.1-0.3,0.3c-0.1,0.4-0.1,0.8-0.2,1.2c0,0.2,0.1,0.3,0.2,0.4c0,0,0,0,0.1,0
		c0.1,0,0.3-0.1,0.3-0.2c0.1-0.4,0.2-0.8,0.2-1.2C124.2,27.5,124.1,27.3,123.9,27.3z"/>
	<path class="st0" d="M123.7,25.2c0,0.2,0,0.5,0,0.7c0,0.1,0,0.3,0,0.4c0,0.2,0.1,0.3,0.3,0.3c0,0,0,0,0,0c0.2,0,0.3-0.1,0.3-0.3
		c0-0.2,0-0.3,0-0.5c0-0.3,0-0.5,0-0.8c0-0.2-0.1-0.3-0.3-0.3C123.8,24.9,123.7,25.1,123.7,25.2z"/>
	<path class="st0" d="M101.1,19.7c0.1,0,0.2,0,0.3-0.1c0.2-0.3,0.4-0.7,0.7-1c0.1-0.1,0.1-0.3-0.1-0.4s-0.3-0.1-0.4,0.1
		c-0.2,0.3-0.5,0.7-0.7,1c-0.1,0.1,0,0.3,0.1,0.4C101,19.7,101.1,19.7,101.1,19.7z"/>
	<path class="st0" d="M99.9,21.8c0,0,0.1,0,0.1,0c0.1,0,0.2-0.1,0.3-0.2c0.1-0.4,0.3-0.7,0.5-1.1c0.1-0.1,0-0.3-0.1-0.4
		c-0.1-0.1-0.3,0-0.4,0.1c-0.2,0.4-0.3,0.7-0.5,1.1C99.7,21.6,99.8,21.8,99.9,21.8z"/>
	<path class="st0" d="M102.6,17.8c0.1,0,0.2,0,0.2-0.1c0.3-0.3,0.5-0.6,0.8-0.8c0.1-0.1,0.1-0.3,0-0.4c-0.1-0.1-0.3-0.1-0.4,0
		c-0.3,0.3-0.6,0.6-0.9,0.9c-0.1,0.1-0.1,0.3,0,0.4C102.5,17.8,102.5,17.8,102.6,17.8z"/>
	<path class="st0" d="M102.4,33.7c-0.1-0.1-0.3-0.1-0.4,0c-0.1,0.1-0.1,0.3,0,0.4c0.3,0.3,0.5,0.6,0.8,0.9c0.1,0.1,0.1,0.1,0.2,0.1
		c0.1,0,0.2,0,0.2-0.1c0.1-0.1,0.1-0.3,0-0.4C102.9,34.3,102.6,34,102.4,33.7z"/>
	<path class="st0" d="M112.6,38c-0.7,0.1-1.4,0.1-2.1,0c-0.2,0-0.3,0.1-0.3,0.3c0,0.2,0.1,0.3,0.3,0.3c0.4,0,0.8,0.1,1.2,0.1
		c0.3,0,0.7,0,1,0c0.2,0,0.3-0.2,0.3-0.3C112.9,38.1,112.8,38,112.6,38z"/>
	<path class="st0" d="M99.2,26.5C99.2,26.5,99.2,26.5,99.2,26.5c0.2,0,0.3-0.1,0.3-0.3c0-0.1,0-0.2,0-0.2c0-0.3,0-0.6,0-0.9
		c0-0.2-0.1-0.3-0.3-0.3c-0.2,0-0.3,0.1-0.3,0.3c0,0.3,0,0.6,0,1c0,0.1,0,0.2,0,0.3C98.9,26.4,99.1,26.5,99.2,26.5z"/>
	<path class="st0" d="M99.4,24.1C99.4,24.1,99.4,24.1,99.4,24.1c0.2,0,0.3-0.1,0.3-0.2c0.1-0.4,0.2-0.8,0.3-1.1c0-0.2,0-0.3-0.2-0.4
		c-0.2,0-0.3,0-0.4,0.2c-0.1,0.4-0.2,0.8-0.3,1.2C99.1,24,99.2,24.1,99.4,24.1z"/>
	<path class="st0" d="M104,35.4c-0.1-0.1-0.3-0.1-0.4,0s-0.1,0.3,0,0.4c0.3,0.3,0.6,0.5,1,0.7c0.1,0,0.1,0,0.2,0
		c0.1,0,0.2,0,0.3-0.1c0.1-0.1,0.1-0.3-0.1-0.4C104.7,35.9,104.3,35.6,104,35.4z"/>
	<path class="st0" d="M107.9,14.2c-0.1-0.2-0.2-0.2-0.4-0.2c-0.4,0.1-0.8,0.3-1.1,0.5c-0.2,0.1-0.2,0.2-0.1,0.4
		c0,0.1,0.2,0.2,0.3,0.2c0,0,0.1,0,0.1,0c0.4-0.2,0.7-0.3,1.1-0.4C107.8,14.5,107.9,14.3,107.9,14.2z"/>
	<path class="st0" d="M109.3,37.8c-0.4-0.1-0.8-0.2-1.1-0.3c-0.2,0-0.3,0-0.4,0.2c0,0.2,0,0.3,0.2,0.4c0.4,0.1,0.8,0.2,1.2,0.3
		c0,0,0,0,0.1,0c0.1,0,0.3-0.1,0.3-0.2C109.6,38,109.4,37.9,109.3,37.8z"/>
	<path class="st0" d="M107,37.2c-0.4-0.1-0.7-0.3-1.1-0.5c-0.1-0.1-0.3,0-0.4,0.1c-0.1,0.1,0,0.3,0.1,0.4c0.4,0.2,0.7,0.4,1.1,0.5
		c0,0,0.1,0,0.1,0c0.1,0,0.2-0.1,0.3-0.2C107.3,37.4,107.2,37.2,107,37.2z"/>
	<path class="st0" d="M110.2,13.7c0-0.2-0.2-0.3-0.3-0.3c-0.4,0.1-0.8,0.1-1.2,0.2c-0.2,0-0.3,0.2-0.2,0.4c0,0.1,0.2,0.2,0.3,0.2
		c0,0,0,0,0.1,0c0.4-0.1,0.8-0.2,1.1-0.2C110.1,14,110.2,13.8,110.2,13.7z"/>
	<path class="st0" d="M104.4,16.2c0.1,0,0.1,0,0.2-0.1c0.3-0.2,0.6-0.4,1-0.6c0.1-0.1,0.2-0.3,0.1-0.4c-0.1-0.1-0.3-0.2-0.4-0.1
		c-0.4,0.2-0.7,0.4-1,0.7c-0.1,0.1-0.2,0.3-0.1,0.4C104.2,16.2,104.3,16.2,104.4,16.2z"/>
	<path class="st0" d="M57.5,44.5c6.7,0,12.1-5.4,12.1-12.1c0-6.7-5.4-12.1-12.1-12.1c-6.7,0-12.1,5.4-12.1,12.1
		C45.4,39.1,50.8,44.5,57.5,44.5z M57.5,21.5c6,0,10.9,4.9,10.9,10.9s-4.9,10.9-10.9,10.9c-6,0-10.9-4.9-10.9-10.9
		S51.5,21.5,57.5,21.5z"/>
	<path class="st0" d="M57.5,42.6c5.6,0,10.2-4.6,10.2-10.2s-4.6-10.2-10.2-10.2c-5.6,0-10.2,4.6-10.2,10.2S51.9,42.6,57.5,42.6z
		 M57.5,25.8c3.6,0,6.6,2.9,6.6,6.6c0,3.6-2.9,6.6-6.6,6.6c-3.6,0-6.6-2.9-6.6-6.6C50.9,28.8,53.9,25.8,57.5,25.8z"/>
	<path class="st0" d="M55.2,27.2c0,0,0.1,0,0.1,0c0.3-0.1,0.7-0.3,1.1-0.3c0.2,0,0.3-0.2,0.2-0.4c0-0.2-0.2-0.3-0.4-0.2
		c-0.4,0.1-0.8,0.2-1.2,0.4c-0.2,0.1-0.2,0.2-0.2,0.4C54.9,27.1,55,27.2,55.2,27.2z"/>
	<path class="st0" d="M59.6,27.2c0.3,0.1,0.7,0.3,1,0.5c0.1,0,0.1,0,0.2,0c0.1,0,0.2,0,0.3-0.1c0.1-0.1,0.1-0.3-0.1-0.4
		c-0.3-0.2-0.7-0.4-1.1-0.6c-0.2-0.1-0.3,0-0.4,0.2C59.4,26.9,59.4,27.1,59.6,27.2z"/>
	<path class="st0" d="M57.5,26.7c0.4,0,0.7,0,1.1,0.1c0,0,0,0,0.1,0c0.1,0,0.3-0.1,0.3-0.2c0-0.2-0.1-0.3-0.2-0.4
		c-0.4-0.1-0.8-0.1-1.2-0.1h0c-0.2,0-0.3,0.1-0.3,0.3S57.3,26.7,57.5,26.7z"/>
	<path class="st0" d="M53.2,28.5c0.1,0,0.2,0,0.2-0.1c0.3-0.3,0.5-0.5,0.9-0.7c0.1-0.1,0.2-0.3,0.1-0.4c-0.1-0.1-0.3-0.2-0.4-0.1
		c-0.3,0.2-0.7,0.5-0.9,0.8c-0.1,0.1-0.1,0.3,0,0.4C53.1,28.5,53.2,28.5,53.2,28.5z"/>
	<path class="st0" d="M51.8,32.4c0-0.4,0-0.7,0.1-1.1c0-0.2-0.1-0.3-0.2-0.4c-0.2,0-0.3,0.1-0.4,0.2c-0.1,0.4-0.1,0.8-0.1,1.2v0
		c0,0.2,0.1,0.3,0.3,0.3S51.8,32.6,51.8,32.4z"/>
	<path class="st0" d="M62.2,29.2c0.1,0.1,0.2,0.1,0.2,0.1c0.1,0,0.1,0,0.2-0.1c0.1-0.1,0.2-0.3,0.1-0.4c-0.2-0.3-0.5-0.7-0.8-0.9
		c-0.1-0.1-0.3-0.1-0.4,0c-0.1,0.1-0.1,0.3,0,0.4C61.7,28.6,61.9,28.9,62.2,29.2z"/>
	<path class="st0" d="M52.2,34.6c-0.1-0.3-0.3-0.7-0.3-1.1c0-0.2-0.2-0.3-0.4-0.2c-0.2,0-0.3,0.2-0.2,0.4c0.1,0.4,0.2,0.8,0.4,1.2
		c0,0.1,0.2,0.2,0.3,0.2c0,0,0.1,0,0.1,0C52.2,34.9,52.3,34.7,52.2,34.6z"/>
	<path class="st0" d="M51.8,30.4c0,0,0.1,0,0.1,0c0.1,0,0.2-0.1,0.3-0.2c0.1-0.3,0.3-0.7,0.5-1c0.1-0.1,0.1-0.3-0.1-0.4
		c-0.1-0.1-0.3-0.1-0.4,0.1c-0.2,0.3-0.4,0.7-0.6,1.1C51.6,30.2,51.7,30.4,51.8,30.4z"/>
	<path class="st0" d="M53.3,36.9c0.1,0,0.2,0,0.2-0.1c0.1-0.1,0.1-0.3,0-0.4c-0.3-0.3-0.5-0.5-0.7-0.9c-0.1-0.1-0.3-0.2-0.4-0.1
		c-0.1,0.1-0.2,0.3-0.1,0.4c0.2,0.3,0.5,0.7,0.8,0.9C53.1,36.9,53.2,36.9,53.3,36.9z"/>
	<path class="st0" d="M62.7,30.2c0.1,0.3,0.3,0.7,0.3,1.1c0,0.1,0.2,0.2,0.3,0.2c0,0,0,0,0.1,0c0.2,0,0.3-0.2,0.2-0.4
		c-0.1-0.4-0.2-0.8-0.4-1.2c-0.1-0.2-0.2-0.2-0.4-0.2C62.7,29.9,62.6,30,62.7,30.2z"/>
	<path class="st0" d="M59.7,37.6c-0.3,0.1-0.7,0.3-1.1,0.3c-0.2,0-0.3,0.2-0.2,0.4c0,0.1,0.2,0.2,0.3,0.2c0,0,0,0,0.1,0
		c0.4-0.1,0.8-0.2,1.2-0.4c0.2-0.1,0.2-0.2,0.2-0.4S59.8,37.5,59.7,37.6z"/>
	<path class="st0" d="M54.3,37.1c-0.1-0.1-0.3-0.1-0.4,0.1c-0.1,0.1-0.1,0.3,0.1,0.4c0.3,0.2,0.7,0.4,1.1,0.6c0,0,0.1,0,0.1,0
		c0.1,0,0.2-0.1,0.3-0.2c0.1-0.2,0-0.3-0.2-0.4C55,37.5,54.6,37.3,54.3,37.1z"/>
	<path class="st0" d="M57.5,38.1c-0.4,0-0.7,0-1.1-0.1c-0.2,0-0.3,0.1-0.4,0.2c0,0.2,0.1,0.3,0.2,0.4c0.4,0.1,0.8,0.1,1.2,0.1
		c0,0,0.1,0,0.1,0c0.2,0,0.3-0.1,0.3-0.3C57.8,38.2,57.6,38.1,57.5,38.1z"/>
	<path class="st0" d="M63.1,32.4c0,0.4,0,0.7-0.1,1.1c0,0.2,0.1,0.3,0.2,0.4c0,0,0,0,0.1,0c0.1,0,0.3-0.1,0.3-0.2
		c0.1-0.4,0.1-0.8,0.1-1.2v-0.1c0-0.2-0.1-0.3-0.3-0.3S63.1,32.2,63.1,32.4z"/>
	<path class="st0" d="M61.5,36.4c-0.3,0.3-0.5,0.5-0.8,0.7c-0.1,0.1-0.2,0.3-0.1,0.4c0.1,0.1,0.2,0.1,0.2,0.1c0.1,0,0.1,0,0.2-0.1
		c0.3-0.2,0.7-0.5,0.9-0.8c0.1-0.1,0.1-0.3,0-0.4C61.8,36.2,61.6,36.2,61.5,36.4z"/>
	<path class="st0" d="M63.1,34.4c-0.2-0.1-0.3,0-0.4,0.2c-0.1,0.3-0.3,0.7-0.5,1c-0.1,0.1-0.1,0.3,0.1,0.4c0.1,0,0.1,0,0.2,0
		c0.1,0,0.2,0,0.3-0.1c0.2-0.3,0.4-0.7,0.6-1.1C63.3,34.6,63.3,34.4,63.1,34.4z"/>
	<path class="st0" d="M133.8,57.2c0-0.1,0.1-0.1,0.1-0.2c0-0.1,0-0.1,0-0.2c0,0,0-0.1,0-0.1v-5.2h4.6c0.5,0,0.9-0.4,0.9-0.9v-8.2
		h14.8c0.4,1.8,2,3.1,3.9,3.1c2.2,0,4-1.8,4-4s-1.8-4-4-4c-1.9,0-3.5,1.3-3.9,3.1h-14.8v-8.2c0-0.5-0.4-0.9-0.9-0.9h-4.6V26v0
		c0-12.3-10-22.3-22.3-22.3c-9.4,0-17.5,5.9-20.8,14.2l-22.4,3.1c-2.9-2.7-6.7-4.4-11-4.4c-8.5,0-15.4,6.6-15.8,15H37
		c-0.5,0-0.9,0.4-0.9,0.9v8.2h-8.4c-1.6-3.1-3.2-6.2-4.7-9.4l1.4-0.2c0.5-0.1,0.8-0.5,0.8-1l-0.3-2.6l0.8-0.1c0.2,0,0.5-0.2,0.6-0.3
		c0.1-0.2,0.2-0.4,0.2-0.7l-0.1-0.8l5.2-3.4c0.7-0.5,1.3-1.2,1.4-2.1c0.2-0.9,0-1.8-0.5-2.5c-0.5-0.7-1.2-1.3-2.1-1.4
		c-0.9-0.2-1.8,0-2.5,0.5l-2.6,1.7L23.4,3c-0.1-0.9-0.6-1.7-1.3-2.2c-0.7-0.5-1.6-0.8-2.5-0.7c-1.8,0.2-3.1,1.9-2.9,3.7l1.3,9.7
		l-1.8,0.2L14.8,2.9c-0.1-0.9-0.6-1.7-1.3-2.2S12-0.1,11.1,0C9.3,0.3,8,1.9,8.2,3.8l1.4,10.9L7.8,15L6.6,5.8C6.4,4,4.7,2.7,2.9,2.9
		C1.1,3.2-0.2,4.8,0,6.7l3,22.7c0,0.2,0.2,0.5,0.3,0.6c0.2,0.1,0.4,0.2,0.5,0.2c0,0,0.1,0,0.1,0l0.8-0.1l0.3,2.6
		c0,0.2,0.2,0.5,0.3,0.6c0.2,0.1,0.4,0.2,0.5,0.2c0,0,0.1,0,0.1,0l1.3-0.2c7.2,18.6,17.9,36.5,31.7,53.1c-0.6,1.1-1.2,2.2-1.8,3.4
		c0,0,0,0,0,0c0,0.1,0,0.1,0,0.2c0,0.1,0,0.1,0,0.2c0,0,0,0,0,0c0,0,0,0.1,0,0.1c0,0.1,0,0.1,0,0.2c0,0.1,0.1,0.1,0.1,0.2
		c0,0,0.1,0.1,0.1,0.1c0,0,0.1,0.1,0.1,0.1c0,0,0.1,0.1,0.1,0.1c0,0,0,0,0,0C38,91,38.2,91,38.3,91c0,0,0,0,0,0c0,0,0,0,0,0h12.4
		v41.6c0,0.5,0.4,0.9,0.9,0.9h4v2.6c0,0.5,0.4,0.9,0.9,0.9h0.7v17.1h-0.7c-0.5,0-0.9,0.4-0.9,0.9v2.6h-0.8c-0.5,0-0.9,0.4-0.9,0.9
		v14.9l-2.9,2.9c0,0,0,0,0,0c-0.1,0.1-0.1,0.2-0.2,0.3c0,0.1-0.1,0.2-0.1,0.3v3.5c0,0.5,0.4,0.9,0.9,0.9H70h6.6
		c0.5,0,0.9-0.4,0.9-0.9v-21.9c0-0.5-0.4-0.9-0.9-0.9h-0.8V155c0-0.5-0.4-0.9-0.9-0.9h-0.7V137h0.7c0.5,0,0.9-0.4,0.9-0.9v-2.6h24
		v2.6c0,0.5,0.4,0.9,0.9,0.9h0.7v17.1h-0.7c-0.5,0-0.9,0.4-0.9,0.9v2.6h-0.8c-0.5,0-0.9,0.4-0.9,0.9v21.9c0,0.5,0.4,0.9,0.9,0.9h6.6
		h18.4c0.5,0,0.9-0.4,0.9-0.9v-3.5c0-0.1,0-0.2-0.1-0.3c0-0.1-0.1-0.2-0.2-0.3c0,0,0,0,0,0l-2.9-2.9v-14.9c0-0.5-0.4-0.9-0.9-0.9
		H120V155c0-0.5-0.4-0.9-0.9-0.9h-0.7V137h0.7c0.5,0,0.9-0.4,0.9-0.9v-2.6h4c0.5,0,0.9-0.4,0.9-0.9v-4.8c0.5,0.3,1,0.5,1.6,0.5
		c0,0,0.1,0,0.1,0c0.8,0,1.7-0.3,2.3-0.9l2.2-2.1l1.4,4.4l3.2,10.2c0.4,1.4,1.8,2.3,3.2,2.3c0.3,0,0.7-0.1,1-0.2
		c0.8-0.3,1.5-0.9,1.9-1.6c0.4-0.8,0.5-1.7,0.2-2.5l-3-9.4l1.8-0.6l3.3,10.5c0.4,1.4,1.8,2.3,3.2,2.3c0.3,0,0.7,0,1-0.2
		c0.8-0.3,1.5-0.9,1.9-1.6c0.4-0.8,0.5-1.7,0.2-2.5l-3.3-10.5l1.8-0.6l2.8,8.8c0.3,0.8,0.9,1.5,1.6,1.9c0.5,0.3,1,0.4,1.5,0.4
		c0.3,0,0.7-0.1,1-0.2c1.8-0.6,2.7-2.4,2.2-4.2l-3.1-9.7c0,0,0,0,0,0l-3.4-10.8c-0.1-0.2-0.2-0.4-0.4-0.5c-0.2-0.1-0.5-0.1-0.7-0.1
		l-0.8,0.3l-0.8-2.5c-0.1-0.2-0.2-0.4-0.4-0.5c-0.2-0.1-0.5-0.1-0.7-0.1l-1.4,0.4c-1.9-5.2-4.2-10.3-6.6-15.4c0,0,0,0,0,0
		c0,0,0-0.1,0-0.1c-0.6-1.2-1.1-2.4-1.7-3.5c-3.8-7.5-8.2-14.8-12.9-21.8l8.7-10.7C133.7,57.2,133.8,57.2,133.8,57.2z"/>
	<path class="st0" d="M100.5,68.8h7c0.5,0,0.9-0.4,0.9-0.9S108,67,107.5,67h-7c-0.5,0-0.9,0.4-0.9,0.9S100,68.8,100.5,68.8z"/>
	<path class="st0" d="M92.6,68.8h3.5c0.5,0,0.9-0.4,0.9-0.9S96.6,67,96.1,67h-3.5c-0.5,0-0.9,0.4-0.9,0.9S92.1,68.8,92.6,68.8z"/>
	<g>
		<g>
			<g>
				<rect x="100.7" y="132.6" class="st1" width="18.4" height="3.5"/>
				<rect x="105.5" y="176.9" class="st1" width="18.4" height="3.5"/>
				<g>
					<polyline class="st1" points="120.8,176.9 120.8,158.6 98.9,158.6 98.9,180.5 105.5,180.5 					"/>
					<rect x="100.6" y="155" class="st1" width="18.4" height="3.5"/>
					<g>
						<line class="st1" x1="117.5" y1="155" x2="117.5" y2="136.1"/>
						<line class="st1" x1="102.3" y1="155" x2="102.3" y2="136.1"/>
						<line class="st2" x1="117.5" y1="151.2" x2="102.2" y2="151.2"/>
						<line class="st2" x1="117.5" y1="147.4" x2="102.2" y2="147.4"/>
						<line class="st1" x1="117.5" y1="143.6" x2="102.3" y2="143.6"/>
						<line class="st2" x1="117.5" y1="139.8" x2="102.2" y2="139.8"/>
					</g>
				</g>
				<line class="st1" x1="123.9" y1="176.9" x2="120.8" y2="173.8"/>
			</g>
			<g>
				<rect x="56.4" y="132.6" class="st1" width="18.4" height="3.5"/>
				<rect x="51.6" y="176.9" class="st1" width="18.4" height="3.5"/>
				<g>
					<polyline class="st1" points="54.7,176.9 54.7,158.6 76.6,158.6 76.6,180.5 70,180.5 					"/>
					<rect x="56.4" y="155" class="st1" width="18.4" height="3.5"/>
					<g>
						<line class="st1" x1="58" y1="155" x2="58" y2="136.1"/>
						<line class="st1" x1="73.2" y1="155" x2="73.2" y2="136.1"/>
						<line class="st2" x1="58" y1="151.2" x2="73.3" y2="151.2"/>
						<line class="st2" x1="58" y1="147.4" x2="73.3" y2="147.4"/>
						<line class="st1" x1="58" y1="143.6" x2="73.2" y2="143.6"/>
						<line class="st2" x1="58" y1="139.8" x2="73.3" y2="139.8"/>
					</g>
				</g>
				<line class="st1" x1="51.6" y1="176.9" x2="54.7" y2="173.8"/>
			</g>
			<g>
				<polyline class="st1" points="123.9,90.1 123.9,132.6 51.6,132.6 51.6,90.1 				"/>
				<path class="st2" d="M98.9,90.1c2.4,2.7,3.9,6.2,3.9,10.1c0,8.3-6.8,15.1-15.1,15.1c-8.3,0-15.1-6.8-15.1-15.1
					c0-3.9,1.5-7.5,3.9-10.1"/>
				<path class="st1" d="M102,90.1c2,2.9,3.2,6.4,3.2,10.1c0,9.6-7.8,17.5-17.5,17.5s-17.5-7.8-17.5-17.5c0-3.8,1.2-7.3,3.2-10.1"/>
			</g>
			<g>
				<g>
					<circle class="st1" cx="111.6" cy="26" r="21.4"/>
					<path class="st3" d="M111.6,43.9c-9.9,0-17.9-8-17.9-17.9s8-17.9,17.9-17.9c9.9,0,17.9,8,17.9,17.9S121.5,43.9,111.6,43.9z"/>
					<path class="st4" d="M111.6,40.8c-8.1,0-14.8-6.6-14.8-14.8s6.6-14.8,14.8-14.8s14.8,6.6,14.8,14.8S119.8,40.8,111.6,40.8z"/>
					<path class="st5" d="M111.6,38.4c-6.8,0-12.4-5.6-12.4-12.4s5.6-12.4,12.4-12.4S124,19.2,124,26S118.4,38.4,111.6,38.4z"/>
				</g>
				<circle class="st1" cx="57.5" cy="32.4" r="15"/>
				<path class="st3" d="M57.5,43.9c-6.3,0-11.5-5.2-11.5-11.5c0-6.3,5.2-11.5,11.5-11.5S69,26.1,69,32.4
					C69,38.7,63.8,43.9,57.5,43.9z"/>
				<circle class="st4" cx="57.5" cy="32.4" r="8.4"/>
				<g>
					<circle class="st6" cx="57.5" cy="32.4" r="6"/>
				</g>
				<polyline class="st1" points="133,26 133,56.7 42.5,56.7 42.5,32.4 				"/>
				<polyline class="st1" points="133,56.7 123.9,67.9 111.6,67.9 				"/>
				<polyline class="st1" points="72.5,67.9 51.6,67.9 42.5,56.7 				"/>
				<line class="st1" x1="68.1" y1="21.9" x2="91.5" y2="18.6"/>
				<polyline class="st1" points="42.5,32.4 37,32.4 37,50.7 42.5,50.7 				"/>
				<polyline class="st1" points="133,50.7 138.5,50.7 138.5,32.4 133,32.4 				"/>
				<line class="st1" x1="138.5" y1="41.5" x2="155" y2="41.5"/>
				<circle class="st1" cx="158.2" cy="41.5" r="3.1"/>
				<line class="st1" x1="37" y1="41.5" x2="27.2" y2="41.5"/>
				<line class="st1" x1="107.5" y1="67.9" x2="100.5" y2="67.9"/>
				<line class="st1" x1="96.1" y1="67.9" x2="92.6" y2="67.9"/>
				<line class="st2" x1="69.9" y1="24" x2="90.6" y2="22.1"/>
				<line class="st2" x1="42.5" y1="56.7" x2="129.8" y2="60.7"/>
				<line class="st1" x1="38.3" y1="90.1" x2="137.2" y2="90.1"/>
				<path class="st1" d="M38.3,90.1c3.9-7.6,8.3-15,13.3-22.2"/>
				<path class="st1" d="M137.2,90.1c-3.9-7.6-8.3-15-13.3-22.2"/>
			</g>
			<g>
				<g>
					<g>
						<path class="st1" d="M24.7,19.7l3.8-2.4c1.1-0.7,2.6-0.4,3.4,0.7c0.7,1.1,0.4,2.6-0.7,3.4L25.5,25l0.2,1.4L3.9,29.3L2.3,16.6
							l-1.3-10C0.7,5.2,1.7,4,3,3.8c1.3-0.2,2.6,0.8,2.7,2.1l1.3,10l3.6-0.5L9.1,3.6C9,2.3,9.9,1.1,11.2,0.9s2.6,0.8,2.7,2.1
							l1.6,11.8l3.6-0.5L17.7,3.7c-0.2-1.3,0.8-2.6,2.1-2.7c1.3-0.2,2.6,0.8,2.7,2.1L24,13.7L24.7,19.7z"/>
						
							<rect x="5.8" y="27.8" transform="matrix(0.9914 -0.1311 0.1311 0.9914 -3.7492 2.2242)" class="st1" width="18.4" height="3.5"/>
					</g>
					<line class="st1" x1="24.7" y1="19.7" x2="13.9" y2="21.1"/>
				</g>
				<g>
					<g>
						<path class="st1" d="M40.3,86.2C27.2,70.5,15.8,52.5,8.1,32.3"/>
						<path class="st1" d="M48.2,72.8C37.8,60.2,28.8,46,21.7,30.5"/>
						<g>
							<line class="st1" x1="23.1" y1="61.9" x2="34.4" y2="53.8"/>
							<line class="st2" x1="25.3" y1="65.5" x2="36.5" y2="57.2"/>
							<line class="st2" x1="27.6" y1="69.1" x2="38.8" y2="60.5"/>
							<line class="st2" x1="30" y1="72.6" x2="41.1" y2="63.7"/>
							<line class="st1" x1="32.4" y1="76.1" x2="43.5" y2="66.9"/>
							<line class="st2" x1="35" y1="79.5" x2="46" y2="70.1"/>
							<path class="st2" d="M20.5,58.1c1.4-1,2.8-1.9,4.2-2.7c2.5-1.6,5.1-3.1,7.6-4.7"/>
							<path class="st2" d="M18.4,54.3c3.9-2.5,7.9-4.9,11.8-7.4"/>
							<path class="st2" d="M16.1,50.1c4-2.2,8-4.5,12-6.7"/>
							<path class="st2" d="M13.6,45c4.2-1.8,8.4-3.6,12.6-5.4"/>
							<path class="st2" d="M11.5,40.3c4.1-1.8,8.3-3.5,12.5-5.1"/>
							<path class="st2" d="M9.5,35.8c4.4-1.1,8.8-2.2,13.1-3.2"/>
						</g>
					</g>
				</g>
			</g>
			<g>
				<g>
					<path class="st1" d="M137.9,127.9l3.2,10.2c0.4,1.3-0.3,2.6-1.6,3l0,0c-1.3,0.4-2.6-0.3-3-1.6l-3.2-10.2"/>
					<path class="st1" d="M131.5,123.7l-3.3,3.1c-1,0.9-2.5,0.9-3.4-0.1v0c-0.9-1-0.9-2.5,0.1-3.4l5-4.6"/>
					<path class="st1" d="M154.2,122.8l3.1,9.7c0.4,1.3-0.3,2.6-1.6,3v0c-1.3,0.4-2.6-0.3-3-1.6l-3.1-9.7"/>
					<path class="st1" d="M146.1,125.3l3.6,11.4c0.4,1.3-0.3,2.6-1.6,3h0c-1.3,0.4-2.6-0.3-3-1.6l-3.6-11.4"/>
					
						<rect x="131.1" y="115" transform="matrix(0.9534 -0.3018 0.3018 0.9534 -29.7872 48.4819)" class="st1" width="21.9" height="11.4"/>
					<g>
						
							<rect x="130.6" y="111.8" transform="matrix(0.9534 -0.3018 0.3018 0.9534 -27.7497 47.4729)" class="st1" width="18.4" height="3.5"/>
					</g>
				</g>
				<g>
					<g>
						<path class="st1" d="M145.6,109.3c-2.4-6.5-5.2-12.9-8.4-19.2"/>
						<path class="st1" d="M131.9,113.5c-2.3-6.5-4.9-13-7.9-19.3"/>
						<g>
							<line class="st1" x1="138.9" y1="93.6" x2="126" y2="98.6"/>
							<line class="st2" x1="140.7" y1="97.5" x2="127.6" y2="102.3"/>
							<line class="st2" x1="142.5" y1="101.4" x2="129.1" y2="106"/>
							<line class="st2" x1="144.1" y1="105.3" x2="130.5" y2="109.7"/>
							<line class="st1" x1="145.6" y1="109.3" x2="131.9" y2="113.5"/>
						</g>
					</g>
				</g>
			</g>
		</g>
	</g>
</g>
</svg>
