<?xml version="1.0" encoding="utf-8"?>
<!-- Generator: Adobe Illustrator 19.0.0, SVG Export Plug-In . SVG Version: 6.00 Build 0)  -->
<svg version="1.1" id="Слой_1" xmlns="http://www.w3.org/2000/svg" xmlns:xlink="http://www.w3.org/1999/xlink" x="0px" y="0px"
	 viewBox="0 0 1920 574.7" style="enable-background:new 0 0 1920 574.7;" xml:space="preserve">
<style type="text/css">
	.st0{fill:#F4E1A1;}
	.st1{fill:none;stroke:#827957;stroke-width:2;stroke-linecap:round;stroke-linejoin:round;stroke-miterlimit:10;}
	.st2{fill:none;stroke:#827957;stroke-linecap:round;stroke-linejoin:round;stroke-miterlimit:10;}
	.st3{display:none;fill:none;stroke:#827957;stroke-width:2;stroke-linecap:round;stroke-linejoin:round;stroke-miterlimit:10;}
</style>
<g id="conveer_x5F_elements">
	<g id="_x30_3">
		<rect x="240" y="84.6" class="st0" width="1134.1" height="378"/>
		<rect x="240" y="84.6" class="st1" width="1134.1" height="378"/>
		<polyline class="st1" points="270.4,104.7 1354,104.7 1354,401.3 260,401.3 260,115 		"/>
		<rect x="1019.7" y="432.2" class="st1" width="177.2" height="30.4"/>
		<rect x="417.2" y="432.2" class="st1" width="177.2" height="30.4"/>
		<line class="st1" x1="300.6" y1="104.7" x2="300.6" y2="379.3"/>
		<line class="st1" x1="341.2" y1="104.7" x2="341.2" y2="379.3"/>
		<line class="st1" x1="381.7" y1="104.7" x2="381.7" y2="379.3"/>
		<line class="st1" x1="422.3" y1="104.7" x2="422.3" y2="379.3"/>
		<line class="st1" x1="462.9" y1="104.7" x2="462.9" y2="379.3"/>
		<line class="st1" x1="503.4" y1="104.7" x2="503.4" y2="379.3"/>
		<line class="st1" x1="544" y1="104.7" x2="544" y2="379.3"/>
		<line class="st1" x1="584.5" y1="104.7" x2="584.5" y2="379.3"/>
		<line class="st1" x1="625.1" y1="104.7" x2="625.1" y2="379.3"/>
		<line class="st1" x1="665.7" y1="104.7" x2="665.7" y2="379.3"/>
		<line class="st1" x1="706.2" y1="104.7" x2="706.2" y2="379.3"/>
		<line class="st1" x1="746.8" y1="104.7" x2="746.8" y2="379.3"/>
		<line class="st1" x1="787.3" y1="104.7" x2="787.3" y2="379.3"/>
		<line class="st1" x1="827.9" y1="104.7" x2="827.9" y2="379.3"/>
		<line class="st1" x1="868.5" y1="104.7" x2="868.5" y2="379.3"/>
		<line class="st1" x1="909" y1="104.7" x2="909" y2="379.3"/>
		<line class="st1" x1="949.6" y1="104.7" x2="949.6" y2="379.3"/>
		<line class="st1" x1="990.1" y1="104.7" x2="990.1" y2="379.3"/>
		<line class="st1" x1="1030.7" y1="104.7" x2="1030.7" y2="379.3"/>
		<line class="st1" x1="1071.3" y1="104.7" x2="1071.3" y2="379.3"/>
		<line class="st1" x1="1111.8" y1="104.7" x2="1111.8" y2="379.3"/>
		<line class="st1" x1="1152.4" y1="104.7" x2="1152.4" y2="379.3"/>
		<line class="st1" x1="1193" y1="104.7" x2="1193" y2="379.3"/>
		<line class="st1" x1="1233.5" y1="104.7" x2="1233.5" y2="379.3"/>
		<line class="st1" x1="1274.1" y1="104.7" x2="1274.1" y2="379.3"/>
		<line class="st1" x1="1314.6" y1="104.7" x2="1314.6" y2="379.3"/>
		<g>
			<path class="st2" d="M381.7,150.8c12-5.1,25.1-7.7,39.1-7.7c0.5,0,0.9,0,1.4,0 M462.9,152.2c6.6,3.1,12.9,7,19,11.6
				c3.5,2.8,5.6,6.4,6.3,10.9c0.6,4.6-0.6,8.7-3.4,12.3s-6.4,5.7-10.9,6.3c-4,0.5-7.7-0.3-11-2.3 M422.3,176.3c-0.5,0-0.9,0-1.4,0
				c-14.8,0-27.8,4.2-39.1,12.6 M381.7,297.2c11.3,8.4,24.4,12.7,39.1,12.7c0.5,0,0.9,0,1.4,0 M462.9,295.1c1-0.8,2-1.7,3.1-2.6
				c3.4-3.1,7.3-4.5,11.9-4.3s8.4,2,11.5,5.5c3.1,3.4,4.5,7.3,4.3,11.9s-2,8.4-5.3,11.5c-7.9,7.2-16.4,12.9-25.4,17.1 M422.3,343
				c-0.5,0-0.9,0-1.4,0c-14.1,0-27.1-2.6-39.1-7.7 M341.2,303.4C327.7,286.1,321,266,321,243.1s6.7-43,20.1-60.4"/>
			<path class="st2" d="M544,149.7c0.5-0.6,1-1.1,1.5-1.6c3.2-3.3,7-4.9,11.6-4.9s8.4,1.6,11.6,4.9c3.3,3.2,4.9,7,4.9,11.6v166.8
				c0,4.6-1.6,8.4-4.9,11.6c-3.2,3.3-7,4.9-11.6,4.9s-8.4-1.6-11.6-4.9c-0.5-0.5-1-1.1-1.5-1.7"/>
			<path class="st2" d="M706.2,218.3l27.4,45.2l13.2-21.8 M787.3,174.7l15-24.9c1.9-3.2,4.5-5.5,8-6.9c3.4-1.3,5.2-2,5.2-2
				s1.8,0.5,5.5,1.4c2.7,0.8,5,2.1,6.9,4 M827.9,338.4c-3.2,3-7,4.6-11.4,4.6c-4.6,0-8.5-1.6-11.7-4.9c-3.2-3.2-4.8-7-4.8-11.6
				V217.7l-12.7,20.9 M746.8,305.5l-0.3,0.5c-0.4,0.4-0.6,0.6-0.7,0.7c-0.1,0.1-0.3,0.3-0.6,0.6c-0.3,0.3-0.5,0.5-0.6,0.6
				c-0.2,0.2-0.5,0.4-0.8,0.7l-0.4,0.4c-0.3,0.2-0.6,0.4-1,0.6c0,0.1,0,0.1-0.1,0.1l-0.1,0.1H742c-0.2,0.2-0.5,0.4-1,0.6
				c-0.4,0.2-0.5,0.3-0.4,0.3c-0.1,0-0.4,0.1-0.8,0.3c-2.1,0.9-4.4,1.3-6.7,1.3h-0.3c0.2,0,0,0-0.6-0.1c-1.2-0.1-2.4-0.3-3.6-0.7
				c-0.5-0.1-0.7-0.1-0.6-0.1c0.2,0.1,0,0-0.6-0.1c-0.5-0.2-0.8-0.3-1-0.4c0.1,0,0-0.1-0.3-0.3c-0.5-0.2-0.8-0.4-1.1-0.6h-0.1
				l-0.1-0.1l-0.1-0.1c-0.4-0.2-0.7-0.4-1-0.7c0,0.1-0.1,0-0.4-0.3c-0.4-0.3-0.7-0.5-0.8-0.7c-0.1-0.1-0.3-0.3-0.6-0.6
				c-0.3-0.3-0.5-0.5-0.6-0.6c-0.1-0.2-0.3-0.4-0.7-0.7c-0.2-0.3-0.3-0.5-0.3-0.6c-0.2-0.2-0.4-0.5-0.7-1l-0.1-0.1
				c0-0.1,0-0.1-0.1-0.1v-0.1c0-0.1,0-0.1-0.1-0.1l-12.9-21.4 M665.7,333.4c-0.8,1.7-1.9,3.3-3.4,4.7c-3.3,3.3-7.2,4.9-11.7,4.9
				s-8.4-1.6-11.6-4.9c-3.3-3.2-4.9-7-4.9-11.6V158.4c0-3.7,1.1-7,3.4-9.9c2.2-3,5.2-5,8.8-6c3.5-0.9,7-0.7,10.5,0.6
				c3.5,1.4,6.2,3.7,8.1,6.9l0.9,1.5"/>
			<path class="st2" d="M949.6,147c9.9-3.2,20.4-4.8,31.7-4.8c3,0,6,0.1,8.9,0.3 M1030.7,154.9c7.7,4.4,14.9,10,21.6,16.6
				c7.9,8,14.3,16.6,19,25.9 M1071.3,287.6c-4.7,9.3-11,17.9-19,25.8c-6.7,6.7-13.9,12.3-21.6,16.7 M990.1,342.6
				c-2.9,0.2-5.9,0.4-8.9,0.4c-11.2,0-21.8-1.6-31.7-4.8 M909,312.1c-18.8-19.3-28.2-42.5-28.2-69.6s9.4-50.3,28.2-69.7
				 M949.6,302.2c9.5,5.2,20,7.8,31.7,7.8c3,0,6-0.2,8.9-0.5 M1030.7,288.3c12-12.8,17.9-28,17.9-45.7s-6-33-17.9-45.8 M990.1,175.7
				c-2.9-0.4-5.9-0.5-8.9-0.5c-11.6,0-22.2,2.6-31.7,7.7"/>
			<path class="st2" d="M1152.4,143.1L1152.4,143.1c3.4,1,6.1,2.9,8.3,5.7l32.3,41.6 M1233.5,242.7l27.7,35.7V158.9
				c0-4.6,1.6-8.4,4.8-11.6c2.4-2.4,5.1-3.9,8.1-4.5 M1274.2,342.6c-0.1,0-0.2-0.1-0.6-0.2c-0.5-0.1-0.8-0.2-1.1-0.3
				c-0.1,0-0.3-0.1-0.6-0.3c-0.5-0.1-0.8-0.2-1.1-0.4c-0.2,0-0.4-0.1-0.6-0.3c-0.4-0.2-0.7-0.3-1-0.4c-0.3-0.2-0.5-0.3-0.6-0.4
				c-0.3-0.2-0.6-0.4-1-0.7c-0.3-0.2-0.5-0.3-0.6-0.4c-0.5-0.4-0.9-0.7-1.3-1.1l-0.1-0.1v-0.1c-0.4-0.4-0.6-0.6-0.6-0.6
				s-0.1-0.2-0.4-0.6h-0.1v-0.1l-31.2-40.1 M1193,244.2l-28.8-37v119.3c0,4.6-1.6,8.4-4.9,11.6c-2,2.1-4.3,3.5-6.9,4.2"/>
		</g>
		<line class="st1" x1="260" y1="379.3" x2="1354" y2="379.3"/>
		<rect x="240" y="84.6" class="st1" width="30.4" height="30.4"/>
		<polyline class="st1" points="1343.7,104.7 1343.7,84.6 1374.1,84.6 1374.1,115 1354,115 		"/>
		<rect x="240" y="432.2" class="st1" width="30.4" height="30.4"/>
		<rect x="1343.7" y="432.2" class="st1" width="30.4" height="30.4"/>
		<path class="st2" d="M240,97.5c9.1-0.9,17.8-5.4,23.8-12.3"/>
		<path class="st2" d="M240.5,107.8c10.6,0,21.1-3.5,29.5-9.8"/>
		<path class="st2" d="M1344.5,96.1c4.3-0.8,9.1-1.4,12.7,1.1c6,4.2,5.6,14.7,12.3,17.6"/>
		<path class="st2" d="M1344.5,89.6c7-1.7,14,2,20.9,3.9c3,0.8,6,1.3,9.1,1.5"/>
		<path class="st2" d="M1344.1,459.7c9.5-3.1,19.4-4.7,29.4-4.7"/>
		<path class="st2" d="M1343.9,454.7c9.7-3.4,19.5-6.2,29.6-8.4"/>
		<path class="st2" d="M1343.8,451c4.5-1.8,9-3.4,13.6-4.9c2.6-0.9,5.3-1.7,7.5-3.3c1.6-1.1,2.9-2.6,4.1-4c1.5-1.7,3.1-3.4,4.6-5.1"
			/>
		<path class="st2" d="M240,455.6c8,2.4,16,4.8,24,7.1"/>
		<path class="st2" d="M239.9,447.7c10.1,2.9,20.3,5.7,30.5,8.3"/>
		<path class="st2" d="M240,443.4c10.2,0.3,20.3,0.5,30.5,0.8"/>
		<path class="st2" d="M418.2,447.9c26.3-9.7,54.3-14.8,82.3-15.2"/>
		<path class="st2" d="M417.5,440.7c9.9-1.9,19.6-4.7,29.1-8.2"/>
		<path class="st2" d="M417.4,454.9c26.6-5,53.2-10,79.8-15c1.7,3.3,5.6,5,9.4,5.1c3.7,0.1,7.4-1.2,10.9-2.3
			c19.2-6.1,39.3-9.4,59.4-9.9"/>
		<path class="st2" d="M1019.8,449.7c9.5-7.2,20-13,31.2-17.3"/>
		<path class="st2" d="M1020.3,455c16.4-7.4,32.8-14.8,49.2-22.2"/>
		<path class="st2" d="M1042.2,445.1c24.3-2.7,48.5-6.9,72.3-12.4"/>
		<path class="st2" d="M1020.2,459.2c30.2-4.5,59.7-12.8,89.8-17.5c17.6-2.7,35.4-4.3,52.5-9"/>
		<path class="st2" d="M1163.8,462.2c6.4-1.3,12.9-2.6,18.9-5.2c4.6-2,9-4.7,13.9-5.7"/>
		<line class="st2" x1="345.5" y1="104.4" x2="345.5" y2="378.6"/>
		<line class="st2" x1="430.5" y1="105.4" x2="430.5" y2="379.4"/>
		<path class="st2" d="M263.5,115.4c0,0.7,0,1.3,0,2v262.4"/>
		<line class="st2" x1="512.5" y1="104.4" x2="512.5" y2="378.8"/>
		<line class="st2" x1="592.5" y1="106.4" x2="592.5" y2="376.6"/>
		<line class="st2" x1="670.5" y1="104.4" x2="670.5" y2="380.8"/>
		<line class="st2" x1="780.5" y1="103.4" x2="780.5" y2="379.3"/>
		<line class="st2" x1="912.5" y1="104.4" x2="912.5" y2="379.3"/>
		<path class="st2" d="M1117.5,104.4c0,0.7,0,1.3,0,2v273.2"/>
		<line class="st2" x1="1323.5" y1="104.4" x2="1323.5" y2="378.7"/>
		<line class="st2" x1="1347.5" y1="105.4" x2="1347.5" y2="379.3"/>
		<line class="st2" x1="270.5" y1="96.4" x2="1343.7" y2="96.4"/>
		<path class="st2" d="M260.5,386.4c2,0,4,0,6,0H1354"/>
		<line class="st2" x1="594.4" y1="444.4" x2="1019.7" y2="444.4"/>
		<line class="st2" x1="1196.9" y1="452.4" x2="1342.8" y2="452.4"/>
		<line class="st2" x1="240.5" y1="412.4" x2="1374.5" y2="412.4"/>
	</g>
	<g id="_x30_4">
		<g>
			<g>
				<polygon class="st0" points="1388.8,170.3 1374.1,170.3 1374.1,379.3 1388.8,379.3 1388.8,354.2 1406.4,354.2 1406.4,309 
					1388.8,309 				"/>
				<rect x="1406.4" y="318.1" class="st0" width="9.9" height="9.9"/>
				<rect x="1406.4" y="336" class="st0" width="9.9" height="9.9"/>
			</g>
			<rect x="1374.1" y="170.3" class="st1" width="14.7" height="209"/>
			<g>
				<rect x="1388.8" y="309" class="st1" width="17.6" height="45.2"/>
				<rect x="1406.4" y="318.1" class="st1" width="9.9" height="9.9"/>
				<rect x="1406.4" y="336" class="st1" width="9.9" height="9.9"/>
			</g>
			<path class="st1" d="M1416.4,323.4c29.4-0.2,58.9,0.3,88.3,1.9"/>
			<path class="st1" d="M1520,326.2c3.8,0.3,7.5,0.5,11.3,0.8c10.2,0.8,20.5,1.7,30.8,2.3"/>
			<path class="st1" d="M1584.5,329.7c9.4-0.2,18.8-1.1,28.1-3c26.7-5.4,53.1-21.1,63.4-46.4"/>
			<path class="st1" d="M1416.4,341.1c25.4-2.8,51.2,0.4,75.9,6.7c4.1,1.1,8.2,2.2,12.3,3.4"/>
			<path class="st1" d="M1520,355.8c30.4,9.3,61,18.9,91.8,13.6c41.9-7.2,78.7-42.5,79.2-89"/>
			<line class="st2" x1="1379.5" y1="170.4" x2="1379.5" y2="378.5"/>
			<line class="st2" x1="1393" y1="308.9" x2="1393" y2="352.5"/>
			<path class="st2" d="M1396,309.4c-0.3,13.8,0.7,27.7,2.9,41.3c0.2,1.3,0.4,2.6,0.8,3.8"/>
			<path class="st2" d="M1410.5,318.4c0.2,3.3,0.2,6.7-0.2,10"/>
			<path class="st2" d="M1411.3,336.9c-0.4,3-0.8,6-1.2,9"/>
		</g>
		<g>
			<rect x="1727.4" y="292.3" class="st0" width="40" height="10.8"/>
			<path class="st1" d="M1779.3,280.4v5.4c0,6.6-5.3,11.9-11.9,11.9l0,0"/>
			<path class="st1" d="M1727.4,297.7L1727.4,297.7c-6.6,0-11.9-5.3-11.9-11.9v-5.4"/>
			<rect x="1727.4" y="292.3" class="st1" width="40" height="10.8"/>
			<line class="st1" x1="1759.6" y1="303" x2="1759.6" y2="292.3"/>
			<line class="st1" x1="1735.2" y1="303" x2="1735.2" y2="292.3"/>
		</g>
		<g>
			<rect x="1474.5" y="202.9" class="st0" width="40" height="10.8"/>
			<path class="st1" d="M1462.6,225.6v-5.4c0-6.6,5.3-11.9,11.9-11.9l0,0"/>
			<path class="st1" d="M1514.5,208.3L1514.5,208.3c6.6,0,11.9,5.3,11.9,11.9v5.4"/>
			<rect x="1474.5" y="202.9" class="st1" width="40" height="10.8"/>
			<line class="st1" x1="1482.3" y1="202.9" x2="1482.3" y2="213.7"/>
			<line class="st1" x1="1506.8" y1="202.9" x2="1506.8" y2="213.7"/>
		</g>
		<g>
			<path class="st0" d="M1578.8,121.7c-16.6,0-30,13.4-30,30c0,12.3,7.4,22.9,18.1,27.6l0,0v8l0,0v38.4h23.9v-38.4l0,0v-8l0,0
				c10.6-4.6,18.1-15.2,18.1-27.6C1608.9,135.1,1595.4,121.7,1578.8,121.7z"/>
			<polyline class="st1" points="1590.8,187.2 1590.8,225.6 1566.9,225.6 1566.9,187.2 			"/>
			<polyline class="st1" points="1590.8,179.3 1590.8,187.2 1566.9,187.2 1566.9,179.3 			"/>
			<path class="st1" d="M1590.8,179.3c10.6-4.6,18.1-15.2,18.1-27.6c0-16.6-13.4-30-30-30s-30,13.4-30,30c0,12.3,7.4,22.9,18.1,27.6
				"/>
			<path class="st1" d="M1578.8,138.6L1578.8,138.6c-2,0-3.5,1.6-3.5,3.5v45.1h7.1v-45.1C1582.4,140.1,1580.8,138.6,1578.8,138.6z"
				/>
			<line class="st1" x1="1566.9" y1="191.1" x2="1590.8" y2="191.1"/>
			<line class="st1" x1="1566.9" y1="196.9" x2="1590.8" y2="196.9"/>
			<line class="st2" x1="1586" y1="196.9" x2="1586" y2="225"/>
			<line class="st2" x1="1582" y1="197.4" x2="1582" y2="225.6"/>
			<line class="st2" x1="1572" y1="197.4" x2="1572" y2="225.6"/>
		</g>
		<g>
			<rect x="1388.8" y="225.6" class="st0" width="533" height="54.8"/>
			<polyline class="st1" points="1921.8,280.4 1388.8,280.4 1388.8,225.6 1921.8,225.6 			"/>
			<line class="st1" x1="1389.5" y1="235.9" x2="1921.8" y2="235.9"/>
			<line class="st1" x1="1389.5" y1="241.4" x2="1921.8" y2="241.4"/>
			<rect x="1482.3" y="241.4" class="st1" width="74.2" height="21.5"/>
			<line class="st2" x1="1482.5" y1="245.4" x2="1555.2" y2="245.4"/>
			<line class="st2" x1="1482.5" y1="258.9" x2="1555.6" y2="258.9"/>
			<line class="st2" x1="1394" y1="241.4" x2="1394" y2="279"/>
			<line class="st2" x1="1397.5" y1="241.4" x2="1397.5" y2="279.6"/>
			<line class="st2" x1="1397.5" y1="273.4" x2="1921.8" y2="273.4"/>
			<line class="st1" x1="1921.8" y1="225.6" x2="1921.8" y2="280.4"/>
		</g>
		<g>
			<polygon class="st0" points="1598.3,484.4 1598.3,477 1584.5,477 1584.5,446.2 1584.5,446.2 1584.5,446.2 1584.5,280.4 
				1562.1,280.4 1562.1,477 1520,477 1520,280.4 1504.6,280.4 1504.6,477 1484.4,477 1484.4,435.6 1484.4,435.6 1484.4,435.6 
				1484.4,428.3 1484.4,428.3 1484.4,428.3 1484.4,280.4 1441.7,280.4 1441.7,429.3 1441.7,429.3 1441.7,429.3 1441.7,433.9 
				1441.7,433.9 1441.7,433.9 1441.7,441.8 1441.7,441.8 1441.7,441.8 1441.7,477 1428,477 1428,484.4 1428,484.4 1351.7,541.7 
				1351.7,549.1 1376.1,549.1 1376.1,568.1 1650.2,568.1 1650.2,549.1 1674.5,549.1 1674.5,541.7 			"/>
			<rect x="1428" y="477" class="st1" width="170.2" height="7.4"/>
			<rect x="1351.7" y="541.7" class="st1" width="322.8" height="7.4"/>
			<polygon class="st1" points="1351.7,541.7 1674.5,541.7 1598.3,484.4 1428,484.4 			"/>
			<line class="st1" x1="1562.1" y1="462.7" x2="1520" y2="462.7"/>
			<line class="st1" x1="1504.6" y1="462.7" x2="1484.4" y2="462.7"/>
			<polyline class="st1" points="1441.7,280.4 1441.7,477 1484.4,477 1484.4,280.4 			"/>
			<polyline class="st1" points="1520,280.4 1520,477 1504.6,477 1504.6,280.4 			"/>
			<polyline class="st1" points="1584.5,280.4 1584.5,477 1562.1,477 1562.1,280.4 			"/>
			<g>
				<polyline class="st1" points="1478.1,541.7 1478.1,530.8 1432.9,530.8 1432.9,541.7 				"/>
				<rect x="1442" y="520.9" class="st1" width="9.9" height="9.9"/>
				<rect x="1460" y="520.9" class="st1" width="9.9" height="9.9"/>
			</g>
			<rect x="1376.1" y="549.1" class="st1" width="274" height="19"/>
			<line class="st1" x1="1578.1" y1="484.4" x2="1616.3" y2="541.7"/>
			<line class="st1" x1="1557.4" y1="484.4" x2="1573" y2="541.7"/>
			<line class="st1" x1="1547.2" y1="484.4" x2="1554.6" y2="541.7"/>
			<line class="st1" x1="1447.1" y1="484.4" x2="1388.8" y2="541.7"/>
			<line class="st1" x1="1513.3" y1="484.4" x2="1513.3" y2="541.7"/>
			<line class="st1" x1="1518.7" y1="549.1" x2="1518.7" y2="568.1"/>
			<line class="st1" x1="1560.1" y1="549.1" x2="1560.1" y2="568.1"/>
			<line class="st1" x1="1580" y1="549.1" x2="1580" y2="568.1"/>
			<line class="st1" x1="1621.8" y1="549.1" x2="1621.8" y2="568.1"/>
			<path class="st1" d="M1447.2,519.8c-1.1-5.6-4.9-10.4-9.2-14.2c-4.3-3.8-9.3-6.8-13.8-10.4c-10.2-8.3-17.7-19.8-21.3-32.4"/>
			<path class="st1" d="M1465.6,520.4c0.7-4.3-1.4-8.9-5.1-11.2c-1.4-0.9-3.1-1.5-4.8-1.4c-2.8,0.2-5.2,2.4-6.5,5
				c-1.2,2.5-1.6,5.3-1.8,8.1"/>
			<path class="st1" d="M1562.1,469.4c7.5-0.5,15-0.5,22.5,0"/>
			<path class="st1" d="M1562.1,457c7.5-0.8,15-1.6,22.5-2.6"/>
			<path class="st1" d="M1562.1,448c7.5-1,15-1.6,22.5-1.8"/>
			<path class="st1" d="M1562.1,438.1h4.5c4.2,0,8.4,0,12.7,0h5.3"/>
			<path class="st1" d="M1562.1,431.7c7.5-0.8,15-1.1,22.5-1"/>
			<path class="st1" d="M1441.7,446.5l5.8,0.6c10,1,19.9,1.9,29.9,2.9l6.9,0.7"/>
			<path class="st1" d="M1441.7,441.8c14.2-0.9,28.5-0.7,42.7,0.5"/>
			<path class="st1" d="M1441.7,433.9c14.2-0.4,28.5,0.2,42.7,1.6"/>
			<path class="st1" d="M1441.7,429.3c14.2-1.2,28.4-1.6,42.7-1"/>
			<rect x="1514.9" y="435.6" class="st1" width="5.2" height="18.8"/>
			<line class="st1" x1="1471.7" y1="449.4" x2="1471.7" y2="477"/>
			<line class="st1" x1="1441.7" y1="285.4" x2="1484.4" y2="285.4"/>
			<line class="st1" x1="1441.7" y1="289.9" x2="1484.5" y2="289.9"/>
			<line class="st1" x1="1505" y1="285.9" x2="1519.4" y2="285.9"/>
			<line class="st1" x1="1562.5" y1="284.9" x2="1584.5" y2="284.9"/>
			<line class="st1" x1="1562" y1="293.9" x2="1584.5" y2="293.9"/>
			<line class="st1" x1="1442.5" y1="294.4" x2="1483.7" y2="294.4"/>
			<path class="st1" d="M1505,290.9c-0.2,0-0.3,0-0.5,0h14.3"/>
			<g>
				<path class="st2" d="M1441.9,528.9c0.6-0.1,1.2-0.1,1.8-0.2c2.6-0.2,5.1-0.4,7.7-0.5"/>
				<path class="st2" d="M1442.1,527.1c3.1,0.1,6.1,0.2,9.2,0.3"/>
				<path class="st2" d="M1460,528.5c3.3,0.3,6.6,0.4,9.9,0.3"/>
				<path class="st2" d="M1460.4,527c1.1,0.2,2.2,0,3.3-0.1c2-0.2,4.1-0.1,6,0.2c0,0.1,0,0.1,0,0.2"/>
				<path class="st2" d="M1504.8,474.3c4.9-0.2,9.7,0,14.6,0.6c0.1,0,0.3,0,0.3,0.2s-0.1,0.3-0.2,0.2"/>
				<path class="st2" d="M1504.8,471.7c5-0.2,10.1-0.5,15.1-0.7"/>
				<path class="st2" d="M1581.8,477.3c0.3,2.5,0.3,5,0.2,7.5"/>
				<path class="st2" d="M1577.6,478c0.3,2.1,0.7,4.3,1.2,6.4c0,0.1,0,0.3-0.1,0.3s-0.3,0-0.2-0.1"/>
				<path class="st2" d="M1558.5,477.3c-0.1,2.7-0.2,5.5-0.3,8.2c0-0.1,0-0.2,0-0.2"/>
				<path class="st2" d="M1553.9,477.7c0,2.4,0,4.7,0,7.1"/>
				<path class="st2" d="M1542.8,477c0.1,2.5,0.3,5,0.7,7.5"/>
				<path class="st2" d="M1590.2,476.6c0.2,2.6,0.4,5.2,0.7,7.8"/>
				<path class="st2" d="M1445,477c0,1.9,0,3.9-0.1,5.8c0,0.8,0.1,1.8,0.7,2.2"/>
				<path class="st2" d="M1447.6,477.3c0.1,2.5,0.8,4.9,1.8,7.2"/>
				<path class="st2" d="M1451.2,477.5c0,2.2,0.2,4.3,0.7,6.4"/>
				<path class="st2" d="M1473.6,531.2c-0.1,3.4-0.1,6.9,0.1,10.3"/>
			</g>
			<line class="st2" x1="1579" y1="293.9" x2="1579" y2="428.5"/>
			<line class="st2" x1="1515" y1="291.4" x2="1515" y2="434.5"/>
			<line class="st2" x1="1475.5" y1="295.4" x2="1475.5" y2="426.9"/>
			<path class="st2" d="M1472,294.9c0.2,0,0.3,0,0.5,0v131.5"/>
			<line class="st2" x1="1586.5" y1="550.4" x2="1586.5" y2="567.5"/>
			<line class="st2" x1="1525.5" y1="548.9" x2="1525.5" y2="567.9"/>
			<line class="st2" x1="1626.5" y1="549.4" x2="1626.5" y2="568"/>
			<line class="st2" x1="1564" y1="541.9" x2="1564" y2="549.4"/>
			<path class="st2" d="M1565.7,484.8c4.2,6.1,5.7,13.6,8.2,20.6c4.5,12.9,12.3,24.4,19.9,35.8"/>
			<path class="st2" d="M1497.1,485c-2.9,18.7-6.2,37.4-9.8,55.9"/>
			<line class="st2" x1="1399" y1="548.9" x2="1399" y2="567.9"/>
			<line class="st2" x1="1404.5" y1="550.4" x2="1404.5" y2="567.4"/>
			<line class="st2" x1="1407.5" y1="549.4" x2="1407.5" y2="567.4"/>
			<line class="st2" x1="1420" y1="549.4" x2="1420" y2="568.4"/>
			<line class="st1" x1="1441.7" y1="280.4" x2="1484.4" y2="280.4"/>
			<line class="st1" x1="1504.6" y1="280.4" x2="1520" y2="280.4"/>
			<line class="st1" x1="1562.1" y1="280.4" x2="1584.5" y2="280.4"/>
		</g>
	</g>
	<g id="_x31_4">
		<g>
			<g>
				<line class="st1" x1="1917.5" y1="1008.8" x2="1917.5" y2="1015.1"/>
			</g>
		</g>
	</g>
	<g id="_x31_6">
		<g>
			<path class="st0" d="M370.8,462.7l32.9,12.2c0,0,92.4,34.4,206.4,34.4c87.1,0,161.7-20.1,192-29.6v-12.2
				c-30.3,9.5-104.8,29.6-192,29.6c-114,0-206.4-34.4-206.4-34.4H370.8z"/>
			<line class="st1" x1="802.1" y1="462.7" x2="337.5" y2="462.7"/>
			<path class="st1" d="M354.7,462.7c0,41.6,46.1,75.3,102.9,75.3s102.9-75.3,102.9-75.3"/>
			<path class="st1" d="M499.8,462.7c0,8.7,1.2,17.1,3.5,25"/>
			<path class="st1" d="M654.7,529.1c17.5-16.7,28.5-40.3,28.5-66.4"/>
			<path class="st1" d="M508,500.7c14.5,31.6,46.4,53.6,83.5,53.6c10.4,0,20.3-1.7,29.6-4.9"/>
			<path class="st1" d="M669.4,462.7c0,10.8,1.7,21.2,4.7,31"/>
			<path class="st1" d="M678.6,505.4c16.3,35.9,52.4,60.8,94.3,60.8c10.2,0,20-1.5,29.3-4.2"/>
			<path class="st1" d="M802.1,467.5c-30.3,9.5-104.8,29.6-192,29.6c-114,0-206.4-34.4-206.4-34.4"/>
			<path class="st1" d="M802.1,479.7c-30.3,9.5-104.8,29.6-192,29.6c-114,0-206.4-34.4-206.4-34.4l-32.9-12.2"/>
			<path class="st1" d="M698.3,462.7c1.7,19.4,4.5,39.5,16.4,54.8c11.3,14.6,30,22.7,48.5,22.6c11.6,0,23-3.1,34.4-4.9
				c1.5-0.2,3-0.5,4.5-0.6"/>
			<path class="st1" d="M689.4,462.7c0,9.7,1.3,19.3,3.7,28.7"/>
			<path class="st1" d="M697,503.1c0.2,0.6,0.5,1.2,0.7,1.7c4.2,10.4,10.6,20.7,20.6,25.8c4.3,2.2,9,3.3,13.8,3.9
				c11.6,1.5,23.5,0.3,34.5-3.7c7-2.5,13.6-6.1,20.5-8.5c4.9-1.7,9.9-3.1,15-4"/>
			<path class="st1" d="M397.3,472.5c7.1,14,18.1,26.2,31.2,35.1c19.1,13,42.4,19.3,65.5,20.3c26.8,1.1,54.4-5,76.5-19.9"/>
			<path class="st1" d="M584.6,496.5c13-12.3,24.1-26.7,41.8-33.8"/>
			<g>
				<g>
					<polygon class="st0" points="658.7,534.8 654.7,534.8 654.7,518.9 652.7,518.9 652.7,514.8 643.1,514.8 643.1,518.9 
						636.9,518.9 636.9,514.8 627.3,514.8 627.3,518.9 625.3,518.9 625.3,534.8 621.3,534.8 621.3,543.5 643.5,543.5 658.7,543.5 
											"/>
					<path class="st0" d="M642.4,543.5h-21.1v10c0,10.3,8.4,18.7,18.7,18.7s18.7-8.4,18.7-18.7v-10h-15.2l0,0H642.4z"/>
				</g>
				<path class="st1" d="M621.3,543.5v10c0,10.3,8.4,18.7,18.7,18.7l0,0c10.3,0,18.7-8.4,18.7-18.7v-10"/>
				<rect x="621.3" y="534.8" class="st1" width="37.4" height="8.7"/>
				<path class="st1" d="M636.5,543.5v14.7c0,2,1.6,3.5,3.5,3.5l0,0c2,0,3.5-1.6,3.5-3.5v-14.7"/>
				<rect x="625.3" y="518.9" class="st1" width="29.5" height="15.8"/>
				<rect x="627.3" y="514.8" class="st1" width="9.6" height="4.1"/>
				<rect x="643.1" y="514.8" class="st1" width="9.6" height="4.1"/>
			</g>
			<path class="st1" d="M632.3,514.8c-1.8-9.7-0.4-19.6,1.8-29.2c1.8-7.7,4-15.2,5.6-22.9"/>
			<path class="st1" d="M647.5,514.8c-0.3-2.2-0.6-4.4-0.8-6.7"/>
			<path class="st1" d="M646.5,495.9c0.1-2,0.2-4.1,0.4-6.1c0.8-7.8,2.5-15.5,2.3-23.4c0-1.3-0.1-2.5-0.3-3.8"/>
			<path class="st2" d="M796.7,469.6c0.9,3.4,1.8,6.7,2.7,10.1c0,0.1,0.1,0.3,0.2,0.3c0.1,0,0.1-0.2,0-0.2"/>
			<path class="st2" d="M793.7,470.6c0.9,3.6,2.2,7,3.8,10.3"/>
			<path class="st2" d="M791.5,471.3c0.2,3.9,0.8,7.8,1.6,11.7"/>
			<path class="st2" d="M788.1,472c0.7,3.4,1.5,6.8,2.5,10.1"/>
			<path class="st2" d="M652.4,534.6c0,3.1,0,6.1,0,9.2c0-0.1,0-0.3,0-0.4"/>
			<path class="st2" d="M649.4,535c0.3,2.2,0.4,4.4,0.5,6.6c0,0.5,0.1,0.9,0.1,1.4v0.1"/>
			<path class="st2" d="M647.6,535.3c0.1,2.6,0.3,5.2,0.4,7.8c0,0.1,0,0.2,0.1,0.2s0.2-0.1,0.1-0.1"/>
			<path class="st2" d="M651,519.6c-0.1,5-0.2,9.9-0.5,14.9"/>
			<path class="st2" d="M648.2,519.5c0.1,1.2,0.1,2.4,0.1,3.6c0.1,3.7,0.2,7.4,0.3,11.1"/>
			<path class="st2" d="M627.6,535c-0.1,2.9-0.1,5.7-0.2,8.6"/>
			<line class="st1" x1="802.1" y1="467.5" x2="802.1" y2="479.7"/>
		</g>
		<g>
			<g>
				<rect x="978.2" y="452.7" class="st1" width="9.9" height="9.9"/>
				<rect x="960.2" y="452.7" class="st1" width="9.9" height="9.9"/>
				<path class="st2" d="M960,460.4c3.5-0.1,6.9-0.4,10.3-1.1"/>
				<path class="st2" d="M960.3,458.1c3.3,0.2,6.6,0,9.9-0.4"/>
				<path class="st2" d="M977.9,459.3c0.8,0.6,1.9,0.7,2.9,0.8c2.5,0.1,5,0.3,7.6,0.4"/>
				<path class="st2" d="M978.3,458.4c3.2,0.2,6.5-0.1,9.6-0.8"/>
				<path class="st2" d="M937.1,454.3c-0.1,2.7-0.1,5.5-0.2,8.2"/>
				<path class="st2" d="M929.6,454.5c0.2,2.4,0.4,4.8,0.6,7.2"/>
				<path class="st2" d="M927,454.7c0.2,2.4,0.3,4.8,0.5,7.2"/>
				<path class="st2" d="M891.1,454c-0.1,2.7-0.3,5.5-0.5,8.2"/>
			</g>
			<path class="st2" d="M1125,484.2"/>
			<path class="st2" d="M1126.9,462"/>
			<path class="st2" d="M1087.8,462.7"/>
			<path class="st2" d="M1131.6,463.2"/>
			<path class="st2" d="M1133.7,463.2"/>
		</g>
		<g>
			<g>
				<g>
					<path class="st0" d="M1182.2,474.6h7.2v8.9c0,0.6,0.4,1,1,1h9.9c0.6,0,1-0.4,1-1v-8.9h6.1v8.9c0,0.6,0.4,1,1,1h9.9
						c0.6,0,1-0.4,1-1v-8.9h2.5c0.1,0.1,0.2,0.1,0.3,0.1l0,0c0.1,0,0.2,0,0.2-0.1h5c0.6,0,1-0.4,1-1v-10.9c0-0.6-0.4-1-1-1h-45.2
						c-0.6,0-1,0.4-1,1v10.9C1181.2,474.2,1181.7,474.6,1182.2,474.6z"/>
				</g>
				<path class="st1" d="M1196.5,483.5c10.6,46.8,54,82,108.6,82c62.4,0,112.9-46.1,112.9-102.9"/>
				<g>
					<polyline class="st1" points="1182.2,462.7 1182.2,473.6 1227.4,473.6 1227.4,462.7 					"/>
					<rect x="1208.4" y="473.6" class="st1" width="9.9" height="9.9"/>
					<rect x="1190.4" y="473.6" class="st1" width="9.9" height="9.9"/>
				</g>
				<path class="st1" d="M1280.5,532.8c12.2,1.7,25.7-5.1,35.5-10.9c20.7-12.2,34.2-35.4,35.3-59.3"/>
				<path class="st1" d="M1215,483.5c2.3,15.1,12.6,28.4,25.5,36.8c4.3,2.8,8.9,5.1,13.7,6.8"/>
				<path class="st2" d="M1190.1,476.6c3.4,0,6.9-0.2,10.3-0.8"/>
				<path class="st2" d="M1190.7,477.9c3.1,0.1,6.2,0.2,9.3,0.3c0.2,0,0.5,0.1,0.5,0.3"/>
				<path class="st2" d="M1208.3,475.6c3.3,0.3,6.5,0.5,9.8,0.8"/>
				<path class="st2" d="M1208.1,477.9c3.2,0.3,6.5,0.2,9.8-0.2"/>
				<path class="st2" d="M1222,463.6c-0.1,3.5-0.1,7.1,0.1,10.6"/>
				<path class="st1" d="M1270,468.1"/>
				<path class="st1" d="M1308.5,468.1"/>
				<path class="st1" d="M1218.9,565.3"/>
				<path class="st1" d="M1254.2,527.1c9.9,3.8,27.2,5.9,31.1,6.2"/>
				<path class="st2" d="M1305.9,462.9c0,1.8,0,3.7,0,5.5"/>
				<path class="st2" d="M1303,462.5c0.3,1.5,0.3,3,0.2,4.5"/>
				<path class="st2" d="M1300,462.9c0.3,1.6,0.7,3.2,1,4.8"/>
			</g>
		</g>
	</g>
	<g id="_x31_7">
		<g>
			<line class="st1" x1="1919.8" y1="2138.2" x2="1919.8" y2="2144.4"/>
		</g>
		<g>
			<g>
				<line class="st3" x1="772" y1="2643.6" x2="772" y2="2682.1"/>
			</g>
		</g>
	</g>
</g>
</svg>
