<?xml version="1.0" encoding="utf-8"?>
<!-- Generator: Adobe Illustrator 19.0.0, SVG Export Plug-In . SVG Version: 6.00 Build 0)  -->
<svg version="1.1" id="Слой_1" xmlns="http://www.w3.org/2000/svg" xmlns:xlink="http://www.w3.org/1999/xlink" x="0px" y="0px"
	 viewBox="0 249.6 1110 383.4" style="enable-background:new 0 249.6 1110 383.4;" xml:space="preserve">
<style type="text/css">
	.st0{fill:none;stroke:#827957;stroke-linecap:round;stroke-linejoin:round;stroke-miterlimit:10;}
	.st1{fill:#F4E1A1;}
	.st2{fill:none;stroke:#827957;stroke-width:2;stroke-linecap:round;stroke-linejoin:round;stroke-miterlimit:10;}
	.st3{display:none;fill:none;stroke:#827957;stroke-width:2;stroke-linecap:round;stroke-linejoin:round;stroke-miterlimit:10;}
</style>
<g id="conveer_x5F_elements">
	<g id="_x30_2">
		<g>
			<path class="st0" d="M393.1,249.6c5.6,1.2,11.1,2.8,16.5,4.9"/>
		</g>
	</g>
	<g id="_x30_5">
		<g>
			<g>
				<rect x="197.6" y="349.4" class="st1" width="127.9" height="283.3"/>
				<rect x="197.6" y="349.4" class="st2" width="127.9" height="283.3"/>
				<g>
					<g>
						<circle class="st2" cx="285.8" cy="446.3" r="10.8"/>
						<circle class="st2" cx="285.8" cy="446.3" r="6.9"/>
					</g>
					<g>
						<circle class="st2" cx="285.8" cy="392.2" r="10.8"/>
						<circle class="st2" cx="285.8" cy="392.2" r="6.9"/>
					</g>
					<g>
						<circle class="st2" cx="285.8" cy="419.2" r="10.8"/>
						<circle class="st2" cx="285.8" cy="419.2" r="6.9"/>
					</g>
				</g>
				<g>
					<g>
						<circle class="st2" cx="238.6" cy="446.3" r="10.8"/>
						<circle class="st2" cx="238.6" cy="446.3" r="6.9"/>
					</g>
					<g>
						<circle class="st2" cx="238.6" cy="392.2" r="10.8"/>
						<circle class="st2" cx="238.6" cy="392.2" r="6.9"/>
					</g>
					<g>
						<circle class="st2" cx="238.6" cy="419.2" r="10.8"/>
						<circle class="st2" cx="238.6" cy="419.2" r="6.9"/>
					</g>
				</g>
				<g>
					<rect x="221.7" y="517.6" class="st2" width="74.9" height="115.2"/>
					<g>
						<line class="st2" x1="278.8" y1="530.5" x2="278.8" y2="579.5"/>
						<line class="st2" x1="273.2" y1="530.5" x2="273.2" y2="579.5"/>
						<line class="st2" x1="267.6" y1="530.5" x2="267.6" y2="579.5"/>
						<line class="st2" x1="261.9" y1="530.5" x2="261.9" y2="579.5"/>
						<line class="st2" x1="256.3" y1="530.5" x2="256.3" y2="579.5"/>
						<line class="st2" x1="250.7" y1="530.5" x2="250.7" y2="579.5"/>
						<line class="st2" x1="245.1" y1="530.5" x2="245.1" y2="579.5"/>
						<line class="st2" x1="239.4" y1="530.5" x2="239.4" y2="579.5"/>
					</g>
					<circle class="st2" cx="289.7" cy="524.4" r="2.2"/>
					<circle class="st2" cx="228.5" cy="524.4" r="2.2"/>
				</g>
				<line class="st2" x1="262.2" y1="349.4" x2="262.2" y2="517.6"/>
				<line class="st2" x1="296.6" y1="624" x2="223.6" y2="624"/>
				<line class="st2" x1="296.6" y1="620.5" x2="222.1" y2="620.5"/>
			</g>
		</g>
		<g>
			<g>
				<polygon class="st1" points="186.7,430.2 179.7,430.2 179.7,434.1 1.7,434.1 1.7,458.8 179.7,458.8 179.7,462.7 186.7,462.7 
					186.7,465.7 197.6,465.7 197.6,427.2 186.7,427.2 				"/>
				<path class="st1" d="M192.2,416.9c0,3,2.5,5.5,5.5,5.5v-11C194.6,411.4,192.2,413.9,192.2,416.9z"/>
				<path class="st1" d="M192.2,476c0,3,2.5,5.5,5.5,5.5v-10.9C194.6,470.5,192.2,473,192.2,476z"/>
			</g>
			<g>
				<rect x="186.7" y="427.2" class="st2" width="10.9" height="38.5"/>
				<path class="st2" d="M197.6,422.3c-3,0-5.5-2.5-5.5-5.5s2.5-5.5,5.5-5.5"/>
				<path class="st2" d="M197.6,481.5c-3,0-5.5-2.5-5.5-5.5s2.5-5.5,5.5-5.5"/>
			</g>
			<g>
				<g>
					<line class="st2" x1="8.9" y1="434.1" x2="8.9" y2="458.8"/>
				</g>
				<rect x="179.7" y="430.2" class="st2" width="7" height="32.5"/>
				<line class="st2" x1="1.7" y1="434.1" x2="179.7" y2="434.1"/>
				<line class="st2" x1="1.7" y1="458.8" x2="179.7" y2="458.8"/>
				<line class="st2" x1="1.7" y1="434.1" x2="1.7" y2="458.8"/>
			</g>
			<line class="st2" x1="179.7" y1="452.6" x2="8.9" y2="452.6"/>
			<line class="st2" x1="197.6" y1="411.4" x2="197.6" y2="481.5"/>
		</g>
		<g>
			<g>
				<polygon class="st1" points="186.7,535.5 179.7,535.5 179.7,539.4 1.7,539.4 1.7,564.1 179.7,564.1 179.7,568 186.7,568 
					186.7,571 197.6,571 197.6,532.5 186.7,532.5 				"/>
				<path class="st1" d="M192.2,522.3c0,3,2.5,5.5,5.5,5.5v-10.9C194.6,516.8,192.2,519.3,192.2,522.3z"/>
				<path class="st1" d="M192.2,581.3c0,3,2.5,5.5,5.5,5.5v-10.9C194.6,575.8,192.2,578.3,192.2,581.3z"/>
			</g>
			<g>
				<rect x="186.7" y="532.5" class="st2" width="10.9" height="38.5"/>
				<path class="st2" d="M197.6,527.6c-3,0-5.5-2.5-5.5-5.5s2.5-5.5,5.5-5.5"/>
				<path class="st2" d="M197.6,586.8c-3,0-5.5-2.5-5.5-5.5s2.5-5.5,5.5-5.5"/>
			</g>
			<g>
				<g>
					<line class="st2" x1="8.9" y1="539.4" x2="8.9" y2="564.1"/>
				</g>
				<rect x="179.7" y="535.5" class="st2" width="7" height="32.5"/>
				<line class="st2" x1="1.7" y1="539.4" x2="179.7" y2="539.4"/>
				<line class="st2" x1="1.7" y1="564.1" x2="179.7" y2="564.1"/>
				<line class="st2" x1="1.7" y1="539.4" x2="1.7" y2="564.1"/>
			</g>
			<line class="st2" x1="179.7" y1="557.9" x2="8.9" y2="557.9"/>
			<line class="st2" x1="197.6" y1="516.8" x2="197.6" y2="586.8"/>
		</g>
	</g>
	<g id="_x31_3">
		<g>
			<g>
				<g>
					<rect x="967.1" y="341.3" class="st1" width="10.9" height="45.2"/>
					<path class="st1" d="M978,350.4v9.9h4.1c0,0.1,0,0.1,0,0.2v-0.2h5.9v-9.9H978z"/>
					<path class="st1" d="M983.1,368.4H978v9.9h4.3v0.2c0-0.1,0-0.1,0-0.2h5.6v-9.9h-4.6C983.3,368.4,983.2,368.4,983.1,368.4z"/>
				</g>
				<g>
					<g>
						<polyline class="st2" points="967.1,386.5 978,386.5 978,341.3 967.1,341.3 						"/>
						<rect x="978" y="350.4" class="st2" width="9.9" height="9.9"/>
						<rect x="978" y="368.4" class="st2" width="9.9" height="9.9"/>
					</g>
				</g>
				<path class="st2" d="M987.9,354c21.4-8.1,40.3-22.7,53.3-41.5c11.8-16.9,18.8-37.2,20.1-57.8"/>
				<path class="st2" d="M987.9,374.1c13.1,1.9,26.9-2.4,38.9-8.6c40.4-21,67.4-65.4,68.2-110.8"/>
				<line class="st0" x1="971.4" y1="341.8" x2="971.4" y2="385.8"/>
				<path class="st0" d="M982.3,351.1c-0.4,3.1-0.4,6.3-0.2,9.4"/>
				<path class="st0" d="M982.9,368.9c-0.3-0.2,0.2-0.6,0.5-0.4s0.2,0.6,0.2,1c-0.4,3.1-0.9,6.1-1.3,9.2"/>
				<line class="st2" x1="967.1" y1="341.3" x2="967.1" y2="386.5"/>
			</g>
			<g>
				<path class="st1" d="M967.1,602.3V285.1v-30.4h-30.4H619.4H589v30.4v317.2v30.4h30.4h70h32.4c-0.2,0.1-0.4,0.1-0.6,0.2l51.6-0.2
					h93.8h70H967L967.1,602.3L967.1,602.3z"/>
				<g>
					<path class="st2" d="M1230.8,632.8"/>
					<path class="st2" d="M967.1,632.8"/>
				</g>
				<path class="st0" d="M589.5,264.1c6.8-3.1,13.6-6.1,20.4-9.2"/>
				<path class="st0" d="M589.1,272.1c7.6-1.5,15.2-3.6,22.6-6.1c2.3-0.8,4.6-1.6,6.9-2.5"/>
				<path class="st0" d="M936,261.2c10-0.3,20-0.2,30,0.2"/>
				<path class="st0" d="M936.7,265.1c10,1.3,20,2.6,30,3.9"/>
				<line class="st0" x1="690.2" y1="607.3" x2="865" y2="607.3"/>
				<line class="st0" x1="689.7" y1="610.3" x2="866.4" y2="610.3"/>
				<line class="st0" x1="689.7" y1="617.3" x2="865.2" y2="617.3"/>
				<path class="st0" d="M694.3,632.4c6.2-4.3,13.9-5.5,21.4-6.5c49.8-6.5,100.3-4.7,150.5-2.9"/>
				<path class="st0" d="M721.2,632.9c23.3-6.4,48.2-6.4,71.5-0.2"/>
				<path class="st0" d="M936.6,624.5c9.2,3.2,18.5,5.9,28,8.2"/>
				<path class="st0" d="M936.2,619.8c10.3,1.2,20.7,2.5,31,3.7"/>
				<path class="st0" d="M935.7,616.1c10,0.4,20.1,1.1,30.1,2.1c0.3,0,0.7,0.1,0.8,0.3s0,0.7-0.3,0.7"/>
				<path class="st0" d="M589.7,626c9.6,2.4,19.6,3.7,29.5,3.8"/>
				<path class="st0" d="M589.3,621.6c9.4,1.6,18.8,2.6,28.3,3c0.5,0,1.1,0.2,1.2,0.7c0.1,0.5-1,0.3-0.6,0"/>
				<path class="st0" d="M589.2,619.5c9.8-0.1,19.7-0.3,29.5-0.4"/>
				<line class="st0" x1="590" y1="586.5" x2="966.7" y2="586.5"/>
				<line class="st0" x1="953.3" y1="285.9" x2="953.3" y2="580.5"/>
				<line class="st0" x1="600.8" y1="285.1" x2="600.8" y2="580.5"/>
				<line class="st0" x1="618.8" y1="261.9" x2="936.8" y2="261.9"/>
				<line class="st0" x1="614.3" y1="274.8" x2="614.3" y2="571.4"/>
				<line class="st0" x1="848" y1="275.2" x2="848" y2="452.2"/>
				<line class="st0" x1="848" y1="527.1" x2="848" y2="569.5"/>
				<path class="st0" d="M696,275.8c0,2.7,0,5.3,0,8v287.3"/>
				<line class="st0" x1="600.8" y1="580.5" x2="953.3" y2="580.5"/>
				<line class="st2" x1="711.6" y1="274.8" x2="711.6" y2="571.4"/>
				<line class="st2" x1="741.2" y1="274.8" x2="741.2" y2="571.4"/>
				<line class="st2" x1="814.4" y1="274.8" x2="814.4" y2="452.2"/>
				<line class="st2" x1="844" y1="274.8" x2="844" y2="452.2"/>
				<rect x="589" y="254.7" class="st2" width="378" height="378"/>
				<polyline class="st2" points="947,285.1 947,571.4 609.1,571.4 609.1,274.8 936.6,274.8 				"/>
				<rect x="936.6" y="254.7" class="st2" width="30.4" height="30.4"/>
				<polyline class="st2" points="609.1,285.1 589,285.1 589,254.7 619.4,254.7 619.4,274.8 				"/>
				<rect x="936.6" y="602.3" class="st2" width="30.4" height="30.4"/>
				<rect x="589" y="602.3" class="st2" width="30.4" height="30.4"/>
				<rect x="689.4" y="602.3" class="st2" width="177.2" height="30.4"/>
				<line class="st2" x1="947" y1="423.1" x2="609.1" y2="423.1"/>
				<line class="st2" x1="947" y1="348.9" x2="609.1" y2="348.9"/>
				<line class="st2" x1="778" y1="274.8" x2="778" y2="464.2"/>
				<line class="st2" x1="778" y1="492.2" x2="778" y2="571.4"/>
				<g>
					<path class="st2" d="M814.4,527.1v44.3V527.1z"/>
					<line class="st2" x1="947" y1="497.2" x2="867.6" y2="497.2"/>
					<path class="st2" d="M844,527.1v44.3V527.1z"/>
					<g>
						<line class="st2" x1="711.6" y1="497.2" x2="711.6" y2="571.4"/>
						<line class="st2" x1="741.2" y1="497.2" x2="741.2" y2="571.4"/>
					</g>
				</g>
				<g>
					<line class="st2" x1="814.4" y1="274.8" x2="814.4" y2="348.9"/>
					<line class="st2" x1="844" y1="274.8" x2="844" y2="348.9"/>
					<g>
						<line class="st2" x1="711.6" y1="274.8" x2="711.6" y2="348.9"/>
						<line class="st2" x1="741.2" y1="274.8" x2="741.2" y2="348.9"/>
					</g>
				</g>
			</g>
			<g>
				<g>
					<polygon class="st1" points="792.7,452.2 792.7,456.1 782,456.1 782,501.3 792.7,501.3 792.7,527.1 867.6,527.1 867.6,452.2 
											"/>
					<rect x="772" y="482.2" class="st1" width="9.9" height="9.9"/>
					<rect x="772" y="464.2" class="st1" width="9.9" height="9.9"/>
				</g>
				<line class="st0" x1="789.4" y1="455.8" x2="789.4" y2="500.5"/>
				<line class="st0" x1="773.4" y1="471.5" x2="781" y2="471.5"/>
				<line class="st0" x1="772.7" y1="489.5" x2="780.7" y2="489.5"/>
				<path class="st0" d="M803.3,506.7c3.3-5,11-6.5,12.7-12.2c0.6-2,0.3-4.1,0.8-6.1c1.1-4.4,5.4-7.1,9.4-9.2
					c2.6-1.4,6.3-2.7,8.2-0.4c2.3,2.8-0.7,7.9,2.1,10.3c1.3,1.1,3.3,0.9,4.8,0.1s2.6-2.2,3.8-3.4c3.2-3.1,7.5-5.1,11.9-5.7"/>
				<path class="st0" d="M809,514.8c2.9-3.1,6-6.1,9.2-9c3.7-3.3,8-6.5,12.9-6.3c4,0.2,7.5,2.7,11.4,3.9c5,1.4,10.6,0.4,14.6-2.8"/>
				<path class="st0" d="M803.3,486.1c8.4-4.6,14.6-13,23.8-15.9c3.3-1,7.3-1.1,9.8,1.3c1.7,1.6,2.5,4.3,4.7,5.2
					c2.6,1.1,5.3-0.9,7.2-3c2-2.3,3.8-4.8,5.1-7.5"/>
				<line class="st2" x1="782" y1="497.2" x2="609.1" y2="497.2"/>
				<line class="st2" x1="778" y1="474.2" x2="778" y2="482.2"/>
				<g>
					<rect x="792.7" y="452.2" class="st2" width="74.9" height="74.9"/>
					<path class="st2" d="M845.6,516.9h-30.9c-6.5,0-11.8-5.3-11.8-11.8v-30.9c0-6.5,5.3-11.8,11.8-11.8h30.9
						c6.5,0,11.8,5.3,11.8,11.8v30.9C857.4,511.6,852.1,516.9,845.6,516.9z"/>
					<circle class="st2" cx="799.6" cy="459.1" r="2.2"/>
					<circle class="st2" cx="860.8" cy="459.1" r="2.2"/>
					<circle class="st2" cx="799.6" cy="520.3" r="2.2"/>
					<circle class="st2" cx="860.8" cy="520.3" r="2.2"/>
				</g>
				<g>
					<g>
						<polyline class="st2" points="792.9,456.1 782,456.1 782,501.3 792.9,501.3 						"/>
						<rect x="772" y="482.2" class="st2" width="9.9" height="9.9"/>
						<rect x="772" y="464.2" class="st2" width="9.9" height="9.9"/>
					</g>
				</g>
				<path class="st2" d="M581.9,496.5c13.3,19.1,55.3,37.8,80.6,33.9c21-3.2,36.6-21.1,54.8-31.9c16.5-9.8,36-14.4,54.6-11.4"/>
				<path class="st2" d="M581.9,504.4c17.9,19.9,44.5,45,74.7,44c16.8-0.5,32.5-9.2,45.1-20.3c12.6-11.2,22.6-24.8,33.4-37.8
					c5.3-6.4,11-12.8,18.2-17c5.5-3.2,12.2-5,18.4-4.2"/>
			</g>
		</g>
		<g>
			<path class="st1" d="M582.6,621.4c-0.2,0-0.5,0.1-0.7,0.1v-19.1V285.2v-30.4h-30.4H-0.8l0.3,94.2h327.1l-0.1,283.8h225h30.4
				v-11.3L582.6,621.4z"/>
			<g>
				<line class="st2" x1="356.1" y1="274.8" x2="356.1" y2="571.4"/>
				<line class="st2" x1="429.3" y1="274.8" x2="429.3" y2="571.4"/>
				<line class="st2" x1="458.9" y1="274.8" x2="458.9" y2="571.4"/>
				<path class="st2" d="M-0.8,254.7c194-0.3,389-0.3,583-0.3c0,126,0,252,0,378c-129,0-257,0-386.3,0.4"/>
				<polyline class="st2" points="0,274.8 561.9,274.8 561.9,571.4 326.5,571.4 				"/>
				<polyline class="st2" points="551.5,274.8 551.5,254.7 581.9,254.7 581.9,285.1 561.9,285.1 				"/>
				<rect x="551.5" y="602.3" class="st2" width="30.4" height="30.4"/>
				<polyline class="st2" points="481.5,632.8 481.5,602.3 326.5,602.3 				"/>
				<line class="st2" x1="561.9" y1="497.2" x2="326.5" y2="497.2"/>
				<line class="st2" x1="561.9" y1="423.1" x2="326.5" y2="423.1"/>
				<line class="st2" x1="561.9" y1="348.9" x2="0" y2="348.9"/>
				<line class="st2" x1="392.9" y1="274.8" x2="392.9" y2="571.4"/>
				<g>
					<line class="st2" x1="429.3" y1="497.2" x2="429.3" y2="571.4"/>
					<line class="st2" x1="458.9" y1="497.2" x2="458.9" y2="571.4"/>
					<g>
						<line class="st2" x1="356.1" y1="497.2" x2="356.1" y2="571.4"/>
					</g>
				</g>
				<g>
					<line class="st2" x1="429.3" y1="274.8" x2="429.3" y2="348.9"/>
					<line class="st2" x1="458.9" y1="274.8" x2="458.9" y2="348.9"/>
					<g>
						<line class="st2" x1="356.1" y1="274.8" x2="356.1" y2="348.9"/>
					</g>
				</g>
				<path class="st0" d="M552,262.6c9.7-1.4,19.5-1.8,29.3-1.3"/>
				<path class="st0" d="M551.4,268.3c9.8,0.1,19.6,0.2,29.3,0.3"/>
				<path class="st0" d="M551.4,610.8c6.1-2.6,12.1-5.2,18.1-7.9"/>
				<path class="st0" d="M552.2,622.9c9.3-3.7,19.1-6,29-7"/>
				<path class="st0" d="M551.6,626.3c1.7-0.9,3.6-1.2,5.5-1.5c8.5-1.1,17-2.3,25.5-3.4"/>
				<path class="st0" d="M555.6,632.4c8.6-2,17.3-3.7,26.1-5.2"/>
				<path class="st0" d="M331.2,603.3c12.3,2.3,24.3,6.4,36.2,10.4c18.1,6.1,36.2,12.2,54.3,18.4"/>
				<path class="st0" d="M350.4,601.9c31.4,11.6,63.3,21.6,95.6,30.2"/>
				<path class="st0" d="M376.8,602.1c17.2,4.1,34.4,8.2,51.5,12.3c2.2,0.5,4.4,1.1,5.9,2.8c1.1,1.2,1.6,2.8,2.7,4.1
					c3.1,3.5,8.6,2.1,13.1,2.9c2.9,0.5,5.5,1.9,8.3,3c7.1,2.7,15.2,2.6,22.2-0.3"/>
				<path class="st0" d="M416.3,601.8c13.4,3.6,26.8,7.3,40.2,10.9c7.2,2,14.6,3.9,22,3.5c0.9-0.1,2.2,0.1,2.3,1.1"/>
				<path class="st0" d="M450.3,602c9.8,4.3,20.3,7.2,30.9,8.7"/>
				<path class="st0" d="M338.3,571.1c24.8,10.5,52.4,11.6,79.3,12.5c35.4,1.2,70.9,2.5,106.3,3.7c19,0.7,38,1.3,56.9-0.4"/>
				<line class="st0" x1="569.3" y1="285.1" x2="569.3" y2="587.4"/>
				<line class="st0" x1="551.3" y1="266.4" x2="0" y2="266.4"/>
				<line class="st0" x1="540.8" y1="274.8" x2="540.8" y2="571.4"/>
				<line class="st0" x1="435.8" y1="274.8" x2="435.8" y2="572.4"/>
				<line class="st0" x1="463.4" y1="274.5" x2="463.4" y2="569.9"/>
				<path class="st0" d="M395.4,274.5c0,0.2,0,0.4,0,0.7v294.7"/>
				<line class="st2" x1="326.5" y1="254.9" x2="326.5" y2="632.9"/>
				<line class="st2" x1="-0.8" y1="254.7" x2="-0.8" y2="348.9"/>
			</g>
			<g>
				<path class="st2" d="M0,291.4c34.4,16.5,74.5,17.3,112.9,15.6c30.9-1.4,61.9-4.2,91.5-13.2c25.5-7.8,50-20.5,69-39.1"/>
				<path class="st2" d="M-0.1,268.6c38.8,21.8,80.5,39.1,124.5,46c47.1,7.4,97,2.2,138.9-20.4c17.5-9.4,33.9-22.5,43.7-39.5"/>
				<g>
					<g>
						<polygon class="st1" points="336.3,304.3 332.3,304.3 332.3,288.4 330.3,288.4 330.3,284.4 320.7,284.4 320.7,288.4 
							314.5,288.4 314.5,284.4 304.9,284.4 304.9,288.4 302.9,288.4 302.9,304.3 298.9,304.3 298.9,313 321.1,313 336.3,313 						
							"/>
						<path class="st1" d="M320,313h-21.1v10c0,10.3,8.4,18.7,18.7,18.7s18.7-8.4,18.7-18.7v-10h-15.2l0,0H320z"/>
					</g>
					<g>
						<path class="st2" d="M298.9,313v10c0,10.3,8.4,18.7,18.7,18.7l0,0c10.3,0,18.7-8.4,18.7-18.7v-10"/>
						<rect x="298.9" y="304.3" class="st2" width="37.4" height="8.7"/>
						<path class="st2" d="M314.1,313v14.7c0,2,1.6,3.5,3.5,3.5l0,0c2,0,3.5-1.6,3.5-3.5V313"/>
						<rect x="302.9" y="288.4" class="st2" width="29.5" height="15.8"/>
						<rect x="304.9" y="284.4" class="st2" width="9.6" height="4.1"/>
						<rect x="320.7" y="284.4" class="st2" width="9.6" height="4.1"/>
					</g>
					<path class="st2" d="M325.9,284.4c-0.2-9.9-0.2-19.8,0.1-29.6"/>
					<path class="st2" d="M310.7,254.7c0.2,9.9,0.1,19.8-0.1,29.6"/>
					<line class="st2" x1="326.5" y1="289.9" x2="326.5" y2="304.3"/>
					<line class="st2" x1="318" y1="289.9" x2="318" y2="303"/>
					<line class="st2" x1="322.5" y1="304.3" x2="322.5" y2="313"/>
					<line class="st2" x1="328.5" y1="304.4" x2="328.5" y2="312.5"/>
					<line class="st2" x1="307.5" y1="304.9" x2="307.5" y2="313"/>
				</g>
			</g>
		</g>
	</g>
	<g id="_x31_7">
		<g>
			<g>
				<line class="st3" x1="772.2" y1="-199" x2="772.2" y2="-160.5"/>
			</g>
		</g>
	</g>
</g>
</svg>
