<?xml version="1.0" encoding="utf-8"?>
<!-- Generator: Adobe Illustrator 19.0.0, SVG Export Plug-In . SVG Version: 6.00 Build 0)  -->
<svg version="1.1" id="Слой_1" xmlns="http://www.w3.org/2000/svg" xmlns:xlink="http://www.w3.org/1999/xlink" x="0px" y="0px"
	 viewBox="0 1030 1920 865.8" style="enable-background:new 0 1030 1920 865.8;" xml:space="preserve">
<style type="text/css">
	.st0{fill:#F4E1A1;}
	.st1{fill:none;stroke:#827957;stroke-width:2;stroke-linecap:round;stroke-linejoin:round;stroke-miterlimit:10;}
	.st2{fill:none;stroke:#827957;stroke-linecap:round;stroke-linejoin:round;stroke-miterlimit:10;}
	.st3{fill:none;stroke:#827957;stroke-width:2.0066;stroke-linecap:round;stroke-linejoin:round;stroke-miterlimit:10;}
	.st4{display:none;fill:none;stroke:#827957;stroke-width:2;stroke-linecap:round;stroke-linejoin:round;stroke-miterlimit:10;}
	.st5{fill:none;stroke:#817957;stroke-width:2;stroke-linecap:round;stroke-linejoin:round;stroke-miterlimit:10;}
</style>
<g id="conveer_x5F_elements">
	<g id="_x30_2">
		<g>
			<g>
				<g>
					<polygon class="st0" points="381.8,1239.5 374.8,1239.5 374.8,1243.4 1.4,1243.4 1.4,1268.1 374.8,1268.1 374.8,1272 
						381.8,1272 381.8,1275 392.7,1275 392.7,1236.4 381.8,1236.4 					"/>
					<path class="st0" d="M387.3,1226.2c0,3,2.5,5.5,5.5,5.5v-10.9C389.7,1220.7,387.3,1223.1,387.3,1226.2z"/>
					<path class="st0" d="M387.3,1285.3c0,3,2.5,5.5,5.5,5.5v-10.9C389.7,1279.8,387.3,1282.3,387.3,1285.3z"/>
				</g>
				<g>
					<rect x="381.8" y="1236.4" class="st1" width="10.9" height="38.5"/>
					<path class="st1" d="M392.7,1231.6c-3,0-5.5-2.5-5.5-5.5s2.5-5.5,5.5-5.5"/>
					<path class="st1" d="M392.7,1290.8c-3,0-5.5-2.5-5.5-5.5s2.5-5.5,5.5-5.5"/>
				</g>
				<g>
					<g>
						<line class="st1" x1="320.4" y1="1243.4" x2="320.4" y2="1261.9"/>
					</g>
					<rect x="374.8" y="1239.5" class="st1" width="7" height="32.5"/>
					<line class="st1" x1="1.4" y1="1243.4" x2="374.8" y2="1243.4"/>
					<line class="st1" x1="1.4" y1="1268.1" x2="374.8" y2="1268.1"/>
					<line class="st1" x1="1.4" y1="1243.4" x2="1.4" y2="1268.1"/>
				</g>
				<line class="st2" x1="389" y1="1236.9" x2="389" y2="1275"/>
				<line class="st1" x1="374.8" y1="1261.9" x2="1.4" y2="1261.9"/>
				<line class="st1" x1="392.7" y1="1220.7" x2="392.7" y2="1290.8"/>
			</g>
			<g>
				<g>
					<polygon class="st0" points="381.8,1347.1 374.8,1347.1 374.8,1351 1.4,1351 1.4,1375.7 374.8,1375.7 374.8,1379.6 
						381.8,1379.6 381.8,1382.6 392.7,1382.6 392.7,1344.1 381.8,1344.1 					"/>
					<path class="st0" d="M387.3,1333.8c0,3,2.5,5.5,5.5,5.5v-10.9C389.7,1328.3,387.3,1330.8,387.3,1333.8z"/>
					<path class="st0" d="M387.3,1392.9c0,3,2.5,5.5,5.5,5.5v-10.9C389.7,1387.4,387.3,1389.9,387.3,1392.9z"/>
				</g>
				<g>
					<rect x="381.8" y="1344.1" class="st1" width="10.9" height="38.5"/>
					<path class="st1" d="M392.7,1339.3c-3,0-5.5-2.5-5.5-5.5s2.5-5.5,5.5-5.5"/>
					<path class="st1" d="M392.7,1398.4c-3,0-5.5-2.5-5.5-5.5s2.5-5.5,5.5-5.5"/>
				</g>
				<g>
					<g>
						<line class="st1" x1="320.4" y1="1351" x2="320.4" y2="1369.5"/>
					</g>
					<rect x="374.8" y="1347.1" class="st1" width="7" height="32.5"/>
					<line class="st1" x1="1.4" y1="1351" x2="374.8" y2="1351"/>
					<line class="st1" x1="1.4" y1="1375.7" x2="374.8" y2="1375.7"/>
					<line class="st1" x1="1.4" y1="1351" x2="1.4" y2="1375.7"/>
				</g>
				<line class="st2" x1="390" y1="1344.4" x2="390" y2="1381.5"/>
				<line class="st1" x1="374.8" y1="1369.5" x2="1.9" y2="1369.5"/>
				<line class="st1" x1="392.7" y1="1328.3" x2="392.7" y2="1398.4"/>
			</g>
		</g>
		<g>
			<rect x="392.7" y="1139.3" class="st0" width="1134.1" height="378"/>
			<g>
				<g>
					<rect x="392.7" y="1139.3" class="st1" width="1134.1" height="378"/>
					<rect x="412.8" y="1159.4" class="st1" width="1094" height="296.6"/>
					<rect x="1172.4" y="1486.9" class="st1" width="177.2" height="30.4"/>
					<rect x="569.9" y="1486.9" class="st1" width="177.2" height="30.4"/>
					<g>
						<g>
							<line class="st1" x1="453.4" y1="1159.4" x2="453.4" y2="1434"/>
							<line class="st1" x1="493.9" y1="1159.4" x2="493.9" y2="1434"/>
							<line class="st1" x1="534.5" y1="1159.4" x2="534.5" y2="1434"/>
							<line class="st1" x1="575" y1="1159.4" x2="575" y2="1434"/>
							<line class="st1" x1="615.6" y1="1159.4" x2="615.6" y2="1434"/>
							<line class="st2" x1="656.2" y1="1159.4" x2="656.2" y2="1434"/>
							<line class="st1" x1="696.7" y1="1159.4" x2="696.7" y2="1434"/>
							<line class="st1" x1="737.3" y1="1159.4" x2="737.3" y2="1434"/>
							<line class="st1" x1="777.8" y1="1159.4" x2="777.8" y2="1434"/>
							<line class="st1" x1="818.4" y1="1159.4" x2="818.4" y2="1434"/>
							<line class="st1" x1="859" y1="1159.4" x2="859" y2="1434"/>
							<line class="st1" x1="899.5" y1="1159.4" x2="899.5" y2="1434"/>
							<line class="st1" x1="940.1" y1="1159.4" x2="940.1" y2="1434"/>
							<line class="st1" x1="980.6" y1="1159.4" x2="980.6" y2="1434"/>
							<line class="st1" x1="1021.2" y1="1159.4" x2="1021.2" y2="1434"/>
							<line class="st1" x1="1061.8" y1="1159.4" x2="1061.8" y2="1434"/>
							<line class="st1" x1="1102.3" y1="1159.4" x2="1102.3" y2="1434"/>
							<line class="st1" x1="1142.9" y1="1159.4" x2="1142.9" y2="1434"/>
							<line class="st1" x1="1183.4" y1="1159.4" x2="1183.4" y2="1434"/>
							<line class="st1" x1="1224" y1="1159.4" x2="1224" y2="1434"/>
							<line class="st1" x1="1264.6" y1="1159.4" x2="1264.6" y2="1434"/>
							<line class="st1" x1="1305.1" y1="1159.4" x2="1305.1" y2="1434"/>
							<line class="st1" x1="1345.7" y1="1159.4" x2="1345.7" y2="1434"/>
							<line class="st1" x1="1386.3" y1="1159.4" x2="1386.3" y2="1434"/>
							<line class="st1" x1="1426.8" y1="1159.4" x2="1426.8" y2="1434"/>
							<line class="st1" x1="1467.4" y1="1159.4" x2="1467.4" y2="1434"/>
						</g>
						<g>
							<path class="st2" d="M534.5,1205.5c12-5.1,25.1-7.7,39.1-7.7c0.5,0,0.9,0,1.4,0 M615.6,1206.9c6.6,3.1,12.9,7,19,11.6
								c3.5,2.8,5.6,6.4,6.3,10.9c0.6,4.6-0.6,8.7-3.4,12.3c-2.8,3.6-6.4,5.7-10.9,6.3c-4,0.5-7.7-0.3-11-2.3 M575,1231
								c-0.5,0-0.9,0-1.4,0c-14.8,0-27.8,4.2-39.1,12.6 M534.5,1351.8c11.3,8.4,24.4,12.7,39.1,12.7c0.5,0,0.9,0,1.4,0
								 M615.6,1349.8c1-0.8,2-1.7,3.1-2.6c3.4-3.1,7.3-4.5,11.9-4.3c4.6,0.2,8.4,2,11.5,5.5c3.1,3.4,4.5,7.3,4.3,11.9
								c-0.2,4.6-2,8.4-5.3,11.5c-7.9,7.2-16.4,12.9-25.4,17.1 M575,1397.6c-0.5,0-0.9,0-1.4,0c-14.1,0-27.1-2.6-39.1-7.7
								 M493.9,1358.1c-13.4-17.4-20.1-37.5-20.1-60.3c0-22.9,6.7-43,20.1-60.4"/>
							<path class="st2" d="M696.7,1204.3c0.5-0.6,1-1.1,1.5-1.7c3.2-3.3,7-4.9,11.6-4.9s8.4,1.6,11.6,4.9c3.3,3.2,4.9,7,4.9,11.6
								V1381c0,4.6-1.6,8.4-4.9,11.6c-3.2,3.3-7,4.9-11.6,4.9s-8.4-1.6-11.6-4.9c-0.5-0.5-1-1.1-1.5-1.7"/>
							<path class="st2" d="M859,1273l27.4,45.2l13.2-21.8 M940.1,1229.4l15-24.9c1.9-3.2,4.5-5.5,8-6.9c3.4-1.3,5.2-2,5.2-2
								s1.8,0.5,5.5,1.4c2.7,0.8,5,2.1,6.9,4 M980.6,1393.1c-3.2,3-7,4.6-11.4,4.6c-4.6,0-8.5-1.6-11.7-4.9c-3.2-3.2-4.8-7-4.8-11.6
								v-108.8l-12.7,20.9 M899.5,1360.1l-0.3,0.5c-0.4,0.4-0.6,0.6-0.7,0.7c-0.1,0.1-0.3,0.3-0.6,0.6s-0.5,0.5-0.6,0.6
								c-0.2,0.2-0.5,0.4-0.8,0.7l-0.4,0.4c-0.3,0.2-0.6,0.4-1,0.6c0,0.1,0,0.1-0.1,0.1l-0.1,0.1h-0.1c-0.2,0.2-0.5,0.4-1,0.6
								c-0.4,0.2-0.5,0.3-0.4,0.3c-0.1,0-0.4,0.1-0.8,0.3c-2.1,0.9-4.4,1.3-6.7,1.3h-0.3c0.2,0,0,0-0.6-0.1
								c-1.2-0.1-2.4-0.3-3.6-0.7c-0.5-0.1-0.7-0.1-0.6-0.1c0.2,0.1,0,0-0.6-0.1c-0.5-0.2-0.8-0.3-1-0.4c0.1,0,0-0.1-0.3-0.3
								c-0.5-0.2-0.8-0.4-1.1-0.6h-0.1l-0.1-0.1l-0.1-0.1c-0.4-0.2-0.7-0.4-1-0.7c0,0.1-0.1,0-0.4-0.3c-0.4-0.3-0.7-0.5-0.8-0.7
								c-0.1-0.1-0.3-0.3-0.6-0.6s-0.5-0.5-0.6-0.6c-0.1-0.2-0.3-0.4-0.7-0.7c-0.2-0.3-0.3-0.5-0.3-0.6c-0.2-0.2-0.4-0.5-0.7-1
								l-0.1-0.1c0-0.1,0-0.1-0.1-0.1v-0.1c0-0.1,0-0.1-0.1-0.1L859,1337 M818.4,1388.1c-0.8,1.7-1.9,3.3-3.4,4.7
								c-3.3,3.3-7.2,4.9-11.7,4.9s-8.4-1.6-11.6-4.9c-3.3-3.2-4.9-7-4.9-11.6V1213c0-3.7,1.1-7,3.4-9.9c2.2-3,5.2-5,8.8-6
								c3.5-0.9,7-0.7,10.5,0.6c3.5,1.4,6.2,3.7,8.1,6.9l0.9,1.5"/>
							<path class="st2" d="M1102.3,1201.6c9.9-3.2,20.4-4.8,31.7-4.8c3,0,6,0.1,8.9,0.3 M1183.4,1209.5c7.7,4.4,14.9,10,21.6,16.6
								c7.9,8,14.3,16.6,19,25.9 M1224,1342.3c-4.7,9.3-11,17.9-19,25.8c-6.7,6.7-13.9,12.3-21.6,16.7 M1142.9,1397.3
								c-2.9,0.2-5.9,0.3-8.9,0.3c-11.2,0-21.8-1.6-31.7-4.8 M1061.8,1366.8c-18.8-19.3-28.2-42.5-28.2-69.6s9.4-50.3,28.2-69.7
								 M1102.3,1356.9c9.5,5.2,20,7.8,31.7,7.8c3,0,6-0.2,8.9-0.5 M1183.4,1342.9c12-12.8,17.9-28,17.9-45.7s-6-33-17.9-45.8
								 M1142.9,1230.3c-2.9-0.4-5.9-0.5-8.9-0.5c-11.6,0-22.2,2.6-31.7,7.7"/>
							<path class="st2" d="M1305.1,1197.8L1305.1,1197.8c3.4,1,6.1,2.9,8.3,5.7l32.3,41.6 M1386.3,1297.3l27.7,35.7v-119.4
								c0-4.6,1.6-8.4,4.8-11.6c2.4-2.4,5.1-3.9,8.1-4.5 M1427,1397.3c-0.1,0-0.2-0.1-0.6-0.2c-0.5-0.1-0.8-0.2-1.1-0.3
								c-0.1,0-0.3-0.1-0.6-0.3c-0.5-0.1-0.8-0.2-1.1-0.4c-0.2,0-0.4-0.1-0.6-0.3c-0.4-0.2-0.7-0.3-1-0.4c-0.3-0.2-0.5-0.3-0.6-0.4
								c-0.3-0.2-0.6-0.4-1-0.7c-0.3-0.2-0.5-0.3-0.6-0.4c-0.5-0.4-0.9-0.7-1.3-1.1l-0.1-0.1v-0.1c-0.4-0.4-0.6-0.6-0.6-0.6
								s-0.1-0.2-0.4-0.6h-0.1v-0.1l-31.2-40.1 M1345.7,1298.9l-28.8-37v119.3c0,4.6-1.6,8.4-4.9,11.6c-2,2.1-4.3,3.5-6.9,4.2"/>
						</g>
					</g>
				</g>
				<line class="st1" x1="412.8" y1="1434" x2="1506.8" y2="1434"/>
				<polyline class="st1" points="412.8,1169.7 392.7,1169.7 392.7,1139.3 423.1,1139.3 423.1,1159.4 				"/>
				<polyline class="st1" points="1496.4,1159.4 1496.4,1139.3 1526.8,1139.3 1526.8,1169.7 1506.8,1169.7 				"/>
				<rect x="392.7" y="1486.9" class="st1" width="30.4" height="30.4"/>
				<rect x="1496.4" y="1486.9" class="st1" width="30.4" height="30.4"/>
			</g>
			<line class="st2" x1="449" y1="1158.9" x2="449" y2="1433.4"/>
			<line class="st2" x1="529.5" y1="1159.4" x2="529.5" y2="1433.9"/>
			<line class="st1" x1="661" y1="1159.4" x2="661" y2="1433.9"/>
			<line class="st2" x1="601.5" y1="1159.4" x2="601.5" y2="1433.5"/>
			<line class="st2" x1="769.5" y1="1160.4" x2="769.5" y2="1433.4"/>
			<line class="st2" x1="853.5" y1="1160.4" x2="853.5" y2="1432.6"/>
			<line class="st2" x1="1015.5" y1="1159.4" x2="1015.5" y2="1432.5"/>
			<line class="st2" x1="1177.5" y1="1159.4" x2="1177.5" y2="1431.4"/>
			<line class="st2" x1="1259.5" y1="1159.4" x2="1259.5" y2="1431.4"/>
			<line class="st2" x1="1457.5" y1="1159.4" x2="1457.5" y2="1433.4"/>
			<path class="st2" d="M392.9,1164.4c3.7-9.5,9.7-18,17.4-24.6"/>
			<path class="st2" d="M398.1,1169.5c4.6-10.2,13.6-18.3,24.3-21.9"/>
			<path class="st2" d="M392.9,1512.2c5.6,1.2,11.1,2.8,16.5,4.9"/>
			<path class="st2" d="M393.5,1505.8c9.1,2.7,18.5,4.2,28,4.4"/>
			<path class="st2" d="M393.5,1500.9c-0.6-0.2-1.2,0.5-0.9,1c10.1,1,20.3,1.3,30.4,0.9"/>
			<path class="st2" d="M1497,1514.6c9.5-1.9,19-4.1,28.3-6.6"/>
			<path class="st2" d="M1496.6,1511.3c6.5-1.7,12.8-4.3,18.7-7.7c3.3-1.9,7.2-4.2,10.8-2.9"/>
			<path class="st2" d="M1497,1506c9.2-4.1,18.9-7.2,28.9-9"/>
			<path class="st2" d="M1173.4,1513.8c10.9-10.7,23.5-19.5,37.2-26.2"/>
			<path class="st2" d="M1172.8,1504.7c5.5-5.2,10.5-11,14.8-17.2"/>
			<path class="st2" d="M1184.9,1517.1c23.5-9.6,46.9-19.5,70-30"/>
			<path class="st2" d="M1210.9,1516.4c9.2-1.2,18.2-3.4,26.9-6.7c2.9-1.1,6.2-2.7,7-5.7c0.2-0.9,0.2-1.9,0.7-2.7
				c0.5-1,1.7-1.6,2.7-2.1c12.6-6,26.1-10.1,39.8-12.2"/>
			<path class="st2" d="M1320.5,1487.7c10.2,2.3,21.1,5,28.2,12.7c0.5,0.5,0.9,1.3,0.5,1.9"/>
			<path class="st2" d="M570.4,1497.4c4.4-4.4,10-7.7,16.1-9.4"/>
			<path class="st2" d="M570.3,1506.7c10.8-7.2,22.2-13.6,34-19.2"/>
			<path class="st2" d="M569.6,1514.2c9.7-4.3,19.4-8.5,29.2-12.8c5.5-2.4,11.2-4.9,17.2-5.3c2.4-0.2,4.8,0,7-0.8
				c4.6-1.7,7.2-7,11.9-8.1"/>
			<path class="st2" d="M580,1517.8c12.6-1.6,25.3-3.2,37.9-4.7c4.3-0.5,8.9-1.2,12.3-3.9s5-8.3,2-11.5c18-5.2,36.5-8.6,55.2-10"/>
			<line class="st2" x1="423.6" y1="1152.6" x2="1496" y2="1152.6"/>
			<path class="st2" d="M393.6,1469c1,0,2,0,3,0h1124.9"/>
			<line class="st2" x1="747.6" y1="1503.5" x2="1172.1" y2="1503.5"/>
			<line class="st2" x1="423.1" y1="1496" x2="569.9" y2="1496"/>
			<path class="st2" d="M1497,1152.1c9.4,3.6,19.4,5.8,29.4,6.3"/>
			<path class="st2" d="M1502.3,1139.4c6.1,6.8,15.1,10.8,24.2,10.9"/>
		</g>
		<g>
			<path class="st0" d="M1629.3,1889.6c-3.1,0-5.6,2.4-5.7,5.5h-4.3v-10.7c0-0.1-0.1-0.3-0.3-0.3h-2.8v-6.8c0-0.1-0.1-0.3-0.3-0.3
				h-3.7v-54v-7.2v-496.4v-8.6h9.9c0.1,0,0.3-0.1,0.3-0.3v-8.7h9.7c0.1,0,0.3-0.1,0.3-0.3v-9.9c0-0.1-0.1-0.3-0.3-0.3h-9.7v-7.2h9.7
				c0.1,0,0.3-0.1,0.3-0.3v-9.9c0-0.1-0.1-0.3-0.3-0.3h-9.7v-8.1c0-0.1-0.1-0.3-0.3-0.3h-9.9v-8.6v-8.8v-40.2V1170v-139.7
				c0-0.1-0.1-0.3-0.3-0.3h-24.7c-0.1,0-0.3,0.1-0.3,0.3V1248v8.8v8.6h-9.9c-0.1,0-0.3,0.1-0.3,0.3v9.9h-29.6v-3.7
				c0-0.1-0.1-0.3-0.3-0.3h-6.8v-10.4c0-0.1-0.1-0.3-0.3-0.3h-7.8v-0.6c0-0.1-0.1-0.3-0.3-0.3s-0.3,0.1-0.3,0.3v0.6h-4.9
				c-0.1,0-0.3,0.1-0.3,0.3v53.8c0,0.1,0.1,0.3,0.3,0.3h13.3c0.1,0,0.3-0.1,0.3-0.3v-10.4h6.8c0.1,0,0.3-0.1,0.3-0.3v-3.6h29.6v9.9
				c0,0.1,0.1,0.3,0.3,0.3h9.9v8.6v496.4v7.2v54.1h-3.6c-0.1,0-0.3,0.1-0.3,0.3v6.8h-2.8c-0.1,0-0.3,0.1-0.3,0.3v10.7h-4.3
				c-0.1-3-2.6-5.5-5.7-5.5c-3.2,0-5.7,2.6-5.7,5.7c0,0.1,0.1,0.3,0.3,0.3h15.8h38.5h15.8c0.1,0,0.3-0.1,0.3-0.3
				C1635,1892.2,1632.4,1889.6,1629.3,1889.6z"/>
			<g>
				<rect x="1526.8" y="1261.3" class="st1" width="13.3" height="53.8"/>
				<line class="st1" x1="1587.4" y1="1265.7" x2="1587.4" y2="1030.2"/>
				<line class="st1" x1="1612" y1="1030.2" x2="1612" y2="1265.7"/>
				<g>
					<line class="st1" x1="1587.4" y1="1823" x2="1587.4" y2="1310.6"/>
					<line class="st1" x1="1612" y1="1310.6" x2="1612" y2="1823"/>
				</g>
				<g>
					<rect x="1577.2" y="1265.7" class="st1" width="44.9" height="44.9"/>
					<g>
						<circle class="st1" cx="1599.7" cy="1288.1" r="10.8"/>
						<circle class="st1" cx="1599.7" cy="1288.1" r="6.9"/>
					</g>
				</g>
				<rect x="1587.4" y="1256.8" class="st1" width="24.7" height="8.8"/>
				<rect x="1587.4" y="1248" class="st1" width="24.7" height="8.8"/>
				<rect x="1587.4" y="1310.6" class="st1" width="24.7" height="8.8"/>
				<g>
					<g>
						<line class="st1" x1="1570.1" y1="1300.5" x2="1570.1" y2="1275.8"/>
					</g>
					<rect x="1540.1" y="1271.9" class="st1" width="7" height="32.5"/>
					<line class="st1" x1="1577.2" y1="1300.5" x2="1547.1" y2="1300.5"/>
					<line class="st1" x1="1577.2" y1="1275.8" x2="1547.1" y2="1275.8"/>
				</g>
				<rect x="1599.7" y="1170" class="st1" width="12.3" height="37.9"/>
				<line class="st1" x1="1547.1" y1="1281.3" x2="1570.1" y2="1281.3"/>
				<rect x="1622.2" y="1274.1" class="st1" width="9.9" height="9.9"/>
				<rect x="1622.2" y="1291.7" class="st1" width="9.9" height="9.9"/>
				<path class="st1" d="M1632.1,1279.5c41.7,2.2,83.5,4.2,125,0.1c57.1-5.6,113-22.8,163.5-50.1"/>
				<path class="st1" d="M1632.1,1298.2c91.5,9,186.3,5,270.8-31c5.7-2.4,11.3-5,16.9-7.6"/>
				<g>
					<g>
						<rect x="1580.4" y="1884.4" class="st1" width="38.5" height="10.9"/>
						<path class="st1" d="M1623.8,1895.4c0-3,2.5-5.5,5.5-5.5s5.5,2.5,5.5,5.5"/>
						<path class="st1" d="M1564.7,1895.4c0-3,2.5-5.5,5.5-5.5s5.5,2.5,5.5,5.5"/>
					</g>
					<g>
						<g>
							<line class="st1" x1="1612" y1="1823" x2="1587.4" y2="1823"/>
						</g>
						<rect x="1583.5" y="1877.4" class="st1" width="32.5" height="7"/>
						<line class="st1" x1="1612" y1="1815.9" x2="1612" y2="1877.4"/>
						<line class="st1" x1="1587.4" y1="1815.9" x2="1587.4" y2="1877.4"/>
					</g>
					<line class="st1" x1="1593.5" y1="1877.4" x2="1593.5" y2="1823"/>
				</g>
				<line class="st1" x1="1587.5" y1="1036.4" x2="1611.3" y2="1036.4"/>
				<line class="st1" x1="1587.5" y1="1041.4" x2="1612" y2="1041.4"/>
				<line class="st1" x1="1587.4" y1="1052.4" x2="1611.1" y2="1052.4"/>
				<line class="st1" x1="1532" y1="1260.4" x2="1532" y2="1314.9"/>
			</g>
			<line class="st2" x1="1602.5" y1="1319.1" x2="1602.5" y2="1823"/>
			<line class="st1" x1="1564.7" y1="1895.4" x2="1634.7" y2="1895.4"/>
			<line class="st1" x1="1587.4" y1="1030.2" x2="1612" y2="1030.2"/>
		</g>
	</g>
	<g id="_x30_5">
		<g>
			<g>
				<rect x="197.4" y="1612" class="st0" width="127.9" height="283.3"/>
				<rect x="197.4" y="1612" class="st1" width="127.9" height="283.3"/>
				<g>
					<g>
						<circle class="st1" cx="285.6" cy="1708.9" r="10.8"/>
						<circle class="st1" cx="285.6" cy="1708.9" r="6.9"/>
					</g>
					<g>
						<circle class="st1" cx="285.6" cy="1654.8" r="10.8"/>
						<circle class="st1" cx="285.6" cy="1654.8" r="6.9"/>
					</g>
					<g>
						<circle class="st1" cx="285.6" cy="1681.8" r="10.8"/>
						<circle class="st1" cx="285.6" cy="1681.8" r="6.9"/>
					</g>
				</g>
				<g>
					<g>
						<circle class="st1" cx="238.4" cy="1708.9" r="10.8"/>
						<circle class="st1" cx="238.4" cy="1708.9" r="6.9"/>
					</g>
					<g>
						<circle class="st1" cx="238.4" cy="1654.8" r="10.8"/>
						<circle class="st1" cx="238.4" cy="1654.8" r="6.9"/>
					</g>
					<g>
						<circle class="st1" cx="238.4" cy="1681.8" r="10.8"/>
						<circle class="st1" cx="238.4" cy="1681.8" r="6.9"/>
					</g>
				</g>
				<g>
					<rect x="221.5" y="1780.2" class="st1" width="74.9" height="115.2"/>
					<g>
						<line class="st1" x1="278.6" y1="1793.1" x2="278.6" y2="1842.1"/>
						<line class="st1" x1="273" y1="1793.1" x2="273" y2="1842.1"/>
						<line class="st1" x1="267.4" y1="1793.1" x2="267.4" y2="1842.1"/>
						<line class="st1" x1="261.7" y1="1793.1" x2="261.7" y2="1842.1"/>
						<line class="st1" x1="256.1" y1="1793.1" x2="256.1" y2="1842.1"/>
						<line class="st1" x1="250.5" y1="1793.1" x2="250.5" y2="1842.1"/>
						<line class="st1" x1="244.9" y1="1793.1" x2="244.9" y2="1842.1"/>
						<line class="st1" x1="239.2" y1="1793.1" x2="239.2" y2="1842.1"/>
					</g>
					<circle class="st1" cx="289.5" cy="1787" r="2.2"/>
					<circle class="st1" cx="228.3" cy="1787" r="2.2"/>
				</g>
				<line class="st1" x1="262" y1="1612" x2="262" y2="1780.2"/>
				<line class="st1" x1="296.4" y1="1886.6" x2="223.4" y2="1886.6"/>
				<line class="st1" x1="296.4" y1="1883.1" x2="221.9" y2="1883.1"/>
			</g>
		</g>
		<g>
			<g>
				<polygon class="st0" points="186.5,1692.8 179.5,1692.8 179.5,1696.7 1.5,1696.7 1.5,1721.4 179.5,1721.4 179.5,1725.3 
					186.5,1725.3 186.5,1728.3 197.4,1728.3 197.4,1689.8 186.5,1689.8 				"/>
				<path class="st0" d="M192,1679.5c0,3,2.5,5.5,5.5,5.5v-11C194.4,1674,192,1676.5,192,1679.5z"/>
				<path class="st0" d="M192,1738.6c0,3,2.5,5.5,5.5,5.5v-10.9C194.4,1733.1,192,1735.6,192,1738.6z"/>
			</g>
			<g>
				<rect x="186.5" y="1689.8" class="st1" width="10.9" height="38.5"/>
				<path class="st1" d="M197.4,1684.9c-3,0-5.5-2.5-5.5-5.5s2.5-5.5,5.5-5.5"/>
				<path class="st1" d="M197.4,1744.1c-3,0-5.5-2.5-5.5-5.5s2.5-5.5,5.5-5.5"/>
			</g>
			<g>
				<g>
					<line class="st1" x1="8.7" y1="1696.7" x2="8.7" y2="1721.4"/>
				</g>
				<rect x="179.5" y="1692.8" class="st1" width="7" height="32.5"/>
				<line class="st1" x1="1.5" y1="1696.7" x2="179.5" y2="1696.7"/>
				<line class="st1" x1="1.5" y1="1721.4" x2="179.5" y2="1721.4"/>
				<line class="st1" x1="1.5" y1="1696.7" x2="1.5" y2="1721.4"/>
			</g>
			<line class="st1" x1="179.5" y1="1715.2" x2="8.7" y2="1715.2"/>
			<line class="st1" x1="197.4" y1="1674" x2="197.4" y2="1744.1"/>
		</g>
		<g>
			<g>
				<polygon class="st0" points="186.5,1798.1 179.5,1798.1 179.5,1802 1.5,1802 1.5,1826.7 179.5,1826.7 179.5,1830.6 
					186.5,1830.6 186.5,1833.6 197.4,1833.6 197.4,1795.1 186.5,1795.1 				"/>
				<path class="st0" d="M192,1784.8c0,3,2.5,5.5,5.5,5.5v-10.9C194.4,1779.3,192,1781.8,192,1784.8z"/>
				<path class="st0" d="M192,1843.9c0,3,2.5,5.5,5.5,5.5v-10.9C194.4,1838.4,192,1840.9,192,1843.9z"/>
			</g>
			<g>
				<rect x="186.5" y="1795.1" class="st1" width="10.9" height="38.5"/>
				<path class="st1" d="M197.4,1790.2c-3,0-5.5-2.5-5.5-5.5s2.5-5.5,5.5-5.5"/>
				<path class="st1" d="M197.4,1849.4c-3,0-5.5-2.5-5.5-5.5s2.5-5.5,5.5-5.5"/>
			</g>
			<g>
				<g>
					<line class="st1" x1="8.7" y1="1802" x2="8.7" y2="1826.7"/>
				</g>
				<rect x="179.5" y="1798.1" class="st1" width="7" height="32.5"/>
				<line class="st1" x1="1.5" y1="1802" x2="179.5" y2="1802"/>
				<line class="st1" x1="1.5" y1="1826.7" x2="179.5" y2="1826.7"/>
				<line class="st1" x1="1.5" y1="1802" x2="1.5" y2="1826.7"/>
			</g>
			<line class="st1" x1="179.5" y1="1820.5" x2="8.7" y2="1820.5"/>
			<line class="st1" x1="197.4" y1="1779.3" x2="197.4" y2="1849.4"/>
		</g>
	</g>
	<g id="_x31_3">
		<g>
			<g>
				<g>
					<rect x="966.9" y="1603.9" class="st0" width="10.9" height="45.2"/>
					<path class="st0" d="M977.8,1613v9.9h4.1c0,0.1,0,0.1,0,0.2v-0.2h5.9v-9.9H977.8z"/>
					<path class="st0" d="M982.9,1631h-5.1v9.9h4.3v0.2c0-0.1,0-0.1,0-0.2h5.6v-9.9h-4.6C983.1,1631,983,1631,982.9,1631z"/>
				</g>
				<g>
					<g>
						<polyline class="st1" points="966.9,1649.1 977.8,1649.1 977.8,1603.9 966.9,1603.9 						"/>
						<rect x="977.8" y="1613" class="st1" width="9.9" height="9.9"/>
						<rect x="977.8" y="1631" class="st1" width="9.9" height="9.9"/>
					</g>
				</g>
				<path class="st1" d="M987.7,1616.6c21.4-8.1,40.3-22.7,53.3-41.5c11.8-16.9,18.8-37.2,20.1-57.8"/>
				<path class="st1" d="M987.7,1636.7c13.1,1.9,26.9-2.4,38.9-8.6c40.4-21,67.4-65.4,68.2-110.8"/>
				<line class="st2" x1="971.2" y1="1604.4" x2="971.2" y2="1648.4"/>
				<path class="st2" d="M982.1,1613.7c-0.4,3.1-0.4,6.3-0.2,9.4"/>
				<path class="st2" d="M982.7,1631.5c-0.3-0.2,0.2-0.6,0.5-0.4s0.2,0.6,0.2,1c-0.4,3.1-0.9,6.1-1.3,9.2"/>
				<line class="st1" x1="966.9" y1="1603.9" x2="966.9" y2="1649.1"/>
			</g>
			<g>
				<path class="st0" d="M966.9,1864.9v-317.2v-30.4h-30.4H619.2h-30.4v30.4v317.2v30.4h30.4h70h32.4c-0.2,0.1-0.4,0.1-0.6,0.2
					l51.6-0.2h93.8h70h30.4L966.9,1864.9L966.9,1864.9z"/>
				<g>
					<path class="st1" d="M1659.7,1895.4"/>
					<path class="st1" d="M1467.4,1895.4"/>
					<path class="st1" d="M1230.6,1895.4"/>
					<path class="st1" d="M966.9,1895.4"/>
				</g>
				<path class="st2" d="M589.3,1526.7c6.8-3.1,13.6-6.1,20.4-9.2"/>
				<path class="st2" d="M588.9,1534.7c7.6-1.5,15.2-3.6,22.6-6.1c2.3-0.8,4.6-1.6,6.9-2.5"/>
				<path class="st2" d="M935.8,1523.8c10-0.3,20-0.2,30,0.2"/>
				<path class="st2" d="M936.5,1527.7c10,1.3,20,2.6,30,3.9"/>
				<line class="st2" x1="690" y1="1869.9" x2="864.8" y2="1869.9"/>
				<line class="st2" x1="689.5" y1="1872.9" x2="866.2" y2="1872.9"/>
				<line class="st2" x1="689.5" y1="1879.9" x2="865" y2="1879.9"/>
				<path class="st2" d="M694.1,1895c6.2-4.3,13.9-5.5,21.4-6.5c49.8-6.5,100.3-4.7,150.5-2.9"/>
				<path class="st2" d="M721,1895.5c23.3-6.4,48.2-6.4,71.5-0.2"/>
				<path class="st2" d="M936.4,1887.1c9.2,3.2,18.5,5.9,28,8.2"/>
				<path class="st2" d="M936,1882.3c10.3,1.2,20.7,2.5,31,3.7"/>
				<path class="st2" d="M935.5,1878.7c10,0.4,20.1,1.1,30.1,2.1c0.3,0,0.7,0.1,0.8,0.3s0,0.7-0.3,0.7"/>
				<path class="st2" d="M589.5,1888.6c9.6,2.4,19.6,3.7,29.5,3.8"/>
				<path class="st2" d="M589.1,1884.2c9.4,1.6,18.8,2.6,28.3,3c0.5,0,1.1,0.2,1.2,0.7c0.1,0.5-1,0.3-0.6,0"/>
				<path class="st2" d="M589,1882.1c9.8-0.1,19.7-0.3,29.5-0.4"/>
				<line class="st2" x1="589.8" y1="1849.1" x2="966.5" y2="1849.1"/>
				<line class="st2" x1="953.1" y1="1548.5" x2="953.1" y2="1843.1"/>
				<line class="st2" x1="600.6" y1="1547.7" x2="600.6" y2="1843.1"/>
				<line class="st2" x1="618.6" y1="1524.5" x2="936.6" y2="1524.5"/>
				<line class="st2" x1="614.1" y1="1537.4" x2="614.1" y2="1834"/>
				<line class="st2" x1="847.8" y1="1537.8" x2="847.8" y2="1714.8"/>
				<line class="st2" x1="847.8" y1="1789.7" x2="847.8" y2="1832.1"/>
				<path class="st2" d="M695.8,1538.4c0,2.7,0,5.3,0,8v287.3"/>
				<line class="st2" x1="600.6" y1="1843.1" x2="953.1" y2="1843.1"/>
				<line class="st1" x1="711.4" y1="1537.4" x2="711.4" y2="1834"/>
				<line class="st1" x1="741" y1="1537.4" x2="741" y2="1834"/>
				<line class="st1" x1="814.2" y1="1537.4" x2="814.2" y2="1714.8"/>
				<line class="st1" x1="843.8" y1="1537.4" x2="843.8" y2="1714.8"/>
				<rect x="588.8" y="1517.3" class="st1" width="378" height="378"/>
				<polyline class="st1" points="946.8,1547.7 946.8,1834 608.9,1834 608.9,1537.4 936.4,1537.4 				"/>
				<rect x="936.4" y="1517.3" class="st1" width="30.4" height="30.4"/>
				<polyline class="st1" points="608.9,1547.7 588.8,1547.7 588.8,1517.3 619.2,1517.3 619.2,1537.4 				"/>
				<rect x="936.4" y="1864.9" class="st1" width="30.4" height="30.4"/>
				<rect x="588.8" y="1864.9" class="st1" width="30.4" height="30.4"/>
				<rect x="689.2" y="1864.9" class="st1" width="177.2" height="30.4"/>
				<line class="st1" x1="946.8" y1="1685.7" x2="608.9" y2="1685.7"/>
				<line class="st1" x1="946.8" y1="1611.5" x2="608.9" y2="1611.5"/>
				<line class="st1" x1="777.8" y1="1537.4" x2="777.8" y2="1726.8"/>
				<line class="st1" x1="777.8" y1="1754.8" x2="777.8" y2="1834"/>
				<g>
					<path class="st1" d="M814.2,1789.7v44.3V1789.7z"/>
					<line class="st1" x1="946.8" y1="1759.8" x2="867.4" y2="1759.8"/>
					<path class="st1" d="M843.8,1789.7v44.3V1789.7z"/>
					<g>
						<line class="st1" x1="711.4" y1="1759.8" x2="711.4" y2="1834"/>
						<line class="st1" x1="741" y1="1759.8" x2="741" y2="1834"/>
					</g>
				</g>
				<g>
					<line class="st1" x1="814.2" y1="1537.4" x2="814.2" y2="1611.5"/>
					<line class="st1" x1="843.8" y1="1537.4" x2="843.8" y2="1611.5"/>
					<g>
						<line class="st1" x1="711.4" y1="1537.4" x2="711.4" y2="1611.5"/>
						<line class="st1" x1="741" y1="1537.4" x2="741" y2="1611.5"/>
					</g>
				</g>
			</g>
			<g>
				<g>
					<polygon class="st0" points="792.5,1714.8 792.5,1718.7 781.8,1718.7 781.8,1763.9 792.5,1763.9 792.5,1789.7 867.4,1789.7 
						867.4,1714.8 					"/>
					<rect x="771.8" y="1744.8" class="st0" width="9.9" height="9.9"/>
					<rect x="771.8" y="1726.8" class="st0" width="9.9" height="9.9"/>
				</g>
				<line class="st2" x1="789.2" y1="1718.4" x2="789.2" y2="1763.1"/>
				<line class="st2" x1="773.2" y1="1734.1" x2="780.8" y2="1734.1"/>
				<line class="st2" x1="772.5" y1="1752.1" x2="780.5" y2="1752.1"/>
				<path class="st2" d="M803.1,1769.3c3.3-5,11-6.5,12.7-12.2c0.6-2,0.3-4.1,0.8-6.1c1.1-4.4,5.4-7.1,9.4-9.2
					c2.6-1.4,6.3-2.7,8.2-0.4c2.3,2.8-0.7,7.9,2.1,10.3c1.3,1.1,3.3,0.9,4.8,0.1c1.5-0.8,2.6-2.2,3.8-3.4c3.2-3.1,7.5-5.1,11.9-5.7"
					/>
				<path class="st2" d="M808.8,1777.4c2.9-3.1,6-6.1,9.2-9c3.7-3.3,8-6.5,12.9-6.3c4,0.2,7.5,2.7,11.4,3.9c5,1.4,10.6,0.4,14.6-2.8
					"/>
				<path class="st2" d="M803.1,1748.7c8.4-4.6,14.6-13,23.8-15.9c3.3-1,7.3-1.1,9.8,1.3c1.7,1.6,2.5,4.3,4.7,5.2
					c2.6,1.1,5.3-0.9,7.2-3c2-2.3,3.8-4.8,5.1-7.5"/>
				<line class="st1" x1="781.8" y1="1759.8" x2="608.9" y2="1759.8"/>
				<line class="st1" x1="777.8" y1="1736.8" x2="777.8" y2="1744.8"/>
				<g>
					<rect x="792.5" y="1714.8" class="st1" width="74.9" height="74.9"/>
					<path class="st1" d="M845.4,1779.5h-30.9c-6.5,0-11.8-5.3-11.8-11.8v-30.9c0-6.5,5.3-11.8,11.8-11.8h30.9
						c6.5,0,11.8,5.3,11.8,11.8v30.9C857.2,1774.2,851.9,1779.5,845.4,1779.5z"/>
					<circle class="st1" cx="799.4" cy="1721.7" r="2.2"/>
					<circle class="st1" cx="860.6" cy="1721.7" r="2.2"/>
					<circle class="st1" cx="799.4" cy="1782.8" r="2.2"/>
					<circle class="st1" cx="860.6" cy="1782.8" r="2.2"/>
				</g>
				<g>
					<g>
						<polyline class="st1" points="792.7,1718.7 781.8,1718.7 781.8,1763.9 792.7,1763.9 						"/>
						<rect x="771.8" y="1744.8" class="st1" width="9.9" height="9.9"/>
						<rect x="771.8" y="1726.8" class="st1" width="9.9" height="9.9"/>
					</g>
				</g>
				<path class="st1" d="M581.7,1759.1c13.3,19.1,55.3,37.8,80.6,33.9c21-3.2,36.6-21.1,54.8-31.9c16.5-9.8,36-14.4,54.6-11.4"/>
				<path class="st1" d="M581.7,1767c17.9,19.9,44.5,45,74.7,44c16.8-0.5,32.5-9.2,45.1-20.3c12.6-11.2,22.6-24.8,33.4-37.8
					c5.3-6.4,11-12.8,18.2-17c5.5-3.2,12.2-5,18.4-4.2"/>
			</g>
		</g>
		<g>
			<path class="st0" d="M582.4,1884c-0.2,0-0.5,0.1-0.7,0.1V1865v-317.2v-30.4h-30.4H-1l0.3,94.2h327.1l-0.1,283.8h225h30.4v-11.3
				L582.4,1884z"/>
			<g>
				<line class="st1" x1="355.9" y1="1537.4" x2="355.9" y2="1834"/>
				<line class="st1" x1="429.1" y1="1537.4" x2="429.1" y2="1834"/>
				<line class="st1" x1="458.7" y1="1537.4" x2="458.7" y2="1834"/>
				<path class="st1" d="M-1,1517.3c194-0.3,389-0.3,583-0.3c0,126,0,252,0,378c-129,0-257,0-386.3,0.4"/>
				<polyline class="st1" points="-0.2,1537.4 561.7,1537.4 561.7,1834 326.3,1834 				"/>
				<polyline class="st1" points="551.3,1537.4 551.3,1517.3 581.7,1517.3 581.7,1547.7 561.7,1547.7 				"/>
				<rect x="551.3" y="1864.9" class="st1" width="30.4" height="30.4"/>
				<polyline class="st1" points="481.3,1895.4 481.3,1864.9 326.3,1864.9 				"/>
				<line class="st1" x1="561.7" y1="1759.8" x2="326.3" y2="1759.8"/>
				<line class="st1" x1="561.7" y1="1685.7" x2="326.3" y2="1685.7"/>
				<line class="st1" x1="561.7" y1="1611.5" x2="-0.2" y2="1611.5"/>
				<line class="st1" x1="392.7" y1="1537.4" x2="392.7" y2="1834"/>
				<g>
					<line class="st1" x1="429.1" y1="1759.8" x2="429.1" y2="1834"/>
					<line class="st1" x1="458.7" y1="1759.8" x2="458.7" y2="1834"/>
					<g>
						<line class="st1" x1="355.9" y1="1759.8" x2="355.9" y2="1834"/>
					</g>
				</g>
				<g>
					<line class="st1" x1="429.1" y1="1537.4" x2="429.1" y2="1611.5"/>
					<line class="st1" x1="458.7" y1="1537.4" x2="458.7" y2="1611.5"/>
					<g>
						<line class="st1" x1="355.9" y1="1537.4" x2="355.9" y2="1611.5"/>
					</g>
				</g>
				<path class="st2" d="M551.8,1525.2c9.7-1.4,19.5-1.8,29.3-1.3"/>
				<path class="st2" d="M551.2,1530.9c9.8,0.1,19.6,0.2,29.3,0.3"/>
				<path class="st2" d="M551.2,1873.4c6.1-2.6,12.1-5.2,18.1-7.9"/>
				<path class="st2" d="M552,1885.5c9.3-3.7,19.1-6,29-7"/>
				<path class="st2" d="M551.4,1888.9c1.7-0.9,3.6-1.2,5.5-1.5c8.5-1.1,17-2.3,25.5-3.4"/>
				<path class="st2" d="M555.4,1895c8.6-2,17.3-3.7,26.1-5.2"/>
				<path class="st2" d="M331,1865.8c12.3,2.3,24.3,6.4,36.2,10.4c18.1,6.1,36.2,12.2,54.3,18.4"/>
				<path class="st2" d="M350.2,1864.5c31.4,11.6,63.3,21.6,95.6,30.2"/>
				<path class="st2" d="M376.6,1864.7c17.2,4.1,34.4,8.2,51.5,12.3c2.2,0.5,4.4,1.1,5.9,2.8c1.1,1.2,1.6,2.8,2.7,4.1
					c3.1,3.5,8.6,2.1,13.1,2.9c2.9,0.5,5.5,1.9,8.3,3c7.1,2.7,15.2,2.6,22.2-0.3"/>
				<path class="st2" d="M416.1,1864.4c13.4,3.6,26.8,7.3,40.2,10.9c7.2,2,14.6,3.9,22,3.5c0.9-0.1,2.2,0.1,2.3,1.1"/>
				<path class="st2" d="M450.1,1864.6c9.8,4.3,20.3,7.2,30.9,8.7"/>
				<path class="st2" d="M338.1,1833.7c24.8,10.5,52.4,11.6,79.3,12.5c35.4,1.2,70.9,2.5,106.3,3.7c19,0.7,38,1.3,56.9-0.4"/>
				<line class="st2" x1="569.1" y1="1547.7" x2="569.1" y2="1850"/>
				<line class="st2" x1="551.1" y1="1529" x2="-0.2" y2="1529"/>
				<line class="st2" x1="540.6" y1="1537.4" x2="540.6" y2="1834"/>
				<line class="st2" x1="435.6" y1="1537.4" x2="435.6" y2="1835"/>
				<line class="st2" x1="463.2" y1="1537.1" x2="463.2" y2="1832.5"/>
				<path class="st2" d="M395.2,1537.1c0,0.2,0,0.4,0,0.7v294.7"/>
				<line class="st1" x1="326.3" y1="1517.5" x2="326.3" y2="1895.5"/>
				<line class="st1" x1="-1" y1="1517.3" x2="-1" y2="1611.5"/>
			</g>
			<g>
				<path class="st1" d="M-0.2,1554c34.4,16.5,74.5,17.3,112.9,15.6c30.9-1.4,61.9-4.2,91.5-13.2c25.5-7.8,50-20.5,69-39.1"/>
				<path class="st1" d="M-0.3,1531.2c38.8,21.8,80.5,39.1,124.5,46c47.1,7.4,97,2.2,138.9-20.4c17.5-9.4,33.9-22.5,43.7-39.5"/>
				<g>
					<g>
						<polygon class="st0" points="336.1,1566.9 332.1,1566.9 332.1,1551 330.1,1551 330.1,1547 320.5,1547 320.5,1551 314.3,1551 
							314.3,1547 304.7,1547 304.7,1551 302.7,1551 302.7,1566.9 298.7,1566.9 298.7,1575.6 320.9,1575.6 336.1,1575.6 						"/>
						<path class="st0" d="M319.8,1575.6h-21.1v10c0,10.3,8.4,18.7,18.7,18.7s18.7-8.4,18.7-18.7v-10h-15.2l0,0H319.8z"/>
					</g>
					<g>
						<path class="st1" d="M298.7,1575.6v10c0,10.3,8.4,18.7,18.7,18.7l0,0c10.3,0,18.7-8.4,18.7-18.7v-10"/>
						<rect x="298.7" y="1566.9" class="st1" width="37.4" height="8.7"/>
						<path class="st1" d="M313.9,1575.6v14.7c0,2,1.6,3.5,3.5,3.5l0,0c2,0,3.5-1.6,3.5-3.5v-14.7"/>
						<rect x="302.7" y="1551" class="st1" width="29.5" height="15.8"/>
						<rect x="304.7" y="1547" class="st1" width="9.6" height="4.1"/>
						<rect x="320.5" y="1547" class="st1" width="9.6" height="4.1"/>
					</g>
					<path class="st1" d="M325.7,1547c-0.2-9.9-0.2-19.8,0.1-29.6"/>
					<path class="st1" d="M310.5,1517.3c0.2,9.9,0.1,19.8-0.1,29.6"/>
					<line class="st1" x1="326.3" y1="1552.5" x2="326.3" y2="1566.9"/>
					<line class="st1" x1="317.8" y1="1552.5" x2="317.8" y2="1565.6"/>
					<line class="st1" x1="322.3" y1="1566.9" x2="322.3" y2="1575.6"/>
					<line class="st1" x1="328.3" y1="1567" x2="328.3" y2="1575.1"/>
					<line class="st1" x1="307.3" y1="1567.5" x2="307.3" y2="1575.6"/>
				</g>
			</g>
		</g>
	</g>
	<g id="_x31_7">
		<g>
			<line class="st3" x1="1281.9" y1="1139.3" x2="1320.4" y2="1139.3"/>
			<line class="st3" x1="1436.5" y1="1139.3" x2="1475" y2="1139.3"/>
		</g>
		<g>
			<g>
				<line class="st4" x1="772" y1="1063.6" x2="772" y2="1102.1"/>
			</g>
		</g>
	</g>
</g>
<line class="st5" x1="580.3" y1="1895.2" x2="-1.3" y2="1895.2"/>
<line class="st5" x1="960" y1="1895.2" x2="1233.3" y2="1895.2"/>
<line class="st5" x1="1468" y1="1894.8" x2="1671.9" y2="1894.8"/>
</svg>
