<?xml version="1.0" encoding="utf-8"?>
<!-- Generator: Adobe Illustrator 19.0.0, SVG Export Plug-In . SVG Version: 6.00 Build 0)  -->
<svg version="1.1" id="Слой_1" xmlns="http://www.w3.org/2000/svg" xmlns:xlink="http://www.w3.org/1999/xlink" x="0px" y="0px"
	 viewBox="0 0 1920 3560" style="enable-background:new 0 0 1920 3560;" xml:space="preserve">
<style type="text/css">
	.st0{fill:none;stroke:#817957;stroke-width:2;stroke-linecap:round;stroke-linejoin:round;stroke-miterlimit:10;}
	.st1{fill:#F4E1A1;}
	.st2{fill:none;stroke:#817957;stroke-linecap:round;stroke-linejoin:round;stroke-miterlimit:10;}
	.st3{fill:none;stroke:#817957;stroke-width:2.0006;stroke-linecap:round;stroke-linejoin:round;stroke-miterlimit:10;}
	.st4{fill:none;stroke:#817957;stroke-width:2.0066;stroke-linecap:round;stroke-linejoin:round;stroke-miterlimit:10;}
	.st5{display:none;fill:none;stroke:#817957;stroke-width:2;stroke-linecap:round;stroke-linejoin:round;stroke-miterlimit:10;}
</style>
<g id="_x30_2">
	<g id="XMLID_2600_">
		<g id="XMLID_2620_">
			<g id="XMLID_2624_">
				<line id="XMLID_2625_" class="st0" x1="1" y1="2907.8" x2="1" y2="2932.4"/>
			</g>
		</g>
		<g id="XMLID_2601_">
			<g id="XMLID_2605_">
				<line id="XMLID_2606_" class="st0" x1="1" y1="3015.4" x2="1" y2="3040.1"/>
			</g>
		</g>
	</g>
	<g id="XMLID_2447_">
		<path id="XMLID_2494_" class="st1" d="M1628.9,3552c-3.1,0-5.6,2.5-5.7,5.5h-4.3v-10.8c0-0.1-0.1-0.3-0.3-0.3h-2.8v-6.8
			c0-0.1-0.1-0.3-0.3-0.3h-3.7v-54.7v-7.2v-501.6v-8.7h9.9c0.1,0,0.3-0.1,0.3-0.3v-8.8h9.7c0.1,0,0.3-0.1,0.3-0.3v-10
			c0-0.1-0.1-0.3-0.3-0.3h-9.7v-7.3h9.7c0.1,0,0.3-0.1,0.3-0.3v-10c0-0.1-0.1-0.3-0.3-0.3h-9.7v-8.2c0-0.1-0.1-0.3-0.3-0.3h-9.9
			v-8.7v-8.9v-40.6v-38.3v-141.2c0-0.1-0.1-0.3-0.3-0.3H1587c-0.1,0-0.3,0.1-0.3,0.3v220.1v8.9v8.7h-9.9c-0.1,0-0.3,0.1-0.3,0.3v10
			H1547v-3.7c0-0.1-0.1-0.3-0.3-0.3h-6.8V2917c0-0.1-0.1-0.3-0.3-0.3h-7.8v-0.6c0-0.1-0.1-0.3-0.3-0.3s-0.3,0.1-0.3,0.3v0.6h-4.9
			c-0.1,0-0.3,0.1-0.3,0.3v54.3c0,0.1,0.1,0.3,0.3,0.3h13.3c0.1,0,0.3-0.1,0.3-0.3v-10.5h6.8c0.1,0,0.3-0.1,0.3-0.3v-3.7h29.6v10
			c0,0.1,0.1,0.3,0.3,0.3h9.9v8.7v501.6v7.2v54.7h-3.6c-0.1,0-0.3,0.1-0.3,0.3v6.8h-2.8c-0.1,0-0.3,0.1-0.3,0.3v10.8h-4.3
			c-0.1-3.1-2.6-5.5-5.7-5.5c-3.2,0-5.7,2.6-5.7,5.8c0,0.1,0.1,0.3,0.3,0.3h15.8h38.5h15.8c0.1,0,0.3-0.1,0.3-0.3
			C1634.6,3554.6,1632,3552,1628.9,3552z"/>
		<g id="XMLID_2451_">
			<rect id="XMLID_2493_" x="1526.4" y="2925.6" class="st0" width="13.3" height="53.8"/>
			<line id="XMLID_2492_" class="st0" x1="1587" y1="2930" x2="1587" y2="2694.6"/>
			<line id="XMLID_2491_" class="st0" x1="1611.6" y1="2694.6" x2="1611.6" y2="2930"/>
			<g id="XMLID_2488_">
				<line id="XMLID_2490_" class="st0" x1="1587" y1="3487.4" x2="1587" y2="2975"/>
				<line id="XMLID_2489_" class="st0" x1="1611.6" y1="2975" x2="1611.6" y2="3487.4"/>
			</g>
			<g id="XMLID_2483_">
				<rect id="XMLID_2487_" x="1576.8" y="2930" class="st0" width="44.9" height="44.9"/>
				<g id="XMLID_2484_">
					<circle id="XMLID_2486_" class="st0" cx="1599.3" cy="2952.5" r="10.8"/>
					<circle id="XMLID_2485_" class="st0" cx="1599.3" cy="2952.5" r="6.9"/>
				</g>
			</g>
			<rect id="XMLID_2482_" x="1587" y="2921.2" class="st0" width="24.7" height="8.8"/>
			<rect id="XMLID_2481_" x="1587" y="2912.4" class="st0" width="24.7" height="8.8"/>
			<rect id="XMLID_2480_" x="1587" y="2975" class="st0" width="24.7" height="8.8"/>
			<g id="XMLID_2474_">
				<g id="XMLID_2478_">
					<line id="XMLID_2479_" class="st0" x1="1569.7" y1="2964.8" x2="1569.7" y2="2940.2"/>
				</g>
				<rect id="XMLID_2477_" x="1539.7" y="2936.3" class="st0" width="7" height="32.5"/>
				<line id="XMLID_2476_" class="st0" x1="1576.8" y1="2964.8" x2="1546.7" y2="2964.8"/>
				<line id="XMLID_2475_" class="st0" x1="1576.8" y1="2940.2" x2="1546.7" y2="2940.2"/>
			</g>
			<rect id="XMLID_2473_" x="1599.3" y="2834.3" class="st0" width="12.3" height="37.9"/>
			<line id="XMLID_2472_" class="st0" x1="1546.7" y1="2945.7" x2="1569.7" y2="2945.7"/>
			<rect id="XMLID_2471_" x="1621.8" y="2938.4" class="st0" width="9.9" height="9.9"/>
			<rect id="XMLID_2470_" x="1621.8" y="2956.1" class="st0" width="9.9" height="9.9"/>
			<path id="XMLID_2469_" class="st0" d="M1631.7,2943.9c41.7,2.2,83.5,4.2,125,0.1c57.1-5.6,113-22.8,163.5-50.1"/>
			<path id="XMLID_2468_" class="st0" d="M1631.7,2962.6c91.5,9,186.3,5,270.8-31c5.7-2.4,11.3-5,16.9-7.6"/>
			<g id="XMLID_2456_">
				<g id="XMLID_2464_">
					<rect id="XMLID_2467_" x="1580" y="3548.8" class="st0" width="38.5" height="10.9"/>
					<path id="XMLID_2466_" class="st0" d="M1623.4,3559.7c0-3,2.5-5.5,5.5-5.5s5.5,2.5,5.5,5.5"/>
					<path id="XMLID_2465_" class="st0" d="M1564.3,3559.7c0-3,2.5-5.5,5.5-5.5s5.5,2.5,5.5,5.5"/>
				</g>
				<g id="XMLID_2458_">
					<g id="XMLID_2462_">
						<line id="XMLID_2463_" class="st0" x1="1611.6" y1="3487.4" x2="1587" y2="3487.4"/>
					</g>
					<rect id="XMLID_2461_" x="1583.1" y="3541.8" class="st0" width="32.5" height="7"/>
					<line id="XMLID_2460_" class="st0" x1="1611.6" y1="3480.2" x2="1611.6" y2="3541.8"/>
					<line id="XMLID_2459_" class="st0" x1="1587" y1="3480.2" x2="1587" y2="3541.8"/>
				</g>
				<line id="XMLID_2457_" class="st0" x1="1593.2" y1="3541.8" x2="1593.2" y2="3487.4"/>
			</g>
			<line id="XMLID_2455_" class="st0" x1="1587.1" y1="2700.8" x2="1610.9" y2="2700.8"/>
			<line id="XMLID_2454_" class="st0" x1="1587.1" y1="2705.8" x2="1611.6" y2="2705.8"/>
			<line id="XMLID_2453_" class="st0" x1="1587" y1="2716.8" x2="1610.7" y2="2716.8"/>
			<line id="XMLID_2452_" class="st0" x1="1531.6" y1="2924.8" x2="1531.6" y2="2979.3"/>
		</g>
		<line id="XMLID_2450_" class="st2" x1="1602.1" y1="2983.4" x2="1602.1" y2="3487.4"/>
		<line id="XMLID_2449_" class="st0" x1="1564.3" y1="3559.7" x2="1634.3" y2="3559.7"/>
		<line id="XMLID_2448_" class="st0" x1="1587" y1="2694.6" x2="1611.6" y2="2694.6"/>
	</g>
</g>
<g id="_x31_7">
	<g id="XMLID_358_">
		<g id="XMLID_422_">
			<path id="XMLID_424_" class="st1" d="M978.1,2403.4v-10.1c0-10.4-8.4-18.9-18.7-18.9l0,0c-10.3,0-18.7,8.5-18.7,18.9v10.1H978.1z
				"/>
			<path id="XMLID_423_" class="st1" d="M1102.5,2446.3c0-4.8-3.2-8.9-7.6-10.1c0,0-0.1,0-0.1-0.1l0,0c-0.8-0.2-1.7-0.3-2.6-0.3
				c-5.7,0-10.3,4.7-10.3,10.4c0,1.7,0.4,3.3,1.1,4.7l-0.1,0.2c0.1,0,0.2,0,0.3,0c1.5,2.7,4.1,4.7,7.2,5.3l0,0v64.4h-5.3v-17.3
				h-15.6V2412H988v-8.8h-57v8.8h-96.9v237.9h34.5l0,0h133.5l0,0h67.1v-82.7h15.6v-17.7h14.6V2521h-5.3v-64.4l0,0
				C1098.9,2455.7,1102.5,2451.4,1102.5,2446.3z"/>
		</g>
		<polyline id="XMLID_421_" class="st3" points="834.2,2661.5 834.2,2426 1069.2,2426 1069.2,2661.5 		"/>
		<g id="XMLID_388_">
			<g id="XMLID_410_">
				<g id="XMLID_412_">
					<rect id="XMLID_420_" x="875.4" y="2574.6" class="st0" width="48" height="24"/>
					<rect id="XMLID_419_" x="875.4" y="2526.6" class="st0" width="48" height="48"/>
					<rect id="XMLID_418_" x="875.4" y="2502.6" class="st0" width="48" height="24"/>
					<rect id="XMLID_417_" x="869.4" y="2496.6" class="st0" width="60" height="108"/>
					<rect id="XMLID_416_" x="875.4" y="2502.6" class="st0" width="48" height="96"/>
					<circle id="XMLID_415_" class="st0" cx="899.4" cy="2550.6" r="18"/>
					<path id="XMLID_414_" class="st0" d="M917.4,2502.6c0,9.9-8.1,18-18,18s-18-8.1-18-18"/>
					<path id="XMLID_413_" class="st0" d="M881.4,2598.6c0-9.9,8.1-18,18-18s18,8.1,18,18"/>
				</g>
				<rect id="XMLID_411_" x="861.9" y="2496.6" class="st0" width="67.5" height="108"/>
			</g>
			<g id="XMLID_400_">
				<g id="XMLID_401_">
					<rect id="XMLID_409_" x="935.4" y="2574.6" class="st0" width="48" height="24"/>
					<rect id="XMLID_408_" x="935.4" y="2526.6" class="st0" width="48" height="48"/>
					<rect id="XMLID_407_" x="935.4" y="2502.6" class="st0" width="48" height="24"/>
					<rect id="XMLID_406_" x="929.4" y="2496.6" class="st0" width="60" height="108"/>
					<rect id="XMLID_405_" x="935.4" y="2502.6" class="st0" width="48" height="96"/>
					<circle id="XMLID_404_" class="st0" cx="959.4" cy="2550.6" r="18"/>
					<path id="XMLID_403_" class="st0" d="M977.4,2502.6c0,9.9-8.1,18-18,18s-18-8.1-18-18"/>
					<path id="XMLID_402_" class="st0" d="M941.4,2598.6c0-9.9,8.1-18,18-18s18,8.1,18,18"/>
				</g>
			</g>
			<g id="XMLID_389_">
				<g id="XMLID_391_">
					<rect id="XMLID_399_" x="995.4" y="2574.6" class="st0" width="48" height="24"/>
					<rect id="XMLID_398_" x="995.4" y="2526.6" class="st0" width="48" height="48"/>
					<rect id="XMLID_397_" x="995.4" y="2502.6" class="st0" width="48" height="24"/>
					<rect id="XMLID_396_" x="989.4" y="2496.6" class="st0" width="60" height="108"/>
					<rect id="XMLID_395_" x="995.4" y="2502.6" class="st0" width="48" height="96"/>
					<circle id="XMLID_394_" class="st0" cx="1019.4" cy="2550.6" r="18"/>
					<path id="XMLID_393_" class="st0" d="M1037.4,2502.6c0,9.9-8.1,18-18,18s-18-8.1-18-18"/>
					<path id="XMLID_392_" class="st0" d="M1001.4,2598.6c0-9.9,8.1-18,18-18s18,8.1,18,18"/>
				</g>
				<rect id="XMLID_390_" x="989.4" y="2496.6" class="st0" width="67.5" height="108"/>
			</g>
		</g>
		<rect id="XMLID_387_" x="861.9" y="2436.7" class="st0" width="195" height="49"/>
		<g id="XMLID_383_">
			<path id="XMLID_386_" class="st0" d="M978.1,2417.4v-10c0-10.3-8.4-18.7-18.7-18.7l0,0c-10.3,0-18.7,8.4-18.7,18.7v10"/>
			<rect id="XMLID_385_" x="931" y="2417.4" class="st0" width="56.7" height="8.7"/>
			<path id="XMLID_384_" class="st0" d="M962.9,2417.4v-14.7c0-2-1.6-3.5-3.5-3.5l0,0c-2,0-3.5,1.6-3.5,3.5v14.7"/>
		</g>
		<rect id="XMLID_382_" x="868.6" y="2630.6" class="st0" width="133.5" height="30.9"/>
		<line id="XMLID_381_" class="st0" x1="868.6" y1="2646" x2="1002.1" y2="2646"/>
		<line id="XMLID_380_" class="st0" x1="868.6" y1="2654.1" x2="1002.1" y2="2654.1"/>
		<circle id="XMLID_379_" class="st0" cx="1035.9" cy="2635.6" r="16.5"/>
		<rect id="XMLID_378_" x="1032.9" y="2625.1" class="st0" width="6" height="21"/>
		<line id="XMLID_377_" class="st2" x1="1036.8" y1="2624.8" x2="1036.8" y2="2645.5"/>
		<g id="XMLID_363_">
			<rect id="XMLID_376_" x="1069.2" y="2516.6" class="st0" width="15.6" height="63"/>
			<polyline id="XMLID_375_" class="st0" points="1094.1,2533.8 1099.5,2533.8 1099.5,2562.2 1084.9,2562.2 1084.9,2533.8 
				1090.2,2533.8 			"/>
			<polyline id="XMLID_374_" class="st0" points="1090.2,2470 1090.2,2545.3 1094.1,2545.3 1094.1,2470 			"/>
			<circle id="XMLID_373_" class="st0" cx="1092.2" cy="2459.8" r="10.3"/>
			<line id="XMLID_372_" class="st0" x1="1085.1" y1="2555.3" x2="1099.1" y2="2555.3"/>
			<line id="XMLID_371_" class="st0" x1="1069.6" y1="2572.8" x2="1083.6" y2="2572.8"/>
			<line id="XMLID_370_" class="st0" x1="1069.1" y1="2568.3" x2="1084.1" y2="2568.3"/>
			<line id="XMLID_369_" class="st0" x1="1069.6" y1="2523.3" x2="1083.6" y2="2523.3"/>
			<line id="XMLID_368_" class="st0" x1="1070.1" y1="2528.8" x2="1084.6" y2="2528.8"/>
			<line id="XMLID_367_" class="st0" x1="1070.1" y1="2537.3" x2="1084.9" y2="2537.3"/>
			<path id="XMLID_366_" class="st0" d="M1070.1,2550.3c0,0.2,0,0.3,0,0.5h14"/>
			<path id="XMLID_365_" class="st2" d="M1082.5,2462.9c2.9-0.3,5.7-1.9,7.3-4.3c1.6-2.4,2.2-5.6,1.3-8.4"/>
			<path id="XMLID_364_" class="st2" d="M1082.8,2464.7c2.2,0.4,4.4,0.7,6.5,0.4s4.3-1.3,5.6-3.1c1.6-2.2,1.6-5.3,1.6-8
				c0-1.6-0.3-3.5-1.7-4.2"/>
		</g>
		<line id="XMLID_362_" class="st2" x1="983.6" y1="2418.3" x2="983.6" y2="2425.3"/>
		<line id="XMLID_361_" class="st2" x1="974.6" y1="2417.8" x2="974.6" y2="2425.3"/>
		<line id="XMLID_360_" class="st2" x1="979.1" y1="2417.8" x2="979.1" y2="2424.8"/>
		<line id="XMLID_359_" class="st2" x1="936.6" y1="2417.8" x2="936.6" y2="2425.3"/>
	</g>
	<g id="XMLID_306_">
		<g id="XMLID_339_">
			<rect id="XMLID_341_" x="699.8" y="2412.2" class="st1" width="134.5" height="237.9"/>
			<rect id="XMLID_340_" x="677.2" y="2467.4" class="st1" width="10.8" height="40.4"/>
		</g>
		<polyline id="XMLID_338_" class="st4" points="699.8,2661.5 699.8,2426 834.3,2426 834.3,2661.5 		"/>
		<g id="XMLID_323_">
			<rect id="XMLID_337_" x="724.5" y="2448.3" class="st0" width="74.9" height="74.9"/>
			<g id="XMLID_328_">
				<line id="XMLID_336_" class="st0" x1="737.5" y1="2466" x2="786.4" y2="2466"/>
				<line id="XMLID_335_" class="st0" x1="737.5" y1="2471.7" x2="786.4" y2="2471.7"/>
				<line id="XMLID_334_" class="st0" x1="737.5" y1="2477.3" x2="786.4" y2="2477.3"/>
				<line id="XMLID_333_" class="st0" x1="737.5" y1="2482.9" x2="786.4" y2="2482.9"/>
				<line id="XMLID_332_" class="st0" x1="737.5" y1="2488.5" x2="786.4" y2="2488.5"/>
				<line id="XMLID_331_" class="st0" x1="737.5" y1="2494.1" x2="786.4" y2="2494.1"/>
				<line id="XMLID_330_" class="st0" x1="737.5" y1="2499.8" x2="786.4" y2="2499.8"/>
				<line id="XMLID_329_" class="st0" x1="737.5" y1="2505.4" x2="786.4" y2="2505.4"/>
			</g>
			<circle id="XMLID_327_" class="st0" cx="731.3" cy="2455.1" r="2.2"/>
			<circle id="XMLID_326_" class="st0" cx="792.5" cy="2455.1" r="2.2"/>
			<circle id="XMLID_325_" class="st0" cx="731.3" cy="2516.3" r="2.2"/>
			<circle id="XMLID_324_" class="st0" cx="792.5" cy="2516.3" r="2.2"/>
		</g>
		<g id="XMLID_317_">
			<path id="XMLID_322_" class="st0" d="M699.8,2532.6h-5.4c-6.6,0-11.9-5.3-11.9-11.9l0,0"/>
			<path id="XMLID_321_" class="st0" d="M682.5,2480.7L682.5,2480.7c0-6.6,5.3-11.9,11.9-11.9h5.4"/>
			<rect id="XMLID_320_" x="677.2" y="2480.7" class="st0" width="10.8" height="40"/>
			<line id="XMLID_319_" class="st0" x1="677.2" y1="2512.9" x2="687.9" y2="2512.9"/>
			<line id="XMLID_318_" class="st0" x1="677.2" y1="2488.5" x2="687.9" y2="2488.5"/>
		</g>
		<line id="XMLID_316_" class="st0" x1="736.1" y1="2601.8" x2="834.3" y2="2601.8"/>
		<line id="XMLID_315_" class="st0" x1="736.1" y1="2612.8" x2="834.1" y2="2612.8"/>
		<line id="XMLID_314_" class="st0" x1="735.1" y1="2628.8" x2="834.2" y2="2628.8"/>
		<line id="XMLID_313_" class="st0" x1="740.8" y1="2601.8" x2="740.8" y2="2611.8"/>
		<line id="XMLID_312_" class="st0" x1="746.4" y1="2602.2" x2="746.4" y2="2613"/>
		<line id="XMLID_311_" class="st0" x1="829.1" y1="2601.8" x2="829.1" y2="2612.8"/>
		<line id="XMLID_310_" class="st0" x1="822.8" y1="2602.5" x2="822.8" y2="2612.5"/>
		<line id="XMLID_309_" class="st0" x1="813.1" y1="2601.8" x2="813.1" y2="2612.9"/>
		<line id="XMLID_308_" class="st4" x1="834.3" y1="2661.5" x2="699.8" y2="2661.5"/>
		<line id="XMLID_307_" class="st4" x1="736.1" y1="2601.8" x2="736.1" y2="2612.8"/>
	</g>
	<g id="XMLID_211_">
		<path id="XMLID_305_" class="st1" d="M1919.4,2206.3h-102.9v-7.6h-18v7.6h-124.9v-7.6h-18v7.6h-124.9v-7.6h-18v7.6h-124.9v-7.6
			h-18v4.6h-0.1c0,0.1,0,0.1,0.1,0.2v2.8h-98.3v-24.7h-28.6v51.7h28.6V2213h98.3v20.4h18V2213h124.9v1l-0.2-0.1c0,0.9,0,1.7,0.2,2.6
			v16.9h18V2213h124.9v4l0,0l0,0v16.4h18V2213h124.9v1.5h-0.1c0,0.1,0.1,0.3,0.1,0.4v18.5h18V2213h102.9V2206.3z"/>
		<g id="XMLID_290_">
			<line id="XMLID_304_" class="st0" x1="1919.4" y1="2222.6" x2="1816.5" y2="2222.6"/>
			<line id="XMLID_303_" class="st0" x1="1798.5" y1="2222.6" x2="1673.6" y2="2222.6"/>
			<line id="XMLID_302_" class="st0" x1="1655.6" y1="2222.6" x2="1530.6" y2="2222.6"/>
			<line id="XMLID_301_" class="st0" x1="1512.7" y1="2222.6" x2="1387.7" y2="2222.6"/>
			<line id="XMLID_300_" class="st0" x1="1369.7" y1="2222.6" x2="1271.4" y2="2222.6"/>
			<line id="XMLID_299_" class="st0" x1="1919.4" y1="2228.8" x2="1816.5" y2="2228.8"/>
			<line id="XMLID_298_" class="st0" x1="1798.5" y1="2228.8" x2="1673.6" y2="2228.8"/>
			<line id="XMLID_297_" class="st0" x1="1655.6" y1="2228.8" x2="1530.6" y2="2228.8"/>
			<line id="XMLID_296_" class="st0" x1="1512.7" y1="2228.8" x2="1387.7" y2="2228.8"/>
			<line id="XMLID_295_" class="st0" x1="1369.7" y1="2228.8" x2="1271.4" y2="2228.8"/>
			<rect id="XMLID_294_" x="1369.7" y="2214.8" class="st0" width="18" height="34.3"/>
			<rect id="XMLID_293_" x="1512.7" y="2214.8" class="st0" width="18" height="34.3"/>
			<rect id="XMLID_292_" x="1655.6" y="2214.8" class="st0" width="18" height="34.3"/>
			<rect id="XMLID_291_" x="1798.5" y="2214.8" class="st0" width="18" height="34.3"/>
		</g>
		<rect id="XMLID_289_" x="1242.8" y="2197.9" class="st0" width="28.6" height="51.2"/>
		<g id="XMLID_279_">
			<g id="XMLID_286_">
				<path id="XMLID_288_" class="st1" d="M1431.5,2303v10.1c0,10.4,8.4,18.9,18.7,18.9l0,0c10.3,0,18.7-8.5,18.7-18.9V2303H1431.5z"
					/>
				<polygon id="XMLID_287_" class="st1" points="1464.9,2294.2 1464.9,2278.2 1462.9,2278.2 1462.9,2274 1453.3,2274 
					1453.3,2278.2 1447.1,2278.2 1447.1,2274 1437.5,2274 1437.5,2278.2 1435.4,2278.2 1435.4,2294.2 1431.5,2294.2 1431.5,2303 
					1468.9,2303 1468.9,2294.2 				"/>
			</g>
			<path id="XMLID_285_" class="st0" d="M1431.5,2318v10c0,10.3,8.4,18.7,18.7,18.7l0,0c10.3,0,18.7-8.4,18.7-18.7v-10"/>
			<rect id="XMLID_284_" x="1431.5" y="2309.3" class="st0" width="37.4" height="8.7"/>
			<path id="XMLID_283_" class="st0" d="M1446.6,2318v14.7c0,2,1.6,3.5,3.5,3.5l0,0c2,0,3.5-1.6,3.5-3.5V2318"/>
			<rect id="XMLID_282_" x="1435.4" y="2293.4" class="st0" width="29.5" height="15.8"/>
			<rect id="XMLID_281_" x="1437.5" y="2289.3" class="st0" width="9.6" height="4.1"/>
			<rect id="XMLID_280_" x="1453.3" y="2289.3" class="st0" width="9.6" height="4.1"/>
		</g>
		<g id="XMLID_270_">
			<g id="XMLID_275_">
				<rect id="XMLID_278_" x="1390.3" y="2401.1" class="st1" width="45.2" height="11.1"/>
				<rect id="XMLID_277_" x="1399.4" y="2391.1" class="st1" width="9.9" height="10"/>
				<rect id="XMLID_276_" x="1417.4" y="2391.1" class="st1" width="9.9" height="10"/>
			</g>
			<g id="XMLID_271_">
				<polyline id="XMLID_274_" class="st0" points="1435.5,2426 1435.5,2415.1 1390.3,2415.1 1390.3,2426 				"/>
				<rect id="XMLID_273_" x="1399.4" y="2405.2" class="st0" width="9.9" height="9.9"/>
				<rect id="XMLID_272_" x="1417.4" y="2405.2" class="st0" width="9.9" height="9.9"/>
			</g>
		</g>
		<path id="XMLID_269_" class="st0" d="M1387.7,2240.2c12.3,2.1,24.5,5.9,34.7,12.9c11.7,8.1,20.7,21.1,21.4,35.3"/>
		<path id="XMLID_268_" class="st0" d="M1512.7,2241.2c-13.2,4.2-25.6,10.6-36.7,18.9c-9.7,7.2-18.9,17.1-18.8,29.3"/>
		<path id="XMLID_267_" class="st0" d="M1387.7,2235c22.4,6.6,45.1,12.8,68.4,12.6c9-0.1,18.1-1.2,27-2.8c10-1.8,20-4.3,29.7-7.5"/>
		<path id="XMLID_266_" class="st0" d="M1271.4,2237c31.2,11.2,66.6,7.4,98.3-3.4"/>
		<path id="XMLID_265_" class="st0" d="M1271.4,2246.6c15,6.6,31,11.2,47.4,11.7c17.9,0.6,36.3-3.8,50.9-14.1"/>
		<path id="XMLID_264_" class="st0" d="M1530.6,2236.8c18.6,5.1,37.3,10,56.3,12.2"/>
		<path id="XMLID_263_" class="st0" d="M1611.6,2250.1c15.2-0.5,30.2-3.4,43.9-9.6"/>
		<path id="XMLID_262_" class="st0" d="M1530.5,2244.3c6,1.7,12,3.4,17.9,5.2c12.7,3.7,25.5,7.3,38.6,9.2"/>
		<path id="XMLID_261_" class="st0" d="M1611.6,2259.7c15.5-1.2,30.8-5.8,44.4-13.6"/>
		<path id="XMLID_260_" class="st0" d="M1673.6,2236.9c37.7,21.6,86.8,22.1,124.9,1.1"/>
		<path id="XMLID_259_" class="st0" d="M1673.5,2243.5c18.7,10.7,40.4,16.3,61.9,15.9c22.2-0.4,44.3-7.2,62.9-19.3"/>
		<path id="XMLID_258_" class="st0" d="M1816.5,2237.1c32.7,11.9,68.4,15.6,102.9,10.7"/>
		<path id="XMLID_257_" class="st0" d="M1816.5,2245.6c28.8,21.8,66.4,30,102.9,30.4"/>
		<path id="XMLID_256_" class="st0" d="M1369.7,2237.8c-14.8,14.2-15.6,38.5-8.6,57.9c7.2,19.9,21.1,36.6,31.9,54.8
			c9.8,16.5,14.4,36,11.4,54.6"/>
		<path id="XMLID_255_" class="st0" d="M1369.7,2232.3c-14.6,16.1-27.2,35.8-26.6,57.5c0.5,16.8,9.2,32.5,20.3,45.1
			s24.8,22.6,37.8,33.4c6.4,5.3,12.8,11,17,18.2c3.2,5.5,5,12.2,4.2,18.4"/>
		<path id="XMLID_254_" class="st0" d="M1530.8,2243.3c8.9,8.9,19.6,15.8,30.7,21.8c6.1,3.3,12.3,6.4,19,8.2
			c14.5,3.7,30.2,0.7,43.4-6.4c12.6-6.7,23-16.9,31.7-28.2"/>
		<line id="XMLID_253_" class="st0" x1="1243.1" y1="2202.8" x2="1271.4" y2="2202.8"/>
		<line id="XMLID_252_" class="st0" x1="1243.6" y1="2207.8" x2="1269.8" y2="2207.8"/>
		<line id="XMLID_251_" class="st0" x1="1276.1" y1="2222.8" x2="1276.1" y2="2227.8"/>
		<line id="XMLID_250_" class="st0" x1="1366.6" y1="2223.3" x2="1366.6" y2="2228.8"/>
		<line id="XMLID_249_" class="st0" x1="1361.6" y1="2223.3" x2="1361.6" y2="2227.9"/>
		<line id="XMLID_248_" class="st0" x1="1393.1" y1="2223.3" x2="1393.1" y2="2228.8"/>
		<line id="XMLID_247_" class="st0" x1="1399.6" y1="2223.8" x2="1399.6" y2="2228.4"/>
		<line id="XMLID_246_" class="st0" x1="1507.6" y1="2223.3" x2="1507.6" y2="2227.9"/>
		<line id="XMLID_245_" class="st0" x1="1501.1" y1="2222.6" x2="1501.1" y2="2228.8"/>
		<line id="XMLID_244_" class="st0" x1="1537.1" y1="2223.8" x2="1537.1" y2="2228.4"/>
		<line id="XMLID_243_" class="st0" x1="1542.1" y1="2224.3" x2="1542.1" y2="2228.8"/>
		<line id="XMLID_242_" class="st0" x1="1650.6" y1="2223.3" x2="1650.6" y2="2228.8"/>
		<line id="XMLID_241_" class="st0" x1="1370.1" y1="2218.6" x2="1386.6" y2="2218.6"/>
		<line id="XMLID_240_" class="st0" x1="1512.6" y1="2219.8" x2="1530.1" y2="2219.8"/>
		<line id="XMLID_239_" class="st0" x1="1460.1" y1="2294.8" x2="1460.1" y2="2308.9"/>
		<line id="XMLID_238_" class="st0" x1="1439.1" y1="2294.3" x2="1439.1" y2="2309.3"/>
		<line id="XMLID_237_" class="st0" x1="1443.1" y1="2294.3" x2="1443.1" y2="2309.3"/>
		<line id="XMLID_236_" class="st0" x1="1432.1" y1="2313.3" x2="1468.2" y2="2313.3"/>
		<path id="XMLID_235_" class="st0" d="M1369.7,2219.3c1.7,6.5,8.8,11.1,15.4,10c0.9-0.2,2-0.6,2.2-1.5"/>
		<path id="XMLID_234_" class="st0" d="M1370.9,2228.8c0.4,0.9,0.8,1.9,1.1,2.8c1,2.4,1.9,4.8,3.6,6.7c2.9,3.5,7.7,5.2,12.1,4.3"/>
		<path id="XMLID_233_" class="st0" d="M1513.5,2222.3c0.4,3.6,2.6,7,5.8,8.7c3.2,1.7,7.3,1.8,10.5,0.1"/>
		<path id="XMLID_232_" class="st0" d="M1512.5,2229.8c-0.1,4.4,2,9,5.9,11s9.5,0.5,11.3-3.5"/>
		<path id="XMLID_231_" class="st0" d="M1655.7,2220.6c1.9,2.7,5.1,4.5,8.4,4.6s6.6-1.5,8.6-4.2"/>
		<path id="XMLID_230_" class="st0" d="M1655.6,2226.8c3.9,5.5,12,7.3,18,4.3"/>
		<path id="XMLID_229_" class="st0" d="M1655.5,2232.9c4.8,4.4,11.1,6.9,17.6,7"/>
		<path id="XMLID_228_" class="st0" d="M1799.2,2224c0.5,1.1,1.2,2.1,2.1,2.9c2.2,1.9,5.4,2.5,8.3,1.8c3-0.7,5.6-2.8,6.9-5.6"/>
		<path id="XMLID_227_" class="st0" d="M1798.5,2230.3c0.4,4.1,2.8,7.9,6.2,10.1s7.9,2.8,11.8,1.5"/>
		<line id="XMLID_226_" class="st0" x1="1679.1" y1="2222.8" x2="1679.1" y2="2228.3"/>
		<line id="XMLID_225_" class="st0" x1="1685.6" y1="2222.6" x2="1685.6" y2="2227.9"/>
		<line id="XMLID_224_" class="st0" x1="1711.1" y1="2222.6" x2="1711.1" y2="2228.4"/>
		<line id="XMLID_223_" class="st0" x1="1794.6" y1="2222.6" x2="1794.6" y2="2228.8"/>
		<line id="XMLID_222_" class="st0" x1="1791.1" y1="2223.3" x2="1791.1" y2="2228.8"/>
		<line id="XMLID_221_" class="st0" x1="1822.1" y1="2222.6" x2="1822.1" y2="2227.9"/>
		<line id="XMLID_220_" class="st0" x1="1830.1" y1="2223.3" x2="1830.1" y2="2228.8"/>
		<line id="XMLID_219_" class="st0" x1="1838.1" y1="2223.3" x2="1838.1" y2="2228.3"/>
		<line id="XMLID_218_" class="st0" x1="1550.6" y1="2222.6" x2="1550.6" y2="2228.8"/>
		<line id="XMLID_217_" class="st0" x1="1491.1" y1="2222.8" x2="1491.1" y2="2228.9"/>
		<line id="XMLID_216_" class="st2" x1="1390.3" y1="2422.8" x2="1434.2" y2="2422.8"/>
		<line id="XMLID_215_" class="st2" x1="1399.4" y1="2410.8" x2="1408.8" y2="2410.8"/>
		<line id="XMLID_214_" class="st2" x1="1417.4" y1="2411.5" x2="1426.8" y2="2411.5"/>
		<line id="XMLID_213_" class="st0" x1="1390.3" y1="2426" x2="1435.5" y2="2426"/>
		<line id="XMLID_212_" class="st0" x1="1919.4" y1="2222.6" x2="1919.4" y2="2228.8"/>
	</g>
	<g id="XMLID_101_">
		<g id="XMLID_204_">
			<path id="XMLID_208_" class="st1" d="M1918.4,2650.1h-443.7l0,0h56.4v-237.9h-310.3v237.9h60.7l0,0H735.2v33.7h546.3v24.1v48.4
				v37.5h38.5v-110h116.1v110h38.5l0,0v-110h443.7L1918.4,2650.1L1918.4,2650.1z M1320,2650.1L1320,2650.1h116.1l0,0H1320z"/>
			<rect id="XMLID_207_" x="1069.2" y="2597.7" class="st1" width="9.9" height="10"/>
			<rect id="XMLID_206_" x="1069.2" y="2615.8" class="st1" width="9.9" height="10"/>
			<rect id="XMLID_205_" x="1198.1" y="2548.2" class="st1" width="10.8" height="40.4"/>
		</g>
		<polyline id="XMLID_203_" class="st0" points="1220.8,2661.5 1220.8,2426 1531.1,2426 1531.1,2661.5 		"/>
		<line id="XMLID_202_" class="st0" x1="735.2" y1="2661.5" x2="1281.5" y2="2661.5"/>
		<line id="XMLID_201_" class="st0" x1="1320" y1="2661.5" x2="1436.1" y2="2661.5"/>
		<line id="XMLID_200_" class="st0" x1="1918.4" y1="2694.6" x2="1474.6" y2="2694.6"/>
		<line id="XMLID_199_" class="st0" x1="1474.6" y1="2661.5" x2="1918.4" y2="2661.5"/>
		<line id="XMLID_198_" class="st0" x1="1436.1" y1="2694.6" x2="1320" y2="2694.6"/>
		<line id="XMLID_197_" class="st0" x1="1281.5" y1="2694.6" x2="735.2" y2="2694.6"/>
		<g id="XMLID_182_">
			<rect id="XMLID_196_" x="1267.8" y="2444.3" class="st0" width="227" height="74.9"/>
			<g id="XMLID_187_">
				<line id="XMLID_195_" class="st0" x1="1280.8" y1="2462" x2="1481.8" y2="2462"/>
				<line id="XMLID_194_" class="st0" x1="1280.8" y1="2467.6" x2="1481.8" y2="2467.6"/>
				<line id="XMLID_193_" class="st0" x1="1280.8" y1="2473.3" x2="1481.8" y2="2473.3"/>
				<line id="XMLID_192_" class="st0" x1="1280.8" y1="2478.9" x2="1481.8" y2="2478.9"/>
				<line id="XMLID_191_" class="st0" x1="1280.8" y1="2484.5" x2="1481.8" y2="2484.5"/>
				<line id="XMLID_190_" class="st0" x1="1280.8" y1="2490.1" x2="1481.8" y2="2490.1"/>
				<line id="XMLID_189_" class="st0" x1="1280.8" y1="2495.8" x2="1481.8" y2="2495.8"/>
				<line id="XMLID_188_" class="st0" x1="1280.8" y1="2501.4" x2="1481.8" y2="2501.4"/>
			</g>
			<circle id="XMLID_186_" class="st0" cx="1274.6" cy="2451.1" r="2.2"/>
			<circle id="XMLID_185_" class="st0" cx="1488" cy="2451.1" r="2.2"/>
			<circle id="XMLID_184_" class="st0" cx="1274.6" cy="2512.3" r="2.2"/>
			<circle id="XMLID_183_" class="st0" cx="1488" cy="2512.3" r="2.2"/>
		</g>
		<g id="XMLID_178_">
			<path id="XMLID_181_" class="st0" d="M1281.5,2803.7v-235.5c0-10.6,8.6-19.3,19.3-19.3l0,0c10.6,0,19.3,8.6,19.3,19.3v235.5"/>
			<path id="XMLID_180_" class="st0" d="M1320,2586.8c4.7-4.8,7.5-11.4,7.5-18.6c0-14.8-12-26.8-26.8-26.8s-26.8,12-26.8,26.8
				c0,7.2,2.9,13.8,7.5,18.6"/>
			<path id="XMLID_179_" class="st0" d="M1320,2594.9c8.3-6,13.7-15.7,13.7-26.7c0-18.2-14.8-33-33-33s-33,14.8-33,33
				c0,11,5.4,20.7,13.7,26.7"/>
		</g>
		<g id="XMLID_174_">
			<path id="XMLID_177_" class="st0" d="M1436.1,2803.7v-235.5c0-10.6,8.6-19.3,19.3-19.3l0,0c10.6,0,19.3,8.6,19.3,19.3v235.5"/>
			<path id="XMLID_176_" class="st0" d="M1474.6,2586.8c4.7-4.8,7.5-11.4,7.5-18.6c0-14.8-12-26.8-26.8-26.8s-26.8,12-26.8,26.8
				c0,7.2,2.9,13.8,7.5,18.6"/>
			<path id="XMLID_175_" class="st0" d="M1474.6,2594.9c8.3-6,13.7-15.7,13.7-26.7c0-18.2-14.8-33-33-33s-33,14.8-33,33
				c0,11,5.4,20.7,13.7,26.7"/>
		</g>
		<g id="XMLID_168_">
			<rect id="XMLID_173_" x="1369.2" y="2596.5" class="st0" width="17.6" height="45.2"/>
			<rect id="XMLID_172_" x="1386.9" y="2605.6" class="st0" width="9.9" height="9.9"/>
			<rect id="XMLID_171_" x="1386.9" y="2623.6" class="st0" width="9.9" height="9.9"/>
			<rect id="XMLID_170_" x="1359.3" y="2605.6" class="st0" width="9.9" height="9.9"/>
			<rect id="XMLID_169_" x="1359.3" y="2623.6" class="st0" width="9.9" height="9.9"/>
		</g>
		<rect id="XMLID_167_" x="1069.2" y="2609.6" class="st0" width="9.9" height="9.9"/>
		<rect id="XMLID_166_" x="1069.2" y="2627.6" class="st0" width="9.9" height="9.9"/>
		<g id="XMLID_160_">
			<path id="XMLID_165_" class="st0" d="M1220.8,2612.6h-5.4c-6.6,0-11.9-5.3-11.9-11.9l0,0"/>
			<path id="XMLID_164_" class="st0" d="M1203.4,2560.6L1203.4,2560.6c0-6.6,5.3-11.9,11.9-11.9h5.4"/>
			<rect id="XMLID_163_" x="1198.1" y="2560.6" class="st0" width="10.8" height="40"/>
			<line id="XMLID_162_" class="st0" x1="1198.1" y1="2592.9" x2="1208.9" y2="2592.9"/>
			<line id="XMLID_161_" class="st0" x1="1198.1" y1="2568.4" x2="1208.9" y2="2568.4"/>
		</g>
		<rect id="XMLID_159_" x="1281.5" y="2718.7" class="st0" width="23.3" height="47.9"/>
		<rect id="XMLID_158_" x="1455.4" y="2619.5" class="st0" width="19.3" height="56.8"/>
		<path id="XMLID_157_" class="st0" d="M1079.2,2613.6c66.7,11.7,135.2,18.1,202.3,12.3"/>
		<path id="XMLID_156_" class="st0" d="M1320,2621.2c13.2-2.1,26.3-4.8,39.3-8"/>
		<path id="XMLID_155_" class="st0" d="M1079.2,2630.8c4.4-0.6,8.9,0,13.4,0.6c62.6,7.9,126,9.8,188.9,5.6"/>
		<path id="XMLID_154_" class="st0" d="M1320,2633.7c13.1-1.4,26.2-3,39.3-5"/>
		<path id="XMLID_153_" class="st0" d="M1396.8,2629.9c13,2.4,26.2,4.6,39.3,6.6"/>
		<path id="XMLID_152_" class="st0" d="M1474.6,2641.3c66.4,7.1,133.5,7,199.5-3c87.6-13.3,173.2-44.6,245.2-96"/>
		<path id="XMLID_151_" class="st0" d="M1396.8,2610.5c13.1,0.7,26.2,1.3,39.3,1.9"/>
		<path id="XMLID_150_" class="st0" d="M1474.6,2613.9c49.9,1.6,99.8,1.3,149.4-4c103.9-11.1,205.2-44.6,295.3-97.4"/>
		<line id="XMLID_149_" class="st0" x1="1282.1" y1="2798.8" x2="1320.1" y2="2798.8"/>
		<line id="XMLID_148_" class="st0" x1="1281.5" y1="2790.8" x2="1320" y2="2790.8"/>
		<line id="XMLID_147_" class="st0" x1="1436.1" y1="2796.8" x2="1474.6" y2="2796.8"/>
		<line id="XMLID_146_" class="st0" x1="1436.6" y1="2791.8" x2="1474.6" y2="2791.8"/>
		<line id="XMLID_145_" class="st0" x1="1436.1" y1="2774.3" x2="1474.6" y2="2774.3"/>
		<line id="XMLID_144_" class="st0" x1="1325.1" y1="2661.3" x2="1325.1" y2="2693.8"/>
		<line id="XMLID_143_" class="st0" x1="1333.1" y1="2661.8" x2="1333.1" y2="2693.8"/>
		<line id="XMLID_142_" class="st0" x1="1431.1" y1="2661.5" x2="1431.1" y2="2694.6"/>
		<path id="XMLID_141_" class="st0" d="M1275.6,2663.3c0-0.5,0-1,0-1.5v32.8"/>
		<line id="XMLID_140_" class="st0" x1="1481.1" y1="2661.5" x2="1481.1" y2="2694.8"/>
		<line id="XMLID_139_" class="st0" x1="1488.1" y1="2662.3" x2="1488.1" y2="2694.6"/>
		<line id="XMLID_138_" class="st0" x1="741.1" y1="2661.5" x2="741.1" y2="2694.6"/>
		<line id="XMLID_137_" class="st0" x1="751.1" y1="2661.5" x2="751.1" y2="2694.6"/>
		<line id="XMLID_136_" class="st0" x1="757.1" y1="2661.8" x2="757.1" y2="2693.8"/>
		<line id="XMLID_135_" class="st0" x1="757.7" y1="2683.4" x2="1275.6" y2="2683.4"/>
		<line id="XMLID_134_" class="st0" x1="1073.1" y1="2609.8" x2="1073.1" y2="2619.3"/>
		<line id="XMLID_133_" class="st0" x1="1074.1" y1="2628.3" x2="1074.1" y2="2636.5"/>
		<line id="XMLID_132_" class="st0" x1="1365.1" y1="2605.8" x2="1365.1" y2="2614.8"/>
		<line id="XMLID_131_" class="st0" x1="1365.1" y1="2624.3" x2="1365.1" y2="2632.9"/>
		<line id="XMLID_130_" class="st0" x1="1390.6" y1="2606.3" x2="1390.6" y2="2613.8"/>
		<line id="XMLID_129_" class="st0" x1="1392.1" y1="2624.3" x2="1392.1" y2="2633.5"/>
		<line id="XMLID_128_" class="st2" x1="759.1" y1="2677.8" x2="1275.6" y2="2677.8"/>
		<line id="XMLID_127_" class="st2" x1="1382.6" y1="2596.8" x2="1382.6" y2="2640.3"/>
		<line id="XMLID_126_" class="st2" x1="1378.6" y1="2597.8" x2="1378.6" y2="2641.8"/>
		<line id="XMLID_125_" class="st2" x1="1333.1" y1="2682.8" x2="1431.1" y2="2682.8"/>
		<path id="XMLID_124_" class="st2" d="M1475,2585c1.9,1.6,3.9,3.1,6.1,4.4"/>
		<path id="XMLID_123_" class="st2" d="M1478.6,2581.8c1.7,1.3,3.5,2.3,5.5,3"/>
		<path id="XMLID_122_" class="st2" d="M1481,2575.9c1.9,0.2,3.7,0.3,5.6,0.5"/>
		<path id="XMLID_121_" class="st2" d="M1435.1,2585.4c-1.7,1.1-3.1,2.7-4.1,4.4"/>
		<path id="XMLID_120_" class="st2" d="M1431.6,2580.8c-2,0.5-3.9,1.3-5.5,2.5"/>
		<path id="XMLID_119_" class="st2" d="M1321.3,2586.6c1.4,1.2,2.7,2.3,4.1,3.5"/>
		<path id="XMLID_118_" class="st2" d="M1324.6,2580.1c2-0.2,4.1,0.1,6,0.8"/>
		<path id="XMLID_117_" class="st2" d="M1279.5,2586.2c-1.2,1.2-2.4,2.4-3.7,3.6"/>
		<path id="XMLID_116_" class="st2" d="M1272.4,2585c2-1.2,4.1-2.2,6.3-3"/>
		<line id="XMLID_115_" class="st2" x1="1221.1" y1="2654.8" x2="1281.6" y2="2654.8"/>
		<line id="XMLID_114_" class="st2" x1="1319.6" y1="2655.3" x2="1435.6" y2="2655.3"/>
		<line id="XMLID_113_" class="st2" x1="1475.1" y1="2656.8" x2="1530.2" y2="2656.8"/>
		<line id="XMLID_112_" class="st2" x1="1459.6" y1="2619.8" x2="1459.6" y2="2676.3"/>
		<line id="XMLID_111_" class="st2" x1="1288.6" y1="2718.8" x2="1288.6" y2="2765.8"/>
		<line id="XMLID_110_" class="st2" x1="1267.4" y1="2526.2" x2="1530.2" y2="2526.2"/>
		<line id="XMLID_109_" class="st2" x1="1488.6" y1="2682" x2="1918.4" y2="2682"/>
		<line id="XMLID_108_" class="st2" x1="1488.6" y1="2685.5" x2="1918.4" y2="2685.5"/>
		<path id="XMLID_107_" class="st2" d="M1488.1,2667.5c0.2,0,0.3,0,0.5,0h429.8"/>
		<line id="XMLID_106_" class="st2" x1="1488.6" y1="2691.5" x2="1918.4" y2="2691.5"/>
		<line id="XMLID_105_" class="st4" x1="735.2" y1="2661.5" x2="735.2" y2="2694.6"/>
		<line id="XMLID_104_" class="st4" x1="1281.5" y1="2803.7" x2="1320" y2="2803.7"/>
		<line id="XMLID_103_" class="st4" x1="1436.1" y1="2803.7" x2="1474.6" y2="2803.7"/>
		<line id="XMLID_102_" class="st0" x1="1918.4" y1="2661.5" x2="1918.4" y2="2694.6"/>
	</g>
	<g id="XMLID_69_">
		<path id="XMLID_100_" class="st1" d="M1587,2437.6v21.1v3.5h-3.4l0,0h-20.9l0,0h-15.9v-3.9h-7V2441h-8.6v120.7h8.6v-17h7v-3.9
			h15.9l0,0h20.9l0,0h3.4v3.5v21.1v84.8h24.7v-84.8v-21.1v-3.5c0-13.8-11-24.9-24.7-24.9h-3.4h-20.9h-15.9v-3.9h-7v-21h7v-3.9h15.9
			h20.9h3.4c13.6,0,24.7-11.2,24.7-24.9v-3.5v-21.1v-255.9H1587V2437.6z"/>
		<line id="XMLID_99_" class="st0" x1="1587" y1="2657.3" x2="1611.6" y2="2657.3"/>
		<rect id="XMLID_98_" x="1531.1" y="2454.6" class="st0" width="8.6" height="119.4"/>
		<g id="XMLID_90_">
			<g id="XMLID_95_">
				<rect id="XMLID_97_" x="1587" y="2451.1" class="st0" width="24.7" height="20.9"/>
				<line id="XMLID_96_" class="st0" x1="1587" y1="2458.2" x2="1611.6" y2="2458.2"/>
			</g>
			<g id="XMLID_92_">
				<rect id="XMLID_94_" x="1562.7" y="2475.5" class="st0" width="20.9" height="24.7"/>
				<line id="XMLID_93_" class="st0" x1="1569.7" y1="2500.1" x2="1569.7" y2="2475.5"/>
			</g>
			<rect id="XMLID_91_" x="1539.7" y="2471.6" class="st0" width="7" height="32.5"/>
		</g>
		<path id="XMLID_89_" class="st0" d="M1587,2661.5v-108.2h-40.3v-24.7h40.3c13.6,0,24.7,11,24.7,24.7v108.2"/>
		<g id="XMLID_86_">
			<rect id="XMLID_88_" x="1587" y="2556.7" class="st0" width="24.7" height="20.9"/>
			<line id="XMLID_87_" class="st0" x1="1587" y1="2570.6" x2="1611.6" y2="2570.6"/>
		</g>
		<g id="XMLID_83_">
			<rect id="XMLID_85_" x="1562.7" y="2528.6" class="st0" width="20.9" height="24.7"/>
			<line id="XMLID_84_" class="st0" x1="1569.7" y1="2528.6" x2="1569.7" y2="2553.3"/>
		</g>
		<rect id="XMLID_82_" x="1539.7" y="2524.7" class="st0" width="7" height="32.5"/>
		<path id="XMLID_81_" class="st0" d="M1611.6,2228.8v124.4H1587v-124.4v246.6h-40.3v24.7h40.3c13.6,0,24.7-11,24.7-24.7
			L1611.6,2228.8L1611.6,2228.8z"/>
		<polygon id="XMLID_80_" class="st0" points="1611.6,2222.6 1611.6,2197.9 1587,2197.9 1587,2222.6 1587,2197.9 1611.6,2197.9 		
			"/>
		<line id="XMLID_79_" class="st0" x1="1588.6" y1="2203.3" x2="1611.2" y2="2203.3"/>
		<line id="XMLID_78_" class="st0" x1="1587.1" y1="2208.8" x2="1610.6" y2="2208.8"/>
		<line id="XMLID_77_" class="st0" x1="1588.1" y1="2235.3" x2="1610.2" y2="2235.3"/>
		<line id="XMLID_76_" class="st0" x1="1587.1" y1="2241.3" x2="1610.6" y2="2241.3"/>
		<line id="XMLID_75_" class="st2" x1="1535.4" y1="2454.2" x2="1535.4" y2="2572.8"/>
		<line id="XMLID_74_" class="st2" x1="1550.8" y1="2529.5" x2="1550.8" y2="2552.8"/>
		<line id="XMLID_73_" class="st2" x1="1550.1" y1="2476.2" x2="1550.1" y2="2500.2"/>
		<line id="XMLID_72_" class="st0" x1="1587" y1="2228.8" x2="1611.6" y2="2228.8"/>
		<line id="XMLID_71_" class="st0" x1="1587" y1="2222.6" x2="1611.6" y2="2222.6"/>
		<line id="XMLID_70_" class="st0" x1="1587" y1="2661.5" x2="1611.6" y2="2661.5"/>
	</g>
	<g id="XMLID_2_">
		<g id="XMLID_3_">
			<g id="XMLID_60_">
				<g id="XMLID_62_">
					<rect id="XMLID_66_" x="986" y="2684.1" class="st1" width="45.2" height="11.1"/>
				</g>
				<line id="XMLID_61_" class="st0" x1="986" y1="2695.1" x2="1031.2" y2="2695.1"/>
			</g>
			<line id="XMLID_15_" class="st2" x1="986.1" y1="2698.8" x2="1030.2" y2="2698.8"/>
			<g id="XMLID_9_">
				<line id="XMLID_10_" class="st0" x1="986" y1="2695.1" x2="1031.2" y2="2695.1"/>
			</g>
			<line id="XMLID_6_" class="st0" x1="986" y1="2695.1" x2="1031.2" y2="2695.1"/>
			<line id="XMLID_4_" class="st5" x1="771.6" y1="2728" x2="771.6" y2="2766.5"/>
		</g>
	</g>
</g>
</svg>
