<?xml version="1.0" encoding="utf-8"?>
<!-- Generator: Adobe Illustrator 19.0.0, SVG Export Plug-In . SVG Version: 6.00 Build 0)  -->
<svg version="1.1" id="Слой_1" xmlns="http://www.w3.org/2000/svg" xmlns:xlink="http://www.w3.org/1999/xlink" x="0px" y="0px"
	 viewBox="0 -642.4 1920 846" style="enable-background:new 0 -642.4 1920 846;" xml:space="preserve">
<style type="text/css">
	.st0{fill:#F4E1A1;}
	.st1{fill:none;stroke:#827957;stroke-width:2;stroke-linecap:round;stroke-linejoin:round;stroke-miterlimit:10;}
	.st2{fill:#F4E1A1;stroke:#827957;stroke-width:2;stroke-linecap:round;stroke-linejoin:round;stroke-miterlimit:10;}
	.st3{fill:none;stroke:#827957;stroke-linecap:round;stroke-linejoin:round;stroke-miterlimit:10;}
	.st4{display:none;fill:none;stroke:#827957;stroke-width:2;stroke-linecap:round;stroke-linejoin:round;stroke-miterlimit:10;}
</style>
<g id="conveer_x5F_elements">
	<g id="_x30_7">
		<g>
			<g>
				<polygon class="st0" points="197.3,168 197.3,159.3 193.3,159.3 193.3,143.4 191.3,143.4 191.3,139.3 181.7,139.3 181.7,143.4 
					175.5,143.4 175.5,139.3 165.9,139.3 165.9,143.4 163.8,143.4 163.8,159.3 159.9,159.3 159.9,168 182.1,168 				"/>
				<path class="st0" d="M180.9,168h-21.1v10c0,10.3,8.4,18.7,18.7,18.7l0,0c10.3,0,18.7-8.4,18.7-18.7v-10H182l0,0H180.9z"/>
			</g>
			<g>
				<path class="st1" d="M159.9,168v10c0,10.3,8.4,18.7,18.7,18.7l0,0c10.3,0,18.7-8.4,18.7-18.7v-10"/>
				<rect x="159.9" y="159.3" class="st1" width="37.4" height="8.7"/>
				<path class="st1" d="M175,168v14.7c0,2,1.6,3.5,3.5,3.5l0,0c2,0,3.5-1.6,3.5-3.5V168"/>
				<rect x="163.8" y="143.4" class="st1" width="29.5" height="15.8"/>
				<rect x="165.9" y="139.3" class="st1" width="9.6" height="4.1"/>
				<rect x="181.7" y="139.3" class="st1" width="9.6" height="4.1"/>
			</g>
			<path class="st1" d="M186.9,139.3c-0.3-17.4-0.1-34.8,1.5-52.2"/>
			<path class="st1" d="M170.6,87.2c1.3,17.3,1.3,34.8,1,52.2"/>
			<line class="st1" x1="187.5" y1="143.4" x2="187.5" y2="159.3"/>
			<line class="st1" x1="179" y1="143.4" x2="179" y2="159.3"/>
			<line class="st1" x1="183.5" y1="159.3" x2="183.5" y2="168"/>
			<line class="st1" x1="189.5" y1="159.4" x2="189.5" y2="167.5"/>
			<line class="st1" x1="168.5" y1="159.9" x2="168.5" y2="166.5"/>
		</g>
		<g>
			<path class="st0" d="M647.8-50.2v-6.3H544.9v-7.8h-18v6.7l-0.2-0.1c0,0.3,0.1,0.6,0.2,1v0.2H402v-7.8h-18v7.8H259v-7.8h-18v7.8
				H116.1v-7.8h-18v5.4l0,0l0,0v2.4H-0.2v6.3h98.3V-30h18v-20.2h124.3h0.6v0.3l-0.6-0.3c0.2,0.5,0.4,1,0.6,1.5V-30h18v-20.2h125V-30
				h18v-3.7l0,0l0,0v-16.5h124.9V-30h18v-7.6c0,0,0,0,0-0.1l0,0v-12.6h102.9L647.8-50.2L647.8-50.2z"/>
			<g>
				<line class="st1" x1="647.8" y1="-56.5" x2="544.9" y2="-56.5"/>
				<line class="st1" x1="526.9" y1="-56.5" x2="402" y2="-56.5"/>
				<line class="st1" x1="384" y1="-56.5" x2="259" y2="-56.5"/>
				<line class="st1" x1="241" y1="-56.5" x2="116.1" y2="-56.5"/>
				<line class="st1" x1="98.1" y1="-56.5" x2="-0.2" y2="-56.5"/>
				<line class="st1" x1="647.8" y1="-50.3" x2="544.9" y2="-50.3"/>
				<line class="st1" x1="526.9" y1="-50.3" x2="402" y2="-50.3"/>
				<line class="st1" x1="384" y1="-50.3" x2="259" y2="-50.3"/>
				<line class="st1" x1="241" y1="-50.3" x2="116.1" y2="-50.3"/>
				<line class="st1" x1="98.1" y1="-50.3" x2="-0.2" y2="-50.3"/>
				<rect x="98.1" y="-64.3" class="st1" width="18" height="34.3"/>
				<rect x="241" y="-64.3" class="st1" width="18" height="34.3"/>
				<rect x="384" y="-64.3" class="st1" width="18" height="34.3"/>
				<rect x="526.9" y="-64.3" class="st1" width="18" height="34.3"/>
			</g>
			<path class="st1" d="M191.4,63.2c0-0.2,0.1-0.3,0.1-0.5c4.4-25.8,12.8-51.1,27-73.1c5.8-9,13.1-17.8,22.6-22.6"/>
			<path class="st1" d="M116.1-37.1c24.2,19.9,39.6,49.2,47.4,79.6c1.8,6.8,3.2,13.7,4.3,20.7"/>
			<path class="st1" d="M259-34.7c16.6,5.2,31.7,14.9,48.8,18.7c13.7,3,28.2,2,41.3-3c12.1-4.6,23-12.3,34.9-17.2"/>
			<path class="st1" d="M402-38.7c9.1-0.7,18.1,2.6,26.8,5.4c28.1,8.9,59.2,13.1,86.5,1.9c3.8-1.6,7.7-3.5,11.7-4.6"/>
			<path class="st1" d="M544.9-37.1c16.3,0.6,32.2,5.1,48.4,7.6c18.6,2.9,38.9,2.8,54.5-8.3"/>
			<path class="st1" d="M116.1-38.9c12.8,2.2,25,7.9,37.8,10.8c15.6,3.6,32.2,2.8,47.5-2.1c13.3-4.3,25.9-11.7,39.6-13.1"/>
			<path class="st1" d="M98.1-35.1c-8.1,0.6-15.9,3.4-23.7,5.9c-24.2,7.6-49.4,12-74.7,13"/>
			<path class="st1" d="M259-40.6c4.8,1.1,9.4,3,14,4.7c21,7.4,43.8,9.3,65.7,5.6c15.3-2.6,30-7.9,45.2-10.8"/>
			<path class="st1" d="M402-42.5c5.4-0.7,10.9-0.8,16.4-0.5c9,0.6,17.9,2.6,26.9,3.5c10,1,20.1,0.5,30.1,0
				c17.2-0.8,34.3-1.6,51.5-2.5"/>
			<path class="st1" d="M544.9-42.6c8-0.9,16.3,0.9,24.3,2.4c26.1,5,53.8,7.7,78.6-1.6"/>
			<path class="st1" d="M1.3-26c14.5,1.3,29.4-0.9,43.7-4.2c17.7-4,35.1-9.5,53.1-11.5"/>
			<line class="st1" x1="379.5" y1="-56.6" x2="379.5" y2="-51"/>
			<line class="st1" x1="407.5" y1="-56.6" x2="407.5" y2="-52"/>
			<line class="st1" x1="412.5" y1="-56.1" x2="412.5" y2="-51.1"/>
			<line class="st1" x1="522.5" y1="-55.6" x2="522.5" y2="-51.1"/>
			<line class="st1" x1="551" y1="-56.5" x2="551" y2="-51"/>
			<line class="st1" x1="384" y1="-59.6" x2="400.5" y2="-59.6"/>
			<line class="st1" x1="527" y1="-61.1" x2="543.2" y2="-61.1"/>
			<line class="st1" x1="98" y1="-60.6" x2="116" y2="-60.6"/>
			<line class="st1" x1="241.5" y1="-59.6" x2="257.5" y2="-59.6"/>
			<line class="st1" x1="119.5" y1="-56.6" x2="119.5" y2="-50.4"/>
			<line class="st1" x1="123" y1="-56.1" x2="123" y2="-51.4"/>
			<line class="st1" x1="128" y1="-56.6" x2="128" y2="-50.3"/>
			<line class="st1" x1="138" y1="-55.6" x2="138" y2="-50.9"/>
			<line class="st1" x1="93.5" y1="-56.6" x2="93.5" y2="-50.3"/>
			<line class="st1" x1="89.5" y1="-56.1" x2="89.5" y2="-51.6"/>
			<line class="st1" x1="83.5" y1="-56.1" x2="83.5" y2="-51.6"/>
			<line class="st1" x1="236" y1="-56.6" x2="236" y2="-51.6"/>
			<line class="st1" x1="230.5" y1="-56.6" x2="230.5" y2="-51.5"/>
			<line class="st1" x1="225.5" y1="-56.6" x2="225.5" y2="-51"/>
			<line class="st1" x1="263" y1="-56.6" x2="263" y2="-51"/>
			<line class="st1" x1="267" y1="-55.6" x2="267" y2="-50.5"/>
			<line class="st1" x1="278" y1="-55.6" x2="278" y2="-50.8"/>
			<line class="st1" x1="287.5" y1="-55.6" x2="287.5" y2="-50.5"/>
			<line class="st1" x1="419.5" y1="-56.5" x2="419.5" y2="-50.5"/>
			<line class="st1" x1="430" y1="-56.6" x2="430" y2="-50"/>
			<path class="st1" d="M98.1-58.9c1,2.1,2.1,4.1,3.1,6.2c0.8,1.6,1.7,3.2,3.1,4.3c1.7,1.2,4.1,1.3,6.1,0.6c2-0.7,3.7-2.1,5-3.8"/>
			<path class="st1" d="M98.4-49.5c1.6,3.6,1.7,8.2,4.7,10.8c3.4,3,9.1,1.6,12.3-1.5"/>
			<path class="st1" d="M241.1-55.3c1.6,0.8,2.7,2.4,4,3.6c3.9,3.6,10.8,3.6,14-1.8"/>
			<path class="st1" d="M240.4-50.2c1.6,3.9,3.4,8,6.7,10.6s8.8,2.9,11.4-0.5"/>
			<path class="st1" d="M384.1-54.6c1.6,3.6,4.1,6.9,7.8,8.2c3.7,1.3,8.5-0.4,9.5-4.2"/>
			<path class="st1" d="M384.4-48.6c2,8,9.4,14.3,17.7,15"/>
			<path class="st1" d="M526.7-57.6c0.4,3.7,3.1,6.9,6.5,8.4s7.3,1.4,10.9,0.3"/>
			<path class="st1" d="M527.4-48.2c2.6,5.8,8.1,10.3,14.3,11.6c1.2,0.3,2.8,0.2,3.2-0.9"/>
		</g>
	</g>
	<g id="_x30_9">
		<g>
			<g>
				<rect x="248.1" y="-244.7" class="st0" width="10.9" height="45.2"/>
				<rect x="238.2" y="-218.5" class="st0" width="9.9" height="9.9"/>
				<rect x="238.2" y="-236.5" class="st0" width="9.9" height="9.9"/>
			</g>
			<g>
				<g>
					<polyline class="st1" points="259,-244.7 248.1,-244.7 248.1,-199.5 259,-199.5 					"/>
					<rect x="238.2" y="-218.5" class="st1" width="9.9" height="9.9"/>
					<rect x="238.2" y="-236.5" class="st1" width="9.9" height="9.9"/>
				</g>
			</g>
			<path class="st1" d="M-0.2-440.2c19.2,2.8,37.9,9.1,54.8,18.5"/>
			<path class="st1" d="M87.5-397c27.5,27.3,43.7,63.6,64.7,96.1c20.5,31.7,49,62.1,86,68.9"/>
			<path class="st1" d="M-0.2-364.2c26.5,3.9,51.7,18.1,72.6,35.4c27.8,23,50.4,51.6,77.5,75.4c24.9,21.9,55.5,38.1,88.2,39.8"/>
			<line class="st1" x1="244.8" y1="-236.2" x2="244.8" y2="-228.2"/>
			<line class="st1" x1="243.5" y1="-217.9" x2="243.5" y2="-208.9"/>
			<line class="st1" x1="259" y1="-244.7" x2="259" y2="-199.5"/>
		</g>
		<g>
			<rect x="259" y="-341.1" class="st0" width="190.8" height="224.7"/>
			<rect x="259" y="-341.1" class="st1" width="190.8" height="224.7"/>
			<g>
				<path class="st1" d="M331-269.7c8.3,7.8,8.3,20.5,0,28.3s-21.7,7.8-30,0s-8.3-20.5,0-28.3C309.2-277.5,322.7-277.5,331-269.7z"
					/>
				<path class="st1" d="M333.7-255.5h-35.5c0-9.3,8-16.8,17.8-16.8S333.7-264.7,333.7-255.5z"/>
				<path class="st1" d="M333.2-283.7l-6.4,6.1c-6.8-3-14.8-3-21.6,0l-6.4-6.1l-12.6,11.9l6.4,6.1c-3.2,6.5-3.2,14,0,20.4l-6.4,6.1
					l12.6,11.9l6.4-6.1c6.8,3,14.8,3,21.6,0l6.4,6.1l12.6-11.9l-6.4-6.1c3.2-6.5,3.2-14,0-20.4l6.4-6.1L333.2-283.7z"/>
				<path class="st1" d="M298.3-238.8c0.9,0.8,0.9,2.2,0,3s-2.3,0.8-3.2,0c-0.9-0.8-0.9-2.2,0-3C296-239.7,297.5-239.7,298.3-238.8z
					"/>
				<path class="st1" d="M298.3-275.1c0.9,0.8,0.9,2.2,0,3s-2.3,0.8-3.2,0c-0.9-0.8-0.9-2.2,0-3C296-275.9,297.5-275.9,298.3-275.1z
					"/>
				<path class="st1" d="M336.7-238.8c0.9,0.8,0.9,2.2,0,3s-2.3,0.8-3.2,0c-0.9-0.8-0.9-2.2,0-3
					C334.4-239.7,335.9-239.7,336.7-238.8z"/>
				<path class="st1" d="M336.7-275.1c0.9,0.8,0.9,2.2,0,3s-2.3,0.8-3.2,0c-0.9-0.8-0.9-2.2,0-3S335.9-275.9,336.7-275.1z"/>
				<line class="st1" x1="316" y1="-255.5" x2="313" y2="-265.9"/>
				<line class="st1" x1="298.2" y1="-255.5" x2="333.7" y2="-255.5"/>
			</g>
			<g>
				<path class="st1" d="M408-269.7c8.3,7.8,8.3,20.5,0,28.3s-21.7,7.8-30,0s-8.3-20.5,0-28.3S399.7-277.5,408-269.7z"/>
				<path class="st1" d="M410.8-255.5h-35.5c0-9.3,8-16.8,17.8-16.8S410.8-264.7,410.8-255.5z"/>
				<path class="st1" d="M410.2-283.7l-6.4,6.1c-6.8-3-14.8-3-21.6,0l-6.4-6.1l-12.6,11.9l6.4,6.1c-3.2,6.5-3.2,14,0,20.4l-6.4,6.1
					l12.6,11.9l6.4-6.1c6.8,3,14.8,3,21.6,0l6.4,6.1l12.6-11.9l-6.4-6.1c3.2-6.5,3.2-14,0-20.4l6.4-6.1L410.2-283.7z"/>
				<path class="st1" d="M375.4-238.8c0.9,0.8,0.9,2.2,0,3s-2.3,0.8-3.2,0c-0.9-0.8-0.9-2.2,0-3
					C373.1-239.7,374.5-239.7,375.4-238.8z"/>
				<path class="st1" d="M375.4-275.1c0.9,0.8,0.9,2.2,0,3s-2.3,0.8-3.2,0c-0.9-0.8-0.9-2.2,0-3
					C373.1-275.9,374.5-275.9,375.4-275.1z"/>
				<path class="st1" d="M413.8-238.8c0.9,0.8,0.9,2.2,0,3s-2.3,0.8-3.2,0c-0.9-0.8-0.9-2.2,0-3
					C411.5-239.7,412.9-239.7,413.8-238.8z"/>
				<path class="st1" d="M413.8-275.1c0.9,0.8,0.9,2.2,0,3s-2.3,0.8-3.2,0c-0.9-0.8-0.9-2.2,0-3
					C411.5-275.9,412.9-275.9,413.8-275.1z"/>
				<line class="st1" x1="393" y1="-255.5" x2="385.7" y2="-263.9"/>
				<line class="st1" x1="375.2" y1="-255.5" x2="410.8" y2="-255.5"/>
			</g>
			<g>
				<rect x="286.1" y="-321.7" class="st1" width="135.8" height="18.2"/>
				<line class="st1" x1="413.8" y1="-321.6" x2="413.8" y2="-303.5"/>
				<line class="st1" x1="407.2" y1="-320.2" x2="407.2" y2="-304.9"/>
				<line class="st1" x1="383.8" y1="-320.9" x2="383.8" y2="-303.4"/>
				<line class="st1" x1="359.8" y1="-321.6" x2="359.8" y2="-304.2"/>
				<line class="st1" x1="354.5" y1="-321.6" x2="354.5" y2="-304.9"/>
				<line class="st1" x1="342.5" y1="-320.9" x2="342.5" y2="-303.4"/>
				<line class="st1" x1="317.2" y1="-320.9" x2="317.2" y2="-303.4"/>
				<line class="st1" x1="313.2" y1="-321.7" x2="313.2" y2="-303.4"/>
				<line class="st1" x1="294.5" y1="-320.9" x2="294.5" y2="-303.4"/>
			</g>
			<g>
				<g>
					<line class="st1" x1="291.2" y1="-207.5" x2="291.2" y2="-191.6"/>
					<line class="st1" x1="291.2" y1="-177" x2="291.2" y2="-146.6"/>
					<rect x="286.2" y="-191.6" class="st1" width="17" height="14.6"/>
					<line class="st1" x1="299" y1="-191.8" x2="299" y2="-176.9"/>
					<line class="st1" x1="294.5" y1="-191.3" x2="294.5" y2="-177.7"/>
				</g>
				<g>
					<line class="st1" x1="321.1" y1="-207.5" x2="321.1" y2="-183.4"/>
					<line class="st1" x1="321.1" y1="-168.8" x2="321.1" y2="-146.6"/>
					<rect x="316.1" y="-183.4" class="st1" width="17" height="14.6"/>
					<line class="st1" x1="328.3" y1="-183.1" x2="328.3" y2="-169.2"/>
				</g>
				<g>
					<line class="st1" x1="351.1" y1="-207.5" x2="351.1" y2="-176.1"/>
					<line class="st1" x1="351.1" y1="-161.5" x2="351.1" y2="-146.6"/>
					<rect x="346" y="-176.1" class="st1" width="17" height="14.6"/>
					<line class="st1" x1="358.5" y1="-175.6" x2="358.5" y2="-162.2"/>
					<line class="st1" x1="354.3" y1="-175.6" x2="354.3" y2="-162.8"/>
				</g>
				<g>
					<line class="st1" x1="381" y1="-207.5" x2="381" y2="-199.6"/>
					<line class="st1" x1="381" y1="-185.1" x2="381" y2="-146.6"/>
					<rect x="375.9" y="-199.6" class="st1" width="17" height="14.6"/>
					<line class="st1" x1="388.8" y1="-199.6" x2="388.8" y2="-186"/>
					<line class="st1" x1="383.3" y1="-198.8" x2="383.3" y2="-186"/>
				</g>
				<g>
					<line class="st1" x1="410.9" y1="-207.5" x2="410.9" y2="-187.6"/>
					<line class="st1" x1="410.9" y1="-173" x2="410.9" y2="-146.6"/>
					<rect x="405.9" y="-187.6" class="st1" width="17" height="14.6"/>
					<line class="st1" x1="415.3" y1="-187.3" x2="415.3" y2="-174"/>
				</g>
			</g>
		</g>
	</g>
	<g id="_x31_2">
		<g>
			<path class="st0" d="M374.6-616.7c-0.1,0-0.1,0-0.2,0c-0.7,0.1-1.4,0.1-2,0.2c-1.5,0.1-3.2,0-4.7-0.5c-0.2,0-0.4,0-0.6,0
				c-1.9,0-3.8-0.1-5.7-0.1c-0.5,0-0.9-0.1-1.3-0.2c-0.5,0.1-0.9,0.2-1.5,0.2c-0.6,0-1.1-0.1-1.6-0.2c-0.6,0.2-1.2,0.4-1.9,0.4
				c-0.8,0-1.5-0.2-2.1-0.4c-0.6,0.2-1.2,0.4-1.9,0.4c-0.8,0-1.5-0.2-2.2-0.5c-0.4,0.1-0.9,0.2-1.5,0.2c-0.4,0-0.8-0.1-1.2-0.1
				c-0.3,0-0.6,0.1-0.9,0.1c0,0-0.1,0-0.1,0c-0.3,0.1-0.7,0.2-1,0.2c-0.1,0.1-0.2,0.2-0.3,0.4c-0.4,0.4-0.8,0.7-1.2,0.9v6.4h4.4
				v177.5h24.2v-177.5h3.9v-7h0C374.9-616.5,374.8-616.6,374.6-616.7z"/>
			<g>
				<g>
					<g>
						<line class="st1" x1="346.5" y1="-586.4" x2="371.2" y2="-586.4"/>
					</g>
					<path class="st1" d="M343.5-616.4c-0.3,0.2-0.6,0.4-0.9,0.6v6.4h32.5v-7H343.5z"/>
					<line class="st1" x1="346.5" y1="-431.9" x2="346.5" y2="-609.4"/>
					<line class="st1" x1="371.2" y1="-431.9" x2="371.2" y2="-609.4"/>
				</g>
				<line class="st1" x1="365.7" y1="-609.4" x2="365.7" y2="-586.4"/>
				<line class="st1" x1="346.5" y1="-431.9" x2="371.2" y2="-431.9"/>
			</g>
			<line class="st1" x1="346.5" y1="-439.6" x2="370" y2="-439.6"/>
			<line class="st1" x1="347" y1="-445.1" x2="371" y2="-445.1"/>
			<line class="st1" x1="346.5" y1="-582.1" x2="371" y2="-582.1"/>
			<line class="st1" x1="355.5" y1="-582.1" x2="355.5" y2="-446.6"/>
		</g>
		<g>
			<polygon class="st0" points="381.3,-386.9 381.3,-397 390.1,-397 390.1,-421.7 381.3,-421.7 381.3,-431.9 336.4,-431.9 
				336.4,-421.7 -0.2,-421.7 -0.2,-397 318.7,-397 327.5,-397 336.4,-397 336.4,-386.9 346.5,-386.9 346.5,-356.8 342.6,-356.8 
				342.6,-349.8 331.9,-349.8 331.9,-341.1 385.7,-341.1 385.7,-349.8 375.1,-349.8 375.1,-356.8 371,-356.8 371,-386.9 			"/>
			<rect x="331.9" y="-349.8" class="st1" width="53.8" height="8.6"/>
			<g>
				<rect x="336.4" y="-431.9" class="st1" width="44.9" height="44.9"/>
				<g>
					<circle class="st1" cx="358.8" cy="-409.4" r="10.8"/>
					<circle class="st1" cx="358.8" cy="-409.4" r="6.9"/>
				</g>
			</g>
			<rect x="327.5" y="-421.7" class="st1" width="8.8" height="24.7"/>
			<rect x="318.7" y="-421.7" class="st1" width="8.8" height="24.7"/>
			<rect x="381.3" y="-421.7" class="st1" width="8.8" height="24.7"/>
			<g>
				<g>
					<line class="st1" x1="371.2" y1="-379.7" x2="346.5" y2="-379.7"/>
				</g>
				<rect x="342.6" y="-356.8" class="st1" width="32.5" height="7"/>
				<line class="st1" x1="371.2" y1="-386.9" x2="371.2" y2="-356.8"/>
				<line class="st1" x1="346.5" y1="-386.9" x2="346.5" y2="-356.8"/>
			</g>
			<line class="st1" x1="352" y1="-356.8" x2="352" y2="-379.7"/>
			<line class="st1" x1="318.7" y1="-403.2" x2="-0.2" y2="-403.2"/>
			<g>
				<line class="st1" x1="-0.2" y1="-421.7" x2="318.7" y2="-421.7"/>
				<line class="st1" x1="318.7" y1="-397" x2="-0.2" y2="-397"/>
			</g>
			<line class="st1" x1="-0.2" y1="-421.7" x2="-0.2" y2="-397"/>
		</g>
		<g>
			<g>
				<circle class="st0" cx="505.4" cy="-493.2" r="41.8"/>
				<polygon class="st0" points="602.8,-403.3 602.8,-396.6 592.9,-396.6 592.9,-386.7 602.8,-386.7 602.8,-378.9 592.9,-378.9 
					592.9,-369 602.8,-369 602.8,-358.4 647.8,-358.4 647.8,-403.3 				"/>
			</g>
			<g>
				<line class="st1" x1="608.9" y1="-616.5" x2="564" y2="-616.5"/>
			</g>
			<g>
				<g>
					<rect x="602.8" y="-403.3" class="st1" width="44.9" height="44.9"/>
					<g>
						<circle class="st1" cx="625.3" cy="-380.8" r="10.8"/>
						<circle class="st1" cx="625.3" cy="-380.8" r="6.9"/>
					</g>
				</g>
				<rect x="592.9" y="-396.6" class="st1" width="9.9" height="9.9"/>
				<rect x="592.9" y="-378.9" class="st1" width="9.9" height="9.9"/>
			</g>
			<circle class="st1" cx="505.4" cy="-493.2" r="27.9"/>
			<circle class="st1" cx="505.4" cy="-493.2" r="41.8"/>
			<g>
				<rect x="569.7" y="-616.4" class="st2" width="9.9" height="9.9"/>
				<rect x="587.4" y="-616.4" class="st2" width="9.9" height="9.9"/>
			</g>
			<path class="st1" d="M574.6-606.5c0.4,17.1-1.1,34.5-6.7,50.7c-6.8,19.8-20.3,37.8-40.1,46"/>
			<path class="st1" d="M517.5-453.2c5.1,15.8,14.9,30.1,27.8,40.5c13.5,10.9,30.4,19.5,47.7,20.7"/>
			<path class="st1" d="M592.5-606.5c2.2,46.7,1.9,94.8-15.3,138.3c-9.7,24.5-24.8,47.3-29.6,73.2c-1.3,7-1.5,15,3.2,20.3
				c6.3,7,17.4,5.6,26.7,3.6c5.1-1.1,10.3-2.2,15.4-3.4"/>
			<path class="st1" d="M390.1-416.4c38.8-1.4,76.2-25.7,92-61.5"/>
			<path class="st1" d="M390.1-408.9c18.4-3.1,36.7-6.9,53.3-15.6c15.3-8.1,29.1-19.7,38.1-34.4"/>
			<path class="st1" d="M390.1-401.4c25.3-3.3,50.6-9.4,72.1-22.9c22-13.8,39.6-36.3,42.7-62"/>
			<g>
				<g>
					<circle class="st1" cx="505.4" cy="-493.2" r="10.8"/>
					<circle class="st1" cx="505.4" cy="-493.2" r="6.9"/>
				</g>
			</g>
			<line class="st1" x1="641.8" y1="-402.9" x2="641.8" y2="-358.2"/>
		</g>
		<g>
			<polygon class="st0" points="636.1,-297 618.5,-265.9 618.5,-242.2 463.5,-242.2 463.5,-297 449.8,-297 449.8,-160.6 
				463.5,-160.6 463.5,-215.4 618.5,-215.4 618.5,-191.6 636.1,-160.6 647.8,-160.6 647.8,-297 			"/>
			<rect x="636.1" y="-297" class="st1" width="11.7" height="136.4"/>
			<rect x="618.5" y="-265.9" class="st1" width="17.7" height="74.3"/>
			<g>
				<rect x="463.5" y="-242.2" class="st1" width="155" height="26.7"/>
				<line class="st1" x1="618.5" y1="-228.8" x2="605.1" y2="-215.4"/>
				<line class="st1" x1="611.6" y1="-242.2" x2="584.9" y2="-215.4"/>
				<line class="st1" x1="591.4" y1="-242.2" x2="564.6" y2="-215.4"/>
				<line class="st1" x1="571.2" y1="-242.2" x2="544.4" y2="-215.4"/>
				<line class="st1" x1="550.9" y1="-242.2" x2="524.2" y2="-215.4"/>
				<line class="st1" x1="530.7" y1="-242.2" x2="504" y2="-215.4"/>
				<line class="st1" x1="510.5" y1="-242.2" x2="483.7" y2="-215.4"/>
				<line class="st1" x1="490.3" y1="-242.2" x2="463.5" y2="-215.4"/>
				<line class="st1" x1="470" y1="-242.2" x2="463.5" y2="-235.6"/>
			</g>
			<circle class="st1" cx="627.3" cy="-228.8" r="3"/>
			<circle class="st1" cx="627.3" cy="-250" r="3"/>
			<circle class="st1" cx="627.3" cy="-207.5" r="3"/>
			<line class="st1" x1="618.5" y1="-265.9" x2="636.1" y2="-297"/>
			<line class="st1" x1="618.5" y1="-191.6" x2="636.1" y2="-160.6"/>
			<rect x="449.8" y="-297" class="st1" width="13.7" height="136.4"/>
			<line class="st1" x1="454.5" y1="-297.1" x2="454.5" y2="-160.5"/>
			<line class="st1" x1="642.5" y1="-295.1" x2="642.5" y2="-160.1"/>
		</g>
		<g>
			<path class="st0" d="M1352.4-118.6v-8.8v-145.3v-20.9v-3.4c0-13.6-11-24.7-24.7-24.7l0,0h-3.4h-20.9h-15.9v-3.9h-7v-41.1h-8.6
				v108.4h8.6v-34.9h7v-3.9h15.9l0,0h20.9l0,0h3.4v3.4v20.9v32.2v33.6v79.5v8.8h-10.1v44.9h10.1v53h24.7v-53h10.1v-44.9h-10.1
				V-118.6z"/>
			<g>
				<rect x="1271.8" y="-366.7" class="st1" width="8.6" height="108.4"/>
				<g>
					<path class="st1" d="M1327.7-297h-40.3v-24.7h40.3l0,0c13.6,0,24.7,11,24.7,24.7l0,0v178.4h-24.7V-297z"/>
					<g>
						<rect x="1327.7" y="-293.6" class="st1" width="24.7" height="20.9"/>
						<line class="st1" x1="1327.7" y1="-279.7" x2="1352.4" y2="-279.7"/>
					</g>
					<g>
						<rect x="1303.4" y="-321.7" class="st1" width="20.9" height="24.7"/>
						<line class="st1" x1="1310.4" y1="-321.7" x2="1310.4" y2="-297"/>
					</g>
					<rect x="1280.4" y="-325.6" class="st1" width="7" height="32.5"/>
				</g>
				<g>
					<rect x="1317.6" y="-118.6" class="st1" width="44.9" height="44.9"/>
					<g>
						<circle class="st1" cx="1340" cy="-96.1" r="10.8"/>
						<circle class="st1" cx="1340" cy="-96.1" r="6.9"/>
					</g>
				</g>
				<rect x="1327.7" y="-127.4" class="st1" width="24.7" height="8.8"/>
				<rect x="1327.7" y="-240.5" class="st1" width="12.3" height="33.6"/>
			</g>
			<rect x="1327.7" y="-73.6" class="st1" width="24.7" height="53"/>
			<line class="st1" x1="1327.7" y1="-65.8" x2="1352.4" y2="-65.8"/>
			<line class="st1" x1="1328.5" y1="-27.6" x2="1350.5" y2="-27.6"/>
			<line class="st1" x1="1327.8" y1="-33.6" x2="1351.2" y2="-33.6"/>
		</g>
		<g>
			<g>
				<rect x="647.8" y="-444.6" class="st0" width="624" height="424"/>
				<rect x="647.8" y="-444.6" class="st1" width="624" height="424"/>
				<rect x="659.8" y="-432.6" class="st1" width="600" height="400"/>
			</g>
			<g>
				<rect x="887.3" y="-8.7" class="st0" width="40" height="10.8"/>
				<path class="st1" d="M939.3-20.6v5.4c0,6.6-5.3,11.9-11.9,11.9l0,0"/>
				<path class="st1" d="M887.3-3.3L887.3-3.3c-6.6,0-11.9-5.3-11.9-11.9v-5.4"/>
				<rect x="887.3" y="-8.7" class="st1" width="40" height="10.8"/>
				<line class="st1" x1="919.6" y1="2.1" x2="919.6" y2="-8.7"/>
				<line class="st1" x1="895.1" y1="2.1" x2="895.1" y2="-8.7"/>
			</g>
			<g>
				<rect x="804.3" y="-8.7" class="st0" width="40" height="10.8"/>
				<path class="st1" d="M856.2-20.6v5.4c0,6.6-5.3,11.9-11.9,11.9l0,0"/>
				<path class="st1" d="M804.3-3.3L804.3-3.3c-6.6,0-11.9-5.3-11.9-11.9v-5.4"/>
				<rect x="804.3" y="-8.7" class="st1" width="40" height="10.8"/>
				<line class="st1" x1="836.5" y1="2.1" x2="836.5" y2="-8.7"/>
				<line class="st1" x1="812.1" y1="2.1" x2="812.1" y2="-8.7"/>
			</g>
			<g>
				<rect x="1021.7" y="-8.7" class="st0" width="40" height="10.8"/>
				<path class="st1" d="M1073.6-20.6v5.4c0,6.6-5.3,11.9-11.9,11.9l0,0"/>
				<path class="st1" d="M1021.7-3.3L1021.7-3.3c-6.6,0-11.9-5.3-11.9-11.9v-5.4"/>
				<rect x="1021.7" y="-8.7" class="st1" width="40" height="10.8"/>
				<line class="st1" x1="1053.9" y1="2.1" x2="1053.9" y2="-8.7"/>
				<line class="st1" x1="1029.5" y1="2.1" x2="1029.5" y2="-8.7"/>
			</g>
		</g>
	</g>
	<g id="_x31_4">
		<g>
			<g>
				<path class="st0" d="M1612-32.6v-600.3h0.7c0-0.1-0.1-0.2-0.1-0.3c-0.3,0-0.6,0.1-0.9,0.1c-1.1,0-1.9-0.3-2.6-0.7
					c-0.2,0-0.3,0-0.5,0c-0.2,0-0.3,0-0.5,0c-0.6,0.3-1.4,0.5-2.3,0.5c-0.8,0-1.6-0.2-2.2-0.5c-0.4,0.1-0.8,0.2-1.3,0.2
					c-0.5,0-0.9-0.1-1.3-0.2c-0.5,0.2-1.2,0.3-1.9,0.3c-0.6,0-1.2-0.1-1.7-0.3c-0.4,0.1-0.7,0.1-1.1,0.1c-0.7,0-1.3-0.1-1.8-0.3
					c-0.6,0.3-1.4,0.5-2.2,0.5c-0.7,0-1.4-0.1-1.9-0.4c-0.4,0.1-0.9,0.2-1.4,0.2c-0.4,0-0.7,0-1-0.1c-0.3,0.3-0.7,0.6-1.1,0.9h0.4
					v600.3H1570v12h59.5v-12H1612z"/>
			</g>
			<g>
				<line class="st1" x1="1605.9" y1="-632.9" x2="1605.9" y2="-32.6"/>
				<g>
					<path class="st1" d="M1587.4-32.6c-0.4-200.4-0.4-400.4,0-600.1"/>
					<line class="st1" x1="1612" y1="-632.9" x2="1612" y2="-32.6"/>
				</g>
				<rect x="1570" y="-32.6" class="st1" width="59.5" height="12"/>
				<line class="st1" x1="1570" y1="-25.6" x2="1629.5" y2="-25.6"/>
				<line class="st1" x1="1588" y1="-627.1" x2="1605.9" y2="-627.1"/>
				<line class="st3" x1="1570.5" y1="-28.2" x2="1628.8" y2="-28.2"/>
				<path class="st1" d="M1587.4-632.9c8.2,0,16.4,0,24.6,0"/>
			</g>
		</g>
		<g>
			<g>
				<path class="st1" d="M1514.5-120h5.4c6.6,0,11.9,5.3,11.9,11.9l0,0"/>
				<path class="st1" d="M1531.8-68.1L1531.8-68.1c0,6.6-5.3,11.9-11.9,11.9h-5.4"/>
				<rect x="1526.4" y="-108.1" class="st0" width="10.8" height="40"/>
				<rect x="1526.4" y="-108.1" class="st1" width="10.8" height="40"/>
				<line class="st1" x1="1537.2" y1="-100.3" x2="1526.4" y2="-100.3"/>
				<line class="st1" x1="1537.2" y1="-75.9" x2="1526.4" y2="-75.9"/>
			</g>
			<g>
				<g>
					<rect x="1526.4" y="-186.7" class="st0" width="10.8" height="40"/>
					<path class="st1" d="M1514.5-198.6h5.4c6.6,0,11.9,5.3,11.9,11.9l0,0"/>
					<path class="st1" d="M1531.8-146.7L1531.8-146.7c0,6.6-5.3,11.9-11.9,11.9h-5.4"/>
					<rect x="1526.4" y="-186.7" class="st1" width="10.8" height="40"/>
					<line class="st1" x1="1537.2" y1="-178.9" x2="1526.4" y2="-178.9"/>
					<line class="st1" x1="1537.2" y1="-154.4" x2="1526.4" y2="-154.4"/>
				</g>
				<line class="st3" x1="1533.5" y1="-178.2" x2="1533.5" y2="-155.5"/>
			</g>
			<g>
				<polygon class="st0" points="1420.4,-416.4 1420.4,-20.6 1447.8,-20.6 1486.3,-20.6 1513.7,-20.6 1513.7,-416.4 				"/>
				<path class="st1" d="M1447.8-20.6v-97.2c0-10.6,8.6-19.3,19.3-19.3s19.3,8.6,19.3,19.3v97.2"/>
				<path class="st1" d="M1486.3-99.2c4.7-4.8,7.5-11.4,7.5-18.6c0-14.8-12-26.8-26.8-26.8s-26.8,12-26.8,26.8
					c0,7.2,2.9,13.8,7.5,18.6"/>
				<path class="st1" d="M1486.3-91c8.3-6,13.7-15.7,13.7-26.7c0-18.2-14.8-33-33-33s-33,14.8-33,33c0,11,5.4,20.7,13.7,26.7"/>
				<rect x="1420.4" y="-416.4" class="st1" width="93.3" height="395.8"/>
				<g>
					<g>
						<circle class="st1" cx="1467" cy="-306.6" r="10.8"/>
						<circle class="st1" cx="1467" cy="-306.6" r="6.9"/>
					</g>
					<g>
						<circle class="st1" cx="1467" cy="-360.6" r="10.8"/>
						<circle class="st1" cx="1467" cy="-360.6" r="6.9"/>
					</g>
					<g>
						<circle class="st1" cx="1467" cy="-333.6" r="10.8"/>
						<circle class="st1" cx="1467" cy="-333.6" r="6.9"/>
					</g>
				</g>
				<line class="st1" x1="1420.4" y1="-265.9" x2="1513.7" y2="-265.9"/>
				<line class="st1" x1="1420.4" y1="-242.2" x2="1513.7" y2="-242.2"/>
				<line class="st1" x1="1420.4" y1="-228.8" x2="1513.7" y2="-228.8"/>
				<line class="st1" x1="1420.4" y1="-396.6" x2="1513.7" y2="-396.6"/>
				<g>
					<line class="st1" x1="1442.5" y1="-206.4" x2="1491.5" y2="-206.4"/>
					<line class="st1" x1="1442.5" y1="-200.7" x2="1491.5" y2="-200.7"/>
					<line class="st1" x1="1442.5" y1="-195.1" x2="1491.5" y2="-195.1"/>
					<line class="st1" x1="1442.5" y1="-189.5" x2="1491.5" y2="-189.5"/>
					<line class="st1" x1="1442.5" y1="-183.9" x2="1491.5" y2="-183.9"/>
					<line class="st1" x1="1442.5" y1="-178.2" x2="1491.5" y2="-178.2"/>
					<line class="st1" x1="1442.5" y1="-172.6" x2="1491.5" y2="-172.6"/>
					<line class="st1" x1="1442.5" y1="-167" x2="1491.5" y2="-167"/>
				</g>
				<line class="st1" x1="1501.8" y1="-396.6" x2="1501.8" y2="-266.7"/>
				<line class="st1" x1="1495.2" y1="-416.4" x2="1495.2" y2="-397.5"/>
				<line class="st1" x1="1489.2" y1="-416.4" x2="1489.2" y2="-398.2"/>
				<line class="st1" x1="1433.2" y1="-415.6" x2="1433.2" y2="-397.5"/>
				<line class="st1" x1="1439.2" y1="-415.6" x2="1439.2" y2="-396.8"/>
				<line class="st1" x1="1454.5" y1="-415.6" x2="1454.5" y2="-397.6"/>
				<line class="st1" x1="1473.2" y1="-416.4" x2="1473.2" y2="-396.9"/>
				<line class="st1" x1="1506.2" y1="-415.6" x2="1506.2" y2="-397.6"/>
				<line class="st3" x1="1506.2" y1="-398.6" x2="1506.2" y2="-266.9"/>
				<line class="st3" x1="1504.5" y1="-241.6" x2="1504.5" y2="-228.2"/>
				<line class="st3" x1="1499.5" y1="-241.2" x2="1499.5" y2="-229.2"/>
				<line class="st3" x1="1425.2" y1="-241.9" x2="1425.2" y2="-229.9"/>
				<line class="st3" x1="1427.8" y1="-241.2" x2="1427.8" y2="-230.2"/>
				<line class="st3" x1="1433.8" y1="-241.9" x2="1433.8" y2="-228.6"/>
				<path class="st3" d="M1469.7-327.5c0.4,1.3,1.2,2.4,2.2,3.2"/>
				<path class="st3" d="M1472.8-330.4c1,0.5,2,0.8,3.1,1.1"/>
				<path class="st3" d="M1474.2-335.6c0.9-0.4,1.8-0.9,2.7-1.3"/>
				<path class="st3" d="M1472.2-342.9c-0.1,1.4-0.6,2.8-1.4,4"/>
				<path class="st3" d="M1463.1-343.5c0.5,1.2,1.2,2.3,2.1,3.3"/>
				<path class="st3" d="M1457.8-338.5c1.2,0.5,2.5,1.1,3.7,1.6"/>
				<path class="st3" d="M1460.5-332.9c-1,1-2,2-3,3"/>
				<path class="st3" d="M1462.8-327.9c-0.7,0.9-1.1,1.9-1.2,3.1"/>
				<path class="st3" d="M1466.3-326.2c-0.1,1-0.1,2.1-0.2,3.1c0,0.3,0,0.6,0.3,0.7s0.3-0.5,0.1-0.4"/>
				<path class="st3" d="M1486.8-98.6c0.7,1.6,2,2.8,3.7,3.4"/>
				<path class="st3" d="M1487.5-100.3c1.8,1,3.5,2.1,5.3,3.1"/>
				<path class="st3" d="M1489.8-103.9c1.6,1.6,3.5,2.7,5.6,3.4"/>
				<path class="st3" d="M1491.5-106.5c1.7,1.3,3.6,2.4,5.7,3"/>
				<path class="st3" d="M1446.7-99.3c-1.2,1.4-2.3,2.9-3.2,4.4"/>
				<path class="st3" d="M1445.5-101.3c-1.7,0.8-3.2,2.1-4.3,3.7"/>
				<path class="st3" d="M1443.8-103.6c-1.7,1.3-3.3,2.7-5,4"/>
				<line class="st3" x1="1447.5" y1="-23.6" x2="1485.2" y2="-23.6"/>
				<line class="st3" x1="1447.8" y1="-28.2" x2="1485.2" y2="-28.2"/>
				<line class="st3" x1="1447.5" y1="-30.2" x2="1485.9" y2="-30.2"/>
			</g>
			<g>
				<g>
					<rect x="1513.7" y="-373.8" class="st0" width="10.9" height="45.2"/>
					<rect x="1524.6" y="-364.7" class="st0" width="9.9" height="9.9"/>
					<rect x="1524.6" y="-346.7" class="st0" width="9.9" height="9.9"/>
				</g>
				<g>
					<g>
						<polyline class="st1" points="1513.7,-328.5 1524.6,-328.5 1524.6,-373.8 1513.7,-373.8 						"/>
						<rect x="1524.6" y="-364.7" class="st1" width="9.9" height="9.9"/>
						<rect x="1524.6" y="-346.7" class="st1" width="9.9" height="9.9"/>
					</g>
				</g>
				<path class="st1" d="M1534.6-358.7c17.5,2.4,35.4,2.1,52.8-0.7"/>
				<path class="st1" d="M1612-365.4c1.8-0.6,3.6-1.2,5.4-1.8c23-8.1,44.1-20.9,64.7-34c42.3-26.7,83.8-54.7,127.1-79.9
					c34.3-20,71.4-38.5,110.6-41.3"/>
				<path class="st1" d="M1534.6-339.9c27.8,3.8,56.4,0.9,82.9-8.4c23-8.1,44.1-20.9,64.7-34c42.3-26.7,83.8-54.7,127.1-79.9
					c34.3-20,71.4-38.5,110.5-41.3"/>
				<line class="st1" x1="1517.5" y1="-373.1" x2="1517.5" y2="-329.1"/>
				<line class="st1" x1="1528.5" y1="-363.6" x2="1528.5" y2="-355.1"/>
				<line class="st1" x1="1529" y1="-345.6" x2="1529" y2="-337.5"/>
				<line class="st3" x1="1520.8" y1="-372.9" x2="1520.8" y2="-329.6"/>
				<line class="st1" x1="1513.7" y1="-373.8" x2="1513.7" y2="-328.5"/>
			</g>
		</g>
		<g>
			<g>
				<g>
					<path class="st0" d="M1374.9-485.1c0,10.3,8.4,18.7,18.7,18.7s18.7-8.4,18.7-18.7v-10h-37.4L1374.9-485.1L1374.9-485.1z"/>
					<polygon class="st0" points="1587.4,-571.2 1526,-571.2 1526,-578.9 1508,-578.9 1508,-571.2 1374.9,-571.2 1374.9,-564.9 
						1385.7,-564.9 1385.7,-523.7 1380.9,-523.7 1380.9,-519.6 1378.8,-519.6 1378.8,-503.8 1374.9,-503.8 1374.9,-495.1 
						1412.3,-495.1 1412.3,-503.8 1408.3,-503.8 1408.3,-519.6 1406.3,-519.6 1406.3,-523.7 1401.5,-523.7 1401.5,-564.9 
						1508,-564.9 1508,-544.6 1526,-544.6 1526,-564.9 1587.4,-564.9 					"/>
				</g>
				<line class="st1" x1="1587.4" y1="-571.2" x2="1526" y2="-571.2"/>
				<line class="st1" x1="1508" y1="-571.2" x2="1374.9" y2="-571.2"/>
				<line class="st1" x1="1587.4" y1="-564.9" x2="1526" y2="-564.9"/>
				<line class="st1" x1="1508" y1="-564.9" x2="1374.9" y2="-564.9"/>
				<rect x="1508" y="-578.9" class="st1" width="18" height="34.3"/>
				<g>
					<path class="st1" d="M1374.9-495.1v10c0,10.3,8.4,18.7,18.7,18.7l0,0c10.3,0,18.7-8.4,18.7-18.7v-10"/>
					<rect x="1374.9" y="-503.8" class="st1" width="37.4" height="8.7"/>
					<path class="st1" d="M1390-495.1v14.7c0,2,1.6,3.5,3.5,3.5l0,0c2,0,3.5-1.6,3.5-3.5v-14.7"/>
					<rect x="1378.8" y="-519.6" class="st1" width="29.5" height="15.8"/>
					<rect x="1380.9" y="-523.7" class="st1" width="9.6" height="4.1"/>
					<rect x="1396.7" y="-523.7" class="st1" width="9.6" height="4.1"/>
				</g>
				<line class="st1" x1="1374.9" y1="-571.2" x2="1374.9" y2="-564.9"/>
				<line class="st1" x1="1385.7" y1="-523.7" x2="1385.7" y2="-564.9"/>
				<line class="st1" x1="1401.5" y1="-523.7" x2="1401.5" y2="-564.9"/>
				<line class="st1" x1="1385.7" y1="-558.6" x2="1401.5" y2="-558.6"/>
				<line class="st1" x1="1385.7" y1="-554.6" x2="1401.5" y2="-554.6"/>
				<path class="st1" d="M1382.4-523.7c-1.5-1.2-3-2.4-4.4-3.8c-2.6-2.6-4.5-6.4-3.3-9.8c1.6-4.4,7.2-5.6,11.9-5.8
					c11.4-0.5,22.8,0.9,34.2,1.3c29.8,1.1,59.9-4.7,87.2-16.8"/>
				<path class="st1" d="M1399.1-523.7c-2.7-5.5-1.9-12.9,1.8-18c5.1-6.9,14.1-10,22.7-10.3s17.1,1.9,25.5,3.6
					c19.5,3.9,40.7,4.7,58.8-3"/>
				<path class="st1" d="M1526-557.5c19.1,9.5,40.1,15.1,61.4,16.4"/>
				<path class="st1" d="M1526-552.4c8.3,1.8,15.7,7.3,23.1,11.8c11.5,7,25,12.2,38.3,12.1"/>
				<line class="st1" x1="1379.5" y1="-508.1" x2="1407.5" y2="-508.1"/>
				<line class="st1" x1="1503.5" y1="-571.2" x2="1503.5" y2="-564.9"/>
				<line class="st1" x1="1498.5" y1="-571.1" x2="1498.5" y2="-566.1"/>
				<line class="st1" x1="1532" y1="-571.2" x2="1532" y2="-565.1"/>
				<line class="st1" x1="1509.2" y1="-575.6" x2="1525.1" y2="-575.6"/>
				<line class="st3" x1="1389.8" y1="-554.2" x2="1389.8" y2="-524.5"/>
				<line class="st3" x1="1403.8" y1="-519.6" x2="1403.8" y2="-507.9"/>
				<line class="st3" x1="1400.2" y1="-518.6" x2="1400.2" y2="-507.6"/>
				<line class="st3" x1="1383.5" y1="-518.9" x2="1383.5" y2="-508.5"/>
				<line class="st3" x1="1404.8" y1="-503.2" x2="1404.8" y2="-494.9"/>
				<line class="st3" x1="1400.5" y1="-503.2" x2="1400.5" y2="-495.2"/>
				<line class="st3" x1="1508.2" y1="-571.2" x2="1524.8" y2="-571.2"/>
				<line class="st3" x1="1507.8" y1="-547.2" x2="1525.5" y2="-547.2"/>
				<line class="st3" x1="1583.2" y1="-570.9" x2="1583.2" y2="-565.9"/>
				<line class="st3" x1="1580.2" y1="-570.9" x2="1580.2" y2="-566.2"/>
				<line class="st1" x1="1587.4" y1="-571.2" x2="1587.4" y2="-564.9"/>
			</g>
			<g>
				<polygon class="st0" points="1917.5,-571.2 1811.9,-571.2 1811.9,-578.9 1793.9,-578.9 1793.9,-571.2 1668.9,-571.2 
					1668.9,-578.9 1650.9,-578.9 1650.9,-571.2 1612,-571.2 1612,-564.9 1650.9,-564.9 1650.9,-544.6 1668.9,-544.6 1668.9,-564.9 
					1793.9,-564.9 1793.9,-544.6 1811.9,-544.6 1811.9,-564.9 1917.5,-564.9 				"/>
				<line class="st1" x1="1917.5" y1="-571.2" x2="1811.9" y2="-571.2"/>
				<line class="st1" x1="1793.9" y1="-571.2" x2="1668.9" y2="-571.2"/>
				<line class="st1" x1="1650.9" y1="-571.2" x2="1612" y2="-571.2"/>
				<line class="st1" x1="1917.5" y1="-564.9" x2="1811.9" y2="-564.9"/>
				<line class="st1" x1="1793.9" y1="-564.9" x2="1668.9" y2="-564.9"/>
				<line class="st1" x1="1650.9" y1="-564.9" x2="1612" y2="-564.9"/>
				<rect x="1650.9" y="-578.9" class="st1" width="18" height="34.3"/>
				<rect x="1793.9" y="-578.9" class="st1" width="18" height="34.3"/>
				<path class="st1" d="M1612-541.6c13.8-1.5,27.4-5.3,38.9-12.6"/>
				<path class="st1" d="M1612-535.8c13.4-8.2,24.4-21.2,38.9-26.7"/>
				<path class="st1" d="M1668.9-558.9c38.1,20.5,86.3,21,124.9,1.5"/>
				<path class="st1" d="M1668.9-549.9c8,2.2,15.6,6.8,23.1,10.6c14,7.1,29.5,11.7,45.2,12.3s31.7-3.2,44.9-11.8
					c4-2.6,7.8-5.7,11.8-8.4"/>
				<path class="st1" d="M1811.9-557c18.4,4.9,36.3,11.9,55.1,14.5c17.7,2.4,35.9,0.9,52.8-4.7"/>
				<path class="st1" d="M1811.9-550.5c19.1,5,37.5,12.9,56.9,16.7c17,3.3,36,2.6,50.9-5.3"/>
				<path class="st1" d="M1811.9-548c15.6,13.1,32.5,24.9,51.6,31.7c18,6.4,38.5,7.9,56.3,1.8"/>
				<line class="st1" x1="1645.5" y1="-571.1" x2="1645.5" y2="-564.9"/>
				<line class="st1" x1="1651.5" y1="-574.9" x2="1668.9" y2="-574.9"/>
				<line class="st3" x1="1651.5" y1="-547.9" x2="1668.2" y2="-547.9"/>
				<line class="st3" x1="1651.2" y1="-550.9" x2="1668.8" y2="-550.9"/>
				<line class="st3" x1="1794.8" y1="-574.6" x2="1810.9" y2="-574.6"/>
				<line class="st3" x1="1794.2" y1="-572.2" x2="1811.2" y2="-572.2"/>
				<line class="st3" x1="1794.2" y1="-549.2" x2="1811.9" y2="-549.2"/>
				<line class="st3" x1="1794.5" y1="-558.2" x2="1811.8" y2="-558.2"/>
				<line class="st3" x1="1671.8" y1="-570.2" x2="1671.8" y2="-564.2"/>
				<line class="st3" x1="1674.8" y1="-570.6" x2="1674.8" y2="-564.9"/>
				<line class="st3" x1="1815.5" y1="-570.9" x2="1815.5" y2="-565.5"/>
				<line class="st3" x1="1820.2" y1="-570.9" x2="1820.2" y2="-564.9"/>
				<line class="st3" x1="1615.2" y1="-570.2" x2="1615.2" y2="-565.2"/>
				<line class="st3" x1="1618.5" y1="-570.2" x2="1618.5" y2="-565.2"/>
				<line class="st1" x1="1612" y1="-571.2" x2="1612" y2="-564.9"/>
				<line class="st1" x1="1917.5" y1="-571.2" x2="1917.5" y2="-564.9"/>
			</g>
		</g>
	</g>
	<g id="_x31_7">
		<g>
			<line class="st1" x1="1918.8" y1="997.1" x2="1918.8" y2="1030.2"/>
		</g>
		<g>
			<g>
				<line class="st4" x1="772" y1="1063.6" x2="772" y2="1102.1"/>
			</g>
		</g>
	</g>
</g>
</svg>
