<?xml version="1.0" encoding="utf-8"?>
<!-- Generator: Adobe Illustrator 19.0.0, SVG Export Plug-In . SVG Version: 6.00 Build 0)  -->
<svg version="1.1" id="Слой_1" xmlns="http://www.w3.org/2000/svg" xmlns:xlink="http://www.w3.org/1999/xlink" x="0px" y="0px"
	 viewBox="0 0 1920 3560" style="enable-background:new 0 0 1920 3560;" xml:space="preserve">
<style type="text/css">
	.st0{display:none;fill:none;stroke:#817957;stroke-width:2;stroke-linecap:round;stroke-linejoin:round;stroke-miterlimit:10;}
	.st1{fill:#F4E1A1;}
	.st2{fill:none;stroke:#817957;stroke-width:2;stroke-linecap:round;stroke-linejoin:round;stroke-miterlimit:10;}
	.st3{fill:none;stroke:#817957;stroke-linecap:round;stroke-linejoin:round;stroke-miterlimit:10;}
	.st4{fill:none;}
	.st5{fill:none;stroke:#817957;stroke-width:2.0006;stroke-linecap:round;stroke-linejoin:round;stroke-miterlimit:10;}
	.st6{fill:none;stroke:#817957;stroke-width:2.0066;stroke-linecap:round;stroke-linejoin:round;stroke-miterlimit:10;}
</style>
<g id="_x31_7">
	<g id="XMLID_2_">
		<g id="XMLID_3_">
			<line id="XMLID_4_" class="st0" x1="771.6" y1="2728" x2="771.6" y2="2766.5"/>
		</g>
	</g>
</g>
<g>
	<g>
		<g id="_x30_3">
			<rect id="XMLID_2446_" x="239.6" y="131.5" class="st1" width="1134.1" height="382"/>
			<rect id="XMLID_2445_" x="239.6" y="169" class="st2" width="1134.1" height="378"/>
			<polyline id="XMLID_2444_" class="st2" points="270,189.1 1353.6,189.1 1353.6,485.7 259.7,485.7 259.7,199.4 			"/>
			<rect id="XMLID_2443_" x="1019.3" y="516.6" class="st2" width="177.2" height="30.4"/>
			<rect id="XMLID_2442_" x="416.8" y="516.6" class="st2" width="177.2" height="30.4"/>
			<line id="XMLID_2441_" class="st2" x1="300.2" y1="189.1" x2="300.2" y2="463.7"/>
			<line id="XMLID_2440_" class="st2" x1="340.8" y1="189.1" x2="340.8" y2="463.7"/>
			<line id="XMLID_2439_" class="st2" x1="381.3" y1="189.1" x2="381.3" y2="463.7"/>
			<line id="XMLID_2438_" class="st2" x1="421.9" y1="189.1" x2="421.9" y2="463.7"/>
			<line id="XMLID_2437_" class="st2" x1="462.5" y1="189.1" x2="462.5" y2="463.7"/>
			<line id="XMLID_2436_" class="st2" x1="503" y1="189.1" x2="503" y2="463.7"/>
			<line id="XMLID_2435_" class="st2" x1="543.6" y1="189.1" x2="543.6" y2="463.7"/>
			<line id="XMLID_2434_" class="st2" x1="584.1" y1="189.1" x2="584.1" y2="463.7"/>
			<line id="XMLID_2433_" class="st2" x1="624.7" y1="189.1" x2="624.7" y2="463.7"/>
			<line id="XMLID_2432_" class="st2" x1="665.3" y1="189.1" x2="665.3" y2="463.7"/>
			<line id="XMLID_2431_" class="st2" x1="705.8" y1="189.1" x2="705.8" y2="463.7"/>
			<line id="XMLID_2430_" class="st2" x1="746.4" y1="189.1" x2="746.4" y2="463.7"/>
			<line id="XMLID_2429_" class="st2" x1="787" y1="189.1" x2="787" y2="463.7"/>
			<line id="XMLID_2428_" class="st2" x1="827.5" y1="189.1" x2="827.5" y2="463.7"/>
			<line id="XMLID_2427_" class="st2" x1="868.1" y1="189.1" x2="868.1" y2="463.7"/>
			<line id="XMLID_2426_" class="st2" x1="908.6" y1="189.1" x2="908.6" y2="463.7"/>
			<line id="XMLID_2425_" class="st2" x1="949.2" y1="189.1" x2="949.2" y2="463.7"/>
			<line id="XMLID_2424_" class="st2" x1="989.8" y1="189.1" x2="989.8" y2="463.7"/>
			<line id="XMLID_2423_" class="st2" x1="1030.3" y1="189.1" x2="1030.3" y2="463.7"/>
			<line id="XMLID_2422_" class="st2" x1="1070.9" y1="189.1" x2="1070.9" y2="463.7"/>
			<line id="XMLID_2421_" class="st2" x1="1111.4" y1="189.1" x2="1111.4" y2="463.7"/>
			<line id="XMLID_2420_" class="st2" x1="1152" y1="189.1" x2="1152" y2="463.7"/>
			<line id="XMLID_2419_" class="st2" x1="1192.6" y1="189.1" x2="1192.6" y2="463.7"/>
			<line id="XMLID_2418_" class="st2" x1="1233.1" y1="189.1" x2="1233.1" y2="463.7"/>
			<line id="XMLID_2417_" class="st2" x1="1273.7" y1="189.1" x2="1273.7" y2="463.7"/>
			<line id="XMLID_2416_" class="st2" x1="1314.2" y1="189.1" x2="1314.2" y2="463.7"/>
			<line id="XMLID_2384_" class="st2" x1="259.7" y1="463.7" x2="1353.6" y2="463.7"/>
			<rect id="XMLID_2383_" x="239.6" y="169" class="st2" width="30.4" height="30.4"/>
			<polyline id="XMLID_2382_" class="st2" points="1343.3,189.1 1343.3,169 1373.7,169 1373.7,199.4 1353.6,199.4 			"/>
			<rect id="XMLID_2381_" x="239.6" y="516.6" class="st2" width="30.4" height="30.4"/>
			<rect id="XMLID_2380_" x="1343.3" y="516.6" class="st2" width="30.4" height="30.4"/>
			<path id="XMLID_2379_" class="st3" d="M239.6,181.9c9.1-0.9,17.8-5.4,23.8-12.3"/>
			<path id="XMLID_2378_" class="st3" d="M240.1,192.2c10.6,0,21.1-3.5,29.5-9.8"/>
			<path id="XMLID_2377_" class="st3" d="M1344.1,180.5c4.3-0.8,9.1-1.4,12.7,1.1c6,4.2,5.6,14.7,12.3,17.6"/>
			<path id="XMLID_2376_" class="st3" d="M1344.2,174c7-1.7,14,2,20.9,3.9c3,0.8,6,1.3,9.1,1.5"/>
			<path id="XMLID_2375_" class="st3" d="M1343.7,544.1c9.5-3.1,19.4-4.7,29.4-4.7"/>
			<path id="XMLID_2374_" class="st3" d="M1343.5,539.1c9.7-3.4,19.5-6.2,29.6-8.4"/>
			<path id="XMLID_2373_" class="st3" d="M1343.4,535.4c4.5-1.8,9-3.4,13.6-4.9c2.6-0.9,5.3-1.7,7.5-3.3c1.6-1.1,2.9-2.6,4.1-4
				c1.5-1.7,3.1-3.4,4.6-5.1"/>
			<path id="XMLID_2372_" class="st3" d="M239.6,539.9c8,2.4,16,4.8,24,7.1"/>
			<path id="XMLID_2371_" class="st3" d="M239.5,532.1c10.1,2.9,20.3,5.7,30.5,8.3"/>
			<path id="XMLID_2370_" class="st3" d="M239.6,527.8c10.2,0.3,20.3,0.5,30.5,0.8"/>
			<path id="XMLID_2369_" class="st3" d="M417.8,532.3c26.3-9.7,54.3-14.8,82.3-15.2"/>
			<path id="XMLID_2368_" class="st3" d="M417.1,525.1c9.9-1.9,19.6-4.7,29.1-8.2"/>
			<path id="XMLID_2367_" class="st3" d="M417,539.3c26.6-5,53.2-10,79.8-15c1.7,3.3,5.6,5,9.4,5.1c3.7,0.1,7.4-1.2,10.9-2.3
				c19.2-6.1,39.3-9.4,59.4-9.9"/>
			<path id="XMLID_2366_" class="st3" d="M1019.5,534.1c9.5-7.2,20-13,31.2-17.3"/>
			<path id="XMLID_2365_" class="st3" d="M1019.9,539.4c16.4-7.4,32.8-14.8,49.2-22.2"/>
			<path id="XMLID_2364_" class="st3" d="M1041.8,529.5c24.3-2.7,48.5-6.9,72.3-12.4"/>
			<path id="XMLID_2363_" class="st3" d="M1019.8,543.5c30.2-4.5,59.7-12.8,89.8-17.5c17.6-2.7,35.4-4.3,52.5-9"/>
			<path id="XMLID_2362_" class="st3" d="M1163.4,546.6c6.4-1.3,12.9-2.6,18.9-5.2c4.6-2,9-4.7,13.9-5.7"/>
			<line id="XMLID_2361_" class="st3" x1="345.1" y1="188.8" x2="345.1" y2="463"/>
			<line id="XMLID_2360_" class="st3" x1="430.1" y1="189.8" x2="430.1" y2="463.8"/>
			<path id="XMLID_2359_" class="st3" d="M263.1,199.8c0,0.7,0,1.3,0,2v262.4"/>
			<line id="XMLID_2358_" class="st3" x1="512.1" y1="188.8" x2="512.1" y2="463.1"/>
			<line id="XMLID_2357_" class="st3" x1="592.1" y1="190.8" x2="592.1" y2="461"/>
			<line id="XMLID_2356_" class="st3" x1="670.1" y1="188.8" x2="670.1" y2="465.2"/>
			<line id="XMLID_2355_" class="st3" x1="780.1" y1="187.8" x2="780.1" y2="463.7"/>
			<line id="XMLID_2354_" class="st3" x1="912.1" y1="188.8" x2="912.1" y2="463.7"/>
			<path id="XMLID_2353_" class="st3" d="M1117.1,188.8c0,0.7,0,1.3,0,2V464"/>
			<line id="XMLID_2352_" class="st3" x1="1323.1" y1="188.8" x2="1323.1" y2="463.1"/>
			<line id="XMLID_2351_" class="st3" x1="1347.1" y1="189.8" x2="1347.1" y2="463.7"/>
			<line id="XMLID_2350_" class="st3" x1="270.1" y1="180.8" x2="1343.3" y2="180.8"/>
			<path id="XMLID_2349_" class="st3" d="M260.1,470.8c2,0,4,0,6,0h1087.5"/>
			<line id="XMLID_2348_" class="st3" x1="594" y1="528.8" x2="1019.3" y2="528.8"/>
			<line id="XMLID_2347_" class="st3" x1="1196.5" y1="536.8" x2="1342.5" y2="536.8"/>
			<line id="XMLID_2346_" class="st3" x1="240.1" y1="496.8" x2="1374.1" y2="496.8"/>
		</g>
		<g id="_x30_9">
			<g id="XMLID_1839_">
				<g id="XMLID_1851_">
					<rect id="XMLID_1854_" x="247.7" y="1395.3" class="st1" width="10.9" height="45.7"/>
					<rect id="XMLID_1853_" x="237.8" y="1421.7" class="st1" width="9.9" height="10"/>
					<rect id="XMLID_1852_" x="237.8" y="1403.6" class="st1" width="9.9" height="10"/>
				</g>
				<g id="XMLID_1846_">
					<g id="XMLID_1847_">
						<polyline id="XMLID_1850_" class="st2" points="258.6,1419.7 247.7,1419.7 247.7,1464.9 258.6,1464.9 						"/>
						<rect id="XMLID_1849_" x="237.8" y="1445.9" class="st2" width="9.9" height="9.9"/>
						<rect id="XMLID_1848_" x="237.8" y="1427.9" class="st2" width="9.9" height="9.9"/>
					</g>
				</g>
				<path id="XMLID_1845_" class="st2" d="M-0.6,1224.1c19.2,2.8,37.9,9.1,54.8,18.5"/>
				<path id="XMLID_1844_" class="st2" d="M87.1,1267.3c27.5,27.3,43.7,63.6,64.7,96.1c20.5,31.7,49,62.1,86,68.9"/>
				<path id="XMLID_1843_" class="st2" d="M-0.6,1300.2c26.5,3.9,51.7,18.1,72.6,35.4c27.8,23,50.4,51.6,77.5,75.4
					c24.9,21.9,55.5,38.1,88.2,39.8"/>
				<line id="XMLID_1842_" class="st2" x1="244.4" y1="1428.2" x2="244.4" y2="1436.2"/>
				<line id="XMLID_1841_" class="st2" x1="243.1" y1="1446.5" x2="243.1" y2="1455.5"/>
				<line id="XMLID_1840_" class="st2" x1="258.6" y1="1419.7" x2="258.6" y2="1464.9"/>
			</g>
			<g id="XMLID_1776_">
				<rect id="XMLID_1838_" x="258.6" y="1297.8" class="st1" width="190.8" height="227.1"/>
				<rect id="XMLID_1837_" x="258.6" y="1323.2" class="st2" width="190.8" height="224.7"/>
				<g id="XMLID_1827_">
					<path id="XMLID_1836_" class="st2" d="M330.6,1394.7c8.3,7.8,8.3,20.5,0,28.3s-21.7,7.8-30,0s-8.3-20.5,0-28.3
						C308.8,1386.9,322.3,1386.9,330.6,1394.7z"/>
					<path id="XMLID_1835_" class="st2" d="M333.3,1408.9h-35.5c0-9.3,8-16.8,17.8-16.8S333.3,1399.6,333.3,1408.9z"/>
					<path id="XMLID_1834_" class="st2" d="M332.8,1380.7l-6.4,6.1c-6.8-3-14.8-3-21.6,0l-6.4-6.1l-12.6,11.9l6.4,6.1
						c-3.2,6.5-3.2,14,0,20.4l-6.4,6.1l12.6,11.9l6.4-6.1c6.8,3,14.8,3,21.6,0l6.4,6.1l12.6-11.9l-6.4-6.1c3.2-6.5,3.2-14,0-20.4
						l6.4-6.1L332.8,1380.7z"/>
					<path id="XMLID_1833_" class="st2" d="M297.9,1425.5c0.9,0.8,0.9,2.2,0,3s-2.3,0.8-3.2,0c-0.9-0.8-0.9-2.2,0-3
						C295.7,1424.7,297.1,1424.7,297.9,1425.5z"/>
					<path id="XMLID_1832_" class="st2" d="M297.9,1389.3c0.9,0.8,0.9,2.2,0,3s-2.3,0.8-3.2,0c-0.9-0.8-0.9-2.2,0-3
						C295.7,1388.5,297.1,1388.5,297.9,1389.3z"/>
					<path id="XMLID_1831_" class="st2" d="M336.3,1425.5c0.9,0.8,0.9,2.2,0,3s-2.3,0.8-3.2,0c-0.9-0.8-0.9-2.2,0-3
						C334.1,1424.7,335.5,1424.7,336.3,1425.5z"/>
					<path id="XMLID_1830_" class="st2" d="M336.3,1389.3c0.9,0.8,0.9,2.2,0,3s-2.3,0.8-3.2,0c-0.9-0.8-0.9-2.2,0-3
						C334.1,1388.5,335.5,1388.5,336.3,1389.3z"/>
					<line id="XMLID_1829_" class="st2" x1="315.6" y1="1408.9" x2="312.6" y2="1398.5"/>
					<line id="XMLID_1828_" class="st2" x1="297.8" y1="1408.9" x2="333.3" y2="1408.9"/>
				</g>
				<g id="XMLID_1817_">
					<path id="XMLID_1826_" class="st2" d="M407.6,1394.7c8.3,7.8,8.3,20.5,0,28.3s-21.7,7.8-30,0s-8.3-20.5,0-28.3
						C385.9,1386.9,399.3,1386.9,407.6,1394.7z"/>
					<path id="XMLID_1825_" class="st2" d="M410.4,1408.9h-35.5c0-9.3,8-16.8,17.8-16.8S410.4,1399.6,410.4,1408.9z"/>
					<path id="XMLID_1824_" class="st2" d="M409.9,1380.7l-6.4,6.1c-6.8-3-14.8-3-21.6,0l-6.4-6.1l-12.6,11.9l6.4,6.1
						c-3.2,6.5-3.2,14,0,20.4l-6.4,6.1l12.6,11.9l6.4-6.1c6.8,3,14.8,3,21.6,0l6.4,6.1l12.6-11.9l-6.4-6.1c3.2-6.5,3.2-14,0-20.4
						l6.4-6.1L409.9,1380.7z"/>
					<path id="XMLID_1823_" class="st2" d="M375,1425.5c0.9,0.8,0.9,2.2,0,3s-2.3,0.8-3.2,0c-0.9-0.8-0.9-2.2,0-3
						C372.7,1424.7,374.1,1424.7,375,1425.5z"/>
					<path id="XMLID_1822_" class="st2" d="M375,1389.3c0.9,0.8,0.9,2.2,0,3s-2.3,0.8-3.2,0c-0.9-0.8-0.9-2.2,0-3
						C372.7,1388.5,374.1,1388.5,375,1389.3z"/>
					<path id="XMLID_1821_" class="st2" d="M413.4,1425.5c0.9,0.8,0.9,2.2,0,3s-2.3,0.8-3.2,0c-0.9-0.8-0.9-2.2,0-3
						C411.1,1424.7,412.5,1424.7,413.4,1425.5z"/>
					<path id="XMLID_1820_" class="st2" d="M413.4,1389.3c0.9,0.8,0.9,2.2,0,3s-2.3,0.8-3.2,0c-0.9-0.8-0.9-2.2,0-3
						C411.1,1388.5,412.5,1388.5,413.4,1389.3z"/>
					<line id="XMLID_1819_" class="st2" x1="392.6" y1="1408.9" x2="385.3" y2="1400.5"/>
					<line id="XMLID_1818_" class="st2" x1="374.8" y1="1408.9" x2="410.4" y2="1408.9"/>
				</g>
				<g id="XMLID_1806_">
					<rect id="XMLID_1816_" x="285.7" y="1342.7" class="st2" width="135.8" height="18.2"/>
					<line id="XMLID_1815_" class="st2" x1="413.4" y1="1342.8" x2="413.4" y2="1360.8"/>
					<line id="XMLID_1814_" class="st2" x1="406.8" y1="1344.2" x2="406.8" y2="1359.5"/>
					<line id="XMLID_1813_" class="st2" x1="383.4" y1="1343.5" x2="383.4" y2="1361"/>
					<line id="XMLID_1812_" class="st2" x1="359.4" y1="1342.8" x2="359.4" y2="1360.2"/>
					<line id="XMLID_1811_" class="st2" x1="354.1" y1="1342.8" x2="354.1" y2="1359.5"/>
					<line id="XMLID_1810_" class="st2" x1="342.1" y1="1343.5" x2="342.1" y2="1361"/>
					<line id="XMLID_1809_" class="st2" x1="316.8" y1="1343.5" x2="316.8" y2="1361"/>
					<line id="XMLID_1808_" class="st2" x1="312.8" y1="1342.7" x2="312.8" y2="1361"/>
					<line id="XMLID_1807_" class="st2" x1="294.1" y1="1343.5" x2="294.1" y2="1361"/>
				</g>
				<g id="XMLID_1777_">
					<g id="XMLID_1800_">
						<line id="XMLID_1805_" class="st2" x1="290.8" y1="1456.9" x2="290.8" y2="1472.7"/>
						<line id="XMLID_1804_" class="st2" x1="290.8" y1="1487.3" x2="290.8" y2="1517.8"/>
						<rect id="XMLID_1803_" x="285.8" y="1472.7" class="st2" width="17" height="14.6"/>
						<line id="XMLID_1802_" class="st2" x1="298.6" y1="1472.6" x2="298.6" y2="1487.5"/>
						<line id="XMLID_1801_" class="st2" x1="294.1" y1="1473.1" x2="294.1" y2="1486.7"/>
					</g>
					<g id="XMLID_1795_">
						<line id="XMLID_1799_" class="st2" x1="320.8" y1="1456.9" x2="320.8" y2="1481"/>
						<line id="XMLID_1798_" class="st2" x1="320.8" y1="1495.6" x2="320.8" y2="1517.8"/>
						<rect id="XMLID_1797_" x="315.7" y="1481" class="st2" width="17" height="14.6"/>
						<line id="XMLID_1796_" class="st2" x1="327.9" y1="1481.3" x2="327.9" y2="1495.2"/>
					</g>
					<g id="XMLID_1789_">
						<line id="XMLID_1794_" class="st2" x1="350.7" y1="1456.9" x2="350.7" y2="1488.3"/>
						<line id="XMLID_1793_" class="st2" x1="350.7" y1="1502.9" x2="350.7" y2="1517.8"/>
						<rect id="XMLID_1792_" x="345.6" y="1488.3" class="st2" width="17" height="14.6"/>
						<line id="XMLID_1791_" class="st2" x1="358.1" y1="1488.8" x2="358.1" y2="1502.1"/>
						<line id="XMLID_1790_" class="st2" x1="353.9" y1="1488.8" x2="353.9" y2="1501.6"/>
					</g>
					<g id="XMLID_1783_">
						<line id="XMLID_1788_" class="st2" x1="380.6" y1="1456.9" x2="380.6" y2="1464.7"/>
						<line id="XMLID_1787_" class="st2" x1="380.6" y1="1479.3" x2="380.6" y2="1517.8"/>
						<rect id="XMLID_1786_" x="375.6" y="1464.7" class="st2" width="17" height="14.6"/>
						<line id="XMLID_1785_" class="st2" x1="388.4" y1="1464.8" x2="388.4" y2="1478.4"/>
						<line id="XMLID_1784_" class="st2" x1="382.9" y1="1465.6" x2="382.9" y2="1478.4"/>
					</g>
					<g id="XMLID_1778_">
						<line id="XMLID_1782_" class="st2" x1="410.5" y1="1456.9" x2="410.5" y2="1476.7"/>
						<line id="XMLID_1781_" class="st2" x1="410.5" y1="1491.3" x2="410.5" y2="1517.8"/>
						<rect id="XMLID_1780_" x="405.5" y="1476.7" class="st2" width="17" height="14.6"/>
						<line id="XMLID_1779_" class="st2" x1="414.9" y1="1477.1" x2="414.9" y2="1490.4"/>
					</g>
				</g>
			</g>
		</g>
		<g id="_x31_1">
			<line id="XMLID_32_" class="st4" x1="0.4" y1="928" x2="0.4" y2="920.5"/>
			<line id="XMLID_31_" class="st4" x1="1920.4" y1="920.5" x2="1920.4" y2="928"/>
			<rect id="XMLID_1766_" x="0.4" y="949.8" class="st2" width="1920" height="7.4"/>
		</g>
		<g id="_x31_2">
			<g id="XMLID_1727_">
				<path id="XMLID_1765_" class="st1" d="M1378.7,928v8.7h34.9v7.1h3.9v16.1l0,0V981l0,0v3.5h-3.4h-20.9H1361h-33.6h-79.5h-8.8
					v-10.2h-44.9v10.2h-8.8h-97.9h-20.9h-3.4V981l0,0v-21.1l0,0v-16.1h3.9v-7.1h17V928h-59.7v8.7h10.2v7.1h3.9v16.1V981v3.5l0,0
					c0,13.8,11,24.9,24.7,24.9h3.4h20.9h97.9h8.8v10.2h44.9v-10.2h8.8h145.3h20.9h3.4l0,0c13.6,0,24.7-11.2,24.7-24.9l0,0V981v-21.1
					v-16.1h3.9v-7.1h41.1V928H1378.7z"/>
				<rect id="XMLID_1764_" x="1378.7" y="957.2" class="st2" width="108.4" height="8.6"/>
				<rect id="XMLID_1763_" x="1024.3" y="957.2" class="st2" width="59.7" height="8.6"/>
				<g id="XMLID_1754_">
					<path id="XMLID_1762_" class="st2" d="M1063.1,1013.1v-40.3h-24.7v40.3l0,0c0,13.6,11,24.7,24.7,24.7l0,0h131v-24.7
						L1063.1,1013.1L1063.1,1013.1z"/>
					<g id="XMLID_1759_">
						<rect id="XMLID_1761_" x="1066.6" y="1013.1" class="st2" width="20.9" height="24.7"/>
						<line id="XMLID_1760_" class="st2" x1="1080.4" y1="1013.1" x2="1080.4" y2="1037.8"/>
					</g>
					<g id="XMLID_1756_">
						<rect id="XMLID_1758_" x="1038.5" y="948.5" class="st2" width="24.7" height="61.2"/>
						<line id="XMLID_1757_" class="st2" x1="1038.5" y1="995.8" x2="1063.1" y2="995.8"/>
					</g>
					<rect id="XMLID_1755_" x="1034.6" y="965.8" class="st2" width="32.5" height="7"/>
				</g>
				<g id="XMLID_1745_">
					<path id="XMLID_1753_" class="st2" d="M1417.5,1013.1v-40.3h24.7v40.3l0,0c0,13.6-11,24.7-24.7,24.7l0,0h-178.4v-24.7
						L1417.5,1013.1L1417.5,1013.1z"/>
					<g id="XMLID_1750_">
						<rect id="XMLID_1752_" x="1393.2" y="1013.1" class="st2" width="20.9" height="24.7"/>
						<line id="XMLID_1751_" class="st2" x1="1400.2" y1="1013.1" x2="1400.2" y2="1037.8"/>
					</g>
					<g id="XMLID_1747_">
						<rect id="XMLID_1749_" x="1417.5" y="988.8" class="st2" width="24.7" height="20.9"/>
						<line id="XMLID_1748_" class="st2" x1="1442.2" y1="995.8" x2="1417.5" y2="995.8"/>
					</g>
					<rect id="XMLID_1746_" x="1413.6" y="965.8" class="st2" width="32.5" height="7"/>
				</g>
				<g id="XMLID_1740_">
					<rect id="XMLID_1744_" x="1194.2" y="1003" class="st2" width="44.9" height="44.9"/>
					<g id="XMLID_1741_">
						<circle id="XMLID_1743_" class="st2" cx="1216.6" cy="1025.5" r="10.8"/>
						<circle id="XMLID_1742_" class="st2" cx="1216.6" cy="1025.5" r="6.9"/>
					</g>
				</g>
				<rect id="XMLID_1739_" x="1185.3" y="1013.1" class="st2" width="8.8" height="24.7"/>
				<rect id="XMLID_1738_" x="1239.1" y="1013.1" class="st2" width="8.8" height="24.7"/>
				<rect id="XMLID_1737_" x="1327.4" y="1013.1" class="st2" width="33.6" height="12.3"/>
				<path id="XMLID_1736_" class="st3" d="M1441.9,965.8c-0.4,2.5-0.8,4.9-1.1,7.4"/>
				<path id="XMLID_1735_" class="st3" d="M1438.7,966.5c0.1,2.2,0.2,4.3,0.2,6.5"/>
				<path id="XMLID_1734_" class="st3" d="M1436.2,966.4c-0.1,2.2-0.1,4.3,0.1,6.5"/>
				<path id="XMLID_1733_" class="st3" d="M1241.2,1013.6c0,7.7,0.1,15.3,0.3,23"/>
				<path id="XMLID_1732_" class="st3" d="M1191.6,1013.5c-0.5,7.8-0.8,15.6-0.9,23.5"/>
				<path id="XMLID_1731_" class="st3" d="M1062.6,966.4c-0.2,2.4-0.6,4.7-1.2,7"/>
				<path id="XMLID_1730_" class="st3" d="M1060.1,966.5c0,2.2-0.2,4.5-0.4,6.7"/>
				<path id="XMLID_1729_" class="st3" d="M1057,966.7c0,1.9,0,3.9,0,5.8"/>
				<path id="XMLID_1728_" class="st3" d="M1040.7,966.5c0.1,2.2,0.1,4.3,0.1,6.5"/>
			</g>
			<g id="XMLID_1708_">
				<path id="XMLID_30_" class="st1" d="M981.4,943.8h3.9v16.1l0,0V981l0,0v3.5h-3.4H961H626.2h-8.8h-8.8v24.9h3.2l0,0l0,0h5.6h8.8
					h40.2h37.9H961h20.9h3.4c13.6,0,24.7-11.2,24.7-24.9V981v-21.1v-16.1h3.9v-7.1h10.4V928"/>
				<rect id="XMLID_1725_" x="964.6" y="957.2" class="st2" width="59.7" height="8.6"/>
				<path id="XMLID_1724_" class="st2" d="M608.6,1013.1h376.8v-40.3h24.7v40.3c0,13.6-11,24.7-24.7,24.7H608.6"/>
				<g id="XMLID_1721_">
					<rect id="XMLID_1723_" x="961" y="1013.1" class="st2" width="20.9" height="24.7"/>
					<line id="XMLID_1722_" class="st2" x1="968" y1="1013.1" x2="968" y2="1037.8"/>
				</g>
				<g id="XMLID_1718_">
					<rect id="XMLID_1720_" x="985.3" y="949.4" class="st2" width="24.7" height="60.3"/>
					<line id="XMLID_1719_" class="st2" x1="1010" y1="995.8" x2="985.3" y2="995.8"/>
				</g>
				<rect id="XMLID_1717_" x="981.4" y="965.8" class="st2" width="32.5" height="7"/>
				<rect id="XMLID_1716_" x="608.6" y="1013.1" class="st2" width="8.8" height="24.7"/>
				<rect id="XMLID_1715_" x="617.4" y="1013.1" class="st2" width="8.8" height="24.7"/>
				<rect id="XMLID_1714_" x="666.4" y="1025.5" class="st2" width="37.9" height="12.3"/>
				<path id="XMLID_1713_" class="st3" d="M1010.1,966.7c-0.1,2.3-0.2,4.7-0.3,7c0-0.1,0-0.1,0-0.2"/>
				<path id="XMLID_1712_" class="st3" d="M1007,966.4c0.1,2.2,0.2,4.3,0.3,6.5"/>
				<path id="XMLID_1711_" class="st3" d="M1005,965.9c-0.3,2.4-0.2,4.8,0.3,7.2"/>
				<path id="XMLID_1710_" class="st3" d="M986.8,966.9c-0.3,2.2-0.6,4.3-0.9,6.5"/>
				<path id="XMLID_1709_" class="st3" d="M611,1013.5c0.1,5.7,0.1,11.5,0.2,17.2c0,2.4,0,4.8,0.6,7.2c0.1-0.2,0.2-0.5,0.1-0.7"/>
			</g>
			<g id="XMLID_1698_">
				<rect id="XMLID_1707_" x="380.9" y="984.5" class="st1" width="182.7" height="24.9"/>
				<line id="XMLID_1706_" class="st2" x1="380.9" y1="1013.1" x2="563.6" y2="1013.1"/>
				<line id="XMLID_1705_" class="st2" x1="563.6" y1="1037.8" x2="380.9" y2="1037.8"/>
				<rect id="XMLID_1704_" x="554.8" y="1013.1" class="st2" width="8.8" height="24.7"/>
				<line id="XMLID_1703_" class="st2" x1="385.1" y1="1013.3" x2="385.1" y2="1037.8"/>
				<line id="XMLID_1702_" class="st2" x1="392.1" y1="1013.1" x2="392.1" y2="1037.3"/>
				<line id="XMLID_1701_" class="st2" x1="397.1" y1="1013.8" x2="397.1" y2="1036.8"/>
				<path id="XMLID_1700_" class="st3" d="M561.1,1013.3c-0.3,7.9-0.6,15.8-0.9,23.7c0,0.1,0,0.3,0.1,0.4s0.3-0.1,0.2-0.2"/>
				<line id="XMLID_1699_" class="st2" x1="380.9" y1="1013.1" x2="380.9" y2="1037.8"/>
			</g>
			<g id="XMLID_1690_">
				<rect id="XMLID_1697_" x="-0.6" y="984.5" class="st1" width="336.6" height="24.9"/>
				<line id="XMLID_1696_" class="st2" x1="-0.6" y1="1013.1" x2="336" y2="1013.1"/>
				<line id="XMLID_1695_" class="st2" x1="336" y1="1037.8" x2="-0.6" y2="1037.8"/>
				<line id="XMLID_1694_" class="st2" x1="331.1" y1="1013.1" x2="331.1" y2="1037.8"/>
				<line id="XMLID_1693_" class="st2" x1="321.1" y1="1013.8" x2="321.1" y2="1036.8"/>
				<line id="XMLID_1692_" class="st2" x1="336" y1="1013.1" x2="336" y2="1037.8"/>
				<line id="XMLID_1691_" class="st2" x1="-0.6" y1="1013.1" x2="-0.6" y2="1037.8"/>
			</g>
			<g id="XMLID_1670_">
				<polygon id="XMLID_1689_" class="st1" points="336,974.2 336,1019.6 342.2,1019.6 342.2,1026.7 346.6,1026.7 346.6,1206.2 
					370.8,1206.2 370.8,1026.7 374.7,1026.7 374.7,1019.6 380.9,1019.6 380.9,974.2 				"/>
				<g id="XMLID_1684_">
					<rect id="XMLID_1688_" x="336" y="1003" class="st2" width="44.9" height="44.9"/>
					<g id="XMLID_1685_">
						<circle id="XMLID_1687_" class="st2" cx="358.4" cy="1025.5" r="10.8"/>
						<circle id="XMLID_1686_" class="st2" cx="358.4" cy="1025.5" r="6.9"/>
					</g>
				</g>
				<g id="XMLID_1675_">
					<g id="XMLID_1678_">
						<g id="XMLID_1682_">
							<line id="XMLID_1683_" class="st2" x1="346.1" y1="1077.9" x2="370.8" y2="1077.9"/>
						</g>
						<rect id="XMLID_1681_" x="342.2" y="1047.9" class="st2" width="32.5" height="7"/>
						<line id="XMLID_1680_" class="st2" x1="346.1" y1="1232.5" x2="346.1" y2="1055"/>
						<line id="XMLID_1679_" class="st2" x1="370.8" y1="1232.5" x2="370.8" y2="1055"/>
					</g>
					<line id="XMLID_1677_" class="st2" x1="365.3" y1="1055" x2="365.3" y2="1077.9"/>
					<line id="XMLID_1676_" class="st2" x1="346.1" y1="1232.5" x2="370.8" y2="1232.5"/>
				</g>
				<line id="XMLID_1674_" class="st2" x1="346.1" y1="1224.8" x2="369.6" y2="1224.8"/>
				<line id="XMLID_1673_" class="st2" x1="346.6" y1="1219.3" x2="370.7" y2="1219.3"/>
				<line id="XMLID_1672_" class="st2" x1="346.1" y1="1082.3" x2="370.6" y2="1082.3"/>
				<line id="XMLID_1671_" class="st2" x1="355.1" y1="1082.3" x2="355.1" y2="1217.8"/>
			</g>
			<g id="XMLID_1647_">
				<polygon id="XMLID_1669_" class="st1" points="380.9,1251.6 380.9,1241.3 389.7,1241.3 389.7,1216.4 380.9,1216.4 380.9,1206.2 
					336,1206.2 336,1216.4 -0.6,1216.4 -0.6,1241.3 318.3,1241.3 327.1,1241.3 336,1241.3 336,1251.6 346.1,1251.6 346.1,1282 
					342.2,1282 342.2,1289.1 331.6,1289.1 331.6,1297.8 385.3,1297.8 385.3,1289.1 374.7,1289.1 374.7,1282 370.7,1282 
					370.7,1251.6 				"/>
				<rect id="XMLID_1668_" x="331.6" y="1314.6" class="st2" width="53.8" height="8.6"/>
				<g id="XMLID_1663_">
					<rect id="XMLID_1667_" x="336" y="1232.5" class="st2" width="44.9" height="44.9"/>
					<g id="XMLID_1664_">
						<circle id="XMLID_1666_" class="st2" cx="358.4" cy="1255" r="10.8"/>
						<circle id="XMLID_1665_" class="st2" cx="358.4" cy="1255" r="6.9"/>
					</g>
				</g>
				<rect id="XMLID_1662_" x="327.1" y="1242.7" class="st2" width="8.8" height="24.7"/>
				<rect id="XMLID_1661_" x="318.3" y="1242.7" class="st2" width="8.8" height="24.7"/>
				<rect id="XMLID_1660_" x="380.9" y="1242.7" class="st2" width="8.8" height="24.7"/>
				<g id="XMLID_1654_">
					<g id="XMLID_1658_">
						<line id="XMLID_1659_" class="st2" x1="370.8" y1="1284.6" x2="346.1" y2="1284.6"/>
					</g>
					<rect id="XMLID_1657_" x="342.2" y="1307.6" class="st2" width="32.5" height="7"/>
					<line id="XMLID_1656_" class="st2" x1="370.8" y1="1277.5" x2="370.8" y2="1307.6"/>
					<line id="XMLID_1655_" class="st2" x1="346.1" y1="1277.5" x2="346.1" y2="1307.6"/>
				</g>
				<line id="XMLID_1653_" class="st2" x1="351.6" y1="1307.6" x2="351.6" y2="1284.6"/>
				<line id="XMLID_1652_" class="st2" x1="318.3" y1="1261.2" x2="-0.6" y2="1261.2"/>
				<g id="XMLID_1649_">
					<line id="XMLID_1651_" class="st2" x1="-0.6" y1="1242.7" x2="318.3" y2="1242.7"/>
					<line id="XMLID_1650_" class="st2" x1="318.3" y1="1267.3" x2="-0.6" y2="1267.3"/>
				</g>
				<line id="XMLID_1648_" class="st2" x1="-0.6" y1="1242.7" x2="-0.6" y2="1267.3"/>
			</g>
			<g id="XMLID_1598_">
				<g id="XMLID_1643_">
					<ellipse id="XMLID_1646_" class="st1" cx="505" cy="1144.1" rx="41.8" ry="42.2"/>
					<polygon id="XMLID_1645_" class="st1" points="602.4,1235 602.4,1241.8 592.5,1241.8 592.5,1251.8 602.4,1251.8 602.4,1259.6 
						592.5,1259.6 592.5,1269.7 602.4,1269.7 602.4,1280.4 647.4,1280.4 647.4,1235 					"/>
					<polygon id="XMLID_1644_" class="st1" points="602.3,943.8 602.3,936.7 613,936.7 613,928 559.2,928 559.2,936.7 569.9,936.7 
						569.9,943.8 573.8,943.8 573.8,974.2 563.6,974.2 563.6,1019.6 569.3,1019.6 569.3,1029.7 579.2,1029.7 579.2,1019.6 
						587,1019.6 587,1029.7 596.9,1029.7 596.9,1019.6 608.6,1019.6 608.6,974.2 598.4,974.2 598.4,943.8 					"/>
				</g>
				<rect id="XMLID_1642_" x="559.2" y="957.2" class="st2" width="53.8" height="8.6"/>
				<g id="XMLID_1637_">
					<rect id="XMLID_1641_" x="563.6" y="1003" class="st2" width="44.9" height="44.9"/>
					<g id="XMLID_1638_">
						<circle id="XMLID_1640_" class="st2" cx="586.1" cy="1025.5" r="10.8"/>
						<circle id="XMLID_1639_" class="st2" cx="586.1" cy="1025.5" r="6.9"/>
					</g>
				</g>
				<g id="XMLID_1631_">
					<g id="XMLID_1635_">
						<line id="XMLID_1636_" class="st2" x1="573.8" y1="995.8" x2="598.4" y2="995.8"/>
					</g>
					<rect id="XMLID_1634_" x="569.9" y="965.8" class="st2" width="32.5" height="7"/>
					<line id="XMLID_1633_" class="st2" x1="573.8" y1="1003" x2="573.8" y2="972.9"/>
					<line id="XMLID_1632_" class="st2" x1="598.4" y1="1003" x2="598.4" y2="972.9"/>
				</g>
				<g id="XMLID_1623_">
					<g id="XMLID_1626_">
						<rect id="XMLID_1630_" x="602.4" y="1261.1" class="st2" width="44.9" height="44.9"/>
						<g id="XMLID_1627_">
							<circle id="XMLID_1629_" class="st2" cx="624.9" cy="1283.6" r="10.8"/>
							<circle id="XMLID_1628_" class="st2" cx="624.9" cy="1283.6" r="6.9"/>
						</g>
					</g>
					<rect id="XMLID_1625_" x="592.5" y="1267.8" class="st2" width="9.9" height="9.9"/>
					<rect id="XMLID_1624_" x="592.5" y="1285.4" class="st2" width="9.9" height="9.9"/>
				</g>
				<line id="XMLID_1622_" class="st2" x1="592.9" y1="972.9" x2="592.9" y2="995.8"/>
				<circle id="XMLID_1621_" class="st2" cx="505" cy="1171.2" r="27.9"/>
				<circle id="XMLID_1620_" class="st2" cx="505" cy="1171.2" r="41.8"/>
				<g id="XMLID_1617_">
					<rect id="XMLID_1619_" x="569.3" y="1047.9" class="st2" width="9.9" height="9.9"/>
					<rect id="XMLID_1618_" x="587" y="1047.9" class="st2" width="9.9" height="9.9"/>
				</g>
				<path id="XMLID_1616_" class="st2" d="M574.2,1057.9c0.4,17.1-1.1,34.5-6.7,50.7c-6.8,19.8-20.3,37.8-40.1,46"/>
				<path id="XMLID_1615_" class="st2" d="M517.1,1211.1c5.1,15.8,14.9,30.1,27.8,40.5c13.5,10.9,30.4,19.5,47.7,20.7"/>
				<path id="XMLID_1614_" class="st2" d="M592.1,1057.9c2.2,46.7,1.9,94.8-15.3,138.3c-9.7,24.5-24.8,47.3-29.6,73.2
					c-1.3,7-1.5,15,3.2,20.3c6.3,7,17.4,5.6,26.7,3.6c5.1-1.1,10.3-2.2,15.4-3.4"/>
				<path id="XMLID_1613_" class="st2" d="M389.7,1248c38.8-1.4,76.2-25.7,92-61.5"/>
				<path id="XMLID_1612_" class="st2" d="M389.7,1255.5c18.4-3.1,36.7-6.9,53.3-15.6c15.3-8.1,29.1-19.7,38.1-34.4"/>
				<path id="XMLID_1611_" class="st2" d="M389.7,1262.9c25.3-3.3,50.6-9.4,72.1-22.9c22-13.8,39.6-36.3,42.7-62"/>
				<g id="XMLID_1607_">
					<g id="XMLID_1608_">
						<circle id="XMLID_1610_" class="st2" cx="505" cy="1171.2" r="10.8"/>
						<circle id="XMLID_1609_" class="st2" cx="505" cy="1171.2" r="6.9"/>
					</g>
				</g>
				<line id="XMLID_1606_" class="st2" x1="641.4" y1="1261.5" x2="641.4" y2="1306.2"/>
				<path id="XMLID_1605_" class="st3" d="M595.8,996.5c0,1.8,0,3.7,0,5.5"/>
				<path id="XMLID_1604_" class="st3" d="M591.2,996c0.3,2.5,0.5,4.9,0.8,7.4"/>
				<path id="XMLID_1603_" class="st3" d="M597.9,965.8c0,2.2-0.3,4.5-0.9,6.7"/>
				<path id="XMLID_1602_" class="st3" d="M594.1,966.4c0.4,2.2,0.5,4.5,0.5,6.7"/>
				<path id="XMLID_1601_" class="st3" d="M575.8,966.3c0.6,2.4,1,4.8,1.3,7.2"/>
				<path id="XMLID_1600_" class="st3" d="M608.6,958.1c0.1,2.5,0,5-0.4,7.5"/>
				<path id="XMLID_1599_" class="st3" d="M605,957.6c0.2,2.6,0.4,5.3,0.7,7.9"/>
			</g>
			<g id="XMLID_1575_">
				<polygon id="XMLID_1597_" class="st1" points="635.7,1342.4 618.1,1373.8 618.1,1397.8 463.1,1397.8 463.1,1342.4 449.4,1342.4 
					449.4,1480.3 463.1,1480.3 463.1,1424.9 618.1,1424.9 618.1,1448.9 635.7,1480.3 647.4,1480.3 647.4,1342.4 				"/>
				<rect id="XMLID_1596_" x="635.7" y="1367.4" class="st2" width="11.7" height="136.4"/>
				<rect id="XMLID_1595_" x="618.1" y="1398.5" class="st2" width="17.7" height="74.3"/>
				<g id="XMLID_1584_">
					<rect id="XMLID_1594_" x="463.1" y="1422.2" class="st2" width="155" height="26.7"/>
					<line id="XMLID_1593_" class="st2" x1="618.1" y1="1435.6" x2="604.7" y2="1449"/>
					<line id="XMLID_1592_" class="st2" x1="611.2" y1="1422.2" x2="584.5" y2="1449"/>
					<line id="XMLID_1591_" class="st2" x1="591" y1="1422.2" x2="564.2" y2="1449"/>
					<line id="XMLID_1590_" class="st2" x1="570.8" y1="1422.2" x2="544" y2="1449"/>
					<line id="XMLID_1589_" class="st2" x1="550.5" y1="1422.2" x2="523.8" y2="1449"/>
					<line id="XMLID_1588_" class="st2" x1="530.3" y1="1422.2" x2="503.6" y2="1449"/>
					<line id="XMLID_1587_" class="st2" x1="510.1" y1="1422.2" x2="483.3" y2="1449"/>
					<line id="XMLID_1586_" class="st2" x1="489.9" y1="1422.2" x2="463.1" y2="1449"/>
					<line id="XMLID_1585_" class="st2" x1="469.6" y1="1422.2" x2="463.1" y2="1428.8"/>
				</g>
				<circle id="XMLID_1583_" class="st2" cx="626.9" cy="1435.6" r="3"/>
				<circle id="XMLID_1582_" class="st2" cx="626.9" cy="1414.4" r="3"/>
				<circle id="XMLID_1581_" class="st2" cx="626.9" cy="1456.9" r="3"/>
				<line id="XMLID_1580_" class="st2" x1="618.1" y1="1398.5" x2="635.7" y2="1367.4"/>
				<line id="XMLID_1579_" class="st2" x1="618.1" y1="1472.7" x2="635.7" y2="1503.8"/>
				<rect id="XMLID_1578_" x="449.4" y="1367.4" class="st2" width="13.7" height="136.4"/>
				<line id="XMLID_1577_" class="st2" x1="454.1" y1="1367.3" x2="454.1" y2="1503.8"/>
				<line id="XMLID_1576_" class="st2" x1="642.1" y1="1369.3" x2="642.1" y2="1504.3"/>
			</g>
			<g id="XMLID_1525_">
				<g id="XMLID_1547_">
					<path id="XMLID_2390_" class="st2" d="M647.4,1219.8"/>
					<path id="XMLID_2388_" class="st2" d="M659.4,1231.8"/>
					<path id="XMLID_2387_" class="st2" d="M1259.4,1231.8"/>
				</g>
			</g>
		</g>
		<g id="_x31_6">
			<g id="XMLID_868_">
				<path id="XMLID_907_" class="st1" d="M370.4,513.5l32.9,12.4c0,0,92.4,34.8,206.4,34.8c87.1,0,161.7-20.3,192-29.9v-12.4
					c-30.3,9.6-104.8,29.9-192,29.9c-114,0-206.4-34.8-206.4-34.8H370.4z"/>
				<line id="XMLID_906_" class="st2" x1="801.7" y1="547" x2="337.1" y2="547"/>
				<path id="XMLID_905_" class="st2" d="M354.3,547c0,41.6,46.1,75.3,102.9,75.3S560,547,560,547"/>
				<path id="XMLID_904_" class="st2" d="M499.4,547c0,8.7,1.2,17.1,3.5,25"/>
				<path id="XMLID_901_" class="st2" d="M669,547c0,10.8,1.7,21.2,4.7,31"/>
				<path id="XMLID_29_" class="st2" d="M678.2,589.8"/>
				<path id="XMLID_899_" class="st2" d="M801.7,551.9c-30.3,9.5-104.8,29.6-192,29.6c-114,0-206.4-34.4-206.4-34.4"/>
				<path id="XMLID_898_" class="st2" d="M801.7,564.1c-30.3,9.5-104.8,29.6-192,29.6c-114,0-206.4-34.4-206.4-34.4L370.4,547"/>
				<path id="XMLID_28_" class="st2" d="M698,547c3.7,29.1,9.9,59.2,36,82.2c24.8,21.9,65.9,34,106.5,33.9"/>
				<path id="XMLID_896_" class="st2" d="M689,547c0,9.7,1.3,19.3,3.7,28.7"/>
				<path id="XMLID_27_" class="st2" d="M696.6,587.5c0.3,0.6,0.8,1.2,1.1,1.7c6.5,10.4,16.4,20.7,31.9,25.8
					c6.7,2.2,14,3.3,21.4,3.9c18,1.5,36.4,0.3,53.5-3.7c10.9-2.5,21.1-6.1,31.8-8.5"/>
				<path id="XMLID_894_" class="st2" d="M396.9,556.9c7.1,14,18.1,26.2,31.2,35.1c19.1,13,42.4,19.3,65.5,20.3
					c26.8,1.1,54.4-5,76.5-19.9"/>
				<path id="XMLID_893_" class="st2" d="M584.2,580.9c13-12.3,24.1-26.7,41.8-33.8"/>
				<path id="XMLID_879_" class="st3" d="M796.3,554c0.9,3.4,1.8,6.7,2.7,10.1c0,0.1,0.1,0.3,0.2,0.3s0.1-0.2,0-0.2"/>
				<path id="XMLID_878_" class="st3" d="M793.3,555c0.9,3.6,2.2,7,3.8,10.3"/>
				<path id="XMLID_877_" class="st3" d="M791.1,555.7c0.2,3.9,0.8,7.8,1.6,11.7"/>
				<path id="XMLID_876_" class="st3" d="M787.7,556.4c0.7,3.4,1.5,6.8,2.5,10.1"/>
				<line id="XMLID_869_" class="st2" x1="801.7" y1="551.9" x2="801.7" y2="564.1"/>
			</g>
			<g id="XMLID_759_">
				<g id="XMLID_865_">
					<path id="XMLID_867_" class="st1" d="M801,920.5H-0.6C266.1,920.5,534.1,920.5,801,920.5z"/>
					<path id="XMLID_26_" class="st1" d="M845.9,862.5L845.9,862.5V855H654.7v7.5h-52.2V855h-191v7.5H360V855H168.8v7.5H-0.5V875
						c-0.1,0-0.1-0.1-0.2-0.1l0.2,13.4l-0.2,11.6c0.1,0,0.1-0.1,0.2-0.1v9.2h935.4"/>
				</g>
				<rect id="XMLID_864_" x="150.3" y="885" class="st2" width="170.2" height="7.4"/>
				<rect id="XMLID_863_" x="366.5" y="885" class="st2" width="170.2" height="7.4"/>
				<rect id="XMLID_862_" x="583.2" y="885" class="st2" width="170.2" height="7.4"/>
				<g id="XMLID_763_">
					<line id="XMLID_861_" class="st2" x1="-0.6" y1="892.5" x2="832.8" y2="892.5"/>
					<line id="XMLID_860_" class="st2" x1="832.8" y1="938.5" x2="-0.6" y2="938.5"/>
					<line id="XMLID_859_" class="st2" x1="-0.6" y1="895.2" x2="832.8" y2="895.2"/>
					<line id="XMLID_858_" class="st2" x1="832.8" y1="935.8" x2="-0.6" y2="935.8"/>
					<g id="XMLID_853_">
						<circle id="XMLID_857_" class="st2" cx="118.7" cy="915.5" r="15.9"/>
						<path id="XMLID_856_" class="st2" d="M118.7,928.6c-7.2,0-13.1-5.9-13.1-13.1s5.9-13.1,13.1-13.1s13.1,5.9,13.1,13.1
							S125.9,928.6,118.7,928.6z"/>
						<circle id="XMLID_855_" class="st2" cx="118.7" cy="915.5" r="5.8"/>
						<line id="XMLID_854_" class="st2" x1="118.7" y1="921.3" x2="118.7" y2="931.3"/>
					</g>
					<g id="XMLID_851_">
						<circle id="XMLID_852_" class="st2" cx="150.4" cy="915.5" r="5.8"/>
					</g>
					<g id="XMLID_846_">
						<circle id="XMLID_850_" class="st2" cx="182.1" cy="915.5" r="15.9"/>
						<path id="XMLID_849_" class="st2" d="M182.1,928.6c-7.2,0-13.1-5.9-13.1-13.1s5.9-13.1,13.1-13.1s13.1,5.9,13.1,13.1
							S189.4,928.6,182.1,928.6z"/>
						<circle id="XMLID_848_" class="st2" cx="182.1" cy="915.5" r="5.8"/>
						<line id="XMLID_847_" class="st2" x1="182.1" y1="921.3" x2="182.1" y2="931.3"/>
					</g>
					<g id="XMLID_844_">
						<circle id="XMLID_845_" class="st2" cx="213.8" cy="915.5" r="5.8"/>
					</g>
					<g id="XMLID_839_">
						<circle id="XMLID_843_" class="st2" cx="245.5" cy="915.5" r="15.9"/>
						<path id="XMLID_842_" class="st2" d="M245.5,928.6c-7.2,0-13.1-5.9-13.1-13.1s5.9-13.1,13.1-13.1s13.1,5.9,13.1,13.1
							S252.8,928.6,245.5,928.6z"/>
						<circle id="XMLID_841_" class="st2" cx="245.5" cy="915.5" r="5.8"/>
						<line id="XMLID_840_" class="st2" x1="245.5" y1="921.3" x2="245.5" y2="931.3"/>
					</g>
					<g id="XMLID_836_">
						<path id="XMLID_838_" class="st2" d="M-0.2,901.7c4.8,2.7,8,7.9,8,13.8c0,6-3.4,11.3-8.4,14"/>
						<path id="XMLID_837_" class="st2" d="M-0.6,904.7C2.8,907.1,5,911,5,915.5c0,4.3-2.1,8.2-5.4,10.6"/>
					</g>
					<g id="XMLID_834_">
						<circle id="XMLID_835_" class="st2" cx="23.6" cy="915.5" r="5.8"/>
					</g>
					<g id="XMLID_829_">
						<circle id="XMLID_833_" class="st2" cx="55.3" cy="915.5" r="15.9"/>
						<path id="XMLID_832_" class="st2" d="M55.3,928.6c-7.2,0-13.1-5.9-13.1-13.1s5.9-13.1,13.1-13.1s13.1,5.9,13.1,13.1
							S62.5,928.6,55.3,928.6z"/>
						<circle id="XMLID_831_" class="st2" cx="55.3" cy="915.5" r="5.8"/>
						<line id="XMLID_830_" class="st2" x1="55.3" y1="921.3" x2="55.3" y2="931.3"/>
					</g>
					<g id="XMLID_827_">
						<circle id="XMLID_828_" class="st2" cx="87" cy="915.5" r="5.8"/>
					</g>
					<g id="XMLID_825_">
						<circle id="XMLID_826_" class="st2" cx="277.2" cy="915.5" r="5.8"/>
					</g>
					<g id="XMLID_820_">
						<circle id="XMLID_824_" class="st2" cx="308.9" cy="915.5" r="15.9"/>
						<path id="XMLID_823_" class="st2" d="M308.9,928.6c-7.2,0-13.1-5.9-13.1-13.1s5.9-13.1,13.1-13.1s13.1,5.9,13.1,13.1
							S316.2,928.6,308.9,928.6z"/>
						<circle id="XMLID_822_" class="st2" cx="308.9" cy="915.5" r="5.8"/>
						<line id="XMLID_821_" class="st2" x1="308.9" y1="921.3" x2="308.9" y2="931.3"/>
					</g>
					<g id="XMLID_818_">
						<circle id="XMLID_819_" class="st2" cx="340.7" cy="915.5" r="5.8"/>
					</g>
					<g id="XMLID_813_">
						<circle id="XMLID_817_" class="st2" cx="372.4" cy="915.5" r="15.9"/>
						<path id="XMLID_816_" class="st2" d="M372.4,928.6c-7.2,0-13.1-5.9-13.1-13.1s5.9-13.1,13.1-13.1s13.1,5.9,13.1,13.1
							S379.6,928.6,372.4,928.6z"/>
						<circle id="XMLID_815_" class="st2" cx="372.4" cy="915.5" r="5.8"/>
						<line id="XMLID_814_" class="st2" x1="372.4" y1="921.3" x2="372.4" y2="931.3"/>
					</g>
					<g id="XMLID_811_">
						<circle id="XMLID_812_" class="st2" cx="404.1" cy="915.5" r="5.8"/>
					</g>
					<g id="XMLID_806_">
						<circle id="XMLID_810_" class="st2" cx="435.8" cy="915.5" r="15.9"/>
						<path id="XMLID_809_" class="st2" d="M435.8,928.6c-7.2,0-13.1-5.9-13.1-13.1s5.9-13.1,13.1-13.1s13.1,5.9,13.1,13.1
							S443,928.6,435.8,928.6z"/>
						<circle id="XMLID_808_" class="st2" cx="435.8" cy="915.5" r="5.8"/>
						<line id="XMLID_807_" class="st2" x1="435.8" y1="921.3" x2="435.8" y2="931.3"/>
					</g>
					<g id="XMLID_804_">
						<circle id="XMLID_805_" class="st2" cx="467.5" cy="915.5" r="5.8"/>
					</g>
					<g id="XMLID_799_">
						<circle id="XMLID_803_" class="st2" cx="499.2" cy="915.5" r="15.9"/>
						<path id="XMLID_802_" class="st2" d="M499.2,928.6c-7.2,0-13.1-5.9-13.1-13.1s5.9-13.1,13.1-13.1s13.1,5.9,13.1,13.1
							S506.4,928.6,499.2,928.6z"/>
						<circle id="XMLID_801_" class="st2" cx="499.2" cy="915.5" r="5.8"/>
						<line id="XMLID_800_" class="st2" x1="499.2" y1="921.3" x2="499.2" y2="931.3"/>
					</g>
					<g id="XMLID_797_">
						<circle id="XMLID_798_" class="st2" cx="530.9" cy="915.5" r="5.8"/>
					</g>
					<g id="XMLID_792_">
						<circle id="XMLID_796_" class="st2" cx="562.6" cy="915.5" r="15.9"/>
						<path id="XMLID_795_" class="st2" d="M562.6,928.6c-7.2,0-13.1-5.9-13.1-13.1s5.9-13.1,13.1-13.1s13.1,5.9,13.1,13.1
							S569.8,928.6,562.6,928.6z"/>
						<circle id="XMLID_794_" class="st2" cx="562.6" cy="915.5" r="5.8"/>
						<line id="XMLID_793_" class="st2" x1="562.6" y1="921.3" x2="562.6" y2="931.3"/>
					</g>
					<g id="XMLID_790_">
						<circle id="XMLID_791_" class="st2" cx="594.3" cy="915.5" r="5.8"/>
					</g>
					<g id="XMLID_785_">
						<circle id="XMLID_789_" class="st2" cx="626" cy="915.5" r="15.9"/>
						<path id="XMLID_788_" class="st2" d="M626,928.6c-7.2,0-13.1-5.9-13.1-13.1s5.9-13.1,13.1-13.1s13.1,5.9,13.1,13.1
							S633.2,928.6,626,928.6z"/>
						<circle id="XMLID_787_" class="st2" cx="626" cy="915.5" r="5.8"/>
						<line id="XMLID_786_" class="st2" x1="626" y1="921.3" x2="626" y2="931.3"/>
					</g>
					<g id="XMLID_783_">
						<circle id="XMLID_784_" class="st2" cx="657.7" cy="915.5" r="5.8"/>
					</g>
					<g id="XMLID_778_">
						<circle id="XMLID_782_" class="st2" cx="689.4" cy="915.5" r="15.9"/>
						<path id="XMLID_781_" class="st2" d="M689.4,928.6c-7.2,0-13.1-5.9-13.1-13.1s5.9-13.1,13.1-13.1c7.2,0,13.1,5.9,13.1,13.1
							S696.6,928.6,689.4,928.6z"/>
						<circle id="XMLID_780_" class="st2" cx="689.4" cy="915.5" r="5.8"/>
						<line id="XMLID_779_" class="st2" x1="689.4" y1="921.3" x2="689.4" y2="931.3"/>
					</g>
					<g id="XMLID_776_">
						<circle id="XMLID_777_" class="st2" cx="721.1" cy="915.5" r="5.8"/>
					</g>
					<g id="XMLID_771_">
						<circle id="XMLID_775_" class="st2" cx="752.8" cy="915.5" r="15.9"/>
						<path id="XMLID_774_" class="st2" d="M752.8,928.6c-7.2,0-13.1-5.9-13.1-13.1s5.9-13.1,13.1-13.1s13.1,5.9,13.1,13.1
							S760,928.6,752.8,928.6z"/>
						<circle id="XMLID_773_" class="st2" cx="752.8" cy="915.5" r="5.8"/>
						<line id="XMLID_772_" class="st2" x1="752.8" y1="921.3" x2="752.8" y2="931.3"/>
					</g>
					<g id="XMLID_769_">
						<circle id="XMLID_770_" class="st2" cx="784.5" cy="915.5" r="5.8"/>
					</g>
					<g id="XMLID_764_">
						<circle id="XMLID_768_" class="st2" cx="816.2" cy="915.5" r="15.9"/>
						<path id="XMLID_767_" class="st2" d="M816.2,928.6c-7.2,0-13.1-5.9-13.1-13.1s5.9-13.1,13.1-13.1s13.1,5.9,13.1,13.1
							S823.5,928.6,816.2,928.6z"/>
						<circle id="XMLID_766_" class="st2" cx="816.2" cy="915.5" r="5.8"/>
						<line id="XMLID_765_" class="st2" x1="816.2" y1="921.3" x2="816.2" y2="931.3"/>
					</g>
				</g>
				<path id="XMLID_762_" class="st2" d="M801,949.8c-266.9,0-534.9,0-801.6,0"/>
				<line id="XMLID_761_" class="st2" x1="-0.6" y1="892.5" x2="-0.6" y2="938.5"/>
				<line id="XMLID_760_" class="st2" x1="832.8" y1="892.5" x2="832.8" y2="938.5"/>
			</g>
			<g id="XMLID_517_">
				<path id="XMLID_25_" class="st1" d="M1118.8,921.7c0.6,0,1-0.5,1-1V613.4h9.9c0.6,0,1-0.5,1-1v-45.7c0-0.6-0.4-1-1-1h-9.9
					c0.5-16.2,13.8-29.3,30.1-29.3c0.6,0,1-0.5,1-1v-21.9c0-0.6-0.5-1-1-1h-23c-0.1-0.1-0.2-0.2-0.3-0.2c-0.2,0-0.3,0.1-0.4,0.2
					H988.7v-9c0-0.6-0.4-1-1-1h-9.9c-0.6,0-1,0.5-1,1v9h-6.1v-9c0-0.6-0.4-1-1-1h-9.9c-0.6,0-1,0.5-1,1v9h-15.5v-7.8
					c0-0.6-0.4-1-1-1h-8.7v-9.1c0-11-8.8-19.9-19.7-19.9s-19.7,8.9-19.7,19.9v9.1h-8.7c-0.6,0-1,0.5-1,1v7.8h-82.8c-0.6,0-1,0.5-1,1
					v21.9c0,0.6,0.4,1,1,1h30.1v10.4h-23h-7.1c-0.6,0-1,0.5-1,1"/>
				<path id="XMLID_24_" class="st1" d="M891.4,951l-4,8.7c-0.1,0.3-0.1,0.7,0.1,1s0.5,0.5,0.8,0.5h32.9c0.3,0,0.7-0.2,0.8-0.5
					s0.2-0.7,0.1-1l-4-8.7"/>
				<path id="XMLID_23_" class="st1" d="M800.7,862.7c0,0.4,0.2,0.7,0.6,0.9c0.2,0.3,0.5,0.5,0.8,0.5h30c0,18.6,0,37.2,0,55.6
					c-1.6,0-3.3,0-4.9,0l0,0c-0.6,0-1,0.5-1,1s0.4,1,1,1c1.9,0,3.9,0,5.8,0h0.1"/>
				<path id="XMLID_22_" class="st2" d="M833.1,949.9c20,0,39,0,59.3,0c-1,0-0.3,0,0,0c-22.3,0-43.3,0-65.2,0"/>
				<path id="XMLID_21_" class="st2" d="M802.1,892.9c10,0,21,0,31,0"/>
				<path id="XMLID_20_" class="st2" d="M832.8,568.8"/>
				<line id="XMLID_19_" class="st2" x1="801.7" y1="581.1" x2="832.8" y2="581.1"/>
				<line id="XMLID_18_" class="st2" x1="1129.7" y1="599.7" x2="1129.7" y2="644.9"/>
				<path id="XMLID_17_" class="st2" d="M1105.1,936.1"/>
				<line id="XMLID_16_" class="st2" x1="892.4" y1="936.1" x2="846.6" y2="936.1"/>
				<rect id="XMLID_745_" x="801.7" y="547" class="st2" width="348.2" height="21.7"/>
				<path id="XMLID_732_" class="st2" d="M1149.9,568.8c-17.1,0-31.1,13.9-31.1,31"/>
				<path id="XMLID_15_" class="st2" d="M1105.1,743.9"/>
				<line id="XMLID_728_" class="st2" x1="1065.6" y1="845.7" x2="1105.1" y2="845.7"/>
				<line id="XMLID_14_" class="st2" x1="808.8" y1="892.5" x2="801.7" y2="892.5"/>
				<line id="XMLID_13_" class="st2" x1="801.7" y1="581.1" x2="808.8" y2="581.1"/>
				<polyline id="XMLID_719_" class="st2" points="917.1,949.8 1118.8,949.8 1118.8,644.9 				"/>
				<line id="XMLID_711_" class="st2" x1="808.9" y1="879.2" x2="832.8" y2="879.2"/>
				<g id="XMLID_705_">
					<g id="XMLID_709_">
						<line id="XMLID_710_" class="st2" x1="892.4" y1="972.9" x2="917.1" y2="972.9"/>
					</g>
					<path id="XMLID_12_" class="st2" d="M892.4,980"/>
					<path id="XMLID_11_" class="st2" d="M917.1,980"/>
				</g>
				<polygon id="XMLID_699_" class="st2" points="921.2,988.8 888.3,988.8 892.4,980 917.1,980 				"/>
				<path id="XMLID_698_" class="st2" d="M897.8,988.8c-19.7,13-47.7,9-66.5-4.3"/>
				<path id="XMLID_697_" class="st2" d="M910.2,988.8c-7.2,25.5-23.8,47.7-47.8,59c-25.3,11.9-56,11.6-81-0.8
					c-5.3-2.6-10.3-5.7-15-9.2"/>
				<path id="XMLID_696_" class="st2" d="M741.6,1013.1c-3.1-4-5.9-8.1-8.6-12.3c-8.7-13.6-15.6-28.3-20.6-43.6"/>
				<path id="XMLID_695_" class="st2" d="M900.3,988.8c0.9,2.2,2.5,4.1,4.3,5.5c3.1,2.4,6.9,3.6,10.8,4.1c4.3,0.6,8.8,0.3,12.9-1.2
					c4.1-1.5,7.8-4.4,9.8-8.3"/>
				<path id="XMLID_10_" class="st2" d="M910.2,972.9"/>
				<path id="XMLID_595_" class="st3" d="M912.5,972.9c0.2,2.6,0.4,5.2,0.6,7.8"/>
				<path id="XMLID_594_" class="st3" d="M911.6,979.5c1.1,3,2.1,6,3.2,8.9c0,0.1,0.1,0.3,0.3,0.3s0.1-0.3,0-0.2"/>
				<path id="XMLID_593_" class="st3" d="M910.2,980.2c0.4,2.9,0.9,5.8,1.3,8.7"/>
				<path id="XMLID_592_" class="st3" d="M894.4,988.9c0.7-3.1,1.6-6.1,2.7-9.1c0.1,0.2,0.2,0.4,0.2,0.7"/>
				<g id="XMLID_542_">
					<g id="XMLID_567_">
						<g id="XMLID_580_">
							<g id="XMLID_583_">
								<g id="XMLID_588_">
									<path id="XMLID_9_" class="st2" d="M1014.2,921.5L1014.2,921.5"/>
								</g>
								<g id="XMLID_584_">
									<path id="XMLID_8_" class="st2" d="M1014.2,921.5L1014.2,921.5"/>
								</g>
							</g>
							<path id="XMLID_7_" class="st2" d="M1065.6,888.5"/>
						</g>
					</g>
					<path id="XMLID_6_" class="st3" d="M1017.2,920.9"/>
				</g>
				<path id="XMLID_5_" class="st3" d="M1118.2,647.3"/>
				<path id="XMLID_1_" class="st3" d="M1117.1,649.4c0.6,0,1.3,0,1.7,0.5"/>
				<g id="XMLID_526_">
					<rect id="XMLID_539_" x="977.8" y="537.1" class="st2" width="9.9" height="9.9"/>
					<rect id="XMLID_538_" x="959.8" y="537.1" class="st2" width="9.9" height="9.9"/>
					<path id="XMLID_534_" class="st3" d="M959.6,544.8c3.5-0.1,6.9-0.4,10.3-1.1"/>
					<path id="XMLID_533_" class="st3" d="M959.9,542.5c3.3,0.2,6.6,0,9.9-0.4"/>
					<path id="XMLID_532_" class="st3" d="M977.5,543.7c0.8,0.6,1.9,0.7,2.9,0.8c2.5,0.1,5,0.3,7.6,0.4"/>
					<path id="XMLID_531_" class="st3" d="M977.9,542.8c3.2,0.2,6.5-0.1,9.6-0.8"/>
				</g>
				<path id="XMLID_525_" class="st3" d="M1126.5,546.4c-0.8,7.4-1.4,14.8-1.9,22.2c0-0.3,0-0.7,0-1"/>
				<path id="XMLID_524_" class="st3" d="M1119.6,547.3c0.1,7.1,0.2,14.2,0.2,21.2"/>
				<path id="XMLID_523_" class="st3" d="M1090.9,547.3c-0.1,7-0.3,14-0.5,21"/>
				<path id="XMLID_522_" class="st3" d="M1087.4,547c-0.1,7.1-0.2,14.3-0.3,21.4c0-0.2,0-0.4,0.1-0.6"/>
				<path id="XMLID_521_" class="st3" d="M1074.5,546.6c-0.1,7.1,0.4,14.2,1.3,21.2"/>
				<path id="XMLID_520_" class="st3" d="M1131.2,547.6c0.2,7-0.1,14-0.7,20.9"/>
				<path id="XMLID_519_" class="st3" d="M1133.3,547.6c0.2,7,0.5,13.9,0.7,20.9"/>
				<path id="XMLID_518_" class="st3" d="M1022.1,546.9c-0.4,7.2-0.8,14.3-1,21.5c0-0.3,0.1-0.6,0.1-1"/>
			</g>
			<g id="XMLID_425_">
				<g id="XMLID_499_">
					<g id="XMLID_513_">
						<rect id="XMLID_516_" x="1118.8" y="843.6" class="st1" width="10.9" height="45.7"/>
						<rect id="XMLID_515_" x="1129.7" y="852.8" class="st1" width="9.9" height="10"/>
						<rect id="XMLID_514_" x="1129.7" y="871" class="st1" width="9.9" height="10"/>
					</g>
					<g id="XMLID_509_">
						<polyline id="XMLID_512_" class="st2" points="1118.8,919 1129.7,919 1129.7,873.7 1118.8,873.7 						"/>
						<rect id="XMLID_511_" x="1129.7" y="882.8" class="st2" width="9.9" height="9.9"/>
						<rect id="XMLID_510_" x="1129.7" y="900.8" class="st2" width="9.9" height="9.9"/>
					</g>
					<path id="XMLID_43_" class="st2" d="M1159.6,931.6"/>
					<path id="XMLID_42_" class="st2" d="M1139.6,907"/>
					<path id="XMLID_506_" class="st3" d="M1132.9,883.1c0,3.2-0.3,6.4-0.8,9.6"/>
					<path id="XMLID_505_" class="st3" d="M1134.4,883.5c0.3,2.9,0.5,5.7,0.6,8.6"/>
					<path id="XMLID_504_" class="st3" d="M1131.9,901.5c0.1,3,0,6-0.2,9c0-0.2,0-0.4,0-0.6"/>
					<path id="XMLID_503_" class="st3" d="M1133.6,901.6c-0.1,2.9,0,5.7,0,8.6"/>
					<path id="XMLID_502_" class="st3" d="M1133.7,903.5c0.7,2.2,1.4,4.3,2,6.5"/>
					<path id="XMLID_501_" class="st3" d="M1122.2,874.5c0.1,14.5-0.2,29.1-1,43.6"/>
					<line id="XMLID_500_" class="st2" x1="1118.8" y1="873.7" x2="1118.8" y2="919"/>
				</g>
				<g id="XMLID_426_">
					<g id="XMLID_494_">
						<path id="XMLID_498_" class="st1" d="M1129.7,586.9h9.9c0.6,0,1-0.5,1-1v-10c0-0.6-0.4-1-1-1h-9.9c-0.6,0-1,0.5-1,1v10
							C1128.7,586.5,1129.2,586.9,1129.7,586.9z"/>
						<path id="XMLID_497_" class="st1" d="M1129.7,605.1h9.9c0.6,0,1-0.5,1-1v-10c0-0.6-0.4-1-1-1h-9.9c-0.6,0-1,0.5-1,1v10
							C1128.7,604.7,1129.2,605.1,1129.7,605.1z"/>
						<path id="XMLID_496_" class="st1" d="M1181.8,525.5h7.2v9c0,0.6,0.4,1,1,1h9.9c0.6,0,1-0.5,1-1v-9h6.1v9c0,0.6,0.4,1,1,1h9.9
							c0.6,0,1-0.5,1-1v-9h2.5c0.1,0.1,0.2,0.1,0.3,0.1l0,0c0.1,0,0.2,0,0.2-0.1h5c0.6,0,1-0.5,1-1v-11.1c0-0.6-0.4-1-1-1h-45.2
							c-0.6,0-1,0.5-1,1v11.1C1180.8,525.1,1181.3,525.5,1181.8,525.5z"/>
						<path id="XMLID_495_" class="st1" d="M1315.3,512.5h-52.9c-0.6,0-1,0.5-1,1v5.5c0,0.6,0.4,1,1,1h6.2v4.5c0,0.6,0.4,1,1,1h3.9
							c-6.1,33.3-23.6,63.7-49.3,85.8c-26.1,22.3-59.3,34.7-93.5,35v-5.2c0-0.6-0.4-1-1-1h-9.9v-2.9c3.1-0.5,5.5-3.2,5.5-6.5
							c0-3.6-2.9-6.5-6.5-6.5c-0.6,0-1,0.5-1,1v15.9v39V696c0,0.6,0.4,1,1,1c3.6,0,6.5-2.9,6.5-6.5c0-3.3-2.4-6-5.5-6.5v-3h9.9
							c0.6,0,1-0.5,1-1v-4c2.1,0,4.2-0.1,6.3-0.1l0,0l0,0c0,0,0,0,0.1,0c2.8-0.1,5.6-0.3,8.3-0.5l0,0h0.1l0,0
							c2.4-0.2,4.9-0.5,7.3-0.8l0,0c0.1,0,0.2,0,0.2,0l0,0c2.4-0.3,4.7-0.7,7.1-1.1l0,0l0,0c3.1-0.5,6.2-1.2,9.3-1.9h0.1
							c0,0,0,0,0.1,0c2.7-0.6,5.3-1.3,7.9-2.1c0,0,0,0,0.1,0l0,0c3.2-0.9,6.4-1.9,9.6-3.1c0.1,0,0.1,0,0.2-0.1
							c2.6-0.9,5.3-1.9,7.9-3c0.1,0,0.2-0.1,0.2-0.1c2.1-0.9,4.2-1.8,6.3-2.7l0,0c0,0,0,0,0.1,0c5.1-2.3,10.1-4.9,15-7.7l0,0l0,0
							c2.5-1.5,5-3,7.4-4.6c0,0,0,0,0.1,0l0,0c2.1-1.3,4.1-2.7,6.1-4.2l0,0l0,0c1.6-1.1,3.2-2.3,4.7-3.5h0.1l0,0
							c2.1-1.6,4.1-3.3,6.2-5c0,0,0,0,0.1,0l0,0c2.4-2.1,4.8-4.2,7.2-6.4c0,0,0,0,0.1,0c0,0,0,0,0-0.1c1.6-1.5,3.2-3.1,4.8-4.7
							c0.2-0.2,0.4-0.5,0.7-0.7l0,0l0,0c26.3-26.9,43.1-60.6,48.7-97.7h4.8c0.6,0,1-0.5,1-1V520h6.2c0.6,0,1-0.5,1-1v-5.5
							C1316.3,512.9,1315.9,512.5,1315.3,512.5z"/>
					</g>
					<line id="XMLID_493_" class="st2" x1="1919.4" y1="547" x2="1149.9" y2="547"/>
					<g id="XMLID_478_">
						<rect id="XMLID_492_" x="1118.8" y="673.3" class="st2" width="10.9" height="38.5"/>
						<path id="XMLID_491_" class="st2" d="M1135.8,679.4c0.4,9.1,0.8,18.3,1.3,27.4"/>
						<path id="XMLID_488_" class="st2" d="M1118.8,716.7c3,0,5.5,2.5,5.5,5.5s-2.5,5.5-5.5,5.5"/>
						<path id="XMLID_487_" class="st2" d="M1118.8,657.6c3,0,5.5,2.5,5.5,5.5s-2.5,5.5-5.5,5.5"/>
						<rect id="XMLID_486_" x="1129.7" y="608.8" class="st2" width="9.9" height="9.9"/>
						<rect id="XMLID_485_" x="1129.7" y="626.8" class="st2" width="9.9" height="9.9"/>
						<path id="XMLID_484_" class="st3" d="M1132.3,608.9c-0.3,3.2-0.7,6.3-1,9.5c0-0.1,0.1-0.3,0.1-0.4"/>
						<path id="XMLID_483_" class="st3" d="M1133.9,609.5c0,3.2,0,6.3,0,9.5"/>
						<path id="XMLID_482_" class="st3" d="M1131.9,627.2c-0.3,3.2-0.4,6.4-0.4,9.7c0-0.1,0.1-0.2,0.1-0.3"/>
						<path id="XMLID_481_" class="st3" d="M1133.3,627.4c0,3,0.1,6.1,0.3,9.1"/>
						<path id="XMLID_480_" class="st3" d="M1135.1,627.6c0,3,0.1,6,0.3,9"/>
						<path id="XMLID_479_" class="st3" d="M1121.1,673.7c0.6,12.6,1.2,25.1,1.8,37.7"/>
					</g>
					<path id="XMLID_476_" class="st2" d="M1129.7,679.5c72.5,0,132.8-52.4,145-121.5"/>
					<g id="XMLID_472_">
						<polyline id="XMLID_475_" class="st2" points="1181.8,547 1181.8,558 1227,558 1227,547 						"/>
						<rect id="XMLID_474_" x="1208" y="558" class="st2" width="9.9" height="9.9"/>
						<rect id="XMLID_473_" x="1190" y="558" class="st2" width="9.9" height="9.9"/>
					</g>
					<path id="XMLID_469_" class="st2" d="M1139.6,615.2c16,0.4,32.1-3.6,46-11.5c7.4-4.2,14.2-9.6,19-16.6
						c3.9-5.6,6.3-12.4,6.3-19.2"/>
					<path id="XMLID_467_" class="st2" d="M1139.6,630.5c27.8-4.4,49.2-34.2,53.4-62.6"/>
					<path id="XMLID_466_" class="st3" d="M1189.8,561c3.4,0,6.9-0.2,10.3-0.8"/>
					<path id="XMLID_465_" class="st3" d="M1190.3,562.3c3.1,0.1,6.2,0.2,9.3,0.3c0.2,0,0.5,0.1,0.5,0.3"/>
					<path id="XMLID_464_" class="st3" d="M1207.9,560c3.3,0.3,6.5,0.5,9.8,0.8"/>
					<path id="XMLID_463_" class="st3" d="M1207.7,562.3c3.2,0.3,6.5,0.2,9.8-0.2"/>
					<path id="XMLID_462_" class="st3" d="M1221.6,547.9c-0.1,3.5-0.1,7.1,0.1,10.6"/>
					<path id="XMLID_41_" class="st2" d="M1297.5,581.1"/>
					<path id="XMLID_40_" class="st2" d="M1269.8,577.9"/>
					<path id="XMLID_39_" class="st2" d="M1301.7,562.7"/>
					<path id="XMLID_38_" class="st2" d="M1273.7,563.2"/>
					<rect id="XMLID_434_" x="1262.4" y="547" class="st2" width="52.9" height="5.5"/>
					<path id="XMLID_433_" class="st3" d="M1305.5,547.3c0,1.8,0,3.7,0,5.5"/>
					<path id="XMLID_432_" class="st3" d="M1302.6,546.9c0.3,1.5,0.3,3,0.2,4.5"/>
					<path id="XMLID_431_" class="st3" d="M1299.6,547.3c0.3,1.6,0.7,3.2,1,4.8"/>
					<path id="XMLID_430_" class="st3" d="M1304.2,552.4c0,1.9,0,3.9,0,5.8"/>
					<path id="XMLID_37_" class="st3" d="M1299.1,552.7"/>
					<path id="XMLID_428_" class="st3" d="M1278.1,552.4c-0.1,1.9,0.1,3.9,0.4,5.8"/>
					<line id="XMLID_427_" class="st2" x1="1118.8" y1="657.6" x2="1118.8" y2="727.6"/>
				</g>
			</g>
		</g>
	</g>
	<g id="XMLID_358_">
		<g id="XMLID_422_">
			<path id="XMLID_424_" class="st1" d="M1126.8,856.8h10.1c10.4,0,18.9-8.4,18.9-18.7l0,0c0-10.3-8.5-18.7-18.9-18.7h-10.1V856.8z"
				/>
			<path id="XMLID_423_" class="st1" d="M903.3,672.4c-4.8,0-8.9,3.2-10.2,7.7c0,0,0,0.1-0.1,0.1l0,0c-0.2,0.8-0.3,1.7-0.3,2.6
				c0,5.8,4.6,10.5,10.3,10.5c1.7,0,3.3-0.4,4.7-1.1l0.2,0.1c0-0.1,0-0.2,0-0.3c2.7-1.5,4.7-4.1,5.3-7.3l0,0l64.4,0.5v5.4l-17.3-0.1
				l-0.1,15.9l-91.5-0.7l-0.7,82.9l-8.8-0.1l-0.5,58l8.8,0.1l-0.8,98.5l237.9,2l0.3-35.1l0,0l1.1-135.7l0,0l0.6-68.2l-82.7-0.7
				l0.1-15.9l-17.7-0.1l0.1-14.8l-28.5-0.2v5.4l-64.4-0.5l0,0C912.6,676.1,908.4,672.4,903.3,672.4z"/>
		</g>
		<polyline id="XMLID_421_" class="st5" points="868.9,712.5 1104.4,712.9 1104.1,947.9 868.6,947.5 		"/>
		<g id="XMLID_388_">
			<g id="XMLID_410_">
				<g id="XMLID_412_">
					
						<rect id="XMLID_417_" x="949.8" y="723.9" transform="matrix(1.489028e-003 -1 1 1.489028e-003 200.4377 1756.4705)" class="st2" width="60" height="108"/>
					
						<rect id="XMLID_416_" x="955.8" y="729.9" transform="matrix(1.489028e-003 -1 1 1.489028e-003 200.4377 1756.4705)" class="st2" width="48" height="96"/>
				</g>
				
					<rect id="XMLID_411_" x="946" y="720.2" transform="matrix(1.489028e-003 -1 1 1.489028e-003 204.099 1752.7369)" class="st2" width="67.5" height="108"/>
			</g>
			<g id="XMLID_400_">
				<g id="XMLID_401_">
					
						<rect id="XMLID_406_" x="949.7" y="784" transform="matrix(1.489028e-003 -1 1 1.489028e-003 140.2592 1816.4021)" class="st2" width="60" height="108"/>
					
						<rect id="XMLID_405_" x="955.7" y="790" transform="matrix(1.489028e-003 -1 1 1.489028e-003 140.2592 1816.4021)" class="st2" width="48" height="96"/>
				</g>
			</g>
			<g id="XMLID_389_">
				<g id="XMLID_391_">
					
						<rect id="XMLID_396_" x="949.6" y="843.9" transform="matrix(1.489028e-003 -1 1 1.489028e-003 80.2814 1876.1339)" class="st2" width="60" height="108"/>
					
						<rect id="XMLID_395_" x="955.6" y="849.9" transform="matrix(1.489028e-003 -1 1 1.489028e-003 80.2814 1876.1339)" class="st2" width="48" height="96"/>
				</g>
				
					<rect id="XMLID_390_" x="945.8" y="847.7" transform="matrix(1.489028e-003 -1 1 1.489028e-003 76.42 1879.8669)" class="st2" width="67.5" height="108"/>
			</g>
		</g>
		
			<rect id="XMLID_387_" x="971.5" y="813.5" transform="matrix(1.489028e-003 -1 1 1.489028e-003 229.3603 1905.7679)" class="st2" width="195" height="49"/>
		<g id="XMLID_383_">
			<path id="XMLID_386_" class="st2" d="M1112.8,856.8h10c10.3,0,18.7-8.4,18.7-18.7l0,0c0-10.3-8.4-18.7-18.7-18.7h-10"/>
			
				<rect id="XMLID_385_" x="1080.2" y="833.8" transform="matrix(1.489028e-003 -1 1 1.489028e-003 268.784 1945.3855)" class="st2" width="56.7" height="8.7"/>
			<path id="XMLID_384_" class="st2" d="M1112.8,841.6h14.7c2,0,3.5-1.6,3.5-3.5l0,0c0-2-1.6-3.5-3.5-3.5h-14.7"/>
		</g>
		
			<rect id="XMLID_382_" x="817.5" y="798.2" transform="matrix(1.489028e-003 -1 1 1.489028e-003 69.2581 1696.6261)" class="st2" width="133.5" height="30.9"/>
		<line id="XMLID_381_" class="st2" x1="884.4" y1="746.9" x2="884.2" y2="880.4"/>
		<line id="XMLID_380_" class="st2" x1="876.3" y1="746.9" x2="876.1" y2="880.4"/>
		<circle id="XMLID_379_" class="st2" cx="894.5" cy="914.3" r="16.5"/>
		
			<rect id="XMLID_378_" x="891.6" y="903.8" transform="matrix(1.489028e-003 -1 1 1.489028e-003 -21.0879 1807.5076)" class="st2" width="6" height="21"/>
		<line id="XMLID_377_" class="st3" x1="905.3" y1="915.2" x2="884.6" y2="915.1"/>
		<g id="XMLID_363_">
			
				<rect id="XMLID_376_" x="974.1" y="924" transform="matrix(1.489028e-003 -1 1 1.489028e-003 24.9993 1935.9836)" class="st2" width="15.6" height="63"/>
			<line id="XMLID_371_" class="st2" x1="957.3" y1="948.1" x2="957.3" y2="962.1"/>
			<line id="XMLID_370_" class="st2" x1="961.8" y1="947.6" x2="961.8" y2="962.6"/>
			<line id="XMLID_369_" class="st2" x1="1006.8" y1="948.1" x2="1006.8" y2="962.1"/>
			<line id="XMLID_368_" class="st2" x1="981" y1="948.6" x2="981" y2="963.1"/>
			<line id="XMLID_367_" class="st2" x1="992.8" y1="948.6" x2="992.8" y2="963.4"/>
			<path id="XMLID_366_" class="st2" d="M979.8,948.6c-0.2,0-0.3,0-0.5,0v14"/>
			<path id="XMLID_365_" class="st3" d="M1067.2,961.1c0.3,2.9,1.9,5.7,4.3,7.3s5.6,2.2,8.4,1.3"/>
			<path id="XMLID_364_" class="st3" d="M1065.4,961.4c-0.4,2.2-0.7,4.4-0.4,6.5c0.3,2.1,1.3,4.3,3.1,5.6c2.2,1.6,5.3,1.6,8,1.6
				c1.6,0,3.5-0.3,4.2-1.7"/>
		</g>
		<line id="XMLID_362_" class="st3" x1="1111.9" y1="862.3" x2="1104.9" y2="862.3"/>
		<line id="XMLID_361_" class="st3" x1="1112.4" y1="853.3" x2="1104.9" y2="853.3"/>
		<line id="XMLID_360_" class="st3" x1="1112.4" y1="857.8" x2="1105.4" y2="857.8"/>
		<line id="XMLID_359_" class="st3" x1="1112.5" y1="815.3" x2="1105" y2="815.3"/>
	</g>
	<g id="XMLID_306_">
		<g id="XMLID_339_">
			
				<rect id="XMLID_341_" x="906.7" y="501.2" transform="matrix(1.489105e-003 -1 1 1.489105e-003 327.0286 1618.5205)" class="st1" width="134.5" height="288.7"/>
			
				<rect id="XMLID_340_" x="1037.7" y="541" transform="matrix(1.489028e-003 -1 1 1.489028e-003 480.401 1603.4274)" class="st1" width="10.8" height="40.4"/>
		</g>
		<polyline id="XMLID_338_" class="st6" points="869.1,578.1 1104.6,578.5 1104.4,713 868.9,712.6 		"/>
		<g id="XMLID_323_">
			
				<rect id="XMLID_337_" x="1007.4" y="603.2" transform="matrix(1.489028e-003 -1 1 1.489028e-003 402.6563 1684.4778)" class="st2" width="74.9" height="74.9"/>
			<g id="XMLID_328_">
				<line id="XMLID_336_" class="st2" x1="1064.6" y1="616.1" x2="1064.5" y2="665"/>
				<line id="XMLID_335_" class="st2" x1="1058.9" y1="616.1" x2="1058.8" y2="665"/>
				<line id="XMLID_334_" class="st2" x1="1053.3" y1="616.1" x2="1053.2" y2="665"/>
				<line id="XMLID_333_" class="st2" x1="1047.7" y1="616.1" x2="1047.6" y2="665"/>
				<line id="XMLID_332_" class="st2" x1="1042.1" y1="616.1" x2="1042" y2="665"/>
				<line id="XMLID_331_" class="st2" x1="1036.5" y1="616.1" x2="1036.4" y2="665"/>
				<line id="XMLID_330_" class="st2" x1="1030.8" y1="616.1" x2="1030.7" y2="665"/>
				<line id="XMLID_329_" class="st2" x1="1025.2" y1="616.1" x2="1025.1" y2="665"/>
			</g>
			<circle id="XMLID_327_" class="st2" cx="1075.5" cy="609.9" r="2.2"/>
			<circle id="XMLID_326_" class="st2" cx="1075.4" cy="671.1" r="2.2"/>
			<circle id="XMLID_325_" class="st2" cx="1014.3" cy="609.8" r="2.2"/>
			<circle id="XMLID_324_" class="st2" cx="1014.2" cy="671" r="2.2"/>
		</g>
		<g id="XMLID_317_">
			<line id="XMLID_319_" class="st2" x1="1017.8" y1="555.7" x2="1017.7" y2="566.4"/>
			<line id="XMLID_318_" class="st2" x1="1042.2" y1="555.8" x2="1042.1" y2="566.5"/>
		</g>
		<line id="XMLID_316_" class="st2" x1="928.8" y1="614.5" x2="928.6" y2="712.7"/>
		<line id="XMLID_315_" class="st2" x1="917.8" y1="614.5" x2="917.6" y2="712.5"/>
		<line id="XMLID_314_" class="st2" x1="901.8" y1="613.5" x2="901.6" y2="712.6"/>
		<line id="XMLID_313_" class="st2" x1="928.8" y1="619.2" x2="918.8" y2="619.2"/>
		<line id="XMLID_312_" class="st2" x1="928.4" y1="624.8" x2="917.6" y2="624.8"/>
		<line id="XMLID_311_" class="st2" x1="928.6" y1="707.5" x2="917.6" y2="707.5"/>
		<line id="XMLID_310_" class="st2" x1="927.9" y1="701.2" x2="917.9" y2="701.2"/>
		<line id="XMLID_309_" class="st2" x1="928.7" y1="691.5" x2="917.6" y2="691.5"/>
		<line id="XMLID_308_" class="st6" x1="868.9" y1="712.6" x2="869.1" y2="578.1"/>
		<line id="XMLID_307_" class="st6" x1="928.8" y1="614.5" x2="917.8" y2="614.5"/>
	</g>
	<polyline class="st1" points="880,955.7 880.5,613.5 846.8,613.5 846.3,955.6 	"/>
	
		<rect id="XMLID_207_" x="922.4" y="947.6" transform="matrix(1.489028e-003 -1 1 1.489028e-003 -26.5983 1878.5844)" class="st1" width="9.9" height="10"/>
	
		<rect id="XMLID_206_" x="904.3" y="947.6" transform="matrix(1.489028e-003 -1 1 1.489028e-003 -44.6176 1860.4305)" class="st1" width="9.9" height="10"/>
	<line id="XMLID_202_" class="st2" x1="869.1" y1="613.5" x2="868.6" y2="947.5"/>
	<line id="XMLID_197_" class="st2" x1="835.5" y1="947.5" x2="836" y2="613.5"/>
	
		<rect id="XMLID_167_" x="910.5" y="947.6" transform="matrix(1.489028e-003 -1 1 1.489028e-003 -38.3952 1866.599)" class="st2" width="9.9" height="9.9"/>
	
		<rect id="XMLID_166_" x="892.6" y="947.5" transform="matrix(1.489028e-003 -1 1 1.489028e-003 -56.215 1848.6458)" class="st2" width="9.9" height="9.9"/>
	<line id="XMLID_138_" class="st2" x1="869.1" y1="619.4" x2="836" y2="619.4"/>
	<line id="XMLID_137_" class="st2" x1="869.1" y1="629.4" x2="836" y2="629.4"/>
	<line id="XMLID_136_" class="st2" x1="868.7" y1="635.4" x2="836.7" y2="635.4"/>
	<line id="XMLID_135_" class="st2" x1="847.1" y1="636" x2="846.7" y2="955.6"/>
	<line id="XMLID_134_" class="st2" x1="920.3" y1="951.5" x2="910.8" y2="951.5"/>
	<line id="XMLID_133_" class="st2" x1="901.8" y1="952.5" x2="893.6" y2="952.5"/>
	<line id="XMLID_128_" class="st3" x1="852.7" y1="637.4" x2="852.3" y2="947.5"/>
	<line id="XMLID_105_" class="st6" x1="869.1" y1="613.5" x2="836" y2="613.5"/>
	<g id="XMLID_60_">
		<g id="XMLID_62_">
			
				<rect id="XMLID_66_" x="817.9" y="881.4" transform="matrix(1.489028e-003 -1 1 1.489028e-003 -47.6151 1726.1188)" class="st1" width="45.2" height="11.1"/>
		</g>
		<line id="XMLID_61_" class="st2" x1="835.1" y1="864.3" x2="835" y2="909.5"/>
	</g>
	<line id="XMLID_36_" class="st3" x1="831.4" y1="864.4" x2="831.3" y2="908.5"/>
	<g id="XMLID_34_">
		<line id="XMLID_35_" class="st2" x1="835.1" y1="864.3" x2="835" y2="909.5"/>
	</g>
	<line id="XMLID_33_" class="st2" x1="835.1" y1="864.3" x2="835" y2="909.5"/>
</g>
</svg>
