<?xml version="1.0" encoding="utf-8"?>
<!-- Generator: Adobe Illustrator 19.0.0, SVG Export Plug-In . SVG Version: 6.00 Build 0)  -->
<svg version="1.1" id="Слой_1" xmlns="http://www.w3.org/2000/svg" xmlns:xlink="http://www.w3.org/1999/xlink" x="0px" y="0px"
	 viewBox="0 -232.3 1920 865.3" style="enable-background:new 0 -232.3 1920 865.3;" xml:space="preserve">
<style type="text/css">
	.st0{fill:#F4E1A1;}
	.st1{fill:none;stroke:#827957;stroke-width:2;stroke-linecap:round;stroke-linejoin:round;stroke-miterlimit:10;}
	.st2{fill:none;stroke:#827957;stroke-linecap:round;stroke-linejoin:round;stroke-miterlimit:10;}
	.st3{fill:none;stroke:#827957;stroke-width:2.0066;stroke-linecap:round;stroke-linejoin:round;stroke-miterlimit:10;}
	.st4{display:none;fill:none;stroke:#827957;stroke-width:2;stroke-linecap:round;stroke-linejoin:round;stroke-miterlimit:10;}
</style>
<g id="conveer_x5F_elements">
	<g id="_x30_2">
		<g>
			<g>
				<g>
					<polygon class="st0" points="380.8,-23.1 373.8,-23.1 373.8,-19.2 0.4,-19.2 0.4,5.5 373.8,5.5 373.8,9.4 380.8,9.4 
						380.8,12.4 391.7,12.4 391.7,-26.2 380.8,-26.2 					"/>
					<path class="st0" d="M386.3-36.4c0,3,2.5,5.5,5.5,5.5v-10.9C388.7-41.9,386.3-39.5,386.3-36.4z"/>
					<path class="st0" d="M386.3,22.7c0,3,2.5,5.5,5.5,5.5V17.3C388.7,17.2,386.3,19.7,386.3,22.7z"/>
				</g>
				<g>
					<rect x="380.8" y="-26.2" class="st1" width="10.9" height="38.5"/>
					<path class="st1" d="M391.7-31c-3,0-5.5-2.5-5.5-5.5s2.5-5.5,5.5-5.5"/>
					<path class="st1" d="M391.7,28.2c-3,0-5.5-2.5-5.5-5.5s2.5-5.5,5.5-5.5"/>
				</g>
				<g>
					<g>
						<line class="st1" x1="319.4" y1="-19.2" x2="319.4" y2="-0.7"/>
					</g>
					<rect x="373.8" y="-23.1" class="st1" width="7" height="32.5"/>
					<line class="st1" x1="0.4" y1="-19.2" x2="373.8" y2="-19.2"/>
					<line class="st1" x1="0.4" y1="5.5" x2="373.8" y2="5.5"/>
					<line class="st1" x1="0.4" y1="-19.2" x2="0.4" y2="5.5"/>
				</g>
				<line class="st2" x1="388" y1="-25.7" x2="388" y2="12.4"/>
				<line class="st1" x1="373.8" y1="-0.7" x2="0.4" y2="-0.7"/>
				<line class="st1" x1="391.7" y1="-41.9" x2="391.7" y2="28.2"/>
			</g>
			<g>
				<g>
					<polygon class="st0" points="380.8,84.5 373.8,84.5 373.8,88.4 0.4,88.4 0.4,113.1 373.8,113.1 373.8,117 380.8,117 380.8,120 
						391.7,120 391.7,81.5 380.8,81.5 					"/>
					<path class="st0" d="M386.3,71.2c0,3,2.5,5.5,5.5,5.5V65.8C388.7,65.7,386.3,68.2,386.3,71.2z"/>
					<path class="st0" d="M386.3,130.3c0,3,2.5,5.5,5.5,5.5v-10.9C388.7,124.8,386.3,127.3,386.3,130.3z"/>
				</g>
				<g>
					<rect x="380.8" y="81.5" class="st1" width="10.9" height="38.5"/>
					<path class="st1" d="M391.7,76.7c-3,0-5.5-2.5-5.5-5.5s2.5-5.5,5.5-5.5"/>
					<path class="st1" d="M391.7,135.8c-3,0-5.5-2.5-5.5-5.5s2.5-5.5,5.5-5.5"/>
				</g>
				<g>
					<g>
						<line class="st1" x1="319.4" y1="88.4" x2="319.4" y2="106.9"/>
					</g>
					<rect x="373.8" y="84.5" class="st1" width="7" height="32.5"/>
					<line class="st1" x1="0.4" y1="88.4" x2="373.8" y2="88.4"/>
					<line class="st1" x1="0.4" y1="113.1" x2="373.8" y2="113.1"/>
					<line class="st1" x1="0.4" y1="88.4" x2="0.4" y2="113.1"/>
				</g>
				<line class="st2" x1="389" y1="81.8" x2="389" y2="118.9"/>
				<line class="st1" x1="373.8" y1="106.9" x2="0.9" y2="106.9"/>
				<line class="st1" x1="391.7" y1="65.7" x2="391.7" y2="135.8"/>
			</g>
		</g>
		<g>
			<rect x="391.7" y="-123.3" class="st0" width="1134.1" height="378"/>
			<g>
				<g>
					<rect x="391.7" y="-123.3" class="st1" width="1134.1" height="378"/>
					<rect x="411.8" y="-103.2" class="st1" width="1094" height="296.6"/>
					<rect x="1171.4" y="224.3" class="st1" width="177.2" height="30.4"/>
					<rect x="568.9" y="224.3" class="st1" width="177.2" height="30.4"/>
					<g>
						<g>
							<line class="st1" x1="452.4" y1="-103.2" x2="452.4" y2="171.4"/>
							<line class="st1" x1="492.9" y1="-103.2" x2="492.9" y2="171.4"/>
							<line class="st1" x1="533.5" y1="-103.2" x2="533.5" y2="171.4"/>
							<line class="st1" x1="574" y1="-103.2" x2="574" y2="171.4"/>
							<line class="st1" x1="614.6" y1="-103.2" x2="614.6" y2="171.4"/>
							<line class="st2" x1="655.2" y1="-103.2" x2="655.2" y2="171.4"/>
							<line class="st1" x1="695.7" y1="-103.2" x2="695.7" y2="171.4"/>
							<line class="st1" x1="736.3" y1="-103.2" x2="736.3" y2="171.4"/>
							<line class="st1" x1="776.8" y1="-103.2" x2="776.8" y2="171.4"/>
							<line class="st1" x1="817.4" y1="-103.2" x2="817.4" y2="171.4"/>
							<line class="st1" x1="858" y1="-103.2" x2="858" y2="171.4"/>
							<line class="st1" x1="898.5" y1="-103.2" x2="898.5" y2="171.4"/>
							<line class="st1" x1="939.1" y1="-103.2" x2="939.1" y2="171.4"/>
							<line class="st1" x1="979.6" y1="-103.2" x2="979.6" y2="171.4"/>
							<line class="st1" x1="1020.2" y1="-103.2" x2="1020.2" y2="171.4"/>
							<line class="st1" x1="1060.8" y1="-103.2" x2="1060.8" y2="171.4"/>
							<line class="st1" x1="1101.3" y1="-103.2" x2="1101.3" y2="171.4"/>
							<line class="st1" x1="1141.9" y1="-103.2" x2="1141.9" y2="171.4"/>
							<line class="st1" x1="1182.4" y1="-103.2" x2="1182.4" y2="171.4"/>
							<line class="st1" x1="1223" y1="-103.2" x2="1223" y2="171.4"/>
							<line class="st1" x1="1263.6" y1="-103.2" x2="1263.6" y2="171.4"/>
							<line class="st1" x1="1304.1" y1="-103.2" x2="1304.1" y2="171.4"/>
							<line class="st1" x1="1344.7" y1="-103.2" x2="1344.7" y2="171.4"/>
							<line class="st1" x1="1385.3" y1="-103.2" x2="1385.3" y2="171.4"/>
							<line class="st1" x1="1425.8" y1="-103.2" x2="1425.8" y2="171.4"/>
							<line class="st1" x1="1466.4" y1="-103.2" x2="1466.4" y2="171.4"/>
						</g>
						<g>
							<path class="st2" d="M533.5-57.1c12-5.1,25.1-7.7,39.1-7.7c0.5,0,0.9,0,1.4,0 M614.6-55.7c6.6,3.1,12.9,7,19,11.6
								c3.5,2.8,5.6,6.4,6.3,10.9c0.6,4.6-0.6,8.7-3.4,12.3c-2.8,3.6-6.4,5.7-10.9,6.3c-4,0.5-7.7-0.3-11-2.3 M574-31.6
								c-0.5,0-0.9,0-1.4,0c-14.8,0-27.8,4.2-39.1,12.6 M533.5,89.2c11.3,8.4,24.4,12.7,39.1,12.7c0.5,0,0.9,0,1.4,0 M614.6,87.2
								c1-0.8,2-1.7,3.1-2.6c3.4-3.1,7.3-4.5,11.9-4.3c4.6,0.2,8.4,2,11.5,5.5c3.1,3.4,4.5,7.3,4.3,11.9s-2,8.4-5.3,11.5
								c-7.9,7.2-16.4,12.9-25.4,17.1 M574,135c-0.5,0-0.9,0-1.4,0c-14.1,0-27.1-2.6-39.1-7.7 M492.9,95.5
								c-13.4-17.4-20.1-37.5-20.1-60.3c0-22.9,6.7-43,20.1-60.4"/>
							<path class="st2" d="M695.7-58.3c0.5-0.6,1-1.1,1.5-1.7c3.2-3.3,7-4.9,11.6-4.9s8.4,1.6,11.6,4.9c3.3,3.2,4.9,7,4.9,11.6
								v166.8c0,4.6-1.6,8.4-4.9,11.6c-3.2,3.3-7,4.9-11.6,4.9s-8.4-1.6-11.6-4.9c-0.5-0.5-1-1.1-1.5-1.7"/>
							<path class="st2" d="M858,10.4l27.4,45.2l13.2-21.8 M939.1-33.2l15-24.9c1.9-3.2,4.5-5.5,8-6.9c3.4-1.3,5.2-2,5.2-2
								s1.8,0.5,5.5,1.4c2.7,0.8,5,2.1,6.9,4 M979.6,130.5c-3.2,3-7,4.6-11.4,4.6c-4.6,0-8.5-1.6-11.7-4.9c-3.2-3.2-4.8-7-4.8-11.6
								V9.8L939,30.7 M898.5,97.5l-0.3,0.5c-0.4,0.4-0.6,0.6-0.7,0.7c-0.1,0.1-0.3,0.3-0.6,0.6s-0.5,0.5-0.6,0.6
								c-0.2,0.2-0.5,0.4-0.8,0.7l-0.4,0.4c-0.3,0.2-0.6,0.4-1,0.6c0,0.1,0,0.1-0.1,0.1l-0.1,0.1h-0.1c-0.2,0.2-0.5,0.4-1,0.6
								c-0.4,0.2-0.5,0.3-0.4,0.3c-0.1,0-0.4,0.1-0.8,0.3c-2.1,0.9-4.4,1.3-6.7,1.3h-0.3c0.2,0,0,0-0.6-0.1
								c-1.2-0.1-2.4-0.3-3.6-0.7c-0.5-0.1-0.7-0.1-0.6-0.1c0.2,0.1,0,0-0.6-0.1c-0.5-0.2-0.8-0.3-1-0.4c0.1,0,0-0.1-0.3-0.3
								c-0.5-0.2-0.8-0.4-1.1-0.6h-0.1l-0.1-0.1l-0.1-0.1c-0.4-0.2-0.7-0.4-1-0.7c0,0.1-0.1,0-0.4-0.3c-0.4-0.3-0.7-0.5-0.8-0.7
								c-0.1-0.1-0.3-0.3-0.6-0.6s-0.5-0.5-0.6-0.6c-0.1-0.2-0.3-0.4-0.7-0.7c-0.2-0.3-0.3-0.5-0.3-0.6c-0.2-0.2-0.4-0.5-0.7-1
								l-0.1-0.1c0-0.1,0-0.1-0.1-0.1v-0.1c0-0.1,0-0.1-0.1-0.1L858,74.4 M817.4,125.5c-0.8,1.7-1.9,3.3-3.4,4.7
								c-3.3,3.3-7.2,4.9-11.7,4.9s-8.4-1.6-11.6-4.9c-3.3-3.2-4.9-7-4.9-11.6V-49.6c0-3.7,1.1-7,3.4-9.9c2.2-3,5.2-5,8.8-6
								c3.5-0.9,7-0.7,10.5,0.6c3.5,1.4,6.2,3.7,8.1,6.9l0.9,1.5"/>
							<path class="st2" d="M1101.3-61c9.9-3.2,20.4-4.8,31.7-4.8c3,0,6,0.1,8.9,0.3 M1182.4-53.1c7.7,4.4,14.9,10,21.6,16.6
								c7.9,8,14.3,16.6,19,25.9 M1223,79.7c-4.7,9.3-11,17.9-19,25.8c-6.7,6.7-13.9,12.3-21.6,16.7 M1141.9,134.7
								c-2.9,0.2-5.9,0.3-8.9,0.3c-11.2,0-21.8-1.6-31.7-4.8 M1060.8,104.2c-18.8-19.3-28.2-42.5-28.2-69.6s9.4-50.3,28.2-69.7
								 M1101.3,94.3c9.5,5.2,20,7.8,31.7,7.8c3,0,6-0.2,8.9-0.5 M1182.4,80.3c12-12.8,17.9-28,17.9-45.7s-6-33-17.9-45.8
								 M1141.9-32.3c-2.9-0.4-5.9-0.5-8.9-0.5c-11.6,0-22.2,2.6-31.7,7.7"/>
							<path class="st2" d="M1304.1-64.8L1304.1-64.8c3.4,1,6.1,2.9,8.3,5.7l32.3,41.6 M1385.3,34.7l27.7,35.7V-49
								c0-4.6,1.6-8.4,4.8-11.6c2.4-2.4,5.1-3.9,8.1-4.5 M1426,134.7c-0.1,0-0.2-0.1-0.6-0.2c-0.5-0.1-0.8-0.2-1.1-0.3
								c-0.1,0-0.3-0.1-0.6-0.3c-0.5-0.1-0.8-0.2-1.1-0.4c-0.2,0-0.4-0.1-0.6-0.3c-0.4-0.2-0.7-0.3-1-0.4c-0.3-0.2-0.5-0.3-0.6-0.4
								c-0.3-0.2-0.6-0.4-1-0.7c-0.3-0.2-0.5-0.3-0.6-0.4c-0.5-0.4-0.9-0.7-1.3-1.1l-0.1-0.1V130c-0.4-0.4-0.6-0.6-0.6-0.6
								s-0.1-0.2-0.4-0.6h-0.1v-0.1l-31.2-40.1 M1344.7,36.3l-28.8-37v119.3c0,4.6-1.6,8.4-4.9,11.6c-2,2.1-4.3,3.5-6.9,4.2"/>
						</g>
					</g>
				</g>
				<line class="st1" x1="411.8" y1="171.4" x2="1505.8" y2="171.4"/>
				<polyline class="st1" points="411.8,-92.9 391.7,-92.9 391.7,-123.3 422.1,-123.3 422.1,-103.2 				"/>
				<polyline class="st1" points="1495.4,-103.2 1495.4,-123.3 1525.8,-123.3 1525.8,-92.9 1505.8,-92.9 				"/>
				<rect x="391.7" y="224.3" class="st1" width="30.4" height="30.4"/>
				<rect x="1495.4" y="224.3" class="st1" width="30.4" height="30.4"/>
			</g>
			<line class="st2" x1="448" y1="-103.7" x2="448" y2="170.8"/>
			<line class="st2" x1="528.5" y1="-103.2" x2="528.5" y2="171.3"/>
			<line class="st1" x1="660" y1="-103.2" x2="660" y2="171.3"/>
			<line class="st2" x1="600.5" y1="-103.2" x2="600.5" y2="170.9"/>
			<line class="st2" x1="768.5" y1="-102.2" x2="768.5" y2="170.8"/>
			<line class="st2" x1="852.5" y1="-102.2" x2="852.5" y2="170"/>
			<line class="st2" x1="1014.5" y1="-103.2" x2="1014.5" y2="169.9"/>
			<line class="st2" x1="1176.5" y1="-103.2" x2="1176.5" y2="168.8"/>
			<line class="st2" x1="1258.5" y1="-103.2" x2="1258.5" y2="168.8"/>
			<line class="st2" x1="1456.5" y1="-103.2" x2="1456.5" y2="170.8"/>
			<path class="st2" d="M391.9-98.2c3.7-9.5,9.7-18,17.4-24.6"/>
			<path class="st2" d="M397.1-93.1c4.6-10.2,13.6-18.3,24.3-21.9"/>
			<path class="st2" d="M391.9,249.6c5.6,1.2,11.1,2.8,16.5,4.9"/>
			<path class="st2" d="M392.5,243.2c9.1,2.7,18.5,4.2,28,4.4"/>
			<path class="st2" d="M392.5,238.3c-0.6-0.2-1.2,0.5-0.9,1c10.1,1,20.3,1.3,30.4,0.9"/>
			<path class="st2" d="M1496,252c9.5-1.9,19-4.1,28.3-6.6"/>
			<path class="st2" d="M1495.6,248.7c6.5-1.7,12.8-4.3,18.7-7.7c3.3-1.9,7.2-4.2,10.8-2.9"/>
			<path class="st2" d="M1496,243.4c9.2-4.1,18.9-7.2,28.9-9"/>
			<path class="st2" d="M1172.4,251.2c10.9-10.7,23.5-19.5,37.2-26.2"/>
			<path class="st2" d="M1171.8,242.1c5.5-5.2,10.5-11,14.8-17.2"/>
			<path class="st2" d="M1183.9,254.5c23.5-9.6,46.9-19.5,70-30"/>
			<path class="st2" d="M1209.9,253.8c9.2-1.2,18.2-3.4,26.9-6.7c2.9-1.1,6.2-2.7,7-5.7c0.2-0.9,0.2-1.9,0.7-2.7
				c0.5-1,1.7-1.6,2.7-2.1c12.6-6,26.1-10.1,39.8-12.2"/>
			<path class="st2" d="M1319.5,225.1c10.2,2.3,21.1,5,28.2,12.7c0.5,0.5,0.9,1.3,0.5,1.9"/>
			<path class="st2" d="M569.4,234.8c4.4-4.4,10-7.7,16.1-9.4"/>
			<path class="st2" d="M569.3,244.1c10.8-7.2,22.2-13.6,34-19.2"/>
			<path class="st2" d="M568.6,251.6c9.7-4.3,19.4-8.5,29.2-12.8c5.5-2.4,11.2-4.9,17.2-5.3c2.4-0.2,4.8,0,7-0.8
				c4.6-1.7,7.2-7,11.9-8.1"/>
			<path class="st2" d="M579,255.2c12.6-1.6,25.3-3.2,37.9-4.7c4.3-0.5,8.9-1.2,12.3-3.9s5-8.3,2-11.5c18-5.2,36.5-8.6,55.2-10"/>
			<line class="st2" x1="422.6" y1="-110" x2="1495" y2="-110"/>
			<path class="st2" d="M392.6,206.4c1,0,2,0,3,0h1124.9"/>
			<line class="st2" x1="746.6" y1="240.9" x2="1171.1" y2="240.9"/>
			<line class="st2" x1="422.1" y1="233.4" x2="568.9" y2="233.4"/>
			<path class="st2" d="M1496-110.5c9.4,3.6,19.4,5.8,29.4,6.3"/>
			<path class="st2" d="M1501.3-123.2c6.1,6.8,15.1,10.8,24.2,10.9"/>
		</g>
		<g>
			<path class="st0" d="M1628.3,627c-3.1,0-5.6,2.4-5.7,5.5h-4.3v-10.7c0-0.1-0.1-0.3-0.3-0.3h-2.8v-6.8c0-0.1-0.1-0.3-0.3-0.3h-3.7
				v-54v-7.2V56.8v-8.6h9.9c0.1,0,0.3-0.1,0.3-0.3v-8.7h9.7c0.1,0,0.3-0.1,0.3-0.3V29c0-0.1-0.1-0.3-0.3-0.3h-9.7v-7.2h9.7
				c0.1,0,0.3-0.1,0.3-0.3v-9.9c0-0.1-0.1-0.3-0.3-0.3h-9.7V2.9c0-0.1-0.1-0.3-0.3-0.3h-9.9V-6v-8.8V-55v-37.6v-139.7
				c0-0.1-0.1-0.3-0.3-0.3h-24.7c-0.1,0-0.3,0.1-0.3,0.3v217.7v8.8v8.6h-9.9c-0.1,0-0.3,0.1-0.3,0.3v9.9h-29.6V9.4
				c0-0.1-0.1-0.3-0.3-0.3h-6.8V-1.4c0-0.1-0.1-0.3-0.3-0.3h-7.8v-0.6c0-0.1-0.1-0.3-0.3-0.3s-0.3,0.1-0.3,0.3v0.6h-4.9
				c-0.1,0-0.3,0.1-0.3,0.3v53.8c0,0.1,0.1,0.3,0.3,0.3h13.3c0.1,0,0.3-0.1,0.3-0.3V42.1h6.8c0.1,0,0.3-0.1,0.3-0.3v-3.6h29.6v9.9
				c0,0.1,0.1,0.3,0.3,0.3h9.9V57v496.4v7.2v54.1h-3.6c-0.1,0-0.3,0.1-0.3,0.3v6.8h-2.8c-0.1,0-0.3,0.1-0.3,0.3v10.7h-4.3
				c-0.1-3-2.6-5.5-5.7-5.5c-3.2,0-5.7,2.6-5.7,5.7c0,0.1,0.1,0.3,0.3,0.3h15.8h38.5h15.8c0.1,0,0.3-0.1,0.3-0.3
				C1634,629.6,1631.4,627,1628.3,627z"/>
			<g>
				<rect x="1525.8" y="-1.3" class="st1" width="13.3" height="53.8"/>
				<line class="st1" x1="1586.4" y1="3.1" x2="1586.4" y2="-232.4"/>
				<line class="st1" x1="1611" y1="-232.4" x2="1611" y2="3.1"/>
				<g>
					<line class="st1" x1="1586.4" y1="560.4" x2="1586.4" y2="48"/>
					<line class="st1" x1="1611" y1="48" x2="1611" y2="560.4"/>
				</g>
				<g>
					<rect x="1576.2" y="3.1" class="st1" width="44.9" height="44.9"/>
					<g>
						<circle class="st1" cx="1598.7" cy="25.5" r="10.8"/>
						<circle class="st1" cx="1598.7" cy="25.5" r="6.9"/>
					</g>
				</g>
				<rect x="1586.4" y="-5.8" class="st1" width="24.7" height="8.8"/>
				<rect x="1586.4" y="-14.6" class="st1" width="24.7" height="8.8"/>
				<rect x="1586.4" y="48" class="st1" width="24.7" height="8.8"/>
				<g>
					<g>
						<line class="st1" x1="1569.1" y1="37.9" x2="1569.1" y2="13.2"/>
					</g>
					<rect x="1539.1" y="9.3" class="st1" width="7" height="32.5"/>
					<line class="st1" x1="1576.2" y1="37.9" x2="1546.1" y2="37.9"/>
					<line class="st1" x1="1576.2" y1="13.2" x2="1546.1" y2="13.2"/>
				</g>
				<rect x="1598.7" y="-92.6" class="st1" width="12.3" height="37.9"/>
				<line class="st1" x1="1546.1" y1="18.7" x2="1569.1" y2="18.7"/>
				<rect x="1621.2" y="11.5" class="st1" width="9.9" height="9.9"/>
				<rect x="1621.2" y="29.1" class="st1" width="9.9" height="9.9"/>
				<path class="st1" d="M1631.1,16.9c41.7,2.2,83.5,4.2,125,0.1c57.1-5.6,113-22.8,163.5-50.1"/>
				<path class="st1" d="M1631.1,35.6c91.5,9,186.3,5,270.8-31c5.7-2.4,11.3-5,16.9-7.6"/>
				<g>
					<g>
						<rect x="1579.4" y="621.8" class="st1" width="38.5" height="10.9"/>
						<path class="st1" d="M1622.8,632.8c0-3,2.5-5.5,5.5-5.5s5.5,2.5,5.5,5.5"/>
						<path class="st1" d="M1563.7,632.8c0-3,2.5-5.5,5.5-5.5s5.5,2.5,5.5,5.5"/>
					</g>
					<g>
						<g>
							<line class="st1" x1="1611" y1="560.4" x2="1586.4" y2="560.4"/>
						</g>
						<rect x="1582.5" y="614.8" class="st1" width="32.5" height="7"/>
						<line class="st1" x1="1611" y1="553.3" x2="1611" y2="614.8"/>
						<line class="st1" x1="1586.4" y1="553.3" x2="1586.4" y2="614.8"/>
					</g>
					<line class="st1" x1="1592.5" y1="614.8" x2="1592.5" y2="560.4"/>
				</g>
				<line class="st1" x1="1586.5" y1="-226.2" x2="1610.3" y2="-226.2"/>
				<line class="st1" x1="1586.5" y1="-221.2" x2="1611" y2="-221.2"/>
				<line class="st1" x1="1586.4" y1="-210.2" x2="1610.1" y2="-210.2"/>
				<line class="st1" x1="1531" y1="-2.2" x2="1531" y2="52.3"/>
			</g>
			<line class="st2" x1="1601.5" y1="56.5" x2="1601.5" y2="560.4"/>
			<line class="st1" x1="1563.7" y1="632.8" x2="1633.7" y2="632.8"/>
			<line class="st1" x1="1586.4" y1="-232.4" x2="1611" y2="-232.4"/>
		</g>
	</g>
	<g id="_x31_3">
		<g>
			<g>
				<g>
					<path class="st1" d="M1658.7,632.8"/>
					<path class="st1" d="M1466.4,632.8"/>
					<path class="st1" d="M1229.6,632.8"/>
				</g>
			</g>
		</g>
	</g>
	<g id="_x31_7">
		<g>
			<line class="st3" x1="1280.9" y1="-123.3" x2="1319.4" y2="-123.3"/>
			<line class="st3" x1="1435.5" y1="-123.3" x2="1474" y2="-123.3"/>
		</g>
		<g>
			<g>
				<line class="st4" x1="771" y1="-199" x2="771" y2="-160.5"/>
			</g>
		</g>
	</g>
</g>
</svg>
