<?xml version="1.0" encoding="utf-8"?>
<!-- Generator: Adobe Illustrator 19.0.0, SVG Export Plug-In . SVG Version: 6.00 Build 0)  -->
<svg version="1.1" id="Слой_1" xmlns="http://www.w3.org/2000/svg" xmlns:xlink="http://www.w3.org/1999/xlink" x="0px" y="0px"
	 viewBox="0 -78.5 1920 556.5" style="enable-background:new 0 -78.5 1920 556.5;" xml:space="preserve">
<style type="text/css">
	.st0{fill:#F4E1A1;}
	.st1{fill:none;stroke:#827957;stroke-width:2;stroke-linecap:round;stroke-linejoin:round;stroke-miterlimit:10;}
	.st2{fill:none;stroke:#827957;stroke-linecap:round;stroke-linejoin:round;stroke-miterlimit:10;}
	
		.st3{fill:none;stroke:#827957;stroke-width:2;stroke-linecap:round;stroke-linejoin:round;stroke-miterlimit:10;stroke-dasharray:6.8508;}
	.st4{display:none;fill:none;stroke:#827957;stroke-width:2;stroke-linecap:round;stroke-linejoin:round;stroke-miterlimit:10;}
</style>
<g id="conveer_x5F_elements">
	<g id="_x30_4">
		<g>
			<polygon class="st0" points="1678.1,337.6 1678.1,308.9 1601.9,308.9 1601.9,301.5 1431.6,301.5 1431.6,308.9 1355.3,308.9 
				1355.3,366.3 1706.8,366.3 1706.8,337.6 			"/>
			<polyline class="st1" points="1706.8,366.3 1706.8,337.6 1678.1,337.6 1678.1,308.9 1355.3,308.9 1355.3,366.3 1706.8,366.3 			
				"/>
			<rect x="1431.6" y="301.5" class="st1" width="170.2" height="7.4"/>
			<g>
				<g>
					<circle class="st1" cx="1469.4" cy="345" r="10.8"/>
					<circle class="st1" cx="1469.4" cy="345" r="6.9"/>
				</g>
				<g>
					<circle class="st1" cx="1415.4" cy="345" r="10.8"/>
					<circle class="st1" cx="1415.4" cy="345" r="6.9"/>
				</g>
				<g>
					<circle class="st1" cx="1442.4" cy="345" r="10.8"/>
					<circle class="st1" cx="1442.4" cy="345" r="6.9"/>
				</g>
			</g>
			<line class="st1" x1="1678.1" y1="323.3" x2="1355.3" y2="323.3"/>
			<line class="st2" x1="1591.8" y1="301.9" x2="1591.8" y2="308.3"/>
			<line class="st2" x1="1587.8" y1="302.3" x2="1587.8" y2="307.9"/>
			<line class="st2" x1="1563.1" y1="301.6" x2="1563.1" y2="308.6"/>
			<path class="st2" d="M1469.6,352.3c-0.1,1.3,0,2.6,0.5,3.8"/>
			<path class="st2" d="M1473.1,350.8c0.8,0.6,1.7,1.2,2.5,1.8"/>
			<path class="st2" d="M1475.8,347.3c1.1-0.1,2.3,0.1,3.4,0.4"/>
			<path class="st2" d="M1475.5,341.5c0.5-1,1.5-1.8,2.6-2.1"/>
			<path class="st2" d="M1470.9,334.6c0.1,1.1,0,2.2-0.2,3.3"/>
			<path class="st2" d="M1463.6,336.3c0.5,0.9,1.1,1.7,1.7,2.5"/>
			<path class="st2" d="M1459.8,342.3c0.6,0.2,1.2,0.3,1.8,0.5"/>
			<path class="st2" d="M1462.5,347.3c-0.7,0.7-1.4,1.4-2.2,2.2"/>
			<path class="st2" d="M1465.1,350.8c-0.6,0.8-1.3,1.6-2,2.3"/>
			<path class="st2" d="M1443.3,352.3c0,1.1,0.3,2.2,0.7,3.2"/>
			<path class="st2" d="M1447.1,350.1c1,0.7,2,1.4,3,2.1"/>
			<path class="st2" d="M1449.1,347c1.1,0.2,2.2,0.5,3.3,0.7"/>
			<path class="st2" d="M1448.8,340.9c0,0.3,1.5-1.7,2-2.2"/>
			<path class="st2" d="M1443.4,334.4c0,1.1-0.2,2.1-0.6,3.1"/>
			<path class="st2" d="M1436.1,336.9c0.6,0.7,1.1,1.4,1.7,2.2"/>
			<path class="st2" d="M1431.8,342.5c1.1,0.2,2.2,0.3,3.3,0.4"/>
			<path class="st2" d="M1435.8,347.1c-0.9,1.2-2.9,1.5-3.5,3"/>
			<path class="st2" d="M1438.5,350.4c-0.3,1.3-0.7,2.5-1.2,3.7"/>
			<line class="st2" x1="1355.1" y1="317.8" x2="1677.6" y2="317.8"/>
			<path class="st2" d="M1480.1,344.3c0.3,0,0.7,0,1,0h225.5"/>
		</g>
		<g>
			<path class="st0" d="M1343.4,181.4c-16.6,0-30,13.4-30,30c0,12.3,7.4,22.9,18.1,27.6v8h8.4l0,0h-8.4v20h-5.5v5.7h-5.5v30.6h5.5
				v5.7h5.5v57.4h23.9V247h-8.4l0,0h8.4v-8l0,0c10.6-4.6,18.1-15.2,18.1-27.6C1373.4,194.9,1360,181.4,1343.4,181.4z"/>
			<g>
				<polyline class="st1" points="1326,303.3 1320.5,303.3 1320.5,272.6 1326,272.6 				"/>
				<rect x="1326" y="266.9" class="st1" width="5.5" height="41.9"/>
			</g>
			<polyline class="st1" points="1355.3,247 1355.3,366.3 1331.4,366.3 1331.4,247 			"/>
			<polyline class="st1" points="1355.3,239 1355.3,247 1331.4,247 1331.4,239 			"/>
			<path class="st1" d="M1355.3,239c10.6-4.6,18.1-15.2,18.1-27.6c0-16.6-13.4-30-30-30s-30,13.4-30,30c0,12.3,7.4,22.9,18.1,27.6"
				/>
			<path class="st1" d="M1343.4,198.3L1343.4,198.3c-2,0-3.5,1.6-3.5,3.5v45.1h7.1v-45.1C1346.9,199.9,1345.3,198.3,1343.4,198.3z"
				/>
			<line class="st1" x1="1331.4" y1="250.8" x2="1355.3" y2="250.8"/>
			<line class="st1" x1="1331.4" y1="256.8" x2="1355.3" y2="256.8"/>
			<g>
				<circle class="st1" cx="1343.4" cy="273.8" r="6.9"/>
				<circle class="st1" cx="1343.4" cy="273.8" r="4.3"/>
			</g>
			<g>
				<circle class="st1" cx="1343.4" cy="302" r="6.9"/>
				<circle class="st1" cx="1343.4" cy="302" r="4.3"/>
			</g>
			<line class="st1" x1="1339.9" y1="366.3" x2="1339.9" y2="328.8"/>
			<path class="st2" d="M1345.1,308.8c0,0.2,0,0.3,0,0.5v56.1"/>
		</g>
		<g>
			<line class="st3" x1="1395.2" y1="308.9" x2="1395.2" y2="68.9"/>
			<line class="st3" x1="1638.3" y1="68.9" x2="1638.3" y2="308.9"/>
		</g>
		<g>
			<line class="st1" x1="1565.7" y1="-36.5" x2="1523.6" y2="-36.5"/>
			<line class="st1" x1="1508.2" y1="-36.5" x2="1488" y2="-36.5"/>
		</g>
	</g>
	<g id="_x31_1">
		<rect x="4.4" y="366.3" class="st0" width="1920" height="7.4"/>
		<rect x="4.4" y="366.3" class="st1" width="1920" height="7.4"/>
	</g>
	<g id="_x31_2">
		<g>
			<path class="st0" d="M1382.7,373.6v8.6h34.9v7h3.9v15.9l0,0V426l0,0v3.4h-3.4h-20.9H1365h-33.6h-79.5h-8.8v-10.1h-44.9v10.1h-8.8
				h-97.9h-20.9h-3.4V426l0,0v-20.9l0,0v-15.9h3.9v-7h17v-8.6h-59.7v8.6h10.2v7h3.9v15.9V426v3.4l0,0c0,13.6,11,24.7,24.7,24.7h3.4
				h20.9h97.9h8.8v10.1h44.9v-10.1h8.8h145.3h20.9h3.4l0,0c13.6,0,24.7-11,24.7-24.7l0,0V426v-20.9v-15.9h3.9v-7h41.1v-8.6H1382.7z"
				/>
			<rect x="1382.7" y="373.6" class="st1" width="108.4" height="8.6"/>
			<rect x="1028.3" y="373.6" class="st1" width="59.7" height="8.6"/>
			<g>
				<path class="st1" d="M1067.1,429.6v-40.3h-24.7v40.3l0,0c0,13.6,11,24.7,24.7,24.7l0,0h131v-24.7H1067.1z"/>
				<g>
					<rect x="1070.5" y="429.6" class="st1" width="20.9" height="24.7"/>
					<line class="st1" x1="1084.4" y1="429.6" x2="1084.4" y2="454.3"/>
				</g>
				<g>
					<rect x="1042.5" y="405.3" class="st1" width="24.7" height="20.9"/>
					<line class="st1" x1="1042.5" y1="412.3" x2="1067.1" y2="412.3"/>
				</g>
				<rect x="1038.6" y="382.3" class="st1" width="32.5" height="7"/>
			</g>
			<g>
				<path class="st1" d="M1421.5,429.6v-40.3h24.7v40.3l0,0c0,13.6-11,24.7-24.7,24.7l0,0h-178.4v-24.7H1421.5z"/>
				<g>
					<rect x="1397.2" y="429.6" class="st1" width="20.9" height="24.7"/>
					<line class="st1" x1="1404.2" y1="429.6" x2="1404.2" y2="454.3"/>
				</g>
				<g>
					<rect x="1421.5" y="405.3" class="st1" width="24.7" height="20.9"/>
					<line class="st1" x1="1446.2" y1="412.3" x2="1421.5" y2="412.3"/>
				</g>
				<rect x="1417.6" y="382.3" class="st1" width="32.5" height="7"/>
			</g>
			<g>
				<rect x="1198.1" y="419.4" class="st1" width="44.9" height="44.9"/>
				<g>
					<circle class="st1" cx="1220.6" cy="441.9" r="10.8"/>
					<circle class="st1" cx="1220.6" cy="441.9" r="6.9"/>
				</g>
			</g>
			<rect x="1189.3" y="429.6" class="st1" width="8.8" height="24.7"/>
			<rect x="1243.1" y="429.6" class="st1" width="8.8" height="24.7"/>
			<rect x="1331.4" y="429.6" class="st1" width="33.6" height="12.3"/>
			<path class="st2" d="M1445.8,382.3c-0.4,2.5-0.8,4.9-1.1,7.4"/>
			<path class="st2" d="M1442.7,382.9c0.1,2.2,0.2,4.3,0.2,6.5"/>
			<path class="st2" d="M1440.2,382.8c-0.1,2.2-0.1,4.3,0.1,6.5"/>
			<path class="st2" d="M1245.2,430.1c0,7.7,0.1,15.3,0.3,23"/>
			<path class="st2" d="M1195.6,429.9c-0.5,7.8-0.8,15.6-0.9,23.5"/>
			<path class="st2" d="M1066.6,382.8c-0.2,2.4-0.6,4.7-1.2,7"/>
			<path class="st2" d="M1064.1,383c0,2.2-0.2,4.5-0.4,6.7"/>
			<path class="st2" d="M1061,383.1c0,1.9,0,3.9,0,5.8"/>
			<path class="st2" d="M1044.7,382.9c0.1,2.2,0.1,4.3,0.1,6.5"/>
		</g>
		<g>
			<path class="st0" d="M968.6,373.6v8.6h16.8v7h3.9v15.9l0,0V426l0,0v3.4h-3.4H965H630.2h-8.8h-8.8v24.7h3.2l0,0l0,0h5.6h8.8h40.2
				h37.9H965h20.9h3.4c13.6,0,24.7-11,24.7-24.7V426v-20.9v-15.9h3.9v-7h10.4v-8.6H968.6z"/>
			<rect x="968.6" y="373.6" class="st1" width="59.7" height="8.6"/>
			<path class="st1" d="M612.5,429.6h376.8v-40.3h24.7v40.3c0,13.6-11,24.7-24.7,24.7H612.5"/>
			<g>
				<rect x="965" y="429.6" class="st1" width="20.9" height="24.7"/>
				<line class="st1" x1="972" y1="429.6" x2="972" y2="454.3"/>
			</g>
			<g>
				<rect x="989.3" y="405.3" class="st1" width="24.7" height="20.9"/>
				<line class="st1" x1="1014" y1="412.3" x2="989.3" y2="412.3"/>
			</g>
			<rect x="985.4" y="382.3" class="st1" width="32.5" height="7"/>
			<rect x="612.5" y="429.6" class="st1" width="8.8" height="24.7"/>
			<rect x="621.4" y="429.6" class="st1" width="8.8" height="24.7"/>
			<rect x="670.3" y="441.9" class="st1" width="37.9" height="12.3"/>
			<path class="st2" d="M1014.1,383.1c-0.1,2.3-0.2,4.7-0.3,7c0-0.1,0-0.1,0-0.2"/>
			<path class="st2" d="M1011,382.8c0.1,2.2,0.2,4.3,0.3,6.5"/>
			<path class="st2" d="M1009,382.3c-0.3,2.4-0.2,4.8,0.3,7.2"/>
			<path class="st2" d="M990.7,383.3c-0.3,2.2-0.6,4.3-0.9,6.5"/>
			<path class="st2" d="M615,429.9c0.1,5.7,0.1,11.5,0.2,17.2c0,2.4,0,4.8,0.6,7.2c0.1-0.2,0.2-0.5,0.1-0.7"/>
		</g>
		<g>
			<rect x="384.9" y="429.6" class="st0" width="182.7" height="24.7"/>
			<line class="st1" x1="384.9" y1="429.6" x2="567.6" y2="429.6"/>
			<line class="st1" x1="567.6" y1="454.3" x2="384.9" y2="454.3"/>
			<rect x="558.8" y="429.6" class="st1" width="8.8" height="24.7"/>
			<line class="st1" x1="389.1" y1="429.8" x2="389.1" y2="454.3"/>
			<line class="st1" x1="396.1" y1="429.6" x2="396.1" y2="453.8"/>
			<line class="st1" x1="401.1" y1="430.3" x2="401.1" y2="453.3"/>
			<path class="st2" d="M565.1,429.8c-0.3,7.9-0.6,15.8-0.9,23.7c0,0.1,0,0.3,0.1,0.4s0.3-0.1,0.2-0.2"/>
			<line class="st1" x1="384.9" y1="429.6" x2="384.9" y2="454.3"/>
		</g>
		<g>
			<rect x="3.4" y="429.6" class="st0" width="336.6" height="24.7"/>
			<line class="st1" x1="3.4" y1="429.6" x2="340" y2="429.6"/>
			<line class="st1" x1="340" y1="454.3" x2="3.4" y2="454.3"/>
			<line class="st1" x1="335.1" y1="429.6" x2="335.1" y2="454.3"/>
			<line class="st1" x1="325.1" y1="430.3" x2="325.1" y2="453.3"/>
			<line class="st1" x1="340" y1="429.6" x2="340" y2="454.3"/>
			<line class="st1" x1="3.4" y1="429.6" x2="3.4" y2="454.3"/>
		</g>
		<g>
			<polyline class="st0" points="374.8,471.4 378.7,471.4 378.7,464.4 384.9,464.4 384.9,419.4 340,419.4 340,464.4 346.2,464.4 
				346.2,471.4 350.6,471.4 			"/>
			<g>
				<rect x="340" y="419.4" class="st1" width="44.9" height="44.9"/>
				<g>
					<circle class="st1" cx="362.4" cy="441.9" r="10.8"/>
					<circle class="st1" cx="362.4" cy="441.9" r="6.9"/>
				</g>
			</g>
			<g>
				<g>
					<rect x="346.2" y="464.4" class="st1" width="32.5" height="7"/>
					<path class="st1" d="M350.1,471.4"/>
					<path class="st1" d="M374.8,471.4"/>
				</g>
			</g>
		</g>
		<g>
			<g>
				<polygon class="st0" points="606.3,389.3 606.3,382.3 617,382.3 617,373.6 563.2,373.6 563.2,382.3 573.8,382.3 573.8,389.3 
					577.7,389.3 577.7,419.4 567.6,419.4 567.6,464.4 573.3,464.4 573.3,474.3 583.2,474.3 583.2,464.4 591,464.4 591,474.3 
					600.9,474.3 600.9,464.4 612.5,464.4 612.5,419.4 602.4,419.4 602.4,389.3 				"/>
			</g>
			<rect x="563.2" y="373.6" class="st1" width="53.8" height="8.6"/>
			<g>
				<rect x="567.6" y="419.4" class="st1" width="44.9" height="44.9"/>
				<g>
					<circle class="st1" cx="590.1" cy="441.9" r="10.8"/>
					<circle class="st1" cx="590.1" cy="441.9" r="6.9"/>
				</g>
			</g>
			<g>
				<g>
					<line class="st1" x1="577.7" y1="412.3" x2="602.4" y2="412.3"/>
				</g>
				<rect x="573.8" y="382.3" class="st1" width="32.5" height="7"/>
				<line class="st1" x1="577.7" y1="419.4" x2="577.7" y2="389.3"/>
				<line class="st1" x1="602.4" y1="419.4" x2="602.4" y2="389.3"/>
			</g>
			<line class="st1" x1="596.9" y1="389.3" x2="596.9" y2="412.3"/>
			<g>
				<rect x="573.3" y="464.4" class="st1" width="9.9" height="9.9"/>
				<rect x="591" y="464.4" class="st1" width="9.9" height="9.9"/>
			</g>
			<path class="st2" d="M599.8,412.9c0,1.8,0,3.7,0,5.5"/>
			<path class="st2" d="M595.2,412.4c0.3,2.5,0.5,4.9,0.8,7.4"/>
			<path class="st2" d="M601.9,382.3c0,2.2-0.3,4.5-0.9,6.7"/>
			<path class="st2" d="M598.1,382.8c0.4,2.2,0.5,4.5,0.5,6.7"/>
			<path class="st2" d="M579.8,382.8c0.6,2.4,1,4.8,1.3,7.2"/>
			<path class="st2" d="M612.6,374.6c0.1,2.5,0,5-0.4,7.5"/>
			<path class="st2" d="M609,374.1c0.2,2.6,0.4,5.3,0.7,7.9"/>
		</g>
	</g>
	<g id="_x31_4">
		<g>
			<g>
				<path class="st0" d="M1579.2,323.3h-10.9c0,3,2.5,5.5,5.5,5.5S1579.2,326.3,1579.2,323.3z"/>
				<path class="st0" d="M1627.4,323.3c0,3,2.5,5.5,5.5,5.5s5.5-2.5,5.5-5.5H1627.4z"/>
				<path class="st0" d="M1615.6,447.9h10.1V403h-10.1v-61.7h3.9v-7h3v-10.9H1584v10.9h3v7h3.9V403h-10.1v6.7h-1.8
					c0-0.1,0-0.2,0-0.3v0.3h-8.2v9.9h5.1c0,0.1,0,0.1,0,0.2c0.1-0.1,0.1-0.1,0.1-0.2h1.7l0,0l0,0h3v7.7h-2.1l0,0l0,0h-7.9v9.9h9.9
					V448h10.1"/>
			</g>
			<g>
				<g>
					<rect x="1580.8" y="402.9" class="st1" width="44.9" height="44.9"/>
					<g>
						<circle class="st1" cx="1603.3" cy="425.4" r="10.8"/>
						<circle class="st1" cx="1603.3" cy="425.4" r="6.9"/>
					</g>
				</g>
				<rect x="1570.9" y="409.6" class="st1" width="9.9" height="9.9"/>
				<rect x="1570.9" y="427.3" class="st1" width="9.9" height="9.9"/>
				<path class="st1" d="M1570.9,414.4c-14,0.3-28.2-4.3-38.6-13.6c-7.9-7-13.4-16.8-15.2-27.1"/>
				<path class="st1" d="M1570.9,432.8c-15.3-2.5-29.3-12.5-36.5-26.2c-5.2-10-6.8-21.7-4.7-32.8"/>
				<path class="st2" d="M1579.1,409.3c0,3.4-0.1,6.8-0.2,10.2"/>
				<path class="st2" d="M1576.9,409.9c0.1,3.3,0.4,6.5,1,9.7"/>
				<path class="st2" d="M1575.6,410.1c-0.1,3.2,0,6.5,0.4,9.7c0.1-0.1,0.1-0.3,0.1-0.4"/>
				<path class="st2" d="M1578.8,427.3c0.1,3.3-0.1,6.6-0.4,9.9"/>
				<path class="st2" d="M1577.3,427.8c-0.2,3.1-0.3,6.2-0.3,9.2"/>
				<path class="st2" d="M1574.9,427.4c0.6,2,1.2,4,1.9,6"/>
			</g>
			<g>
				<g>
					<rect x="1584" y="323.3" class="st1" width="38.5" height="10.9"/>
					<path class="st1" d="M1579.2,323.3c0,3-2.5,5.5-5.5,5.5s-5.5-2.5-5.5-5.5"/>
					<path class="st1" d="M1638.3,323.3c0,3-2.5,5.5-5.5,5.5s-5.5-2.5-5.5-5.5"/>
				</g>
				<g>
					<g>
						<line class="st1" x1="1591" y1="395.6" x2="1615.6" y2="395.6"/>
					</g>
					<rect x="1587.1" y="334.3" class="st1" width="32.5" height="7"/>
					<line class="st1" x1="1591" y1="402.8" x2="1591" y2="341.3"/>
					<line class="st1" x1="1615.6" y1="402.8" x2="1615.6" y2="341.3"/>
				</g>
				<line class="st1" x1="1609.5" y1="341.3" x2="1609.5" y2="395.6"/>
				<path class="st2" d="M1618.5,323.8c-0.1,3.3-0.3,6.6-0.7,9.9c0,0.1,0,0.2,0.1,0.3s0.2-0.1,0.1-0.1"/>
				<path class="st2" d="M1616.4,324c-0.1,3.4-0.1,6.8,0,10.2c0-0.2,0-0.4,0.1-0.6"/>
				<path class="st2" d="M1611.4,323.6c0.1,0.5,0.1,1.1,0.2,1.6c0.3,2.3,0.6,4.7,0.5,7.1c0,0.6,0,1.2,0.3,1.6"/>
				<path class="st2" d="M1588.2,323.5c0,3.3-0.1,6.7-0.1,10c0,0.2,0.1,0.4,0.3,0.4"/>
				<path class="st2" d="M1614.1,334.1c0,2.5-0.2,4.9-0.6,7.4c0-0.1,0-0.2,0.1-0.3"/>
				<path class="st2" d="M1611.1,334.1c0.1,2.3,0.3,4.7,0.5,7"/>
				<path class="st2" d="M1612.2,395.5c0.1,2.4,0,4.8-0.3,7.2c0-0.1,0-0.2,0.1-0.3"/>
				<line class="st1" x1="1568.3" y1="323.3" x2="1638.3" y2="323.3"/>
				<line class="st1" x1="1591" y1="402.8" x2="1615.6" y2="402.8"/>
			</g>
			<g>
				<path class="st1" d="M1609.5,447.9"/>
				<g>
					<path class="st1" d="M1591,447.9"/>
					<path class="st1" d="M1615.6,447.9"/>
				</g>
				<line class="st1" x1="1591" y1="447.9" x2="1615.6" y2="447.9"/>
			</g>
		</g>
	</g>
	<g id="_x31_6">
		<g>
			<line class="st1" x1="805.7" y1="-31.7" x2="805.7" y2="-19.5"/>
		</g>
		<g>
			<g>
				<path class="st0" d="M805,366.3H3.4C270.1,366.3,538.1,366.3,805,366.3z"/>
				<path class="st0" d="M757.5,308.9v-7.4H587.2v7.4h-46.5v-7.4H370.5v7.4h-45.9v-7.4H154.3v7.4H3.5v12.4c-0.1,0-0.1-0.1-0.2-0.1
					l0.2,13.3L3.3,346c0.1,0,0.1-0.1,0.2-0.1v9.1h833.3v-46.1L757.5,308.9L757.5,308.9z"/>
			</g>
			<rect x="154.3" y="301.5" class="st1" width="170.2" height="7.4"/>
			<rect x="370.5" y="301.5" class="st1" width="170.2" height="7.4"/>
			<rect x="587.2" y="301.5" class="st1" width="170.2" height="7.4"/>
			<g>
				<line class="st1" x1="3.4" y1="308.9" x2="836.8" y2="308.9"/>
				<line class="st1" x1="836.8" y1="354.9" x2="3.4" y2="354.9"/>
				<line class="st1" x1="3.4" y1="311.6" x2="836.8" y2="311.6"/>
				<line class="st1" x1="836.8" y1="352.3" x2="3.4" y2="352.3"/>
				<g>
					<circle class="st1" cx="122.7" cy="331.9" r="15.9"/>
					<path class="st1" d="M122.7,345c-7.2,0-13.1-5.9-13.1-13.1s5.9-13.1,13.1-13.1s13.1,5.9,13.1,13.1S129.9,345,122.7,345z"/>
					<circle class="st1" cx="122.7" cy="331.9" r="5.8"/>
					<line class="st1" x1="122.7" y1="337.8" x2="122.7" y2="347.8"/>
				</g>
				<g>
					<circle class="st1" cx="154.4" cy="331.9" r="5.8"/>
				</g>
				<g>
					<circle class="st1" cx="186.1" cy="331.9" r="15.9"/>
					<path class="st1" d="M186.1,345c-7.2,0-13.1-5.9-13.1-13.1s5.9-13.1,13.1-13.1s13.1,5.9,13.1,13.1S193.3,345,186.1,345z"/>
					<circle class="st1" cx="186.1" cy="331.9" r="5.8"/>
					<line class="st1" x1="186.1" y1="337.8" x2="186.1" y2="347.8"/>
				</g>
				<g>
					<circle class="st1" cx="217.8" cy="331.9" r="5.8"/>
				</g>
				<g>
					<circle class="st1" cx="249.5" cy="331.9" r="15.9"/>
					<path class="st1" d="M249.5,345c-7.2,0-13.1-5.9-13.1-13.1s5.9-13.1,13.1-13.1s13.1,5.9,13.1,13.1S256.8,345,249.5,345z"/>
					<circle class="st1" cx="249.5" cy="331.9" r="5.8"/>
					<line class="st1" x1="249.5" y1="337.8" x2="249.5" y2="347.8"/>
				</g>
				<g>
					<path class="st1" d="M3.8,318.1c4.8,2.7,8,7.9,8,13.8c0,6-3.4,11.3-8.4,14"/>
					<path class="st1" d="M3.4,321.3C6.8,323.7,9,327.5,9,332c0,4.3-2.1,8.2-5.4,10.6"/>
				</g>
				<g>
					<circle class="st1" cx="27.6" cy="331.9" r="5.8"/>
				</g>
				<g>
					<circle class="st1" cx="59.3" cy="331.9" r="15.9"/>
					<path class="st1" d="M59.3,345c-7.2,0-13.1-5.9-13.1-13.1s5.9-13.1,13.1-13.1s13.1,5.9,13.1,13.1S66.5,345,59.3,345z"/>
					<circle class="st1" cx="59.3" cy="331.9" r="5.8"/>
					<line class="st1" x1="59.3" y1="337.8" x2="59.3" y2="347.8"/>
				</g>
				<g>
					<circle class="st1" cx="91" cy="331.9" r="5.8"/>
				</g>
				<g>
					<circle class="st1" cx="281.2" cy="331.9" r="5.8"/>
				</g>
				<g>
					<circle class="st1" cx="312.9" cy="331.9" r="15.9"/>
					<path class="st1" d="M312.9,345c-7.2,0-13.1-5.9-13.1-13.1s5.9-13.1,13.1-13.1S326,324.8,326,332S320.2,345,312.9,345z"/>
					<circle class="st1" cx="312.9" cy="331.9" r="5.8"/>
					<line class="st1" x1="312.9" y1="337.8" x2="312.9" y2="347.8"/>
				</g>
				<g>
					<circle class="st1" cx="344.6" cy="331.9" r="5.8"/>
				</g>
				<g>
					<circle class="st1" cx="376.3" cy="331.9" r="15.9"/>
					<path class="st1" d="M376.3,345c-7.2,0-13.1-5.9-13.1-13.1s5.9-13.1,13.1-13.1s13.1,5.9,13.1,13.1S383.6,345,376.3,345z"/>
					<circle class="st1" cx="376.3" cy="331.9" r="5.8"/>
					<line class="st1" x1="376.3" y1="337.8" x2="376.3" y2="347.8"/>
				</g>
				<g>
					<circle class="st1" cx="408.1" cy="331.9" r="5.8"/>
				</g>
				<g>
					<circle class="st1" cx="439.8" cy="331.9" r="15.9"/>
					<path class="st1" d="M439.8,345c-7.2,0-13.1-5.9-13.1-13.1s5.9-13.1,13.1-13.1s13.1,5.9,13.1,13.1S447,345,439.8,345z"/>
					<circle class="st1" cx="439.8" cy="331.9" r="5.8"/>
					<line class="st1" x1="439.8" y1="337.8" x2="439.8" y2="347.8"/>
				</g>
				<g>
					<circle class="st1" cx="471.5" cy="331.9" r="5.8"/>
				</g>
				<g>
					<circle class="st1" cx="503.2" cy="331.9" r="15.9"/>
					<path class="st1" d="M503.2,345c-7.2,0-13.1-5.9-13.1-13.1s5.9-13.1,13.1-13.1s13.1,5.9,13.1,13.1S510.4,345,503.2,345z"/>
					<circle class="st1" cx="503.2" cy="331.9" r="5.8"/>
					<line class="st1" x1="503.2" y1="337.8" x2="503.2" y2="347.8"/>
				</g>
				<g>
					<circle class="st1" cx="534.9" cy="331.9" r="5.8"/>
				</g>
				<g>
					<circle class="st1" cx="566.6" cy="331.9" r="15.9"/>
					<path class="st1" d="M566.6,345c-7.2,0-13.1-5.9-13.1-13.1s5.8-13.1,13.1-13.1s13.1,5.9,13.1,13.1S573.8,345,566.6,345z"/>
					<circle class="st1" cx="566.6" cy="331.9" r="5.8"/>
					<line class="st1" x1="566.6" y1="337.8" x2="566.6" y2="347.8"/>
				</g>
				<g>
					<circle class="st1" cx="598.3" cy="331.9" r="5.8"/>
				</g>
				<g>
					<circle class="st1" cx="630" cy="331.9" r="15.9"/>
					<path class="st1" d="M630,345c-7.2,0-13.1-5.9-13.1-13.1s5.9-13.1,13.1-13.1s13.1,5.9,13.1,13.1S637.2,345,630,345z"/>
					<circle class="st1" cx="630" cy="331.9" r="5.8"/>
					<line class="st1" x1="630" y1="337.8" x2="630" y2="347.8"/>
				</g>
				<g>
					<circle class="st1" cx="661.7" cy="331.9" r="5.8"/>
				</g>
				<g>
					<circle class="st1" cx="693.4" cy="331.9" r="15.9"/>
					<path class="st1" d="M693.4,345c-7.2,0-13.1-5.9-13.1-13.1s5.9-13.1,13.1-13.1c7.2,0,13.1,5.9,13.1,13.1S700.6,345,693.4,345z"
						/>
					<circle class="st1" cx="693.4" cy="331.9" r="5.8"/>
					<line class="st1" x1="693.4" y1="337.8" x2="693.4" y2="347.8"/>
				</g>
				<g>
					<circle class="st1" cx="725.1" cy="331.9" r="5.8"/>
				</g>
				<g>
					<circle class="st1" cx="756.8" cy="331.9" r="15.9"/>
					<path class="st1" d="M756.8,345c-7.2,0-13.1-5.9-13.1-13.1s5.9-13.1,13.1-13.1s13.1,5.9,13.1,13.1S764,345,756.8,345z"/>
					<circle class="st1" cx="756.8" cy="331.9" r="5.8"/>
					<line class="st1" x1="756.8" y1="337.8" x2="756.8" y2="347.8"/>
				</g>
				<g>
					<circle class="st1" cx="788.5" cy="331.9" r="5.8"/>
				</g>
				<g>
					<circle class="st1" cx="820.2" cy="331.9" r="15.9"/>
					<path class="st1" d="M820.2,345c-7.2,0-13.1-5.9-13.1-13.1s5.9-13.1,13.1-13.1s13.1,5.9,13.1,13.1S827.4,345,820.2,345z"/>
					<circle class="st1" cx="820.2" cy="331.9" r="5.8"/>
					<line class="st1" x1="820.2" y1="337.8" x2="820.2" y2="347.8"/>
				</g>
			</g>
			<path class="st1" d="M805,366.3c-266.9,0-534.9,0-801.6,0"/>
			<line class="st1" x1="3.4" y1="308.9" x2="3.4" y2="354.9"/>
			<line class="st1" x1="836.8" y1="308.9" x2="836.8" y2="354.9"/>
		</g>
		<g>
			<path class="st0" d="M1153.9-37.5h-23c-0.1-0.1-0.2-0.2-0.3-0.2c-0.2,0-0.3,0.1-0.4,0.2H992.7v-8.9c0-0.6-0.4-1-1-1h-9.9
				c-0.6,0-1,0.4-1,1v8.9h-6.1v-8.9c0-0.6-0.4-1-1-1h-9.9c-0.6,0-1,0.4-1,1v8.9h-15.5v-7.7c0-0.6-0.4-1-1-1h-8.7v-9
				c0-10.9-8.8-19.7-19.7-19.7s-19.7,8.8-19.7,19.7v9h-8.6c-0.6,0-1,0.4-1,1v7.7h-82.8c-0.6,0-1,0.4-1,1v21.7c0,0.6,0.4,1,1,1h30.1
				v10.3h-23h-7.1c-0.6,0-1,0.4-1,1v85.1h-5.4c-0.6,0-1,0.4-1,1v5.3c-3.1,0.5-5.5,3.2-5.5,6.4s2.4,5.9,5.5,6.4v14.8
				c-3.1,0.5-5.5,3.2-5.5,6.4s2.4,5.9,5.5,6.4v5.3c0,0.6,0.4,1,1,1h5.4V309c0,0.4,0.2,0.7,0.6,0.9c0.2,0.3,0.5,0.5,0.8,0.5h30
				c0,18.4,0,36.8,0,55c-1.6,0-3.3,0-4.9,0l0,0c-0.6,0-1,0.4-1,1s0.4,1,1,1c1.9,0,3.9,0,5.8,0h0.1c19.7,0,38.4,0,58.3,0v29l-4,8.6
				c-0.1,0.3-0.1,0.7,0.1,1s0.5,0.5,0.8,0.5h32.9c0.3,0,0.7-0.2,0.8-0.5s0.2-0.7,0.1-1l-4-8.6v-29h200.7c0.6,0,1-0.4,1-1V62.3h9.9
				c0.6,0,1-0.4,1-1V16.2c0-0.6-0.4-1-1-1h-9.9c0.5-16.1,13.8-29,30.1-29c0.6,0,1-0.4,1-1v-21.7
				C1154.9-37.1,1154.4-37.5,1153.9-37.5z"/>
			<path class="st1" d="M805.7,128.3c0.4,60,0.4,121,0.4,181c10,0,21,0,31,0c0-60,0-121-0.3-180.9c0,3.7,0,0,0,0
				c0.3,78.9,0.3,158.9,0.3,237.9c20,0,39,0,59.3,0c-1,0-0.3,0,0,0c-22.3,0-43.3,0-65.2,0"/>
			<polyline class="st1" points="805.7,89.8 805.7,-2.5 836.8,-2.5 836.8,89.8 836.8,-14.8 			"/>
			<rect x="1065.9" y="16.2" class="st1" width="67.8" height="45.2"/>
			<polyline class="st1" points="1109.1,61.3 1109.1,352.5 921.1,352.5 			"/>
			<polyline class="st1" points="896.4,352.5 850.5,352.5 850.5,128.3 			"/>
			<polyline class="st1" points="850.5,89.8 850.5,-1.1 1109.1,-1.1 1109.1,16.2 			"/>
			<path class="st1" d="M799.3,128.3c-3,0-5.5-2.5-5.5-5.5s2.5-5.5,5.5-5.5"/>
			<path class="st1" d="M799.3,100.8c-3,0-5.5-2.5-5.5-5.5s2.5-5.5,5.5-5.5"/>
			<g>
				<rect x="889.4" y="275.3" class="st1" width="38.5" height="10.9"/>
				<path class="st1" d="M884.6,275.3c0,3-2.5,5.5-5.5,5.5s-5.5-2.5-5.5-5.5"/>
				<path class="st1" d="M943.8,275.3c0,3-2.5,5.5-5.5,5.5s-5.5-2.5-5.5-5.5"/>
			</g>
			<rect x="805.7" y="-36.5" class="st1" width="348.2" height="21.7"/>
			<rect x="991.1" y="16.2" class="st1" width="17.6" height="45.2"/>
			<rect x="1008.7" y="25.3" class="st1" width="9.9" height="9.9"/>
			<rect x="1008.7" y="43.3" class="st1" width="9.9" height="9.9"/>
			<rect x="981.2" y="25.3" class="st1" width="9.9" height="9.9"/>
			<rect x="981.2" y="43.3" class="st1" width="9.9" height="9.9"/>
			<rect x="850.5" y="16.2" class="st1" width="17.6" height="45.2"/>
			<rect x="868.2" y="25.3" class="st1" width="9.9" height="9.9"/>
			<rect x="868.2" y="43.3" class="st1" width="9.9" height="9.9"/>
			<path class="st1" d="M819.2,89.8h141.3c10.6,0,19.3,8.6,19.3,19.3l0,0c0,10.6-8.6,19.3-19.3,19.3H819.2V89.8z"/>
			<path class="st1" d="M979.4,105.1c-1.8,8.8-9.6,15.4-18.9,15.4H819.2"/>
			<path class="st1" d="M941.9,128.3c4.8,4.7,11.4,7.5,18.6,7.5c14.8,0,26.8-12,26.8-26.8s-12-26.8-26.8-26.8
				c-7.2,0-13.8,2.9-18.6,7.5"/>
			<path class="st1" d="M933.8,128.3c6,8.3,15.7,13.7,26.7,13.7c18.2,0,33-14.8,33-33s-14.8-33-33-33c-11,0-20.7,5.4-26.7,13.7"/>
			<path class="st1" d="M1153.9-14.8c-17.1,0-31.1,13.9-31.1,31"/>
			<line class="st1" x1="850.5" y1="160.3" x2="1109.1" y2="160.3"/>
			<line class="st1" x1="966.9" y1="262.1" x2="850.5" y2="262.1"/>
			<line class="st1" x1="966.9" y1="275.3" x2="850.5" y2="275.3"/>
			<line class="st1" x1="1069.5" y1="262.1" x2="1109.1" y2="262.1"/>
			<rect x="832" y="9.3" class="st1" width="4.8" height="69.8"/>
			<rect x="827.9" y="47.7" class="st1" width="4.1" height="9.6"/>
			<rect x="827.9" y="30.8" class="st1" width="4.1" height="9.6"/>
			<rect x="827.9" y="14" class="st1" width="4.1" height="9.6"/>
			<rect x="805.7" y="-2.5" class="st1" width="7.1" height="311.4"/>
			<path class="st1" d="M812.8,84.9L812.8,84.9L812.8,84.9z"/>
			<rect x="812.8" y="83.6" class="st1" width="6.4" height="50.9"/>
			<rect x="799.3" y="83.6" class="st1" width="6.4" height="50.9"/>
			<polyline class="st1" points="921.1,366.3 1122.8,366.3 1122.8,61.3 			"/>
			<circle class="st1" cx="1072.8" cy="23" r="2.2"/>
			<circle class="st1" cx="1072.8" cy="54.5" r="2.2"/>
			<line class="st1" x1="812.8" y1="184" x2="836.8" y2="184"/>
			<line class="st1" x1="812.8" y1="197.3" x2="836.8" y2="197.3"/>
			<line class="st1" x1="812.8" y1="210.5" x2="836.8" y2="210.5"/>
			<line class="st1" x1="812.8" y1="223.8" x2="836.8" y2="223.8"/>
			<line class="st1" x1="812.8" y1="237" x2="836.8" y2="237"/>
			<line class="st1" x1="812.8" y1="295.6" x2="836.8" y2="295.6"/>
			<g>
				<g>
					<line class="st1" x1="896.4" y1="389.3" x2="921.1" y2="389.3"/>
				</g>
				<rect x="892.5" y="286.1" class="st1" width="32.5" height="7"/>
				<line class="st1" x1="896.4" y1="396.5" x2="896.4" y2="293.1"/>
				<line class="st1" x1="921.1" y1="396.5" x2="921.1" y2="293.1"/>
			</g>
			<path class="st1" d="M1018.7,32.2c1.9,0.2,3.8,0.3,5.7,0.4c13.9,0.7,28.3,1.3,41.6-2.7"/>
			<path class="st1" d="M1018.7,49.3c15.7,2.4,31.7,2,47.3-1.1"/>
			<path class="st1" d="M878.1,31.7c33.9,6.6,69.2,6.4,103.1-0.6"/>
			<path class="st1" d="M878.1,49.9c34.4,5,70.2,9.3,103.1-1.2"/>
			<path class="st1" d="M1018.7,28.8c10.1,0.1,20.2-0.3,30.2-1.2c5.9-0.6,12-1.4,17-4.4"/>
			<polygon class="st1" points="925.2,405.3 892.3,405.3 896.4,396.5 921.1,396.5 			"/>
			<path class="st1" d="M901.8,405.3c-19.7,13-47.7,9-66.5-4.3"/>
			<path class="st1" d="M914.2,405.3c-7.2,25.5-23.8,47.7-47.8,59c-25.3,11.9-56,11.6-81-0.8c-5.3-2.6-10.3-5.7-15-9.2"/>
			<path class="st1" d="M745.6,429.6c-3.1-4-5.9-8.1-8.6-12.3c-8.7-13.6-15.6-28.3-20.6-43.6"/>
			<path class="st1" d="M904.3,405.3c0.9,2.2,2.5,4.1,4.3,5.5c3.1,2.4,6.9,3.6,10.8,4.1c4.3,0.6,8.8,0.3,12.9-1.2
				c4.1-1.5,7.8-4.4,9.8-8.3"/>
			<line class="st1" x1="914.2" y1="293.1" x2="914.2" y2="389.3"/>
			<g>
				<g>
					<rect x="871.3" y="173.8" class="st1" width="74.9" height="74.9"/>
					<path class="st1" d="M924.2,238.4h-30.9c-6.5,0-11.8-5.3-11.8-11.8v-30.8c0-6.5,5.3-11.8,11.8-11.8h30.9
						c6.5,0,11.8,5.3,11.8,11.8v30.9C935.9,233.3,930.7,238.4,924.2,238.4z"/>
					<circle class="st1" cx="878.1" cy="180.6" r="2.2"/>
					<circle class="st1" cx="939.3" cy="180.6" r="2.2"/>
					<circle class="st1" cx="878.1" cy="241.8" r="2.2"/>
					<circle class="st1" cx="939.3" cy="241.8" r="2.2"/>
				</g>
				<path class="st1" d="M882.2,210.4c4.2-3.3,8.4-6.7,12.6-10c1.7,1.1,0.9,4.7,2.9,4.9c0.8,0.1,1.6-0.6,2.1-1.2
					c4.3-5,7.7-10.9,13-14.9c2.2-1.7,4.7-3,7.3-3.9"/>
				<path class="st1" d="M882,218.6c2.5-2.3,5.6-3.9,8.8-4.7c0,3.3,4.4,4.9,7.4,3.6c3-1.3,4.9-4.3,6.9-6.9
					c5.9-7.6,14.1-13,22.2-18.2c2-1.3,4.8-2.5,6.5-0.9"/>
				<path class="st1" d="M909.1,237.3c3.4,0.4,6.3-2.5,8.3-5.3c5.2-7.4,9.3-16.5,17.6-20.2"/>
			</g>
			<g>
				<g>
					<path class="st1" d="M1068.9,93.3c8.3,7.8,8.3,20.5,0,28.3s-21.7,7.8-30,0s-8.3-20.5,0-28.3
						C1047.1,85.3,1060.6,85.3,1068.9,93.3z"/>
					<path class="st1" d="M1071.6,107.3h-35.5c0-9.3,8-16.8,17.8-16.8C1063.7,90.6,1071.6,98.1,1071.6,107.3z"/>
					<path class="st1" d="M1071.1,79.3l-6.4,6.1c-6.8-3-14.8-3-21.6,0l-6.4-6.1l-12.6,11.9l6.4,6.1c-3.2,6.5-3.2,14,0,20.4l-6.4,6.1
						l12.6,11.9l6.4-6.1c6.8,3,14.8,3,21.6,0l6.4,6.1l12.6-11.9l-6.4-6.1c3.2-6.5,3.2-14,0-20.4l6.4-6.1L1071.1,79.3z"/>
					<path class="st1" d="M1036.2,124c0.9,0.8,0.9,2.2,0,3s-2.3,0.8-3.2,0c-0.9-0.8-0.9-2.2,0-3
						C1033.9,123.1,1035.4,123.1,1036.2,124z"/>
					<path class="st1" d="M1036.2,87.8c0.9,0.8,0.9,2.2,0,3s-2.3,0.8-3.2,0c-0.9-0.8-0.9-2.2,0-3S1035.4,86.9,1036.2,87.8z"/>
					<path class="st1" d="M1074.6,124c0.9,0.8,0.9,2.2,0,3s-2.3,0.8-3.2,0c-0.9-0.8-0.9-2.2,0-3
						C1072.4,123.1,1073.8,123.1,1074.6,124z"/>
					<path class="st1" d="M1074.6,87.8c0.9,0.8,0.9,2.2,0,3s-2.3,0.8-3.2,0c-0.9-0.8-0.9-2.2,0-3
						C1072.4,86.9,1073.8,86.9,1074.6,87.8z"/>
					<line class="st1" x1="1053.9" y1="107.3" x2="1059.1" y2="96"/>
					<line class="st1" x1="1036.1" y1="107.3" x2="1071.6" y2="107.3"/>
				</g>
				<path class="st2" d="M1037.1,102.4c0.8,0.4,1.6,0.7,2.4,1.1"/>
				<path class="st2" d="M1039,99.3c0.9,0.5,1.8,1,2.6,1.7"/>
				<path class="st2" d="M1041.9,96c0.5,0.5,1,1.1,1.5,1.6"/>
				<path class="st2" d="M1045.2,93.6c0.4,1,0.9,1.9,1.5,2.7"/>
				<path class="st2" d="M1049.6,92.3c0.2,1.1,0.4,2.2,0.6,3.3"/>
				<path class="st2" d="M1054.5,91.8c0,1.2-0.3,2.3-0.7,3.4"/>
				<path class="st2" d="M1058.7,92.8c-0.1,0.9-0.3,1.7-0.6,2.5"/>
				<path class="st2" d="M1063,94.8c-0.4,0.9-0.9,1.8-1.5,2.5"/>
				<path class="st2" d="M1066.4,96.8c-0.6,0.7-1.2,1.5-1.8,2.2"/>
				<path class="st2" d="M1066.6,101.8c0.9-0.2,1.8-0.7,2.5-1.3"/>
				<path class="st2" d="M1067.6,104.5c1-0.1,2.1-0.3,3.1-0.5"/>
			</g>
			<path class="st2" d="M987.7,25.3c0.5,3.3,1,6.5,1.4,9.8c0-0.1,0-0.2,0-0.3"/>
			<path class="st2" d="M986.2,25.8c0,3,0,6.1,0.1,9.1c0,0.1,0,0.1,0.1,0.2c0.1,0,0.1-0.1,0.1-0.1"/>
			<path class="st2" d="M988.8,43.9c0.1,0.1,0.1,0.3,0.1,0.5c-0.3,2.7-0.6,5.3-0.9,8"/>
			<path class="st2" d="M987.1,43.8c-0.5,3-0.9,6.1-1.2,9.1"/>
			<path class="st2" d="M1010.6,43.5c0,3.2,0,6.4,0,9.6"/>
			<path class="st2" d="M1012.3,43.7c0.3,3.3,0.6,6.5,0.8,9.8l0,0"/>
			<path class="st2" d="M1011.1,25.5c-0.1,3.2,0,6.3,0.1,9.5c0.1-0.1,0.1-0.2,0.1-0.3"/>
			<path class="st2" d="M1013.2,25.9c-0.2,3.1-0.5,6.1-0.8,9.1"/>
			<path class="st2" d="M1014.4,25.8c-0.1,3.2-0.2,6.4-0.3,9.6c0-0.1,0-0.2,0-0.3"/>
			<path class="st2" d="M870.6,25.3c0.1,3.2,0.2,6.5,0.3,9.7c0-0.2,0-0.4,0-0.6"/>
			<path class="st2" d="M872.9,25.8c-0.3,3.2-0.6,6.5-0.9,9.7c0,0.1,0,0.3,0.1,0.4s0.2-0.3,0-0.2"/>
			<path class="st2" d="M874.3,25.9c0,2.9,0,5.7,0,8.6"/>
			<path class="st2" d="M870.4,43.3c-0.3,3.3-0.5,6.5-0.8,9.8"/>
			<path class="st2" d="M871.8,43.8c-0.1,3.3-0.2,6.6-0.2,9.9"/>
			<path class="st2" d="M873.4,43c0,3.3,0.3,6.7,0.8,10"/>
			<path class="st2" d="M942.5,129.1c-1.6,1.3-3.1,2.7-4.7,4c0.1-0.1,0.2-0.1,0.3-0.2"/>
			<path class="st2" d="M944.2,130.5c-1.3,1.5-2.5,3.1-3.6,4.8"/>
			<path class="st2" d="M947.1,132.4c-0.9,1.4-1.9,2.9-2.8,4.3l-0.1,0.1c-0.1,0,0.1-0.1,0,0"/>
			<path class="st2" d="M948.9,133.5c-0.6,1.7-1.2,3.5-1.6,5.2"/>
			<path class="st2" d="M953,135.3c-0.8,1.6-1.3,3.3-1.6,5.1"/>
			<path class="st2" d="M955.6,135.9c-0.3,1.7-0.6,3.4-0.9,5.1"/>
			<path class="st2" d="M959.1,136c0,1.7,0,3.4-0.1,5.1"/>
			<path class="st2" d="M962.1,136c0.1,1.9,0.2,3.9,0.3,5.8c0,0.1,0,0.1,0.1,0.2s0.1-0.1,0-0.1"/>
			<path class="st2" d="M965.4,135.8c0.3,1.8,0.7,3.5,1.3,5.2"/>
			<path class="st2" d="M969.6,134.1c0.7,1.8,1.5,3.5,2.4,5.2c0-0.1,0-0.2,0-0.3"/>
			<path class="st2" d="M973.2,133c0.5,1.8,1,3.5,1.5,5.3"/>
			<path class="st2" d="M975.8,131.6c0.9,1.5,1.8,2.9,2.8,4.3c0,0.1,0.1,0.1,0.2,0.2c0.1,0,0.2-0.1,0.2-0.1"/>
			<path class="st2" d="M978.3,129.4c1.3,1.3,2.4,2.7,3.6,4.1"/>
			<path class="st2" d="M980.8,126.9c1.5,1.1,3.1,2.1,4.8,3"/>
			<path class="st2" d="M982.6,124.4c1.2,0.7,2.5,1.3,3.7,2c0.5,0.3,1.1,0.6,1.5,1"/>
			<path class="st2" d="M984.5,121.8c1.9,0.6,3.8,1.4,5.5,2.4"/>
			<path class="st2" d="M985.5,118.8c1.9,0.6,3.8,1,5.7,1.2"/>
			<path class="st2" d="M986.5,116.1c2.2,0.4,4.4,0.8,6.6,1"/>
			<path class="st2" d="M987.7,112.8c-0.1,0-0.2,0-0.3,0c1.9,0.1,3.7,0.1,5.6,0.2"/>
			<path class="st2" d="M987.5,108.8c2-0.2,4-0.2,6.1-0.2"/>
			<path class="st2" d="M987.2,105.9c-0.1-0.1,0.1-0.3,0.2-0.3c1.7-0.7,3.5-1.2,5.3-1.4"/>
			<path class="st2" d="M986.7,101.5c1.6-0.8,3.3-1.5,5-2c-0.1,0-0.2,0-0.3,0.1"/>
			<path class="st2" d="M985.2,98.1c-0.1-0.2,0.1-0.5,0.4-0.7c1.4-0.9,2.7-1.8,4.1-2.7"/>
			<path class="st2" d="M983.2,94.1c1.5-1.3,3-2.7,4.5-4"/>
			<path class="st2" d="M980.5,90.8c1.1-1.4,2.3-2.8,3.6-4.2"/>
			<path class="st2" d="M980.4,83c-1.2,1.4-2.3,2.8-3.3,4.3"/>
			<path class="st2" d="M976.7,81.1C976.8,81.3,976.8,81,976.7,81.1C976.7,81,976.6,81.1,976.7,81.1c-0.9,1.7-1.6,3.5-2.2,5.3
				c0-0.1,0-0.2,0-0.3"/>
			<path class="st2" d="M973.3,79c-0.8,1.7-1.5,3.5-2.2,5.3c0,0.1,0-0.1,0-0.1"/>
			<path class="st2" d="M969.5,77.8c-0.7,1.7-1.4,3.3-2.1,4.9"/>
			<path class="st2" d="M965.5,76.8c-0.2,1.8-0.6,3.6-1.1,5.3c0-0.1,0-0.2,0-0.3"/>
			<path class="st2" d="M960.5,76.5c0,1.7-0.1,3.4-0.1,5.1"/>
			<path class="st2" d="M956.4,76.5c0.1,1.8,0.3,3.6,0.4,5.5c0,0.1,0.1,0.1,0.1,0.2s-0.1,0-0.1,0"/>
			<path class="st2" d="M952.6,77.6c0.5,1.7,0.9,3.5,1.4,5.2"/>
			<path class="st2" d="M948.4,78.9c0.4,2,1,3.9,1.8,5.7"/>
			<path class="st2" d="M944.8,80.8c1,1.7,2.1,3.4,3.4,4.9"/>
			<path class="st2" d="M941.9,82.6c0.7,1.6,1.6,3.2,2.8,4.6"/>
			<path class="st2" d="M938.8,84.8c1.3,1.1,2.5,2.4,3.6,3.7"/>
			<path class="st2" d="M936.9,86.8c1.1,0.9,2.1,1.7,3.2,2.5"/>
			<path class="st2" d="M853.3,16.2c-0.3,15,0.3,30,1.9,44.8"/>
			<path class="st2" d="M822.9,89.8c0.3,3.5,0.5,7,0.7,10.5c0.6,9.3,1.2,18.6,1.8,27.9"/>
			<path class="st2" d="M826.9,90.1c0.3,12.9,0.7,25.7,1,38.6c0-0.5,0-1.1-0.1-1.6"/>
			<path class="st2" d="M815.5,184.3c0.2,4.2,0.2,8.5,0.1,12.7"/>
			<path class="st2" d="M818.3,185c-0.2,4.1,0,8.3,0.5,12.4"/>
			<path class="st2" d="M815.9,210.8c0.1,4,0.4,8,1,12c0,0.2,0.1,0.5,0.3,0.5s0.2-0.5,0-0.3"/>
			<path class="st2" d="M818.6,211.8c0.1,4.2,0.3,8.3,0.4,12.5c0-0.5,0-1,0.1-1.5"/>
			<path class="st2" d="M821.5,211.8c-0.2,4-0.2,8,0.2,12"/>
			<path class="st2" d="M923.7,275.3c-0.1,3.4-0.3,6.8-0.8,10.2c0,0.1-0.1,0.2-0.2,0.3c-0.1,0-0.1-0.2,0-0.2"/>
			<path class="st2" d="M921.8,275.8c0,3.5-0.1,7-0.1,10.4"/>
			<path class="st2" d="M918.7,275.6c-0.1,3.5-0.1,7-0.2,10.4"/>
			<path class="st2" d="M920.1,286.4c0,2-0.1,4-0.1,6"/>
			<path class="st2" d="M916.5,389.4c0.2,2.6,0.4,5.2,0.6,7.8"/>
			<path class="st2" d="M915.6,396c1.1,3,2.1,6,3.2,8.9c0,0.1,0.1,0.3,0.3,0.3c0.1,0,0.1-0.3,0-0.2"/>
			<path class="st2" d="M914.2,396.8c0.4,2.9,0.9,5.8,1.3,8.7"/>
			<path class="st2" d="M898.4,405.3c0.7-3.1,1.6-6.1,2.7-9.1c0.1,0.2,0.2,0.4,0.2,0.7"/>
			<g>
				<g>
					<g>
						<g>
							<g>
								<polyline class="st1" points="1018.2,241 998.1,241 998.1,225.6 981.5,225.6 981.5,241 972.8,241 972.8,215.1 1018.2,215.1 
																	"/>
								<polyline class="st1" points="1018.2,280.4 1015.3,280.4 1015.3,271.3 1018.2,271.3 986.1,271.3 986.1,266.3 986.1,230.8 
									993.4,230.8 993.4,266.3 1018.2,266.3 								"/>
								<path class="st1" d="M1018.2,338L1018.2,338c-5.9,0-10.3-5.4-9.2-11.2c3.6-18.5,4.5-36-2.5-46.4h11.6"/>
							</g>
							<g>
								<polyline class="st1" points="1018.2,241 1038.4,241 1038.4,225.6 1055,225.6 1055,241 1063.7,241 1063.7,215.1 
									1018.2,215.1 								"/>
								<polyline class="st1" points="1018.2,280.4 1021.2,280.4 1021.2,271.3 1018.2,271.3 1050.3,271.3 1050.3,266.3 
									1050.3,230.8 1043,230.8 1043,266.3 1018.2,266.3 								"/>
								<path class="st1" d="M1018.2,338L1018.2,338c5.9,0,10.3-5.4,9.2-11.2c-3.6-18.5-4.5-36,2.5-46.4h-11.6"/>
							</g>
						</g>
						<line class="st1" x1="993.4" y1="262.1" x2="1043" y2="262.1"/>
						<polyline class="st1" points="1011.8,305 966.9,305 966.9,208 1069.5,208 1069.5,305 1024.7,305 						"/>
					</g>
					<g>
						<circle class="st1" cx="977.7" cy="186.4" r="10.8"/>
						<circle class="st1" cx="977.7" cy="186.4" r="6.9"/>
					</g>
					<g>
						<circle class="st1" cx="1058.7" cy="186.4" r="10.8"/>
						<circle class="st1" cx="1058.7" cy="186.4" r="6.9"/>
					</g>
					<g>
						<circle class="st1" cx="1004.7" cy="186.4" r="10.8"/>
						<circle class="st1" cx="1004.7" cy="186.4" r="6.9"/>
					</g>
					<g>
						<circle class="st1" cx="1031.7" cy="186.4" r="10.8"/>
						<circle class="st1" cx="1031.7" cy="186.4" r="6.9"/>
					</g>
				</g>
				<path class="st2" d="M1008.9,283.8c1.2,1.3,2.3,2.6,3.5,3.9c0.7,0.8,1.4,1.5,2.3,2.1c0.9,0.5,2,0.7,2.9,0.3
					c1.6-0.8,2-3.1,3.6-3.9c0.8-0.4,1.8-0.3,2.7-0.5c1.8-0.3,3.1-1.7,4.4-3"/>
				<path class="st2" d="M1010.6,288.8c1.5,3,2.9,6,4.4,9c0.5,0.9,1,1.9,1.9,2.4c1.1,0.5,2.4,0.1,3.3-0.7c0.9-0.8,1.5-1.9,2-3
					s1-2.2,1.9-3c0.4-0.4,1-0.9,1-1.5"/>
				<path class="st2" d="M1012.2,298.3c0.8,3.1,1.8,6.4,4.5,8.2c0.2,0.1,0.3,0.2,0.5,0.2s0.4-0.1,0.6-0.1c3-1.3,4.8-4.4,6.6-7.1
					c0-0.1,0.1-0.1,0.2-0.1s0,0.2,0,0.1"/>
				<path class="st2" d="M1012.5,305.9c2.4,6.2,4.9,12.5,5.3,19.1c0.1,1.9,0.1,3.8-0.3,5.6c-0.5,2.2-1.5,4.4-2.9,6.2"/>
				<path class="st2" d="M1011.6,314c1.9,3.7,2.9,7.9,2.8,12.1c0,3.1-0.8,6.6-3.5,8.2"/>
				<path class="st2" d="M1009.1,330.8c1-0.4,1.4-1.6,1.5-2.7c0.2-1.6,0.1-3.1-0.2-4.7"/>
				<path class="st2" d="M1017.4,337.3c2.8-3.3,3.4-7.9,3.4-12.3c-0.1-4.3-0.6-8.7,0.3-13c0.3-1.6,1.2-3.4,2.9-3.5"/>
				<path class="st2" d="M1021.1,337.3c0.3-1.6,0.7-3.3,1-4.9c0.3-1.6,0.7-3.1,1.3-4.6s1.6-2.8,2.9-3.7"/>
				<path class="st2" d="M1025.6,313.1c-1.6,1.6-2.4,3.8-2.3,6.1c0,0.3,0,0.6,0.2,0.8c0.4,0.9,1.7,0.8,2.6,0.7"/>
				<path class="st2" d="M1011.1,280.5c0.4,1.6,1.2,3,2.2,4.3c0.3,0.3,0.5,0.7,0.9,0.9c1.1,0.7,2.7,0.1,3.5-1c0.8-1,1-2.4,1.2-3.7"
					/>
				<path class="st2" d="M974.3,180.8c0.9,2.5,1.7,5,2.6,7.5"/>
				<path class="st2" d="M1005.4,180.3c-0.2,2.6-0.4,5.2-0.5,7.9"/>
				<path class="st2" d="M1028,192.3c1.4-2.1,2.7-4.1,4.1-6.2"/>
				<path class="st2" d="M1052.3,187.6c2.4,0.1,4.8,0,7.2-0.3"/>
				<path class="st2" d="M986.1,232c2.6,1.2,5.1,2.4,7.7,3.6"/>
				<path class="st2" d="M986.4,235.6c2.6,0.3,5.1,0.8,7.6,1.5"/>
				<path class="st2" d="M986.6,238.3c2.4,0.2,4.7,0.4,7.1,0.7"/>
				<path class="st2" d="M1043.5,233.9c2.2-0.1,4.3-0.5,6.4-1"/>
				<path class="st2" d="M1043.3,235c2.2-0.1,4.4-0.2,6.6-0.3"/>
				<path class="st2" d="M1043.5,237.3c2.5,0.1,4.9,0.4,7.3,0.9"/>
				<path class="st2" d="M996,262.4c0,1.2,0,2.4,0,3.7"/>
				<path class="st2" d="M998,262.8c0,1.2-0.1,2.3-0.5,3.4"/>
				<path class="st2" d="M1000.5,262.8c-0.4,1.2-0.6,2.4-0.6,3.7"/>
				<path class="st2" d="M1002.8,262.6c0.1,1.5,0.3,2.9,0.7,4.3"/>
			</g>
			<path class="st2" d="M1109.1,63.3c4.3-0.1,8.7,0.1,13,0.5"/>
			<path class="st2" d="M1109.1,65.5c4,0.1,7.9,0.2,11.9,0.3c0.6,0,1.3,0,1.7,0.5"/>
			<g>
				<rect x="981.8" y="-46.5" class="st1" width="9.9" height="9.9"/>
				<rect x="963.8" y="-46.5" class="st1" width="9.9" height="9.9"/>
				<path class="st1" d="M936.6-45.2v-10c0-10.3-8.4-18.7-18.7-18.7l0,0c-10.3,0-18.7,8.4-18.7,18.7v10"/>
				<rect x="889.6" y="-45.2" class="st1" width="56.7" height="8.7"/>
				<path class="st1" d="M921.5-45.2v-14.7c0-2-1.6-3.5-3.5-3.5l0,0c-2,0-3.5,1.6-3.5,3.5v14.7"/>
				<path class="st2" d="M963.6-38.8c3.5-0.1,6.9-0.4,10.3-1.1"/>
				<path class="st2" d="M963.9-41.1c3.3,0.2,6.6,0,9.9-0.4"/>
				<path class="st2" d="M981.5-39.8c0.8,0.6,1.9,0.7,2.9,0.8c2.5,0.1,5,0.3,7.6,0.4"/>
				<path class="st2" d="M981.9-40.8c3.2,0.2,6.5-0.1,9.6-0.8"/>
				<path class="st2" d="M940.7-44.8c-0.1,2.7-0.1,5.5-0.2,8.2"/>
				<path class="st2" d="M933.2-44.7c0.2,2.4,0.4,4.8,0.6,7.2"/>
				<path class="st2" d="M930.6-44.5c0.2,2.4,0.3,4.8,0.5,7.2"/>
				<path class="st2" d="M894.7-45.2c-0.1,2.7-0.3,5.5-0.5,8.2"/>
			</g>
			<path class="st2" d="M1130.5-37.2c-0.8,7.4-1.4,14.8-1.9,22.2c0-0.3,0-0.7,0-1"/>
			<path class="st2" d="M1123.6-36.3c0.1,7.1,0.2,14.2,0.2,21.2"/>
			<path class="st2" d="M1094.9-36.3c-0.1,7-0.3,14-0.5,21"/>
			<path class="st2" d="M1091.4-36.5c-0.1,7.1-0.2,14.3-0.3,21.4c0-0.2,0-0.4,0.1-0.6"/>
			<path class="st2" d="M1078.5-37c-0.1,7.1,0.4,14.2,1.3,21.2"/>
			<path class="st2" d="M1135.2-36c0.2,7-0.1,14-0.7,20.9"/>
			<path class="st2" d="M1137.3-36c0.2,7,0.5,13.9,0.7,20.9"/>
			<path class="st2" d="M1026.1-36.7c-0.4,7.2-0.8,14.3-1,21.5c0-0.3,0.1-0.6,0.1-1"/>
		</g>
		<g>
			<g>
				<g>
					<rect x="1122.8" y="290.3" class="st0" width="10.9" height="45.2"/>
					<rect x="1133.7" y="299.3" class="st0" width="9.9" height="9.9"/>
					<rect x="1133.7" y="317.3" class="st0" width="9.9" height="9.9"/>
				</g>
				<g>
					<polyline class="st1" points="1122.8,335.4 1133.7,335.4 1133.7,290.3 1122.8,290.3 					"/>
					<rect x="1133.7" y="299.3" class="st1" width="9.9" height="9.9"/>
					<rect x="1133.7" y="317.3" class="st1" width="9.9" height="9.9"/>
				</g>
				<path class="st1" d="M1143.6,323.4c11.2,2.3,20.2,13.2,20,24.6"/>
				<path class="st1" d="M1143.6,321.5c7.2-1.7,13.9-5.4,19.1-10.6"/>
				<path class="st2" d="M1136.9,299.5c0,3.2-0.3,6.4-0.8,9.6"/>
				<path class="st2" d="M1138.4,299.9c0.3,2.9,0.5,5.7,0.6,8.6"/>
				<path class="st2" d="M1135.8,317.9c0.1,3,0,6-0.2,9c0-0.2,0-0.4,0-0.6"/>
				<path class="st2" d="M1137.6,318c-0.1,2.9,0,5.7,0,8.6"/>
				<path class="st2" d="M1137.6,319.9c0.7,2.2,1.4,4.3,2,6.5"/>
				<path class="st2" d="M1126.2,290.9c0.1,14.5-0.2,29.1-1,43.6"/>
				<line class="st1" x1="1122.8" y1="290.3" x2="1122.8" y2="335.4"/>
			</g>
			<g>
				<g>
					<path class="st0" d="M1133.7,36.3h9.9c0.6,0,1-0.4,1-1v-9.9c0-0.6-0.4-1-1-1h-9.9c-0.6,0-1,0.4-1,1v9.9
						C1132.7,35.8,1133.2,36.3,1133.7,36.3z"/>
					<path class="st0" d="M1133.7,54.2h9.9c0.6,0,1-0.4,1-1v-9.9c0-0.6-0.4-1-1-1h-9.9c-0.6,0-1,0.4-1,1v9.9
						C1132.7,53.8,1133.2,54.2,1133.7,54.2z"/>
					<path class="st0" d="M1319.3-37.5h-52.9c-0.6,0-1,0.4-1,1v5.5c0,0.6,0.4,1,1,1h6.2v4.5c0,0.6,0.4,1,1,1h3.9
						c-6.1,33-23.6,63.1-49.3,84.9c-26.1,22.1-59.3,34.4-93.5,34.6v-5.2c0-0.6-0.4-1-1-1h-9.9v-3c3.1-0.5,5.5-3.2,5.5-6.4
						c0-3.6-2.9-6.5-6.5-6.5c-0.6,0-1,0.4-1,1v15.8v38.5V144c0,0.6,0.4,1,1,1c3.6,0,6.5-2.9,6.5-6.5c0-3.2-2.4-5.9-5.5-6.4v-2.9h9.9
						c0.6,0,1-0.4,1-1v-4c2.1,0,4.2-0.1,6.3-0.1l0,0l0,0c0,0,0,0,0.1,0c2.8-0.1,5.6-0.3,8.3-0.5l0,0h0.1l0,0
						c2.4-0.2,4.9-0.5,7.3-0.8l0,0c0.1,0,0.2,0,0.2,0l0,0c2.4-0.3,4.7-0.7,7.1-1.1l0,0l0,0c3.1-0.5,6.2-1.2,9.3-1.9h0.1
						c0,0,0,0,0.1,0c2.7-0.6,5.3-1.3,7.9-2c0,0,0,0,0.1,0l0,0c3.2-0.9,6.4-1.9,9.6-3c0.1,0,0.1,0,0.2-0.1c2.6-0.9,5.3-1.9,7.9-2.9
						c0.1,0,0.2-0.1,0.2-0.1c2.1-0.9,4.2-1.8,6.3-2.7l0,0c0,0,0,0,0.1,0c5.1-2.3,10.1-4.9,15-7.7l0,0l0,0c2.5-1.4,5-3,7.4-4.5
						c0,0,0,0,0.1,0l0,0c2.1-1.3,4.1-2.7,6.1-4.1l0,0l0,0c1.6-1.1,3.2-2.3,4.7-3.5h0.1l0,0c2.1-1.6,4.1-3.2,6.2-4.9c0,0,0,0,0.1,0
						l0,0c2.4-2,4.8-4.1,7.2-6.3c0,0,0,0,0.1,0c0,0,0,0,0-0.1c1.6-1.5,3.2-3,4.8-4.6c0.2-0.2,0.4-0.5,0.7-0.7l0,0l0,0
						c26.3-26.6,43.1-60,48.7-96.7h4.8c0.6,0,1-0.4,1-1v-4.5h6.2c0.6,0,1-0.4,1-1v-5.5C1320.3-37.1,1319.9-37.5,1319.3-37.5z"/>
				</g>
				<line class="st1" x1="1923.4" y1="-36.5" x2="1153.9" y2="-36.5"/>
				<g>
					<rect x="1122.8" y="89.8" class="st1" width="10.9" height="38.5"/>
					<path class="st1" d="M1139.8,95.8c0.4,9.1,0.8,18.3,1.3,27.4"/>
					<path class="st1" d="M1145.8,95.4c1.2,9.1,2.4,18.1,3.6,27.2"/>
					<path class="st1" d="M1151.6,94.8c1.4,9.1,3.2,18.1,5.4,27"/>
					<path class="st1" d="M1122.8,133.1c3,0,5.5,2.5,5.5,5.5s-2.5,5.5-5.5,5.5"/>
					<path class="st1" d="M1122.8,74c3,0,5.5,2.5,5.5,5.5s-2.5,5.5-5.5,5.5"/>
					<rect x="1133.7" y="25.3" class="st1" width="9.9" height="9.9"/>
					<rect x="1133.7" y="43.3" class="st1" width="9.9" height="9.9"/>
					<path class="st2" d="M1136.3,25.3c-0.3,3.2-0.7,6.3-1,9.5c0-0.1,0.1-0.3,0.1-0.4"/>
					<path class="st2" d="M1137.9,25.9c0,3.2,0,6.3,0,9.5"/>
					<path class="st2" d="M1135.9,43.7c-0.3,3.2-0.4,6.4-0.4,9.7c0-0.1,0.1-0.2,0.1-0.3"/>
					<path class="st2" d="M1137.2,43.8c0,3,0.1,6.1,0.3,9.1"/>
					<path class="st2" d="M1139.1,44.2c0,3,0.1,6,0.3,9"/>
					<path class="st2" d="M1125,90.1c0.6,12.6,1.2,25.1,1.8,37.7"/>
				</g>
				<path class="st1" d="M1421.6-36.6"/>
				<path class="st1" d="M1308.7,66.3"/>
				<path class="st1" d="M1200.1-15.7"/>
				<path class="st1" d="M1133.7,95.9c72.5,0,132.8-52.4,145-121.5"/>
				<path class="st1" d="M1218.6-15.7"/>
				<path class="st1" d="M1143.6,31.8c16,0.4,32.1-3.6,46-11.5c7.4-4.2,14.2-9.6,19-16.6c3.9-5.6,6.3-12.4,6.3-19.2"/>
				<path class="st1" d="M1143.6,48.8c22.7,10.6,13.5,41.7,12.8,63.7c-0.7,22.8-3.6,45.8,1.2,68.1c1.3,6.2,3.3,12.4,7.1,17.4
					c3.8,5,9.8,8.7,16.1,8.5c3.1-0.1,6.3-1.2,8.2-3.7s2.1-6.3,0-8.5c-3.1-3.2-8.5-1.4-12.1,1.2c-16.3,11.7-20.3,34.7-17.6,54.6
					c1.5,11.4,4.8,22.9,3.1,34.2c-1.6,10.2-8.9,17.8-18.8,19.5"/>
				<path class="st1" d="M1143.6,46.9c27.8-4.4,49.2-34.2,53.4-62.6"/>
				<path class="st2" d="M1221.7-22.8"/>
				<polyline class="st1" points="1312.1,-31.1 1312.1,-25.6 1273.6,-25.6 1273.6,-31.1 				"/>
				<path class="st1" d="M1306.5-25.6c-5.4,36.9-22.5,70.9-49.3,97.7c-33,33-76.9,51.2-123.5,51.2"/>
				<path class="st1" d="M1160.5,93.5c0.7,9.1,2,18.2,3.7,27.2"/>
				<path class="st1" d="M1167.5,92c2,8.9,4,17.8,6,26.8"/>
				<path class="st1" d="M1173.7,90.4c1.9,9,4.4,17.8,7.7,26.3"/>
				<path class="st1" d="M1178.8,88.9c3.7,8.5,7.8,16.8,12.3,24.8"/>
				<path class="st1" d="M1184.8,86.8c4.8,8,9.6,15.9,14.4,23.9"/>
				<path class="st1" d="M1196.1,82.1c3,8.7,6.2,17.3,9.5,25.8"/>
				<path class="st1" d="M1203.5,78.4c3,8.8,5.9,17.6,8.5,26.5"/>
				<path class="st1" d="M1208.4,75.6c4.1,8.2,8.1,16.4,12.2,24.7"/>
				<path class="st1" d="M1212.6,73c5.1,7.6,10.3,15.1,15.4,22.7"/>
				<path class="st1" d="M1218.7,68.9c5.3,7.4,10.5,15,15.5,22.6"/>
				<path class="st1" d="M1222.5,66.1c4.9,7.7,10.4,15.1,16.4,22"/>
				<path class="st1" d="M1226.5,63c3.3,4.1,6.9,8,10.6,11.8c2.7,2.8,5.4,5.6,8,8.4"/>
				<path class="st1" d="M1232.2,58.3c2.6,2.3,5.3,4.5,7.9,6.8c4.3,3.7,8.7,7.5,12.4,11.8"/>
				<path class="st1" d="M1237.8,52.9c6.8,6.1,13.6,12.3,20.2,18.6"/>
				<path class="st1" d="M1250.9,37.9c7.4,5.4,14.9,10.6,22.6,15.6"/>
				<path class="st1" d="M1255.3,31.8c7.8,4.9,16.1,9.1,24.7,12.5"/>
				<path class="st1" d="M1259.5,25.3c7.5,4.9,17.8,5.7,25.8,10.3"/>
				<path class="st1" d="M1263.4,18.5c8.5,3.6,16.9,7.2,25.3,10.9"/>
				<path class="st1" d="M1266.4,12.7c8.6,3.3,17.4,6.2,26.2,8.7"/>
				<path class="st1" d="M1269.2,6.5c8.6,3.2,17.2,6.4,25.8,9.5"/>
				<path class="st1" d="M1271.4,1c8.9,2.7,18,4.6,27.2,5.6"/>
				<path class="st1" d="M1273.8-5.7c9.3,0.8,18.5,1.9,27.7,3.2"/>
				<path class="st1" d="M1275.4-11.1c9.4,0.2,18.8,0.4,28.2,0.6"/>
				<path class="st1" d="M1277.1-17.5c7.5,0.1,15.1,0.3,22.6,0.4c1.8,0,3.5,0.1,5.3,0.2"/>
				<path class="st1" d="M1277.7-20.3c9.3-0.5,18.7-0.7,28-0.5"/>
				<rect x="1266.4" y="-36.5" class="st1" width="52.9" height="5.5"/>
				<path class="st2" d="M1309.5-36.3c0,1.8,0,3.7,0,5.5"/>
				<path class="st2" d="M1306.6-36.7c0.3,1.5,0.3,3,0.2,4.5"/>
				<path class="st2" d="M1303.6-36.3c0.3,1.6,0.7,3.2,1,4.8"/>
				<path class="st2" d="M1308.2-31.2c0,1.9,0,3.9,0,5.8"/>
				<path class="st2" d="M1303.1-30.8c0.3,1.7,0.6,3.4,0.9,5.2"/>
				<path class="st2" d="M1282.1-31.2c-0.1,1.9,0.1,3.9,0.4,5.8"/>
				<line class="st1" x1="1122.8" y1="74" x2="1122.8" y2="144"/>
			</g>
		</g>
	</g>
	<g id="_x31_7">
		<g>
			<g>
				<line class="st4" x1="772" y1="985.1" x2="772" y2="1023.6"/>
			</g>
		</g>
	</g>
</g>
<path class="st1" d="M1246.6,46c5.4,3.6,11.4,7.5,22.6,14.2"/>
</svg>
