<?xml version="1.0" encoding="utf-8"?>
<!-- Generator: Adobe Illustrator 19.0.0, SVG Export Plug-In . SVG Version: 6.00 Build 0)  -->
<svg version="1.1" id="Слой_1" xmlns="http://www.w3.org/2000/svg" xmlns:xlink="http://www.w3.org/1999/xlink" x="0px" y="0px"
	 viewBox="0 -20.9 1920 554.5" style="enable-background:new 0 -20.9 1920 554.5;" xml:space="preserve">
<style type="text/css">
	.st0{fill:#F4E1A1;}
	.st1{fill:none;stroke:#827957;stroke-width:2;stroke-linecap:round;stroke-linejoin:round;stroke-miterlimit:10;}
	
		.st2{fill:none;stroke:#827957;stroke-width:2;stroke-linecap:round;stroke-linejoin:round;stroke-miterlimit:10;stroke-dasharray:6.8508;}
	.st3{fill:none;stroke:#827957;stroke-linecap:round;stroke-linejoin:round;stroke-miterlimit:10;}
	.st4{display:none;fill:none;stroke:#827957;stroke-width:2;stroke-linecap:round;stroke-linejoin:round;stroke-miterlimit:10;}
</style>
<g id="conveer_x5F_elements">
	<g id="_x30_1">
		<g>
			<rect x="1366.4" y="124.5" class="st0" width="10.8" height="40"/>
			<path class="st1" d="M1354.5,112.6h5.4c6.6,0,11.9,5.3,11.9,11.9l0,0"/>
			<path class="st1" d="M1371.8,164.6L1371.8,164.6c0,6.6-5.3,11.9-11.9,11.9h-5.4"/>
			<rect x="1366.4" y="124.5" class="st1" width="10.8" height="40"/>
			<line class="st1" x1="1377.2" y1="132.3" x2="1366.4" y2="132.3"/>
			<line class="st1" x1="1377.2" y1="156.8" x2="1366.4" y2="156.8"/>
		</g>
		<g>
			<rect x="1271.2" y="3.6" class="st0" width="47.3" height="71.6"/>
			<rect x="1177.8" y="3.6" class="st0" width="17.3" height="71.6"/>
			<rect x="1177.8" y="3.6" class="st1" width="17.3" height="71.6"/>
			<rect x="1271.2" y="3.6" class="st1" width="47.3" height="71.6"/>
			<rect x="1307.8" y="18.4" class="st1" width="10.7" height="40.7"/>
			<line class="st1" x1="1271.5" y1="10.4" x2="1318.5" y2="10.4"/>
			<line class="st1" x1="1178.5" y1="10.4" x2="1195.2" y2="10.4"/>
			<line class="st1" x1="1178.5" y1="14.4" x2="1194.5" y2="14.4"/>
			<line class="st1" x1="1178.5" y1="65.4" x2="1194.5" y2="65.4"/>
			<line class="st1" x1="1284.5" y1="10.4" x2="1284.5" y2="73.5"/>
			<line class="st1" x1="1271.2" y1="70.8" x2="1283.2" y2="70.8"/>
		</g>
		<g>
			<g>
				<rect x="1354.5" y="246.5" class="st0" width="17.9" height="82.6"/>
				<polygon class="st0" points="1151.8,233.9 1133.9,233.9 1133.9,316.5 1151.8,316.5 1151.8,346.4 1354.5,346.4 1354.5,214.4 
					1151.8,214.4 				"/>
			</g>
			<rect x="1354.5" y="246.5" class="st1" width="17.9" height="82.6"/>
			<rect x="1133.9" y="233.9" class="st1" width="17.9" height="82.6"/>
			<g>
				<rect x="1225.7" y="237.8" class="st1" width="74.9" height="74.9"/>
				<path class="st1" d="M1278.6,302.4h-30.9c-6.5,0-11.8-5.3-11.8-11.8v-30.9c0-6.5,5.3-11.8,11.8-11.8h30.9
					c6.5,0,11.8,5.3,11.8,11.8v30.9C1290.4,297.2,1285.1,302.4,1278.6,302.4z"/>
				<circle class="st1" cx="1232.5" cy="244.6" r="2.2"/>
				<circle class="st1" cx="1293.7" cy="244.6" r="2.2"/>
				<circle class="st1" cx="1232.5" cy="305.8" r="2.2"/>
				<circle class="st1" cx="1293.7" cy="305.8" r="2.2"/>
			</g>
			<line class="st1" x1="1347.5" y1="214.4" x2="1347.5" y2="346.4"/>
			<g>
				<g>
					<circle class="st1" cx="1192.6" cy="302.2" r="10.8"/>
					<circle class="st1" cx="1192.6" cy="302.2" r="6.9"/>
				</g>
				<g>
					<circle class="st1" cx="1192.6" cy="248.2" r="10.8"/>
					<circle class="st1" cx="1192.6" cy="248.2" r="6.9"/>
				</g>
				<g>
					<circle class="st1" cx="1192.6" cy="275.2" r="10.8"/>
					<circle class="st1" cx="1192.6" cy="275.2" r="6.9"/>
				</g>
			</g>
			<line class="st1" x1="1143.5" y1="235.4" x2="1143.5" y2="316.5"/>
			<line class="st1" x1="1362.5" y1="246.5" x2="1362.5" y2="328.5"/>
			<rect x="1151.8" y="214.4" class="st1" width="202.7" height="132"/>
			<line class="st1" x1="1279.2" y1="312.4" x2="1279.2" y2="345.1"/>
			<line class="st1" x1="1273.8" y1="315.1" x2="1273.8" y2="345.1"/>
			<line class="st1" x1="1249.2" y1="312.4" x2="1249.2" y2="345.2"/>
			<line class="st1" x1="1241.8" y1="214.4" x2="1241.8" y2="235.8"/>
			<path class="st1" d="M1300.5,258.4c0.7,0,1.3,0,2,0h43"/>
			<line class="st1" x1="1300.5" y1="267.4" x2="1346.5" y2="267.4"/>
			<line class="st1" x1="1300.5" y1="293.4" x2="1346.5" y2="293.4"/>
			<line class="st1" x1="1133.8" y1="239.8" x2="1142.8" y2="239.8"/>
			<line class="st1" x1="1133.8" y1="246.4" x2="1143.2" y2="246.4"/>
			<line class="st1" x1="1133.9" y1="253.8" x2="1143.5" y2="253.8"/>
			<line class="st1" x1="1133.8" y1="262.4" x2="1142.9" y2="262.4"/>
			<line class="st1" x1="1133.9" y1="269.8" x2="1142.5" y2="269.8"/>
			<line class="st1" x1="1133.9" y1="276.8" x2="1143.2" y2="276.8"/>
			<line class="st1" x1="1134.5" y1="283.1" x2="1143.5" y2="283.1"/>
			<line class="st1" x1="1133.8" y1="289.4" x2="1143.3" y2="289.4"/>
			<line class="st1" x1="1134.5" y1="296.1" x2="1142.5" y2="296.1"/>
			<line class="st1" x1="1134.5" y1="304.4" x2="1142.2" y2="304.4"/>
			<line class="st1" x1="1134.2" y1="311.1" x2="1142.8" y2="311.1"/>
			<line class="st1" x1="1362.8" y1="253.1" x2="1372.2" y2="253.1"/>
			<line class="st1" x1="1304.2" y1="259.4" x2="1304.2" y2="266.8"/>
			<line class="st1" x1="1307.8" y1="260.1" x2="1307.8" y2="267.1"/>
			<line class="st1" x1="1314.5" y1="259.4" x2="1314.5" y2="266.1"/>
			<line class="st1" x1="1273.8" y1="317.1" x2="1278" y2="317.1"/>
			<line class="st1" x1="1274.2" y1="325.8" x2="1279.2" y2="325.8"/>
			<line class="st1" x1="1363.2" y1="259.8" x2="1370.9" y2="259.8"/>
			<line class="st1" x1="1362.8" y1="267.1" x2="1371.5" y2="267.1"/>
			<line class="st1" x1="1363.2" y1="274.1" x2="1371.6" y2="274.1"/>
			<line class="st1" x1="1363.2" y1="281.4" x2="1371.3" y2="281.4"/>
			<line class="st1" x1="1363.2" y1="287.8" x2="1370.8" y2="287.8"/>
			<line class="st1" x1="1363.2" y1="293.8" x2="1371.2" y2="293.8"/>
			<line class="st1" x1="1363.2" y1="301.4" x2="1371.5" y2="301.4"/>
			<line class="st1" x1="1363.2" y1="307.8" x2="1371.5" y2="307.8"/>
			<line class="st1" x1="1362.8" y1="314.1" x2="1371.2" y2="314.1"/>
			<line class="st1" x1="1363.2" y1="321.8" x2="1371.2" y2="321.8"/>
			<path class="st1" d="M1236.1,279.2c4.6,3.1,9.4,5.8,14.6,7.4s11,2,16.2,0.3c2.2-0.7,4.3-1.8,6.6-2.5c5.4-1.6,11.6-0.6,16.2,2.7"
				/>
			<path class="st1" d="M1236,263c2,3.7,6.7,4.8,10.9,5.5c5.6,0.9,11.2,1.8,16.8,1.2c4.8-0.6,9.5-2.3,14.4-2.3
				c4.2-0.1,8.5,1.2,12,3.5"/>
			<path class="st1" d="M1236.3,259c7.1,2.4,14.8,3.3,22.3,2.7c2.8-0.3,6.4-1.7,6-4.5c-0.2-1.2-1.1-2.1-2-2.9
				c-1.8-1.7-3.6-3.4-5.4-5.1"/>
		</g>
		<g>
			<polygon class="st0" points="1354.5,486.6 1354.5,352.4 1151.8,352.4 1151.8,374 1133.9,374 1133.9,456.5 1151.8,456.5 
				1151.8,486.6 1151.8,500.4 1354.5,500.4 			"/>
			<rect x="1133.9" y="374" class="st1" width="17.9" height="82.6"/>
			<g>
				<rect x="1225.7" y="377.8" class="st1" width="74.9" height="74.9"/>
				<path class="st1" d="M1278.6,442.5h-30.9c-6.5,0-11.8-5.3-11.8-11.8v-30.9c0-6.5,5.3-11.8,11.8-11.8h30.9
					c6.5,0,11.8,5.3,11.8,11.8v30.9C1290.4,437.2,1285.1,442.5,1278.6,442.5z"/>
				<circle class="st1" cx="1232.5" cy="384.7" r="2.2"/>
				<circle class="st1" cx="1293.7" cy="384.7" r="2.2"/>
				<circle class="st1" cx="1232.5" cy="445.8" r="2.2"/>
				<circle class="st1" cx="1293.7" cy="445.8" r="2.2"/>
			</g>
			<rect x="1151.8" y="486.6" class="st1" width="202.7" height="13.8"/>
			<line class="st1" x1="1347.5" y1="352.4" x2="1347.5" y2="486.6"/>
			<g>
				<g>
					<circle class="st1" cx="1192.6" cy="442.3" r="10.8"/>
					<circle class="st1" cx="1192.6" cy="442.3" r="6.9"/>
				</g>
				<g>
					<circle class="st1" cx="1192.6" cy="388.2" r="10.8"/>
					<circle class="st1" cx="1192.6" cy="388.2" r="6.9"/>
				</g>
			</g>
			<line class="st1" x1="1146.5" y1="374.4" x2="1146.5" y2="455.5"/>
			<rect x="1151.8" y="352.4" class="st1" width="202.7" height="148"/>
			<line class="st1" x1="1245.2" y1="452.4" x2="1245.2" y2="486.6"/>
			<line class="st1" x1="1253.8" y1="453.8" x2="1253.8" y2="485.8"/>
			<line class="st1" x1="1262.5" y1="353.8" x2="1262.5" y2="375.8"/>
			<path class="st1" d="M1300.5,435.4c0-0.3,0-0.7,0-1h47"/>
			<line class="st1" x1="1152.5" y1="407.4" x2="1224.5" y2="407.4"/>
			<line class="st1" x1="1134.8" y1="380.4" x2="1145.9" y2="380.4"/>
			<line class="st1" x1="1134.8" y1="387.1" x2="1146.2" y2="387.1"/>
			<line class="st1" x1="1135.2" y1="394.4" x2="1146.2" y2="394.4"/>
			<line class="st1" x1="1134.8" y1="401.8" x2="1145.9" y2="401.8"/>
			<line class="st1" x1="1134.5" y1="408.4" x2="1145.9" y2="408.4"/>
			<line class="st1" x1="1134.8" y1="415.4" x2="1145.9" y2="415.4"/>
			<line class="st1" x1="1134.8" y1="421.4" x2="1145.9" y2="421.4"/>
			<line class="st1" x1="1134.2" y1="428.4" x2="1145.5" y2="428.4"/>
			<line class="st1" x1="1134.5" y1="434.8" x2="1145.8" y2="434.8"/>
			<line class="st1" x1="1134.8" y1="440.8" x2="1145.2" y2="440.8"/>
			<line class="st1" x1="1134.5" y1="447.1" x2="1145.8" y2="447.1"/>
			<line class="st1" x1="1245.5" y1="458.4" x2="1253.8" y2="458.4"/>
			<line class="st1" x1="1246.2" y1="463.1" x2="1253.8" y2="463.1"/>
			<line class="st1" x1="1245.8" y1="481.1" x2="1253.9" y2="481.1"/>
			<path class="st1" d="M1236.3,428.1c9.1,4.6,21.1,2.4,27.9-5.2c2.1-2.3,3.8-5.1,6.6-6.3c3.3-1.4,7.1-0.2,10.6-0.8
				c3.6-0.6,6.7-3.3,8-6.8"/>
			<path class="st1" d="M1236,415.4c7.2,0.5,14.6-2.9,18.9-8.7c1.7-2.3,3.1-5,5.5-6.5c4-2.6,9.3-0.9,14.1-1.4
				c4.4-0.4,8.5-2.8,11.1-6.4"/>
			<path class="st1" d="M1290.4,426.6c-4.3-1.9-9.6-1.1-13.1,2.1c-3.4,3.2-4.7,8.5-3.1,12.9"/>
		</g>
		<g>
			<polygon class="st0" points="1151.8,75.2 1151.8,93.9 1133.9,93.9 1133.9,176.5 1151.8,176.5 1151.8,199.8 1354.5,199.8 
				1354.5,75.2 			"/>
			<rect x="1133.9" y="93.9" class="st1" width="17.9" height="82.6"/>
			<g>
				<rect x="1225.7" y="97.7" class="st1" width="74.9" height="74.9"/>
				<path class="st1" d="M1278.6,162.4h-30.9c-6.5,0-11.8-5.3-11.8-11.8v-30.9c0-6.5,5.3-11.8,11.8-11.8h30.9
					c6.5,0,11.8,5.3,11.8,11.8v30.9C1290.4,157.1,1285.1,162.4,1278.6,162.4z"/>
				<circle class="st1" cx="1232.5" cy="104.6" r="2.2"/>
				<circle class="st1" cx="1293.7" cy="104.6" r="2.2"/>
				<circle class="st1" cx="1232.5" cy="165.8" r="2.2"/>
				<circle class="st1" cx="1293.7" cy="165.8" r="2.2"/>
			</g>
			<line class="st1" x1="1347.5" y1="75.2" x2="1347.5" y2="199.8"/>
			<g>
				<g>
					<circle class="st1" cx="1192.6" cy="162.2" r="10.8"/>
					<circle class="st1" cx="1192.6" cy="162.2" r="6.9"/>
				</g>
				<g>
					<circle class="st1" cx="1192.6" cy="135.2" r="10.8"/>
					<circle class="st1" cx="1192.6" cy="135.2" r="6.9"/>
				</g>
			</g>
			<line class="st1" x1="1144.5" y1="94.4" x2="1144.5" y2="175.6"/>
			<rect x="1151.8" y="75.2" class="st1" width="202.7" height="124.6"/>
			<line class="st1" x1="1254.5" y1="173.1" x2="1254.5" y2="199.4"/>
			<line class="st1" x1="1287.2" y1="172.4" x2="1287.2" y2="199.1"/>
			<line class="st1" x1="1244.5" y1="76.4" x2="1244.5" y2="97.8"/>
			<line class="st1" x1="1302.5" y1="132.4" x2="1345.7" y2="132.4"/>
			<path class="st1" d="M1151.8,109.4c1.2,0,2.5,0,3.7,0h67.3"/>
			<line class="st1" x1="1134.2" y1="100.4" x2="1143.9" y2="100.4"/>
			<line class="st1" x1="1133.8" y1="108.8" x2="1144.5" y2="108.8"/>
			<line class="st1" x1="1133.8" y1="114.8" x2="1143.5" y2="114.8"/>
			<line class="st1" x1="1133.8" y1="121.8" x2="1144.5" y2="121.8"/>
			<line class="st1" x1="1134.2" y1="128.8" x2="1143.8" y2="128.8"/>
			<line class="st1" x1="1134.2" y1="135.8" x2="1143.5" y2="135.8"/>
			<line class="st1" x1="1134.5" y1="142.8" x2="1144.5" y2="142.8"/>
			<line class="st1" x1="1134.5" y1="149.4" x2="1144.5" y2="149.4"/>
			<line class="st1" x1="1133.8" y1="155.4" x2="1144.5" y2="155.4"/>
			<line class="st1" x1="1134.2" y1="161.4" x2="1143.8" y2="161.4"/>
			<line class="st1" x1="1134.2" y1="169.1" x2="1143.8" y2="169.1"/>
			<path class="st1" d="M1269.5,160.9c-4.2-5.8-9.2-12.1-16.3-13.3c-1.9-0.3-4-0.3-5.5-1.4c-0.8-0.6-1.3-1.4-1.9-2.2
				c-2.3-2.9-5.6-4.9-9.2-5.6"/>
			<path class="st1" d="M1236.1,122.8c3.5-0.6,6.9,1.3,9.7,3.5c2.7,2.2,5.1,4.9,8.2,6.7c3.6,2,7.9,2.6,11.9,3.8
				c9.6,3.1,17.5,11.2,20.4,20.9"/>
			<path class="st1" d="M1249.7,109.1c0.1,5.1,1.3,10.9,5.6,13.7c4.6,3,10.9,1.2,15.5-1.9c4.3-2.9,8-6.9,9.6-11.8"/>
		</g>
		<g>
			<line class="st1" x1="1151.8" y1="199.8" x2="1151.8" y2="214.4"/>
			<line class="st1" x1="1354.5" y1="199.8" x2="1354.5" y2="214.4"/>
			<line class="st1" x1="1151.8" y1="346.4" x2="1151.8" y2="352.4"/>
			<line class="st1" x1="1354.5" y1="346.4" x2="1354.5" y2="352.4"/>
		</g>
	</g>
	<g id="_x30_6">
		<g>
			<g>
				<line class="st1" x1="123.1" y1="533.5" x2="193.1" y2="533.5"/>
			</g>
			<g>
				<line class="st1" x1="228.4" y1="533.5" x2="298.4" y2="533.5"/>
			</g>
		</g>
		<g>
			<rect x="174" y="350.7" class="st0" width="170.2" height="7.4"/>
			<rect x="174" y="350.7" class="st1" width="170.2" height="7.4"/>
			<line class="st2" x1="176.7" y1="329.1" x2="342.9" y2="329.1"/>
			<g>
				<path class="st0" d="M259.1,221.2c-47,0-85.1,38.1-85.1,85.1h170.2C344.2,259.3,306.1,221.2,259.1,221.2z"/>
				<path class="st1" d="M344.2,306.3c0-47-38.1-85.1-85.1-85.1S174,259.3,174,306.3"/>
				<line class="st1" x1="174" y1="306.3" x2="344.2" y2="306.3"/>
				<path class="st1" d="M195.9,250.7c-1.5,2-1.8,4.9-0.6,7.1s3.6,3.7,6.2,3.6c3.7-0.1,6.7-3.3,10.3-4.1c5.6-1.4,11,2.9,16.8,3.5
					c4.6,0.5,9.1-1.4,13.1-3.7c11.6-6.7,21.6-18.7,20.5-32c-0.1-1.2-0.4-2.6-1.3-3.4"/>
				<path class="st1" d="M185.6,263.7c-1.2,5.9-2,13,2.5,17.1c4.4,4.1,11.3,2.7,17.3,2.8c4.6,0.1,9.1,1.1,13.7,1.7
					c16.7,2,34.2-3.4,46.3-15c12.1-11.6,18.3-29.3,15.2-45.8"/>
				<path class="st1" d="M204.5,241c0.4,1.8-1.4,3.4-1.3,5.2c0.1,1.3,1.2,2.3,2.4,2.7s2.5,0.3,3.8,0.2c5.5-0.6,10.9-2.1,15.5-5.1
					s8.2-7.7,9.1-13.2c0.2-1.2,0.2-2.4-0.3-3.4s-1.7-1.8-2.9-1.5"/>
				<path class="st1" d="M295.3,306.3c10.8-3.8,20.1-11.8,25.7-21.8c5-9,7-19.7,5.5-30"/>
				<path class="st1" d="M317.5,305.5c11.2-1.7,20.9-10.5,23.6-21.5"/>
			</g>
		</g>
		<g>
			<g>
				<polygon class="st0" points="403.3,401.5 403.3,372.5 78.7,372.5 78.7,414.3 67.7,414.3 67.7,459.5 78.7,459.5 78.7,500.4 
					403.3,500.4 403.3,476.4 403.3,459.5 414.3,459.5 414.3,414.3 403.3,414.3 				"/>
				<rect x="414.3" y="423.4" class="st0" width="9.9" height="9.9"/>
				<rect x="414.3" y="441.4" class="st0" width="9.9" height="9.9"/>
				<rect x="57.8" y="440.5" class="st0" width="9.9" height="9.9"/>
				<rect x="57.8" y="422.5" class="st0" width="9.9" height="9.9"/>
			</g>
			<rect x="78.7" y="372.5" class="st1" width="324.6" height="127.9"/>
			<g>
				<g>
					<circle class="st1" cx="216.8" cy="412.3" r="10.8"/>
					<circle class="st1" cx="216.8" cy="412.3" r="6.9"/>
				</g>
				<g>
					<circle class="st1" cx="162.8" cy="412.3" r="10.8"/>
					<circle class="st1" cx="162.8" cy="412.3" r="6.9"/>
				</g>
				<g>
					<circle class="st1" cx="189.8" cy="412.3" r="10.8"/>
					<circle class="st1" cx="189.8" cy="412.3" r="6.9"/>
				</g>
			</g>
			<g>
				<g>
					<circle class="st1" cx="216.8" cy="459.5" r="10.8"/>
					<circle class="st1" cx="216.8" cy="459.5" r="6.9"/>
				</g>
				<g>
					<circle class="st1" cx="162.8" cy="459.5" r="10.8"/>
					<circle class="st1" cx="162.8" cy="459.5" r="6.9"/>
				</g>
				<g>
					<circle class="st1" cx="189.8" cy="459.5" r="10.8"/>
					<circle class="st1" cx="189.8" cy="459.5" r="6.9"/>
				</g>
			</g>
			<g>
				<rect x="288.1" y="401.5" class="st1" width="115.2" height="74.9"/>
				<g>
					<line class="st1" x1="301.1" y1="419.3" x2="350" y2="419.3"/>
					<line class="st1" x1="301.1" y1="424.9" x2="350" y2="424.9"/>
					<line class="st1" x1="301.1" y1="430.5" x2="350" y2="430.5"/>
					<line class="st1" x1="301.1" y1="436.1" x2="350" y2="436.1"/>
					<line class="st1" x1="301.1" y1="441.8" x2="350" y2="441.8"/>
					<line class="st1" x1="301.1" y1="447.4" x2="350" y2="447.4"/>
					<line class="st1" x1="301.1" y1="453" x2="350" y2="453"/>
					<line class="st1" x1="301.1" y1="458.6" x2="350" y2="458.6"/>
				</g>
				<circle class="st1" cx="295" cy="408.4" r="2.2"/>
				<circle class="st1" cx="295" cy="469.5" r="2.2"/>
			</g>
			<g>
				<g>
					<polyline class="st1" points="403.3,459.5 414.3,459.5 414.3,414.3 403.3,414.3 					"/>
					<rect x="414.3" y="423.4" class="st1" width="9.9" height="9.9"/>
					<rect x="414.3" y="441.4" class="st1" width="9.9" height="9.9"/>
				</g>
			</g>
			<g>
				<g>
					<polyline class="st1" points="78.7,414.3 67.7,414.3 67.7,459.5 78.7,459.5 					"/>
					<rect x="57.8" y="440.5" class="st1" width="9.9" height="9.9"/>
					<rect x="57.8" y="422.5" class="st1" width="9.9" height="9.9"/>
				</g>
			</g>
			<line class="st1" x1="78.7" y1="435.9" x2="288.1" y2="435.9"/>
			<path class="st1" d="M57.8,428c-21-3.2-41.1-11.7-58-24.5"/>
			<path class="st1" d="M57.8,445.3c-19.7,1.1-39.6-2.4-57.7-10.1"/>
			<path class="st1" d="M424.2,427.7c18.1-2.5,36.5-4,54.6-3.1"/>
			<path class="st1" d="M424.2,444.5c18.2-1.7,36.7-1.4,54.6,1.9"/>
			<line class="st1" x1="394.5" y1="401.4" x2="394.5" y2="474.5"/>
			<line class="st1" x1="419.5" y1="423.9" x2="419.5" y2="431.9"/>
			<line class="st1" x1="418.5" y1="441.9" x2="418.5" y2="450.9"/>
			<line class="st1" x1="75.5" y1="414.9" x2="75.5" y2="458.4"/>
			<line class="st1" x1="62.5" y1="423.4" x2="62.5" y2="432.1"/>
			<line class="st1" x1="65" y1="440.9" x2="65" y2="450.5"/>
			<line class="st1" x1="406.5" y1="415.9" x2="406.5" y2="459.2"/>
			<line class="st1" x1="391" y1="401.4" x2="391" y2="475.9"/>
		</g>
	</g>
	<g id="_x30_8">
		<g>
			<polygon class="st0" points="1677.3,410.5 1677.3,381.8 1601,381.8 1601,374.4 1354.5,374.4 1354.5,381.8 1354.5,439.2 
				1590.1,439.2 1614.8,439.2 1706,439.2 1706,410.5 			"/>
			<rect x="1354.5" y="374.4" class="st1" width="246.5" height="7.4"/>
			<polyline class="st1" points="1706,439.2 1706,410.5 1677.3,410.5 1677.3,381.8 1354.5,381.8 1354.5,439.2 1590.1,439.2 			"/>
			<line class="st1" x1="1614.8" y1="439.2" x2="1918" y2="439.2"/>
			<g>
				<g>
					<circle class="st1" cx="1468.6" cy="418" r="10.8"/>
					<circle class="st1" cx="1468.6" cy="418" r="6.9"/>
				</g>
				<g>
					<circle class="st1" cx="1414.6" cy="418" r="10.8"/>
					<circle class="st1" cx="1414.6" cy="418" r="6.9"/>
				</g>
			</g>
			<line class="st1" x1="1677.3" y1="396.2" x2="1354.5" y2="396.2"/>
		</g>
		<g>
			<g>
				<polygon class="st0" points="1583.2,407.2 1586.2,407.2 1586.2,414.2 1590.1,414.2 1590.1,500.4 1614.8,500.4 1614.8,414.2 
					1618.7,414.2 1618.7,407.2 1621.7,407.2 1621.7,396.2 1583.2,396.2 				"/>
				<path class="st0" d="M1572.9,401.7c3,0,5.5-2.5,5.5-5.5h-10.9C1567.4,399.3,1569.9,401.7,1572.9,401.7z"/>
				<path class="st0" d="M1626.5,396.2c0,3,2.5,5.5,5.5,5.5s5.5-2.5,5.5-5.5H1626.5z"/>
			</g>
			<g>
				<rect x="1583.2" y="396.2" class="st1" width="38.5" height="10.9"/>
				<path class="st1" d="M1578.4,396.2c0,3-2.5,5.5-5.5,5.5s-5.5-2.5-5.5-5.5"/>
				<path class="st1" d="M1637.5,396.2c0,3-2.5,5.5-5.5,5.5s-5.5-2.5-5.5-5.5"/>
			</g>
			<g>
				<g>
					<line class="st1" x1="1590.1" y1="468.6" x2="1614.8" y2="468.6"/>
				</g>
				<rect x="1586.2" y="407.2" class="st1" width="32.5" height="7"/>
				<line class="st1" x1="1590.1" y1="500.4" x2="1590.1" y2="414.2"/>
				<line class="st1" x1="1614.8" y1="500.4" x2="1614.8" y2="414.2"/>
			</g>
			<line class="st1" x1="1590.1" y1="500.4" x2="1614.8" y2="500.4"/>
			<line class="st1" x1="1567.4" y1="396.2" x2="1637.5" y2="396.2"/>
		</g>
	</g>
	<g id="_x31_0">
		<polygon class="st0" points="1692.5,500.4 1573.5,500.4 358.4,500.4 288.1,500.4 -0.2,500.4 -0.2,533.5 940.1,533.5 1085.3,533.5 
			1919.8,533.5 1919.8,500.4 		"/>
		<polyline class="st1" points="-0.2,517 -0.2,500.4 1919.8,500.4 1919.8,517 		"/>
		<polyline class="st1" points="1919.8,517 1919.8,533.5 -0.2,533.5 -0.2,517 		"/>
		<polyline class="st1" points="330.5,517 288.1,517 288.1,500.4 358.4,500.4 358.4,517 330.5,517 		"/>
		<rect x="940.1" y="517" class="st1" width="145.2" height="16.6"/>
		<rect x="1573.5" y="500.4" class="st1" width="119" height="16.6"/>
		<line class="st1" x1="940.1" y1="525.4" x2="1085.3" y2="525.4"/>
		<line class="st1" x1="288.5" y1="505.9" x2="358" y2="505.9"/>
		<line class="st1" x1="1573.5" y1="506.4" x2="1691.7" y2="506.4"/>
	</g>
	<g id="_x31_4">
		<g>
			<rect x="1152.5" y="-20.6" class="st0" width="507" height="24.2"/>
			<rect x="1151.5" y="-20.6" class="st1" width="508.2" height="24.2"/>
			<line class="st1" x1="1151.5" y1="-12.6" x2="1659.8" y2="-12.6"/>
			<line class="st3" x1="1641.5" y1="-12.2" x2="1641.5" y2="2.5"/>
			<line class="st3" x1="1644.5" y1="-20.9" x2="1644.5" y2="2.4"/>
			<line class="st3" x1="1646.5" y1="-19.9" x2="1646.5" y2="2.4"/>
			<line class="st3" x1="1152.5" y1="-7.6" x2="1641.5" y2="-7.6"/>
		</g>
		<g>
			<g>
				<polygon class="st0" points="1612,83.4 1612,21.6 1615.9,21.6 1615.9,14.6 1619,14.6 1619,3.6 1580.4,3.6 1580.4,14.6 
					1583.5,14.6 1583.5,21.6 1587.4,21.6 1587.4,83.4 1486.3,83.4 1486.3,3.6 1447.5,3.6 1447.5,83.4 1431.9,83.4 1431.9,90.8 
					1659.5,90.8 1659.5,83.4 				"/>
				<path class="st0" d="M1570.1,9.1c3,0,5.5-2.5,5.5-5.5h-10.9C1564.7,6.6,1567.1,9.1,1570.1,9.1z"/>
				<path class="st0" d="M1629.3,9.1c3,0,5.5-2.5,5.5-5.5h-10.9C1623.8,6.6,1626.2,9.1,1629.3,9.1z"/>
			</g>
			<rect x="1431.9" y="83.4" class="st1" width="227.6" height="7.4"/>
			<g>
				<line class="st1" x1="1447.8" y1="83.1" x2="1447.8" y2="3.6"/>
				<line class="st1" x1="1486.3" y1="3.6" x2="1486.3" y2="83.1"/>
				<line class="st1" x1="1447.8" y1="9.4" x2="1486.1" y2="9.4"/>
				<line class="st1" x1="1448" y1="13.4" x2="1485.3" y2="13.4"/>
				<line class="st1" x1="1447.8" y1="23.9" x2="1486.3" y2="23.9"/>
				<line class="st3" x1="1450.8" y1="3.4" x2="1450.8" y2="8.8"/>
				<line class="st3" x1="1452.8" y1="4.4" x2="1452.8" y2="9.1"/>
				<line class="st3" x1="1480.5" y1="4.1" x2="1480.5" y2="8.8"/>
				<line class="st3" x1="1477.2" y1="4.1" x2="1477.2" y2="9.4"/>
				<line class="st3" x1="1478.8" y1="13.4" x2="1478.8" y2="23.5"/>
				<line class="st1" x1="1447.8" y1="3.6" x2="1486.3" y2="3.6"/>
			</g>
			<g>
				<g>
					<g>
						<rect x="1580.4" y="3.6" class="st1" width="38.5" height="10.9"/>
						<path class="st1" d="M1575.6,3.6c0,3-2.5,5.5-5.5,5.5s-5.5-2.5-5.5-5.5"/>
						<path class="st1" d="M1634.7,3.6c0,3-2.5,5.5-5.5,5.5s-5.5-2.5-5.5-5.5"/>
					</g>
					<g>
						<g>
							<line class="st1" x1="1587.4" y1="76" x2="1612" y2="76"/>
						</g>
						<rect x="1583.5" y="14.6" class="st1" width="32.5" height="7"/>
						<line class="st1" x1="1587.4" y1="83.1" x2="1587.4" y2="21.6"/>
						<line class="st1" x1="1612" y1="83.1" x2="1612" y2="21.6"/>
					</g>
					<line class="st1" x1="1605.9" y1="21.6" x2="1605.9" y2="76"/>
				</g>
				<line class="st3" x1="1587.8" y1="24.8" x2="1605.9" y2="24.8"/>
				<line class="st3" x1="1580.5" y1="7.1" x2="1617.5" y2="7.1"/>
				<line class="st1" x1="1564.7" y1="3.6" x2="1634.7" y2="3.6"/>
			</g>
		</g>
	</g>
	<g id="_x31_5">
		<g>
			<polygon class="st0" points="515.5,494.4 515.5,480.4 502.8,480.4 502.8,184.4 478.8,184.4 478.8,480.4 466.2,480.4 466.2,494.4 
				445.2,494.4 445.2,500.4 536.5,500.4 536.5,494.4 			"/>
			<line class="st1" x1="478.8" y1="184.4" x2="478.8" y2="480.4"/>
			<line class="st1" x1="502.8" y1="480.4" x2="502.8" y2="184.4"/>
			<rect x="445.2" y="494.4" class="st1" width="91.3" height="6"/>
			<rect x="466.2" y="480.4" class="st1" width="49.3" height="14"/>
			<line class="st1" x1="478.8" y1="191.4" x2="502.8" y2="191.4"/>
			<line class="st1" x1="479" y1="196.4" x2="501.5" y2="196.4"/>
			<line class="st1" x1="479.5" y1="207.9" x2="501.6" y2="207.9"/>
			<line class="st1" x1="466" y1="488.9" x2="515" y2="488.9"/>
			<line class="st1" x1="480" y1="473.9" x2="502" y2="473.9"/>
			<line class="st1" x1="479" y1="466.4" x2="502.5" y2="466.4"/>
			<line class="st1" x1="493.2" y1="207.9" x2="493.2" y2="466.4"/>
			<line class="st1" x1="478.8" y1="184.4" x2="502.8" y2="184.4"/>
		</g>
		<g>
			<g>
				<path class="st0" d="M390.6,136.5V99.2c-15.8,0-29.6,8.6-36.9,21.3h-33v7.5h-9.9v9.9h9.9v7.7h-9.9v9.9h9.9v7.5h33
					c7.4,12.7,21.1,21.3,36.9,21.3V147h21.3v-10.7h-21.3V136.5z"/>
				<path class="st1" d="M390.6,184.4V99.2l0,0c-15.8,0-29.6,8.6-36.9,21.3h-33v42.6h33C361,175.9,374.8,184.4,390.6,184.4
					L390.6,184.4z"/>
				<rect x="390.6" y="136.5" class="st1" width="21.3" height="10.7"/>
				<line class="st1" x1="381.9" y1="100.1" x2="381.9" y2="182.7"/>
				<rect x="310.7" y="128" class="st1" width="9.9" height="9.9"/>
				<rect x="310.7" y="145.7" class="st1" width="9.9" height="9.9"/>
				<path class="st1" d="M310.7,132.1c-7.2-1.8-15.7,1.8-19.1,8.5c-0.7,1.4-1.2,2.9-1.3,4.4c-0.1,4.2,3.4,7.8,7.4,9.1
					c4.1,1.4,8.6-3,13-3.4"/>
				<path class="st1" d="M310.7,133.5c-4.6-0.3-9.6-3.3-13.1-5.8c-13.2-9.2-19.7-27.5-22.1-40.8"/>
				<line class="st1" x1="330" y1="121.3" x2="330" y2="163.1"/>
				<line class="st1" x1="353.6" y1="120.5" x2="353.6" y2="163.1"/>
				<line class="st1" x1="348.5" y1="121.3" x2="348.5" y2="163.1"/>
				<line class="st1" x1="382" y1="109.9" x2="390.2" y2="109.9"/>
				<line class="st1" x1="382" y1="117.4" x2="389.3" y2="117.4"/>
				<line class="st1" x1="381.9" y1="127.9" x2="389.6" y2="127.9"/>
				<line class="st1" x1="382.5" y1="137.9" x2="390.6" y2="137.9"/>
				<line class="st1" x1="382" y1="145.9" x2="390.6" y2="145.9"/>
				<line class="st1" x1="395.5" y1="137.4" x2="395.5" y2="146.9"/>
				<line class="st1" x1="401" y1="136.9" x2="401" y2="145.9"/>
				<line class="st1" x1="382.5" y1="154.9" x2="390" y2="154.9"/>
				<line class="st1" x1="381.9" y1="164.9" x2="389.6" y2="164.9"/>
				<line class="st1" x1="382" y1="175.9" x2="390" y2="175.9"/>
				<line class="st1" x1="330" y1="157.9" x2="348.5" y2="157.9"/>
				<line class="st1" x1="330.5" y1="151.9" x2="348.1" y2="151.9"/>
				<line class="st1" x1="316.5" y1="128.4" x2="316.5" y2="137.4"/>
				<line class="st1" x1="317" y1="146.4" x2="317" y2="155.5"/>
				<path class="st1" d="M353.9,154.7c1.8,0.7,2.8,2.6,3.9,4.2c4.9,7.7,13.7,12.7,22.7,13"/>
				<path class="st1" d="M354.3,147.2c5.2,9,16.6,13.8,26.8,11.5"/>
				<path class="st1" d="M354.8,128.2c7.8-5.8,17.3-9.3,27-9.9"/>
			</g>
			<g>
				<g>
					<rect x="581.7" y="121.8" class="st0" width="10.8" height="40"/>
					<path class="st0" d="M601.6,87.2v-24h-42.2c5.8-5.4,9.5-13.2,9.5-21.8c0-0.2,0-0.3,0-0.5l0,0l0,0
						c-0.3-16.2-13.5-29.3-29.8-29.3c-16.5,0-29.8,13.4-29.8,29.8c0,5.2,1.3,10.1,3.7,14.3l0,0l0,0c1.5,2.8,3.5,5.3,5.8,7.5h-46.5
						h-2.9c5.8-5.4,9.5-13.2,9.5-21.8c0-16.5-13.4-29.8-29.8-29.8S419.3,25,419.3,41.4c0,8.6,3.7,16.4,9.5,21.8H-1v24h439.5v12
						h-26.6v85.2h9.8v44.9h6.7v9.9h9.9v-9.9h7.7v9.9h9.9v-9.9h10.7v-44.9h103.2V99.2h-20.2v-12H601.6z M449,45
						c-12.5,0-10.5,14.4-10.5,14.4c-5.7-3.5-9.5-9.8-9.5-17c0-11,9-20,20-20s20,9,20,20c0,7.2-3.8,13.5-9.5,17
						C459.5,59.4,461.5,45,449,45z M528.6,99.2h-69.1v-12h69.1V99.2z M539.1,44.9c-12.7,0-10.5,14.4-10.5,14.4
						c-5.7-3.5-9.5-9.8-9.5-17c0-11,9-20,20-20s20,9,20,20c0,7.2-3.8,13.5-9.5,17C549.6,59.4,551.7,44.9,539.1,44.9z"/>
				</g>
				<g>
					<path class="st1" d="M569.8,109.9h5.4c6.6,0,11.9,5.3,11.9,11.9l0,0"/>
					<path class="st1" d="M587.1,161.8L587.1,161.8c0,6.6-5.3,11.9-11.9,11.9h-5.4"/>
					<rect x="581.7" y="121.8" class="st1" width="10.8" height="40"/>
					<line class="st1" x1="592.5" y1="129.6" x2="581.7" y2="129.6"/>
					<line class="st1" x1="592.5" y1="154.1" x2="581.7" y2="154.1"/>
				</g>
				<g>
					<g>
						<g>
							<rect x="421.7" y="184.4" class="st1" width="44.9" height="44.9"/>
							<g>
								<circle class="st1" cx="444.2" cy="206.9" r="10.8"/>
								<circle class="st1" cx="444.2" cy="206.9" r="6.9"/>
							</g>
						</g>
						<rect x="428.4" y="229.4" class="st1" width="9.9" height="9.9"/>
						<rect x="446" y="229.4" class="st1" width="9.9" height="9.9"/>
					</g>
					<line class="st1" x1="583.3" y1="63.2" x2="549.6" y2="63.2"/>
					<line class="st1" x1="528.6" y1="63.2" x2="459.5" y2="63.2"/>
					<polyline class="st1" points="438.5,63.2 -1,63.2 -1,87.2 438.5,87.2 					"/>
					<line class="st1" x1="459.5" y1="87.2" x2="528.6" y2="87.2"/>
					<line class="st1" x1="549.6" y1="87.2" x2="580.4" y2="87.2"/>
					<line class="st1" x1="459.5" y1="99.2" x2="528.6" y2="99.2"/>
					<polyline class="st1" points="549.6,99.2 569.8,99.2 569.8,184.4 411.9,184.4 411.9,99.2 438.5,99.2 					"/>
					<rect x="580.4" y="63.2" class="st1" width="21.2" height="24"/>
					<line class="st1" x1="424.5" y1="99.2" x2="424.5" y2="184.4"/>
					<rect x="438.5" y="55.4" class="st1" width="21" height="67.5"/>
					<path class="st1" d="M459.5,55.4c0-5.8-4.7-10.5-10.5-10.5s-10.5,4.7-10.5,10.5"/>
					<g>
						<rect x="528.6" y="55.4" class="st1" width="21" height="67.5"/>
						<path class="st1" d="M549.6,55.4c0-5.8-4.7-10.5-10.5-10.5s-10.5,4.7-10.5,10.5"/>
					</g>
					<path class="st1" d="M459.5,60.3c5.9-3.6,9.9-10.1,9.9-17.5c0-11.3-9.1-20.4-20.4-20.4s-20.4,9.1-20.4,20.4
						c0,7.4,4,13.9,9.9,17.5"/>
					<path class="st1" d="M549.6,60.3c5.9-3.6,9.9-10.1,9.9-17.5c0-11.3-9.1-20.4-20.4-20.4c-11.3,0-20.4,9.1-20.4,20.4
						c0,7.4,4,13.9,9.9,17.5"/>
					<path class="st1" d="M428.7,63.2c-5.8-5.4-9.5-13.2-9.5-21.8c0-16.5,13.4-29.8,29.8-29.8s29.8,13.4,29.8,29.8
						c0,8.6-3.7,16.4-9.5,21.8"/>
					<path class="st1" d="M518.7,63.2c-5.8-5.4-9.5-13.2-9.5-21.8c0-16.5,13.4-29.8,29.8-29.8c16.5,0,29.8,13.4,29.8,29.8
						c0,8.6-3.7,16.4-9.5,21.8"/>
					<g>
						<rect x="482" y="121.3" class="st1" width="17.6" height="45.2"/>
						<rect x="499.6" y="130.4" class="st1" width="9.9" height="9.9"/>
						<rect x="499.6" y="148.4" class="st1" width="9.9" height="9.9"/>
						<rect x="472.1" y="130.4" class="st1" width="9.9" height="9.9"/>
						<rect x="472.1" y="148.4" class="st1" width="9.9" height="9.9"/>
					</g>
					<path class="st1" d="M509.6,136.2c5,1.1,10.1,2,15.2,1.8c5.3-0.2,10.7-1.6,14.9-4.9c3.5-2.7,4-6.4,6.3-10.2"/>
					<path class="st1" d="M509.6,154.1c5.9,0.8,12,1.1,17-1.9c5.2-3.1,7.8-9.1,9.6-14.8c1.5-4.7,2.6-9.6,3.3-14.5"/>
					<path class="st1" d="M472.1,153.9c-4.4,1.1-8.7,2.7-12.9,4.3c-18.1,6.8-37.2,14.3-48.8,29.7c-8.8,11.6-12.3,26.5-12.1,41.1
						c0.1,9.1,1.9,18.8,8.3,25.3s18.5,7.8,24.1,0.6c3.3-4.3,3.6-10.2,3.3-15.5"/>
					<path class="st1" d="M472.1,135.7c-10.7,3.5-20,10.4-28.2,18.2c-12.4,11.7-22.8,25.6-29.1,41.5c-6.3,15.8-8.1,33.6-3.8,50.1
						c2.7,10.4,8.5,20.7,18.3,25.2c5.6,2.6,12.7,2.8,17.4-1.1c4-3.3,5.5-8.7,6.1-13.8c0.6-5.5,0.2-11-0.9-16.3"/>
					<line class="st1" x1="553.5" y1="63.9" x2="553.5" y2="87.2"/>
					<line class="st1" x1="559.5" y1="64.4" x2="559.5" y2="87.2"/>
					<line class="st1" x1="465.5" y1="64.4" x2="465.5" y2="87.2"/>
					<line class="st1" x1="471.5" y1="63.4" x2="471.5" y2="85.9"/>
					<line class="st1" x1="523.5" y1="63.9" x2="523.5" y2="85.9"/>
					<line class="st1" x1="432.5" y1="63.9" x2="432.5" y2="87.2"/>
					<line class="st1" x1="427.5" y1="62.4" x2="427.5" y2="85.9"/>
					<line class="st1" x1="412" y1="63.4" x2="412" y2="86.5"/>
					<line class="st1" x1="412.5" y1="108.9" x2="423.5" y2="108.9"/>
					<line class="st1" x1="412" y1="116.4" x2="423" y2="116.4"/>
					<line class="st1" x1="411.9" y1="156.4" x2="423.5" y2="156.4"/>
					<line class="st1" x1="439" y1="117.4" x2="458" y2="117.4"/>
					<line class="st1" x1="439" y1="109.9" x2="459" y2="109.9"/>
					<path class="st1" d="M529.5,118.4c0.2,0,0.3,0,0.5,0h18.5"/>
					<line class="st1" x1="529.5" y1="110.4" x2="548.5" y2="110.4"/>
					<line class="st1" x1="503.5" y1="130.9" x2="503.5" y2="138.9"/>
					<line class="st1" x1="504.5" y1="149.9" x2="504.5" y2="157"/>
					<line class="st1" x1="478" y1="148.9" x2="478" y2="157.5"/>
					<line class="st1" x1="477.5" y1="131.4" x2="477.5" y2="138.9"/>
					<line class="st1" x1="422" y1="188.9" x2="466.6" y2="188.9"/>
					<line class="st1" x1="428.4" y1="233.9" x2="438.3" y2="233.9"/>
					<line class="st1" x1="446" y1="233.4" x2="456" y2="233.4"/>
					<line class="st1" x1="454.5" y1="56.4" x2="454.5" y2="108.5"/>
					<line class="st1" x1="451" y1="55.9" x2="451" y2="109.9"/>
					<line class="st1" x1="534.5" y1="56.4" x2="534.5" y2="110.4"/>
					<line class="st1" x1="539" y1="56.9" x2="539" y2="110.4"/>
					<path class="st1" d="M553.3,57.4c1.6,2,3.5,3.7,5.7,5"/>
					<path class="st1" d="M557.1,53.4c2,1.2,4,2.4,5.9,3.6"/>
					<path class="st1" d="M558.9,47.6c2.7,1.2,5.7,1.8,8.6,1.9"/>
					<path class="st1" d="M559.5,42.4c3.2-0.2,6.3-0.7,9.4-1.5"/>
					<path class="st1" d="M523.7,56.7c-1.9,1.5-3.9,3-5.8,4.6"/>
					<path class="st1" d="M520.3,50.8c-2.7,1.2-5.2,2.9-7.4,4.9"/>
					<path class="st1" d="M518,45.8c-2.7,0.7-5.3,1.3-8,2"/>
					<path class="st1" d="M509.5,40.4c2.8,0,5.7,0,8.5,0"/>
					<path class="st1" d="M463.6,57.9c1.5,1.7,3,3.3,4.5,5"/>
					<path class="st1" d="M467.5,54c2,1.2,4.2,2.1,6.5,2.5"/>
					<path class="st1" d="M469,47.5c2.5,0.5,5,1.1,7.5,1.6"/>
					<path class="st1" d="M470.5,41.4c2.3-0.3,4.7-0.7,7-1"/>
					<path class="st1" d="M468.6,34.1c2.3-1,4.6-2.1,7-3.1"/>
					<path class="st1" d="M434.9,57.4c-1.6,1.9-3.2,3.8-4.8,5.6"/>
					<path class="st1" d="M430.7,53.1c-2,1.5-4,3.1-6,4.7"/>
					<path class="st1" d="M427.5,46.9c-2.1,0.7-4.3,1.4-6.4,2.2"/>
					<path class="st1" d="M419.2,41.1c2.9-0.1,5.9-0.3,8.8-0.4"/>
					<path class="st1" d="M421,31.8c3.3,0.5,6.6,1.1,9.9,1.6"/>
					<line class="st1" x1="425.2" y1="177.1" x2="569.2" y2="177.1"/>
					<line class="st1" x1="-0.5" y1="80.4" x2="410.5" y2="80.4"/>
					<line class="st1" x1="0" y1="76.4" x2="410.7" y2="76.4"/>
				</g>
			</g>
		</g>
	</g>
	<g id="_x31_7">
		<g>
			<g>
				<line class="st4" x1="772" y1="1063.6" x2="772" y2="1102.1"/>
			</g>
		</g>
	</g>
</g>
</svg>
