<?xml version="1.0" encoding="utf-8"?>
<!-- Generator: Adobe Illustrator 19.0.0, SVG Export Plug-In . SVG Version: 6.00 Build 0)  -->
<svg version="1.1" id="Слой_1" xmlns="http://www.w3.org/2000/svg" xmlns:xlink="http://www.w3.org/1999/xlink" x="0px" y="0px"
	 viewBox="0 500.4 1920 638.8" style="enable-background:new 0 500.4 1920 638.8;" xml:space="preserve">
<style type="text/css">
	.st0{fill:none;stroke:#827957;stroke-width:2;stroke-linecap:round;stroke-linejoin:round;stroke-miterlimit:10;}
	.st1{fill:#F4E1A1;}
	.st2{fill:none;stroke:#827957;stroke-width:2.0006;stroke-linecap:round;stroke-linejoin:round;stroke-miterlimit:10;}
	.st3{fill:none;stroke:#827957;stroke-linecap:round;stroke-linejoin:round;stroke-miterlimit:10;}
	.st4{fill:none;stroke:#827957;stroke-width:2.0066;stroke-linecap:round;stroke-linejoin:round;stroke-miterlimit:10;}
	.st5{display:none;fill:none;stroke:#827957;stroke-width:2;stroke-linecap:round;stroke-linejoin:round;stroke-miterlimit:10;}
</style>
<g id="conveer_x5F_elements">
	<g id="_x30_2">
		<g>
			<line class="st0" x1="1587.4" y1="1030.2" x2="1612" y2="1030.2"/>
		</g>
	</g>
	<g id="_x30_5">
		<g>
			<g>
				<g>
					<line class="st0" x1="8.7" y1="1696.7" x2="8.7" y2="1721.4"/>
				</g>
				<line class="st0" x1="1.5" y1="1696.7" x2="1.5" y2="1721.4"/>
			</g>
		</g>
		<g>
			<g>
				<g>
					<line class="st0" x1="8.7" y1="1802" x2="8.7" y2="1826.7"/>
				</g>
				<line class="st0" x1="1.5" y1="1802" x2="1.5" y2="1826.7"/>
			</g>
		</g>
	</g>
	<g id="_x30_6">
		<g>
			<g>
				<polygon class="st1" points="275.7,614.1 275.7,551.5 279.6,551.5 279.6,544.5 282.7,544.5 282.7,533.5 244.1,533.5 
					244.1,544.5 247.2,544.5 247.2,551.5 251.1,551.5 251.1,614.1 170.4,614.1 170.4,551.5 174.3,551.5 174.3,544.5 177.4,544.5 
					177.4,533.5 138.8,533.5 138.8,544.5 141.9,544.5 141.9,551.5 145.8,551.5 145.8,614.1 128.5,614.1 128.5,621.5 298.8,621.5 
					298.8,614.1 				"/>
				<path class="st1" d="M134,533.5h-10.9c0,3,2.5,5.5,5.5,5.5C131.6,539,134,536.6,134,533.5z"/>
				<path class="st1" d="M187.7,539c3,0,5.5-2.5,5.5-5.5h-10.9C182.2,536.6,184.6,539,187.7,539z"/>
				<path class="st1" d="M233.8,539c3,0,5.5-2.5,5.5-5.5h-10.9C228.4,536.6,230.8,539,233.8,539z"/>
				<path class="st1" d="M293,539c3,0,5.5-2.5,5.5-5.5h-10.9C287.5,536.6,289.9,539,293,539z"/>
			</g>
			<rect x="128.5" y="614.1" class="st0" width="170.2" height="7.4"/>
			<g>
				<g>
					<rect x="138.8" y="533.5" class="st0" width="38.5" height="10.9"/>
					<path class="st0" d="M134,533.5c0,3-2.5,5.5-5.5,5.5s-5.5-2.5-5.5-5.5"/>
					<path class="st0" d="M193.1,533.5c0,3-2.5,5.5-5.5,5.5s-5.5-2.5-5.5-5.5"/>
				</g>
				<g>
					<g>
						<line class="st0" x1="145.8" y1="605.9" x2="170.4" y2="605.9"/>
					</g>
					<rect x="141.9" y="544.5" class="st0" width="32.5" height="7"/>
					<line class="st0" x1="145.8" y1="613.1" x2="145.8" y2="551.5"/>
					<line class="st0" x1="170.4" y1="613.1" x2="170.4" y2="551.5"/>
				</g>
				<line class="st0" x1="164.3" y1="551.5" x2="164.3" y2="605.9"/>
				<line class="st0" x1="123.1" y1="533.5" x2="193.1" y2="533.5"/>
			</g>
			<g>
				<g>
					<rect x="244.1" y="533.5" class="st0" width="38.5" height="10.9"/>
					<path class="st0" d="M239.3,533.5c0,3-2.5,5.5-5.5,5.5s-5.5-2.5-5.5-5.5"/>
					<path class="st0" d="M298.4,533.5c0,3-2.5,5.5-5.5,5.5s-5.5-2.5-5.5-5.5"/>
				</g>
				<g>
					<g>
						<line class="st0" x1="251.1" y1="605.9" x2="275.7" y2="605.9"/>
					</g>
					<rect x="247.2" y="544.5" class="st0" width="32.5" height="7"/>
					<line class="st0" x1="251.1" y1="613.1" x2="251.1" y2="551.5"/>
					<line class="st0" x1="275.7" y1="613.1" x2="275.7" y2="551.5"/>
				</g>
				<line class="st0" x1="269.6" y1="551.5" x2="269.6" y2="605.9"/>
				<line class="st0" x1="228.4" y1="533.5" x2="298.4" y2="533.5"/>
			</g>
		</g>
	</g>
	<g id="_x30_8">
		<g>
			<line class="st0" x1="1590.1" y1="500.4" x2="1614.8" y2="500.4"/>
		</g>
	</g>
	<g id="_x31_0">
		<polygon class="st1" points="1692.5,500.4 1573.5,500.4 358.4,500.4 288.1,500.4 -0.2,500.4 -0.2,533.5 940.1,533.5 1085.3,533.5 
			1919.8,533.5 1919.8,500.4 		"/>
		<rect x="-0.2" y="500.4" class="st0" width="1920" height="33.1"/>
		<rect x="288.1" y="500.4" class="st0" width="70.3" height="16.6"/>
		<rect x="940.1" y="517" class="st0" width="145.2" height="16.6"/>
		<rect x="1573.5" y="500.4" class="st0" width="119" height="16.6"/>
		<line class="st0" x1="940.1" y1="525.4" x2="1085.3" y2="525.4"/>
		<line class="st0" x1="288.5" y1="505.9" x2="358" y2="505.9"/>
		<line class="st0" x1="1573.5" y1="506.4" x2="1691.7" y2="506.4"/>
	</g>
	<g id="_x31_3">
		<g>
			<g>
				<g>
					<path class="st0" d="M1467.4,1895.4"/>
				</g>
			</g>
		</g>
		<g>
			<g>
				<line class="st0" x1="-1" y1="1517.3" x2="-1" y2="1611.5"/>
			</g>
		</g>
	</g>
	<g id="_x31_5">
		<g>
			<path class="st1" d="M556.4,831.6v-6.5h-16v-37.5h-0.1c-0.2-1.8-1.1-3.5-2.3-4.8l0,0l-16-16.1l-2.7-3.1l0,0v-57h-16.5V553.4h12.7
				v-14h21v-6h-91.3v6h21v14h12.7v153.2h-16.5v57l0,0l-3,3.4h0.3l-14.8,14.7c-0.9,0.6-1.7,1.4-2.3,2.3l-0.5,0.5l0.1,0.1
				c-0.6,1.2-1,2.5-1,3.9l0,0V825h-16v6.5H402v9.4h63.8v27.3h16.8v173.4h16.5V868.2h16.8V841h63.8v-9.4H556.4z M482.6,825.1h-25
				v-33.8l24.5-24.2h0.5V825.1z M499.1,825.1v-58h0.1L524,792v33.1H499.1z"/>
			<rect x="462.3" y="706.7" class="st0" width="57" height="57"/>
			<polyline class="st0" points="478.8,553.5 478.8,706.7 502.8,706.7 502.8,553.5 			"/>
			<g>
				<g>
					<circle class="st0" cx="449.4" cy="788.6" r="8.2"/>
					<line class="st0" x1="443.6" y1="782.9" x2="462.8" y2="763.7"/>
					<line class="st0" x1="455.2" y1="794.4" x2="482.5" y2="767.1"/>
					<line class="st0" x1="441.2" y1="788.6" x2="441.2" y2="825.1"/>
					<line class="st0" x1="457.6" y1="792" x2="457.6" y2="825.1"/>
				</g>
				<g>
					<circle class="st0" cx="532.2" cy="788.6" r="8.2"/>
					<line class="st0" x1="538" y1="782.9" x2="518.9" y2="763.7"/>
					<line class="st0" x1="526.4" y1="794.4" x2="499.1" y2="767.1"/>
					<line class="st0" x1="540.4" y1="788.6" x2="540.4" y2="825.1"/>
					<line class="st0" x1="524" y1="792" x2="524" y2="825.1"/>
				</g>
			</g>
			<line class="st0" x1="459.4" y1="767.1" x2="522.3" y2="767.1"/>
			<rect x="402" y="831.6" class="st0" width="177.7" height="9.4"/>
			<rect x="465.8" y="841" class="st0" width="50" height="27.3"/>
			<rect x="482.6" y="868.3" class="st0" width="16.5" height="173.4"/>
			<rect x="482.6" y="767.1" class="st0" width="16.5" height="58"/>
			<rect x="425.2" y="825.1" class="st0" width="131.2" height="6.5"/>
			<rect x="445.2" y="533.5" class="st0" width="91.3" height="6"/>
			<rect x="466.2" y="539.5" class="st0" width="49.3" height="14"/>
			<line class="st0" x1="479" y1="558.4" x2="501.7" y2="558.4"/>
			<line class="st0" x1="479" y1="564.4" x2="502.8" y2="564.4"/>
			<line class="st0" x1="479" y1="573.4" x2="502.1" y2="573.4"/>
			<line class="st0" x1="511" y1="706.7" x2="511" y2="763.7"/>
			<line class="st0" x1="499" y1="707.9" x2="499" y2="762.4"/>
			<line class="st0" x1="466.5" y1="707.4" x2="466.5" y2="761.9"/>
			<line class="st0" x1="473" y1="707.9" x2="473" y2="762.4"/>
			<line class="st0" x1="465.8" y1="846.9" x2="515.8" y2="846.9"/>
			<line class="st0" x1="482.5" y1="873.4" x2="499.1" y2="873.4"/>
			<line class="st0" x1="483" y1="878.9" x2="499.1" y2="878.9"/>
			<line class="st0" x1="493.2" y1="573.4" x2="493.2" y2="706.7"/>
			<line class="st0" x1="466" y1="545.9" x2="515.5" y2="545.9"/>
		</g>
	</g>
	<g id="_x31_7">
		<g>
			<g>
				<path class="st1" d="M978.5,753v-10c0-10.3-8.4-18.7-18.7-18.7l0,0c-10.3,0-18.7,8.4-18.7,18.7v10H978.5z"/>
				<path class="st1" d="M1102.9,795.5c0-4.8-3.2-8.8-7.6-10c0,0-0.1,0-0.1-0.1l0,0c-0.8-0.2-1.7-0.3-2.6-0.3
					c-5.7,0-10.3,4.6-10.3,10.3c0,1.7,0.4,3.3,1.1,4.7l-0.1,0.2c0.1,0,0.2,0,0.3,0c1.5,2.7,4.1,4.7,7.2,5.3l0,0v63.8h-5.3v-17.1
					h-15.6v-90.6h-81.5V753h-56.7v8.7h-96.9v235.5H869l0,0h133.5l0,0h67.1v-81.9h15.6v-17.5h14.6v-28.4h-5.3v-63.8l0,0
					C1099.3,804.7,1102.9,800.5,1102.9,795.5z"/>
			</g>
			<polyline class="st2" points="834.5,997.1 834.5,761.7 1069.6,761.7 1069.6,997.1 			"/>
			<g>
				<g>
					<g>
						<rect x="875.8" y="910.3" class="st0" width="48" height="24"/>
						<rect x="875.8" y="862.3" class="st0" width="48" height="48"/>
						<rect x="875.8" y="838.3" class="st0" width="48" height="24"/>
						<rect x="869.8" y="832.3" class="st0" width="60" height="108"/>
						<rect x="875.8" y="838.3" class="st0" width="48" height="96"/>
						<circle class="st0" cx="899.8" cy="886.3" r="18"/>
						<path class="st0" d="M917.8,838.3c0,9.9-8.1,18-18,18s-18-8.1-18-18"/>
						<path class="st0" d="M881.8,934.3c0-9.9,8.1-18,18-18s18,8.1,18,18"/>
					</g>
					<rect x="862.3" y="832.3" class="st0" width="67.5" height="108"/>
				</g>
				<g>
					<g>
						<rect x="935.8" y="910.3" class="st0" width="48" height="24"/>
						<rect x="935.8" y="862.3" class="st0" width="48" height="48"/>
						<rect x="935.8" y="838.3" class="st0" width="48" height="24"/>
						<rect x="929.8" y="832.3" class="st0" width="60" height="108"/>
						<rect x="935.8" y="838.3" class="st0" width="48" height="96"/>
						<circle class="st0" cx="959.8" cy="886.3" r="18"/>
						<path class="st0" d="M977.8,838.3c0,9.9-8.1,18-18,18s-18-8.1-18-18"/>
						<path class="st0" d="M941.8,934.3c0-9.9,8.1-18,18-18s18,8.1,18,18"/>
					</g>
				</g>
				<g>
					<g>
						<rect x="995.8" y="910.3" class="st0" width="48" height="24"/>
						<rect x="995.8" y="862.3" class="st0" width="48" height="48"/>
						<rect x="995.8" y="838.3" class="st0" width="48" height="24"/>
						<rect x="989.8" y="832.3" class="st0" width="60" height="108"/>
						<rect x="995.8" y="838.3" class="st0" width="48" height="96"/>
						<circle class="st0" cx="1019.8" cy="886.3" r="18"/>
						<path class="st0" d="M1037.8,838.3c0,9.9-8.1,18-18,18s-18-8.1-18-18"/>
						<path class="st0" d="M1001.8,934.3c0-9.9,8.1-18,18-18c9.9,0,18,8.1,18,18"/>
					</g>
					<rect x="989.8" y="832.3" class="st0" width="67.5" height="108"/>
				</g>
			</g>
			<rect x="862.3" y="772.4" class="st0" width="195" height="49"/>
			<g>
				<path class="st0" d="M978.5,753v-10c0-10.3-8.4-18.7-18.7-18.7l0,0c-10.3,0-18.7,8.4-18.7,18.7v10"/>
				<rect x="931.4" y="753" class="st0" width="56.7" height="8.7"/>
				<path class="st0" d="M963.3,753v-14.7c0-2-1.6-3.5-3.5-3.5l0,0c-2,0-3.5,1.6-3.5,3.5V753"/>
			</g>
			<rect x="869" y="966.2" class="st0" width="133.5" height="30.9"/>
			<line class="st0" x1="869" y1="981.7" x2="1002.5" y2="981.7"/>
			<line class="st0" x1="869" y1="989.7" x2="1002.5" y2="989.7"/>
			<circle class="st0" cx="1036.3" cy="971.2" r="16.5"/>
			<rect x="1033.3" y="960.7" class="st0" width="6" height="21"/>
			<line class="st3" x1="1037.2" y1="960.4" x2="1037.2" y2="981.1"/>
			<g>
				<rect x="1069.6" y="852.3" class="st0" width="15.6" height="63"/>
				<polyline class="st0" points="1094.5,869.4 1099.9,869.4 1099.9,897.8 1085.3,897.8 1085.3,869.4 1090.6,869.4 				"/>
				<polyline class="st0" points="1090.6,805.6 1090.6,880.9 1094.5,880.9 1094.5,805.6 				"/>
				<circle class="st0" cx="1092.6" cy="795.5" r="10.3"/>
				<line class="st0" x1="1085.5" y1="890.9" x2="1099.5" y2="890.9"/>
				<line class="st0" x1="1070" y1="908.4" x2="1084" y2="908.4"/>
				<line class="st0" x1="1069.5" y1="903.9" x2="1084.5" y2="903.9"/>
				<line class="st0" x1="1070" y1="858.9" x2="1084" y2="858.9"/>
				<line class="st0" x1="1070.5" y1="864.4" x2="1085" y2="864.4"/>
				<line class="st0" x1="1070.5" y1="872.9" x2="1085.3" y2="872.9"/>
				<path class="st0" d="M1070.5,885.9c0,0.2,0,0.3,0,0.5h14"/>
				<path class="st3" d="M1082.8,798.5c2.9-0.3,5.7-1.9,7.3-4.3c1.6-2.4,2.2-5.6,1.3-8.4"/>
				<path class="st3" d="M1083.2,800.3c2.2,0.4,4.4,0.7,6.5,0.4c2.2-0.3,4.3-1.3,5.6-3.1c1.6-2.2,1.6-5.3,1.6-8
					c0-1.6-0.3-3.5-1.7-4.2"/>
			</g>
			<line class="st3" x1="984" y1="753.9" x2="984" y2="760.9"/>
			<line class="st3" x1="975" y1="753.4" x2="975" y2="760.9"/>
			<line class="st3" x1="979.5" y1="753.4" x2="979.5" y2="760.5"/>
			<line class="st3" x1="937" y1="753.4" x2="937" y2="761"/>
		</g>
		<g>
			<polygon class="st1" points="392.7,1075.2 392.7,1091 -0.2,1091 -0.2,1111.7 392.7,1111.7 392.7,1127.4 398.1,1127.4 
				398.1,1075.2 			"/>
			<rect x="-0.2" y="1091" class="st0" width="392.9" height="20.7"/>
			<rect x="392.7" y="1075.2" class="st0" width="5.4" height="52.2"/>
			<line class="st0" x1="387.2" y1="1091.1" x2="387.2" y2="1111.8"/>
			<line class="st0" x1="381.8" y1="1091.8" x2="381.8" y2="1110.5"/>
			<line class="st3" x1="-0.5" y1="1105.4" x2="381.5" y2="1105.4"/>
		</g>
		<g>
			<rect x="-0.2" y="997.1" class="st1" width="398.3" height="33.1"/>
			<polyline class="st0" points="398.1,1030.2 -0.2,1030.2 -0.2,997.1 398.1,997.1 			"/>
			<line class="st0" x1="391.8" y1="997.8" x2="391.8" y2="1029.8"/>
			<line class="st0" x1="386.5" y1="998.4" x2="386.5" y2="1030.5"/>
			<line class="st0" x1="365.2" y1="998.4" x2="365.2" y2="1029.8"/>
			<line class="st0" x1="365.1" y1="1019.1" x2="-1" y2="1019.1"/>
			<line class="st3" x1="-0.5" y1="1011.4" x2="364.5" y2="1011.4"/>
			<line class="st0" x1="398.1" y1="997.1" x2="398.1" y2="1030.2"/>
		</g>
		<g>
			<g>
				<rect x="700.2" y="761.7" class="st1" width="134.5" height="235.5"/>
				<rect x="677.6" y="816.3" class="st1" width="10.8" height="40"/>
			</g>
			<polyline class="st4" points="700.2,997.1 700.2,761.7 834.7,761.7 834.7,997.1 			"/>
			<g>
				<rect x="724.9" y="783.9" class="st0" width="74.9" height="74.9"/>
				<g>
					<line class="st0" x1="737.8" y1="801.6" x2="786.8" y2="801.6"/>
					<line class="st0" x1="737.8" y1="807.3" x2="786.8" y2="807.3"/>
					<line class="st0" x1="737.8" y1="812.9" x2="786.8" y2="812.9"/>
					<line class="st0" x1="737.8" y1="818.5" x2="786.8" y2="818.5"/>
					<line class="st0" x1="737.8" y1="824.1" x2="786.8" y2="824.1"/>
					<line class="st0" x1="737.8" y1="829.8" x2="786.8" y2="829.8"/>
					<line class="st0" x1="737.8" y1="835.4" x2="786.8" y2="835.4"/>
					<line class="st0" x1="737.8" y1="841" x2="786.8" y2="841"/>
				</g>
				<circle class="st0" cx="731.7" cy="790.7" r="2.2"/>
				<circle class="st0" cx="792.9" cy="790.7" r="2.2"/>
				<circle class="st0" cx="731.7" cy="851.9" r="2.2"/>
				<circle class="st0" cx="792.9" cy="851.9" r="2.2"/>
			</g>
			<g>
				<path class="st0" d="M700.2,868.3h-5.4c-6.6,0-11.9-5.3-11.9-11.9l0,0"/>
				<path class="st0" d="M682.9,816.3L682.9,816.3c0-6.6,5.3-11.9,11.9-11.9h5.4"/>
				<rect x="677.6" y="816.3" class="st0" width="10.8" height="40"/>
				<line class="st0" x1="677.6" y1="848.6" x2="688.3" y2="848.6"/>
				<line class="st0" x1="677.6" y1="824.1" x2="688.3" y2="824.1"/>
			</g>
			<line class="st0" x1="736.5" y1="937.4" x2="834.7" y2="937.4"/>
			<line class="st0" x1="736.5" y1="948.4" x2="834.5" y2="948.4"/>
			<line class="st0" x1="735.5" y1="964.4" x2="834.5" y2="964.4"/>
			<line class="st0" x1="741.2" y1="937.4" x2="741.2" y2="947.4"/>
			<line class="st0" x1="746.8" y1="937.8" x2="746.8" y2="948.6"/>
			<line class="st0" x1="829.5" y1="937.4" x2="829.5" y2="948.4"/>
			<line class="st0" x1="823.2" y1="938.1" x2="823.2" y2="948.1"/>
			<line class="st0" x1="813.5" y1="937.4" x2="813.5" y2="948.5"/>
			<line class="st4" x1="834.7" y1="997.1" x2="700.2" y2="997.1"/>
			<line class="st4" x1="736.5" y1="937.4" x2="736.5" y2="948.4"/>
		</g>
		<g>
			<path class="st1" d="M1919.8,558h-102.9v-7.5h-18v7.5H1674v-7.5h-18v7.5h-125v-7.5h-18v7.5h-124.9v-7.5h-18v4.5h-0.1
				c0,0.1,0,0.1,0.1,0.2v2.8h-98.3v-24.4h-28.6v51.2h28.6v-20.2h98.3v20.2h18v-20.2H1513v1l-0.2-0.1c0,0.9,0,1.7,0.2,2.6v16.8h18
				v-20.2h125v4l0,0l0,0v16.2h18v-20.2h124.9v1.5h-0.1c0,0.1,0.1,0.3,0.1,0.4V585h18v-20.2h102.9V558z"/>
			<g>
				<line class="st0" x1="1919.8" y1="558.2" x2="1816.9" y2="558.2"/>
				<line class="st0" x1="1798.9" y1="558.2" x2="1674" y2="558.2"/>
				<line class="st0" x1="1656" y1="558.2" x2="1531" y2="558.2"/>
				<line class="st0" x1="1513" y1="558.2" x2="1388.1" y2="558.2"/>
				<line class="st0" x1="1370.1" y1="558.2" x2="1271.8" y2="558.2"/>
				<line class="st0" x1="1919.8" y1="564.4" x2="1816.9" y2="564.4"/>
				<line class="st0" x1="1798.9" y1="564.4" x2="1674" y2="564.4"/>
				<line class="st0" x1="1656" y1="564.4" x2="1531" y2="564.4"/>
				<line class="st0" x1="1513" y1="564.4" x2="1388.1" y2="564.4"/>
				<line class="st0" x1="1370.1" y1="564.4" x2="1271.8" y2="564.4"/>
				<rect x="1370.1" y="550.5" class="st0" width="18" height="34.3"/>
				<rect x="1513" y="550.5" class="st0" width="18" height="34.3"/>
				<rect x="1656" y="550.5" class="st0" width="18" height="34.3"/>
				<rect x="1798.9" y="550.5" class="st0" width="18" height="34.3"/>
			</g>
			<rect x="1243.2" y="533.5" class="st0" width="28.6" height="51.2"/>
			<g>
				<g>
					<path class="st1" d="M1431.9,653.6v10c0,10.3,8.4,18.7,18.7,18.7l0,0c10.3,0,18.7-8.4,18.7-18.7v-10H1431.9z"/>
					<polygon class="st1" points="1465.3,644.9 1465.3,629 1463.3,629 1463.3,624.9 1453.7,624.9 1453.7,629 1447.5,629 
						1447.5,624.9 1437.9,624.9 1437.9,629 1435.8,629 1435.8,644.9 1431.9,644.9 1431.9,653.6 1469.3,653.6 1469.3,644.9 					"/>
				</g>
				<path class="st0" d="M1431.9,653.6v10c0,10.3,8.4,18.7,18.7,18.7l0,0c10.3,0,18.7-8.4,18.7-18.7v-10"/>
				<rect x="1431.9" y="644.9" class="st0" width="37.4" height="8.7"/>
				<path class="st0" d="M1447,653.6v14.7c0,2,1.6,3.5,3.5,3.5l0,0c2,0,3.5-1.6,3.5-3.5v-14.7"/>
				<rect x="1435.8" y="629" class="st0" width="29.5" height="15.8"/>
				<rect x="1437.9" y="624.9" class="st0" width="9.6" height="4.1"/>
				<rect x="1453.7" y="624.9" class="st0" width="9.6" height="4.1"/>
			</g>
			<g>
				<g>
					<rect x="1390.7" y="750.7" class="st1" width="45.2" height="10.9"/>
					<rect x="1399.8" y="740.8" class="st1" width="9.9" height="9.9"/>
					<rect x="1417.8" y="740.8" class="st1" width="9.9" height="9.9"/>
				</g>
				<g>
					<polyline class="st0" points="1435.9,761.7 1435.9,750.7 1390.7,750.7 1390.7,761.7 					"/>
					<rect x="1399.8" y="740.8" class="st0" width="9.9" height="9.9"/>
					<rect x="1417.8" y="740.8" class="st0" width="9.9" height="9.9"/>
				</g>
			</g>
			<path class="st0" d="M1388.1,575.8c12.3,2.1,24.5,5.9,34.7,12.9c11.7,8.1,20.7,21.1,21.4,35.3"/>
			<path class="st0" d="M1513,576.8c-13.2,4.2-25.6,10.6-36.7,18.9c-9.7,7.2-18.9,17.1-18.8,29.3"/>
			<path class="st0" d="M1388.1,570.7c22.4,6.6,45.1,12.8,68.4,12.6c9-0.1,18.1-1.2,27-2.8c10-1.8,20-4.3,29.7-7.5"/>
			<path class="st0" d="M1271.8,572.6c31.2,11.2,66.6,7.4,98.3-3.4"/>
			<path class="st0" d="M1271.8,582.3c15,6.6,31,11.2,47.4,11.7c17.9,0.6,36.3-3.8,50.9-14.1"/>
			<path class="st0" d="M1531,572.4c18.6,5.1,37.3,10,56.3,12.2"/>
			<path class="st0" d="M1612,585.7c15.2-0.5,30.2-3.4,43.9-9.6"/>
			<path class="st0" d="M1530.9,579.9c6,1.7,12,3.4,17.9,5.2c12.7,3.7,25.5,7.3,38.6,9.2"/>
			<path class="st0" d="M1612,595.3c15.5-1.2,30.8-5.8,44.4-13.6"/>
			<path class="st0" d="M1674,572.5c37.7,21.6,86.8,22.1,124.9,1.1"/>
			<path class="st0" d="M1673.9,579.1c18.7,10.7,40.4,16.3,61.9,15.9c22.2-0.4,44.3-7.2,62.9-19.3"/>
			<path class="st0" d="M1816.9,572.8c32.7,11.9,68.4,15.6,102.9,10.7"/>
			<path class="st0" d="M1816.9,581.3c28.8,21.8,66.4,30,102.9,30.4"/>
			<path class="st0" d="M1370.1,573.4c-14.8,14.2-15.6,38.5-8.6,57.9c7.2,19.9,21.1,36.6,31.9,54.8c9.8,16.5,14.4,36,11.4,54.6"/>
			<path class="st0" d="M1370.1,567.9c-14.6,16.1-27.2,35.8-26.6,57.5c0.5,16.8,9.2,32.5,20.3,45.1c11.2,12.6,24.8,22.6,37.8,33.4
				c6.4,5.3,12.8,11,17,18.2c3.2,5.5,5,12.2,4.2,18.4"/>
			<path class="st0" d="M1531.1,578.9c8.9,8.9,19.6,15.8,30.7,21.8c6.1,3.3,12.3,6.4,19,8.2c14.5,3.7,30.2,0.7,43.4-6.4
				c12.6-6.7,23-16.9,31.7-28.2"/>
			<line class="st0" x1="1243.5" y1="538.4" x2="1271.8" y2="538.4"/>
			<line class="st0" x1="1244" y1="543.4" x2="1270.2" y2="543.4"/>
			<line class="st0" x1="1276.5" y1="558.4" x2="1276.5" y2="563.5"/>
			<line class="st0" x1="1367" y1="558.9" x2="1367" y2="564.5"/>
			<line class="st0" x1="1362" y1="558.9" x2="1362" y2="563.5"/>
			<line class="st0" x1="1393.5" y1="558.9" x2="1393.5" y2="564.5"/>
			<line class="st0" x1="1400" y1="559.4" x2="1400" y2="564"/>
			<line class="st0" x1="1508" y1="558.9" x2="1508" y2="563.5"/>
			<line class="st0" x1="1501.5" y1="558.2" x2="1501.5" y2="564.4"/>
			<line class="st0" x1="1537.5" y1="559.4" x2="1537.5" y2="564"/>
			<line class="st0" x1="1542.5" y1="559.9" x2="1542.5" y2="564.4"/>
			<line class="st0" x1="1651" y1="558.9" x2="1651" y2="564.4"/>
			<line class="st0" x1="1370.5" y1="554.2" x2="1387" y2="554.2"/>
			<line class="st0" x1="1513" y1="555.4" x2="1530.5" y2="555.4"/>
			<line class="st0" x1="1460.5" y1="630.4" x2="1460.5" y2="644.5"/>
			<line class="st0" x1="1439.5" y1="629.9" x2="1439.5" y2="644.9"/>
			<line class="st0" x1="1443.5" y1="629.9" x2="1443.5" y2="644.9"/>
			<line class="st0" x1="1432.5" y1="648.9" x2="1468.6" y2="648.9"/>
			<path class="st0" d="M1370,555c1.7,6.5,8.8,11.1,15.4,10c0.9-0.2,2-0.6,2.2-1.5"/>
			<path class="st0" d="M1371.3,564.4c0.4,0.9,0.8,1.9,1.1,2.8c1,2.4,1.9,4.8,3.6,6.7c2.9,3.5,7.7,5.2,12.1,4.3"/>
			<path class="st0" d="M1513.9,558c0.4,3.6,2.6,7,5.8,8.7c3.2,1.7,7.3,1.8,10.5,0.1"/>
			<path class="st0" d="M1512.9,565.4c-0.1,4.4,2,9,5.9,11s9.5,0.5,11.3-3.5"/>
			<path class="st0" d="M1656.1,556.2c1.9,2.7,5.1,4.5,8.4,4.6s6.6-1.5,8.6-4.2"/>
			<path class="st0" d="M1656,562.4c3.9,5.5,12,7.3,18,4.3"/>
			<path class="st0" d="M1655.9,568.5c4.8,4.4,11.1,6.9,17.6,7"/>
			<path class="st0" d="M1799.6,559.7c0.5,1.1,1.2,2.1,2.1,2.9c2.2,1.9,5.4,2.5,8.3,1.8c3-0.7,5.6-2.8,6.9-5.6"/>
			<path class="st0" d="M1798.9,566c0.4,4.1,2.8,7.9,6.2,10.1c3.4,2.2,7.9,2.8,11.8,1.5"/>
			<line class="st0" x1="1679.5" y1="558.4" x2="1679.5" y2="564"/>
			<line class="st0" x1="1686" y1="558.2" x2="1686" y2="563.5"/>
			<line class="st0" x1="1711.5" y1="558.2" x2="1711.5" y2="564"/>
			<line class="st0" x1="1795" y1="558.2" x2="1795" y2="564.5"/>
			<line class="st0" x1="1791.5" y1="558.9" x2="1791.5" y2="564.4"/>
			<line class="st0" x1="1822.5" y1="558.2" x2="1822.5" y2="563.5"/>
			<line class="st0" x1="1830.5" y1="558.9" x2="1830.5" y2="564.4"/>
			<line class="st0" x1="1838.5" y1="558.9" x2="1838.5" y2="563.9"/>
			<line class="st0" x1="1551" y1="558.2" x2="1551" y2="564.4"/>
			<line class="st0" x1="1491.5" y1="558.4" x2="1491.5" y2="564.5"/>
			<line class="st3" x1="1390.7" y1="758.4" x2="1434.6" y2="758.4"/>
			<line class="st3" x1="1399.8" y1="746.4" x2="1409.2" y2="746.4"/>
			<line class="st3" x1="1417.8" y1="747.1" x2="1427.2" y2="747.1"/>
			<line class="st0" x1="1390.7" y1="761.7" x2="1435.9" y2="761.7"/>
			<line class="st0" x1="1919.8" y1="558.2" x2="1919.8" y2="564.4"/>
		</g>
		<g>
			<g>
				<path class="st1" d="M1918.8,997.1H1475l0,0h56.4V761.6h-310.3v235.5h60.7l0,0H735.6v33.3h546.3v23.8v47.9v37.1h38.5v-108.8
					h116.1v108.8h38.5l0,0v-108.8h443.7v-33.3H1918.8z M1320.4,997.1L1320.4,997.1h116.1l0,0H1320.4z"/>
				<rect x="1069.6" y="945.2" class="st1" width="9.9" height="9.9"/>
				<rect x="1069.6" y="963.2" class="st1" width="9.9" height="9.9"/>
				<rect x="1198.5" y="896.3" class="st1" width="10.8" height="40"/>
			</g>
			<polyline class="st0" points="1221.1,997.1 1221.1,761.7 1531.5,761.7 1531.5,997.1 			"/>
			<line class="st0" x1="735.6" y1="997.1" x2="1281.9" y2="997.1"/>
			<line class="st0" x1="1320.4" y1="997.1" x2="1436.5" y2="997.1"/>
			<line class="st0" x1="1918.8" y1="1030.2" x2="1475" y2="1030.2"/>
			<line class="st0" x1="1475" y1="997.1" x2="1918.8" y2="997.1"/>
			<line class="st0" x1="1436.5" y1="1030.2" x2="1320.4" y2="1030.2"/>
			<line class="st0" x1="1281.9" y1="1030.2" x2="735.6" y2="1030.2"/>
			<g>
				<rect x="1268.2" y="779.9" class="st0" width="227" height="74.9"/>
				<g>
					<line class="st0" x1="1281.1" y1="797.6" x2="1482.2" y2="797.6"/>
					<line class="st0" x1="1281.1" y1="803.3" x2="1482.2" y2="803.3"/>
					<line class="st0" x1="1281.1" y1="808.9" x2="1482.2" y2="808.9"/>
					<line class="st0" x1="1281.1" y1="814.5" x2="1482.2" y2="814.5"/>
					<line class="st0" x1="1281.1" y1="820.1" x2="1482.2" y2="820.1"/>
					<line class="st0" x1="1281.1" y1="825.8" x2="1482.2" y2="825.8"/>
					<line class="st0" x1="1281.1" y1="831.4" x2="1482.2" y2="831.4"/>
					<line class="st0" x1="1281.1" y1="837" x2="1482.2" y2="837"/>
				</g>
				<circle class="st0" cx="1275" cy="786.7" r="2.2"/>
				<circle class="st0" cx="1488.3" cy="786.7" r="2.2"/>
				<circle class="st0" cx="1275" cy="847.9" r="2.2"/>
				<circle class="st0" cx="1488.3" cy="847.9" r="2.2"/>
			</g>
			<g>
				<path class="st0" d="M1281.9,1139.3V903.8c0-10.6,8.6-19.3,19.3-19.3l0,0c10.6,0,19.3,8.6,19.3,19.3v235.5"/>
				<path class="st0" d="M1320.4,922.4c4.7-4.8,7.5-11.4,7.5-18.6c0-14.8-12-26.8-26.8-26.8s-26.8,12-26.8,26.8
					c0,7.2,2.9,13.8,7.5,18.6"/>
				<path class="st0" d="M1320.4,930.5c8.3-6,13.7-15.7,13.7-26.7c0-18.2-14.8-33-33-33s-33,14.8-33,33c0,11,5.4,20.7,13.7,26.7"/>
			</g>
			<g>
				<path class="st0" d="M1436.5,1139.3V903.8c0-10.6,8.6-19.3,19.3-19.3l0,0c10.6,0,19.3,8.6,19.3,19.3v235.5"/>
				<path class="st0" d="M1475,922.4c4.7-4.8,7.5-11.4,7.5-18.6c0-14.8-12-26.8-26.8-26.8s-26.8,12-26.8,26.8
					c0,7.2,2.9,13.8,7.5,18.6"/>
				<path class="st0" d="M1475,930.5c8.3-6,13.7-15.7,13.7-26.7c0-18.2-14.8-33-33-33s-33,14.8-33,33c0,11,5.4,20.7,13.7,26.7"/>
			</g>
			<g>
				<rect x="1369.6" y="932.1" class="st0" width="17.6" height="45.2"/>
				<rect x="1387.3" y="941.2" class="st0" width="9.9" height="9.9"/>
				<rect x="1387.3" y="959.2" class="st0" width="9.9" height="9.9"/>
				<rect x="1359.7" y="941.2" class="st0" width="9.9" height="9.9"/>
				<rect x="1359.7" y="959.2" class="st0" width="9.9" height="9.9"/>
			</g>
			<rect x="1069.6" y="945.2" class="st0" width="9.9" height="9.9"/>
			<rect x="1069.6" y="963.2" class="st0" width="9.9" height="9.9"/>
			<g>
				<path class="st0" d="M1221.1,948.2h-5.4c-6.6,0-11.9-5.3-11.9-11.9l0,0"/>
				<path class="st0" d="M1203.8,896.3L1203.8,896.3c0-6.6,5.3-11.9,11.9-11.9h5.4"/>
				<rect x="1198.5" y="896.3" class="st0" width="10.8" height="40"/>
				<line class="st0" x1="1198.5" y1="928.5" x2="1209.3" y2="928.5"/>
				<line class="st0" x1="1198.5" y1="904" x2="1209.3" y2="904"/>
			</g>
			<rect x="1281.9" y="1054.3" class="st0" width="23.3" height="47.9"/>
			<rect x="1455.8" y="955.1" class="st0" width="19.3" height="56.8"/>
			<path class="st0" d="M1079.5,949.2c66.7,11.7,135.2,18.1,202.3,12.3"/>
			<path class="st0" d="M1320.4,956.8c13.2-2.1,26.3-4.8,39.3-8"/>
			<path class="st0" d="M1079.5,966.5c4.4-0.6,8.9,0,13.4,0.6c62.6,7.9,126,9.8,188.9,5.6"/>
			<path class="st0" d="M1320.4,969.4c13.1-1.4,26.2-3,39.3-5"/>
			<path class="st0" d="M1397.2,965.5c13,2.4,26.2,4.6,39.3,6.6"/>
			<path class="st0" d="M1475,977c66.4,7.1,133.5,7,199.5-3c87.6-13.3,173.2-44.6,245.2-96"/>
			<path class="st0" d="M1397.2,946.1c13.1,0.7,26.2,1.3,39.3,1.9"/>
			<path class="st0" d="M1475,949.6c49.9,1.6,99.8,1.3,149.4-4c103.9-11.1,205.2-44.6,295.3-97.4"/>
			<line class="st0" x1="1282.5" y1="1134.4" x2="1320.5" y2="1134.4"/>
			<line class="st0" x1="1281.9" y1="1126.4" x2="1320.4" y2="1126.4"/>
			<line class="st0" x1="1436.5" y1="1132.4" x2="1475" y2="1132.4"/>
			<line class="st0" x1="1437" y1="1127.4" x2="1475" y2="1127.4"/>
			<line class="st0" x1="1436.5" y1="1109.9" x2="1475" y2="1109.9"/>
			<line class="st0" x1="1325.5" y1="996.9" x2="1325.5" y2="1029.4"/>
			<line class="st0" x1="1333.5" y1="997.4" x2="1333.5" y2="1029.5"/>
			<line class="st0" x1="1431.5" y1="997.1" x2="1431.5" y2="1030.2"/>
			<path class="st0" d="M1276,998.9c0-0.5,0-1,0-1.5v32.8"/>
			<line class="st0" x1="1481.5" y1="997.1" x2="1481.5" y2="1030.5"/>
			<line class="st0" x1="1488.5" y1="997.9" x2="1488.5" y2="1030.2"/>
			<line class="st0" x1="741.5" y1="997.1" x2="741.5" y2="1030.2"/>
			<line class="st0" x1="751.5" y1="997.1" x2="751.5" y2="1030.2"/>
			<line class="st0" x1="757.5" y1="997.4" x2="757.5" y2="1029.5"/>
			<line class="st0" x1="758.1" y1="1019.1" x2="1276" y2="1019.1"/>
			<line class="st0" x1="1073.5" y1="945.4" x2="1073.5" y2="955"/>
			<line class="st0" x1="1074.5" y1="963.9" x2="1074.5" y2="972.1"/>
			<line class="st0" x1="1365.5" y1="941.4" x2="1365.5" y2="950.5"/>
			<line class="st0" x1="1365.5" y1="959.9" x2="1365.5" y2="968.5"/>
			<line class="st0" x1="1391" y1="941.9" x2="1391" y2="949.5"/>
			<line class="st0" x1="1392.5" y1="959.9" x2="1392.5" y2="969.1"/>
			<line class="st3" x1="759.5" y1="1013.4" x2="1276" y2="1013.4"/>
			<line class="st3" x1="1383" y1="932.4" x2="1383" y2="975.9"/>
			<line class="st3" x1="1379" y1="933.4" x2="1379" y2="977.5"/>
			<line class="st3" x1="1333.5" y1="1018.4" x2="1431.5" y2="1018.4"/>
			<path class="st3" d="M1475.4,920.6c1.9,1.6,3.9,3.1,6.1,4.4"/>
			<path class="st3" d="M1479,917.4c1.7,1.3,3.5,2.3,5.5,3"/>
			<path class="st3" d="M1481.4,911.5c1.9,0.2,3.7,0.3,5.6,0.5"/>
			<path class="st3" d="M1435.5,921c-1.7,1.1-3.1,2.7-4.1,4.4"/>
			<path class="st3" d="M1432,916.4c-2,0.5-3.9,1.3-5.5,2.5"/>
			<path class="st3" d="M1321.7,922.2c1.4,1.2,2.7,2.3,4.1,3.5"/>
			<path class="st3" d="M1325,915.7c2-0.2,4.1,0.1,6,0.8"/>
			<path class="st3" d="M1279.9,921.8c-1.2,1.2-2.4,2.4-3.7,3.6"/>
			<path class="st3" d="M1272.8,920.6c2-1.2,4.1-2.2,6.3-3"/>
			<line class="st3" x1="1221.5" y1="990.4" x2="1282" y2="990.4"/>
			<line class="st3" x1="1320" y1="990.9" x2="1436" y2="990.9"/>
			<line class="st3" x1="1475.5" y1="992.4" x2="1530.6" y2="992.4"/>
			<line class="st3" x1="1460" y1="955.4" x2="1460" y2="1011.9"/>
			<line class="st3" x1="1289" y1="1054.4" x2="1289" y2="1101.4"/>
			<line class="st3" x1="1267.8" y1="861.8" x2="1530.6" y2="861.8"/>
			<line class="st3" x1="1489" y1="1017.6" x2="1918.8" y2="1017.6"/>
			<line class="st3" x1="1489" y1="1021.1" x2="1918.8" y2="1021.1"/>
			<path class="st3" d="M1488.5,1003.1c0.2,0,0.3,0,0.5,0h429.8"/>
			<line class="st3" x1="1489" y1="1027.1" x2="1918.8" y2="1027.1"/>
			<line class="st4" x1="735.6" y1="997.1" x2="735.6" y2="1030.2"/>
			<line class="st4" x1="1281.9" y1="1139.3" x2="1320.4" y2="1139.3"/>
			<line class="st4" x1="1436.5" y1="1139.3" x2="1475" y2="1139.3"/>
			<line class="st0" x1="1918.8" y1="997.1" x2="1918.8" y2="1030.2"/>
		</g>
		<g>
			<path class="st1" d="M1587.4,786.8v20.9v3.4h-3.4l0,0h-20.9l0,0h-15.9v-3.9h-7v-17h-8.6v119.4h8.6v-16.8h7v-3.9h15.9l0,0h20.9
				l0,0h3.4v3.4v20.9v83.9h24.7v-83.9v-20.9v-3.4c0-13.6-11-24.7-24.7-24.7h-3.4h-20.9h-15.9v-3.9h-7v-20.7h7v-3.9h15.9h20.9h3.4
				c13.6,0,24.7-11,24.7-24.7v-3.4v-20.9V533.5h-24.7V786.8z"/>
			<line class="st0" x1="1587.4" y1="992.9" x2="1612" y2="992.9"/>
			<rect x="1531.5" y="790.2" class="st0" width="8.6" height="119.4"/>
			<g>
				<g>
					<rect x="1587.4" y="786.8" class="st0" width="24.7" height="20.9"/>
					<line class="st0" x1="1587.4" y1="793.8" x2="1612" y2="793.8"/>
				</g>
				<g>
					<rect x="1563.1" y="811.1" class="st0" width="20.9" height="24.7"/>
					<line class="st0" x1="1570.1" y1="835.8" x2="1570.1" y2="811.1"/>
				</g>
				<rect x="1540.1" y="807.2" class="st0" width="7" height="32.5"/>
			</g>
			<path class="st0" d="M1587.4,997.1V888.9h-40.3v-24.7h40.3c13.6,0,24.7,11,24.7,24.7v108.2"/>
			<g>
				<rect x="1587.4" y="892.3" class="st0" width="24.7" height="20.9"/>
				<line class="st0" x1="1587.4" y1="906.2" x2="1612" y2="906.2"/>
			</g>
			<g>
				<rect x="1563.1" y="864.2" class="st0" width="20.9" height="24.7"/>
				<line class="st0" x1="1570.1" y1="864.2" x2="1570.1" y2="888.9"/>
			</g>
			<rect x="1540.1" y="860.3" class="st0" width="7" height="32.5"/>
			<path class="st0" d="M1612,564.4v124.4h-24.7V564.4V811H1547v24.7h40.3c13.6,0,24.7-11,24.7-24.7V564.4z"/>
			<polygon class="st0" points="1612,558.2 1612,533.5 1587.4,533.5 1587.4,558.2 1587.4,533.5 1612,533.5 			"/>
			<line class="st0" x1="1589" y1="538.9" x2="1611.6" y2="538.9"/>
			<line class="st0" x1="1587.5" y1="544.4" x2="1611" y2="544.4"/>
			<line class="st0" x1="1588.5" y1="570.9" x2="1610.6" y2="570.9"/>
			<line class="st0" x1="1587.5" y1="576.9" x2="1611" y2="576.9"/>
			<line class="st3" x1="1535.8" y1="789.8" x2="1535.8" y2="908.4"/>
			<line class="st3" x1="1551.2" y1="865.1" x2="1551.2" y2="888.4"/>
			<line class="st3" x1="1550.5" y1="811.8" x2="1550.5" y2="835.8"/>
			<line class="st0" x1="1587.4" y1="564.4" x2="1612" y2="564.4"/>
			<line class="st0" x1="1587.4" y1="558.2" x2="1612" y2="558.2"/>
			<line class="st0" x1="1587.4" y1="997.1" x2="1612" y2="997.1"/>
		</g>
		<g>
			<g>
				<g>
					<polyline class="st0" points="735.6,1102.1 735.6,1139.3 398.1,1139.3 398.1,916.3 735.6,916.3 735.6,1063.6 					"/>
					<line class="st3" x1="398.5" y1="1132.4" x2="734.6" y2="1132.4"/>
					<g>
						<rect x="986.4" y="1030.7" class="st1" width="45.2" height="10.9"/>
						<rect x="1012.6" y="1041.6" class="st1" width="9.9" height="9.9"/>
						<rect x="994.6" y="1041.6" class="st1" width="9.9" height="9.9"/>
						<path class="st1" d="M783.8,1051.6v12h-48.3V916.3h6.5c2.3,0,4.2-1.9,4.2-4.2s-1.9-4.2-4.2-4.2H391.6c-2.3,0-4.2,1.9-4.2,4.2
							s1.9,4.2,4.2,4.2h6.5v223h337.5v-37.1h48.3v12h34.6v-62.6L783.8,1051.6L783.8,1051.6z"/>
					</g>
					<line class="st0" x1="986.4" y1="1030.7" x2="1031.6" y2="1030.7"/>
				</g>
				<g>
					<g>
						<polyline class="st0" points="986.4,1030.7 986.4,1041.6 1031.6,1041.6 1031.6,1030.7 						"/>
						<rect x="1012.6" y="1041.6" class="st0" width="9.9" height="9.9"/>
						<rect x="994.6" y="1041.6" class="st0" width="9.9" height="9.9"/>
					</g>
				</g>
				<path class="st0" d="M742.1,907.8H391.6c-2.3,0-4.2,1.9-4.2,4.2l0,0c0,2.3,1.9,4.2,4.2,4.2h350.5c2.3,0,4.2-1.9,4.2-4.2l0,0
					C746.3,909.7,744.4,907.8,742.1,907.8z"/>
				<path class="st0" d="M398.1,965.2c24.1,0,24.1,12,48.2,12s24.1-12,48.2-12s24.1,12,48.2,12s24.1-12,48.2-12
					c24.1,0,24.1,12,48.2,12c24.1,0,24.1-12,48.2-12c24.1,0,24.1,12,48.2,12"/>
				<g>
					<path class="st0" d="M783.8,1102.1H642.5c-10.6,0-19.3-8.6-19.3-19.3l0,0c0-10.6,8.6-19.3,19.3-19.3h141.3"/>
					<path class="st0" d="M661.2,1063.6c-4.8-4.7-11.4-7.5-18.6-7.5c-14.8,0-26.8,12-26.8,26.8s12,26.8,26.8,26.8
						c7.2,0,13.8-2.9,18.6-7.5"/>
					<path class="st0" d="M669.3,1063.6c-6-8.3-15.7-13.7-26.7-13.7c-18.2,0-33,14.8-33,33s14.8,33,33,33c11,0,20.7-5.4,26.7-13.7"
						/>
				</g>
				<circle class="st0" cx="541.8" cy="1046.6" r="7.7"/>
				<circle class="st0" cx="581.5" cy="1069.4" r="7.2"/>
				<circle class="st0" cx="670" cy="990.7" r="3"/>
				<circle class="st0" cx="595.1" cy="994.1" r="6.4"/>
				<circle class="st0" cx="588" cy="1044.1" r="2.5"/>
				<circle class="st0" cx="545.7" cy="1094.9" r="3.8"/>
				<circle class="st0" cx="505.5" cy="1087.9" r="3"/>
				<circle class="st0" cx="427.3" cy="998.3" r="4.2"/>
				<circle class="st0" cx="459.3" cy="1072.2" r="2.8"/>
				<circle class="st0" cx="641.7" cy="1032.5" r="2.3"/>
				<circle class="st0" cx="544.7" cy="1007.3" r="2.8"/>
				<circle class="st0" cx="492.8" cy="1066" r="3.8"/>
				<circle class="st0" cx="467.3" cy="1009.7" r="5.3"/>
				<circle class="st0" cx="579.8" cy="1120.6" r="4.8"/>
				<circle class="st0" cx="633.7" cy="1003" r="4.7"/>
				<circle class="st0" cx="615.5" cy="1044.6" r="3"/>
				<circle class="st0" cx="510" cy="1023.4" r="4.5"/>
				<circle class="st0" cx="566.2" cy="991.9" r="2.2"/>
				<circle class="st0" cx="557.8" cy="1029" r="6.3"/>
				<circle class="st0" cx="526.8" cy="1074.4" r="2.3"/>
				<rect x="783.8" y="1051.6" class="st0" width="34.6" height="62.6"/>
				<path class="st0" d="M1000.5,1051.6c1.4,9.7-5.9,19.2-14,25.3c-20.8,15.8-48.1,20.2-74.2,20.2c-32-0.1-64.1-6.2-93.9-17.9"/>
				<path class="st0" d="M818.4,1069.5c7.1,2.4,13.8,6.1,20.4,9.7c20.8,11.3,42,22.1,64.5,29.2c22.5,7.1,46.6,10.5,70,6.7
					c12.6-2,25.5-6.6,33.6-16.4c10.4-12.7,12.3-30.5,11.1-47"/>
				<path class="st0" d="M818.4,1095.5c20.1,1.3,40.8-3.1,57.8-14c17.9-11.5,31.4-30.3,34.7-51.3"/>
				<path class="st0" d="M818.4,1105.7c20.6,3.9,42.1,4.7,61.7-2.1c31.2-10.9,53.6-40.9,59.5-73.4"/>
				<line class="st0" x1="994.5" y1="1046.4" x2="1003.6" y2="1046.4"/>
				<line class="st0" x1="1013.5" y1="1045.9" x2="1022" y2="1045.9"/>
				<line class="st0" x1="814" y1="1052.4" x2="814" y2="1113"/>
				<line class="st0" x1="806" y1="1051.6" x2="806" y2="1114.2"/>
				<line class="st0" x1="647.8" y1="1089.8" x2="771.9" y2="1089.8"/>
				<line class="st3" x1="399.5" y1="922.4" x2="734.8" y2="922.4"/>
				<line class="st3" x1="784.5" y1="1110.4" x2="818.4" y2="1110.4"/>
				<line class="st3" x1="784.5" y1="1105.4" x2="805.5" y2="1105.4"/>
				<line class="st3" x1="986.5" y1="1034.4" x2="1030.6" y2="1034.4"/>
				<line class="st0" x1="777.8" y1="1063.6" x2="777.8" y2="1102.1"/>
				<line class="st0" x1="772" y1="1063.6" x2="772" y2="1102.1"/>
				<g>
					<polyline class="st0" points="735.6,1102.1 735.6,1139.3 398.1,1139.3 398.1,916.3 735.6,916.3 735.6,1063.6 					"/>
					<line class="st3" x1="398.5" y1="1132.4" x2="734.6" y2="1132.4"/>
					<line class="st0" x1="986.4" y1="1030.7" x2="1031.6" y2="1030.7"/>
				</g>
				<line class="st3" x1="398.5" y1="1132.4" x2="734.6" y2="1132.4"/>
				<polyline class="st0" points="735.6,1102.1 735.6,1139.3 398.1,1139.3 398.1,916.3 735.6,916.3 735.6,1063.6 				"/>
				<line class="st0" x1="986.4" y1="1030.7" x2="1031.6" y2="1030.7"/>
				<line class="st0" x1="777.8" y1="1063.6" x2="777.8" y2="1102.1"/>
				<line class="st5" x1="772" y1="1063.6" x2="772" y2="1102.1"/>
			</g>
		</g>
	</g>
</g>
</svg>
