<?xml version="1.0" encoding="utf-8"?>
<!-- Generator: Adobe Illustrator 20.1.0, SVG Export Plug-In . SVG Version: 6.00 Build 0)  -->
<svg version="1.1" id="Слой_1" xmlns="http://www.w3.org/2000/svg" xmlns:xlink="http://www.w3.org/1999/xlink" x="0px" y="0px"
	 viewBox="0 0 238.7 155.1" style="enable-background:new 0 0 238.7 155.1;" xml:space="preserve">
<style type="text/css">
	.st0{fill:#FFF0AA;}
	.st1{fill:#FFF0AA;stroke:#817957;stroke-width:2;stroke-linecap:round;stroke-linejoin:round;stroke-miterlimit:10;}
	.st2{fill:none;stroke:#312F2C;stroke-width:1.8;stroke-linecap:round;stroke-linejoin:round;stroke-miterlimit:10;}
	.st3{fill:none;stroke:#312F2C;stroke-width:0.6;stroke-linecap:round;stroke-linejoin:round;stroke-miterlimit:10;}
	.st4{fill:none;stroke:#817957;stroke-width:2;stroke-linecap:round;stroke-linejoin:round;stroke-miterlimit:10;}
</style>
<path class="st0" d="M231.5,27.9c-18.1,1.5-36,1-54.1,1.4c-8.5,0.1-17.3,1.6-25.8,1.1c-4-0.2-8-1-11.9-1.5c-1.7-0.2-3.2-0.7-4.5-1.6
	c-0.5,0.2-1,0.2-1.6,0.2c-1.5,0-2.6-0.5-3.4-1.4c-2-1.2-2.6-3.8-2-6c-0.1-0.5-0.1-1,0-1.5c0-0.3,0-0.6,0-1c-0.3-1.4-0.2-2.9,0.5-4.1
	c0-1.2,0.3-2.4,1-3.3h-12.4c-0.1,1.1-0.5,2.1-1.2,2.8c-0.2,0.6-0.4,1.1-0.8,1.6c-0.3,0.9-0.7,1.7-1.4,2.3c-0.2,0.9-0.6,1.7-1.1,2.3
	c-0.2,1.1-0.8,2.1-1.6,2.8c-0.7,1.6-2.1,2.8-4.3,2.9c-2.2,1.6-5,2.6-8.7,2.8c-9.6,0.6-19.6-0.2-29.2-0.2
	c-22.1-0.1-44.1-0.1-66.2-0.1c-0.9,0-1.6-0.2-2.2-0.5v15.7h238.5v-17C237,27.1,234.5,27.6,231.5,27.9z"/>
<path class="st0" d="M48,10.3h-3.5C45.7,10.3,46.9,10.3,48,10.3C48,10.3,48,10.3,48,10.3z"/>
<path id="_x31_8" class="st1" d="M1,35.7c0,65.4,53,118.4,118.4,118.4s118.4-53,118.4-118.4"/>
<g>
	<path class="st0" d="M131.3,37.6c-2.4-1.3-5.4-4.1-6.1-5.4c0.3-0.4,0.5-0.9,0.6-1.3c0.1-0.5,0-0.9-0.2-1.3
		c2.3-4.4,2.3-8.4,2.2-11.5c0-2.1,0-3.9,0.7-5.2c0.1-0.7,0.3-1.4,0.6-2l0.6-2.1c0.4-0.3,0.5-0.7,0.6-1V7.5c0.1-0.3,0.2-0.7,0-1.2
		l0.7-2.6c0.1-0.5-0.2-1.1-0.7-1.3L120.9,0c-0.5-0.1-1.1,0.2-1.3,0.7L119,3.4c-0.4,0.3-0.5,0.7-0.6,1v0.3c-0.1,0.3-0.2,0.7,0,1.2
		l-1,3.7v0.3c0.1,1.5-0.8,3-2,5c-1.6,2.7-3.6,6.1-3.8,11.1c-0.3,0.2-0.6,0.6-0.8,1c-0.2,0.4-0.3,0.9-0.2,1.4c-1.2,0.7-5.2,1.6-8,1.6
		c-0.5,0-0.9,0.3-1,0.8l-1.3,4.8v0.5l0.2,0.6L88.8,80.2L87.9,81c-0.1,0.1-0.3,0.3-0.3,0.5l-1.7,6.7c-0.1,0.5,0.2,1,0.6,1.1l28.9,7.8
		c0.5,0.1,1-0.2,1.1-0.6l1.9-6.7c0.1-0.3,0.1-0.5,0-0.7L118,88l11.7-43.5l0.5-0.4l0.1-0.1l0.1-0.1c0.1-0.1,0.1-0.2,0.1-0.3l1.3-4.8
		C131.9,38.3,131.7,37.8,131.3,37.6z"/>
	<g>
		<g>
			<g>
				<path class="st2" d="M86.8,88.4l1.7-6.7l1.1-0.9l11.8-44l-0.3-0.9l1.3-4.8c0-0.1,0.1-0.1,0.2-0.1c2.8,0.1,8.2-1,9-2.3
					c-0.5-0.5,0-2.1,0.8-2.1c0.2-8.8,6-12.6,5.8-16.7l1.1-4.2c-0.4-0.1-0.2-0.4-0.1-0.8s0.1-0.7,0.5-0.6l0.8-3.2
					c0-0.1,0.1-0.1,0.2-0.1s9.5,2.5,9.4,2.5c0.1,0,0.1,0.1,0.1,0.2l-0.8,3.2c0.4,0.1,0.2,0.4,0.1,0.8c-0.1,0.4-0.1,0.7-0.5,0.6
					l-1.1,4.2c-2.3,3.5,0.9,9.7-3.3,17.4c0.7,0.4,0.3,2-0.4,2.2c0.1,1.5,4.3,5.1,6.7,6.5c0.1,0,0.1,0.1,0.1,0.2l-1.3,4.8l-0.7,0.6
					l-11.8,44l0.5,1.4l-1.9,6.7L86.8,88.4z"/>
				<line class="st3" x1="113.4" y1="20.7" x2="126.5" y2="24.2"/>
				<line class="st3" x1="112.1" y1="26.6" x2="124.7" y2="30"/>
				<line class="st3" x1="111.6" y1="28.6" x2="124.1" y2="31.9"/>
				<line class="st2" x1="118.2" y1="9.8" x2="127.8" y2="12.4"/>
				<line class="st2" x1="130.9" y1="38.6" x2="102.4" y2="30.9"/>
				<line class="st3" x1="119.3" y1="5.6" x2="128.9" y2="8.2"/>
				<line class="st3" x1="119.3" y1="4.2" x2="129.6" y2="7"/>
				<line class="st2" x1="101.1" y1="35.8" x2="129.6" y2="43.4"/>
				<line class="st2" x1="89.6" y1="80.7" x2="117.1" y2="88"/>
			</g>
			<path class="st3" d="M119.8,46.6c3.2,2.5,2.4,3.7-1.9,2.6c-3.5-0.9-8.4-3.2-11-5.2c-2.1-1.6-1.5-2.3,1.2-1.7c2.2,0.6,5.3,2,7,3.3
				c1.3,1,1,1.5-0.8,1.1c-1.4-0.4-3.4-1.3-4.5-2.1"/>
			<line class="st3" x1="119.8" y1="46.6" x2="119" y2="49.4"/>
			<line class="st3" x1="121.8" y1="49" x2="111.7" y2="86.6"/>
			<line class="st3" x1="105.7" y1="42.3" x2="95" y2="82.1"/>
			<line class="st3" x1="109.9" y1="44.6" x2="109.6" y2="45.7"/>
			<line class="st3" x1="116" y1="46.5" x2="115.5" y2="48.4"/>
		</g>
	</g>
</g>
<path class="st4" d="M2.3,53.8c15.4,0.5,15.9,8.4,32.3,8.4c16.9,0,16.9-8.4,33.8-8.4s16.9,8.4,33.8,8.4s16.9-8.4,33.8-8.4
	s16.9,8.4,33.8,8.4s16.9-8.4,33.8-8.4c15.8,0,16.8,7.3,30.7,8.3"/>
</svg>
