<?xml version="1.0" encoding="utf-8"?>
<!-- Generator: Adobe Illustrator 19.0.0, SVG Export Plug-In . SVG Version: 6.00 Build 0)  -->
<svg version="1.1" id="Слой_1" xmlns="http://www.w3.org/2000/svg" xmlns:xlink="http://www.w3.org/1999/xlink" x="0px" y="0px"
	 viewBox="93 -51.1 238.7 155.1" style="enable-background:new 93 -51.1 238.7 155.1;" xml:space="preserve">
<style type="text/css">
	.st0{fill:#FFF0AA;}
	.st1{fill:#FFF0AA;stroke:#817957;stroke-width:2;stroke-linecap:round;stroke-linejoin:round;stroke-miterlimit:10;}
	.st2{fill:none;stroke:#312F2C;stroke-width:1.8;stroke-linecap:round;stroke-linejoin:round;stroke-miterlimit:10;}
	.st3{fill:none;stroke:#312F2C;stroke-width:0.6;stroke-linecap:round;stroke-linejoin:round;stroke-miterlimit:10;}
	.st4{fill:none;stroke:#817957;stroke-width:2;stroke-linecap:round;stroke-linejoin:round;stroke-miterlimit:10;}
</style>
<rect x="232.3" y="-8.1" class="st0" width="97.8" height="5"/>
<rect x="232.3" y="-8.1" class="st0" width="97.8" height="5"/>
<path class="st0" d="M327.2-13.1H97.6c-1.6,0-3-1.3-3-3v-0.2c0-1.6,1.3-3,3-3h229.5c1.6,0,3,1.3,3,3v0.2
	C330.1-14.4,328.8-13.1,327.2-13.1z"/>
<path class="st0" d="M331.5-8.7c-0.5-1.5-0.4-3.1,0-4.6c0.1-0.3,0.2-0.5,0.3-0.8c-0.5,0.2-1,0.4-1.6,0.4c-18.3,1.8-36.6,1-54.9,0.8
	c-8.5-0.1-17.1-1-25.5-0.4c-3.9,0.3-7.7,1.6-11.6,1.6c-4.6-0.1-9-1.7-13.6-1.9c-2.4-0.1-3.9-1.5-4.5-3.2c-1.1-1-1.8-2.5-1.8-3.8
	c0-1,0.3-1.9,0.8-2.7c-0.2-1.5,0.3-3.2,1.3-4.3c0.1-0.6,0.2-1.1,0.4-1.6c0-0.2-0.1-0.4,0-0.7c-0.4-1-0.5-2.1-0.3-3.1
	c-0.4-1.5-0.3-3.2,0.5-4.5c0.1-0.3,0.2-0.7,0.4-1c0.1-1,0.5-1.9,1.1-2.6h-12.3c-0.1,1.1-0.5,2.1-1.2,2.8c-0.2,0.6-0.4,1.1-0.8,1.6
	c-0.3,0.8-0.6,1.5-1.2,2.1c-0.1,0.6-0.3,1.2-0.6,1.7c-0.1,0.5-0.3,1-0.5,1.4c-0.1,0.6-0.4,1.2-0.7,1.7c-0.1,0.4-0.2,0.9-0.4,1.3
	c0,0.6-0.1,1.3-0.4,1.8c0.1,2.6-1.5,5.3-4.8,5.3c0,0-0.1,0-0.1,0c-0.4,0.1-0.7,0.1-1.2,0.1c-0.4,0.1-0.8,0.2-1.3,0.2
	c-0.5,0.2-1.2,0.3-1.9,0.3c-0.1,0-0.3,0-0.4,0c-0.2,1.4-0.9,2.7-2.1,3.5c-0.5,1.3-1.5,2.4-3.3,2.9c-7.4,1.9-14.8,1.1-22.3,1.1
	c-7.6,0-15.1,1.5-22.8,1.4c-8.2-0.1-16.4-0.2-24.6-0.2c-7.9,0-16.1-0.6-24,0.2c-0.9,0.1-1.6,0-2.2-0.3v3.5h238
	C331.6-8.6,331.5-8.6,331.5-8.7z"/>
<path class="st0" d="M141-40.8h-3.5C138.7-40.8,139.9-40.8,141-40.8L141-40.8z"/>
<path id="_x31_8" class="st1" d="M94-15.4C94,50,147,103,212.4,103S330.8,50,330.8-15.4"/>
<g>
	<path class="st0" d="M224.3-13.5c-1.2-0.6-2.5-1.6-3.6-2.6c-0.6-0.4-1.2-0.9-1.6-1.5c-0.4-0.5-0.8-0.9-1-1.3
		c0.1-0.1,0.2-0.3,0.2-0.4c-0.1-0.4-0.2-0.8-0.2-1.2c0-1,0.3-1.9,0.8-2.7c-0.2-1.5,0.3-3.2,1.3-4.3c0.1-0.4,0.1-0.9,0.3-1.3
		c0-0.3,0.1-0.7,0.1-1c-0.4-1-0.5-2.1-0.3-3.1c-0.4-1.5-0.3-3.2,0.5-4.5c0.1-0.3,0.2-0.6,0.4-0.9c0.1-0.6,0.3-1.2,0.5-1.7
		c0-0.1,0-0.1,0.1-0.2l0.6-2.1c0.4-0.3,0.5-0.7,0.6-1v-0.3c0.1-0.3,0.2-0.7,0-1.2l0.7-2.6c0.1-0.5-0.2-1.1-0.7-1.3l-9.4-2.4
		c-0.5-0.1-1.1,0.2-1.3,0.7l-0.6,2.7c-0.4,0.3-0.5,0.7-0.6,1v0.3c-0.1,0.3-0.2,0.7,0,1.2l-1,3.7v0.3c0.1,1.5-0.8,3-2,5
		c-0.5,0.9-1.1,1.9-1.6,2.9c-0.1,0.2-0.2,0.4-0.3,0.6c-0.1,0.5-0.3,0.9-0.5,1.4c-0.1,0.6-0.4,1.2-0.7,1.7c-0.1,0.3-0.1,0.6-0.2,0.8
		c-0.3,1.1-0.5,2.4-0.5,3.7c-0.1,0-0.1,0.1-0.2,0.1c-0.2,0.7-0.4,1.4-0.9,1.9c0,0.1,0,0.2,0,0.3c-0.1,0.1-0.3,0.2-0.6,0.3
		c-0.8,0.7-1.9,1.2-3.3,1.2c0,0-0.1,0-0.1,0c-0.4,0.1-0.7,0.1-1.1,0.1c-0.4,0.1-0.8,0.2-1.3,0.2c-0.5,0.2-1.2,0.3-1.9,0.3
		c-0.1,0-0.3,0-0.4,0c-0.1,0.8-0.4,1.6-0.8,2.2l-0.8,2.9v0.5l0.2,0.6l-11.7,43.5l-0.9,0.8c-0.1,0.1-0.3,0.3-0.3,0.5l-1.7,6.7
		c-0.1,0.5,0.2,1,0.6,1.1l28.9,7.8c0.5,0.1,1-0.2,1.1-0.6l1.9-6.7c0.1-0.3,0.1-0.5,0-0.7l-0.4-1.1l11.7-43.5l0.5-0.4l0.1-0.1
		l0.1-0.1c0.1-0.1,0.1-0.2,0.1-0.3l1.3-4.8C224.9-12.8,224.7-13.3,224.3-13.5z"/>
	<g>
		<g>
			<g>
				<path class="st2" d="M223.9-12.5c-2.4-1.4-6.6-5-6.7-6.5c0.7-0.2,1.1-1.8,0.4-2.2c0.7-1.4,1.2-2.7,1.6-3.9
					c0-0.2,0.1-0.3,0.1-0.5c1.4-5.7-0.3-10.2,1.6-13l1.1-4.2c0.4,0.1,0.4-0.2,0.5-0.6c0.1-0.4,0.3-0.7-0.1-0.8l0.8-3.2
					c0-0.1,0-0.2-0.1-0.2c0.1,0-9.3-2.5-9.4-2.5s-0.2,0-0.2,0.1l-0.8,3.2c-0.4-0.1-0.4,0.2-0.5,0.6c-0.1,0.4-0.3,0.7,0.1,0.8
					l-1.1,4.2c0.2,4.1-5.6,7.9-5.8,16.7c-0.8,0-1.3,1.6-0.8,2.1c-0.8,1.3-6.2,2.4-9,2.3c-0.1,0-0.2,0-0.2,0.1l-1.3,4.8l0.3,0.9
					l-11.8,44l-1.1,0.9l-1.7,6.7l29,7.9l1.9-6.7l-0.5-1.4l11.8-44l0.7-0.6l1.3-4.8C224-12.4,224-12.5,223.9-12.5z"/>
				<line class="st3" x1="206.4" y1="-30.4" x2="219.5" y2="-26.9"/>
				<line class="st3" x1="205.1" y1="-24.5" x2="217.7" y2="-21.1"/>
				<line class="st3" x1="204.6" y1="-22.5" x2="217.1" y2="-19.2"/>
				<line class="st2" x1="211.2" y1="-41.3" x2="220.8" y2="-38.7"/>
				<line class="st2" x1="223.9" y1="-12.5" x2="195.4" y2="-20.2"/>
				<line class="st3" x1="212.3" y1="-45.5" x2="221.9" y2="-42.9"/>
				<line class="st3" x1="212.3" y1="-46.9" x2="222.6" y2="-44.1"/>
				<line class="st2" x1="194.1" y1="-15.3" x2="222.6" y2="-7.7"/>
				<line class="st2" x1="182.6" y1="29.6" x2="210.1" y2="36.9"/>
			</g>
			<path class="st3" d="M212.8-4.5c3.2,2.5,2.4,3.7-1.9,2.6c-3.5-0.9-8.4-3.2-11-5.2c-2.1-1.6-1.5-2.3,1.2-1.7c2.2,0.6,5.3,2,7,3.3
				c1.3,1,1,1.5-0.8,1.1c-1.4-0.4-3.4-1.3-4.5-2.1"/>
			<line class="st3" x1="212.8" y1="-4.5" x2="212" y2="-1.7"/>
			<line class="st3" x1="214.8" y1="-2.1" x2="204.7" y2="35.5"/>
			<line class="st3" x1="198.7" y1="-8.8" x2="188" y2="31"/>
			<line class="st3" x1="202.9" y1="-6.5" x2="202.6" y2="-5.4"/>
			<line class="st3" x1="209" y1="-4.6" x2="208.5" y2="-2.7"/>
		</g>
	</g>
</g>
<path class="st4" d="M95.3,2.7c15.4,0.5,15.9,8.4,32.3,8.4c16.9,0,16.9-8.4,33.8-8.4s16.9,8.4,33.8,8.4s16.9-8.4,33.8-8.4
	s16.9,8.4,33.8,8.4c16.9,0,16.9-8.4,33.8-8.4c15.8,0,16.8,7.3,30.7,8.3"/>
</svg>
