<?xml version="1.0" encoding="utf-8"?>
<!-- Generator: Adobe Illustrator 20.1.0, SVG Export Plug-In . SVG Version: 6.00 Build 0)  -->
<svg version="1.1" id="Слой_1" xmlns="http://www.w3.org/2000/svg" xmlns:xlink="http://www.w3.org/1999/xlink" x="0px" y="0px"
	 viewBox="0 0 45.9 97" style="enable-background:new 0 0 45.9 97;" xml:space="preserve">
<style type="text/css">
	.st0{fill:#FFF0AA;}
	.st1{fill:none;stroke:#312F2C;stroke-width:1.8;stroke-linecap:round;stroke-linejoin:round;stroke-miterlimit:10;}
	.st2{fill:none;stroke:#312F2C;stroke-width:0.6;stroke-linecap:round;stroke-linejoin:round;stroke-miterlimit:10;}
</style>
<g>
	<path class="st0" d="M32.6,89.1L32.1,88l11.7-43.5l0.5-0.4c0,0,0.1-0.1,0.1-0.1c0,0,0.1-0.1,0.1-0.1c0.1-0.1,0.1-0.2,0.1-0.3
		l1.3-4.8c0.1-0.5-0.1-1-0.5-1.2c-2.4-1.3-5.4-4.1-6.1-5.4c0.3-0.4,0.5-0.9,0.6-1.3c0.1-0.5,0-0.9-0.2-1.3c2.3-4.4,2.3-8.4,2.2-11.5
		c0-2.2,0-4,0.8-5.3c0.1-0.1,0.1-0.2,0.1-0.3l1-3.7c0.4-0.3,0.5-0.7,0.6-1l0-0.2l0-0.1c0.1-0.3,0.2-0.7,0-1.2l0.7-2.6
		c0.1-0.5-0.2-1.1-0.7-1.3L35,0c-0.5-0.1-1.1,0.2-1.3,0.7l-0.7,2.6c-0.4,0.3-0.5,0.7-0.6,1l0,0.2l0,0.1c-0.1,0.3-0.2,0.7,0,1.2
		l-1,3.7c0,0.1,0,0.2,0,0.3c0.1,1.5-0.8,3-2,5c-1.6,2.7-3.6,6.1-3.8,11.1c-0.3,0.2-0.6,0.6-0.8,1c-0.2,0.4-0.3,0.9-0.2,1.4
		c-1.2,0.7-5.2,1.6-8,1.6c-0.5,0-0.9,0.3-1,0.8l-1.3,4.8c0,0.1,0,0.2,0,0.3c0,0,0,0.1,0,0.1c0,0,0,0.1,0,0.1l0.2,0.6L3,80.2
		l-0.9,0.8c-0.1,0.1-0.3,0.3-0.3,0.5L0,88.1c-0.1,0.5,0.2,1,0.6,1.1L29.6,97c0.5,0.1,1-0.2,1.1-0.6l1.9-6.7
		C32.6,89.5,32.6,89.3,32.6,89.1z"/>
	<g>
		<g>
			<g>
				<path class="st1" d="M0.9,88.4l1.7-6.7l1.1-0.9l11.8-44l-0.3-0.9l1.3-4.8c0-0.1,0.1-0.1,0.2-0.1c2.8,0.1,8.2-1,9-2.3
					c-0.5-0.5,0-2.1,0.8-2.1c0.2-8.8,6-12.6,5.8-16.7l1.1-4.2c-0.4-0.1-0.2-0.4-0.1-0.8c0.1-0.4,0.1-0.7,0.5-0.6L34.7,1
					c0-0.1,0.1-0.1,0.2-0.1c0.1,0,9.5,2.5,9.4,2.5c0.1,0,0.1,0.1,0.1,0.2l-0.8,3.2c0.4,0.1,0.2,0.4,0.1,0.8
					c-0.1,0.4-0.1,0.7-0.5,0.6l-1.1,4.2c-2.3,3.5,0.9,9.7-3.3,17.4c0.7,0.4,0.3,2-0.4,2.2c0.1,1.5,4.3,5.1,6.7,6.5
					c0.1,0,0.1,0.1,0.1,0.2l-1.3,4.8L43,44L31.2,88l0.5,1.4l-1.9,6.7L0.9,88.4z"/>
				<line class="st2" x1="27.6" y1="20.7" x2="40.6" y2="24.2"/>
				<line class="st2" x1="26.2" y1="26.6" x2="38.8" y2="30"/>
				<line class="st2" x1="25.7" y1="28.6" x2="38.2" y2="31.9"/>
				<line class="st1" x1="32.3" y1="9.8" x2="41.9" y2="12.4"/>
				<line class="st1" x1="45" y1="38.6" x2="16.5" y2="30.9"/>
				<line class="st2" x1="33.4" y1="5.6" x2="43.1" y2="8.2"/>
				<line class="st2" x1="33.5" y1="4.2" x2="43.7" y2="7"/>
				<line class="st1" x1="15.2" y1="35.8" x2="43.7" y2="43.4"/>
				<line class="st1" x1="3.8" y1="80.7" x2="31.2" y2="88"/>
			</g>
			<path class="st2" d="M33.9,46.6c3.2,2.5,2.4,3.7-1.9,2.6c-3.5-0.9-8.4-3.2-11-5.2c-2.1-1.6-1.5-2.3,1.2-1.7c2.2,0.6,5.3,2,7,3.3
				c1.3,1,1,1.5-0.8,1.1c-1.4-0.4-3.4-1.3-4.5-2.1"/>
			<line class="st2" x1="33.9" y1="46.6" x2="33.2" y2="49.4"/>
			<line class="st2" x1="35.9" y1="49" x2="25.8" y2="86.6"/>
			<line class="st2" x1="19.8" y1="42.3" x2="9.2" y2="82.1"/>
			<line class="st2" x1="24" y1="44.6" x2="23.7" y2="45.7"/>
			<line class="st2" x1="30.1" y1="46.5" x2="29.6" y2="48.4"/>
		</g>
	</g>
</g>
</svg>
