<?xml version="1.0" encoding="utf-8"?>
<!-- Generator: Adobe Illustrator 19.0.0, SVG Export Plug-In . SVG Version: 6.00 Build 0)  -->
<svg version="1.1" id="Слой_1" xmlns="http://www.w3.org/2000/svg" xmlns:xlink="http://www.w3.org/1999/xlink" x="0px" y="0px"
	 viewBox="0 0 2233.1 153.3" style="enable-background:new 0 0 2233.1 153.3;" xml:space="preserve">
<style type="text/css">
	.st0{fill:none;stroke:#817957;stroke-width:2;stroke-linecap:round;stroke-linejoin:round;stroke-miterlimit:10;}
	.st1{fill:#FFF0AA;}
	.st2{fill:#FFF0AA;stroke:#817957;stroke-width:2;stroke-linecap:round;stroke-linejoin:round;stroke-miterlimit:10;}
	.st3{fill:none;stroke:#312F2C;stroke-width:1.8;stroke-linecap:round;stroke-linejoin:round;stroke-miterlimit:10;}
	.st4{fill:none;stroke:#312F2C;stroke-width:0.6;stroke-linecap:round;stroke-linejoin:round;stroke-miterlimit:10;}
</style>
<line id="XMLID_2_" class="st0" x1="1472.4" y1="33.9" x2="2232.1" y2="33.9"/>
<line id="XMLID_6_" class="st0" x1="1" y1="33.9" x2="1235.7" y2="33.9"/>
<rect id="XMLID_40_" x="1375.1" y="41.1" class="st1" width="97.8" height="5"/>
<rect id="XMLID_39_" x="1375.1" y="41.1" class="st1" width="97.8" height="5"/>
<path id="XMLID_38_" class="st1" d="M1470,36.1h-229.6c-1.6,0-3-0.9-3-2.1v-0.1c0-1.1,1.3-2.1,3-2.1h229.5c1.6,0,3,0.9,3,2.1v0.1
	C1472.8,35.2,1471.6,36.1,1470,36.1z"/>
<path id="XMLID_37_" class="st1" d="M1474.3,40.5c-0.5-1.5-0.4-3.1,0-4.6c0.1-0.3,0.2-0.5,0.3-0.8c-0.5,0.2-1,0.4-1.6,0.4
	c-18.3,1.8-36.6,1-54.9,0.8c-8.5-0.1-17.1-1-25.5-0.4c-3.9,0.3-7.7,1.6-11.6,1.6c-4.6-0.1-9-1.7-13.6-1.9c-2.4-0.1-3.9-1.5-4.5-3.2
	c-1.1-1-1.8-2.5-1.8-3.8c0-1,0.3-1.9,0.8-2.7c-0.2-1.5,0.3-3.2,1.3-4.3c0.1-0.6,0.2-1.1,0.4-1.6c0-0.2-0.1-0.4,0-0.7
	c-0.4-1-0.5-2.1-0.3-3.1c-0.4-1.5-0.3-3.2,0.5-4.5c0.1-0.3,0.2-0.7,0.4-1c0.1-1,0.5-1.9,1.1-2.6h-12.3c-0.1,1.1-0.5,2.1-1.2,2.8
	c-0.2,0.6-0.4,1.1-0.8,1.6c-0.3,0.8-0.6,1.5-1.2,2.1c-0.1,0.6-0.3,1.2-0.6,1.7c-0.1,0.5-0.3,1-0.5,1.4c-0.1,0.6-0.4,1.2-0.7,1.7
	c-0.1,0.4-0.2,0.9-0.4,1.3c0,0.6-0.1,1.3-0.4,1.8c0.1,2.6-1.5,5.3-4.8,5.3h-0.1c-0.4,0.1-0.7,0.1-1.2,0.1c-0.4,0.1-0.8,0.2-1.3,0.2
	c-0.5,0.2-1.2,0.3-1.9,0.3c-0.1,0-0.3,0-0.4,0c-0.2,1.4-0.9,2.7-2.1,3.5c-0.5,1.3-1.5,2.4-3.3,2.9c-7.4,1.9-14.8,1.1-22.3,1.1
	c-7.6,0-15.1,1.5-22.8,1.4c-8.2-0.1-16.4-0.2-24.6-0.2c-7.9,0-16.1-0.6-24,0.2c-0.9,0.1-1.6,0-2.2-0.3v3.5H1474.3
	C1474.3,40.6,1474.3,40.6,1474.3,40.5z"/>
<path id="XMLID_36_" class="st1" d="M1283.8,8.4h-3.5C1281.5,8.4,1282.7,8.4,1283.8,8.4L1283.8,8.4z"/>
<path id="_x31_8" class="st2" d="M1236.8,33.8c0,65.4,53,118.4,118.4,118.4s118.4-53,118.4-118.4"/>
<g id="XMLID_4_">
	<path id="XMLID_47_" class="st1" d="M1367,35.7c-1.2-0.6-2.5-1.6-3.6-2.6c-0.6-0.4-1.2-0.9-1.6-1.5c-0.4-0.5-0.8-0.9-1-1.3
		c0.1-0.1,0.2-0.3,0.2-0.4c-0.1-0.4-0.2-0.8-0.2-1.2c0-1,0.3-1.9,0.8-2.7c-0.2-1.5,0.3-3.2,1.3-4.3c0.1-0.4,0.1-0.9,0.3-1.3
		c0-0.3,0.1-0.7,0.1-1c-0.4-1-0.5-2.1-0.3-3.1c-0.4-1.5-0.3-3.2,0.5-4.5c0.1-0.3,0.2-0.6,0.4-0.9c0.1-0.6,0.3-1.2,0.5-1.7
		c0-0.1,0-0.1,0.1-0.2l0.6-2.1c0.4-0.3,0.5-0.7,0.6-1V5.6c0.1-0.3,0.2-0.7,0-1.2l0.7-2.6c0.1-0.5-0.2-1.1-0.7-1.3l-8.4-2.1
		c-0.4,0.4-1,0.7-1.6,0.9c-0.2,0.6-0.6,1.2-1,1.7c-0.2,0.8-0.5,1.6-1,2.2c0,0.2,0,0.5,0.1,0.8l-1,3.7V8c0.1,1.5-0.8,3-2,5
		c-0.5,0.9-1.1,1.9-1.6,2.9c-0.1,0.2-0.2,0.4-0.3,0.6c-0.1,0.5-0.3,0.9-0.5,1.4c-0.1,0.6-0.4,1.2-0.7,1.7c-0.1,0.3-0.1,0.6-0.2,0.8
		c-0.3,1.1-0.5,2.4-0.5,3.7c-0.1,0-0.1,0.1-0.2,0.1c-0.2,0.7-0.4,1.4-0.9,1.9v0.3c-0.1,0.1-0.3,0.2-0.6,0.3
		c-0.8,0.7-1.9,1.2-3.3,1.2h-0.1c-0.4,0.1-0.7,0.1-1.1,0.1c-0.4,0.1-0.8,0.2-1.3,0.2c-0.5,0.2-1.2,0.3-1.9,0.3h-0.4
		c-0.1,0.8-0.4,1.6-0.8,2.2l-0.8,2.9v0.5l0.2,0.6l-11.7,43.5l-0.9,0.8c-0.1,0.1-0.3,0.3-0.3,0.5l-1.7,6.7c-0.1,0.5,0.2,1,0.6,1.1
		l28.9,7.8c0.5,0.1,1-0.2,1.1-0.6l1.9-6.7c0.1-0.3,0.1-0.5,0-0.7l-0.4-1.1l11.7-43.5l0.5-0.4l0.2-0.2c0.1-0.1,0.1-0.2,0.1-0.3
		l1.3-4.8C1367.7,36.4,1367.5,35.9,1367,35.7z"/>
	<g id="XMLID_5_">
		<g id="XMLID_11_">
			<g id="XMLID_24_">
				<path id="XMLID_34_" class="st3" d="M1366.7,36.7c-2.4-1.4-6.6-5-6.7-6.5c0.7-0.2,1.1-1.8,0.4-2.2c0.7-1.4,1.2-2.7,1.6-3.9
					c0-0.2,0.1-0.3,0.1-0.5c1.4-5.7-0.3-10.2,1.6-13l1.1-4.2c0.4,0.1,0.4-0.2,0.5-0.6c0.1-0.4,0.3-0.7-0.1-0.8l0.8-3.2
					c0-0.1,0-0.2-0.1-0.2c0.1,0-9.3-2.5-9.4-2.5s-0.2,0-0.2,0.1l-0.8,3.2c-0.4-0.1-0.4,0.2-0.5,0.6c-0.1,0.4-0.3,0.7,0.1,0.8L1354,8
					c0.2,4.1-5.6,7.9-5.8,16.7c-0.8,0-1.3,1.6-0.8,2.1c-0.8,1.3-6.2,2.4-9,2.3c-0.1,0-0.2,0-0.2,0.1l-1.3,4.8l0.3,0.9l-11.8,44
					l-1.1,0.9l-1.7,6.7l29,7.9l1.9-6.7l-0.5-1.4l11.8-44l0.7-0.6l1.3-4.8C1366.8,36.8,1366.8,36.7,1366.7,36.7z"/>
				<line id="XMLID_33_" class="st4" x1="1349.2" y1="18.8" x2="1362.3" y2="22.3"/>
				<line id="XMLID_32_" class="st4" x1="1347.8" y1="24.7" x2="1360.5" y2="28.1"/>
				<line id="XMLID_31_" class="st4" x1="1347.3" y1="26.7" x2="1359.8" y2="30"/>
				<line id="XMLID_30_" class="st3" x1="1354" y1="7.9" x2="1363.6" y2="10.5"/>
				<line id="XMLID_29_" class="st3" x1="1366.7" y1="36.7" x2="1338.2" y2="29"/>
				<line id="XMLID_28_" class="st4" x1="1355.1" y1="3.7" x2="1364.7" y2="6.3"/>
				<line id="XMLID_27_" class="st4" x1="1355.1" y1="2.3" x2="1365.3" y2="5.1"/>
				<line id="XMLID_26_" class="st3" x1="1336.8" y1="33.9" x2="1365.3" y2="41.5"/>
				<line id="XMLID_25_" class="st3" x1="1325.3" y1="78.8" x2="1352.8" y2="86.1"/>
			</g>
			<path id="XMLID_23_" class="st4" d="M1355.6,44.7c3.2,2.5,2.4,3.7-1.9,2.6c-3.5-0.9-8.4-3.2-11-5.2c-2.1-1.6-1.5-2.3,1.2-1.7
				c2.2,0.6,5.3,2,7,3.3c1.3,1,1,1.5-0.8,1.1c-1.4-0.4-3.4-1.3-4.5-2.1"/>
			<line id="XMLID_22_" class="st4" x1="1355.6" y1="44.7" x2="1354.8" y2="47.5"/>
			<line id="XMLID_21_" class="st4" x1="1357.6" y1="47.1" x2="1347.5" y2="84.7"/>
			<line id="XMLID_16_" class="st4" x1="1341.5" y1="40.4" x2="1330.8" y2="80.2"/>
			<line id="XMLID_14_" class="st4" x1="1345.7" y1="42.7" x2="1345.3" y2="43.8"/>
			<line id="XMLID_13_" class="st4" x1="1351.8" y1="44.6" x2="1351.3" y2="46.5"/>
		</g>
	</g>
</g>
<path id="XMLID_3_" class="st0" d="M1238.1,51.9c15.4,0.5,15.9,8.4,32.3,8.4c16.9,0,16.9-8.4,33.8-8.4s16.9,8.4,33.8,8.4
	s16.9-8.4,33.8-8.4s16.9,8.4,33.8,8.4s16.9-8.4,33.8-8.4c15.8,0,16.8,7.3,30.7,8.3"/>
</svg>
