<?xml version="1.0" encoding="utf-8"?>
<!-- Generator: Adobe Illustrator 19.0.0, SVG Export Plug-In . SVG Version: 6.00 Build 0)  -->
<svg version="1.1" id="Слой_1" xmlns="http://www.w3.org/2000/svg" xmlns:xlink="http://www.w3.org/1999/xlink" x="0px" y="0px"
	 width="37.5px" height="37.5px" viewBox="-30 32.5 37.5 37.5" enable-background="new -30 32.5 37.5 37.5" xml:space="preserve">
<path d="M-19,51.6c-0.3-0.8-0.4-1.7-0.4-2.7c0-1.8,0.6-2.5,1.3-3.5c-0.6-2.1,0.2-3.5,0.2-3.5s1.2-0.3,3.6,1.4
	c1.3-0.5,4.7-0.6,6.3-0.1c1-0.6,2.8-1.5,3.5-1.3c0.2,0.3,0.6,1.2,0.3,3.2c0.2,0.4,1.5,1.4,1.5,4c0,1-0.1,1.8-0.3,2.5
	c0,0-0.2,0.9-0.3,0.9c-0.9,1.8-2.6,2.5-5.4,2.8c0.9,0.6,1.2,1.3,1.2,3.2s0,2.2,0,2.6c0,0.7,1.1,1.1,1,1.3c0,0.2-0.9,0.2-1.3,0.1
	c-1.1-0.4-1-1.3-1-1.3l0-2.6c0,0,0.1-1.4-0.4-1.4v4.2c0,0.9,0.6,1.2,0.6,1.5c0,0.6-1.2-0.1-1.6-0.4c-0.6-0.5-0.5-1.7-0.5-2.6
	c0-0.9,0-2.8,0-2.8l-0.4,0c0,0,0.2,4.3-0.2,5c-0.5,1-1.8,1.3-1.8,0.9c0-0.3,0.3-0.2,0.5-0.9c0.2-0.6,0.1-4.9,0.1-4.9
	s-0.4,0.3-0.4,1.1c0,0.4,0,2.5,0,3.1c0,0.8-1.1,1.2-1.7,1.2c-0.3,0-0.6,0-0.6-0.2c0-0.4,1.1-0.6,1.1-1.3c0-0.7,0-2.4,0-2.4
	s-0.5,0.1-1.3,0.1c-1.9,0-2.5-1.2-2.8-1.9c-0.4-0.9-0.9-1.3-1.4-1.6c-0.3-0.2-0.4-0.4,0-0.5c1.7-0.3,2.1,1.9,3.2,2.2
	c0.8,0.2,1.8,0.1,2.4-0.2c0.1-0.7,0.6-1.2,1-1.6c-2.9-0.3-4.6-1.2-5.4-2.8C-18.7,52.5-19.1,51.6-19,51.6z M-11.3,70
	c10.4,0,18.8-8.4,18.8-18.8s-8.4-18.8-18.8-18.8S-30,40.9-30,51.3S-21.6,70-11.3,70z"/>
</svg>
