<?xml version="1.0" encoding="utf-8"?>
<!-- Generator: Adobe Illustrator 19.0.0, SVG Export Plug-In . SVG Version: 6.00 Build 0)  -->
<svg version="1.1" id="Слой_1" xmlns="http://www.w3.org/2000/svg" xmlns:xlink="http://www.w3.org/1999/xlink" x="0px" y="0px"
	 width="37.5px" height="38.1px" viewBox="-30 31.9 37.5 38.1" enable-background="new -30 31.9 37.5 38.1" xml:space="preserve">
<path d="M-11.3,31.9c-10.4,0-18.8,8.5-18.8,19s8.4,19,18.8,19S7.5,61.5,7.5,51S-0.9,31.9-11.3,31.9z M-16,59.9h-4.2V47h4.2V59.9z
	 M-18.1,45.2L-18.1,45.2c-1.5,0-2.4-1-2.4-2.2c0-1.3,0.9-2.2,2.4-2.2s2.3,1,2.4,2.2C-15.8,44.2-16.7,45.2-18.1,45.2z M-0.7,59.9H-5
	V53c0-1.7-0.6-2.9-2.1-2.9c-1.2,0-1.9,0.8-2.2,1.6c-0.1,0.3-0.1,0.7-0.1,1.1v7.2h-4.2c0,0,0.1-11.7,0-13h4.2v1.8
	c0.6-0.9,1.6-2.1,3.8-2.1c2.8,0,4.9,1.9,4.9,5.8L-0.7,59.9z"/>
</svg>
