<?xml version="1.0" encoding="utf-8"?>
<!-- Generator: Adobe Illustrator 20.1.0, SVG Export Plug-In . SVG Version: 6.00 Build 0)  -->
<svg version="1.1" id="Слой_1" xmlns="http://www.w3.org/2000/svg" xmlns:xlink="http://www.w3.org/1999/xlink" x="0px" y="0px"
	 viewBox="0 0 170.9 24.3" style="enable-background:new 0 0 170.9 24.3;" xml:space="preserve">
<style type="text/css">
	.st0{fill:#312F2C;}
</style>
<g>
	<g>
		<path class="st0" d="M12,24.3c-3.3,0-6.2-1.2-8.5-3.5C1.2,18.5,0,15.6,0,12.3C0,9,1.2,6.1,3.5,3.8C5.9,1.4,8.7,0.3,12,0.3
			c2.7,0,5.2,0.8,7.4,2.5c0.4,0.3,0.7,0.8,0.8,1.3c0.1,0.6-0.1,1-0.4,1.5S19,6.2,18.4,6.3c-0.6,0.1-1-0.1-1.5-0.4
			c-1.4-1.1-3.1-1.7-4.9-1.7C9.8,4.2,7.9,5,6.4,6.6C4.8,8.2,4,10.1,4,12.3c0,2.2,0.8,4.1,2.4,5.7c1.6,1.6,3.5,2.4,5.7,2.4
			c2.1,0,3.9-0.7,5.4-2.1c0.4-0.4,0.9-0.5,1.4-0.5c0.6,0,1,0.2,1.4,0.7c0.4,0.4,0.5,0.9,0.5,1.4c0,0.6-0.2,1-0.6,1.4
			C17.9,23.3,15.2,24.3,12,24.3z"/>
		<path class="st0" d="M28.5,24.3c-0.6,0-1-0.2-1.4-0.6c-0.4-0.4-0.6-0.8-0.6-1.4V2.2c0-0.6,0.2-1,0.6-1.4c0.4-0.4,0.8-0.6,1.4-0.6
			s1,0.2,1.4,0.6c0.4,0.4,0.6,0.8,0.6,1.4v20.1c0,0.6-0.2,1-0.6,1.4C29.5,24.1,29,24.3,28.5,24.3z"/>
		<path class="st0" d="M60.3,0.2c0.4,0.1,0.8,0.4,1,0.7c0.3,0.3,0.4,0.7,0.4,1.2v20.3c0,0.6-0.2,1-0.6,1.4c-0.4,0.4-0.9,0.6-1.4,0.6
			c-0.6,0-1-0.2-1.4-0.6c-0.4-0.4-0.6-0.8-0.6-1.4V9.2l-6.3,10.4v0l0,0l0,0l0,0c0,0.1-0.1,0.1-0.1,0.1l-0.1,0.1c0,0-0.1,0.1-0.1,0.1
			c0,0,0,0-0.1,0.1c0,0-0.1,0.1-0.1,0.1c0,0-0.1,0.1-0.1,0.1l-0.1,0.1c0,0-0.1,0-0.1,0.1c0,0,0,0,0,0l0,0h0c0,0-0.1,0-0.1,0.1
			c0,0-0.1,0-0.1,0c0,0,0,0-0.1,0c-0.3,0.1-0.5,0.2-0.8,0.2h0c0,0,0,0-0.1,0c-0.1,0-0.3,0-0.4-0.1c-0.1,0-0.1,0-0.1,0c0,0,0,0-0.1,0
			c-0.1,0-0.1,0-0.1-0.1c0,0,0,0,0,0c-0.1,0-0.1,0-0.1-0.1h0l0,0l0,0c0,0-0.1-0.1-0.1-0.1c0,0,0,0-0.1,0c0,0-0.1-0.1-0.1-0.1
			c0,0,0,0-0.1-0.1S48.3,20,48.3,20c0,0,0-0.1-0.1-0.1c0,0,0-0.1,0-0.1c0,0-0.1-0.1-0.1-0.1l0,0c0,0,0,0,0,0v0c0,0,0,0,0,0L41.7,9.2
			v13.1c0,0.6-0.2,1-0.6,1.4c-0.4,0.4-0.9,0.6-1.4,0.6s-1-0.2-1.4-0.6c-0.4-0.4-0.6-0.8-0.6-1.4V2.1c0-0.4,0.1-0.8,0.4-1.2
			c0.3-0.4,0.6-0.6,1.1-0.7c0.4-0.1,0.8-0.1,1.3,0.1c0.4,0.2,0.7,0.4,1,0.8l8.3,13.7L58,1.1c0.2-0.4,0.5-0.7,1-0.8
			C59.4,0.1,59.6,0,59.6,0S59.8,0.1,60.3,0.2z"/>
		<path class="st0" d="M79.6,24.3c-3.3,0-6.2-1.2-8.5-3.6c-2.4-2.4-3.6-5.2-3.6-8.5c0-3.3,1.2-6.2,3.6-8.6c2.4-2.4,5.2-3.5,8.5-3.5
			c3.3,0,6.2,1.2,8.6,3.5c2.4,2.4,3.5,5.2,3.5,8.6c0,3.3-1.2,6.2-3.5,8.5C85.8,23.2,82.9,24.3,79.6,24.3z M79.6,4.1
			c-2.2,0-4.1,0.8-5.7,2.4c-1.6,1.6-2.4,3.5-2.4,5.7s0.8,4.1,2.4,5.7c1.6,1.6,3.5,2.4,5.7,2.4s4.2-0.8,5.7-2.4
			c1.6-1.6,2.4-3.5,2.4-5.7s-0.8-4.2-2.4-5.7C83.7,4.9,81.8,4.1,79.6,4.1z"/>
		<path class="st0" d="M113.8,23.6L113.8,23.6L113.8,23.6L101.6,8v14.4c0,0.6-0.2,1-0.6,1.4c-0.4,0.4-0.8,0.6-1.4,0.6
			s-1-0.2-1.4-0.6c-0.4-0.4-0.6-0.8-0.6-1.4V2.2c0-0.4,0.1-0.8,0.4-1.1c0.2-0.3,0.6-0.6,1-0.7c0.4-0.1,0.8-0.2,1.2,0
			c0.4,0.1,0.7,0.4,1,0.7l12.1,15.6V2.2c0-0.6,0.2-1,0.6-1.4c0.4-0.4,0.9-0.6,1.4-0.6s1,0.2,1.4,0.6c0.4,0.4,0.6,0.8,0.6,1.4v20.2
			c0,0,0,0.1,0,0.1c0,0,0,0.1,0,0.1c0,0,0,0.1,0,0.1c0,0,0,0.1,0,0.1l0,0.1c0,0.1,0,0.1,0,0.1c0,0,0,0,0,0.1c0,0,0,0.1,0,0.1l0,0.1
			l-0.1,0.1c0,0,0,0.1-0.1,0.1l-0.1,0.1c0,0,0,0.1-0.1,0.1l-0.1,0.1c0,0,0,0-0.1,0.1c0,0-0.1,0.1-0.1,0.1c0,0,0,0-0.1,0.1
			c0,0-0.1,0.1-0.1,0.1c0,0,0,0,0,0l0,0c-0.1,0.1-0.2,0.1-0.3,0.2h0c-0.1,0-0.2,0.1-0.3,0.1c0,0-0.1,0,0,0c-0.1,0-0.2,0.1-0.3,0.1
			l-0.1,0c-0.1,0-0.2,0-0.3,0c-0.1,0-0.1,0-0.2,0c0,0,0,0,0,0c-0.1,0-0.1,0-0.2,0c0,0,0,0-0.1,0c-0.1,0-0.1,0-0.1,0c0,0,0,0-0.1,0
			c-0.1,0-0.1,0-0.1-0.1c0,0,0,0-0.1,0c0,0-0.1,0-0.1-0.1c0,0-0.1,0-0.1-0.1c0,0-0.1-0.1-0.1-0.1c0,0-0.1,0-0.1-0.1
			c-0.1,0-0.1-0.1-0.2-0.1l0,0v0C113.9,23.7,113.8,23.7,113.8,23.6C113.8,23.7,113.8,23.6,113.8,23.6z"/>
		<path class="st0" d="M127.2,20.3c0.6,0,1,0.2,1.4,0.6c0.4,0.4,0.6,0.8,0.6,1.4s-0.2,1-0.6,1.4c-0.4,0.4-0.8,0.6-1.4,0.6
			c-0.5,0-1-0.2-1.4-0.6c-0.4-0.4-0.6-0.8-0.6-1.4s0.2-1,0.6-1.4C126.2,20.5,126.7,20.3,127.2,20.3z"/>
		<path class="st0" d="M139,24.3c-0.6,0-1-0.2-1.4-0.6c-0.4-0.4-0.6-0.8-0.6-1.4V2.2c0-0.6,0.2-1,0.6-1.4c0.4-0.4,0.8-0.6,1.4-0.6
			s1,0.2,1.4,0.6c0.4,0.4,0.6,0.8,0.6,1.4v20.1c0,0.6-0.2,1-0.6,1.4C140,24.1,139.5,24.3,139,24.3z"/>
		<path class="st0" d="M158.8,24.3c-3.3,0-6.2-1.2-8.5-3.6c-2.4-2.4-3.6-5.2-3.6-8.5c0-3.3,1.2-6.2,3.6-8.6c2.4-2.4,5.2-3.5,8.5-3.5
			c3.3,0,6.2,1.2,8.6,3.5c2.4,2.4,3.5,5.2,3.5,8.6c0,3.3-1.2,6.2-3.5,8.5C165,23.2,162.1,24.3,158.8,24.3z M158.8,4.1
			c-2.2,0-4.1,0.8-5.7,2.4c-1.6,1.6-2.4,3.5-2.4,5.7s0.8,4.1,2.4,5.7c1.6,1.6,3.5,2.4,5.7,2.4s4.2-0.8,5.7-2.4
			c1.6-1.6,2.4-3.5,2.4-5.7s-0.8-4.2-2.4-5.7C162.9,4.9,161,4.1,158.8,4.1z"/>
	</g>
</g>
</svg>
