<?xml version="1.0" encoding="utf-8"?>
<!-- Generator: Adobe Illustrator 19.0.0, SVG Export Plug-In . SVG Version: 6.00 Build 0)  -->
<svg version="1.1" id="Слой_1" xmlns="http://www.w3.org/2000/svg" xmlns:xlink="http://www.w3.org/1999/xlink" x="0px" y="0px"
	 width="17.3px" height="21.3px" viewBox="0 0 17.3 21.3" enable-background="new 0 0 17.3 21.3" xml:space="preserve">
<path fill-rule="evenodd" clip-rule="evenodd" fill="#FFECA8" d="M1,9.7C0.7,8.9,0.6,8,0.6,7c0-1.8,0.6-2.5,1.3-3.5
	C1.3,1.5,2.1,0.1,2.1,0.1s1.2-0.3,3.6,1.4C7,0.9,10.4,0.9,12,1.3c1-0.6,2.8-1.5,3.5-1.3c0.2,0.3,0.6,1.2,0.3,3.2
	c0.2,0.4,1.5,1.4,1.5,4c0,1-0.1,1.8-0.3,2.5c0,0-0.2,0.9-0.3,0.9c-0.9,1.8-2.6,2.5-5.4,2.8c0.9,0.6,1.2,1.3,1.2,3.2
	c0,1.9,0,2.2,0,2.6c0,0.7,1.1,1.1,1,1.3c0,0.2-0.9,0.2-1.3,0.1c-1.1-0.4-1-1.3-1-1.3l0-2.6c0,0,0.1-1.4-0.4-1.4v4.2
	c0,0.9,0.7,1.2,0.7,1.5c0,0.6-1.2-0.1-1.6-0.4C9.2,20,9.2,18.9,9.3,18c0-0.9,0-2.8,0-2.8l-0.4,0c0,0,0.2,4.3-0.2,5
	c-0.5,1-1.8,1.3-1.8,0.9c0-0.3,0.3-0.2,0.5-0.9c0.2-0.6,0.1-4.9,0.1-4.9S7,15.5,7,16.3c0,0.4,0,2.5,0,3.1c0,0.8-1.1,1.2-1.7,1.2
	c-0.3,0-0.6,0-0.6-0.2c0-0.4,1.1-0.6,1.1-1.3c0-0.7,0-2.4,0-2.4s-0.5,0.1-1.3,0.1c-1.9,0-2.5-1.2-2.8-1.9c-0.4-0.9-0.9-1.3-1.4-1.6
	c-0.3-0.2-0.4-0.4,0-0.5c1.7-0.3,2.1,1.9,3.2,2.2c0.8,0.2,1.8,0.1,2.4-0.2c0.1-0.7,0.6-1.2,1-1.6c-2.9-0.3-4.6-1.2-5.4-2.8
	C1.4,10.6,1,9.7,1,9.7z"/>
</svg>
