<?xml version="1.0" encoding="utf-8"?>
<!-- Generator: Adobe Illustrator 19.0.0, SVG Export Plug-In . SVG Version: 6.00 Build 0)  -->
<svg version="1.1" id="Слой_1" xmlns="http://www.w3.org/2000/svg" xmlns:xlink="http://www.w3.org/1999/xlink" x="0px" y="0px"
	 width="37.5px" height="37.5px" viewBox="-30 32.5 37.5 37.5" enable-background="new -30 32.5 37.5 37.5" xml:space="preserve">
<path fill-rule="evenodd" clip-rule="evenodd" d="M-8.6,43.9c-1.6,0.6-2.7,2.1-2.6,3.8l0,0.6l-0.7-0.1c-2.4-0.3-4.5-1.3-6.2-3.1
	l-0.9-0.9l-0.2,0.6c-0.5,1.4-0.2,2.9,0.8,3.9c0.5,0.6,0.4,0.6-0.5,0.3c-0.3-0.1-0.6-0.2-0.6-0.1c-0.1,0.1,0.2,1.3,0.5,1.8
	c0.3,0.7,1,1.3,1.8,1.7l0.6,0.3l-0.8,0c-0.7,0-0.8,0-0.7,0.3c0.3,0.9,1.3,1.8,2.4,2.2l0.8,0.3l-0.7,0.4c-1,0.6-2.3,1-3.5,1
	c-0.6,0-1.1,0.1-1.1,0.1c0,0.1,1.6,0.9,2.5,1.2c2.8,0.9,6.1,0.5,8.6-1c1.8-1,3.5-3.1,4.4-5.1c0.4-1.1,0.9-3,0.9-4
	c0-0.6,0-0.7,0.8-1.4c0.4-0.4,0.8-0.9,0.9-1c0.1-0.3,0.1-0.3-0.6,0c-1.1,0.4-1.3,0.3-0.7-0.3c0.4-0.4,0.9-1.2,0.9-1.4
	c0,0-0.2,0-0.4,0.1c-0.2,0.1-0.8,0.3-1.2,0.5l-0.7,0.2l-0.6-0.4c-0.4-0.2-0.9-0.5-1.1-0.6C-7,43.7-8,43.7-8.6,43.9z M-11.3,70
	c10.4,0,18.8-8.4,18.8-18.8s-8.4-18.8-18.8-18.8S-30,40.9-30,51.3S-21.6,70-11.3,70z"/>
</svg>
