<?xml version="1.0" encoding="utf-8"?>
<!-- Generator: Adobe Illustrator 19.0.0, SVG Export Plug-In . SVG Version: 6.00 Build 0)  -->
<svg version="1.1" id="Слой_1" xmlns="http://www.w3.org/2000/svg" xmlns:xlink="http://www.w3.org/1999/xlink" x="0px" y="0px"
	 viewBox="0 0 1920 2486" style="enable-background:new 0 0 1920 2486;" xml:space="preserve">
<style type="text/css">
	.st0{fill:#817957;}
</style>
<path id="XMLID_78_" class="st0" d="M183.3,2485.8v-68h-42.9v-118.7h-10v-293.4h23.4v-217.8h-23.4v-193.4h10v-144h14.8v-273.2h-24.9
	V310.1h23.4v-33h-23.4v-23.7h38.3v-57.6h27.5V-0.9h-65.9H65.2H0v2487.6C60.9,2486.8,122.3,2487.4,183.3,2485.8z"/>
<path id="XMLID_92_" class="st0" d="M3860,2483.8V2.1h-130.4v34h-6.9v28.2h6.9V115h-21.5v214.3h21.5v217.4h-14.8v162.5h14.8v590.8
	h-14.8v42.6h-26.1v107.6h26.1v79.5h14.8v280.6H3714v155.9h15.6v159.5H3714v213.7h15.6v143.3
	C3773.4,2482.7,3816.3,2484.4,3860,2483.8z"/>
</svg>
