<?xml version="1.0" encoding="utf-8"?>
<!-- Generator: Adobe Illustrator 19.0.0, SVG Export Plug-In . SVG Version: 6.00 Build 0)  -->
<svg version="1.1" id="Слой_1" xmlns="http://www.w3.org/2000/svg" xmlns:xlink="http://www.w3.org/1999/xlink" x="0px" y="0px"
	 viewBox="0 0 1920 2486" style="enable-background:new 0 0 1920 2486;" xml:space="preserve">
<style type="text/css">
	.st0{fill:#817957;}
</style>
<path id="XMLID_78_" class="st0" d="M-1756.7,2485.8v-68h-42.9v-118.7h-10v-293.4h23.4v-217.8h-23.4v-193.4h10v-144h14.8v-273.2
	h-24.9V310.1h23.4v-33h-23.4v-23.7h38.3v-57.6h27.5V-0.9h-65.9h-65.2h-65.2v2487.6C-1879.1,2486.8-1817.7,2487.4-1756.7,2485.8z"/>
<path id="XMLID_92_" class="st0" d="M1920,2491.7V-2.9h-130.4v34.2h-6.9v28.3h6.9v51h-21.5V326h21.5v218.5h-14.8v163.3h14.8v593.9
	h-14.8v42.8h-26.1v108.2h26.1v79.9h14.8v282.1H1774v156.7h15.6v160.3H1774v214.8h15.6v144C1833.4,2490.6,1876.3,2492.3,1920,2491.7z
	"/>
</svg>
