<?xml version="1.0" encoding="utf-8"?>
<!-- Generator: Adobe Illustrator 19.0.0, SVG Export Plug-In . SVG Version: 6.00 Build 0)  -->
<svg version="1.1" id="Слой_1" xmlns="http://www.w3.org/2000/svg" xmlns:xlink="http://www.w3.org/1999/xlink" x="0px" y="0px"
	 viewBox="0 221 1920 3560" style="enable-background:new 0 221 1920 3560;" xml:space="preserve">
<style type="text/css">
	.st0{fill:none;}
	.st1{fill:none;stroke:#DECD94;stroke-width:3;stroke-miterlimit:10;}
	.st2{fill:#DECD94;}
</style>
<line id="XMLID_273_" class="st0" x1="1005.3" y1="1793.9" x2="1005.3" y2="2008.1"/>
<line id="XMLID_607_" class="st1" x1="1827.8" y1="607.7" x2="1867.4" y2="607.7"/>
<line id="XMLID_606_" class="st1" x1="1827.6" y1="644.3" x2="1865.1" y2="644.3"/>
<line id="XMLID_605_" class="st1" x1="1828.9" y1="639" x2="1865" y2="639"/>
<line id="XMLID_604_" class="st1" x1="1709.7" y1="900.8" x2="1709.7" y2="929.5"/>
<line id="XMLID_603_" class="st1" x1="1741.7" y1="903.5" x2="1741.7" y2="930.1"/>
<line id="XMLID_602_" class="st1" x1="1736.3" y1="902.8" x2="1736.3" y2="928.8"/>
<line id="XMLID_601_" class="st1" x1="1455.1" y1="435.5" x2="1455.1" y2="449.5"/>
<line id="XMLID_600_" class="st1" x1="1485.7" y1="436.1" x2="1485.7" y2="449.5"/>
<line id="XMLID_599_" class="st1" x1="1760.3" y1="1161.1" x2="1790.5" y2="1161.1"/>
<line id="XMLID_598_" class="st1" x1="1759.3" y1="1200.1" x2="1792.3" y2="1200.1"/>
<line id="XMLID_597_" class="st1" x1="1761.3" y1="1177.1" x2="1785.5" y2="1177.1"/>
<line id="XMLID_596_" class="st1" x1="1760.3" y1="1183.1" x2="1791.5" y2="1183.1"/>
<line id="XMLID_595_" class="st1" x1="1484.3" y1="1399.1" x2="1521.6" y2="1399.1"/>
<line id="XMLID_594_" class="st1" x1="1487.3" y1="1404.1" x2="1518" y2="1404.1"/>
<line id="XMLID_593_" class="st1" x1="1487.3" y1="1430.1" x2="1520.5" y2="1430.1"/>
<line id="XMLID_592_" class="st1" x1="1490.3" y1="1424.1" x2="1518.3" y2="1424.1"/>
<line id="XMLID_591_" class="st1" x1="1761.3" y1="1738.1" x2="1791.3" y2="1738.1"/>
<line id="XMLID_590_" class="st1" x1="1762.3" y1="1755.1" x2="1789.3" y2="1755.1"/>
<line id="XMLID_589_" class="st1" x1="1373.3" y1="1882.1" x2="1373.3" y2="1915.2"/>
<line id="XMLID_588_" class="st1" x1="1406.3" y1="1881.1" x2="1406.3" y2="1913.2"/>
<line id="XMLID_587_" class="st1" x1="1400.3" y1="1883.1" x2="1400.3" y2="1919.1"/>
<path id="XMLID_586_" class="st1" d="M1354.1,550.4c132.6,129.8,321.2,149,468.8,58.8"/>
<path id="XMLID_585_" class="st1" d="M1393.3,550.4c55.5,57.8,130.3,95.5,208.8,106.3c24.7,3.5,49.9,4.2,74.9,4.8
	c50.9,1.2,105.4,0.6,147.2-29"/>
<path id="XMLID_584_" class="st1" d="M1393.3,703.3c53,11.3,108,13.9,161.8,7.5"/>
<path id="XMLID_583_" class="st1" d="M1394.3,717.1c51.4,27.2,115.1,29.9,168.7,7.2"/>
<path id="XMLID_582_" class="st1" d="M1640.3,452.2c2.3,9.1,6.9,18.2,17,25.8c10.1,7.6,26.3,13.7,44.6,14.6
	c27.8,1.4,55.1-11.1,54.5-25"/>
<path id="XMLID_581_" class="st1" d="M1655.1,295.7"/>
<path id="XMLID_580_" class="st1" d="M734.7,1160.8c15,30.8,40.6,56.8,72.1,70.2s68.9,13.5,99.6-1.7c35.2-17.4,60.3-55.3,57.8-95.1"
	/>
<path id="XMLID_579_" class="st1" d="M772.5,1166.8c-1.4,6.4,2.7,11,6.5,13.6c9,6.2,18.9,10.5,29.2,12.9c11.7,2.6,24.1,2.6,36.3-3.1
	c8.7-3.9,16.9-10.6,25-17.1c9.6-7.8,19.2-15.4,28.8-23.2"/>
<path id="XMLID_578_" class="st1" d="M1095.8,1160.9c0,11.2,7.9,20.9,16.9,27.5c16.6,12.1,38.4,16.9,58.5,12.8
	c20.2-4,38.4-16.8,49.1-34.4"/>
<path id="XMLID_577_" class="st1" d="M1475.2,1374.9c46.3,11.9,95.3,13,142.1,3.1c25-5.3,50.4-14.3,67.6-33.2"/>
<path id="XMLID_576_" class="st1" d="M1680.8,1338.3c21.2-37.8,46.8-59.1,72.8-68.6s52.4-7.4,78.5-1.8"/>
<path id="XMLID_575_" class="st1" d="M1479,1210.5c44,37.4,103.4,53.9,161.1,52.6c57.7-1.3,114.1-19.3,166.1-44.4"/>
<path id="XMLID_574_" class="st1" d="M1249.1,1115.4c11.4,2,23.5,4.1,34.4,0.1c12.8-4.7,21.4-16.6,32.8-24.1
	c33.9-22.3,94-3.7,76.5,80.8"/>
<path id="XMLID_573_" class="st1" d="M1733.5,929.9c-5.3,46.4,18.3,94.9,58.1,119.3c0.5,0.3,1.3,0.7,1.8,0.3s-0.3-1.4-0.6-0.8"/>
<path id="XMLID_572_" class="st1" d="M1719.3,931.3c-3.6,30.7-1,62.6,11.5,91c12.4,28.3,35.4,52.7,64.5,63.1"/>
<path id="XMLID_571_" class="st1" d="M1477.7,1346.4c58.6,44.5,134.8,65,207.8,55.9"/>
<path id="XMLID_570_" class="st1" d="M1415.5,1712.7c41.6-3,83.5-1,124.6,5.9c73.4,12.4,147.7,40.7,220.3,24.1"/>
<path id="XMLID_569_" class="st1" d="M1474.8,1750.2c42.8-3.1,81.1,18.4,122.3,25.2c35.7,5.8,73.7-0.1,104.3-19.3
	c30.6-19.2,52.9-52.3,56.2-88.3"/>
<path id="XMLID_568_" class="st1" d="M1229.1,1891.4c11.3,25.4,35.1,44.9,62.3,50.7c8.3,1.8,16.9,2.4,25.4,2.4
	c15.5,0.1,31.2-1.7,45.5-7.5s27.3-15.9,34.5-29.6"/>
<path id="XMLID_567_" class="st1" d="M1405.8,1917.3c16.9,20.2,45,27.4,71.3,27.6c46.6,0.3,91.1-17.8,135.5-32.2
	c44.4-14.4,92.9-25.1,137.1-10.3"/>
<path id="XMLID_566_" class="st1" d="M1261,977.1c19.3,5,40.5-4.7,52.5-20.6c12.1-15.9,16-36.7,14.9-56.6"/>
<path id="XMLID_565_" class="st1" d="M1395.8,823.7c7,41,44.2,71.4,84.2,74.6c2.2,0.2,4.6,0.3,6.5,1.5c1.9,1.2,3.2,3.7,2.2,5.7"/>
<path id="XMLID_564_" class="st1" d="M1479,1361c-22.7,6.7-46.3,12-70,11c-63.2-2.7-128.4-56-26.9-188.7"/>
<rect id="XMLID_563_" x="1719.3" y="1404.9" class="st2" width="148.4" height="273.2"/>
<rect id="XMLID_562_" x="1717.3" y="804.7" class="st2" width="149.2" height="59.9"/>
<rect id="XMLID_561_" x="1752.8" y="360.6" class="st2" width="103.2" height="120.3"/>
<rect id="XMLID_560_" x="1784.8" y="961.2" class="st2" width="81.7" height="314"/>
<rect id="XMLID_559_" x="1781.2" y="1610.2" class="st2" width="43.2" height="211.9"/>
<rect id="XMLID_558_" x="1647.3" y="1524.6" class="st2" width="81.7" height="98.9"/>
<polyline id="XMLID_557_" class="st2" points="1681.3,2025.6 1681.3,1588.1 1694.3,1588.1 1694.3,2025.6 "/>
<rect id="XMLID_556_" x="1738.2" y="1873" class="st2" width="124" height="59.5"/>
<polyline id="XMLID_555_" class="st2" points="1349.3,452.2 1349.3,446.9 1813.8,446.9 1813.8,452.2 "/>
<rect id="XMLID_554_" x="1775.3" y="1017.8" class="st2" width="34.5" height="95.9"/>
<polyline id="XMLID_553_" class="st2" points="1467.7,1976.1 1467.7,1161.1 1490.3,1161.1 1490.3,1976.1 "/>
<rect id="XMLID_552_" x="1676.5" y="1167.1" class="st2" width="18" height="387.9"/>
<rect id="XMLID_551_" x="1177.6" y="726.9" class="st2" width="32.7" height="442.4"/>
<rect id="XMLID_550_" x="1200" y="934" class="st2" width="72.1" height="233.1"/>
<rect id="XMLID_549_" x="1260.5" y="1088.8" class="st2" width="17.8" height="46"/>
<rect id="XMLID_548_" x="1257.8" y="961.2" class="st2" width="20.4" height="78.7"/>
<rect id="XMLID_547_" x="1241.3" y="746.5" class="st2" width="16.4" height="214.6"/>
<rect id="XMLID_546_" x="1254.3" y="799.8" class="st2" width="555.5" height="7.3"/>
<rect id="XMLID_545_" x="1249.1" y="816" class="st2" width="488" height="8"/>
<rect id="XMLID_544_" x="1250.2" y="892.2" class="st2" width="574.2" height="16"/>
<line id="XMLID_543_" class="st0" x1="1204.5" y1="982.3" x2="1204.5" y2="1000.5"/>
<line id="XMLID_542_" class="st0" x1="1210.3" y1="1044.9" x2="1210.3" y2="1065.7"/>
<rect id="XMLID_541_" x="702.4" y="1130.6" class="st2" width="523.9" height="38.7"/>
<line id="XMLID_540_" class="st0" x1="1206" y1="1012.1" x2="1206" y2="1024.6"/>
<rect id="XMLID_539_" x="1754.3" y="1731" class="st2" width="13.4" height="31.7"/>
<rect id="XMLID_538_" x="1364.3" y="1905.6" class="st2" width="49.8" height="14.8"/>
<rect id="XMLID_537_" x="1509.8" y="1395.7" class="st2" width="15.2" height="41.4"/>
<rect id="XMLID_536_" x="1754.3" y="1155.8" class="st2" width="13.4" height="50.4"/>
<rect id="XMLID_535_" x="1705.1" y="923.8" class="st2" width="40.3" height="10.6"/>
<rect id="XMLID_534_" x="1821.1" y="602.8" class="st2" width="6" height="45.8"/>
<rect id="XMLID_307_" x="1817.7" y="504.6" class="st2" width="45.9" height="33"/>
<rect id="XMLID_306_" x="1340.7" y="504.6" class="st2" width="95" height="49.2"/>
<rect id="XMLID_305_" x="1413.3" y="449.5" class="st2" width="6.5" height="60.4"/>
<rect id="XMLID_304_" x="1449.1" y="430.1" class="st2" width="43.3" height="10.1"/>
<rect id="XMLID_303_" x="1589.1" y="516.7" class="st2" width="256.5" height="16.1"/>
<rect id="XMLID_302_" x="1360.8" y="695.5" class="st2" width="47.6" height="44.3"/>
<rect id="XMLID_301_" x="1549.1" y="695.5" class="st2" width="31.6" height="44.3"/>
<rect id="XMLID_299_" x="1360.8" y="435.2" class="st2" width="22.6" height="25.6"/>
<rect id="XMLID_298_" x="1212" y="1878.4" class="st2" width="36" height="21.7"/>
<polyline id="XMLID_297_" class="st2" points="733.9,1754.3 1293.3,1754.3 1293.3,1675.3 733.9,1675.3 "/>
<rect id="XMLID_296_" x="1280" y="1695.7" class="st2" width="206.1" height="24.5"/>
<line id="XMLID_295_" class="st0" x1="782.4" y1="1201.9" x2="649.7" y2="1201.9"/>
<rect id="XMLID_294_" x="1165.3" y="1155.8" class="st2" width="596" height="31.7"/>
<rect id="XMLID_293_" x="1162.3" y="1870.7" class="st2" width="525.5" height="12.4"/>
<rect id="XMLID_292_" x="1574.8" y="449.5" class="st2" width="20.8" height="352.4"/>
</svg>
