<?xml version="1.0" encoding="utf-8"?>
<!-- Generator: Adobe Illustrator 19.0.0, SVG Export Plug-In . SVG Version: 6.00 Build 0)  -->
<svg version="1.1" id="Слой_1" xmlns="http://www.w3.org/2000/svg" xmlns:xlink="http://www.w3.org/1999/xlink" x="0px" y="0px"
	 viewBox="0 -537 1920 3560" style="enable-background:new 0 -537 1920 3560;" xml:space="preserve">
<style type="text/css">
	.st0{fill:none;stroke:#DECD94;stroke-width:3;stroke-miterlimit:10;}
	.st1{fill:#DECD94;}
	.st2{fill:none;}
	.st3{fill:none;stroke:#F393BD;stroke-width:3;stroke-linecap:round;stroke-linejoin:round;stroke-miterlimit:10;}
</style>
<line id="XMLID_51_" class="st0" x1="-1544.3" y1="1808.4" x2="-1514.5" y2="1808.4"/>
<line id="XMLID_50_" class="st0" x1="-1539.6" y1="1835.4" x2="-1510.2" y2="1835.4"/>
<line id="XMLID_49_" class="st0" x1="-1378.6" y1="1467.9" x2="-1359.7" y2="1467.9"/>
<line id="XMLID_48_" class="st0" x1="-1380.1" y1="1503.9" x2="-1356.4" y2="1503.9"/>
<line id="XMLID_47_" class="st0" x1="-1490.1" y1="1586.4" x2="-1471.2" y2="1586.4"/>
<line id="XMLID_46_" class="st0" x1="-1491.6" y1="1577.4" x2="-1461.8" y2="1577.4"/>
<line id="XMLID_45_" class="st0" x1="-1657.3" y1="1249" x2="-1615.2" y2="1249"/>
<line id="XMLID_44_" class="st0" x1="-1658.9" y1="1259.5" x2="-1607.7" y2="1259.5"/>
<path id="XMLID_43_" class="st0" d="M-1351.5,1134.9c3.3,27.6,13.8,54.9,32.8,75.9c18.9,20.9,46.8,34.9,75.6,34.5
	c18.6-0.2,39.5-8.9,44.4-26.3"/>
<path id="XMLID_42_" class="st0" d="M-1816.2,1161.4c39.1,41.3,98,64.2,155.8,60.5"/>
<path id="XMLID_41_" class="st0" d="M-1615.4,1257.3c29.5-0.7,59.3-4.4,86.8-14.6c27.6-10.2,52.9-27.4,69.4-51.1
	c11.8-17,18.6-36.7,26.4-55.7"/>
<path id="XMLID_40_" class="st0" d="M-1504,1579.4c-56.2-0.4-107.7,89.9,39.6,133.4"/>
<path id="XMLID_39_" class="st0" d="M-1385.4,1255.5c-235.4,12-246.5,221.9-140.9,309.5c10.7,8.9,23.8,16.9,37.8,15.7"/>
<path id="XMLID_38_" class="st0" d="M-1824.2,1807.6c29.5,18.6,66.4,26,101,20.1c34.7-5.9,66.8-24.9,88-52.1
	c4.9-6.2,9.3-13.3,9.4-21.1"/>
<path id="XMLID_37_" class="st0" d="M-1790.6,1752.4c25.6,40.2,75.1,63.8,123.4,60.8c40.8-2.5,79.9-23.9,103.2-56.5"/>
<path id="XMLID_36_" class="st0" d="M-1315.8,1764.1c31.6,28.4,79.6,38.5,120.5,25.3c14-4.5,28.1-12.7,33-26.1"/>
<path id="XMLID_35_" class="st0" d="M-1708.3,2161.6c-18.5,80.6,20.2,170.5,92.3,214.5c31,18.9,66.5,29.6,101,41.2"/>
<path id="XMLID_34_" class="st0" d="M-1825.2,2204.5c25.6,7,52.7,14.8,70.3,34.1c18.7,20.4,22.9,49.2,32.9,74.8
	c13.2,33.8,42.9,65.7,80.2,66.1"/>
<path id="XMLID_33_" class="st0" d="M-1855.8,1414.2c67.8,5.1,137.4-16.2,189.8-58.3"/>
<rect id="XMLID_32_" x="-1840" y="1865" class="st1" width="345.8" height="313.1"/>
<rect id="XMLID_31_" x="-1861.8" y="1847.9" class="st1" width="277.2" height="37.9"/>
<rect id="XMLID_30_" x="-1843.2" y="1388" class="st1" width="54" height="155.9"/>
<rect id="XMLID_29_" x="-1524.7" y="1902.8" class="st1" width="139.9" height="72.8"/>
<rect id="XMLID_28_" x="-1738.9" y="2146.9" class="st1" width="161.6" height="47.9"/>
<line id="XMLID_27_" class="st2" x1="-1819.9" y1="1107.5" x2="-1790.1" y2="1107.5"/>
<rect id="XMLID_26_" x="-1475.4" y="1570.3" class="st1" width="124.2" height="181.5"/>
<rect id="XMLID_25_" x="-1396.1" y="1116.3" class="st1" width="20" height="477.7"/>
<polyline id="XMLID_24_" class="st1" points="-1829.2,1073.7 -1829.2,1149.6 -1152.7,1149.6 -1152.7,1073.7 "/>
<line id="XMLID_23_" class="st2" x1="-1453" y1="1126.7" x2="-1489.5" y2="1126.7"/>
<line id="XMLID_22_" class="st2" x1="-1368.9" y1="1121.3" x2="-1391.3" y2="1121.3"/>
<rect id="XMLID_21_" x="-1680.6" y="1121.3" class="st1" width="28.4" height="630.6"/>
<polyline id="XMLID_20_" class="st1" points="-1658.1,2455.5 -1658.1,2170.8 -1641.9,2170.8 -1641.9,2455.5 "/>
<polyline id="XMLID_19_" class="st1" points="-1174.2,2304.3 -1858.5,2304.3 -1858.5,2288.3 -1174.2,2288.3 "/>
<rect id="XMLID_18_" x="-1552.9" y="1750.8" class="st1" width="19" height="184.2"/>
<rect id="XMLID_17_" x="-1631.1" y="1244.3" class="st1" width="26.4" height="24.6"/>
<rect id="XMLID_16_" x="-1508.7" y="1570.3" class="st1" width="21.8" height="23.7"/>
<rect id="XMLID_15_" x="-1363.2" y="1464.2" class="st1" width="12" height="50.4"/>
<rect id="XMLID_14_" x="-1517.7" y="1802.4" class="st1" width="10.8" height="38.3"/>
<polyline id="XMLID_13_" class="st1" points="-1763.1,2424.9 -1763.1,2374.1 -1738.9,2374.1 -1738.9,2424.9 "/>
<polyline id="XMLID_12_" class="st1" points="-1205.3,2404.8 -1205.3,2249.3 -1152.7,2249.3 "/>
<polyline id="XMLID_11_" class="st1" points="-1152.7,1027.9 -1152.7,1230.5 -1240.3,1230.5 -1240.3,1027.9 -1152.7,1027.9 "/>
<rect id="XMLID_10_" x="-1387.9" y="1116.3" class="st1" width="92.7" height="44.9"/>
<rect id="XMLID_9_" x="-1351.2" y="1751.8" class="st1" width="92.6" height="29.6"/>
<rect id="XMLID_8_" x="-1191.4" y="1751.8" class="st1" width="38.7" height="31"/>
<line id="XMLID_7_" class="st2" x1="-1184" y1="1028.5" x2="-1184" y2="1107.5"/>
<rect id="XMLID_6_" x="-1363.2" y="1612.6" class="st1" width="20.6" height="85.3"/>
<polyline id="XMLID_5_" class="st1" points="-20,1741.3 -1939.7,1741.3 -1939.7,1760.3 -20,1760.3 "/>
<polyline id="XMLID_275_" class="st1" points="1919.8,1584.5 0.2,1584.5 0.2,1603.5 1919.8,1603.5 "/>
<polyline id="XMLID_4_" class="st1" points="-508.6,2260.3 -1205.3,2260.3 -1205.3,2249.3 -508.6,2249.3 "/>
<rect id="_x3C_Фрагмент_x3E__2_" x="-1238.3" y="2275.5" class="st2" width="9.3" height="9"/>
<polyline id="_x3C_Фрагмент_x3E__3_" class="st2" points="-947.2,1774.5 -956.5,1774.5 -956.5,1729.5 -947.2,1729.5 "/>
<line id="XMLID_3_" class="st3" x1="-1940" y1="3189.4" x2="-1940" y2="1675"/>
<line id="XMLID_2_" class="st3" x1="-1940" y1="1675" x2="-1940" y2="-810.6"/>
<line id="XMLID_114_" class="st0" x1="1681" y1="1717.4" x2="1710.4" y2="1717.4"/>
<line id="XMLID_113_" class="st0" x1="1682" y1="1764.4" x2="1714.4" y2="1764.4"/>
<line id="XMLID_112_" class="st0" x1="1687" y1="1740.4" x2="1705" y2="1740.4"/>
<line id="XMLID_111_" class="st0" x1="1684" y1="1734.4" x2="1711" y2="1734.4"/>
<line id="XMLID_110_" class="st0" x1="1738" y1="2657.5" x2="1768.6" y2="2657.5"/>
<line id="XMLID_109_" class="st0" x1="1739.5" y1="2702.5" x2="1774.1" y2="2702.5"/>
<line id="XMLID_108_" class="st0" x1="1754.7" y1="2658" x2="1754.7" y2="2702.8"/>
<path id="XMLID_107_" class="st0" d="M1457.3,1265.5c-1,13.7,7.6,27.5,20.3,32.6s28.5,1.2,37.3-9.3c3.8-4.5,6.3-10,8.7-15.4
	c2.2-4.9,4.5-10,4.1-15.4"/>
<path id="XMLID_106_" class="st0" d="M1516.5,1267.2c2.4,10.7,11.6,18.6,21.3,23.6c18.9,9.8,41.6,11.5,62.3,6.3
	c20.7-5.3,39.4-17.2,54.2-32.6"/>
<path id="XMLID_105_" class="st0" d="M1512.6,1266.8c10.7,36.1,50.9,59.2,88.4,55c37.4-4.2,69.9-32.3,84.4-67.1"/>
<path id="XMLID_104_" class="st0" d="M1399,1315.2c27.7,2.7,55.5-19.2,59.3-46.8"/>
<path id="XMLID_103_" class="st0" d="M1297.4,2091.7c37.5,50,100.7,79.8,163.2,76.8"/>
<path id="XMLID_102_" class="st0" d="M1296.1,2092c15.1,35,34.9,74.2,70.7,90.1"/>
<path id="XMLID_101_" class="st0" d="M1469.6,2166.1c83.1-9.9,146.4-129.3,26.3-201.4"/>
<path id="XMLID_100_" class="st0" d="M1504.1,2507.9c91.8,4.3,184.8-30.7,250.9-94.5"/>
<path id="XMLID_99_" class="st0" d="M1507.4,2530.2c57.4,17.1,119-2.3,174.5-24.8c34-13.8,70.9-32.2,83.4-66.7"/>
<path id="XMLID_98_" class="st0" d="M1535.4,2605.1c55.2,54,137.1,79.3,213.1,65.9"/>
<path id="XMLID_97_" class="st0" d="M1563.3,2585c6.6,12.2,13.4,24.6,23.4,34.1c10.2,9.8,23.2,16.1,36.3,21.4
	c39.3,16,81.6,24.6,124,25.2"/>
<path id="XMLID_96_" class="st0" d="M1485.4,2611.1c33.5,35.2,77.4,59.7,123.8,74s95.5,18.7,144.1,17.3"/>
<path id="XMLID_95_" class="st0" d="M1275.1,1592.7c41.9,70.6,126.4,106,207.9,108.3c78.8,2.2,155.9-22.3,229.5-50.6
	c32-12.3,65.2-26.5,85.8-53.9"/>
<path id="XMLID_94_" class="st0" d="M1465.5,1592.9c35.4,87.8,123.9,151.6,218.4,157.4"/>
<path id="XMLID_93_" class="st0" d="M1711.1,1748.9c14.2-1,28.7-2,42.4,1.4c15.5,3.9,29.1,13.2,44.8,16.2"/>
<path id="XMLID_92_" class="st0" d="M1712.5,1735.5c31.5-0.7,63-1.4,94.5-2"/>
<path id="XMLID_91_" class="st0" d="M1708,1722.4c27.3-12,55-24.5,79.7-45.5c23-19.5,43.2-46.5,58.4-78.5"/>
<path id="XMLID_90_" class="st0" d="M1709.6,1761.3c37.4,6.3,70.9,32.3,86.3,66.9"/>
<path id="XMLID_89_" class="st0" d="M1491.5,1962.6c62.6,30.9,140.2,29.4,201.7-3.8"/>
<polyline id="XMLID_88_" class="st1" points="1846.1,1921.5 1651.3,1921.5 1651.3,2471.9 1846.1,2471.9 1846.1,1921.5 "/>
<polyline id="XMLID_87_" class="st1" points="1830,1961.8 1830,1836.7 1728,1836.7 1728,1961.8 1830,1961.8 "/>
<rect id="XMLID_86_" x="1152" y="1170.7" class="st1" width="647.4" height="95.1"/>
<rect id="XMLID_85_" x="1407" y="1156.1" class="st1" width="104.3" height="23.7"/>
<rect id="XMLID_84_" x="1539.1" y="1156.1" class="st1" width="104.3" height="23.7"/>
<rect id="XMLID_83_" x="1757.4" y="1170.7" class="st1" width="51" height="312.9"/>
<rect id="XMLID_82_" x="1770.8" y="1717.9" class="st1" width="37.6" height="137.8"/>
<rect id="XMLID_81_" x="1757.4" y="2436.3" class="st1" width="51" height="358.9"/>
<rect id="XMLID_80_" x="1683.2" y="2448.6" class="st1" width="107.3" height="37.6"/>
<polyline id="XMLID_79_" class="st1" points="1370.9,2271.9 1703,2271.9 1703,2149.6 1370.9,2149.6 1370.9,2271.9 "/>
<polyline id="XMLID_78_" class="st1" points="1357,2271.9 1357,1589.9 1388.7,1589.9 1388.7,2271.9 "/>
<rect id="XMLID_77_" x="1487.9" y="1588.9" class="st1" width="17.5" height="588.9"/>
<rect id="XMLID_76_" x="1677.5" y="1589.9" class="st1" width="11.4" height="363.9"/>
<line id="XMLID_75_" class="st2" x1="1684" y1="1216.8" x2="1671" y2="1216.8"/>
<rect id="XMLID_74_" x="1615.3" y="1241" class="st1" width="93.7" height="38.9"/>
<line id="XMLID_73_" class="st2" x1="1479.8" y1="1167.4" x2="1457.3" y2="1167.4"/>
<polyline id="XMLID_72_" class="st1" points="680.7,2559.8 1782.9,2559.8 1782.9,2615.7 680.7,2615.7 "/>
<polyline id="XMLID_71_" class="st1" points="1427.3,2412.2 1703,2412.2 1703,2442.4 1427.3,2442.4 "/>
<rect id="XMLID_70_" x="1377.8" y="1246.7" class="st1" width="34.1" height="343.2"/>
<rect id="XMLID_69_" x="1727.8" y="2647.4" class="st1" width="20.9" height="66.5"/>
<rect id="XMLID_68_" x="1703" y="1709.5" class="st1" width="14" height="63.6"/>
<rect id="XMLID_67_" x="1504.4" y="1258.7" class="st1" width="27.2" height="21.1"/>
<rect id="XMLID_66_" x="1445.2" y="1258.7" class="st1" width="23.4" height="21.1"/>
<rect id="XMLID_65_" x="1154.3" y="1598.4" class="st1" width="94.7" height="33.7"/>
<line id="XMLID_163_" class="st0" x1="-665.7" y1="6182.9" x2="-665.7" y2="6206.9"/>
<line id="XMLID_162_" class="st0" x1="-608.7" y1="6182.9" x2="-608.7" y2="6208.6"/>
<line id="XMLID_161_" class="st0" x1="-491.7" y1="6181.4" x2="-491.7" y2="6205.5"/>
<line id="XMLID_160_" class="st0" x1="-404.7" y1="6181.4" x2="-404.7" y2="6210"/>
<line id="XMLID_159_" class="st0" x1="-666.2" y1="6192.8" x2="-608.2" y2="6192.8"/>
<line id="XMLID_158_" class="st0" x1="-492.2" y1="6194.2" x2="-405.5" y2="6194.2"/>
<path id="XMLID_157_" class="st0" d="M-1421.9,5945.6c21.9-7.8,42.3-21.7,54.1-41.7"/>
<path id="XMLID_156_" class="st0" d="M-1486.9,6044.9c42.7,7.9,87.2,0.2,129.3,2.7"/>
<path id="XMLID_155_" class="st0" d="M-818.4,5660.9c10,27,35.1,44.5,62,52.7c23,7,47.4,7.9,71.4,8.1c25,0.1,50.2-0.5,74.4-6.6
	c28.7-7.2,56.2-22.5,71.8-48.4"/>
<path id="XMLID_154_" class="st0" d="M-833,5660.9c18.9,51.9,73.4,79.2,126.6,87.3c24.4,3.8,49.3,4.3,73.7,0.4
	c53.4-8.4,103.2-38.5,135.2-82.2"/>
<path id="XMLID_153_" class="st0" d="M-474.9,5665.2"/>
<path id="XMLID_152_" class="st0" d="M-405.5,5755.6c18.9,8.4,40.1,9.3,60.8,9.1"/>
<path id="XMLID_151_" class="st0" d="M-476.2,5665.5"/>
<path id="XMLID_150_" class="st0" d="M-268.2,6081.4"/>
<path id="XMLID_149_" class="st0" d="M-264.9,6103.7"/>
<path id="XMLID_148_" class="st0" d="M-633,6208.6c5.8,8.5,15.7,12.9,25.5,16.1c45.9,14.8,98.3,7.8,138.8-18.5"/>
<path id="XMLID_147_" class="st0" d="M-805.6,6275.7c19.1,2.8,38.8,2.1,57.7-2.1c13.5-3,26.5-7.7,39.3-13
	c13.3-5.5,26.5-11.9,37.5-21.1s20-21.7,22.6-35.8"/>
<path id="XMLID_146_" class="st0" d="M-286.8,6184.6"/>
<path id="XMLID_145_" class="st1" d="M-401.3,5845.4"/>
<rect id="XMLID_144_" x="-739.5" y="5762.2" class="st1" width="195.1" height="92"/>
<rect id="XMLID_143_" x="-627.6" y="5665.5" class="st1" width="19.3" height="118.8"/>
<rect id="XMLID_142_" x="-710.2" y="5669.4" class="st1" width="49.3" height="114.9"/>
<line id="XMLID_141_" class="st2" x1="-383.6" y1="5845.4" x2="-415.2" y2="5845.4"/>
<rect id="XMLID_140_" x="-869.9" y="6102.3" class="st1" width="85" height="485.3"/>
<rect id="XMLID_139_" x="-763.2" y="6033.8" class="st1" width="15" height="553.9"/>
<line id="XMLID_138_" class="st2" x1="-1091.5" y1="6189.2" x2="-1091.5" y2="6133.3"/>
<line id="XMLID_137_" class="st2" x1="-344.9" y1="6015.9" x2="-344.9" y2="5985.7"/>
<rect id="XMLID_136_" x="-678.4" y="6202.4" class="st1" width="81.1" height="10.8"/>
<rect id="XMLID_135_" x="-502.2" y="6202.4" class="st1" width="107.7" height="10.9"/>
<rect id="XMLID_134_" x="-936.9" y="5665.3" class="st1" width="20.8" height="142.9"/>
<rect id="XMLID_133_" x="-881" y="5665.3" class="st1" width="11" height="145.7"/>
<rect id="XMLID_132_" x="-829.1" y="5718.6" class="st1" width="40.1" height="89.7"/>
<rect id="XMLID_131_" x="-800.1" y="5738.6" class="st1" width="109.9" height="8.9"/>
<rect id="XMLID_130_" x="-1380.5" y="5792.8" class="st1" width="1120.3" height="385.8"/>
<line id="XMLID_129_" class="st3" x1="-121" y1="6601" x2="-1521" y2="6601"/>
<line id="XMLID_128_" class="st3" x1="-661" y1="6601" x2="-981" y2="6601"/>
<rect id="XMLID_192_" x="-128.7" y="6469.4" class="st1" width="31.6" height="118.3"/>
<rect id="XMLID_191_" x="-168.7" y="6523.8" class="st1" width="80.6" height="63.9"/>
<rect id="XMLID_190_" x="-383.6" y="6523.8" class="st1" width="153.2" height="63.9"/>
<g id="XMLID_206_">
	<g id="XMLID_221_">
		<line id="XMLID_222_" class="st0" x1="162.3" y1="5824.5" x2="162.3" y2="5886"/>
	</g>
	<line id="XMLID_220_" class="st2" x1="161.8" y1="2990.6" x2="193.5" y2="2990.6"/>
	<rect id="XMLID_219_" x="76.8" y="6257.9" class="st1" width="229.7" height="343"/>
	<rect id="XMLID_218_" x="76.8" y="6080.4" class="st1" width="259.3" height="83.4"/>
	<rect id="XMLID_217_" x="204" y="5816.1" class="st1" width="89.4" height="286.2"/>
	<rect id="XMLID_216_" x="93.3" y="5889.8" class="st1" width="177.6" height="24.7"/>
	<rect id="XMLID_215_" x="93.3" y="5997.4" class="st1" width="177.6" height="24.7"/>
	<path id="XMLID_214_" class="st1" d="M1834.8,5495"/>
	<path id="XMLID_213_" class="st1" d="M1818.7,5535.3"/>
	<rect id="XMLID_212_" x="151.4" y="5872.6" class="st1" width="23.4" height="29.6"/>
	<path id="XMLID_211_" class="st1" d="M-20,3003.1"/>
	<path id="XMLID_210_" class="st1" d="M1900,3003.1"/>
	<polyline id="XMLID_209_" class="st1" points="753.3,3013.6 753.3,2997.3 1020.2,2997.3 1020.2,3013.6 	"/>
	<polyline id="XMLID_208_" class="st1" points="240.3,3013.6 240.3,2997.3 317.7,2997.3 317.7,3013.6 	"/>
	<line id="XMLID_207_" class="st2" x1="178.6" y1="3035.4" x2="200.2" y2="3035.4"/>
</g>
<line id="XMLID_248_" class="st2" x1="1245" y1="1950.3" x2="-674.7" y2="1950.3"/>
<rect id="XMLID_1_" x="1493.6" y="2493.3" class="st1" width="20.9" height="66.5"/>
<rect id="XMLID_52_" x="1264.3" y="2071.9" class="st1" width="102.5" height="7.9"/>
<rect id="XMLID_53_" x="1288.7" y="2076.5" class="st1" width="17.5" height="19.7"/>
</svg>
