<?xml version="1.0" encoding="utf-8"?>
<!-- Generator: Adobe Illustrator 19.0.0, SVG Export Plug-In . SVG Version: 6.00 Build 0)  -->
<svg version="1.1" id="Слой_1" xmlns="http://www.w3.org/2000/svg" xmlns:xlink="http://www.w3.org/1999/xlink" x="0px" y="0px"
	 viewBox="0 -537 1920 3560" style="enable-background:new 0 -537 1920 3560;" xml:space="preserve">
<style type="text/css">
	.st0{fill:none;stroke:#DECD94;stroke-width:3;stroke-miterlimit:10;}
	.st1{fill:none;}
	.st2{fill:#DECD94;}
	.st3{fill:none;stroke:#F393BD;stroke-width:3;stroke-linecap:round;stroke-linejoin:round;stroke-miterlimit:10;}
</style>
<path id="XMLID_150_" class="st0" d="M1627.4,2503.8"/>
<path id="XMLID_149_" class="st0" d="M1630.7,2526.1"/>
<path id="XMLID_146_" class="st0" d="M1608.8,2607"/>
<line id="XMLID_137_" class="st1" x1="1550.7" y1="2438.3" x2="1550.7" y2="2408.1"/>
<g>
	<line id="XMLID_163_" class="st0" x1="1229.9" y1="2605.3" x2="1229.9" y2="2629.3"/>
	<line id="XMLID_162_" class="st0" x1="1286.9" y1="2605.3" x2="1286.9" y2="2631"/>
	<line id="XMLID_161_" class="st0" x1="1403.9" y1="2603.8" x2="1403.9" y2="2627.9"/>
	<line id="XMLID_160_" class="st0" x1="1490.9" y1="2603.8" x2="1490.9" y2="2632.4"/>
	<line id="XMLID_159_" class="st0" x1="1229.4" y1="2615.2" x2="1287.4" y2="2615.2"/>
	<line id="XMLID_158_" class="st0" x1="1403.4" y1="2616.6" x2="1490.1" y2="2616.6"/>
	<path id="XMLID_157_" class="st0" d="M54,2487c191.8-30.1,370.5-83.7,473.8-160.7"/>
	<path id="XMLID_156_" class="st0" d="M54,2284.6c159.8,88.8,326.4,2.2,484,30.3"/>
	<path id="XMLID_155_" class="st0" d="M1000.1,2075.6c10,27,35.1,44.5,62,52.7c23,7,47.4,7.9,71.4,8.1c25,0.1,50.2-0.5,74.4-6.6
		c28.7-7.2,56.2-22.5,71.8-48.4"/>
	<path id="XMLID_154_" class="st0" d="M879.6,2057.1c18.8,66.9,72.9,102.1,125.8,112.5c24.2,4.9,49,5.5,73.2,0.5
		c53.1-10.8,102.5-49.6,134.3-105.9"/>
	<path id="XMLID_153_" class="st0" d="M1420.7,2087.6"/>
	<path id="XMLID_151_" class="st0" d="M1419.4,2087.9"/>
	<path id="XMLID_148_" class="st0" d="M1262.6,2631c5.8,8.5,15.7,12.9,25.5,16.1c45.9,14.8,98.3,7.8,138.8-18.5"/>
	<path id="XMLID_147_" class="st0" d="M1090,2698.1c19.1,2.8,38.8,2.1,57.7-2.1c13.5-3,26.5-7.7,39.3-13
		c13.3-5.5,26.5-11.9,37.5-21.1c11.1-9.2,20-21.7,22.6-35.8"/>
	<path id="XMLID_145_" class="st2" d="M1494.3,2267.8"/>
	<rect id="XMLID_144_" x="1156.1" y="2184.6" class="st2" width="195.1" height="92"/>
	<rect id="XMLID_143_" x="1268" y="2075.6" class="st2" width="19.3" height="131.1"/>
	<rect id="XMLID_142_" x="1185.4" y="2049.5" class="st2" width="49.3" height="157.1"/>
	<line id="XMLID_141_" class="st1" x1="1512" y1="2267.8" x2="1480.4" y2="2267.8"/>
	<rect id="XMLID_140_" x="1025.7" y="2524.7" class="st2" width="85" height="498.8"/>
	<rect id="XMLID_139_" x="1132.4" y="2456.2" class="st2" width="15" height="567.3"/>
	<line id="XMLID_138_" class="st1" x1="804.1" y1="2611.6" x2="804.1" y2="2555.7"/>
	<rect id="XMLID_136_" x="1217.2" y="2624.8" class="st2" width="81.1" height="10.8"/>
	<rect id="XMLID_135_" x="1393.4" y="2624.8" class="st2" width="107.7" height="10.9"/>
	<rect id="XMLID_134_" x="869.2" y="2041" class="st2" width="20.8" height="204.1"/>
	<rect id="XMLID_133_" x="994.6" y="2071" class="st2" width="11" height="171.7"/>
	<rect id="XMLID_132_" x="1066.5" y="2141" class="st2" width="40.1" height="89.7"/>
	<rect id="XMLID_131_" x="1095.5" y="2161" class="st2" width="109.9" height="8.9"/>
	<rect id="XMLID_130_" x="515.1" y="2215.2" class="st2" width="1120.3" height="385.8"/>
	<line id="XMLID_129_" class="st3" x1="1774.6" y1="3023.4" x2="374.6" y2="3023.4"/>
	<line id="XMLID_128_" class="st3" x1="1234.6" y1="3023.4" x2="914.6" y2="3023.4"/>
	<rect id="XMLID_192_" x="1766.9" y="2891.8" class="st2" width="31.6" height="118.3"/>
	<rect id="XMLID_191_" x="1726.9" y="2946.2" class="st2" width="80.6" height="77.3"/>
	<rect id="XMLID_190_" x="1512" y="2946.2" class="st2" width="153.2" height="77.2"/>
	<rect id="XMLID_219_" x="0" y="2680.4" class="st2" width="229.7" height="343"/>
	<rect id="XMLID_218_" x="0" y="2502.9" class="st2" width="259.3" height="83.4"/>
	<rect id="XMLID_217_" y="2215.2" class="st2" width="89.4" height="309.5"/>
	<line id="XMLID_215_" class="st2" x1="194.1" y1="2444.6" x2="16.5" y2="2444.6"/>
	<line id="XMLID_53_" class="st2" x1="98" y1="2324.7" x2="74.6" y2="2324.7"/>
	<rect id="XMLID_1_" x="856" y="2031" class="st2" width="48" height="30.3"/>
	<rect id="XMLID_52_" x="969.2" y="2067.8" class="st2" width="61.9" height="15.7"/>
	<rect id="XMLID_54_" x="1255.7" y="2075.6" class="st2" width="48" height="15.7"/>
</g>
<rect x="194.1" y="3007.9" class="st2" width="1613.4" height="16.9"/>
</svg>
