<?xml version="1.0" encoding="utf-8"?>
<!-- Generator: Adobe Illustrator 19.0.0, SVG Export Plug-In . SVG Version: 6.00 Build 0)  -->
<svg version="1.1" id="Слой_1" xmlns="http://www.w3.org/2000/svg" xmlns:xlink="http://www.w3.org/1999/xlink" x="0px" y="0px"
	 viewBox="0 -537 1920 3560" style="enable-background:new 0 -537 1920 3560;" xml:space="preserve">
<style type="text/css">
	.st0{fill:none;stroke:#DECD94;stroke-width:3;stroke-miterlimit:10;}
	.st1{fill:#DECD94;}
	.st2{fill:#817957;}
	.st3{fill:none;}
</style>
<path id="XMLID_38_" class="st0" d="M-2386.6-4111.4c-3.5,18-7,36.1-10.4,54.1c-5.9,30.7-11.9,62-7.9,93
	c1.4,11.2,4.2,22.4,10.4,31.8c6.2,9.4,16.1,16.9,27.3,18c17,1.7,33.7-13.7,33.3-30.8"/>
<rect id="XMLID_37_" x="-2348.7" y="-4180.4" class="st1" width="163.5" height="196.7"/>
<rect id="XMLID_36_" x="-2288.8" y="-4046.4" class="st1" width="82.4" height="120.3"/>
<rect id="XMLID_35_" x="-2692.3" y="-3960.1" class="st1" width="464.4" height="5.2"/>
<rect id="XMLID_34_" x="-2356.3" y="-3957.5" class="st1" width="43.9" height="22.5"/>
<rect id="XMLID_33_" x="-4040" y="-4204.7" class="st1" width="1920" height="29.5"/>
<rect id="XMLID_32_" x="-2418" y="-4185.4" class="st1" width="113.4" height="67.2"/>
<rect id="XMLID_31_" x="-2396.8" y="-4122.3" class="st1" width="19.5" height="20.3"/>
<rect id="XMLID_30_" x="-3266.7" y="-4184.6" class="st1" width="266.9" height="23.2"/>
<rect id="XMLID_29_" x="-3779.7" y="-4184.6" class="st1" width="77.4" height="23.2"/>
<rect id="XMLID_28_" x="-3067.6" y="-4166.3" class="st1" width="30.2" height="20"/>
<path id="XMLID_78_" class="st2" d="M-1836.7-1710.3v-68h-42.9V-1897h-10v-293.4h23.4v-217.8h-23.4v-193.4h10v-144h14.8v-273.2
	h-24.9V-3886h23.4v-33h-23.4v-23.7h38.3v-57.6h27.5V-4197h-65.9h-65.2h-65.2v2487.6C-1959.1-1709.3-1897.7-1708.7-1836.7-1710.3z"/>
<path id="XMLID_92_" class="st2" d="M1920-1715.2V-4197h-130.4v34h-6.9v28.2h6.9v50.8h-21.5v214.3h21.5v217.4h-14.8v162.5h14.8
	v590.8h-14.8v42.6h-26.1v107.6h26.1v79.5h14.8v280.6H1774v155.9h15.6v159.5H1774v213.7h15.6v143.3
	C1833.4-1716.4,1876.3-1714.6,1920-1715.2z"/>
<path id="XMLID_178_" class="st1" d="M-1889.6-523.9H-2020v105.6c43.8,0,86.7,0,130.4,0V-523.9z"/>
<path id="XMLID_195_" class="st1" d="M-1964.8,2742.6v-94.2h75.2V-418.3c-43.7,0-86.6,0-130.4,0v3450.4c35,0.2,70,0.8,105-0.1v-3
	c8.5-0.5,17-0.7,25.4-0.7v-285.7L-1964.8,2742.6z"/>
<path id="XMLID_209_" class="st1" d="M-230.4-537v3540.8c43.5-0.3,87,0.5,130.4,0.5V-537H-230.4z"/>
<rect id="XMLID_175_" x="-1932.3" y="-112.9" class="st1" width="221.8" height="186.3"/>
<rect id="XMLID_174_" x="-1732.3" y="-9.3" class="st1" width="247" height="45.5"/>
<rect id="XMLID_173_" x="-1773.9" y="-358.5" class="st1" width="1120.3" height="363.9"/>
<rect id="_x3C_Фрагмент_x3E_" x="-254" y="3016" class="st3" width="6" height="7"/>
<path id="XMLID_231_" class="st0" d="M-1990.7-300.3c61.5-11.9,127.8,3.3,177.9,40.8c21.7,16.2,41.7,40,39.2,66.9"/>
<rect id="XMLID_230_" x="-1986.2" y="-320.2" class="st1" width="13.2" height="28.2"/>
<rect id="XMLID_229_" x="-1794.5" y="-203" class="st1" width="106.7" height="28.5"/>
<rect id="XMLID_233_" x="-1098.5" y="-515.5" class="st1" width="13.2" height="28.2"/>
<rect id="XMLID_232_" x="-1687.5" y="-387" class="st1" width="106.7" height="28.5"/>
<path id="XMLID_237_" class="st0" d="M-1892.6-485.3c61.5-11.9,127.8,3.3,177.9,40.8c21.7,16.2,41.7,40,39.2,66.9"/>
<rect id="XMLID_236_" x="-1117.8" y="-515.5" class="st1" width="23.6" height="28.2"/>
<rect id="XMLID_235_" x="-1696.4" y="-387" class="st1" width="106.7" height="35.2"/>
<line id="XMLID_273_" class="st3" x1="979.1" y1="1040.1" x2="979.1" y2="1254.3"/>
<line id="XMLID_495_" class="st0" x1="-3507.9" y1="772.4" x2="-3484.1" y2="772.4"/>
<line id="XMLID_456_" class="st0" x1="-3505.9" y1="781.4" x2="-3485.2" y2="781.4"/>
<line id="XMLID_455_" class="st0" x1="-3506.9" y1="794.4" x2="-3482.5" y2="794.4"/>
<line id="XMLID_454_" class="st0" x1="-3504.9" y1="807.4" x2="-3482.1" y2="807.4"/>
<line id="XMLID_453_" class="st0" x1="-3508.9" y1="821.4" x2="-3483.9" y2="821.4"/>
<line id="XMLID_452_" class="st0" x1="-3802.9" y1="553.4" x2="-3774.7" y2="553.4"/>
<line id="XMLID_451_" class="st0" x1="-3798.9" y1="594.4" x2="-3765.8" y2="594.4"/>
<line id="XMLID_450_" class="st0" x1="-3782.9" y1="554.4" x2="-3782.9" y2="595.5"/>
<path id="XMLID_449_" class="st0" d="M-3743.5,11.6c8.4,18.5,25.6,31.9,44.4,39.5c18.8,7.6,39.4,9.9,59.6,11
	c20.7,1.2,42.3,1.1,61.3-7.2c13.1-5.7,24.3-14.9,35.3-24.1c13.1-10.9,26.2-21.8,39.3-32.7"/>
<path id="XMLID_448_" class="st0" d="M-3702.8,0.1c23.1,40.5,59.3,74.3,103.1,90.1s95.3,12.2,134.1-13.6
	c31.4-20.9,52.4-53.8,72.5-85.8"/>
<path id="XMLID_447_" class="st0" d="M-3429.3,112.9c41.4,3.8,83.1-2.8,123.2-13.6c19.4-5.2,38.6-11.5,55.8-21.9
	c17.1-10.4,32.1-25.3,39.6-43.8"/>
<path id="XMLID_446_" class="st0" d="M-3426.3,134.2c84.7,8.7,172.7-23.4,231.9-84.7"/>
<path id="XMLID_445_" class="st0" d="M-3898.8,98.2c67.1,6.4,136.6-24.4,176.9-78.5"/>
<path id="XMLID_444_" class="st0" d="M-3886.7,125c90.3-1.2,179.3-42.7,238.3-111.1"/>
<path id="XMLID_443_" class="st0" d="M-3430.9,67.5c-0.3,0.9-1.8-0.1-1.4-0.9s1.5-1,2.4-1c45.8-1,91.2-16.5,128.1-43.7"/>
<path id="XMLID_442_" class="st0" d="M-3426.4,8.3c39.5,10.7,82,10.5,121.4-0.7c1.7-0.5,3.6-2.8,2-3.5"/>
<path id="XMLID_441_" class="st0" d="M-3429.3,62.2c45.1,19,98,18.8,142.9-0.5"/>
<path id="XMLID_440_" class="st0" d="M-3899.3,339.6c41.8,61.3,115.4,96.3,188.8,96c78.2-0.3,155.1-39.8,201.8-102.5"/>
<path id="XMLID_439_" class="st0" d="M-3937.6,375.2c24.5,47.4,78.8,76.2,132.1,74.9c70.4-1.7,136.3-52,161.2-117.2"/>
<path id="XMLID_438_" class="st0" d="M-3886.9,832.8c118.8,15.6,245.5-30.2,319.4-130.3"/>
<path id="XMLID_437_" class="st0" d="M-3884.2,780.7c104.5,32.7,222.6,21.9,317.6-36.3"/>
<path id="XMLID_436_" class="st0" d="M-3769.7,569.9c29.6,5.5,53.3,31.6,83.3,32.7c34.7,1.4,65.3-31.3,99.6-25.8
	c0.5,1.4,1,2.8,1.5,4.3"/>
<path id="XMLID_435_" class="st0" d="M-3769.8,583.8c21.2,2.9,37.5,19.2,54.6,32.1s40.5,23.1,59.2,12.7c5.7-3.2,10.3-8,15.3-12.2
	c14.7-12.2,33.7-19.1,52.7-19.1c4.2,0,9.9,2.3,8.6,6.3"/>
<path id="XMLID_434_" class="st0" d="M-3557.8,778.6c14,12.7,33.2,19.3,52.1,18"/>
<path id="XMLID_433_" class="st0" d="M-3565.6,746c13.7,20.8,37.9,34.4,62.8,35.3"/>
<polyline id="XMLID_432_" class="st1" points="-3806.1,-536.8 -3806.1,696.9 -3837.8,696.9 -3837.8,-536.8 "/>
<rect id="XMLID_431_" x="-3903.3" y="677.2" class="st1" width="114.9" height="25"/>
<polygon id="XMLID_430_" class="st1" points="-3186.1,275.2 -3823.7,275.2 -3823.7,349.8 -3435.7,349.8 -3435.7,339.7 
	-3265.5,339.7 -3265.5,349.8 -3186.1,349.8 "/>
<polyline id="XMLID_429_" class="st1" points="-3874.4,991.6 -3874.4,761.9 -3903.3,761.9 -3903.3,991.6 "/>
<rect id="XMLID_428_" x="-3887.1" y="804.5" class="st1" width="38.9" height="107.6"/>
<rect id="XMLID_427_" x="-3818.8" y="532.6" class="st1" width="24.9" height="87"/>
<rect id="XMLID_426_" x="-3814.3" y="105.2" class="st1" width="15" height="92"/>
<rect id="XMLID_425_" x="-3652.5" y="-29.8" class="st1" width="26.3" height="337.4"/>
<rect id="XMLID_424_" x="-3559.9" y="-35.7" class="st1" width="20" height="340.9"/>
<rect id="XMLID_423_" x="-3446" y="-27.2" class="st1" width="33" height="345.8"/>
<rect id="XMLID_422_" x="-3514.9" y="-35.7" class="st1" width="14.2" height="330.6"/>
<rect id="XMLID_421_" x="-3321" y="-29.8" class="st1" width="130.1" height="125.2"/>
<rect id="XMLID_420_" x="-3923.3" y="-423.1" class="st1" width="55.6" height="214.3"/>
<rect id="XMLID_419_" x="-3916.1" y="8.6" class="st1" width="41.8" height="162.5"/>
<rect id="XMLID_418_" x="-3823.7" y="-277.8" class="st1" width="98.9" height="42.4"/>
<line id="XMLID_417_" class="st3" x1="-3257" y1="957.8" x2="-3912.3" y2="957.8"/>
<polyline id="XMLID_416_" class="st1" points="-3583.2,1010.9 -3583.2,330.4 -3547.9,330.4 -3547.9,1010.9 "/>
<polyline id="XMLID_415_" class="st1" points="-3488.1,1005.4 -3488.1,330.4 -3466.4,330.4 -3466.4,1005.4 "/>
<polyline id="XMLID_414_" class="st1" points="-2816.7,237.9 -3426.3,237.9 -3426.3,219.6 -2816.7,219.6 "/>
<polyline id="XMLID_413_" class="st1" points="-2810.9,303 -3234.4,303 -3234.4,282.3 -2810.9,282.3 "/>
<rect id="XMLID_412_" x="-3421.1" y="137.5" class="st1" width="19.5" height="74.4"/>
<rect id="XMLID_411_" x="-3277.4" y="63.4" class="st1" width="9.5" height="252.9"/>
<polyline id="XMLID_410_" class="st1" points="-2815.2,261.9 -3427,261.9 -3427,249.4 -2815.2,249.4 "/>
<rect id="XMLID_409_" x="-3777.9" y="547.8" class="st1" width="12.1" height="56.6"/>
<rect id="XMLID_408_" x="-3514.8" y="765.7" class="st1" width="13.4" height="64.4"/>
<polyline id="XMLID_407_" class="st1" points="-3799.3,-492 -3799.3,-375.2 -3820.9,-375.2 -3820.9,-492 "/>
<rect id="XMLID_406_" x="-3141.5" y="-384.8" class="st1" width="39.6" height="14.2"/>
<rect id="XMLID_405_" x="-3073.7" y="-384.8" class="st1" width="31.2" height="23.6"/>
<rect id="XMLID_404_" x="-2973.3" y="-384.8" class="st1" width="30.2" height="23.6"/>
<polyline id="XMLID_403_" class="st1" points="-3371.6,439.2 -3371.6,324.4 -3238.9,324.4 -3238.9,439.2 "/>
<rect id="XMLID_402_" x="-3593.4" y="549.5" class="st1" width="18.1" height="66.1"/>
<line id="XMLID_607_" class="st0" x1="1798" y1="-146.1" x2="1816" y2="-146.1"/>
<line id="XMLID_606_" class="st0" x1="1796.7" y1="-109.5" x2="1814.7" y2="-109.5"/>
<line id="XMLID_605_" class="st0" x1="1798" y1="-114.8" x2="1814.7" y2="-114.8"/>
<line id="XMLID_604_" class="st0" x1="1683.5" y1="147" x2="1683.5" y2="175.7"/>
<line id="XMLID_603_" class="st0" x1="1715.5" y1="149.7" x2="1715.5" y2="176.3"/>
<line id="XMLID_602_" class="st0" x1="1710.2" y1="149" x2="1710.2" y2="175"/>
<line id="XMLID_601_" class="st0" x1="1428.9" y1="-318.3" x2="1428.9" y2="-304.3"/>
<line id="XMLID_600_" class="st0" x1="1459.5" y1="-317.7" x2="1459.5" y2="-304.3"/>
<line id="XMLID_599_" class="st0" x1="1734.2" y1="407.3" x2="1764.3" y2="407.3"/>
<line id="XMLID_598_" class="st0" x1="1733.2" y1="446.3" x2="1766.2" y2="446.3"/>
<line id="XMLID_597_" class="st0" x1="1735.2" y1="423.3" x2="1759.3" y2="423.3"/>
<line id="XMLID_596_" class="st0" x1="1734.2" y1="429.3" x2="1765.3" y2="429.3"/>
<line id="XMLID_595_" class="st0" x1="1458.2" y1="645.3" x2="1495.4" y2="645.3"/>
<line id="XMLID_594_" class="st0" x1="1461.2" y1="650.3" x2="1491.8" y2="650.3"/>
<line id="XMLID_593_" class="st0" x1="1461.2" y1="676.3" x2="1494.3" y2="676.3"/>
<line id="XMLID_592_" class="st0" x1="1464.2" y1="670.3" x2="1492.2" y2="670.3"/>
<line id="XMLID_591_" class="st0" x1="1735.2" y1="984.3" x2="1765.2" y2="984.3"/>
<line id="XMLID_590_" class="st0" x1="1736.2" y1="1001.3" x2="1763.2" y2="1001.3"/>
<line id="XMLID_589_" class="st0" x1="1347.2" y1="1128.3" x2="1347.2" y2="1161.4"/>
<line id="XMLID_588_" class="st0" x1="1380.2" y1="1127.3" x2="1380.2" y2="1159.4"/>
<line id="XMLID_587_" class="st0" x1="1374.2" y1="1129.3" x2="1374.2" y2="1165.3"/>
<path id="XMLID_586_" class="st0" d="M1327.9-203.4c132.6,129.8,321.2,149,468.8,58.8"/>
<path id="XMLID_585_" class="st0" d="M1367.1-203.4c55.5,57.8,130.3,95.5,208.8,106.3c24.7,3.5,49.9,4.2,74.9,4.8
	c50.9,1.2,105.4,0.6,147.2-29"/>
<path id="XMLID_584_" class="st0" d="M1367.1-50.5c53,11.3,108,13.9,161.8,7.5"/>
<path id="XMLID_583_" class="st0" d="M1368.1-36.7c51.4,27.2,115.1,29.9,168.7,7.2"/>
<path id="XMLID_582_" class="st0" d="M1614.2-301.6c2.3,9.1,6.9,18.2,17,25.8c10.1,7.6,26.3,13.7,44.6,14.6
	c27.8,1.4,55.1-11.1,54.5-25"/>
<path id="XMLID_581_" class="st0" d="M1628.9-458.1"/>
<path id="XMLID_580_" class="st0" d="M708.5,407c15,30.8,40.6,56.8,72.1,70.2s68.9,13.5,99.6-1.7c35.2-17.4,60.3-55.3,57.8-95.1"/>
<path id="XMLID_579_" class="st0" d="M746.3,413c-1.4,6.4,2.7,11,6.5,13.6c9,6.2,18.9,10.5,29.2,12.9c11.7,2.6,24.1,2.6,36.3-3.1
	c8.7-3.9,16.9-10.6,25-17.1c9.6-7.8,19.2-15.4,28.8-23.2"/>
<path id="XMLID_578_" class="st0" d="M1069.7,407.1c0,11.2,7.9,20.9,16.9,27.5c16.6,12.1,38.4,16.9,58.5,12.8
	c20.2-4,38.4-16.8,49.1-34.4"/>
<path id="XMLID_577_" class="st0" d="M1449,621.1c46.3,11.9,95.3,13,142.1,3.1c25-5.3,50.4-14.3,67.6-33.2"/>
<path id="XMLID_576_" class="st0" d="M1654.7,584.5c21.2-37.8,46.8-59.1,72.8-68.6c26-9.5,52.4-7.4,78.5-1.8"/>
<path id="XMLID_575_" class="st0" d="M1452.8,456.7c44,37.4,103.4,53.9,161.1,52.6S1728,490,1780,464.9"/>
<path id="XMLID_574_" class="st0" d="M1222.9,361.6c11.4,2,23.5,4.1,34.4,0.1c12.8-4.7,21.4-16.6,32.8-24.1
	c33.9-22.3,94-3.7,76.5,80.8"/>
<path id="XMLID_573_" class="st0" d="M1707.3,176.1c-5.3,46.4,18.3,94.9,58.1,119.3c0.5,0.3,1.3,0.7,1.8,0.3s-0.3-1.4-0.6-0.8"/>
<path id="XMLID_572_" class="st0" d="M1693.1,177.5c-3.6,30.7-1,62.6,11.5,91c12.4,28.3,35.4,52.7,64.5,63.1"/>
<path id="XMLID_571_" class="st0" d="M1451.5,592.6c58.6,44.5,134.8,65,207.8,55.9"/>
<path id="XMLID_570_" class="st0" d="M1389.3,958.9c41.6-3,83.5-1,124.6,5.9c73.4,12.4,147.7,40.7,220.3,24.1"/>
<path id="XMLID_569_" class="st0" d="M1448.7,996.4c42.8-3.1,81.1,18.4,122.3,25.2c35.7,5.8,73.7-0.1,104.3-19.3
	s52.9-52.3,56.2-88.3"/>
<path id="XMLID_568_" class="st0" d="M1202.9,1137.6c11.3,25.4,35.1,44.9,62.3,50.7c8.3,1.8,16.9,2.4,25.4,2.4
	c15.5,0.1,31.2-1.7,45.5-7.5s27.3-15.9,34.5-29.6"/>
<path id="XMLID_567_" class="st0" d="M1379.7,1163.5c16.9,20.2,45,27.4,71.3,27.6c46.6,0.3,91.1-17.8,135.5-32.2
	c44.4-14.4,92.9-25.1,137.1-10.3"/>
<path id="XMLID_566_" class="st0" d="M1234.8,223.3c19.3,5,40.5-4.7,52.5-20.6c12.1-15.9,16-36.7,14.9-56.6"/>
<path id="XMLID_565_" class="st0" d="M1369.7,69.9c7,41,44.2,71.4,84.2,74.6c2.2,0.2,4.6,0.3,6.5,1.5s3.2,3.7,2.2,5.7"/>
<path id="XMLID_564_" class="st0" d="M1452.8,607.2c-22.7,6.7-46.3,12-70,11c-63.2-2.7-128.4-56-26.9-188.7"/>
<rect id="XMLID_563_" x="1693.2" y="651.1" class="st1" width="148.4" height="273.2"/>
<rect id="XMLID_562_" x="1691.2" y="50.9" class="st1" width="149.2" height="59.9"/>
<rect id="XMLID_561_" x="1726.7" y="-393.2" class="st1" width="82.4" height="120.3"/>
<rect id="XMLID_560_" x="1758.7" y="207.4" class="st1" width="64" height="314"/>
<rect id="XMLID_559_" x="1755" y="856.4" class="st1" width="43.2" height="211.9"/>
<rect id="XMLID_558_" x="1621.2" y="770.8" class="st1" width="81.7" height="98.9"/>
<polyline id="XMLID_557_" class="st1" points="1655.2,1271.8 1655.2,834.3 1668.2,834.3 1668.2,1271.8 "/>
<rect id="XMLID_556_" x="1712" y="1119.2" class="st1" width="80.6" height="59.5"/>
<polyline id="XMLID_555_" class="st1" points="1323.2,-301.6 1323.2,-306.9 1787.6,-306.9 1787.6,-301.6 "/>
<rect id="XMLID_554_" x="1749.1" y="264" class="st1" width="34.5" height="95.9"/>
<polyline id="XMLID_553_" class="st1" points="1441.5,1222.3 1441.5,407.3 1464.1,407.3 1464.1,1222.3 "/>
<rect id="XMLID_552_" x="1650.3" y="413.3" class="st1" width="18" height="387.9"/>
<rect id="XMLID_551_" x="1151.4" y="-26.9" class="st1" width="32.7" height="442.4"/>
<rect id="XMLID_550_" x="1173.8" y="180.2" class="st1" width="72.1" height="233.1"/>
<rect id="XMLID_549_" x="1234.3" y="335" class="st1" width="17.8" height="46"/>
<rect id="XMLID_548_" x="1231.6" y="207.4" class="st1" width="20.4" height="78.7"/>
<rect id="XMLID_547_" x="1215.2" y="-7.3" class="st1" width="16.4" height="214.6"/>
<rect id="XMLID_546_" x="1228.1" y="46" class="st1" width="555.5" height="7.3"/>
<rect id="XMLID_545_" x="1222.9" y="62.2" class="st1" width="488" height="8"/>
<rect id="XMLID_544_" x="1224" y="138.4" class="st1" width="574.2" height="16"/>
<line id="XMLID_543_" class="st3" x1="1178.3" y1="228.5" x2="1178.3" y2="246.7"/>
<line id="XMLID_542_" class="st3" x1="1184.1" y1="291.1" x2="1184.1" y2="311.9"/>
<rect id="XMLID_541_" x="676.2" y="376.8" class="st1" width="523.9" height="38.7"/>
<line id="XMLID_540_" class="st3" x1="1179.8" y1="258.3" x2="1179.8" y2="270.8"/>
<rect id="XMLID_539_" x="1728.2" y="977.2" class="st1" width="13.4" height="31.7"/>
<rect id="XMLID_538_" x="1338.2" y="1151.8" class="st1" width="49.8" height="14.8"/>
<rect id="XMLID_537_" x="1483.7" y="641.9" class="st1" width="15.2" height="41.4"/>
<rect id="XMLID_536_" x="1728.2" y="402" class="st1" width="13.4" height="50.4"/>
<rect id="XMLID_535_" x="1678.9" y="170" class="st1" width="40.3" height="10.6"/>
<rect id="XMLID_534_" x="1794.9" y="-151" class="st1" width="6" height="45.8"/>
<rect id="XMLID_307_" x="1790.9" y="-249.2" class="st1" width="29.7" height="33"/>
<rect id="XMLID_306_" x="1314.5" y="-249.2" class="st1" width="95" height="49.2"/>
<rect id="XMLID_305_" x="1387.1" y="-304.3" class="st1" width="6.5" height="60.4"/>
<rect id="XMLID_304_" x="1422.9" y="-323.7" class="st1" width="43.3" height="10.1"/>
<rect id="XMLID_303_" x="1562.9" y="-237.1" class="st1" width="256.5" height="16.1"/>
<rect id="XMLID_302_" x="1334.6" y="-58.3" class="st1" width="47.6" height="44.3"/>
<rect id="XMLID_301_" x="1522.9" y="-58.3" class="st1" width="31.6" height="44.3"/>
<rect id="XMLID_299_" x="1334.6" y="-318.6" class="st1" width="22.6" height="25.6"/>
<rect id="XMLID_298_" x="1185.8" y="1124.6" class="st1" width="36" height="21.7"/>
<polyline id="XMLID_297_" class="st1" points="707.7,1000.5 1267.2,1000.5 1267.2,921.5 707.7,921.5 "/>
<rect id="XMLID_296_" x="1253.8" y="941.9" class="st1" width="206.1" height="24.5"/>
<line id="XMLID_295_" class="st3" x1="756.2" y1="448.1" x2="623.5" y2="448.1"/>
<rect id="XMLID_294_" x="1139.2" y="402" class="st1" width="596" height="31.7"/>
<rect id="XMLID_293_" x="1136.2" y="1116.9" class="st1" width="525.5" height="12.4"/>
<rect id="XMLID_292_" x="1548.7" y="-304.3" class="st1" width="20.8" height="352.4"/>
</svg>
