<?xml version="1.0" encoding="utf-8"?>
<!-- Generator: Adobe Illustrator 19.0.0, SVG Export Plug-In . SVG Version: 6.00 Build 0)  -->
<svg version="1.1" id="Слой_1" xmlns="http://www.w3.org/2000/svg" xmlns:xlink="http://www.w3.org/1999/xlink" x="0px" y="0px"
	 viewBox="0 221 1920 3560" style="enable-background:new 0 221 1920 3560;" xml:space="preserve">
<style type="text/css">
	.st0{fill:none;stroke:#F393BD;stroke-width:3;stroke-linecap:round;stroke-linejoin:round;stroke-miterlimit:10;}
	.st1{fill:#DECD94;}
	.st2{fill:none;}
	.st3{fill:none;stroke:#DECD94;stroke-width:3;stroke-miterlimit:10;}
</style>
<path id="XMLID_2_" class="st0" d="M-1940,3410.4"/>
<path id="XMLID_55_" class="st0" d="M-1940-589.6"/>
<g>
	<polyline id="XMLID_275_" class="st1" points="1920,2352.4 0.4,2352.4 0.4,2371.4 1920,2371.4 	"/>
	<polyline id="_x3C_Фрагмент_x3E__3_" class="st2" points="-947.2,1956.8 -956.5,1956.8 -956.5,1911.8 -947.2,1911.8 	"/>
	<line id="XMLID_114_" class="st3" x1="1681.2" y1="2485.3" x2="1710.6" y2="2485.3"/>
	<line id="XMLID_113_" class="st3" x1="1682.2" y1="2532.3" x2="1714.6" y2="2532.3"/>
	<line id="XMLID_112_" class="st3" x1="1687.2" y1="2508.3" x2="1705.2" y2="2508.3"/>
	<line id="XMLID_111_" class="st3" x1="1684.2" y1="2502.3" x2="1711.2" y2="2502.3"/>
	<line id="XMLID_110_" class="st3" x1="1738.2" y1="3425.4" x2="1768.8" y2="3425.4"/>
	<line id="XMLID_109_" class="st3" x1="1739.7" y1="3470.4" x2="1774.3" y2="3470.4"/>
	<line id="XMLID_108_" class="st3" x1="1754.9" y1="3425.9" x2="1754.9" y2="3470.7"/>
	<path id="XMLID_107_" class="st3" d="M1457.5,2033.4c-1,13.7,7.6,27.5,20.3,32.6c12.7,5.1,28.5,1.2,37.3-9.3
		c3.8-4.5,6.3-10,8.7-15.4c2.2-4.9,4.5-10,4.1-15.4"/>
	<path id="XMLID_106_" class="st3" d="M1516.7,2035.1c2.4,10.7,11.6,18.6,21.3,23.6c18.9,9.8,41.6,11.5,62.3,6.3
		c20.7-5.3,39.4-17.2,54.2-32.6"/>
	<path id="XMLID_105_" class="st3" d="M1512.8,2034.7c10.7,36.1,50.9,59.2,88.4,55c37.4-4.2,69.9-32.3,84.4-67.1"/>
	<path id="XMLID_104_" class="st3" d="M1399.2,2083.1c27.7,2.7,55.5-19.2,59.3-46.8"/>
	<path id="XMLID_103_" class="st3" d="M1297.6,2859.6c37.5,50,100.7,79.8,163.2,76.8"/>
	<path id="XMLID_102_" class="st3" d="M1296.3,2859.9c15.1,35,34.9,74.2,70.7,90.1"/>
	<path id="XMLID_101_" class="st3" d="M1469.8,2934c83.1-9.9,146.4-129.3,26.3-201.4"/>
	<path id="XMLID_100_" class="st3" d="M1504.3,3275.8c91.8,4.3,184.8-30.7,250.9-94.5"/>
	<path id="XMLID_99_" class="st3" d="M1507.6,3298.1c57.4,17.1,119-2.3,174.5-24.8c34-13.8,70.9-32.2,83.4-66.7"/>
	<path id="XMLID_98_" class="st3" d="M1535.6,3373c55.2,54,137.1,79.3,213.1,65.9"/>
	<path id="XMLID_97_" class="st3" d="M1563.5,3352.9c6.6,12.2,13.4,24.6,23.4,34.1c10.2,9.8,23.2,16.1,36.3,21.4
		c39.3,16,81.6,24.6,124,25.2"/>
	<path id="XMLID_96_" class="st3" d="M1485.6,3379c33.5,35.2,77.4,59.7,123.8,74s95.5,18.7,144.1,17.3"/>
	<path id="XMLID_95_" class="st3" d="M1275.3,2360.6c41.9,70.6,126.4,106,207.9,108.3c78.8,2.2,155.9-22.3,229.5-50.6
		c32-12.3,65.2-26.5,85.8-53.9"/>
	<path id="XMLID_94_" class="st3" d="M1465.7,2360.8c35.4,87.8,123.9,151.6,218.4,157.4"/>
	<path id="XMLID_93_" class="st3" d="M1711.3,2516.8c14.2-1,28.7-2,42.4,1.4c15.5,3.9,29.1,13.2,44.8,16.2"/>
	<path id="XMLID_92_" class="st3" d="M1712.7,2503.4c31.5-0.7,63-1.4,94.5-2"/>
	<path id="XMLID_91_" class="st3" d="M1708.2,2490.3c27.3-12,55-24.5,79.7-45.5c23-19.5,43.2-46.5,58.4-78.5"/>
	<path id="XMLID_90_" class="st3" d="M1709.8,2529.2c37.4,6.3,70.9,32.3,86.3,66.9"/>
	<path id="XMLID_89_" class="st3" d="M1491.7,2730.5c62.6,30.9,140.2,29.4,201.7-3.8"/>
	<polyline id="XMLID_88_" class="st1" points="1846.3,2689.4 1651.5,2689.4 1651.5,3239.8 1846.3,3239.8 1846.3,2689.4 	"/>
	<polyline id="XMLID_87_" class="st1" points="1830.2,2729.7 1830.2,2604.6 1728.2,2604.6 1728.2,2729.7 1830.2,2729.7 	"/>
	<rect id="XMLID_86_" x="1152.2" y="1938.6" class="st1" width="647.4" height="95.1"/>
	<rect id="XMLID_85_" x="1407.2" y="1924" class="st1" width="104.3" height="23.7"/>
	<rect id="XMLID_84_" x="1539.3" y="1924" class="st1" width="104.3" height="23.7"/>
	<rect id="XMLID_83_" x="1757.6" y="1938.6" class="st1" width="51" height="312.9"/>
	<rect id="XMLID_82_" x="1771" y="2485.8" class="st1" width="37.6" height="137.8"/>
	<rect id="XMLID_81_" x="1757.6" y="3204.2" class="st1" width="51" height="358.9"/>
	<rect id="XMLID_80_" x="1683.4" y="3216.5" class="st1" width="107.3" height="37.6"/>
	<polyline id="XMLID_79_" class="st1" points="1371.1,3039.8 1703.2,3039.8 1703.2,2917.5 1371.1,2917.5 1371.1,3039.8 	"/>
	<polyline id="XMLID_78_" class="st1" points="1357.2,3039.8 1357.2,2357.8 1388.9,2357.8 1388.9,3039.8 	"/>
	<rect id="XMLID_77_" x="1488.1" y="2356.8" class="st1" width="17.5" height="588.9"/>
	<rect id="XMLID_76_" x="1677.7" y="2357.8" class="st1" width="11.4" height="363.9"/>
	<line id="XMLID_75_" class="st2" x1="1684.2" y1="1984.7" x2="1671.2" y2="1984.7"/>
	<rect id="XMLID_74_" x="1615.5" y="2008.9" class="st1" width="93.7" height="38.9"/>
	<line id="XMLID_73_" class="st2" x1="1480" y1="1935.3" x2="1457.5" y2="1935.3"/>
	<polyline id="XMLID_72_" class="st1" points="680.9,3327.7 1783.1,3327.7 1783.1,3383.6 680.9,3383.6 	"/>
	<polyline id="XMLID_71_" class="st1" points="1427.5,3180.1 1703.2,3180.1 1703.2,3210.3 1427.5,3210.3 	"/>
	<rect id="XMLID_70_" x="1378" y="2014.6" class="st1" width="34.1" height="343.2"/>
	<rect id="XMLID_69_" x="1728" y="3415.3" class="st1" width="20.9" height="66.5"/>
	<rect id="XMLID_68_" x="1703.2" y="2477.4" class="st1" width="14" height="63.6"/>
	<rect id="XMLID_67_" x="1504.6" y="2026.6" class="st1" width="27.2" height="21.1"/>
	<rect id="XMLID_66_" x="1445.4" y="2026.6" class="st1" width="23.4" height="21.1"/>
	<rect id="XMLID_65_" x="1154.5" y="2366.3" class="st1" width="94.7" height="33.7"/>
	<line id="XMLID_248_" class="st2" x1="1245.2" y1="2718.2" x2="-674.5" y2="2718.2"/>
	<rect id="XMLID_1_" x="1493.8" y="3261.2" class="st1" width="20.9" height="66.5"/>
	<rect id="XMLID_52_" x="1264.5" y="2839.8" class="st1" width="102.5" height="7.9"/>
	<rect id="XMLID_53_" x="1288.9" y="2844.4" class="st1" width="17.5" height="19.7"/>
</g>
</svg>
