<?xml version="1.0" encoding="utf-8"?>
<!-- Generator: Adobe Illustrator 19.0.0, SVG Export Plug-In . SVG Version: 6.00 Build 0)  -->
<svg version="1.1" id="Слой_1" xmlns="http://www.w3.org/2000/svg" xmlns:xlink="http://www.w3.org/1999/xlink" x="0px" y="0px"
	 viewBox="0 0 1920 3560" style="enable-background:new 0 0 1920 3560;" xml:space="preserve">
<style type="text/css">
	.st0{fill:none;stroke:#DECD94;stroke-width:3;stroke-miterlimit:10;}
	.st1{fill:#DECD94;}
	.st2{fill:#817957;}
	.st3{fill:none;}
</style>
<path id="XMLID_38_" class="st0" d="M1653.4,85.6c-3.5,18-7,36.1-10.4,54.1c-5.9,30.7-11.9,62-7.9,93c1.4,11.2,4.2,22.4,10.4,31.8
	c6.2,9.4,16.1,16.9,27.3,18c17,1.7,33.7-13.7,33.3-30.8"/>
<rect id="XMLID_37_" x="1691.3" y="16.6" class="st1" width="163.5" height="196.7"/>
<rect id="XMLID_36_" x="1751.2" y="150.6" class="st1" width="82.4" height="120.3"/>
<rect id="XMLID_35_" x="1347.7" y="236.9" class="st1" width="464.4" height="5.2"/>
<rect id="XMLID_34_" x="1683.7" y="239.5" class="st1" width="43.9" height="22.5"/>
<rect id="XMLID_33_" x="0" y="-5" class="st1" width="1920" height="26.9"/>
<rect id="XMLID_32_" x="1622" y="11.6" class="st1" width="113.4" height="67.2"/>
<rect id="XMLID_31_" x="1643.2" y="74.7" class="st1" width="19.5" height="20.3"/>
<rect id="XMLID_30_" x="773.3" y="12.4" class="st1" width="266.9" height="23.2"/>
<rect id="XMLID_29_" x="260.3" y="12.4" class="st1" width="77.4" height="23.2"/>
<rect id="XMLID_28_" x="972.4" y="30.7" class="st1" width="30.2" height="20"/>
<path id="XMLID_78_" class="st2" d="M2203.3,2486.7v-68h-42.9V2300h-10v-293.4h23.4v-217.8h-23.4v-193.4h10v-144h14.8v-273.2h-24.9
	V310.9h23.4v-33h-23.4v-23.7h38.3v-57.6h27.5V0h-65.9h-65.2H2020v2487.6C2080.9,2487.7,2142.3,2488.3,2203.3,2486.7z"/>
<path id="XMLID_92_" class="st2" d="M5960,2481.8V0h-130.4v34h-6.9v28.2h6.9v50.8h-21.5v214.3h21.5v217.4h-14.8v162.5h14.8v590.8
	h-14.8v42.6h-26.1v107.6h26.1v79.5h14.8v280.6H5814v155.9h15.6v159.5H5814v213.7h15.6v143.3
	C5873.4,2480.6,5916.3,2482.4,5960,2481.8z"/>
<path id="XMLID_178_" class="st1" d="M2150.4,3660H2020v105.6c43.8,0,86.7,0,130.4,0V3660z"/>
<path id="XMLID_195_" class="st1" d="M2075.2,6926.5v-94.2l75.2,0V3765.6c-43.7,0-86.6,0-130.4,0v3450.4c35,0.2,70,0.8,105-0.1v-3
	c8.5-0.5,17-0.7,25.4-0.7v-285.7L2075.2,6926.5z"/>
<path id="XMLID_209_" class="st1" d="M3809.6,3660v3540.8c43.5-0.3,87,0.5,130.4,0.5V3660H3809.6z"/>
<rect id="XMLID_175_" x="2107.7" y="4071" class="st1" width="221.8" height="186.3"/>
<rect id="XMLID_174_" x="2307.7" y="4174.6" class="st1" width="247" height="45.5"/>
<rect id="XMLID_173_" x="2266.1" y="3825.4" class="st1" width="1120.3" height="363.9"/>
<rect id="_x3C_Фрагмент_x3E_" x="3786" y="7213" class="st3" width="6" height="7"/>
<path id="XMLID_231_" class="st0" d="M2049.3,3883.6c61.5-11.9,127.8,3.3,177.9,40.8c21.7,16.2,41.7,40,39.2,66.9"/>
<rect id="XMLID_230_" x="2053.8" y="3863.7" class="st1" width="13.2" height="28.2"/>
<rect id="XMLID_229_" x="2245.5" y="3980.9" class="st1" width="106.7" height="28.5"/>
<rect id="XMLID_233_" x="2160.8" y="3679.8" class="st1" width="13.2" height="28.2"/>
<rect id="XMLID_232_" x="2352.5" y="3796.9" class="st1" width="106.7" height="28.5"/>
<path id="XMLID_237_" class="st0" d="M2147.4,3698.6c61.5-11.9,127.8,3.3,177.9,40.8c21.7,16.2,41.7,40,39.2,66.9"/>
<rect id="XMLID_236_" x="2141.5" y="3679.8" class="st1" width="23.6" height="28.2"/>
<rect id="XMLID_235_" x="2343.6" y="3796.9" class="st1" width="106.7" height="35.2"/>
</svg>
