<?xml version="1.0" encoding="utf-8"?>
<!-- Generator: Adobe Illustrator 19.0.0, SVG Export Plug-In . SVG Version: 6.00 Build 0)  -->
<svg version="1.1" id="Слой_1" xmlns="http://www.w3.org/2000/svg" xmlns:xlink="http://www.w3.org/1999/xlink" x="0px" y="0px"
	 viewBox="0 221 1920 3560" style="enable-background:new 0 221 1920 3560;" xml:space="preserve">
<style type="text/css">
	.st0{fill:#817957;}
	.st1{fill:none;}
	.st2{fill:none;stroke:#DECD94;stroke-width:3;stroke-miterlimit:10;}
	.st3{fill:#DECD94;}
</style>
<path id="XMLID_92_" class="st0" d="M5960-1494.2V-3976h-130.4v34h-6.9v28.2h6.9v50.8h-21.5v214.3h21.5v217.4h-14.8v162.5h14.8
	v590.8h-14.8v42.6h-26.1v107.6h26.1v79.5h14.8v280.6H5814v155.9h15.6v159.5H5814v213.7h15.6v143.3
	C5873.4-1495.4,5916.3-1493.6,5960-1494.2z"/>
<line id="XMLID_273_" class="st1" x1="5019.1" y1="1261.1" x2="5019.1" y2="1475.3"/>
<line id="XMLID_495_" class="st2" x1="483.8" y1="1547.3" x2="507.6" y2="1547.3"/>
<line id="XMLID_456_" class="st2" x1="485.8" y1="1556.3" x2="506.5" y2="1556.3"/>
<line id="XMLID_455_" class="st2" x1="484.8" y1="1569.3" x2="509.2" y2="1569.3"/>
<line id="XMLID_454_" class="st2" x1="486.8" y1="1582.3" x2="509.6" y2="1582.3"/>
<line id="XMLID_453_" class="st2" x1="482.8" y1="1596.3" x2="507.8" y2="1596.3"/>
<line id="XMLID_452_" class="st2" x1="188.8" y1="1328.3" x2="217" y2="1328.3"/>
<line id="XMLID_451_" class="st2" x1="192.8" y1="1369.3" x2="225.9" y2="1369.3"/>
<line id="XMLID_450_" class="st2" x1="208.8" y1="1329.3" x2="208.8" y2="1370.4"/>
<path id="XMLID_449_" class="st2" d="M227.2,735.4c4.4,21.8,16.7,38.7,31,49.1c14.3,10.4,30.8,14.9,47.1,18.1
	c16.7,3.3,34.3,5.2,50.8-2.5c11.4-5.3,21.7-14.7,31.9-24.1c12.1-11.2,24.2-22.3,36.3-33.5"/>
<path id="XMLID_448_" class="st2" d="M283.7,746.3c25.1,52.2,64.4,95.7,112,116s103.5,15.8,145.6-17.4c34.2-27,57-69.3,78.8-110.5"
	/>
<path id="XMLID_447_" class="st2" d="M562.4,887.8c41.4,3.8,83.1-2.8,123.2-13.6c19.4-5.2,38.6-11.5,55.8-21.9
	c17.1-10.4,32.1-25.3,39.6-43.8"/>
<path id="XMLID_446_" class="st2" d="M565.4,909.1c84.7,8.7,172.7-23.4,231.9-84.7"/>
<path id="XMLID_445_" class="st2" d="M92.9,872.6C181.2,883,272.7,833,325.7,745.1"/>
<path id="XMLID_444_" class="st2" d="M105,899.9c90.3-1.2,179.3-42.7,238.3-111.1"/>
<path id="XMLID_443_" class="st2" d="M560.8,842.4c-0.3,0.9-1.8-0.1-1.4-0.9c0.4-0.8,1.5-1,2.4-1c45.8-1,91.2-16.5,128.1-43.7"/>
<path id="XMLID_442_" class="st2" d="M565.3,783.2c39.5,10.7,82,10.5,121.4-0.7c1.7-0.5,3.6-2.8,2-3.5"/>
<path id="XMLID_441_" class="st2" d="M562.4,837.1c45.1,19,98,18.8,142.9-0.5"/>
<path id="XMLID_440_" class="st2" d="M36.7,1114.5c47.8,61.3,131.9,96.3,215.7,96c89.4-0.3,177.2-39.8,230.6-102.5"/>
<path id="XMLID_439_" class="st2" d="M36.7,1150.1c26,47.4,83.5,76.2,139.9,74.9c74.6-1.7,144.4-52,170.8-117.2"/>
<path id="XMLID_438_" class="st2" d="M104.8,1607.7c118.8,15.6,245.5-30.2,319.4-130.3"/>
<path id="XMLID_437_" class="st2" d="M107.5,1555.6c104.5,32.7,222.6,21.9,317.6-36.3"/>
<path id="XMLID_436_" class="st2" d="M222,1344.8c29.6,5.5,53.3,31.6,83.3,32.7c34.7,1.4,65.3-31.3,99.6-25.8c0.5,1.4,1,2.8,1.5,4.3
	"/>
<path id="XMLID_435_" class="st2" d="M221.9,1358.7c21.2,2.9,37.5,19.2,54.6,32.1c17.1,12.9,40.5,23.1,59.2,12.7
	c5.7-3.2,10.3-8,15.3-12.2c14.7-12.2,33.7-19.1,52.7-19.1c4.2,0,9.9,2.3,8.6,6.3"/>
<path id="XMLID_434_" class="st2" d="M433.9,1553.5c14,12.7,33.2,19.3,52.1,18"/>
<path id="XMLID_433_" class="st2" d="M426.1,1520.9c13.7,20.8,37.9,34.4,62.8,35.3"/>
<polyline id="XMLID_432_" class="st3" points="185.6,238.1 185.6,1471.8 153.9,1471.8 153.9,238.1 "/>
<rect id="XMLID_431_" x="8.6" y="1452.1" class="st3" width="194.7" height="25"/>
<polygon id="XMLID_430_" class="st3" points="805.6,1050.1 168,1050.1 168,1124.7 556,1124.7 556,1114.6 726.2,1114.6 726.2,1124.7 
	805.6,1124.7 "/>
<polyline id="XMLID_429_" class="st3" points="111.2,1766.5 111.2,1536.8 43.9,1536.8 43.9,1766.5 "/>
<rect id="XMLID_428_" x="104.6" y="1579.4" class="st3" width="38.9" height="107.6"/>
<rect id="XMLID_427_" x="172.9" y="1307.5" class="st3" width="24.9" height="87"/>
<rect id="XMLID_426_" x="177.4" y="880.1" class="st3" width="15" height="92"/>
<rect id="XMLID_425_" x="339.2" y="740.3" class="st3" width="26.3" height="342.2"/>
<rect id="XMLID_424_" x="431.8" y="739.2" class="st3" width="20" height="340.9"/>
<rect id="XMLID_423_" x="545.7" y="740.3" class="st3" width="33" height="353.2"/>
<rect id="XMLID_422_" x="476.8" y="739.2" class="st3" width="14.2" height="330.6"/>
<rect id="XMLID_421_" x="670.7" y="735.4" class="st3" width="130.1" height="134.9"/>
<rect id="XMLID_420_" x="68.4" y="351.8" class="st3" width="55.6" height="214.3"/>
<rect id="XMLID_419_" x="75.6" y="783.5" class="st3" width="41.8" height="162.5"/>
<rect id="XMLID_418_" x="168" y="497.1" class="st3" width="98.9" height="42.4"/>
<line id="XMLID_417_" class="st1" x1="734.7" y1="1732.7" x2="79.4" y2="1732.7"/>
<polyline id="XMLID_416_" class="st3" points="408.5,1865.9 408.5,1105.3 443.8,1105.3 443.8,1865.9 "/>
<polyline id="XMLID_415_" class="st3" points="503.6,1865.9 503.6,1105.3 525.3,1105.3 525.3,1865.9 "/>
<polyline id="XMLID_414_" class="st3" points="1175,1012.8 565.4,1012.8 565.4,994.5 1175,994.5 "/>
<polyline id="XMLID_413_" class="st3" points="1180.8,1077.9 757.3,1077.9 757.3,1057.2 1180.8,1057.2 "/>
<rect id="XMLID_412_" x="570.6" y="912.4" class="st3" width="19.5" height="74.4"/>
<rect id="XMLID_411_" x="714.3" y="838.3" class="st3" width="9.5" height="252.9"/>
<polyline id="XMLID_410_" class="st3" points="1176.5,1036.8 564.7,1036.8 564.7,1024.3 1176.5,1024.3 "/>
<rect id="XMLID_409_" x="213.8" y="1322.7" class="st3" width="12.1" height="56.6"/>
<rect id="XMLID_408_" x="476.9" y="1540.6" class="st3" width="13.4" height="64.4"/>
<polyline id="XMLID_407_" class="st3" points="192.4,282.9 192.4,399.7 170.8,399.7 170.8,282.9 "/>
<rect id="XMLID_406_" x="850.2" y="390.1" class="st3" width="39.6" height="14.2"/>
<rect id="XMLID_405_" x="918" y="390.1" class="st3" width="31.2" height="23.6"/>
<rect id="XMLID_404_" x="1018.4" y="390.1" class="st3" width="30.2" height="23.6"/>
<polyline id="XMLID_403_" class="st3" points="620.1,1214.1 620.1,1099.3 752.8,1099.3 752.8,1214.1 "/>
<rect id="XMLID_402_" x="398.3" y="1324.4" class="st3" width="18.1" height="66.1"/>
<line id="XMLID_607_" class="st2" x1="5792.2" y1="144.7" x2="5810.2" y2="144.7"/>
<line id="XMLID_606_" class="st2" x1="5790.9" y1="181.3" x2="5808.9" y2="181.3"/>
<line id="XMLID_605_" class="st2" x1="5792.2" y1="176" x2="5808.9" y2="176"/>
<line id="XMLID_604_" class="st2" x1="5723.5" y1="368" x2="5723.5" y2="396.7"/>
<line id="XMLID_603_" class="st2" x1="5755.5" y1="370.7" x2="5755.5" y2="397.3"/>
<line id="XMLID_602_" class="st2" x1="5750.2" y1="370" x2="5750.2" y2="396"/>
<line id="XMLID_601_" class="st2" x1="5468.9" y1="-97.3" x2="5468.9" y2="-83.3"/>
<line id="XMLID_600_" class="st2" x1="5499.5" y1="-96.7" x2="5499.5" y2="-83.3"/>
<line id="XMLID_599_" class="st2" x1="5774.2" y1="628.3" x2="5804.3" y2="628.3"/>
<line id="XMLID_598_" class="st2" x1="5773.2" y1="667.3" x2="5806.2" y2="667.3"/>
<line id="XMLID_597_" class="st2" x1="5775.2" y1="644.3" x2="5799.3" y2="644.3"/>
<line id="XMLID_596_" class="st2" x1="5774.2" y1="650.3" x2="5805.3" y2="650.3"/>
<line id="XMLID_595_" class="st2" x1="5498.2" y1="866.3" x2="5535.4" y2="866.3"/>
<line id="XMLID_594_" class="st2" x1="5501.2" y1="871.3" x2="5531.8" y2="871.3"/>
<line id="XMLID_593_" class="st2" x1="5501.2" y1="897.3" x2="5534.3" y2="897.3"/>
<line id="XMLID_592_" class="st2" x1="5504.2" y1="891.3" x2="5532.2" y2="891.3"/>
<line id="XMLID_591_" class="st2" x1="5775.2" y1="1205.3" x2="5805.2" y2="1205.3"/>
<line id="XMLID_590_" class="st2" x1="5776.2" y1="1222.3" x2="5803.2" y2="1222.3"/>
<line id="XMLID_589_" class="st2" x1="5387.2" y1="1349.3" x2="5387.2" y2="1382.4"/>
<line id="XMLID_588_" class="st2" x1="5420.2" y1="1348.3" x2="5420.2" y2="1380.4"/>
<line id="XMLID_587_" class="st2" x1="5414.2" y1="1350.3" x2="5414.2" y2="1386.3"/>
<path id="XMLID_586_" class="st2" d="M5379.2,34.8c129.8,88.5,305.1,105.7,449.6,44.2"/>
<path id="XMLID_585_" class="st2" d="M5364.8,23c60.5,61.9,142.1,102.4,227.8,113.9c27,3.7,54.4,4.5,81.7,5.1
	c55.5,1.3,115,0.6,160.6-31.1"/>
<path id="XMLID_584_" class="st2" d="M5407.1,170.5c53,11.3,108,13.9,161.8,7.5"/>
<path id="XMLID_583_" class="st2" d="M5408.1,184.3c51.4,27.2,115.1,29.9,168.7,7.2"/>
<path id="XMLID_582_" class="st2" d="M5650.6-90c1.4,11.2,4.2,22.4,10.4,31.8c6.2,9.4,16.1,16.9,27.3,18c17,1.7,33.7-13.7,33.3-30.8
	"/>
<path id="XMLID_581_" class="st2" d="M5668.9-237.1"/>
<path id="XMLID_580_" class="st2" d="M4759.4,651.7c15,30.8,40.6,56.8,72.1,70.2s68.9,13.5,99.6-1.7c35.2-17.4,60.3-55.3,57.8-95.1"
	/>
<path id="XMLID_579_" class="st2" d="M4785.4,653.7c0.2,4.1,4.9,6.3,8.9,7.3c9.5,2.4,19.4,3.5,29.2,3.4c11.1-0.2,22.3-2.1,32-7.4
	c6.9-3.7,12.8-9,18.6-14.2c6.9-6.2,13.8-12.3,20.7-18.5"/>
<path id="XMLID_578_" class="st2" d="M5109.7,628.1c0,11.2,7.9,20.9,16.9,27.5c16.6,12.1,38.4,16.9,58.5,12.8
	c20.2-4,38.4-16.8,49.1-34.4"/>
<path id="XMLID_577_" class="st2" d="M5489,842.1c46.3,11.9,95.3,13,142.1,3.1c25-5.3,50.4-14.3,67.6-33.2"/>
<path id="XMLID_576_" class="st2" d="M5691.7,813.9c19.8,14.4,43.6,22.5,67.8,26.1c24.2,3.6,48.8,2.8,73.2,0.7"/>
<path id="XMLID_575_" class="st2" d="M5492.8,677.7c44,37.4,103.4,53.9,161.1,52.6c57.7-1.3,114.1-19.3,166.1-44.4"/>
<path id="XMLID_574_" class="st2" d="M5262.9,582.6c11.4,2,23.5,4.1,34.4,0.1c12.8-4.7,21.4-16.6,32.8-24.1
	c33.9-22.3,94-3.7,76.5,80.8"/>
<path id="XMLID_573_" class="st2" d="M5747.3,397.1c-5.3,46.4,18.3,94.9,58.1,119.3c0.5,0.3,1.3,0.7,1.8,0.3s-0.3-1.4-0.6-0.8"/>
<path id="XMLID_572_" class="st2" d="M5733.1,398.5c-3.6,30.7-1,62.6,11.5,91c12.4,28.3,35.4,52.7,64.5,63.1"/>
<path id="XMLID_571_" class="st2" d="M5491.5,813.6c58.6,44.5,134.8,65,207.8,55.9"/>
<path id="XMLID_570_" class="st2" d="M5429.3,1179.9c41.6-3,83.5-1,124.6,5.9c73.4,12.4,147.7,40.7,220.3,24.1"/>
<path id="XMLID_569_" class="st2" d="M5488.7,1217.4c42.8-3.1,81.1,18.4,122.3,25.2c35.7,5.8,73.7-0.1,104.3-19.3
	s52.9-52.3,56.2-88.3"/>
<path id="XMLID_568_" class="st2" d="M5242.9,1358.6c11.3,25.4,35.1,44.9,62.3,50.7c8.3,1.8,16.9,2.4,25.4,2.4
	c15.5,0.1,31.2-1.7,45.5-7.5s27.3-15.9,34.5-29.6"/>
<path id="XMLID_567_" class="st2" d="M5419.7,1384.5c16.9,20.2,45,27.4,71.3,27.6c46.6,0.3,91.1-17.8,135.5-32.2
	c44.4-14.4,92.9-25.1,137.1-10.3"/>
<path id="XMLID_566_" class="st2" d="M5274.8,444.3c19.3,5,40.5-4.7,52.5-20.6c12.1-15.9,16-36.7,14.9-56.6"/>
<path id="XMLID_565_" class="st2" d="M5106.7,204.3c7,41,44.2,71.4,84.2,74.6c2.2,0.2,4.6,0.3,6.5,1.5c1.9,1.2,3.2,3.7,2.2,5.7"/>
<path id="XMLID_564_" class="st2" d="M5157.1,460c1.8,21.2,2.1,42.9-3.5,63.5c-15,55-77.7,102.4-181.8-11.3"/>
<rect id="XMLID_563_" x="5733.2" y="872.1" class="st3" width="148.4" height="273.2"/>
<rect id="XMLID_562_" x="5731.2" y="271.9" class="st3" width="149.2" height="59.9"/>
<rect id="XMLID_561_" x="5766.7" y="-172.2" class="st3" width="82.4" height="120.3"/>
<rect id="XMLID_560_" x="5798.7" y="428.4" class="st3" width="64" height="314"/>
<rect id="XMLID_559_" x="5795" y="1077.4" class="st3" width="43.2" height="211.9"/>
<rect id="XMLID_558_" x="5661.2" y="991.8" class="st3" width="81.7" height="98.9"/>
<polyline id="XMLID_557_" class="st3" points="5695.2,1492.8 5695.2,1055.3 5708.2,1055.3 5708.2,1492.8 "/>
<rect id="XMLID_556_" x="5752" y="1340.2" class="st3" width="80.6" height="59.5"/>
<polyline id="XMLID_555_" class="st3" points="5363.2,-80.6 5363.2,-85.9 5827.6,-85.9 5827.6,-80.6 "/>
<rect id="XMLID_554_" x="5789.1" y="485" class="st3" width="34.5" height="95.9"/>
<polyline id="XMLID_553_" class="st3" points="5481.5,1443.3 5481.5,628.3 5504.1,628.3 5504.1,1443.3 "/>
<rect id="XMLID_552_" x="5690.3" y="634.3" class="st3" width="18" height="387.9"/>
<rect id="XMLID_551_" x="5191.4" y="194.1" class="st3" width="32.7" height="442.4"/>
<rect id="XMLID_550_" x="5213.8" y="401.2" class="st3" width="72.1" height="233.1"/>
<rect id="XMLID_549_" x="5274.3" y="556" class="st3" width="17.8" height="46"/>
<rect id="XMLID_548_" x="5271.6" y="428.4" class="st3" width="20.4" height="78.7"/>
<rect id="XMLID_547_" x="5255.2" y="213.7" class="st3" width="16.4" height="214.6"/>
<rect id="XMLID_546_" x="5268.1" y="267" class="st3" width="555.5" height="7.3"/>
<rect id="XMLID_545_" x="5262.9" y="283.2" class="st3" width="488" height="8"/>
<rect id="XMLID_544_" x="5264" y="359.4" class="st3" width="574.2" height="16"/>
<line id="XMLID_543_" class="st1" x1="5218.3" y1="449.5" x2="5218.3" y2="467.7"/>
<line id="XMLID_542_" class="st1" x1="5224.1" y1="512.1" x2="5224.1" y2="532.9"/>
<rect id="XMLID_541_" x="4760" y="597.8" class="st3" width="480.1" height="38.7"/>
<line id="XMLID_540_" class="st1" x1="5219.8" y1="479.3" x2="5219.8" y2="491.8"/>
<rect id="XMLID_539_" x="5768.2" y="1198.2" class="st3" width="13.4" height="31.7"/>
<rect id="XMLID_538_" x="5378.2" y="1372.8" class="st3" width="49.8" height="14.8"/>
<rect id="XMLID_537_" x="5523.7" y="862.9" class="st3" width="15.2" height="41.4"/>
<rect id="XMLID_536_" x="5768.2" y="623" class="st3" width="13.4" height="50.4"/>
<rect id="XMLID_535_" x="5718.9" y="391" class="st3" width="40.3" height="10.6"/>
<rect id="XMLID_534_" x="5789.1" y="139.8" class="st3" width="6" height="45.8"/>
<rect id="XMLID_307_" x="5781.6" y="-28.2" class="st3" width="29.7" height="33"/>
<rect id="XMLID_306_" x="5366.9" y="-28.2" class="st3" width="82.6" height="40.4"/>
<rect id="XMLID_305_" x="5427.1" y="-83.3" class="st3" width="6.5" height="60.4"/>
<rect id="XMLID_304_" x="5462.9" y="-102.7" class="st3" width="43.3" height="10.1"/>
<rect id="XMLID_303_" x="5594.5" y="-17.4" class="st3" width="201.9" height="16.1"/>
<rect id="XMLID_302_" x="5374.6" y="162.7" class="st3" width="47.6" height="44.3"/>
<rect id="XMLID_301_" x="5562.9" y="162.7" class="st3" width="31.6" height="44.3"/>
<polyline id="XMLID_300_" class="st3" points="5658.7,-227.8 5658.7,-248.1 5678.2,-248.1 5678.2,-227.8 "/>
<rect id="XMLID_299_" x="5374.6" y="-97.6" class="st3" width="22.6" height="25.6"/>
<rect id="XMLID_298_" x="5225.8" y="1345.6" class="st3" width="36" height="21.7"/>
<polyline id="XMLID_297_" class="st3" points="4747.7,1221.5 5307.2,1221.5 5307.2,1142.5 4747.7,1142.5 "/>
<rect id="XMLID_296_" x="5293.8" y="1162.9" class="st3" width="206.1" height="24.5"/>
<line id="XMLID_295_" class="st1" x1="4796.2" y1="669.1" x2="4663.5" y2="669.1"/>
<rect id="XMLID_294_" x="5179.2" y="623" class="st3" width="596" height="31.7"/>
<rect id="XMLID_293_" x="5176.2" y="1337.9" class="st3" width="525.5" height="12.4"/>
<rect id="XMLID_292_" x="5588.7" y="-83.3" class="st3" width="20.8" height="352.4"/>
<rect id="XMLID_1_" x="8.6" y="1067.5" class="st3" width="41.8" height="162.5"/>
<rect id="XMLID_2_" x="181.8" y="734.4" class="st3" width="500" height="9.5"/>
</svg>
