<?xml version="1.0" encoding="utf-8"?>
<!-- Generator: Adobe Illustrator 19.0.0, SVG Export Plug-In . SVG Version: 6.00 Build 0)  -->
<svg version="1.1" id="Слой_1" xmlns="http://www.w3.org/2000/svg" xmlns:xlink="http://www.w3.org/1999/xlink" x="0px" y="0px"
	 viewBox="0 0 1920 3560" style="enable-background:new 0 0 1920 3560;" xml:space="preserve">
<style type="text/css">
	.st0{fill:#F4E1A1;}
	.st1{fill:none;stroke:#817957;stroke-width:2;stroke-linecap:round;stroke-linejoin:round;stroke-miterlimit:10;}
	
		.st2{fill:none;stroke:#817957;stroke-width:2;stroke-linecap:round;stroke-linejoin:round;stroke-miterlimit:10;stroke-dasharray:6.8508;}
	.st3{display:none;fill:none;stroke:#817957;stroke-width:2;stroke-linecap:round;stroke-linejoin:round;stroke-miterlimit:10;}
</style>
<g>
	<g id="_x30_1">
		<g id="XMLID_2802_">
			<rect id="XMLID_2808_" x="1366" y="1768.4" class="st0" width="10.8" height="40.4"/>
			<path id="XMLID_2807_" class="st1" d="M1354.1,1777h5.4c6.6,0,11.9,5.3,11.9,11.9l0,0"/>
			<path id="XMLID_2806_" class="st1" d="M1371.4,1828.9L1371.4,1828.9c0,6.6-5.3,11.9-11.9,11.9h-5.4"/>
			<rect id="XMLID_2805_" x="1366" y="1788.9" class="st1" width="10.8" height="40"/>
			<line id="XMLID_2804_" class="st1" x1="1376.8" y1="1796.7" x2="1366" y2="1796.7"/>
			<line id="XMLID_2803_" class="st1" x1="1376.8" y1="1821.2" x2="1366" y2="1821.2"/>
		</g>
		<g id="XMLID_2790_">
			<rect id="XMLID_2801_" x="1270.8" y="1646.2" class="st0" width="47.3" height="72.3"/>
			<rect id="XMLID_2800_" x="1177.4" y="1646.2" class="st0" width="17.3" height="72.3"/>
			<rect id="XMLID_2799_" x="1177.4" y="1668" class="st1" width="17.3" height="71.6"/>
			<rect id="XMLID_2798_" x="1270.8" y="1668" class="st1" width="47.3" height="71.6"/>
			<rect id="XMLID_2797_" x="1307.4" y="1682.8" class="st1" width="10.7" height="40.7"/>
			<line id="XMLID_2796_" class="st1" x1="1271.1" y1="1674.8" x2="1318.1" y2="1674.8"/>
			<line id="XMLID_2795_" class="st1" x1="1178.1" y1="1674.8" x2="1194.8" y2="1674.8"/>
			<line id="XMLID_2794_" class="st1" x1="1178.1" y1="1678.8" x2="1194.1" y2="1678.8"/>
			<line id="XMLID_2793_" class="st1" x1="1178.1" y1="1729.8" x2="1194.1" y2="1729.8"/>
			<line id="XMLID_2792_" class="st1" x1="1284.1" y1="1674.8" x2="1284.1" y2="1737.9"/>
			<line id="XMLID_2791_" class="st1" x1="1270.8" y1="1735.2" x2="1282.8" y2="1735.2"/>
		</g>
		<g id="XMLID_2726_">
			<g id="XMLID_2787_">
				<rect id="XMLID_2789_" x="1354.1" y="1891.7" class="st0" width="17.9" height="83.4"/>
				<polygon id="XMLID_2788_" class="st0" points="1151.4,1878.9 1133.5,1878.9 1133.5,1962.4 1151.4,1962.4 1151.4,1992.6 
					1354.1,1992.6 1354.1,1859.2 1151.4,1859.2 				"/>
			</g>
			<rect id="XMLID_2786_" x="1354.1" y="1910.9" class="st1" width="17.9" height="82.6"/>
			<rect id="XMLID_2785_" x="1133.5" y="1898.3" class="st1" width="17.9" height="82.6"/>
			<g id="XMLID_2778_">
				<rect id="XMLID_2784_" x="1225.3" y="1902.2" class="st1" width="74.9" height="74.9"/>
				<path id="XMLID_2783_" class="st1" d="M1278.2,1966.8h-30.9c-6.5,0-11.8-5.3-11.8-11.8v-30.9c0-6.5,5.3-11.8,11.8-11.8h30.9
					c6.5,0,11.8,5.3,11.8,11.8v30.9C1290,1961.6,1284.7,1966.8,1278.2,1966.8z"/>
				<circle id="XMLID_2782_" class="st1" cx="1232.2" cy="1909" r="2.2"/>
				<circle id="XMLID_2781_" class="st1" cx="1293.3" cy="1909" r="2.2"/>
				<circle id="XMLID_2780_" class="st1" cx="1232.2" cy="1970.2" r="2.2"/>
				<circle id="XMLID_2779_" class="st1" cx="1293.3" cy="1970.2" r="2.2"/>
			</g>
			<line id="XMLID_2777_" class="st1" x1="1347.1" y1="1878.8" x2="1347.1" y2="2010.8"/>
			<g id="XMLID_2767_">
				<g id="XMLID_2774_">
					<circle id="XMLID_2776_" class="st1" cx="1192.3" cy="1966.6" r="10.8"/>
					<circle id="XMLID_2775_" class="st1" cx="1192.3" cy="1966.6" r="6.9"/>
				</g>
				<g id="XMLID_2771_">
					<circle id="XMLID_2773_" class="st1" cx="1192.3" cy="1912.6" r="10.8"/>
					<circle id="XMLID_2772_" class="st1" cx="1192.3" cy="1912.6" r="6.9"/>
				</g>
				<g id="XMLID_2768_">
					<circle id="XMLID_2770_" class="st1" cx="1192.3" cy="1939.6" r="10.8"/>
					<circle id="XMLID_2769_" class="st1" cx="1192.3" cy="1939.6" r="6.9"/>
				</g>
			</g>
			<line id="XMLID_2766_" class="st1" x1="1143.1" y1="1899.8" x2="1143.1" y2="1980.9"/>
			<line id="XMLID_2765_" class="st1" x1="1362.1" y1="1910.9" x2="1362.1" y2="1992.8"/>
			<rect id="XMLID_2764_" x="1151.4" y="1878.8" class="st1" width="202.7" height="132"/>
			<line id="XMLID_2763_" class="st1" x1="1278.8" y1="1976.8" x2="1278.8" y2="2009.5"/>
			<line id="XMLID_2762_" class="st1" x1="1273.4" y1="1979.5" x2="1273.4" y2="2009.5"/>
			<line id="XMLID_2761_" class="st1" x1="1248.8" y1="1976.8" x2="1248.8" y2="2009.6"/>
			<line id="XMLID_2760_" class="st1" x1="1241.4" y1="1878.8" x2="1241.4" y2="1900.2"/>
			<path id="XMLID_2759_" class="st1" d="M1300.1,1922.8c0.7,0,1.3,0,2,0h43"/>
			<line id="XMLID_2758_" class="st1" x1="1300.1" y1="1931.8" x2="1346.1" y2="1931.8"/>
			<line id="XMLID_2757_" class="st1" x1="1300.1" y1="1957.8" x2="1346.1" y2="1957.8"/>
			<line id="XMLID_2756_" class="st1" x1="1133.4" y1="1904.2" x2="1142.4" y2="1904.2"/>
			<line id="XMLID_2755_" class="st1" x1="1133.4" y1="1910.8" x2="1142.8" y2="1910.8"/>
			<line id="XMLID_2754_" class="st1" x1="1133.5" y1="1918.2" x2="1143.1" y2="1918.2"/>
			<line id="XMLID_2753_" class="st1" x1="1133.4" y1="1926.8" x2="1142.5" y2="1926.8"/>
			<line id="XMLID_2752_" class="st1" x1="1133.5" y1="1934.2" x2="1142.1" y2="1934.2"/>
			<line id="XMLID_2751_" class="st1" x1="1133.5" y1="1941.2" x2="1142.8" y2="1941.2"/>
			<line id="XMLID_2750_" class="st1" x1="1134.1" y1="1947.5" x2="1143.1" y2="1947.5"/>
			<line id="XMLID_2749_" class="st1" x1="1133.4" y1="1953.8" x2="1142.9" y2="1953.8"/>
			<line id="XMLID_2748_" class="st1" x1="1134.1" y1="1960.5" x2="1142.1" y2="1960.5"/>
			<line id="XMLID_2747_" class="st1" x1="1134.1" y1="1968.8" x2="1141.8" y2="1968.8"/>
			<line id="XMLID_2746_" class="st1" x1="1133.8" y1="1975.5" x2="1142.5" y2="1975.5"/>
			<line id="XMLID_2745_" class="st1" x1="1362.4" y1="1917.5" x2="1371.8" y2="1917.5"/>
			<line id="XMLID_2744_" class="st1" x1="1303.8" y1="1923.8" x2="1303.8" y2="1931.2"/>
			<line id="XMLID_2743_" class="st1" x1="1307.4" y1="1924.5" x2="1307.4" y2="1931.5"/>
			<line id="XMLID_2742_" class="st1" x1="1314.1" y1="1923.8" x2="1314.1" y2="1930.5"/>
			<line id="XMLID_2741_" class="st1" x1="1273.4" y1="1981.5" x2="1277.7" y2="1981.5"/>
			<line id="XMLID_2740_" class="st1" x1="1273.8" y1="1990.2" x2="1278.8" y2="1990.2"/>
			<line id="XMLID_2739_" class="st1" x1="1362.8" y1="1924.2" x2="1370.5" y2="1924.2"/>
			<line id="XMLID_2738_" class="st1" x1="1362.4" y1="1931.5" x2="1371.1" y2="1931.5"/>
			<line id="XMLID_2737_" class="st1" x1="1362.8" y1="1938.5" x2="1371.2" y2="1938.5"/>
			<line id="XMLID_2736_" class="st1" x1="1362.8" y1="1945.8" x2="1370.9" y2="1945.8"/>
			<line id="XMLID_2735_" class="st1" x1="1362.8" y1="1952.2" x2="1370.4" y2="1952.2"/>
			<line id="XMLID_2734_" class="st1" x1="1362.8" y1="1958.2" x2="1370.8" y2="1958.2"/>
			<line id="XMLID_2733_" class="st1" x1="1362.8" y1="1965.8" x2="1371.1" y2="1965.8"/>
			<line id="XMLID_2732_" class="st1" x1="1362.8" y1="1972.2" x2="1371.1" y2="1972.2"/>
			<line id="XMLID_2731_" class="st1" x1="1362.4" y1="1978.5" x2="1370.8" y2="1978.5"/>
			<line id="XMLID_2730_" class="st1" x1="1362.8" y1="1986.2" x2="1370.8" y2="1986.2"/>
			<path id="XMLID_2729_" class="st1" d="M1235.8,1943.5c4.6,3.1,9.4,5.8,14.6,7.4s11,2,16.2,0.3c2.2-0.7,4.3-1.8,6.6-2.5
				c5.4-1.6,11.6-0.6,16.2,2.7"/>
			<path id="XMLID_2728_" class="st1" d="M1235.6,1927.4c2,3.7,6.7,4.8,10.9,5.5c5.6,0.9,11.2,1.8,16.8,1.2
				c4.8-0.6,9.5-2.3,14.4-2.3c4.2-0.1,8.5,1.2,12,3.5"/>
			<path id="XMLID_2727_" class="st1" d="M1235.9,1923.4c7.1,2.4,14.8,3.3,22.3,2.7c2.8-0.3,6.4-1.7,6-4.5c-0.2-1.2-1.1-2.1-2-2.9
				c-1.8-1.7-3.6-3.4-5.4-5.1"/>
		</g>
		<g id="XMLID_2683_">
			<polygon id="XMLID_2725_" class="st0" points="1354.1,2134.2 1354.1,1998.7 1151.4,1998.7 1151.4,2020.4 1133.5,2020.4 
				1133.5,2103.9 1151.4,2103.9 1151.4,2134.2 1151.4,2148.2 1354.1,2148.2 			"/>
			<rect id="XMLID_2724_" x="1133.5" y="2038.3" class="st1" width="17.9" height="82.6"/>
			<g id="XMLID_2717_">
				<rect id="XMLID_2723_" x="1225.3" y="2042.2" class="st1" width="74.9" height="74.9"/>
				<path id="XMLID_2722_" class="st1" d="M1278.2,2106.9h-30.9c-6.5,0-11.8-5.3-11.8-11.8v-30.9c0-6.5,5.3-11.8,11.8-11.8h30.9
					c6.5,0,11.8,5.3,11.8,11.8v30.9C1290,2101.6,1284.7,2106.9,1278.2,2106.9z"/>
				<circle id="XMLID_2721_" class="st1" cx="1232.2" cy="2049" r="2.2"/>
				<circle id="XMLID_2720_" class="st1" cx="1293.3" cy="2049" r="2.2"/>
				<circle id="XMLID_2719_" class="st1" cx="1232.2" cy="2110.2" r="2.2"/>
				<circle id="XMLID_2718_" class="st1" cx="1293.3" cy="2110.2" r="2.2"/>
			</g>
			<rect id="XMLID_2716_" x="1151.4" y="2151" class="st1" width="202.7" height="13.8"/>
			<line id="XMLID_2715_" class="st1" x1="1347.1" y1="2016.8" x2="1347.1" y2="2151"/>
			<g id="XMLID_2708_">
				<g id="XMLID_2712_">
					<circle id="XMLID_2714_" class="st1" cx="1192.3" cy="2106.6" r="10.8"/>
					<circle id="XMLID_2713_" class="st1" cx="1192.3" cy="2106.6" r="6.9"/>
				</g>
				<g id="XMLID_2709_">
					<circle id="XMLID_2711_" class="st1" cx="1192.3" cy="2052.6" r="10.8"/>
					<circle id="XMLID_2710_" class="st1" cx="1192.3" cy="2052.6" r="6.9"/>
				</g>
			</g>
			<line id="XMLID_2707_" class="st1" x1="1146.1" y1="2038.8" x2="1146.1" y2="2119.8"/>
			<rect id="XMLID_2706_" x="1151.4" y="2016.8" class="st1" width="202.7" height="148"/>
			<line id="XMLID_2705_" class="st1" x1="1244.8" y1="2116.8" x2="1244.8" y2="2151"/>
			<line id="XMLID_2704_" class="st1" x1="1253.4" y1="2118.2" x2="1253.4" y2="2150.2"/>
			<line id="XMLID_2703_" class="st1" x1="1262.1" y1="2018.2" x2="1262.1" y2="2040.2"/>
			<path id="XMLID_2702_" class="st1" d="M1300.1,2099.8c0-0.3,0-0.7,0-1h47"/>
			<line id="XMLID_2701_" class="st1" x1="1152.1" y1="2071.8" x2="1224.1" y2="2071.8"/>
			<line id="XMLID_2700_" class="st1" x1="1134.4" y1="2044.8" x2="1145.5" y2="2044.8"/>
			<line id="XMLID_2699_" class="st1" x1="1134.4" y1="2051.5" x2="1145.8" y2="2051.5"/>
			<line id="XMLID_2698_" class="st1" x1="1134.8" y1="2058.8" x2="1145.8" y2="2058.8"/>
			<line id="XMLID_2697_" class="st1" x1="1134.4" y1="2066.2" x2="1145.5" y2="2066.2"/>
			<line id="XMLID_2696_" class="st1" x1="1134.1" y1="2072.8" x2="1145.5" y2="2072.8"/>
			<line id="XMLID_2695_" class="st1" x1="1134.4" y1="2079.8" x2="1145.5" y2="2079.8"/>
			<line id="XMLID_2694_" class="st1" x1="1134.4" y1="2085.8" x2="1145.5" y2="2085.8"/>
			<line id="XMLID_2693_" class="st1" x1="1133.8" y1="2092.8" x2="1145.1" y2="2092.8"/>
			<line id="XMLID_2692_" class="st1" x1="1134.1" y1="2099.2" x2="1145.4" y2="2099.2"/>
			<line id="XMLID_2691_" class="st1" x1="1134.4" y1="2105.2" x2="1144.8" y2="2105.2"/>
			<line id="XMLID_2690_" class="st1" x1="1134.1" y1="2111.5" x2="1145.4" y2="2111.5"/>
			<line id="XMLID_2689_" class="st1" x1="1245.1" y1="2122.8" x2="1253.4" y2="2122.8"/>
			<line id="XMLID_2688_" class="st1" x1="1245.8" y1="2127.5" x2="1253.4" y2="2127.5"/>
			<line id="XMLID_2687_" class="st1" x1="1245.4" y1="2145.5" x2="1253.5" y2="2145.5"/>
			<path id="XMLID_2686_" class="st1" d="M1235.9,2092.5c9.1,4.6,21.1,2.4,27.9-5.2c2.1-2.3,3.8-5.1,6.6-6.3
				c3.3-1.4,7.1-0.2,10.6-0.8c3.6-0.6,6.7-3.3,8-6.8"/>
			<path id="XMLID_2685_" class="st1" d="M1235.6,2079.8c7.2,0.5,14.6-2.9,18.9-8.7c1.7-2.3,3.1-5,5.5-6.5c4-2.6,9.3-0.9,14.1-1.4
				c4.4-0.4,8.5-2.8,11.1-6.4"/>
			<path id="XMLID_2684_" class="st1" d="M1290,2091c-4.3-1.9-9.6-1.1-13.1,2.1c-3.4,3.2-4.7,8.5-3.1,12.9"/>
		</g>
		<g id="XMLID_2644_">
			<polygon id="XMLID_2682_" class="st0" points="1151.4,1718.5 1151.4,1737.4 1133.5,1737.4 1133.5,1820.9 1151.4,1820.9 
				1151.4,1844.4 1354.1,1844.4 1354.1,1718.5 			"/>
			<rect id="XMLID_2681_" x="1133.5" y="1758.3" class="st1" width="17.9" height="82.6"/>
			<g id="XMLID_2674_">
				<rect id="XMLID_2680_" x="1225.3" y="1762.1" class="st1" width="74.9" height="74.9"/>
				<path id="XMLID_2679_" class="st1" d="M1278.2,1826.8h-30.9c-6.5,0-11.8-5.3-11.8-11.8v-30.9c0-6.5,5.3-11.8,11.8-11.8h30.9
					c6.5,0,11.8,5.3,11.8,11.8v30.9C1290,1821.5,1284.7,1826.8,1278.2,1826.8z"/>
				<circle id="XMLID_2678_" class="st1" cx="1232.2" cy="1769" r="2.2"/>
				<circle id="XMLID_2677_" class="st1" cx="1293.3" cy="1769" r="2.2"/>
				<circle id="XMLID_2676_" class="st1" cx="1232.2" cy="1830.2" r="2.2"/>
				<circle id="XMLID_2675_" class="st1" cx="1293.3" cy="1830.2" r="2.2"/>
			</g>
			<line id="XMLID_2673_" class="st1" x1="1347.1" y1="1739.6" x2="1347.1" y2="1864.2"/>
			<g id="XMLID_2666_">
				<g id="XMLID_2670_">
					<circle id="XMLID_2672_" class="st1" cx="1192.3" cy="1826.6" r="10.8"/>
					<circle id="XMLID_2671_" class="st1" cx="1192.3" cy="1826.6" r="6.9"/>
				</g>
				<g id="XMLID_2667_">
					<circle id="XMLID_2669_" class="st1" cx="1192.3" cy="1799.6" r="10.8"/>
					<circle id="XMLID_2668_" class="st1" cx="1192.3" cy="1799.6" r="6.9"/>
				</g>
			</g>
			<line id="XMLID_2665_" class="st1" x1="1144.1" y1="1758.8" x2="1144.1" y2="1840"/>
			<rect id="XMLID_2664_" x="1151.4" y="1739.6" class="st1" width="202.7" height="124.6"/>
			<line id="XMLID_2663_" class="st1" x1="1254.1" y1="1837.5" x2="1254.1" y2="1863.8"/>
			<line id="XMLID_2662_" class="st1" x1="1286.8" y1="1836.8" x2="1286.8" y2="1863.5"/>
			<line id="XMLID_2661_" class="st1" x1="1244.1" y1="1740.8" x2="1244.1" y2="1762.2"/>
			<line id="XMLID_2660_" class="st1" x1="1302.1" y1="1796.8" x2="1345.3" y2="1796.8"/>
			<path id="XMLID_2659_" class="st1" d="M1151.4,1773.8c1.2,0,2.5,0,3.7,0h67.3"/>
			<line id="XMLID_2658_" class="st1" x1="1133.8" y1="1764.8" x2="1143.5" y2="1764.8"/>
			<line id="XMLID_2657_" class="st1" x1="1133.4" y1="1773.2" x2="1144.2" y2="1773.2"/>
			<line id="XMLID_2656_" class="st1" x1="1133.4" y1="1779.2" x2="1143.1" y2="1779.2"/>
			<line id="XMLID_2655_" class="st1" x1="1133.4" y1="1786.2" x2="1144.1" y2="1786.2"/>
			<line id="XMLID_2654_" class="st1" x1="1133.8" y1="1793.2" x2="1143.4" y2="1793.2"/>
			<line id="XMLID_2653_" class="st1" x1="1133.8" y1="1800.2" x2="1143.1" y2="1800.2"/>
			<line id="XMLID_2652_" class="st1" x1="1134.1" y1="1807.2" x2="1144.1" y2="1807.2"/>
			<line id="XMLID_2651_" class="st1" x1="1134.1" y1="1813.8" x2="1144.1" y2="1813.8"/>
			<line id="XMLID_2650_" class="st1" x1="1133.4" y1="1819.8" x2="1144.1" y2="1819.8"/>
			<line id="XMLID_2649_" class="st1" x1="1133.8" y1="1825.8" x2="1143.4" y2="1825.8"/>
			<line id="XMLID_2648_" class="st1" x1="1133.8" y1="1833.5" x2="1143.4" y2="1833.5"/>
			<path id="XMLID_2647_" class="st1" d="M1269.1,1825.2c-4.2-5.8-9.2-12.1-16.3-13.3c-1.9-0.3-4-0.3-5.5-1.4
				c-0.8-0.6-1.3-1.4-1.9-2.2c-2.3-2.9-5.6-4.9-9.2-5.6"/>
			<path id="XMLID_2646_" class="st1" d="M1235.7,1787.2c3.5-0.6,6.9,1.3,9.7,3.5c2.7,2.2,5.1,4.9,8.2,6.7c3.6,2,7.9,2.6,11.9,3.8
				c9.6,3.1,17.5,11.2,20.4,20.9"/>
			<path id="XMLID_2645_" class="st1" d="M1249.3,1773.5c0.1,5.1,1.3,10.9,5.6,13.7c4.6,3,10.9,1.2,15.5-1.9c4.3-2.9,8-6.9,9.6-11.8
				"/>
		</g>
		<g id="XMLID_2639_">
			<line id="XMLID_2643_" class="st1" x1="1151.4" y1="1864.2" x2="1151.4" y2="1878.8"/>
			<line id="XMLID_2642_" class="st1" x1="1354.1" y1="1864.2" x2="1354.1" y2="1878.8"/>
			<line id="XMLID_2641_" class="st1" x1="1151.4" y1="2010.8" x2="1151.4" y2="2016.8"/>
			<line id="XMLID_2640_" class="st1" x1="1354.1" y1="2010.8" x2="1354.1" y2="2016.8"/>
		</g>
	</g>
	<g id="_x30_6">
		<g id="XMLID_2041_">
			<g id="XMLID_2069_">
				<polygon id="XMLID_2074_" class="st0" points="275.3,2263 275.3,2199.8 279.2,2199.8 279.2,2192.7 282.3,2192.7 282.3,2181.7 
					243.7,2181.7 243.7,2192.7 246.8,2192.7 246.8,2199.8 250.7,2199.8 250.7,2263 170,2263 170,2199.8 173.9,2199.8 173.9,2192.7 
					177,2192.7 177,2181.7 138.4,2181.7 138.4,2192.7 141.5,2192.7 141.5,2199.8 145.4,2199.8 145.4,2263 128.2,2263 128.2,2270.5 
					298.4,2270.5 298.4,2263 				"/>
				<path id="XMLID_2073_" class="st0" d="M133.6,2181.7h-10.9c0,3.1,2.5,5.5,5.5,5.5C131.2,2187.2,133.6,2184.7,133.6,2181.7z"/>
				<path id="XMLID_2072_" class="st0" d="M187.3,2187.2c3,0,5.5-2.5,5.5-5.5h-10.9C181.8,2184.7,184.2,2187.2,187.3,2187.2z"/>
				<path id="XMLID_2071_" class="st0" d="M233.4,2187.2c3,0,5.5-2.5,5.5-5.5H228C228,2184.7,230.4,2187.2,233.4,2187.2z"/>
				<path id="XMLID_2070_" class="st0" d="M292.6,2187.2c3,0,5.5-2.5,5.5-5.5h-10.9C287.1,2184.7,289.5,2187.2,292.6,2187.2z"/>
			</g>
			<rect id="XMLID_2068_" x="128.2" y="2278.4" class="st1" width="170.2" height="7.4"/>
			<g id="XMLID_2055_">
				<g id="XMLID_2064_">
					<rect id="XMLID_2067_" x="138.4" y="2197.9" class="st1" width="38.5" height="10.9"/>
					<path id="XMLID_2066_" class="st1" d="M133.6,2197.9c0,3-2.5,5.5-5.5,5.5s-5.5-2.5-5.5-5.5"/>
					<path id="XMLID_2065_" class="st1" d="M192.7,2197.9c0,3-2.5,5.5-5.5,5.5s-5.5-2.5-5.5-5.5"/>
				</g>
				<g id="XMLID_2058_">
					<g id="XMLID_2062_">
						<line id="XMLID_2063_" class="st1" x1="145.4" y1="2270.3" x2="170" y2="2270.3"/>
					</g>
					<rect id="XMLID_2061_" x="141.5" y="2208.9" class="st1" width="32.5" height="7"/>
					<line id="XMLID_2060_" class="st1" x1="145.4" y1="2277.4" x2="145.4" y2="2215.9"/>
					<line id="XMLID_2059_" class="st1" x1="170" y1="2277.4" x2="170" y2="2215.9"/>
				</g>
				<line id="XMLID_2057_" class="st1" x1="163.9" y1="2215.9" x2="163.9" y2="2270.3"/>
				<line id="XMLID_2056_" class="st1" x1="122.7" y1="2197.9" x2="192.7" y2="2197.9"/>
			</g>
			<g id="XMLID_2042_">
				<g id="XMLID_2051_">
					<rect id="XMLID_2054_" x="243.7" y="2197.9" class="st1" width="38.5" height="10.9"/>
					<path id="XMLID_2053_" class="st1" d="M238.9,2197.9c0,3-2.5,5.5-5.5,5.5s-5.5-2.5-5.5-5.5"/>
					<path id="XMLID_2052_" class="st1" d="M298,2197.9c0,3-2.5,5.5-5.5,5.5s-5.5-2.5-5.5-5.5"/>
				</g>
				<g id="XMLID_2045_">
					<g id="XMLID_2049_">
						<line id="XMLID_2050_" class="st1" x1="250.7" y1="2270.3" x2="275.3" y2="2270.3"/>
					</g>
					<rect id="XMLID_2048_" x="246.8" y="2208.9" class="st1" width="32.5" height="7"/>
					<line id="XMLID_2047_" class="st1" x1="250.7" y1="2277.4" x2="250.7" y2="2215.9"/>
					<line id="XMLID_2046_" class="st1" x1="275.3" y1="2277.4" x2="275.3" y2="2215.9"/>
				</g>
				<line id="XMLID_2044_" class="st1" x1="269.2" y1="2215.9" x2="269.2" y2="2270.3"/>
				<line id="XMLID_2043_" class="st1" x1="228" y1="2197.9" x2="298" y2="2197.9"/>
			</g>
		</g>
		<g id="XMLID_2028_">
			<rect id="XMLID_2040_" x="173.6" y="1997" class="st0" width="170.2" height="7.5"/>
			<rect id="XMLID_2039_" x="173.6" y="2015.1" class="st1" width="170.2" height="7.4"/>
			<line id="XMLID_2038_" class="st2" x1="176.3" y1="1993.5" x2="342.5" y2="1993.5"/>
			<g id="XMLID_2029_">
				<path id="XMLID_2037_" class="st0" d="M258.7,1866.1c-47,0-85.1,38.5-85.1,86h170.2C343.8,1904.6,305.7,1866.1,258.7,1866.1z"/>
				<path id="XMLID_2036_" class="st1" d="M343.8,1970.7c0-47-38.1-85.1-85.1-85.1s-85.1,38.1-85.1,85.1"/>
				<line id="XMLID_2035_" class="st1" x1="173.6" y1="1970.7" x2="343.8" y2="1970.7"/>
				<path id="XMLID_2034_" class="st1" d="M195.5,1915.1c-1.5,2-1.8,4.9-0.6,7.1s3.6,3.7,6.2,3.6c3.7-0.1,6.7-3.3,10.3-4.1
					c5.6-1.4,11,2.9,16.8,3.5c4.6,0.5,9.1-1.4,13.1-3.7c11.6-6.7,21.6-18.7,20.5-32c-0.1-1.2-0.4-2.6-1.3-3.4"/>
				<path id="XMLID_2033_" class="st1" d="M185.3,1928.1c-1.2,5.9-2,13,2.5,17.1c4.4,4.1,11.3,2.7,17.3,2.8
					c4.6,0.1,9.1,1.1,13.7,1.7c16.7,2,34.2-3.4,46.3-15s18.3-29.3,15.2-45.8"/>
				<path id="XMLID_2032_" class="st1" d="M204.1,1905.4c0.4,1.8-1.4,3.4-1.3,5.2c0.1,1.3,1.2,2.3,2.4,2.7c1.2,0.4,2.5,0.3,3.8,0.2
					c5.5-0.6,10.9-2.1,15.5-5.1s8.2-7.7,9.1-13.2c0.2-1.2,0.2-2.4-0.3-3.4s-1.7-1.8-2.9-1.5"/>
				<path id="XMLID_2031_" class="st1" d="M294.9,1970.7c10.8-3.8,20.1-11.8,25.7-21.8c5-9,7-19.7,5.5-30"/>
				<path id="XMLID_2030_" class="st1" d="M317.1,1969.8c11.2-1.7,20.9-10.5,23.6-21.5"/>
			</g>
		</g>
		<g id="XMLID_1964_">
			<g id="XMLID_2022_">
				<polygon id="XMLID_2027_" class="st0" points="402.9,2048.3 402.9,2019 78.3,2019 78.3,2061.2 67.3,2061.2 67.3,2106.9 
					78.3,2106.9 78.3,2148.2 402.9,2148.2 402.9,2123.9 402.9,2106.9 413.9,2106.9 413.9,2061.2 402.9,2061.2 				"/>
				<rect id="XMLID_2026_" x="413.9" y="2070.4" class="st0" width="9.9" height="10"/>
				<rect id="XMLID_2025_" x="413.9" y="2088.5" class="st0" width="9.9" height="10"/>
				<rect id="XMLID_2024_" x="57.4" y="2087.6" class="st0" width="9.9" height="10"/>
				<rect id="XMLID_2023_" x="57.4" y="2069.5" class="st0" width="9.9" height="10"/>
			</g>
			<rect id="XMLID_2021_" x="78.3" y="2036.9" class="st1" width="324.6" height="127.9"/>
			<g id="XMLID_2011_">
				<g id="XMLID_2018_">
					<circle id="XMLID_2020_" class="st1" cx="216.4" cy="2076.7" r="10.8"/>
					<circle id="XMLID_2019_" class="st1" cx="216.4" cy="2076.7" r="6.9"/>
				</g>
				<g id="XMLID_2015_">
					<circle id="XMLID_2017_" class="st1" cx="162.4" cy="2076.7" r="10.8"/>
					<circle id="XMLID_2016_" class="st1" cx="162.4" cy="2076.7" r="6.9"/>
				</g>
				<g id="XMLID_2012_">
					<circle id="XMLID_2014_" class="st1" cx="189.4" cy="2076.7" r="10.8"/>
					<circle id="XMLID_2013_" class="st1" cx="189.4" cy="2076.7" r="6.9"/>
				</g>
			</g>
			<g id="XMLID_2001_">
				<g id="XMLID_2008_">
					<circle id="XMLID_2010_" class="st1" cx="216.4" cy="2123.9" r="10.8"/>
					<circle id="XMLID_2009_" class="st1" cx="216.4" cy="2123.9" r="6.9"/>
				</g>
				<g id="XMLID_2005_">
					<circle id="XMLID_2007_" class="st1" cx="162.4" cy="2123.9" r="10.8"/>
					<circle id="XMLID_2006_" class="st1" cx="162.4" cy="2123.9" r="6.9"/>
				</g>
				<g id="XMLID_2002_">
					<circle id="XMLID_2004_" class="st1" cx="189.4" cy="2123.9" r="10.8"/>
					<circle id="XMLID_2003_" class="st1" cx="189.4" cy="2123.9" r="6.9"/>
				</g>
			</g>
			<g id="XMLID_1988_">
				<rect id="XMLID_2000_" x="287.7" y="2065.9" class="st1" width="115.2" height="74.9"/>
				<g id="XMLID_1991_">
					<line id="XMLID_1999_" class="st1" x1="300.7" y1="2083.7" x2="349.7" y2="2083.7"/>
					<line id="XMLID_1998_" class="st1" x1="300.7" y1="2089.3" x2="349.7" y2="2089.3"/>
					<line id="XMLID_1997_" class="st1" x1="300.7" y1="2094.9" x2="349.7" y2="2094.9"/>
					<line id="XMLID_1996_" class="st1" x1="300.7" y1="2100.5" x2="349.7" y2="2100.5"/>
					<line id="XMLID_1995_" class="st1" x1="300.7" y1="2106.1" x2="349.7" y2="2106.1"/>
					<line id="XMLID_1994_" class="st1" x1="300.7" y1="2111.8" x2="349.7" y2="2111.8"/>
					<line id="XMLID_1993_" class="st1" x1="300.7" y1="2117.4" x2="349.7" y2="2117.4"/>
					<line id="XMLID_1992_" class="st1" x1="300.7" y1="2123" x2="349.7" y2="2123"/>
				</g>
				<circle id="XMLID_1990_" class="st1" cx="294.6" cy="2072.7" r="2.2"/>
				<circle id="XMLID_1989_" class="st1" cx="294.6" cy="2133.9" r="2.2"/>
			</g>
			<g id="XMLID_1983_">
				<g id="XMLID_1984_">
					<polyline id="XMLID_1987_" class="st1" points="402.9,2123.9 413.9,2123.9 413.9,2078.7 402.9,2078.7 					"/>
					<rect id="XMLID_1986_" x="413.9" y="2087.8" class="st1" width="9.9" height="9.9"/>
					<rect id="XMLID_1985_" x="413.9" y="2105.8" class="st1" width="9.9" height="9.9"/>
				</g>
			</g>
			<g id="XMLID_1978_">
				<g id="XMLID_1979_">
					<polyline id="XMLID_1982_" class="st1" points="78.3,2078.7 67.3,2078.7 67.3,2123.9 78.3,2123.9 					"/>
					<rect id="XMLID_1981_" x="57.4" y="2104.9" class="st1" width="9.9" height="9.9"/>
					<rect id="XMLID_1980_" x="57.4" y="2086.9" class="st1" width="9.9" height="9.9"/>
				</g>
			</g>
			<line id="XMLID_1977_" class="st1" x1="78.3" y1="2100.3" x2="287.7" y2="2100.3"/>
			<path id="XMLID_1976_" class="st1" d="M57.4,2092.4c-21-3.2-41.1-11.7-58-24.5"/>
			<path id="XMLID_1975_" class="st1" d="M57.4,2109.7c-19.7,1.1-39.6-2.4-57.7-10.1"/>
			<path id="XMLID_1974_" class="st1" d="M423.8,2092c18.1-2.5,36.5-4,54.6-3.1"/>
			<path id="XMLID_1973_" class="st1" d="M423.8,2108.9c18.2-1.7,36.7-1.4,54.6,1.9"/>
			<line id="XMLID_1972_" class="st1" x1="394.1" y1="2065.8" x2="394.1" y2="2138.9"/>
			<line id="XMLID_1971_" class="st1" x1="419.1" y1="2088.3" x2="419.1" y2="2096.3"/>
			<line id="XMLID_1970_" class="st1" x1="418.1" y1="2106.3" x2="418.1" y2="2115.3"/>
			<line id="XMLID_1969_" class="st1" x1="75.1" y1="2079.3" x2="75.1" y2="2122.8"/>
			<line id="XMLID_1968_" class="st1" x1="62.1" y1="2087.8" x2="62.1" y2="2096.5"/>
			<line id="XMLID_1967_" class="st1" x1="64.6" y1="2105.3" x2="64.6" y2="2114.8"/>
			<line id="XMLID_1966_" class="st1" x1="406.1" y1="2080.3" x2="406.1" y2="2123.6"/>
			<line id="XMLID_1965_" class="st1" x1="390.6" y1="2065.8" x2="390.6" y2="2140.3"/>
		</g>
	</g>
	<g id="_x30_8">
		<g id="XMLID_1872_">
			<polygon id="XMLID_1884_" class="st0" points="1676.9,2057.4 1676.9,2028.4 1600.6,2028.4 1600.6,2020.9 1354.1,2020.9 
				1354.1,2028.4 1354.1,2086.3 1589.7,2086.3 1614.4,2086.3 1705.6,2086.3 1705.6,2057.4 			"/>
			<rect id="XMLID_1883_" x="1354.1" y="2038.8" class="st1" width="246.5" height="7.4"/>
			<polyline id="XMLID_1882_" class="st1" points="1705.6,2103.6 1705.6,2074.9 1676.9,2074.9 1676.9,2046.2 1354.1,2046.2 
				1354.1,2103.6 1589.7,2103.6 			"/>
			<line id="XMLID_1881_" class="st1" x1="1614.4" y1="2103.6" x2="1917.6" y2="2103.6"/>
			<g id="XMLID_1874_">
				<g id="XMLID_1878_">
					<circle id="XMLID_1880_" class="st1" cx="1468.2" cy="2082.4" r="10.8"/>
					<circle id="XMLID_1879_" class="st1" cx="1468.2" cy="2082.4" r="6.9"/>
				</g>
				<g id="XMLID_1875_">
					<circle id="XMLID_1877_" class="st1" cx="1414.2" cy="2082.4" r="10.8"/>
					<circle id="XMLID_1876_" class="st1" cx="1414.2" cy="2082.4" r="6.9"/>
				</g>
			</g>
			<line id="XMLID_1873_" class="st1" x1="1676.9" y1="2060.6" x2="1354.1" y2="2060.6"/>
		</g>
		<g id="XMLID_1855_">
			<g id="XMLID_1868_">
				<polygon id="XMLID_1871_" class="st0" points="1582.8,2054 1585.8,2054 1585.8,2061.1 1589.7,2061.1 1589.7,2148.2 
					1614.4,2148.2 1614.4,2061.1 1618.3,2061.1 1618.3,2054 1621.3,2054 1621.3,2042.9 1582.8,2042.9 				"/>
				<path id="XMLID_1870_" class="st0" d="M1572.5,2048.5c3,0,5.5-2.5,5.5-5.5h-11C1567,2046,1569.5,2048.5,1572.5,2048.5z"/>
				<path id="XMLID_1869_" class="st0" d="M1626.2,2042.9c0,3.1,2.5,5.5,5.5,5.5s5.5-2.5,5.5-5.5L1626.2,2042.9L1626.2,2042.9z"/>
			</g>
			<g id="XMLID_1864_">
				<rect id="XMLID_1867_" x="1582.8" y="2060.6" class="st1" width="38.5" height="10.9"/>
				<path id="XMLID_1866_" class="st1" d="M1578,2060.6c0,3-2.5,5.5-5.5,5.5s-5.5-2.5-5.5-5.5"/>
				<path id="XMLID_1865_" class="st1" d="M1637.1,2060.6c0,3-2.5,5.5-5.5,5.5s-5.5-2.5-5.5-5.5"/>
			</g>
			<g id="XMLID_1858_">
				<g id="XMLID_1862_">
					<line id="XMLID_1863_" class="st1" x1="1589.7" y1="2133" x2="1614.4" y2="2133"/>
				</g>
				<rect id="XMLID_1861_" x="1585.8" y="2071.6" class="st1" width="32.5" height="7"/>
				<line id="XMLID_1860_" class="st1" x1="1589.7" y1="2164.8" x2="1589.7" y2="2078.6"/>
				<line id="XMLID_1859_" class="st1" x1="1614.4" y1="2164.8" x2="1614.4" y2="2078.6"/>
			</g>
			<line id="XMLID_1857_" class="st1" x1="1589.7" y1="2164.8" x2="1614.4" y2="2164.8"/>
			<line id="XMLID_1856_" class="st1" x1="1567" y1="2060.6" x2="1637.1" y2="2060.6"/>
		</g>
	</g>
	<g id="_x31_0">
		<polygon id="XMLID_1775_" class="st0" points="1692.1,2148.2 1573.1,2148.2 358,2148.2 287.7,2148.2 -0.6,2148.2 -0.6,2181.7 
			939.7,2181.7 1084.9,2181.7 1919.4,2181.7 1919.4,2148.2 		"/>
		<rect id="XMLID_1774_" x="-0.6" y="2164.8" class="st1" width="1920" height="33.1"/>
		<rect id="XMLID_1773_" x="287.7" y="2164.8" class="st1" width="70.3" height="16.6"/>
		<rect id="XMLID_1772_" x="939.7" y="2181.4" class="st1" width="145.2" height="16.6"/>
		<rect id="XMLID_1771_" x="1573.1" y="2164.8" class="st1" width="119" height="16.6"/>
		<line id="XMLID_1770_" class="st1" x1="939.7" y1="2189.8" x2="1084.9" y2="2189.8"/>
		<line id="XMLID_1769_" class="st1" x1="288.1" y1="2170.3" x2="357.6" y2="2170.3"/>
		<line id="XMLID_1768_" class="st1" x1="1573.1" y1="2170.8" x2="1691.3" y2="2170.8"/>
	</g>
	<g id="_x31_5">
		<g id="XMLID_1050_">
			<path id="XMLID_1086_" class="st0" d="M556.1,2482.9v-6.6h-16v-37.9H540c-0.2-1.9-1.1-3.5-2.3-4.8l0,0l-16-16.2l-2.7-3.1l0,0
				v-57.6h-16.5v-154.8h12.7v-14.1h21v-6.1h-91.3v6.1h21v14.1h12.7v154.8h-16.5v57.6l0,0l-3,3.4h0.3l-14.8,14.9
				c-0.9,0.6-1.7,1.4-2.3,2.3l-0.5,0.5l0.1,0.1c-0.6,1.2-1,2.5-1,3.9l0,0v36.9h-16v6.6h-23.2v9.5h63.8v27.5h16.8v175.2h16.5v-175.2
				h16.8v-27.5h63.8v-9.5L556.1,2482.9L556.1,2482.9z M482.2,2476.3h-25v-34.1l24.5-24.5h0.5V2476.3z M498.7,2476.3v-58.6h0.1
				l24.8,25.2v33.4L498.7,2476.3L498.7,2476.3z"/>
			<rect id="XMLID_1085_" x="461.9" y="2371.1" class="st1" width="57" height="57"/>
			<polyline id="XMLID_1084_" class="st1" points="478.4,2217.9 478.4,2371.1 502.4,2371.1 502.4,2217.9 			"/>
			<g id="XMLID_1071_">
				<g id="XMLID_1078_">
					<circle id="XMLID_1083_" class="st1" cx="449" cy="2453" r="8.2"/>
					<line id="XMLID_1082_" class="st1" x1="443.2" y1="2447.2" x2="462.4" y2="2428.1"/>
					<line id="XMLID_1081_" class="st1" x1="454.8" y1="2458.8" x2="482.2" y2="2431.5"/>
					<line id="XMLID_1080_" class="st1" x1="440.8" y1="2453" x2="440.8" y2="2489.5"/>
					<line id="XMLID_1079_" class="st1" x1="457.2" y1="2456.4" x2="457.2" y2="2489.5"/>
				</g>
				<g id="XMLID_1072_">
					<circle id="XMLID_1077_" class="st1" cx="531.8" cy="2453" r="8.2"/>
					<line id="XMLID_1076_" class="st1" x1="537.6" y1="2447.2" x2="518.5" y2="2428.1"/>
					<line id="XMLID_1075_" class="st1" x1="526" y1="2458.8" x2="498.7" y2="2431.5"/>
					<line id="XMLID_1074_" class="st1" x1="540" y1="2453" x2="540" y2="2489.5"/>
					<line id="XMLID_1073_" class="st1" x1="523.6" y1="2456.4" x2="523.6" y2="2489.5"/>
				</g>
			</g>
			<line id="XMLID_1070_" class="st1" x1="459" y1="2431.5" x2="521.9" y2="2431.5"/>
			<rect id="XMLID_1069_" x="401.6" y="2496" class="st1" width="177.7" height="9.4"/>
			<rect id="XMLID_1068_" x="465.4" y="2505.4" class="st1" width="50" height="27.3"/>
			<rect id="XMLID_1067_" x="482.2" y="2532.6" class="st1" width="16.5" height="173.4"/>
			<rect id="XMLID_1066_" x="482.2" y="2431.5" class="st1" width="16.5" height="58"/>
			<rect id="XMLID_1065_" x="424.8" y="2489.5" class="st1" width="131.2" height="6.5"/>
			<rect id="XMLID_1064_" x="444.8" y="2197.9" class="st1" width="91.3" height="6"/>
			<rect id="XMLID_1063_" x="465.8" y="2203.9" class="st1" width="49.3" height="14"/>
			<line id="XMLID_1062_" class="st1" x1="478.6" y1="2222.8" x2="501.3" y2="2222.8"/>
			<line id="XMLID_1061_" class="st1" x1="478.6" y1="2228.8" x2="502.4" y2="2228.8"/>
			<line id="XMLID_1060_" class="st1" x1="478.6" y1="2237.8" x2="501.7" y2="2237.8"/>
			<line id="XMLID_1059_" class="st1" x1="510.6" y1="2371.1" x2="510.6" y2="2428.1"/>
			<line id="XMLID_1058_" class="st1" x1="498.6" y1="2372.3" x2="498.6" y2="2426.8"/>
			<line id="XMLID_1057_" class="st1" x1="466.1" y1="2371.8" x2="466.1" y2="2426.3"/>
			<line id="XMLID_1056_" class="st1" x1="472.6" y1="2372.3" x2="472.6" y2="2426.8"/>
			<line id="XMLID_1055_" class="st1" x1="465.4" y1="2511.3" x2="515.4" y2="2511.3"/>
			<line id="XMLID_1054_" class="st1" x1="482.1" y1="2537.8" x2="498.7" y2="2537.8"/>
			<line id="XMLID_1053_" class="st1" x1="482.6" y1="2543.3" x2="498.7" y2="2543.3"/>
			<line id="XMLID_1052_" class="st1" x1="492.8" y1="2237.8" x2="492.8" y2="2371.1"/>
			<line id="XMLID_1051_" class="st1" x1="465.6" y1="2210.3" x2="515.1" y2="2210.3"/>
		</g>
		<g id="XMLID_1036_">
			<polygon id="XMLID_1049_" class="st0" points="515.1,2142.2 515.1,2128 502.4,2128 502.4,1828.9 478.4,1828.9 478.4,2128 
				465.8,2128 465.8,2142.2 444.8,2142.2 444.8,2148.2 536.1,2148.2 536.1,2142.2 			"/>
			<line id="XMLID_1048_" class="st1" x1="478.4" y1="1848.8" x2="478.4" y2="2144.8"/>
			<line id="XMLID_1047_" class="st1" x1="502.4" y1="2144.8" x2="502.4" y2="1848.8"/>
			<rect id="XMLID_1046_" x="444.8" y="2158.8" class="st1" width="91.3" height="6"/>
			<rect id="XMLID_1045_" x="465.8" y="2144.8" class="st1" width="49.3" height="14"/>
			<line id="XMLID_1044_" class="st1" x1="478.4" y1="1855.8" x2="502.4" y2="1855.8"/>
			<line id="XMLID_1043_" class="st1" x1="478.6" y1="1860.8" x2="501.2" y2="1860.8"/>
			<line id="XMLID_1042_" class="st1" x1="479.1" y1="1872.3" x2="501.3" y2="1872.3"/>
			<line id="XMLID_1041_" class="st1" x1="465.6" y1="2153.3" x2="514.6" y2="2153.3"/>
			<line id="XMLID_1040_" class="st1" x1="479.6" y1="2138.3" x2="501.6" y2="2138.3"/>
			<line id="XMLID_1039_" class="st1" x1="478.6" y1="2130.8" x2="502.1" y2="2130.8"/>
			<line id="XMLID_1038_" class="st1" x1="492.8" y1="1872.3" x2="492.8" y2="2130.8"/>
			<line id="XMLID_1037_" class="st1" x1="478.4" y1="1848.8" x2="502.4" y2="1848.8"/>
		</g>
		<g id="XMLID_908_">
			<g id="XMLID_1007_">
				<path id="XMLID_1035_" class="st0" d="M390.2,1780.4v-37.7c-15.8,0-29.6,8.7-36.9,21.5h-33v7.6h-9.9v10h9.9v7.8h-9.9v10h9.9v7.6
					h33c7.4,12.9,21.1,21.5,36.9,21.5V1791h21.3v-10.8h-21.3V1780.4z"/>
				<path id="XMLID_1034_" class="st1" d="M390.2,1848.8v-85.2l0,0c-15.8,0-29.6,8.6-36.9,21.3h-33v42.6h33
					C360.6,1840.3,374.4,1848.8,390.2,1848.8L390.2,1848.8z"/>
				<rect id="XMLID_1033_" x="390.2" y="1800.8" class="st1" width="21.3" height="10.7"/>
				<line id="XMLID_1032_" class="st1" x1="381.5" y1="1764.5" x2="381.5" y2="1847.1"/>
				<rect id="XMLID_1031_" x="310.3" y="1792.4" class="st1" width="9.9" height="9.9"/>
				<rect id="XMLID_1030_" x="310.3" y="1810.1" class="st1" width="9.9" height="9.9"/>
				<path id="XMLID_1029_" class="st1" d="M310.3,1796.4c-7.2-1.8-15.7,1.8-19.1,8.5c-0.7,1.4-1.2,2.9-1.3,4.4
					c-0.1,4.2,3.4,7.8,7.4,9.1c4.1,1.4,8.6-3,13-3.4"/>
				<path id="XMLID_1028_" class="st1" d="M310.3,1797.8c-4.6-0.3-9.6-3.3-13.1-5.8c-13.2-9.2-19.7-27.5-22.1-40.8"/>
				<line id="XMLID_1027_" class="st1" x1="329.6" y1="1785.7" x2="329.6" y2="1827.5"/>
				<line id="XMLID_1026_" class="st1" x1="353.2" y1="1784.9" x2="353.2" y2="1827.5"/>
				<line id="XMLID_1025_" class="st1" x1="348.1" y1="1785.7" x2="348.1" y2="1827.5"/>
				<line id="XMLID_1024_" class="st1" x1="381.6" y1="1774.3" x2="389.9" y2="1774.3"/>
				<line id="XMLID_1023_" class="st1" x1="381.6" y1="1781.8" x2="388.9" y2="1781.8"/>
				<line id="XMLID_1022_" class="st1" x1="381.5" y1="1792.3" x2="389.2" y2="1792.3"/>
				<line id="XMLID_1021_" class="st1" x1="382.1" y1="1802.3" x2="390.2" y2="1802.3"/>
				<line id="XMLID_1020_" class="st1" x1="381.6" y1="1810.3" x2="390.2" y2="1810.3"/>
				<line id="XMLID_1019_" class="st1" x1="395.1" y1="1801.8" x2="395.1" y2="1811.3"/>
				<line id="XMLID_1018_" class="st1" x1="400.6" y1="1801.3" x2="400.6" y2="1810.3"/>
				<line id="XMLID_1017_" class="st1" x1="382.1" y1="1819.3" x2="389.6" y2="1819.3"/>
				<line id="XMLID_1016_" class="st1" x1="381.5" y1="1829.3" x2="389.2" y2="1829.3"/>
				<line id="XMLID_1015_" class="st1" x1="381.6" y1="1840.3" x2="389.6" y2="1840.3"/>
				<line id="XMLID_1014_" class="st1" x1="329.6" y1="1822.3" x2="348.1" y2="1822.3"/>
				<line id="XMLID_1013_" class="st1" x1="330.1" y1="1816.3" x2="347.7" y2="1816.3"/>
				<line id="XMLID_1012_" class="st1" x1="316.1" y1="1792.8" x2="316.1" y2="1801.8"/>
				<line id="XMLID_1011_" class="st1" x1="316.6" y1="1810.8" x2="316.6" y2="1819.9"/>
				<path id="XMLID_1010_" class="st1" d="M353.5,1819.1c1.8,0.7,2.8,2.6,3.9,4.2c4.9,7.7,13.7,12.7,22.7,13"/>
				<path id="XMLID_1009_" class="st1" d="M353.9,1811.6c5.2,9,16.6,13.8,26.8,11.5"/>
				<path id="XMLID_1008_" class="st1" d="M354.4,1792.5c7.8-5.8,17.3-9.3,27-9.9"/>
			</g>
			<g id="XMLID_909_">
				<g id="XMLID_1000_">
					<rect id="XMLID_1006_" x="581.3" y="1765.6" class="st0" width="10.8" height="40.4"/>
					<path id="XMLID_1001_" class="st0" d="M601.2,1730.6v-24.3H559c5.8-5.5,9.5-13.4,9.5-22.1c0-0.2,0-0.3,0-0.5l0,0l0,0
						c-0.3-16.4-13.5-29.6-29.8-29.6c-16.5,0-29.8,13.5-29.8,30.1c0,5.3,1.3,10.2,3.7,14.5l0,0l0,0c1.5,2.8,3.5,5.4,5.8,7.6h-46.5
						H469c5.8-5.5,9.5-13.4,9.5-22.1c0-16.6-13.4-30.1-29.8-30.1s-29.8,13.5-29.8,30.1c0,8.7,3.7,16.6,9.5,22.1H-1.4v24.3h439.5
						v12.1h-26.6v86.1h9.8v45.4h6.7v10h9.9v-10h7.7v10h9.9v-10h10.7v-45.4h103.2v-86.1h-20.2v-12.1H601.2z M448.6,1688
						c-12.5,0-10.5,14.6-10.5,14.6c-5.7-3.6-9.5-9.9-9.5-17.2c0-11.2,9-20.2,20-20.2s20,9,20,20.2c0,7.3-3.8,13.6-9.5,17.2
						C459.1,1702.5,461.1,1688,448.6,1688z M528.2,1742.8h-69.1v-12.1h69.1V1742.8z M538.7,1688c-12.7,0-10.5,14.6-10.5,14.6
						c-5.7-3.6-9.5-9.9-9.5-17.2c0-11.2,9-20.2,20-20.2s20,9,20,20.2c0,7.3-3.8,13.6-9.5,17.2C549.2,1702.5,551.3,1688,538.7,1688z"
						/>
				</g>
				<g id="XMLID_994_">
					<path id="XMLID_999_" class="st1" d="M569.4,1774.3h5.4c6.6,0,11.9,5.3,11.9,11.9l0,0"/>
					<path id="XMLID_998_" class="st1" d="M586.7,1826.2L586.7,1826.2c0,6.6-5.3,11.9-11.9,11.9h-5.4"/>
					<rect id="XMLID_997_" x="581.3" y="1786.2" class="st1" width="10.8" height="40"/>
					<line id="XMLID_996_" class="st1" x1="592.1" y1="1794" x2="581.3" y2="1794"/>
					<line id="XMLID_995_" class="st1" x1="592.1" y1="1818.4" x2="581.3" y2="1818.4"/>
				</g>
				<g id="XMLID_910_">
					<g id="XMLID_986_">
						<g id="XMLID_989_">
							<rect id="XMLID_993_" x="421.3" y="1848.8" class="st1" width="44.9" height="44.9"/>
							<g id="XMLID_990_">
								<circle id="XMLID_992_" class="st1" cx="443.8" cy="1871.3" r="10.8"/>
								<circle id="XMLID_991_" class="st1" cx="443.8" cy="1871.3" r="6.9"/>
							</g>
						</g>
						<rect id="XMLID_988_" x="428" y="1893.8" class="st1" width="9.9" height="9.9"/>
						<rect id="XMLID_987_" x="445.6" y="1893.8" class="st1" width="9.9" height="9.9"/>
					</g>
					<line id="XMLID_985_" class="st1" x1="583" y1="1727.6" x2="549.2" y2="1727.6"/>
					<line id="XMLID_984_" class="st1" x1="528.2" y1="1727.6" x2="459.1" y2="1727.6"/>
					<polyline id="XMLID_983_" class="st1" points="438.1,1727.6 -1.4,1727.6 -1.4,1751.6 438.1,1751.6 					"/>
					<line id="XMLID_982_" class="st1" x1="459.1" y1="1751.6" x2="528.2" y2="1751.6"/>
					<line id="XMLID_981_" class="st1" x1="549.2" y1="1751.6" x2="580" y2="1751.6"/>
					<line id="XMLID_980_" class="st1" x1="459.1" y1="1763.6" x2="528.2" y2="1763.6"/>
					<polyline id="XMLID_979_" class="st1" points="549.2,1763.6 569.4,1763.6 569.4,1848.8 411.5,1848.8 411.5,1763.6 
						438.1,1763.6 					"/>
					<rect id="XMLID_978_" x="580" y="1727.6" class="st1" width="21.2" height="24"/>
					<line id="XMLID_977_" class="st1" x1="424.1" y1="1763.6" x2="424.1" y2="1848.8"/>
					<rect id="XMLID_976_" x="438.1" y="1719.8" class="st1" width="21" height="67.5"/>
					<path id="XMLID_975_" class="st1" d="M459.1,1719.8c0-5.8-4.7-10.5-10.5-10.5s-10.5,4.7-10.5,10.5"/>
					<g id="XMLID_972_">
						<rect id="XMLID_974_" x="528.2" y="1719.8" class="st1" width="21" height="67.5"/>
						<path id="XMLID_973_" class="st1" d="M549.2,1719.8c0-5.8-4.7-10.5-10.5-10.5s-10.5,4.7-10.5,10.5"/>
					</g>
					<path id="XMLID_971_" class="st1" d="M459.1,1724.7c5.9-3.6,9.9-10.1,9.9-17.5c0-11.3-9.1-20.4-20.4-20.4s-20.4,9.1-20.4,20.4
						c0,7.4,4,13.9,9.9,17.5"/>
					<path id="XMLID_970_" class="st1" d="M549.2,1724.7c5.9-3.6,9.9-10.1,9.9-17.5c0-11.3-9.1-20.4-20.4-20.4
						c-11.3,0-20.4,9.1-20.4,20.4c0,7.4,4,13.9,9.9,17.5"/>
					<path id="XMLID_969_" class="st1" d="M428.3,1727.6c-5.8-5.4-9.5-13.2-9.5-21.8c0-16.5,13.4-29.8,29.8-29.8
						s29.8,13.4,29.8,29.8c0,8.6-3.7,16.4-9.5,21.8"/>
					<path id="XMLID_968_" class="st1" d="M518.3,1727.6c-5.8-5.4-9.5-13.2-9.5-21.8c0-16.5,13.4-29.8,29.8-29.8
						c16.5,0,29.8,13.4,29.8,29.8c0,8.6-3.7,16.4-9.5,21.8"/>
					<g id="XMLID_962_">
						<rect id="XMLID_967_" x="481.6" y="1785.7" class="st1" width="17.6" height="45.2"/>
						<rect id="XMLID_966_" x="499.2" y="1794.8" class="st1" width="9.9" height="9.9"/>
						<rect id="XMLID_965_" x="499.2" y="1812.8" class="st1" width="9.9" height="9.9"/>
						<rect id="XMLID_964_" x="471.7" y="1794.8" class="st1" width="9.9" height="9.9"/>
						<rect id="XMLID_963_" x="471.7" y="1812.8" class="st1" width="9.9" height="9.9"/>
					</g>
					<path id="XMLID_961_" class="st1" d="M509.2,1800.5c5,1.1,10.1,2,15.2,1.8c5.3-0.2,10.7-1.6,14.9-4.9c3.5-2.7,4-6.4,6.3-10.2"
						/>
					<path id="XMLID_960_" class="st1" d="M509.2,1818.5c5.9,0.8,12,1.1,17-1.9c5.2-3.1,7.8-9.1,9.6-14.8c1.5-4.7,2.6-9.6,3.3-14.5"
						/>
					<path id="XMLID_959_" class="st1" d="M471.7,1818.3c-4.4,1.1-8.7,2.7-12.9,4.3c-18.1,6.8-37.2,14.3-48.8,29.7
						c-8.8,11.6-12.3,26.5-12.1,41.1c0.1,9.1,1.9,18.8,8.3,25.3s18.5,7.8,24.1,0.6c3.3-4.3,3.6-10.2,3.3-15.5"/>
					<path id="XMLID_958_" class="st1" d="M471.7,1800.1c-10.7,3.5-20,10.4-28.2,18.2c-12.4,11.7-22.8,25.6-29.1,41.5
						c-6.3,15.8-8.1,33.6-3.8,50.1c2.7,10.4,8.5,20.7,18.3,25.2c5.6,2.6,12.7,2.8,17.4-1.1c4-3.3,5.5-8.7,6.1-13.8
						c0.6-5.5,0.2-11-0.9-16.3"/>
					<line id="XMLID_957_" class="st1" x1="553.1" y1="1728.3" x2="553.1" y2="1751.6"/>
					<line id="XMLID_956_" class="st1" x1="559.1" y1="1728.8" x2="559.1" y2="1751.6"/>
					<line id="XMLID_955_" class="st1" x1="465.1" y1="1728.8" x2="465.1" y2="1751.6"/>
					<line id="XMLID_954_" class="st1" x1="471.1" y1="1727.8" x2="471.1" y2="1750.3"/>
					<line id="XMLID_953_" class="st1" x1="523.1" y1="1728.3" x2="523.1" y2="1750.3"/>
					<line id="XMLID_952_" class="st1" x1="432.1" y1="1728.3" x2="432.1" y2="1751.6"/>
					<line id="XMLID_951_" class="st1" x1="427.1" y1="1726.8" x2="427.1" y2="1750.3"/>
					<line id="XMLID_950_" class="st1" x1="411.6" y1="1727.8" x2="411.6" y2="1750.9"/>
					<line id="XMLID_949_" class="st1" x1="412.1" y1="1773.3" x2="423.1" y2="1773.3"/>
					<line id="XMLID_948_" class="st1" x1="411.6" y1="1780.8" x2="422.6" y2="1780.8"/>
					<line id="XMLID_947_" class="st1" x1="411.5" y1="1820.8" x2="423.2" y2="1820.8"/>
					<line id="XMLID_946_" class="st1" x1="438.6" y1="1781.8" x2="457.6" y2="1781.8"/>
					<line id="XMLID_945_" class="st1" x1="438.6" y1="1774.3" x2="458.6" y2="1774.3"/>
					<path id="XMLID_944_" class="st1" d="M529.1,1782.8c0.2,0,0.3,0,0.5,0h18.5"/>
					<line id="XMLID_943_" class="st1" x1="529.1" y1="1774.8" x2="548.1" y2="1774.8"/>
					<line id="XMLID_942_" class="st1" x1="503.1" y1="1795.3" x2="503.1" y2="1803.3"/>
					<line id="XMLID_941_" class="st1" x1="504.1" y1="1814.3" x2="504.1" y2="1821.4"/>
					<line id="XMLID_940_" class="st1" x1="477.6" y1="1813.3" x2="477.6" y2="1821.8"/>
					<line id="XMLID_939_" class="st1" x1="477.1" y1="1795.8" x2="477.1" y2="1803.3"/>
					<line id="XMLID_938_" class="st1" x1="421.6" y1="1853.3" x2="466.2" y2="1853.3"/>
					<line id="XMLID_937_" class="st1" x1="428" y1="1898.3" x2="437.9" y2="1898.3"/>
					<line id="XMLID_936_" class="st1" x1="445.6" y1="1897.8" x2="455.6" y2="1897.8"/>
					<line id="XMLID_935_" class="st1" x1="454.1" y1="1720.8" x2="454.1" y2="1772.9"/>
					<line id="XMLID_934_" class="st1" x1="450.6" y1="1720.3" x2="450.6" y2="1774.3"/>
					<line id="XMLID_933_" class="st1" x1="534.1" y1="1720.8" x2="534.1" y2="1774.8"/>
					<line id="XMLID_932_" class="st1" x1="538.6" y1="1721.3" x2="538.6" y2="1774.8"/>
					<path id="XMLID_931_" class="st1" d="M552.9,1721.8c1.6,2,3.5,3.7,5.7,5"/>
					<path id="XMLID_930_" class="st1" d="M556.7,1717.7c2,1.2,4,2.4,5.9,3.6"/>
					<path id="XMLID_929_" class="st1" d="M558.5,1712c2.7,1.2,5.7,1.8,8.6,1.9"/>
					<path id="XMLID_928_" class="st1" d="M559.1,1706.8c3.2-0.2,6.3-0.7,9.4-1.5"/>
					<path id="XMLID_927_" class="st1" d="M523.3,1721c-1.9,1.5-3.9,3-5.8,4.6"/>
					<path id="XMLID_926_" class="st1" d="M519.9,1715.2c-2.7,1.2-5.2,2.9-7.4,4.9"/>
					<path id="XMLID_925_" class="st1" d="M517.6,1710.1c-2.7,0.7-5.3,1.3-8,2"/>
					<path id="XMLID_924_" class="st1" d="M509.1,1704.8c2.8,0,5.7,0,8.5,0"/>
					<path id="XMLID_923_" class="st1" d="M463.2,1722.3c1.5,1.7,3,3.3,4.5,5"/>
					<path id="XMLID_922_" class="st1" d="M467.1,1718.3c2,1.2,4.2,2.1,6.5,2.5"/>
					<path id="XMLID_921_" class="st1" d="M468.6,1711.8c2.5,0.5,5,1.1,7.5,1.6"/>
					<path id="XMLID_920_" class="st1" d="M470.1,1705.8c2.3-0.3,4.7-0.7,7-1"/>
					<path id="XMLID_919_" class="st1" d="M468.2,1698.5c2.3-1,4.6-2.1,7-3.1"/>
					<path id="XMLID_918_" class="st1" d="M434.5,1721.8c-1.6,1.9-3.2,3.8-4.8,5.6"/>
					<path id="XMLID_917_" class="st1" d="M430.3,1717.4c-2,1.5-4,3.1-6,4.7"/>
					<path id="XMLID_916_" class="st1" d="M427.1,1711.3c-2.1,0.7-4.3,1.4-6.4,2.2"/>
					<path id="XMLID_915_" class="st1" d="M418.8,1705.4c2.9-0.1,5.9-0.3,8.8-0.4"/>
					<path id="XMLID_914_" class="st1" d="M420.6,1696.2c3.3,0.5,6.6,1.1,9.9,1.6"/>
					<line id="XMLID_913_" class="st1" x1="424.8" y1="1841.5" x2="568.8" y2="1841.5"/>
					<line id="XMLID_912_" class="st1" x1="-0.9" y1="1744.8" x2="410.1" y2="1744.8"/>
					<line id="XMLID_911_" class="st1" x1="-0.4" y1="1740.8" x2="410.3" y2="1740.8"/>
				</g>
			</g>
		</g>
	</g>
	<g id="_x31_7">
		<g id="XMLID_211_">
			<line id="XMLID_253_" class="st1" x1="1243.1" y1="2202.8" x2="1271.4" y2="2202.8"/>
			<line id="XMLID_252_" class="st1" x1="1243.6" y1="2207.8" x2="1269.8" y2="2207.8"/>
			<line id="XMLID_212_" class="st1" x1="1919.4" y1="2222.6" x2="1919.4" y2="2228.8"/>
		</g>
		<g id="XMLID_69_">
			<line id="XMLID_79_" class="st1" x1="1588.6" y1="2203.3" x2="1611.2" y2="2203.3"/>
			<line id="XMLID_78_" class="st1" x1="1587.1" y1="2208.8" x2="1610.6" y2="2208.8"/>
		</g>
		<g id="XMLID_2_">
			<g id="XMLID_3_">
				<circle id="XMLID_37_" class="st1" cx="492.4" cy="2730.4" r="3.8"/>
				<circle id="XMLID_32_" class="st1" cx="509.6" cy="2687.8" r="4.5"/>
				<line id="XMLID_4_" class="st3" x1="771.6" y1="2728" x2="771.6" y2="2766.5"/>
			</g>
		</g>
	</g>
</g>
</svg>
