<?xml version="1.0" encoding="utf-8"?>
<!-- Generator: Adobe Illustrator 19.0.0, SVG Export Plug-In . SVG Version: 6.00 Build 0)  -->
<svg version="1.1" id="Слой_1" xmlns="http://www.w3.org/2000/svg" xmlns:xlink="http://www.w3.org/1999/xlink" x="0px" y="0px"
	 viewBox="0 0 1920 3560" style="enable-background:new 0 0 1920 3560;" xml:space="preserve">
<style type="text/css">
	.st0{fill:#F4E1A1;}
	.st1{fill:none;stroke:#817957;stroke-width:2;stroke-linecap:round;stroke-linejoin:round;stroke-miterlimit:10;}
	.st2{fill:none;stroke:#817957;stroke-linecap:round;stroke-linejoin:round;stroke-miterlimit:10;}
	
		.st3{fill:none;stroke:#817957;stroke-width:2;stroke-linecap:round;stroke-linejoin:round;stroke-miterlimit:10;stroke-dasharray:6.8508;}
</style>
<g id="_x30_4">
	<g id="XMLID_2308_">
		<polygon id="XMLID_2345_" class="st0" points="1674.2,891.5 1674.2,862.5 1597.9,862.5 1597.9,855 1427.6,855 1427.6,862.5 
			1351.4,862.5 1351.4,920.5 1702.8,920.5 1702.8,891.5 		"/>
		<polyline id="XMLID_2344_" class="st1" points="1702.8,949.8 1702.8,921.1 1674.2,921.1 1674.2,892.5 1351.4,892.5 1351.4,949.8 
			1702.8,949.8 		"/>
		<rect id="XMLID_2343_" x="1427.6" y="885" class="st1" width="170.2" height="7.4"/>
		<g id="XMLID_2333_">
			<g id="XMLID_2340_">
				<circle id="XMLID_2342_" class="st1" cx="1465.4" cy="928.6" r="10.8"/>
				<circle id="XMLID_2341_" class="st1" cx="1465.4" cy="928.6" r="6.9"/>
			</g>
			<g id="XMLID_2337_">
				<circle id="XMLID_2339_" class="st1" cx="1411.4" cy="928.6" r="10.8"/>
				<circle id="XMLID_2338_" class="st1" cx="1411.4" cy="928.6" r="6.9"/>
			</g>
			<g id="XMLID_2334_">
				<circle id="XMLID_2336_" class="st1" cx="1438.4" cy="928.6" r="10.8"/>
				<circle id="XMLID_2335_" class="st1" cx="1438.4" cy="928.6" r="6.9"/>
			</g>
		</g>
		<line id="XMLID_2332_" class="st1" x1="1674.2" y1="906.9" x2="1351.4" y2="906.9"/>
		<line id="XMLID_2331_" class="st2" x1="1587.8" y1="885.5" x2="1587.8" y2="891.8"/>
		<line id="XMLID_2330_" class="st2" x1="1583.8" y1="885.8" x2="1583.8" y2="891.5"/>
		<line id="XMLID_2329_" class="st2" x1="1559.1" y1="885.2" x2="1559.1" y2="892.2"/>
		<path id="XMLID_2328_" class="st2" d="M1465.6,935.8c-0.2,1.3,0,2.6,0.5,3.8"/>
		<path id="XMLID_2327_" class="st2" d="M1469.1,934.4c0.8,0.6,1.7,1.2,2.5,1.8"/>
		<path id="XMLID_2326_" class="st2" d="M1471.8,930.8c1.1-0.1,2.3,0.1,3.4,0.4"/>
		<path id="XMLID_2325_" class="st2" d="M1471.5,925.1c0.5-1,1.5-1.8,2.6-2.1"/>
		<path id="XMLID_2324_" class="st2" d="M1466.9,918.2c0.1,1.1,0,2.2-0.2,3.3"/>
		<path id="XMLID_2323_" class="st2" d="M1459.6,919.9c0.5,0.9,1.1,1.7,1.7,2.5"/>
		<path id="XMLID_2322_" class="st2" d="M1455.8,925.8c0.6,0.2,1.2,0.3,1.8,0.5"/>
		<path id="XMLID_2321_" class="st2" d="M1458.5,930.7c-0.7,0.7-1.4,1.4-2.2,2.2"/>
		<path id="XMLID_2320_" class="st2" d="M1461.1,934.3c-0.6,0.8-1.3,1.6-2,2.3"/>
		<path id="XMLID_2319_" class="st2" d="M1439.3,935.8c0,1.1,0.3,2.2,0.7,3.2"/>
		<path id="XMLID_2318_" class="st2" d="M1443.1,933.7c1,0.7,2,1.4,3,2.1"/>
		<path id="XMLID_2317_" class="st2" d="M1445.1,930.6c1.1,0.2,2.2,0.5,3.3,0.7"/>
		<path id="XMLID_2316_" class="st2" d="M1444.8,924.5c0,0.3,1.5-1.7,2-2.2"/>
		<path id="XMLID_2315_" class="st2" d="M1439.5,918c0,1.1-0.2,2.1-0.6,3.1"/>
		<path id="XMLID_2314_" class="st2" d="M1432.1,920.5c0.6,0.7,1.1,1.4,1.7,2.2"/>
		<path id="XMLID_2313_" class="st2" d="M1427.8,926.1c1.1,0.2,2.2,0.3,3.3,0.4"/>
		<path id="XMLID_2312_" class="st2" d="M1431.8,930.7c-0.9,1.2-2.9,1.5-3.5,3"/>
		<path id="XMLID_2311_" class="st2" d="M1434.5,934c-0.3,1.3-0.7,2.5-1.2,3.7"/>
		<line id="XMLID_2310_" class="st2" x1="1351.1" y1="901.3" x2="1673.6" y2="901.3"/>
		<path id="XMLID_2309_" class="st2" d="M1476.1,927.8c0.3,0,0.7,0,1,0h225.5"/>
	</g>
	<g id="XMLID_2289_">
		<path id="XMLID_2307_" class="st0" d="M1339.4,733.7c-16.6,0-30,13.6-30,30.3c0,12.5,7.4,23.2,18.1,27.8v8h8.4l0,0h-8.4V820h-5.5
			v5.7h-5.5v30.9h5.5v5.7h5.5v58h23.9V799.9h-8.4l0,0h8.4v-8l0,0c10.6-4.7,18.1-15.4,18.1-27.8
			C1369.4,747.3,1356,733.7,1339.4,733.7z"/>
		<g id="XMLID_2304_">
			<polyline id="XMLID_2306_" class="st1" points="1322,886.8 1316.5,886.8 1316.5,856.2 1322,856.2 			"/>
			<rect id="XMLID_2305_" x="1322" y="850.5" class="st1" width="5.5" height="41.9"/>
		</g>
		<polyline id="XMLID_2303_" class="st1" points="1351.4,830.5 1351.4,949.8 1327.4,949.8 1327.4,830.5 		"/>
		<polyline id="XMLID_2302_" class="st1" points="1351.4,822.6 1351.4,830.5 1327.4,830.5 1327.4,822.6 		"/>
		<path id="XMLID_2301_" class="st1" d="M1351.4,822.6c10.6-4.6,18.1-15.2,18.1-27.6c0-16.6-13.4-30-30-30s-30,13.4-30,30
			c0,12.3,7.4,22.9,18.1,27.6"/>
		<path id="XMLID_2300_" class="st1" d="M1339.4,781.9L1339.4,781.9c-2,0-3.5,1.6-3.5,3.5v45.1h7.1v-45.1
			C1342.9,783.5,1341.4,781.9,1339.4,781.9z"/>
		<line id="XMLID_2299_" class="st1" x1="1327.4" y1="834.4" x2="1351.4" y2="834.4"/>
		<line id="XMLID_2298_" class="st1" x1="1327.4" y1="840.2" x2="1351.4" y2="840.2"/>
		<g id="XMLID_2295_">
			<circle id="XMLID_2297_" class="st1" cx="1339.4" cy="857.4" r="6.9"/>
			<circle id="XMLID_2296_" class="st1" cx="1339.4" cy="857.4" r="4.3"/>
		</g>
		<g id="XMLID_2292_">
			<circle id="XMLID_2294_" class="st1" cx="1339.4" cy="885.6" r="6.9"/>
			<circle id="XMLID_2293_" class="st1" cx="1339.4" cy="885.6" r="4.3"/>
		</g>
		<line id="XMLID_2291_" class="st1" x1="1335.9" y1="949.8" x2="1335.9" y2="912.3"/>
		<path id="XMLID_2290_" class="st2" d="M1341.1,892.3c0,0.2,0,0.3,0,0.5v56.1"/>
	</g>
	<g id="XMLID_2286_">
		<line id="XMLID_2288_" class="st3" x1="1391.2" y1="892.5" x2="1391.2" y2="652.5"/>
		<line id="XMLID_2287_" class="st3" x1="1634.3" y1="652.5" x2="1634.3" y2="892.5"/>
	</g>
	<g id="XMLID_2266_">
		<g id="XMLID_2282_">
			<polygon id="XMLID_2285_" class="st0" points="1388.4,218.1 1373.7,218.1 1373.7,429.2 1388.4,429.2 1388.4,403.8 1406.1,403.8 
				1406.1,358.2 1388.4,358.2 			"/>
			<rect id="XMLID_2284_" x="1406.1" y="367.3" class="st0" width="9.9" height="10"/>
			<rect id="XMLID_2283_" x="1406.1" y="385.5" class="st0" width="9.9" height="10"/>
		</g>
		<rect id="XMLID_2281_" x="1373.7" y="254.7" class="st1" width="14.7" height="209"/>
		<g id="XMLID_2277_">
			<rect id="XMLID_2280_" x="1388.4" y="393.3" class="st1" width="17.6" height="45.2"/>
			<rect id="XMLID_2279_" x="1406.1" y="402.4" class="st1" width="9.9" height="9.9"/>
			<rect id="XMLID_2278_" x="1406.1" y="420.4" class="st1" width="9.9" height="9.9"/>
		</g>
		<path id="XMLID_2276_" class="st1" d="M1416,407.7c29.4-0.2,58.9,0.3,88.3,1.9"/>
		<path id="XMLID_2275_" class="st1" d="M1519.6,410.6c3.8,0.3,7.5,0.5,11.3,0.8c10.2,0.8,20.5,1.7,30.8,2.3"/>
		<path id="XMLID_2274_" class="st1" d="M1584.2,414.1c9.4-0.2,18.8-1.1,28.1-3c26.7-5.4,53.1-21.1,63.4-46.4"/>
		<path id="XMLID_2273_" class="st1" d="M1416,425.5c25.4-2.8,51.2,0.4,75.9,6.7c4.1,1.1,8.2,2.2,12.3,3.4"/>
		<path id="XMLID_2272_" class="st1" d="M1519.6,440.2c30.4,9.3,61,18.9,91.8,13.6c41.9-7.2,78.7-42.5,79.2-89"/>
		<line id="XMLID_2271_" class="st2" x1="1379.1" y1="254.8" x2="1379.1" y2="462.9"/>
		<line id="XMLID_2270_" class="st2" x1="1392.6" y1="393.3" x2="1392.6" y2="436.9"/>
		<path id="XMLID_2269_" class="st2" d="M1395.6,393.8c-0.3,13.8,0.7,27.7,2.9,41.3c0.2,1.3,0.4,2.6,0.8,3.8"/>
		<path id="XMLID_2268_" class="st2" d="M1410.1,402.8c0.2,3.3,0.2,6.7-0.2,10"/>
		<path id="XMLID_2267_" class="st2" d="M1410.9,421.3c-0.4,3-0.8,6-1.2,9"/>
	</g>
	<g id="XMLID_2259_">
		<rect id="XMLID_2265_" x="1727" y="341.3" class="st0" width="40" height="10.9"/>
		<path id="XMLID_2264_" class="st1" d="M1778.9,364.8v5.4c0,6.6-5.3,11.9-11.9,11.9l0,0"/>
		<path id="XMLID_2263_" class="st1" d="M1727,382.1L1727,382.1c-6.6,0-11.9-5.3-11.9-11.9v-5.4"/>
		<rect id="XMLID_2262_" x="1727" y="376.6" class="st1" width="40" height="10.8"/>
		<line id="XMLID_2261_" class="st1" x1="1759.2" y1="387.4" x2="1759.2" y2="376.6"/>
		<line id="XMLID_2260_" class="st1" x1="1734.8" y1="387.4" x2="1734.8" y2="376.6"/>
	</g>
	<g id="XMLID_2252_">
		<rect id="XMLID_2258_" x="1474.1" y="251" class="st0" width="40" height="10.9"/>
		<path id="XMLID_2257_" class="st1" d="M1462.2,310v-5.4c0-6.6,5.3-11.9,11.9-11.9l0,0"/>
		<path id="XMLID_2256_" class="st1" d="M1514.2,292.6L1514.2,292.6c6.6,0,11.9,5.3,11.9,11.9v5.4"/>
		<rect id="XMLID_2255_" x="1474.1" y="287.3" class="st1" width="40" height="10.8"/>
		<line id="XMLID_2254_" class="st1" x1="1481.9" y1="287.3" x2="1481.9" y2="298.1"/>
		<line id="XMLID_2253_" class="st1" x1="1506.4" y1="287.3" x2="1506.4" y2="298.1"/>
	</g>
	<g id="XMLID_2241_">
		<path id="XMLID_2251_" class="st0" d="M1578.4,168.9c-16.6,0-30,13.6-30,30.3c0,12.5,7.4,23.2,18.1,27.8l0,0v8l0,0v38.8h23.9V235
			l0,0v-8l0,0c10.6-4.7,18.1-15.4,18.1-27.8C1608.5,182.5,1595,168.9,1578.4,168.9z"/>
		<polyline id="XMLID_2250_" class="st1" points="1590.4,271.6 1590.4,310 1566.5,310 1566.5,271.6 		"/>
		<polyline id="XMLID_2249_" class="st1" points="1590.4,263.6 1590.4,271.6 1566.5,271.6 1566.5,263.6 		"/>
		<path id="XMLID_2248_" class="st1" d="M1590.4,263.6c10.6-4.6,18.1-15.2,18.1-27.6c0-16.6-13.4-30-30-30s-30,13.4-30,30
			c0,12.3,7.4,22.9,18.1,27.6"/>
		<path id="XMLID_2247_" class="st1" d="M1578.4,222.9L1578.4,222.9c-2,0-3.5,1.6-3.5,3.5v45.1h7.1v-45.1
			C1582,224.5,1580.4,222.9,1578.4,222.9z"/>
		<line id="XMLID_2246_" class="st1" x1="1566.5" y1="275.5" x2="1590.4" y2="275.5"/>
		<line id="XMLID_2245_" class="st1" x1="1566.5" y1="281.3" x2="1590.4" y2="281.3"/>
		<line id="XMLID_2244_" class="st2" x1="1585.6" y1="281.3" x2="1585.6" y2="309.3"/>
		<line id="XMLID_2243_" class="st2" x1="1581.6" y1="281.8" x2="1581.6" y2="310"/>
		<line id="XMLID_2242_" class="st2" x1="1571.6" y1="281.8" x2="1571.6" y2="309.9"/>
	</g>
	<g id="XMLID_2229_">
		<rect id="XMLID_2240_" x="1388.4" y="273.9" class="st0" width="533" height="55.4"/>
		<polyline id="XMLID_2239_" class="st1" points="1921.4,364.8 1388.4,364.8 1388.4,310 1921.4,310 		"/>
		<line id="XMLID_2238_" class="st1" x1="1389.1" y1="320.3" x2="1921.4" y2="320.3"/>
		<line id="XMLID_2237_" class="st1" x1="1389.1" y1="325.8" x2="1921.4" y2="325.8"/>
		<rect id="XMLID_2236_" x="1481.9" y="325.8" class="st1" width="74.2" height="21.5"/>
		<line id="XMLID_2235_" class="st2" x1="1482.1" y1="329.8" x2="1554.8" y2="329.8"/>
		<line id="XMLID_2234_" class="st2" x1="1482.1" y1="343.3" x2="1555.2" y2="343.3"/>
		<line id="XMLID_2233_" class="st2" x1="1393.6" y1="325.8" x2="1393.6" y2="363.4"/>
		<line id="XMLID_2232_" class="st2" x1="1397.1" y1="325.8" x2="1397.1" y2="364"/>
		<line id="XMLID_2231_" class="st2" x1="1397.1" y1="357.8" x2="1921.4" y2="357.8"/>
		<line id="XMLID_2230_" class="st1" x1="1921.4" y1="310" x2="1921.4" y2="364.8"/>
	</g>
	<g id="XMLID_2151_">
		<polygon id="XMLID_2228_" class="st0" points="1597.9,535.4 1597.9,527.9 1584.2,527.9 1584.2,496.8 1584.2,496.8 1584.2,496.8 
			1584.2,329.3 1561.7,329.3 1561.7,527.9 1519.6,527.9 1519.6,329.3 1504.3,329.3 1504.3,527.9 1484,527.9 1484,486.1 1484,486.1 
			1484,486.1 1484,478.8 1484,478.8 1484,478.8 1484,329.3 1441.4,329.3 1441.4,479.8 1441.4,479.8 1441.4,479.8 1441.4,484.5 
			1441.4,484.5 1441.4,484.5 1441.4,492.4 1441.4,492.4 1441.4,492.4 1441.4,527.9 1427.6,527.9 1427.6,535.4 1427.6,535.4 
			1351.4,593.4 1351.4,600.9 1375.7,600.9 1375.7,620 1649.8,620 1649.8,600.9 1674.2,600.9 1674.2,593.4 		"/>
		<rect id="XMLID_2227_" x="1427.6" y="561.3" class="st1" width="170.2" height="7.4"/>
		<rect id="XMLID_2226_" x="1351.4" y="626.1" class="st1" width="322.8" height="7.4"/>
		<polygon id="XMLID_2225_" class="st1" points="1351.4,626.1 1674.2,626.1 1597.9,568.8 1427.6,568.8 		"/>
		<line id="XMLID_2224_" class="st1" x1="1561.7" y1="547" x2="1519.6" y2="547"/>
		<line id="XMLID_2223_" class="st1" x1="1504.3" y1="547" x2="1484" y2="547"/>
		<polyline id="XMLID_2222_" class="st1" points="1441.4,364.8 1441.4,561.3 1484,561.3 1484,364.8 		"/>
		<polyline id="XMLID_2221_" class="st1" points="1519.6,364.8 1519.6,561.3 1504.3,561.3 1504.3,364.8 		"/>
		<polyline id="XMLID_2220_" class="st1" points="1584.2,364.8 1584.2,561.3 1561.7,561.3 1561.7,364.8 		"/>
		<g id="XMLID_2216_">
			<polyline id="XMLID_2219_" class="st1" points="1477.7,626.1 1477.7,615.2 1432.5,615.2 1432.5,626.1 			"/>
			<rect id="XMLID_2218_" x="1441.6" y="605.2" class="st1" width="9.9" height="9.9"/>
			<rect id="XMLID_2217_" x="1459.6" y="605.2" class="st1" width="9.9" height="9.9"/>
		</g>
		<rect id="XMLID_2215_" x="1375.7" y="633.5" class="st1" width="274" height="19"/>
		<line id="XMLID_2214_" class="st1" x1="1577.7" y1="568.8" x2="1615.9" y2="626.1"/>
		<line id="XMLID_2213_" class="st1" x1="1557" y1="568.8" x2="1572.7" y2="626.1"/>
		<line id="XMLID_2212_" class="st1" x1="1546.8" y1="568.8" x2="1554.2" y2="626.1"/>
		<line id="XMLID_2211_" class="st1" x1="1446.7" y1="568.8" x2="1388.4" y2="626.1"/>
		<line id="XMLID_2210_" class="st1" x1="1512.9" y1="568.8" x2="1512.9" y2="626.1"/>
		<line id="XMLID_2209_" class="st1" x1="1518.4" y1="633.5" x2="1518.4" y2="652.5"/>
		<line id="XMLID_2208_" class="st1" x1="1559.7" y1="633.5" x2="1559.7" y2="652.5"/>
		<line id="XMLID_2207_" class="st1" x1="1579.6" y1="633.5" x2="1579.6" y2="652.5"/>
		<line id="XMLID_2206_" class="st1" x1="1621.4" y1="633.5" x2="1621.4" y2="652.5"/>
		<path id="XMLID_2205_" class="st1" d="M1446.8,604.1c-1.1-5.6-4.9-10.4-9.2-14.2c-4.3-3.8-9.3-6.8-13.8-10.4
			c-10.2-8.3-17.7-19.8-21.3-32.4"/>
		<path id="XMLID_2204_" class="st1" d="M1465.2,604.8c0.7-4.3-1.4-8.9-5.1-11.2c-1.4-0.9-3.1-1.5-4.8-1.4c-2.8,0.2-5.2,2.4-6.5,5
			c-1.2,2.5-1.6,5.3-1.8,8.1"/>
		<path id="XMLID_2203_" class="st1" d="M1561.7,553.8c7.5-0.5,15-0.5,22.5,0"/>
		<path id="XMLID_2202_" class="st1" d="M1561.7,541.4c7.5-0.8,15-1.6,22.5-2.6"/>
		<path id="XMLID_2201_" class="st1" d="M1561.7,532.4c7.5-1,15-1.6,22.5-1.8"/>
		<path id="XMLID_2200_" class="st1" d="M1561.7,522.5h4.5c4.2,0,8.4,0,12.7,0h5.3"/>
		<path id="XMLID_2199_" class="st1" d="M1561.7,516.1c7.5-0.8,15-1.1,22.5-1"/>
		<path id="XMLID_2198_" class="st1" d="M1441.4,530.9l5.8,0.6c10,1,19.9,1.9,29.9,2.9l6.9,0.7"/>
		<path id="XMLID_2197_" class="st1" d="M1441.4,526.2c14.2-0.9,28.5-0.7,42.7,0.5"/>
		<path id="XMLID_2196_" class="st1" d="M1441.4,518.3c14.2-0.4,28.5,0.2,42.7,1.6"/>
		<path id="XMLID_2195_" class="st1" d="M1441.4,513.7c14.2-1.2,28.4-1.6,42.7-1"/>
		<rect id="XMLID_2194_" x="1514.5" y="519.9" class="st1" width="5.2" height="18.8"/>
		<line id="XMLID_2193_" class="st1" x1="1471.3" y1="533.8" x2="1471.3" y2="561.3"/>
		<line id="XMLID_2192_" class="st1" x1="1441.4" y1="369.8" x2="1484" y2="369.8"/>
		<line id="XMLID_2191_" class="st1" x1="1441.4" y1="374.3" x2="1484.1" y2="374.3"/>
		<line id="XMLID_2190_" class="st1" x1="1504.6" y1="370.3" x2="1519" y2="370.3"/>
		<line id="XMLID_2189_" class="st1" x1="1562.1" y1="369.3" x2="1584.2" y2="369.3"/>
		<line id="XMLID_2188_" class="st1" x1="1561.6" y1="378.3" x2="1584.2" y2="378.3"/>
		<line id="XMLID_2187_" class="st1" x1="1442.1" y1="378.8" x2="1483.3" y2="378.8"/>
		<path id="XMLID_2186_" class="st1" d="M1504.6,375.3c-0.2,0-0.3,0-0.5,0h14.3"/>
		<g id="XMLID_2169_">
			<path id="XMLID_2185_" class="st2" d="M1441.5,613.3c0.6-0.1,1.2-0.1,1.8-0.2c2.6-0.2,5.1-0.4,7.7-0.5"/>
			<path id="XMLID_2184_" class="st2" d="M1441.7,611.5c3.1,0.1,6.1,0.2,9.2,0.3"/>
			<path id="XMLID_2183_" class="st2" d="M1459.6,612.9c3.3,0.3,6.6,0.4,9.9,0.3"/>
			<path id="XMLID_2182_" class="st2" d="M1460,611.4c1.1,0.2,2.2,0,3.3-0.1c2-0.2,4.1-0.1,6,0.2c0,0.1,0,0.1,0,0.2"/>
			<path id="XMLID_2181_" class="st2" d="M1504.4,558.7c4.9-0.2,9.7,0,14.6,0.6c0.1,0,0.3,0,0.3,0.2s-0.1,0.3-0.2,0.2"/>
			<path id="XMLID_2180_" class="st2" d="M1504.4,556.1c5-0.2,10.1-0.5,15.1-0.7"/>
			<path id="XMLID_2179_" class="st2" d="M1581.4,561.6c0.3,2.5,0.3,5,0.2,7.5"/>
			<path id="XMLID_2178_" class="st2" d="M1577.3,562.3c0.3,2.1,0.7,4.3,1.2,6.4c0,0.1,0,0.3-0.1,0.3c-0.1,0.1-0.3,0-0.2-0.1"/>
			<path id="XMLID_2177_" class="st2" d="M1558.2,561.7c-0.1,2.7-0.2,5.5-0.3,8.2c0-0.1,0-0.2,0-0.2"/>
			<path id="XMLID_2176_" class="st2" d="M1553.5,562.1c0,2.4,0,4.7,0,7.1"/>
			<path id="XMLID_2175_" class="st2" d="M1542.4,561.4c0.1,2.5,0.3,5,0.7,7.5"/>
			<path id="XMLID_2174_" class="st2" d="M1589.8,561c0.2,2.6,0.4,5.2,0.7,7.8"/>
			<path id="XMLID_2173_" class="st2" d="M1444.6,561.4c0,1.9,0,3.9-0.1,5.8c0,0.8,0.1,1.8,0.7,2.2"/>
			<path id="XMLID_2172_" class="st2" d="M1447.2,561.6c0.1,2.5,0.8,4.9,1.8,7.2"/>
			<path id="XMLID_2171_" class="st2" d="M1450.9,561.9c0,2.2,0.2,4.3,0.7,6.4"/>
			<path id="XMLID_2170_" class="st2" d="M1473.2,615.5c-0.1,3.4-0.1,6.9,0.1,10.3"/>
		</g>
		<line id="XMLID_2168_" class="st2" x1="1578.6" y1="378.3" x2="1578.6" y2="512.8"/>
		<line id="XMLID_2167_" class="st2" x1="1514.6" y1="375.8" x2="1514.6" y2="518.8"/>
		<line id="XMLID_2166_" class="st2" x1="1475.1" y1="379.8" x2="1475.1" y2="511.3"/>
		<path id="XMLID_2165_" class="st2" d="M1471.6,379.3c0.2,0,0.3,0,0.5,0v131.5"/>
		<line id="XMLID_2164_" class="st2" x1="1586.1" y1="634.8" x2="1586.1" y2="651.9"/>
		<line id="XMLID_2163_" class="st2" x1="1525.1" y1="633.3" x2="1525.1" y2="652.3"/>
		<line id="XMLID_2162_" class="st2" x1="1626.1" y1="633.8" x2="1626.1" y2="652.4"/>
		<line id="XMLID_2161_" class="st2" x1="1563.6" y1="626.3" x2="1563.6" y2="633.8"/>
		<path id="XMLID_2160_" class="st2" d="M1565.3,569.2c4.2,6.1,5.7,13.6,8.2,20.6c4.5,12.9,12.3,24.4,19.9,35.8"/>
		<path id="XMLID_2159_" class="st2" d="M1496.7,569.3c-2.9,18.7-6.2,37.4-9.8,55.9"/>
		<line id="XMLID_2158_" class="st2" x1="1398.6" y1="633.3" x2="1398.6" y2="652.3"/>
		<line id="XMLID_2157_" class="st2" x1="1404.1" y1="634.8" x2="1404.1" y2="651.8"/>
		<line id="XMLID_2156_" class="st2" x1="1407.1" y1="633.8" x2="1407.1" y2="651.8"/>
		<line id="XMLID_2155_" class="st2" x1="1419.6" y1="633.8" x2="1419.6" y2="652.8"/>
		<line id="XMLID_2154_" class="st1" x1="1441.4" y1="364.8" x2="1484" y2="364.8"/>
		<line id="XMLID_2153_" class="st1" x1="1504.3" y1="364.8" x2="1519.6" y2="364.8"/>
		<line id="XMLID_2152_" class="st1" x1="1561.7" y1="364.8" x2="1584.2" y2="364.8"/>
	</g>
</g>
<g id="_x30_7">
	<g id="XMLID_1946_">
		<g id="XMLID_1961_">
			<polygon id="XMLID_1963_" class="st0" points="196.9,1812.3 196.9,1803.5 192.9,1803.5 192.9,1787.5 190.9,1787.5 190.9,1783.3 
				181.3,1783.3 181.3,1787.5 175.1,1787.5 175.1,1783.3 165.5,1783.3 165.5,1787.5 163.4,1787.5 163.4,1803.5 159.5,1803.5 
				159.5,1812.3 181.7,1812.3 			"/>
			<path id="XMLID_1962_" class="st0" d="M180.5,1812.3h-21.1v10.1c0,10.4,8.4,18.9,18.7,18.9l0,0c10.3,0,18.7-8.5,18.7-18.9v-10.1
				h-15.2l0,0H180.5z"/>
		</g>
		<g id="XMLID_1954_">
			<path id="XMLID_1960_" class="st1" d="M159.5,1832.4v10c0,10.3,8.4,18.7,18.7,18.7l0,0c10.3,0,18.7-8.4,18.7-18.7v-10"/>
			<rect id="XMLID_1959_" x="159.5" y="1823.7" class="st1" width="37.4" height="8.7"/>
			<path id="XMLID_1958_" class="st1" d="M174.6,1832.4v14.7c0,2,1.6,3.5,3.5,3.5l0,0c2,0,3.5-1.6,3.5-3.5v-14.7"/>
			<rect id="XMLID_1957_" x="163.4" y="1807.8" class="st1" width="29.5" height="15.8"/>
			<rect id="XMLID_1956_" x="165.5" y="1803.7" class="st1" width="9.6" height="4.1"/>
			<rect id="XMLID_1955_" x="181.3" y="1803.7" class="st1" width="9.6" height="4.1"/>
		</g>
		<path id="XMLID_1953_" class="st1" d="M186.5,1803.7c-0.3-17.4-0.1-34.8,1.5-52.2"/>
		<path id="XMLID_1952_" class="st1" d="M170.2,1751.6c1.3,17.3,1.3,34.8,1,52.2"/>
		<line id="XMLID_1951_" class="st1" x1="187.1" y1="1807.8" x2="187.1" y2="1823.7"/>
		<line id="XMLID_1950_" class="st1" x1="178.6" y1="1807.8" x2="178.6" y2="1823.7"/>
		<line id="XMLID_1949_" class="st1" x1="183.1" y1="1823.7" x2="183.1" y2="1832.4"/>
		<line id="XMLID_1948_" class="st1" x1="189.1" y1="1823.8" x2="189.1" y2="1831.8"/>
		<line id="XMLID_1947_" class="st1" x1="168.1" y1="1824.3" x2="168.1" y2="1830.9"/>
	</g>
	<g id="XMLID_1885_">
		<path id="XMLID_1945_" class="st0" d="M647.4,1591.8v-6.4H544.5v-7.9h-18v6.8l-0.2-0.1c0,0.3,0.1,0.7,0.2,1v0.2H401.6v-7.9h-18
			v7.9h-125v-7.9h-18v7.9H115.7v-7.9h-18v5.4l0,0l0,0v2.4H-0.6v6.4h98.3v20.4h18v-20.4H240h0.6v0.3l-0.6-0.3c0.2,0.5,0.4,1,0.6,1.5
			v18.9h18v-20.4h124.9v20.4h18v-3.7l0,0l0,0v-16.7h124.9v20.4h18v-7.6c0,0,0,0,0-0.1l0,0v-12.7L647.4,1591.8L647.4,1591.8z"/>
		<g id="XMLID_1930_">
			<line id="XMLID_1944_" class="st1" x1="647.4" y1="1607.9" x2="544.5" y2="1607.9"/>
			<line id="XMLID_1943_" class="st1" x1="526.5" y1="1607.9" x2="401.6" y2="1607.9"/>
			<line id="XMLID_1942_" class="st1" x1="383.6" y1="1607.9" x2="258.6" y2="1607.9"/>
			<line id="XMLID_1941_" class="st1" x1="240.7" y1="1607.9" x2="115.7" y2="1607.9"/>
			<line id="XMLID_1940_" class="st1" x1="97.7" y1="1607.9" x2="-0.6" y2="1607.9"/>
			<line id="XMLID_1939_" class="st1" x1="647.4" y1="1614.1" x2="544.5" y2="1614.1"/>
			<line id="XMLID_1938_" class="st1" x1="526.5" y1="1614.1" x2="401.6" y2="1614.1"/>
			<line id="XMLID_1937_" class="st1" x1="383.6" y1="1614.1" x2="258.6" y2="1614.1"/>
			<line id="XMLID_1936_" class="st1" x1="240.7" y1="1614.1" x2="115.7" y2="1614.1"/>
			<line id="XMLID_1935_" class="st1" x1="97.7" y1="1614.1" x2="-0.6" y2="1614.1"/>
			<rect id="XMLID_1934_" x="97.7" y="1600.1" class="st1" width="18" height="34.3"/>
			<rect id="XMLID_1933_" x="240.7" y="1600.1" class="st1" width="18" height="34.3"/>
			<rect id="XMLID_1932_" x="383.6" y="1600.1" class="st1" width="18" height="34.3"/>
			<rect id="XMLID_1931_" x="526.5" y="1600.1" class="st1" width="18" height="34.3"/>
		</g>
		<path id="XMLID_1929_" class="st1" d="M191,1727.6c0-0.2,0.1-0.3,0.1-0.5c4.4-25.8,12.8-51.1,27-73.1c5.8-9,13.1-17.8,22.6-22.6"
			/>
		<path id="XMLID_1928_" class="st1" d="M115.7,1627.3c24.2,19.9,39.6,49.2,47.4,79.6c1.8,6.8,3.2,13.7,4.3,20.7"/>
		<path id="XMLID_1927_" class="st1" d="M258.6,1629.7c16.6,5.2,31.7,14.9,48.8,18.7c13.7,3,28.2,2,41.3-3
			c12.1-4.6,23-12.3,34.9-17.2"/>
		<path id="XMLID_1926_" class="st1" d="M401.6,1625.7c9.1-0.7,18.1,2.6,26.8,5.4c28.1,8.9,59.2,13.1,86.5,1.9
			c3.8-1.6,7.7-3.5,11.7-4.6"/>
		<path id="XMLID_1925_" class="st1" d="M544.5,1627.3c16.3,0.6,32.2,5.1,48.4,7.6c18.6,2.9,38.9,2.8,54.5-8.3"/>
		<path id="XMLID_1924_" class="st1" d="M115.7,1625.5c12.8,2.2,25,7.9,37.8,10.8c15.6,3.6,32.2,2.8,47.5-2.1
			c13.3-4.3,25.9-11.7,39.6-13.1"/>
		<path id="XMLID_1923_" class="st1" d="M97.7,1629.3c-8.1,0.6-15.9,3.4-23.7,5.9c-24.2,7.6-49.4,12-74.7,13"/>
		<path id="XMLID_1922_" class="st1" d="M258.6,1623.7c4.8,1.1,9.4,3,14,4.7c21,7.4,43.8,9.3,65.7,5.6c15.3-2.6,30-7.9,45.2-10.8"/>
		<path id="XMLID_1921_" class="st1" d="M401.6,1621.9c5.4-0.7,10.9-0.8,16.4-0.5c9,0.6,17.9,2.6,26.9,3.5c10,1,20.1,0.5,30.1,0
			c17.2-0.8,34.3-1.6,51.5-2.5"/>
		<path id="XMLID_1920_" class="st1" d="M544.5,1621.8c8-0.9,16.3,0.9,24.3,2.4c26.1,5,53.8,7.7,78.6-1.6"/>
		<path id="XMLID_1919_" class="st1" d="M0.9,1638.4c14.5,1.3,29.4-0.9,43.7-4.2c17.7-4,35.1-9.5,53.1-11.5"/>
		<line id="XMLID_1918_" class="st1" x1="379.1" y1="1607.8" x2="379.1" y2="1613.3"/>
		<line id="XMLID_1917_" class="st1" x1="407.1" y1="1607.8" x2="407.1" y2="1612.4"/>
		<line id="XMLID_1916_" class="st1" x1="412.1" y1="1608.3" x2="412.1" y2="1613.3"/>
		<line id="XMLID_1915_" class="st1" x1="522.1" y1="1608.8" x2="522.1" y2="1613.3"/>
		<line id="XMLID_1914_" class="st1" x1="550.6" y1="1607.9" x2="550.6" y2="1613.4"/>
		<line id="XMLID_1913_" class="st1" x1="383.6" y1="1604.8" x2="400.1" y2="1604.8"/>
		<line id="XMLID_1912_" class="st1" x1="526.6" y1="1603.3" x2="542.8" y2="1603.3"/>
		<line id="XMLID_1911_" class="st1" x1="97.6" y1="1603.8" x2="115.6" y2="1603.8"/>
		<line id="XMLID_1910_" class="st1" x1="241.1" y1="1604.8" x2="257.1" y2="1604.8"/>
		<line id="XMLID_1909_" class="st1" x1="119.1" y1="1607.8" x2="119.1" y2="1614"/>
		<line id="XMLID_1908_" class="st1" x1="122.6" y1="1608.3" x2="122.6" y2="1612.9"/>
		<line id="XMLID_1907_" class="st1" x1="127.6" y1="1607.8" x2="127.6" y2="1614.1"/>
		<line id="XMLID_1906_" class="st1" x1="137.6" y1="1608.8" x2="137.6" y2="1613.4"/>
		<line id="XMLID_1905_" class="st1" x1="93.1" y1="1607.8" x2="93.1" y2="1614.1"/>
		<line id="XMLID_1904_" class="st1" x1="89.1" y1="1608.3" x2="89.1" y2="1612.8"/>
		<line id="XMLID_1903_" class="st1" x1="83.1" y1="1608.3" x2="83.1" y2="1612.8"/>
		<line id="XMLID_1902_" class="st1" x1="235.6" y1="1607.8" x2="235.6" y2="1612.8"/>
		<line id="XMLID_1901_" class="st1" x1="230.1" y1="1607.8" x2="230.1" y2="1612.8"/>
		<line id="XMLID_1900_" class="st1" x1="225.1" y1="1607.8" x2="225.1" y2="1613.4"/>
		<line id="XMLID_1899_" class="st1" x1="262.6" y1="1607.8" x2="262.6" y2="1613.4"/>
		<line id="XMLID_1898_" class="st1" x1="266.6" y1="1608.8" x2="266.6" y2="1613.9"/>
		<line id="XMLID_1897_" class="st1" x1="277.6" y1="1608.8" x2="277.6" y2="1613.6"/>
		<line id="XMLID_1896_" class="st1" x1="287.1" y1="1608.8" x2="287.1" y2="1613.8"/>
		<line id="XMLID_1895_" class="st1" x1="419.1" y1="1607.9" x2="419.1" y2="1613.9"/>
		<line id="XMLID_1894_" class="st1" x1="429.6" y1="1607.8" x2="429.6" y2="1614.3"/>
		<path id="XMLID_1893_" class="st1" d="M97.7,1605.5c1,2.1,2.1,4.1,3.1,6.2c0.8,1.6,1.7,3.2,3.1,4.3c1.7,1.2,4.1,1.3,6.1,0.6
			c2-0.7,3.7-2.1,5-3.8"/>
		<path id="XMLID_1892_" class="st1" d="M98,1614.9c1.6,3.6,1.7,8.2,4.7,10.8c3.4,3,9.1,1.6,12.3-1.5"/>
		<path id="XMLID_1891_" class="st1" d="M240.7,1609.1c1.6,0.8,2.7,2.4,4,3.6c3.9,3.6,10.8,3.6,14-1.8"/>
		<path id="XMLID_1890_" class="st1" d="M240,1614.2c1.6,3.9,3.4,8,6.7,10.6s8.8,2.9,11.4-0.5"/>
		<path id="XMLID_1889_" class="st1" d="M383.7,1609.8c1.6,3.6,4.1,6.9,7.8,8.2c3.7,1.3,8.5-0.4,9.5-4.2"/>
		<path id="XMLID_1888_" class="st1" d="M384,1615.7c2,8,9.4,14.3,17.7,15"/>
		<path id="XMLID_1887_" class="st1" d="M526.4,1606.8c0.4,3.7,3.1,6.9,6.5,8.4s7.3,1.4,10.9,0.3"/>
		<path id="XMLID_1886_" class="st1" d="M527,1616.1c2.6,5.8,8.1,10.3,14.3,11.6c1.2,0.3,2.8,0.2,3.2-0.9"/>
	</g>
</g>
<g id="_x31_2">
	<g id="XMLID_1727_">
		<path id="XMLID_1736_" class="st2" d="M1441.9,965.8c-0.4,2.5-0.8,4.9-1.1,7.4"/>
		<path id="XMLID_1735_" class="st2" d="M1438.7,966.5c0.1,2.2,0.2,4.3,0.2,6.5"/>
	</g>
	<g id="XMLID_1647_">
		<line id="XMLID_1648_" class="st1" x1="-0.6" y1="1242.7" x2="-0.6" y2="1267.3"/>
	</g>
	<g id="XMLID_1598_">
		<line id="XMLID_1606_" class="st1" x1="641.4" y1="1261.5" x2="641.4" y2="1306.2"/>
	</g>
	<g id="XMLID_1551_">
		<path id="XMLID_1574_" class="st0" d="M1352,1522.7v-8.9V1367v-21.1v-3.5c0-13.8-11-24.9-24.7-24.9l0,0h-3.4H1303h-16v-3.9h-7
			V1272h-8.6v109.6h8.6v-35.3h7v-3.9h15.9l0,0h20.9l0,0h3.4v3.5v21.1v32.5v33.9v80.4v8.9h-10.1v45.4h10.1v53.6h24.7v-53.6h10.1
			v-45.4H1352z"/>
		<g id="XMLID_1556_">
			<rect id="XMLID_1573_" x="1271.4" y="1297.7" class="st1" width="8.6" height="108.4"/>
			<g id="XMLID_1564_">
				<path id="XMLID_1572_" class="st1" d="M1327.3,1367.4H1287v-24.7h40.3l0,0c13.6,0,24.7,11,24.7,24.7l0,0v178.4h-24.7V1367.4z"/>
				<g id="XMLID_1569_">
					<rect id="XMLID_1571_" x="1327.3" y="1370.8" class="st1" width="24.7" height="20.9"/>
					<line id="XMLID_1570_" class="st1" x1="1327.3" y1="1384.7" x2="1352" y2="1384.7"/>
				</g>
				<g id="XMLID_1566_">
					<rect id="XMLID_1568_" x="1303" y="1342.7" class="st1" width="20.9" height="24.7"/>
					<line id="XMLID_1567_" class="st1" x1="1310" y1="1342.7" x2="1310" y2="1367.4"/>
				</g>
				<rect id="XMLID_1565_" x="1280" y="1338.8" class="st1" width="7" height="32.5"/>
			</g>
			<g id="XMLID_1559_">
				<rect id="XMLID_1563_" x="1317.2" y="1545.8" class="st1" width="44.9" height="44.9"/>
				<g id="XMLID_1560_">
					<circle id="XMLID_1562_" class="st1" cx="1339.6" cy="1568.3" r="10.8"/>
					<circle id="XMLID_1561_" class="st1" cx="1339.6" cy="1568.3" r="6.9"/>
				</g>
			</g>
			<rect id="XMLID_1558_" x="1327.3" y="1537" class="st1" width="24.7" height="8.8"/>
			<rect id="XMLID_1557_" x="1327.3" y="1423.9" class="st1" width="12.3" height="33.6"/>
		</g>
		<rect id="XMLID_1555_" x="1327.3" y="1590.8" class="st1" width="24.7" height="53"/>
		<line id="XMLID_1554_" class="st1" x1="1327.3" y1="1598.6" x2="1352" y2="1598.6"/>
		<line id="XMLID_1553_" class="st1" x1="1328.1" y1="1636.8" x2="1350.1" y2="1636.8"/>
		<line id="XMLID_1552_" class="st1" x1="1327.4" y1="1630.8" x2="1350.8" y2="1630.8"/>
	</g>
	<g id="XMLID_1525_">
		<g id="XMLID_1547_">
			<rect id="XMLID_1550_" x="647.4" y="1193.3" class="st0" width="624" height="428.5"/>
			<rect id="XMLID_1549_" x="647.4" y="1219.8" class="st1" width="624" height="424"/>
			<rect id="XMLID_1548_" x="659.4" y="1231.8" class="st1" width="600" height="400"/>
		</g>
		<g id="XMLID_1540_">
			<rect id="XMLID_1546_" x="887" y="1633.7" class="st0" width="40" height="10.9"/>
			<path id="XMLID_1545_" class="st1" d="M938.9,1643.8v5.4c0,6.6-5.3,11.9-11.9,11.9l0,0"/>
			<path id="XMLID_1544_" class="st1" d="M887,1661.1L887,1661.1c-6.6,0-11.9-5.3-11.9-11.9v-5.4"/>
			<rect id="XMLID_1543_" x="887" y="1655.7" class="st1" width="40" height="10.8"/>
			<line id="XMLID_1542_" class="st1" x1="919.2" y1="1666.5" x2="919.2" y2="1655.7"/>
			<line id="XMLID_1541_" class="st1" x1="894.7" y1="1666.5" x2="894.7" y2="1655.7"/>
		</g>
		<g id="XMLID_1533_">
			<rect id="XMLID_1539_" x="803.9" y="1633.7" class="st0" width="40" height="10.9"/>
			<path id="XMLID_1538_" class="st1" d="M855.8,1643.8v5.4c0,6.6-5.3,11.9-11.9,11.9l0,0"/>
			<path id="XMLID_1537_" class="st1" d="M803.9,1661.1L803.9,1661.1c-6.6,0-11.9-5.3-11.9-11.9v-5.4"/>
			<rect id="XMLID_1536_" x="803.9" y="1655.7" class="st1" width="40" height="10.8"/>
			<line id="XMLID_1535_" class="st1" x1="836.1" y1="1666.5" x2="836.1" y2="1655.7"/>
			<line id="XMLID_1534_" class="st1" x1="811.7" y1="1666.5" x2="811.7" y2="1655.7"/>
		</g>
		<g id="XMLID_1526_">
			<rect id="XMLID_1532_" x="1021.3" y="1633.7" class="st0" width="40" height="10.9"/>
			<path id="XMLID_1531_" class="st1" d="M1073.2,1643.8v5.4c0,6.6-5.3,11.9-11.9,11.9l0,0"/>
			<path id="XMLID_1530_" class="st1" d="M1021.3,1661.1L1021.3,1661.1c-6.6,0-11.9-5.3-11.9-11.9v-5.4"/>
			<rect id="XMLID_1529_" x="1021.3" y="1655.7" class="st1" width="40" height="10.8"/>
			<line id="XMLID_1528_" class="st1" x1="1053.5" y1="1666.5" x2="1053.5" y2="1655.7"/>
			<line id="XMLID_1527_" class="st1" x1="1029.1" y1="1666.5" x2="1029.1" y2="1655.7"/>
		</g>
	</g>
</g>
<g id="_x31_4">
	<g id="XMLID_1304_">
		<g id="XMLID_1352_">
			<path id="XMLID_1355_" class="st0" d="M1575.2,877.1h-10.9c0,3.1,2.5,5.5,5.5,5.5S1575.2,880.1,1575.2,877.1z"/>
			<path id="XMLID_1354_" class="st0" d="M1623.4,877.1c0,3.1,2.5,5.5,5.5,5.5s5.5-2.5,5.5-5.5H1623.4z"/>
			<path id="XMLID_1353_" class="st0" d="M1611.6,1003h10.1v-45.4h-10.1v-62.3h3.9v-7.1h3v-11.1H1580v11.1h3v7.1h3.9v62.3h-10.1v6.8
				h-1.8c0-0.1,0-0.2,0-0.3v0.3h-8.2v10h5.1c0,0.1,0,0.1,0,0.2c0.1-0.1,0.1-0.1,0.1-0.2h1.7l0,0l0,0h3v7.8h-2.1l0,0l0,0h-7.9v10h9.9
				v10.8h10.1v606.6h-17.4v12.1h59.5v-12.1h-17.4V1003H1611.6z"/>
		</g>
		<g id="XMLID_1336_">
			<g id="XMLID_1347_">
				<rect id="XMLID_1351_" x="1576.8" y="986.5" class="st1" width="44.9" height="44.9"/>
				<g id="XMLID_1348_">
					<circle id="XMLID_1350_" class="st1" cx="1599.3" cy="1009" r="10.8"/>
					<circle id="XMLID_1349_" class="st1" cx="1599.3" cy="1009" r="6.9"/>
				</g>
			</g>
			<rect id="XMLID_1346_" x="1566.9" y="993.2" class="st1" width="9.9" height="9.9"/>
			<rect id="XMLID_1345_" x="1566.9" y="1010.9" class="st1" width="9.9" height="9.9"/>
			<path id="XMLID_1344_" class="st1" d="M1566.9,998c-14,0.3-28.2-4.3-38.6-13.6c-7.9-7-13.4-16.8-15.2-27.1"/>
			<path id="XMLID_1343_" class="st1" d="M1566.9,1016.3c-15.3-2.5-29.3-12.5-36.5-26.2c-5.2-10-6.8-21.7-4.7-32.8"/>
			<path id="XMLID_1342_" class="st2" d="M1575.1,992.9c0,3.4-0.1,6.8-0.2,10.2"/>
			<path id="XMLID_1341_" class="st2" d="M1572.9,993.5c0.1,3.3,0.4,6.5,1,9.7"/>
			<path id="XMLID_1340_" class="st2" d="M1571.6,993.7c-0.1,3.2,0,6.5,0.4,9.7c0.1-0.1,0.1-0.3,0.1-0.4"/>
			<path id="XMLID_1339_" class="st2" d="M1574.8,1010.8c0.1,3.3-0.1,6.6-0.4,9.9"/>
			<path id="XMLID_1338_" class="st2" d="M1573.3,1011.3c-0.2,3.1-0.3,6.2-0.3,9.2"/>
			<path id="XMLID_1337_" class="st2" d="M1570.9,1011c0.6,2,1.2,4,1.9,6"/>
		</g>
		<g id="XMLID_1315_">
			<g id="XMLID_1332_">
				<rect id="XMLID_1335_" x="1580" y="906.9" class="st1" width="38.5" height="10.9"/>
				<path id="XMLID_1334_" class="st1" d="M1575.2,906.9c0,3-2.5,5.5-5.5,5.5s-5.5-2.5-5.5-5.5"/>
				<path id="XMLID_1333_" class="st1" d="M1634.3,906.9c0,3-2.5,5.5-5.5,5.5s-5.5-2.5-5.5-5.5"/>
			</g>
			<g id="XMLID_1326_">
				<g id="XMLID_1330_">
					<line id="XMLID_1331_" class="st1" x1="1587" y1="979.2" x2="1611.6" y2="979.2"/>
				</g>
				<rect id="XMLID_1329_" x="1583.1" y="917.8" class="st1" width="32.5" height="7"/>
				<line id="XMLID_1328_" class="st1" x1="1587" y1="986.4" x2="1587" y2="924.8"/>
				<line id="XMLID_1327_" class="st1" x1="1611.6" y1="986.4" x2="1611.6" y2="924.8"/>
			</g>
			<line id="XMLID_1325_" class="st1" x1="1605.5" y1="924.8" x2="1605.5" y2="979.2"/>
			<path id="XMLID_1324_" class="st2" d="M1614.5,907.3c-0.1,3.3-0.3,6.6-0.7,9.9c0,0.1,0,0.2,0.1,0.3s0.2-0.1,0.1-0.1"/>
			<path id="XMLID_1323_" class="st2" d="M1612.4,907.6c-0.1,3.4-0.1,6.8,0,10.2c0-0.2,0-0.4,0.1-0.6"/>
			<path id="XMLID_1322_" class="st2" d="M1607.5,907.2c0.1,0.5,0.1,1.1,0.2,1.6c0.3,2.3,0.6,4.7,0.5,7.1c0,0.6,0,1.2,0.3,1.6"/>
			<path id="XMLID_1321_" class="st2" d="M1584.2,907c0,3.3-0.1,6.7-0.1,10c0,0.2,0.1,0.4,0.3,0.4"/>
			<path id="XMLID_1320_" class="st2" d="M1610.1,917.7c0,2.5-0.2,4.9-0.6,7.4c0-0.1,0-0.2,0.1-0.3"/>
			<path id="XMLID_1319_" class="st2" d="M1607.1,917.7c0.1,2.3,0.3,4.7,0.5,7"/>
			<path id="XMLID_1318_" class="st2" d="M1608.2,979.1c0.1,2.4,0,4.8-0.3,7.2c0-0.1,0-0.2,0.1-0.3"/>
			<line id="XMLID_1317_" class="st1" x1="1564.3" y1="906.9" x2="1634.3" y2="906.9"/>
			<line id="XMLID_1316_" class="st1" x1="1587" y1="986.4" x2="1611.6" y2="986.4"/>
		</g>
		<g id="XMLID_1305_">
			<line id="XMLID_1314_" class="st1" x1="1605.5" y1="1031.5" x2="1605.5" y2="1631.8"/>
			<g id="XMLID_1311_">
				<line id="XMLID_1313_" class="st1" x1="1587" y1="1631.8" x2="1587" y2="1031.5"/>
				<line id="XMLID_1312_" class="st1" x1="1611.6" y1="1031.5" x2="1611.6" y2="1631.8"/>
			</g>
			<rect id="XMLID_1310_" x="1569.6" y="1631.8" class="st1" width="59.5" height="12"/>
			<line id="XMLID_1309_" class="st1" x1="1569.6" y1="1638.8" x2="1629.1" y2="1638.8"/>
			<line id="XMLID_1308_" class="st1" x1="1587.6" y1="1037.3" x2="1605.5" y2="1037.3"/>
			<line id="XMLID_1307_" class="st2" x1="1570.1" y1="1636.2" x2="1628.4" y2="1636.2"/>
			<line id="XMLID_1306_" class="st1" x1="1587" y1="1031.5" x2="1611.6" y2="1031.5"/>
		</g>
	</g>
	<g id="XMLID_1296_">
		<rect id="XMLID_1303_" x="1152.1" y="1621.7" class="st0" width="507" height="24.5"/>
		<rect id="XMLID_1302_" x="1151.2" y="1643.8" class="st1" width="508.2" height="24.2"/>
		<line id="XMLID_1301_" class="st1" x1="1151.1" y1="1651.8" x2="1659.4" y2="1651.8"/>
		<line id="XMLID_1300_" class="st2" x1="1641.1" y1="1652.2" x2="1641.1" y2="1666.9"/>
		<line id="XMLID_1299_" class="st2" x1="1644.1" y1="1643.5" x2="1644.1" y2="1666.8"/>
		<line id="XMLID_1298_" class="st2" x1="1646.1" y1="1644.5" x2="1646.1" y2="1666.8"/>
		<line id="XMLID_1297_" class="st2" x1="1152.1" y1="1656.8" x2="1641.1" y2="1656.8"/>
	</g>
	<g id="XMLID_1262_">
		<g id="XMLID_1292_">
			<polygon id="XMLID_1295_" class="st0" points="1611.6,1726.8 1611.6,1664.3 1615.5,1664.3 1615.5,1657.3 1618.6,1657.3 
				1618.6,1646.2 1580,1646.2 1580,1657.3 1583.1,1657.3 1583.1,1664.3 1587,1664.3 1587,1726.8 1485.9,1726.8 1485.9,1646.2 
				1447.1,1646.2 1447.1,1726.8 1431.5,1726.8 1431.5,1734.3 1659.1,1734.3 1659.1,1726.8 			"/>
			<path id="XMLID_1294_" class="st0" d="M1569.8,1651.7c3,0,5.5-2.5,5.5-5.5h-10.9C1564.3,1649.2,1566.7,1651.7,1569.8,1651.7z"/>
			<path id="XMLID_1293_" class="st0" d="M1628.9,1651.7c3,0,5.5-2.5,5.5-5.5h-10.9C1623.4,1649.2,1625.9,1651.7,1628.9,1651.7z"/>
		</g>
		<rect id="XMLID_1291_" x="1431.5" y="1747.8" class="st1" width="227.6" height="7.4"/>
		<g id="XMLID_1279_">
			<line id="XMLID_1290_" class="st1" x1="1447.4" y1="1747.5" x2="1447.4" y2="1668"/>
			<line id="XMLID_1289_" class="st1" x1="1485.9" y1="1668" x2="1485.9" y2="1747.5"/>
			<line id="XMLID_1288_" class="st1" x1="1447.4" y1="1673.8" x2="1485.7" y2="1673.8"/>
			<line id="XMLID_1287_" class="st1" x1="1447.6" y1="1677.8" x2="1484.9" y2="1677.8"/>
			<line id="XMLID_1286_" class="st1" x1="1447.4" y1="1688.3" x2="1485.9" y2="1688.3"/>
			<line id="XMLID_1285_" class="st2" x1="1450.4" y1="1667.8" x2="1450.4" y2="1673.2"/>
			<line id="XMLID_1284_" class="st2" x1="1452.4" y1="1668.8" x2="1452.4" y2="1673.5"/>
			<line id="XMLID_1283_" class="st2" x1="1480.1" y1="1668.5" x2="1480.1" y2="1673.2"/>
			<line id="XMLID_1282_" class="st2" x1="1476.8" y1="1668.5" x2="1476.8" y2="1673.8"/>
			<line id="XMLID_1281_" class="st2" x1="1478.4" y1="1677.8" x2="1478.4" y2="1687.9"/>
			<line id="XMLID_1280_" class="st1" x1="1447.4" y1="1668" x2="1485.9" y2="1668"/>
		</g>
		<g id="XMLID_1263_">
			<g id="XMLID_1267_">
				<g id="XMLID_1275_">
					<rect id="XMLID_1278_" x="1580" y="1668" class="st1" width="38.5" height="10.9"/>
					<path id="XMLID_1277_" class="st1" d="M1575.2,1668c0,3-2.5,5.5-5.5,5.5s-5.5-2.5-5.5-5.5"/>
					<path id="XMLID_1276_" class="st1" d="M1634.3,1668c0,3-2.5,5.5-5.5,5.5s-5.5-2.5-5.5-5.5"/>
				</g>
				<g id="XMLID_1269_">
					<g id="XMLID_1273_">
						<line id="XMLID_1274_" class="st1" x1="1587" y1="1740.3" x2="1611.6" y2="1740.3"/>
					</g>
					<rect id="XMLID_1272_" x="1583.1" y="1678.9" class="st1" width="32.5" height="7"/>
					<line id="XMLID_1271_" class="st1" x1="1587" y1="1747.5" x2="1587" y2="1686"/>
					<line id="XMLID_1270_" class="st1" x1="1611.6" y1="1747.5" x2="1611.6" y2="1686"/>
				</g>
				<line id="XMLID_1268_" class="st1" x1="1605.5" y1="1686" x2="1605.5" y2="1740.3"/>
			</g>
			<line id="XMLID_1266_" class="st2" x1="1587.4" y1="1689.2" x2="1605.5" y2="1689.2"/>
			<line id="XMLID_1265_" class="st2" x1="1580.1" y1="1671.5" x2="1617.1" y2="1671.5"/>
			<line id="XMLID_1264_" class="st1" x1="1564.3" y1="1668" x2="1634.3" y2="1668"/>
		</g>
	</g>
	<g id="XMLID_1165_">
		<g id="XMLID_1255_">
			<path id="XMLID_1261_" class="st1" d="M1514.1,1544.4h5.4c6.6,0,11.9,5.3,11.9,11.9l0,0"/>
			<path id="XMLID_1260_" class="st1" d="M1531.4,1596.3L1531.4,1596.3c0,6.6-5.3,11.9-11.9,11.9h-5.4"/>
			<rect id="XMLID_1259_" x="1526" y="1533.3" class="st0" width="10.8" height="40.4"/>
			<rect id="XMLID_1258_" x="1526" y="1556.3" class="st1" width="10.8" height="40"/>
			<line id="XMLID_1257_" class="st1" x1="1536.8" y1="1564.1" x2="1526" y2="1564.1"/>
			<line id="XMLID_1256_" class="st1" x1="1536.8" y1="1588.5" x2="1526" y2="1588.5"/>
		</g>
		<g id="XMLID_1246_">
			<g id="XMLID_1248_">
				<rect id="XMLID_1254_" x="1526" y="1453.9" class="st0" width="10.8" height="40.4"/>
				<path id="XMLID_1253_" class="st1" d="M1514.1,1465.8h5.4c6.6,0,11.9,5.3,11.9,11.9l0,0"/>
				<path id="XMLID_1252_" class="st1" d="M1531.4,1517.7L1531.4,1517.7c0,6.6-5.3,11.9-11.9,11.9h-5.4"/>
				<rect id="XMLID_1251_" x="1526" y="1477.7" class="st1" width="10.8" height="40"/>
				<line id="XMLID_1250_" class="st1" x1="1536.8" y1="1485.5" x2="1526" y2="1485.5"/>
				<line id="XMLID_1249_" class="st1" x1="1536.8" y1="1509.9" x2="1526" y2="1509.9"/>
			</g>
			<line id="XMLID_1247_" class="st2" x1="1533.1" y1="1486.2" x2="1533.1" y2="1508.9"/>
		</g>
		<g id="XMLID_1184_">
			<polygon id="XMLID_1245_" class="st0" points="1420,1221.7 1420,1621.7 1447.4,1621.7 1485.9,1621.7 1513.3,1621.7 
				1513.3,1221.7 			"/>
			<path id="XMLID_1244_" class="st1" d="M1447.4,1643.8v-97.2c0-10.6,8.6-19.3,19.3-19.3c10.6,0,19.3,8.6,19.3,19.3v97.2"/>
			<path id="XMLID_1243_" class="st1" d="M1485.9,1565.2c4.7-4.8,7.5-11.4,7.5-18.6c0-14.8-12-26.8-26.8-26.8s-26.8,12-26.8,26.8
				c0,7.2,2.9,13.8,7.5,18.6"/>
			<path id="XMLID_1242_" class="st1" d="M1485.9,1573.3c8.3-6,13.7-15.7,13.7-26.7c0-18.2-14.8-33-33-33s-33,14.8-33,33
				c0,11,5.4,20.7,13.7,26.7"/>
			<rect id="XMLID_1241_" x="1420" y="1248" class="st1" width="93.3" height="395.8"/>
			<g id="XMLID_1231_">
				<g id="XMLID_1238_">
					<circle id="XMLID_1240_" class="st1" cx="1466.6" cy="1357.8" r="10.8"/>
					<circle id="XMLID_1239_" class="st1" cx="1466.6" cy="1357.8" r="6.9"/>
				</g>
				<g id="XMLID_1235_">
					<circle id="XMLID_1237_" class="st1" cx="1466.6" cy="1303.8" r="10.8"/>
					<circle id="XMLID_1236_" class="st1" cx="1466.6" cy="1303.8" r="6.9"/>
				</g>
				<g id="XMLID_1232_">
					<circle id="XMLID_1234_" class="st1" cx="1466.6" cy="1330.8" r="10.8"/>
					<circle id="XMLID_1233_" class="st1" cx="1466.6" cy="1330.8" r="6.9"/>
				</g>
			</g>
			<line id="XMLID_1230_" class="st1" x1="1420" y1="1398.5" x2="1513.3" y2="1398.5"/>
			<line id="XMLID_1229_" class="st1" x1="1420" y1="1422.2" x2="1513.3" y2="1422.2"/>
			<line id="XMLID_1228_" class="st1" x1="1420" y1="1435.6" x2="1513.3" y2="1435.6"/>
			<line id="XMLID_1227_" class="st1" x1="1420" y1="1267.8" x2="1513.3" y2="1267.8"/>
			<g id="XMLID_1218_">
				<line id="XMLID_1226_" class="st1" x1="1442.2" y1="1458" x2="1491.1" y2="1458"/>
				<line id="XMLID_1225_" class="st1" x1="1442.2" y1="1463.6" x2="1491.1" y2="1463.6"/>
				<line id="XMLID_1224_" class="st1" x1="1442.2" y1="1469.3" x2="1491.1" y2="1469.3"/>
				<line id="XMLID_1223_" class="st1" x1="1442.2" y1="1474.9" x2="1491.1" y2="1474.9"/>
				<line id="XMLID_1222_" class="st1" x1="1442.2" y1="1480.5" x2="1491.1" y2="1480.5"/>
				<line id="XMLID_1221_" class="st1" x1="1442.2" y1="1486.1" x2="1491.1" y2="1486.1"/>
				<line id="XMLID_1220_" class="st1" x1="1442.2" y1="1491.8" x2="1491.1" y2="1491.8"/>
				<line id="XMLID_1219_" class="st1" x1="1442.2" y1="1497.4" x2="1491.1" y2="1497.4"/>
			</g>
			<line id="XMLID_1217_" class="st1" x1="1501.4" y1="1267.8" x2="1501.4" y2="1397.7"/>
			<line id="XMLID_1216_" class="st1" x1="1494.8" y1="1248" x2="1494.8" y2="1266.8"/>
			<line id="XMLID_1215_" class="st1" x1="1488.8" y1="1248" x2="1488.8" y2="1266.2"/>
			<line id="XMLID_1214_" class="st1" x1="1432.8" y1="1248.8" x2="1432.8" y2="1266.8"/>
			<line id="XMLID_1213_" class="st1" x1="1438.8" y1="1248.8" x2="1438.8" y2="1267.5"/>
			<line id="XMLID_1212_" class="st1" x1="1454.1" y1="1248.8" x2="1454.1" y2="1266.8"/>
			<line id="XMLID_1211_" class="st1" x1="1472.8" y1="1248" x2="1472.8" y2="1267.5"/>
			<line id="XMLID_1210_" class="st1" x1="1505.8" y1="1248.8" x2="1505.8" y2="1266.8"/>
			<line id="XMLID_1209_" class="st2" x1="1505.8" y1="1265.8" x2="1505.8" y2="1397.5"/>
			<line id="XMLID_1208_" class="st2" x1="1504.1" y1="1422.8" x2="1504.1" y2="1436.2"/>
			<line id="XMLID_1207_" class="st2" x1="1499.1" y1="1423.2" x2="1499.1" y2="1435.2"/>
			<line id="XMLID_1206_" class="st2" x1="1424.8" y1="1422.5" x2="1424.8" y2="1434.5"/>
			<line id="XMLID_1205_" class="st2" x1="1427.4" y1="1423.2" x2="1427.4" y2="1434.2"/>
			<line id="XMLID_1204_" class="st2" x1="1433.4" y1="1422.5" x2="1433.4" y2="1435.8"/>
			<path id="XMLID_1203_" class="st2" d="M1469.3,1336.9c0.4,1.3,1.2,2.4,2.2,3.2"/>
			<path id="XMLID_1202_" class="st2" d="M1472.4,1334c1,0.5,2,0.8,3.1,1.1"/>
			<path id="XMLID_1201_" class="st2" d="M1473.8,1328.8c0.9-0.4,1.8-0.9,2.7-1.3"/>
			<path id="XMLID_1200_" class="st2" d="M1471.8,1321.5c-0.1,1.4-0.6,2.8-1.4,4"/>
			<path id="XMLID_1199_" class="st2" d="M1462.7,1320.9c0.5,1.2,1.2,2.3,2.1,3.3"/>
			<path id="XMLID_1198_" class="st2" d="M1457.4,1325.9c1.2,0.5,2.5,1.1,3.7,1.6"/>
			<path id="XMLID_1197_" class="st2" d="M1460.1,1331.5c-1,1-2,2-3,3"/>
			<path id="XMLID_1196_" class="st2" d="M1462.4,1336.4c-0.7,0.9-1.1,1.9-1.2,3.1"/>
			<path id="XMLID_1195_" class="st2" d="M1465.9,1338.2c-0.1,1-0.1,2.1-0.2,3.1c0,0.3,0,0.6,0.3,0.7s0.3-0.5,0.1-0.4"/>
			<path id="XMLID_1194_" class="st2" d="M1486.4,1565.8c0.7,1.6,2,2.8,3.7,3.4"/>
			<path id="XMLID_1193_" class="st2" d="M1487.1,1564.1c1.8,1,3.5,2.1,5.3,3.1"/>
			<path id="XMLID_1192_" class="st2" d="M1489.4,1560.5c1.6,1.6,3.5,2.7,5.6,3.4"/>
			<path id="XMLID_1191_" class="st2" d="M1491.1,1557.8c1.7,1.3,3.6,2.4,5.7,3"/>
			<path id="XMLID_1190_" class="st2" d="M1446.3,1565.1c-1.2,1.4-2.3,2.9-3.2,4.4"/>
			<path id="XMLID_1189_" class="st2" d="M1445.1,1563.1c-1.7,0.8-3.2,2.1-4.3,3.7"/>
			<path id="XMLID_1188_" class="st2" d="M1443.4,1560.7c-1.7,1.3-3.3,2.7-5,4"/>
			<line id="XMLID_1187_" class="st2" x1="1447.1" y1="1640.8" x2="1484.8" y2="1640.8"/>
			<line id="XMLID_1186_" class="st2" x1="1447.4" y1="1636.2" x2="1484.8" y2="1636.2"/>
			<line id="XMLID_1185_" class="st2" x1="1447.1" y1="1634.2" x2="1485.5" y2="1634.2"/>
		</g>
		<g id="XMLID_1166_">
			<g id="XMLID_1180_">
				<rect id="XMLID_1183_" x="1513.3" y="1264.9" class="st0" width="10.9" height="45.7"/>
				<rect id="XMLID_1182_" x="1524.2" y="1274" class="st0" width="9.9" height="10"/>
				<rect id="XMLID_1181_" x="1524.2" y="1292.2" class="st0" width="9.9" height="10"/>
			</g>
			<g id="XMLID_1175_">
				<g id="XMLID_1176_">
					<polyline id="XMLID_1179_" class="st1" points="1513.3,1335.8 1524.2,1335.8 1524.2,1290.6 1513.3,1290.6 					"/>
					<rect id="XMLID_1178_" x="1524.2" y="1299.7" class="st1" width="9.9" height="9.9"/>
					<rect id="XMLID_1177_" x="1524.2" y="1317.7" class="st1" width="9.9" height="9.9"/>
				</g>
			</g>
			<path id="XMLID_1174_" class="st1" d="M1534.2,1305.6c17.5,2.4,35.4,2.1,52.8-0.7"/>
			<path id="XMLID_1173_" class="st1" d="M1611.6,1299c1.8-0.6,3.6-1.2,5.4-1.8c23-8.1,44.1-20.9,64.7-34
				c42.3-26.7,83.8-54.7,127.1-79.9c34.3-20,71.4-38.5,110.6-41.3"/>
			<path id="XMLID_1172_" class="st1" d="M1534.2,1324.5c27.8,3.8,56.4,0.9,82.9-8.4c23-8.1,44.1-20.9,64.7-34
				c42.3-26.7,83.8-54.7,127.1-79.9c34.3-20,71.4-38.5,110.5-41.3"/>
			<line id="XMLID_1171_" class="st1" x1="1517.1" y1="1291.3" x2="1517.1" y2="1335.3"/>
			<line id="XMLID_1170_" class="st1" x1="1528.1" y1="1300.8" x2="1528.1" y2="1309.3"/>
			<line id="XMLID_1169_" class="st1" x1="1528.6" y1="1318.8" x2="1528.6" y2="1326.8"/>
			<line id="XMLID_1168_" class="st2" x1="1520.4" y1="1291.5" x2="1520.4" y2="1334.8"/>
			<line id="XMLID_1167_" class="st1" x1="1513.3" y1="1290.6" x2="1513.3" y2="1335.8"/>
		</g>
	</g>
	<g id="XMLID_1090_">
		<g id="XMLID_1124_">
			<g id="XMLID_1162_">
				<path id="XMLID_1164_" class="st0" d="M1374.5,1152.4c0,10.4,8.4,18.9,18.7,18.9s18.7-8.5,18.7-18.9v-10.1h-37.4L1374.5,1152.4
					L1374.5,1152.4z"/>
				<polygon id="XMLID_1163_" class="st0" points="1587,1065.4 1525.6,1065.4 1525.6,1057.5 1507.6,1057.5 1507.6,1065.4 
					1374.5,1065.4 1374.5,1071.7 1385.3,1071.7 1385.3,1113.3 1380.5,1113.3 1380.5,1117.5 1378.5,1117.5 1378.5,1133.5 
					1374.5,1133.5 1374.5,1142.3 1411.9,1142.3 1411.9,1133.5 1407.9,1133.5 1407.9,1117.5 1405.9,1117.5 1405.9,1113.3 
					1401.1,1113.3 1401.1,1071.7 1507.6,1071.7 1507.6,1092.2 1525.6,1092.2 1525.6,1071.7 1587,1071.7 				"/>
			</g>
			<line id="XMLID_1161_" class="st1" x1="1587" y1="1093.2" x2="1525.6" y2="1093.2"/>
			<line id="XMLID_1160_" class="st1" x1="1507.6" y1="1093.2" x2="1374.5" y2="1093.2"/>
			<line id="XMLID_1159_" class="st1" x1="1587" y1="1099.4" x2="1525.6" y2="1099.4"/>
			<line id="XMLID_1158_" class="st1" x1="1507.6" y1="1099.4" x2="1374.5" y2="1099.4"/>
			<rect id="XMLID_1157_" x="1507.6" y="1085.5" class="st1" width="18" height="34.3"/>
			<g id="XMLID_1150_">
				<path id="XMLID_1156_" class="st1" d="M1374.5,1169.3v10c0,10.3,8.4,18.7,18.7,18.7l0,0c10.3,0,18.7-8.4,18.7-18.7v-10"/>
				<rect id="XMLID_1155_" x="1374.5" y="1160.6" class="st1" width="37.4" height="8.7"/>
				<path id="XMLID_1154_" class="st1" d="M1389.7,1169.3v14.7c0,2,1.6,3.5,3.5,3.5l0,0c2,0,3.5-1.6,3.5-3.5v-14.7"/>
				<rect id="XMLID_1153_" x="1378.5" y="1144.8" class="st1" width="29.5" height="15.8"/>
				<rect id="XMLID_1152_" x="1380.5" y="1140.7" class="st1" width="9.6" height="4.1"/>
				<rect id="XMLID_1151_" x="1396.3" y="1140.7" class="st1" width="9.6" height="4.1"/>
			</g>
			<line id="XMLID_1149_" class="st1" x1="1374.5" y1="1093.2" x2="1374.5" y2="1099.4"/>
			<line id="XMLID_1148_" class="st1" x1="1385.3" y1="1140.7" x2="1385.3" y2="1099.4"/>
			<line id="XMLID_1147_" class="st1" x1="1401.1" y1="1140.7" x2="1401.1" y2="1099.4"/>
			<line id="XMLID_1146_" class="st1" x1="1385.3" y1="1105.8" x2="1401.1" y2="1105.8"/>
			<line id="XMLID_1145_" class="st1" x1="1385.3" y1="1109.8" x2="1401.1" y2="1109.8"/>
			<path id="XMLID_1144_" class="st1" d="M1382,1140.7c-1.5-1.2-3-2.4-4.4-3.8c-2.6-2.6-4.5-6.4-3.3-9.8c1.6-4.4,7.2-5.6,11.9-5.8
				c11.4-0.5,22.8,0.9,34.2,1.3c29.8,1.1,59.9-4.7,87.2-16.8"/>
			<path id="XMLID_1143_" class="st1" d="M1398.7,1140.7c-2.7-5.5-1.9-12.9,1.8-18c5.1-6.9,14.1-10,22.7-10.3
				c8.6-0.2,17.1,1.9,25.5,3.6c19.5,3.9,40.7,4.7,58.8-3"/>
			<path id="XMLID_1142_" class="st1" d="M1525.6,1106.9c19.1,9.5,40.1,15.1,61.4,16.4"/>
			<path id="XMLID_1141_" class="st1" d="M1525.6,1112c8.3,1.8,15.7,7.3,23.1,11.8c11.5,7,25,12.2,38.3,12.1"/>
			<line id="XMLID_1140_" class="st1" x1="1379.1" y1="1156.3" x2="1407.1" y2="1156.3"/>
			<line id="XMLID_1139_" class="st1" x1="1503.1" y1="1093.2" x2="1503.1" y2="1099.4"/>
			<line id="XMLID_1138_" class="st1" x1="1498.1" y1="1093.3" x2="1498.1" y2="1098.3"/>
			<line id="XMLID_1137_" class="st1" x1="1531.6" y1="1093.2" x2="1531.6" y2="1099.3"/>
			<line id="XMLID_1136_" class="st1" x1="1508.8" y1="1088.8" x2="1524.7" y2="1088.8"/>
			<line id="XMLID_1135_" class="st2" x1="1389.4" y1="1110.2" x2="1389.4" y2="1139.9"/>
			<line id="XMLID_1134_" class="st2" x1="1403.4" y1="1144.8" x2="1403.4" y2="1156.5"/>
			<line id="XMLID_1133_" class="st2" x1="1399.8" y1="1145.8" x2="1399.8" y2="1156.8"/>
			<line id="XMLID_1132_" class="st2" x1="1383.1" y1="1145.5" x2="1383.1" y2="1155.8"/>
			<line id="XMLID_1131_" class="st2" x1="1404.4" y1="1161.2" x2="1404.4" y2="1169.5"/>
			<line id="XMLID_1130_" class="st2" x1="1400.1" y1="1161.2" x2="1400.1" y2="1169.2"/>
			<line id="XMLID_1129_" class="st2" x1="1507.8" y1="1093.2" x2="1524.5" y2="1093.2"/>
			<line id="XMLID_1128_" class="st2" x1="1507.4" y1="1117.2" x2="1525.1" y2="1117.2"/>
			<line id="XMLID_1127_" class="st2" x1="1582.8" y1="1093.5" x2="1582.8" y2="1098.5"/>
			<line id="XMLID_1126_" class="st2" x1="1579.8" y1="1093.5" x2="1579.8" y2="1098.2"/>
			<line id="XMLID_1125_" class="st1" x1="1587" y1="1093.2" x2="1587" y2="1099.4"/>
		</g>
		<g id="XMLID_1091_">
			<polygon id="XMLID_1123_" class="st0" points="1917.1,1065.4 1811.5,1065.4 1811.5,1057.5 1793.5,1057.5 1793.5,1065.4 
				1668.5,1065.4 1668.5,1057.5 1650.5,1057.5 1650.5,1065.4 1611.6,1065.4 1611.6,1071.7 1650.5,1071.7 1650.5,1092.2 
				1668.5,1092.2 1668.5,1071.7 1793.5,1071.7 1793.5,1092.2 1811.5,1092.2 1811.5,1071.7 1917.1,1071.7 			"/>
			<line id="XMLID_1122_" class="st1" x1="1917.1" y1="1093.2" x2="1811.5" y2="1093.2"/>
			<line id="XMLID_1121_" class="st1" x1="1793.5" y1="1093.2" x2="1668.5" y2="1093.2"/>
			<line id="XMLID_1120_" class="st1" x1="1650.5" y1="1093.2" x2="1611.6" y2="1093.2"/>
			<line id="XMLID_1119_" class="st1" x1="1917.1" y1="1099.4" x2="1811.5" y2="1099.4"/>
			<line id="XMLID_1118_" class="st1" x1="1793.5" y1="1099.4" x2="1668.5" y2="1099.4"/>
			<line id="XMLID_1117_" class="st1" x1="1650.5" y1="1099.4" x2="1611.6" y2="1099.4"/>
			<rect id="XMLID_1116_" x="1650.5" y="1085.5" class="st1" width="18" height="34.3"/>
			<rect id="XMLID_1115_" x="1793.5" y="1085.5" class="st1" width="18" height="34.3"/>
			<path id="XMLID_1114_" class="st1" d="M1611.6,1122.8c13.8-1.5,27.4-5.3,38.9-12.6"/>
			<path id="XMLID_1113_" class="st1" d="M1611.6,1128.5c13.4-8.2,24.4-21.2,38.9-26.7"/>
			<path id="XMLID_1112_" class="st1" d="M1668.5,1105.4c38.1,20.5,86.3,21,124.9,1.5"/>
			<path id="XMLID_1111_" class="st1" d="M1668.5,1114.5c8,2.2,15.6,6.8,23.1,10.6c14,7.1,29.5,11.7,45.2,12.3
				c15.7,0.5,31.7-3.2,44.9-11.8c4-2.6,7.8-5.7,11.8-8.4"/>
			<path id="XMLID_1110_" class="st1" d="M1811.5,1107.3c18.4,4.9,36.3,11.9,55.1,14.5c17.7,2.4,35.9,0.9,52.8-4.7"/>
			<path id="XMLID_1109_" class="st1" d="M1811.5,1113.9c19.1,5,37.5,12.9,56.9,16.7c17,3.3,36,2.6,50.9-5.3"/>
			<path id="XMLID_1108_" class="st1" d="M1811.5,1116.4c15.6,13.1,32.5,24.9,51.6,31.7c18,6.4,38.5,7.9,56.3,1.8"/>
			<line id="XMLID_1107_" class="st1" x1="1645.1" y1="1093.3" x2="1645.1" y2="1099.4"/>
			<line id="XMLID_1106_" class="st1" x1="1651.1" y1="1089.5" x2="1668.5" y2="1089.5"/>
			<line id="XMLID_1105_" class="st2" x1="1651.1" y1="1116.5" x2="1667.8" y2="1116.5"/>
			<line id="XMLID_1104_" class="st2" x1="1650.8" y1="1113.5" x2="1668.5" y2="1113.5"/>
			<line id="XMLID_1103_" class="st2" x1="1794.4" y1="1089.8" x2="1810.5" y2="1089.8"/>
			<line id="XMLID_1102_" class="st2" x1="1793.8" y1="1092.2" x2="1810.8" y2="1092.2"/>
			<line id="XMLID_1101_" class="st2" x1="1793.8" y1="1115.2" x2="1811.5" y2="1115.2"/>
			<line id="XMLID_1100_" class="st2" x1="1794.1" y1="1106.2" x2="1811.4" y2="1106.2"/>
			<line id="XMLID_1099_" class="st2" x1="1671.4" y1="1094.2" x2="1671.4" y2="1100.2"/>
			<line id="XMLID_1098_" class="st2" x1="1674.4" y1="1093.8" x2="1674.4" y2="1099.5"/>
			<line id="XMLID_1097_" class="st2" x1="1815.1" y1="1093.5" x2="1815.1" y2="1098.8"/>
			<line id="XMLID_1096_" class="st2" x1="1819.8" y1="1093.5" x2="1819.8" y2="1099.4"/>
			<line id="XMLID_1095_" class="st2" x1="1614.8" y1="1094.2" x2="1614.8" y2="1099.2"/>
			<line id="XMLID_1094_" class="st2" x1="1618.1" y1="1094.2" x2="1618.1" y2="1099.2"/>
			<line id="XMLID_1093_" class="st1" x1="1611.6" y1="1093.2" x2="1611.6" y2="1099.4"/>
			<line id="XMLID_1092_" class="st1" x1="1917.1" y1="1093.2" x2="1917.1" y2="1099.4"/>
		</g>
	</g>
</g>
</svg>
