<?xml version="1.0" encoding="utf-8"?>
<!-- Generator: Adobe Illustrator 19.0.0, SVG Export Plug-In . SVG Version: 6.00 Build 0)  -->
<svg version="1.1" id="Слой_1" xmlns="http://www.w3.org/2000/svg" xmlns:xlink="http://www.w3.org/1999/xlink" x="0px" y="0px"
	 viewBox="0 0 1920 3560" style="enable-background:new 0 0 1920 3560;" xml:space="preserve">
<style type="text/css">
	.st0{fill:#F4E1A1;}
	.st1{fill:none;stroke:#817957;stroke-width:2;stroke-linecap:round;stroke-linejoin:round;stroke-miterlimit:10;}
	.st2{fill:none;stroke:#817957;stroke-linecap:round;stroke-linejoin:round;stroke-miterlimit:10;}
	.st3{display:none;fill:none;stroke:#817957;stroke-width:2;stroke-linecap:round;stroke-linejoin:round;stroke-miterlimit:10;}
</style>
<g>
	<g id="_x30_3">
		<rect id="XMLID_2446_" x="239.6" y="131.5" class="st0" width="1134.1" height="382"/>
		<rect id="XMLID_2445_" x="239.6" y="169" class="st1" width="1134.1" height="378"/>
		<polyline id="XMLID_2444_" class="st1" points="270,189.1 1353.6,189.1 1353.6,485.7 259.7,485.7 259.7,199.4 		"/>
		<rect id="XMLID_2443_" x="1019.3" y="516.6" class="st1" width="177.2" height="30.4"/>
		<rect id="XMLID_2442_" x="416.8" y="516.6" class="st1" width="177.2" height="30.4"/>
		<line id="XMLID_2441_" class="st1" x1="300.2" y1="189.1" x2="300.2" y2="463.7"/>
		<line id="XMLID_2440_" class="st1" x1="340.8" y1="189.1" x2="340.8" y2="463.7"/>
		<line id="XMLID_2439_" class="st1" x1="381.3" y1="189.1" x2="381.3" y2="463.7"/>
		<line id="XMLID_2438_" class="st1" x1="421.9" y1="189.1" x2="421.9" y2="463.7"/>
		<line id="XMLID_2437_" class="st1" x1="462.5" y1="189.1" x2="462.5" y2="463.7"/>
		<line id="XMLID_2436_" class="st1" x1="503" y1="189.1" x2="503" y2="463.7"/>
		<line id="XMLID_2435_" class="st1" x1="543.6" y1="189.1" x2="543.6" y2="463.7"/>
		<line id="XMLID_2434_" class="st1" x1="584.1" y1="189.1" x2="584.1" y2="463.7"/>
		<line id="XMLID_2433_" class="st1" x1="624.7" y1="189.1" x2="624.7" y2="463.7"/>
		<line id="XMLID_2432_" class="st1" x1="665.3" y1="189.1" x2="665.3" y2="463.7"/>
		<line id="XMLID_2431_" class="st1" x1="705.8" y1="189.1" x2="705.8" y2="463.7"/>
		<line id="XMLID_2430_" class="st1" x1="746.4" y1="189.1" x2="746.4" y2="463.7"/>
		<line id="XMLID_2429_" class="st1" x1="787" y1="189.1" x2="787" y2="463.7"/>
		<line id="XMLID_2428_" class="st1" x1="827.5" y1="189.1" x2="827.5" y2="463.7"/>
		<line id="XMLID_2427_" class="st1" x1="868.1" y1="189.1" x2="868.1" y2="463.7"/>
		<line id="XMLID_2426_" class="st1" x1="908.6" y1="189.1" x2="908.6" y2="463.7"/>
		<line id="XMLID_2425_" class="st1" x1="949.2" y1="189.1" x2="949.2" y2="463.7"/>
		<line id="XMLID_2424_" class="st1" x1="989.8" y1="189.1" x2="989.8" y2="463.7"/>
		<line id="XMLID_2423_" class="st1" x1="1030.3" y1="189.1" x2="1030.3" y2="463.7"/>
		<line id="XMLID_2422_" class="st1" x1="1070.9" y1="189.1" x2="1070.9" y2="463.7"/>
		<line id="XMLID_2421_" class="st1" x1="1111.4" y1="189.1" x2="1111.4" y2="463.7"/>
		<line id="XMLID_2420_" class="st1" x1="1152" y1="189.1" x2="1152" y2="463.7"/>
		<line id="XMLID_2419_" class="st1" x1="1192.6" y1="189.1" x2="1192.6" y2="463.7"/>
		<line id="XMLID_2418_" class="st1" x1="1233.1" y1="189.1" x2="1233.1" y2="463.7"/>
		<line id="XMLID_2417_" class="st1" x1="1273.7" y1="189.1" x2="1273.7" y2="463.7"/>
		<line id="XMLID_2416_" class="st1" x1="1314.2" y1="189.1" x2="1314.2" y2="463.7"/>
		<g id="XMLID_2385_">
			<path id="XMLID_2408_" class="st2" d="M381.3,235.2c12-5.1,25.1-7.7,39.1-7.7c0.5,0,0.9,0,1.4,0 M462.5,236.6
				c6.6,3.1,12.9,7,19,11.6c3.5,2.8,5.6,6.4,6.3,10.9c0.6,4.6-0.6,8.7-3.4,12.3c-2.8,3.6-6.4,5.7-10.9,6.3c-4,0.5-7.7-0.3-11-2.3
				 M421.9,260.7c-0.5,0-0.9,0-1.4,0c-14.8,0-27.8,4.2-39.1,12.6 M381.3,381.6c11.3,8.4,24.4,12.7,39.1,12.7c0.5,0,0.9,0,1.4,0
				 M462.5,379.5c1-0.8,2-1.7,3.1-2.6c3.4-3.1,7.3-4.5,11.9-4.3s8.4,2,11.5,5.5c3.1,3.4,4.5,7.3,4.3,11.9s-2,8.4-5.3,11.5
				c-7.9,7.2-16.4,12.9-25.4,17.1 M421.9,427.3c-0.5,0-0.9,0-1.4,0c-14.1,0-27.1-2.6-39.1-7.7 M340.8,387.8
				c-13.4-17.4-20.1-37.5-20.1-60.3c0-22.9,6.7-43,20.1-60.4"/>
			<path id="XMLID_2406_" class="st2" d="M543.6,234c0.5-0.6,1-1.1,1.5-1.7c3.2-3.3,7-4.9,11.6-4.9s8.4,1.6,11.6,4.9
				c3.3,3.2,4.9,7,4.9,11.6v166.8c0,4.6-1.6,8.4-4.9,11.6c-3.2,3.3-7,4.9-11.6,4.9s-8.4-1.6-11.6-4.9c-0.5-0.5-1-1.1-1.5-1.6"/>
			<path id="XMLID_2400_" class="st2" d="M705.8,302.7l27.4,45.2l13.2-21.8 M787,259.1l15-24.9c1.9-3.2,4.5-5.5,8-6.9
				c3.4-1.3,5.2-2,5.2-2s1.8,0.5,5.5,1.4c2.7,0.8,5,2.1,6.9,4 M827.5,422.8c-3.2,3-7,4.6-11.4,4.6c-4.6,0-8.5-1.6-11.7-4.9
				c-3.2-3.2-4.8-7-4.8-11.6V302L787,323 M746.4,389.8l-0.3,0.5c-0.4,0.4-0.6,0.6-0.7,0.7c-0.1,0.1-0.3,0.3-0.6,0.6
				c-0.3,0.3-0.5,0.5-0.6,0.6c-0.2,0.2-0.5,0.4-0.8,0.7l-0.4,0.4c-0.3,0.2-0.6,0.4-1,0.6c0,0.1,0,0.1-0.1,0.1l-0.1,0.1h-0.1
				c-0.2,0.2-0.5,0.4-1,0.6c-0.4,0.2-0.5,0.3-0.4,0.3c-0.1,0-0.4,0.1-0.8,0.3c-2.1,0.9-4.4,1.3-6.7,1.3h-0.3c0.2,0,0,0-0.6-0.1
				c-1.2-0.1-2.4-0.3-3.6-0.7c-0.5-0.1-0.7-0.1-0.6-0.1c0.2,0.1,0,0-0.6-0.1c-0.5-0.2-0.8-0.3-1-0.4c0.1,0,0-0.1-0.3-0.3
				c-0.5-0.2-0.8-0.4-1.1-0.6h-0.1l-0.1-0.1l-0.1-0.1c-0.4-0.2-0.7-0.4-1-0.7c0,0.1-0.1,0-0.4-0.3c-0.4-0.3-0.7-0.5-0.8-0.7
				c-0.1-0.1-0.3-0.3-0.6-0.6s-0.5-0.5-0.6-0.6c-0.1-0.2-0.3-0.4-0.7-0.7c-0.2-0.3-0.3-0.5-0.3-0.6c-0.2-0.2-0.4-0.5-0.7-1l-0.1-0.1
				c0-0.1,0-0.1-0.1-0.1v-0.1c0-0.1,0-0.1-0.1-0.1l-12.9-21.4 M665.3,417.8c-0.8,1.7-1.9,3.3-3.4,4.7c-3.3,3.3-7.2,4.9-11.7,4.9
				s-8.4-1.6-11.6-4.9c-3.3-3.2-4.9-7-4.9-11.6V242.7c0-3.7,1.1-7,3.4-9.9c2.2-3,5.2-5,8.8-6c3.5-0.9,7-0.7,10.5,0.6
				c3.5,1.4,6.2,3.7,8.1,6.9l0.9,1.5"/>
			<path id="XMLID_2391_" class="st2" d="M949.2,231.3c9.9-3.2,20.4-4.8,31.7-4.8c3,0,6,0.1,8.9,0.3 M1030.3,239.2
				c7.7,4.4,14.9,10,21.6,16.6c7.9,8,14.3,16.6,19,25.9 M1070.9,372c-4.7,9.3-11,17.9-19,25.8c-6.7,6.7-13.9,12.3-21.6,16.7
				 M989.8,427c-2.9,0.2-5.9,0.4-8.9,0.4c-11.2,0-21.8-1.6-31.7-4.8 M908.6,396.5c-18.8-19.3-28.2-42.5-28.2-69.6
				s9.4-50.3,28.2-69.7 M949.2,386.6c9.5,5.2,20,7.8,31.7,7.8c3,0,6-0.2,8.9-0.5 M1030.3,372.6c12-12.8,17.9-28,17.9-45.7
				s-6-33-17.9-45.8 M989.8,260.1c-2.9-0.4-5.9-0.5-8.9-0.5c-11.6,0-22.2,2.6-31.7,7.7"/>
			<path id="XMLID_2386_" class="st2" d="M1152,227.5L1152,227.5c3.4,1,6.1,2.9,8.3,5.7l32.3,41.6 M1233.1,327.1l27.7,35.7V243.3
				c0-4.6,1.6-8.4,4.8-11.6c2.4-2.4,5.1-3.9,8.1-4.5 M1273.8,427c-0.1,0-0.2-0.1-0.6-0.2c-0.5-0.1-0.8-0.2-1.1-0.3
				c-0.1,0-0.3-0.1-0.6-0.3c-0.5-0.1-0.8-0.2-1.1-0.4c-0.2,0-0.4-0.1-0.6-0.3c-0.4-0.2-0.7-0.3-1-0.4c-0.3-0.2-0.5-0.3-0.6-0.4
				c-0.3-0.2-0.6-0.4-1-0.7c-0.3-0.2-0.5-0.3-0.6-0.4c-0.5-0.4-0.9-0.7-1.3-1.1l-0.1-0.1v-0.1c-0.4-0.4-0.6-0.6-0.6-0.6
				s-0.1-0.2-0.4-0.6h-0.1V421l-31.2-40.1 M1192.6,328.6l-28.8-37v119.3c0,4.6-1.6,8.4-4.9,11.6c-2,2.1-4.3,3.5-6.9,4.2"/>
		</g>
		<line id="XMLID_2384_" class="st1" x1="259.7" y1="463.7" x2="1353.6" y2="463.7"/>
		<rect id="XMLID_2383_" x="239.6" y="169" class="st1" width="30.4" height="30.4"/>
		<polyline id="XMLID_2382_" class="st1" points="1343.3,189.1 1343.3,169 1373.7,169 1373.7,199.4 1353.6,199.4 		"/>
		<rect id="XMLID_2381_" x="239.6" y="516.6" class="st1" width="30.4" height="30.4"/>
		<rect id="XMLID_2380_" x="1343.3" y="516.6" class="st1" width="30.4" height="30.4"/>
		<path id="XMLID_2379_" class="st2" d="M239.6,181.9c9.1-0.9,17.8-5.4,23.8-12.3"/>
		<path id="XMLID_2378_" class="st2" d="M240.1,192.2c10.6,0,21.1-3.5,29.5-9.8"/>
		<path id="XMLID_2377_" class="st2" d="M1344.1,180.5c4.3-0.8,9.1-1.4,12.7,1.1c6,4.2,5.6,14.7,12.3,17.6"/>
		<path id="XMLID_2376_" class="st2" d="M1344.2,174c7-1.7,14,2,20.9,3.9c3,0.8,6,1.3,9.1,1.5"/>
		<path id="XMLID_2375_" class="st2" d="M1343.7,544.1c9.5-3.1,19.4-4.7,29.4-4.7"/>
		<path id="XMLID_2374_" class="st2" d="M1343.5,539.1c9.7-3.4,19.5-6.2,29.6-8.4"/>
		<path id="XMLID_2373_" class="st2" d="M1343.4,535.4c4.5-1.8,9-3.4,13.6-4.9c2.6-0.9,5.3-1.7,7.5-3.3c1.6-1.1,2.9-2.6,4.1-4
			c1.5-1.7,3.1-3.4,4.6-5.1"/>
		<path id="XMLID_2372_" class="st2" d="M239.6,539.9c8,2.4,16,4.8,24,7.1"/>
		<path id="XMLID_2371_" class="st2" d="M239.5,532.1c10.1,2.9,20.3,5.7,30.5,8.3"/>
		<path id="XMLID_2370_" class="st2" d="M239.6,527.8c10.2,0.3,20.3,0.5,30.5,0.8"/>
		<path id="XMLID_2369_" class="st2" d="M417.8,532.3c26.3-9.7,54.3-14.8,82.3-15.2"/>
		<path id="XMLID_2368_" class="st2" d="M417.1,525.1c9.9-1.9,19.6-4.7,29.1-8.2"/>
		<path id="XMLID_2367_" class="st2" d="M417,539.3c26.6-5,53.2-10,79.8-15c1.7,3.3,5.6,5,9.4,5.1c3.7,0.1,7.4-1.2,10.9-2.3
			c19.2-6.1,39.3-9.4,59.4-9.9"/>
		<path id="XMLID_2366_" class="st2" d="M1019.5,534.1c9.5-7.2,20-13,31.2-17.3"/>
		<path id="XMLID_2365_" class="st2" d="M1019.9,539.4c16.4-7.4,32.8-14.8,49.2-22.2"/>
		<path id="XMLID_2364_" class="st2" d="M1041.8,529.5c24.3-2.7,48.5-6.9,72.3-12.4"/>
		<path id="XMLID_2363_" class="st2" d="M1019.8,543.5c30.2-4.5,59.7-12.8,89.8-17.5c17.6-2.7,35.4-4.3,52.5-9"/>
		<path id="XMLID_2362_" class="st2" d="M1163.4,546.6c6.4-1.3,12.9-2.6,18.9-5.2c4.6-2,9-4.7,13.9-5.7"/>
		<line id="XMLID_2361_" class="st2" x1="345.1" y1="188.8" x2="345.1" y2="463"/>
		<line id="XMLID_2360_" class="st2" x1="430.1" y1="189.8" x2="430.1" y2="463.8"/>
		<path id="XMLID_2359_" class="st2" d="M263.1,199.8c0,0.7,0,1.3,0,2v262.4"/>
		<line id="XMLID_2358_" class="st2" x1="512.1" y1="188.8" x2="512.1" y2="463.1"/>
		<line id="XMLID_2357_" class="st2" x1="592.1" y1="190.8" x2="592.1" y2="461"/>
		<line id="XMLID_2356_" class="st2" x1="670.1" y1="188.8" x2="670.1" y2="465.2"/>
		<line id="XMLID_2355_" class="st2" x1="780.1" y1="187.8" x2="780.1" y2="463.7"/>
		<line id="XMLID_2354_" class="st2" x1="912.1" y1="188.8" x2="912.1" y2="463.7"/>
		<path id="XMLID_2353_" class="st2" d="M1117.1,188.8c0,0.7,0,1.3,0,2V464"/>
		<line id="XMLID_2352_" class="st2" x1="1323.1" y1="188.8" x2="1323.1" y2="463.1"/>
		<line id="XMLID_2351_" class="st2" x1="1347.1" y1="189.8" x2="1347.1" y2="463.7"/>
		<line id="XMLID_2350_" class="st2" x1="270.1" y1="180.8" x2="1343.3" y2="180.8"/>
		<path id="XMLID_2349_" class="st2" d="M260.1,470.8c2,0,4,0,6,0h1087.5"/>
		<line id="XMLID_2348_" class="st2" x1="594" y1="528.8" x2="1019.3" y2="528.8"/>
		<line id="XMLID_2347_" class="st2" x1="1196.5" y1="536.8" x2="1342.5" y2="536.8"/>
		<line id="XMLID_2346_" class="st2" x1="240.1" y1="496.8" x2="1374.1" y2="496.8"/>
	</g>
	<g id="_x30_9">
		<g id="XMLID_1839_">
			<g id="XMLID_1851_">
				<rect id="XMLID_1854_" x="247.7" y="1395.3" class="st0" width="10.9" height="45.7"/>
				<rect id="XMLID_1853_" x="237.8" y="1421.7" class="st0" width="9.9" height="10"/>
				<rect id="XMLID_1852_" x="237.8" y="1403.6" class="st0" width="9.9" height="10"/>
			</g>
			<g id="XMLID_1846_">
				<g id="XMLID_1847_">
					<polyline id="XMLID_1850_" class="st1" points="258.6,1419.7 247.7,1419.7 247.7,1464.9 258.6,1464.9 					"/>
					<rect id="XMLID_1849_" x="237.8" y="1445.9" class="st1" width="9.9" height="9.9"/>
					<rect id="XMLID_1848_" x="237.8" y="1427.9" class="st1" width="9.9" height="9.9"/>
				</g>
			</g>
			<path id="XMLID_1845_" class="st1" d="M-0.6,1224.1c19.2,2.8,37.9,9.1,54.8,18.5"/>
			<path id="XMLID_1844_" class="st1" d="M87.1,1267.3c27.5,27.3,43.7,63.6,64.7,96.1c20.5,31.7,49,62.1,86,68.9"/>
			<path id="XMLID_1843_" class="st1" d="M-0.6,1300.2c26.5,3.9,51.7,18.1,72.6,35.4c27.8,23,50.4,51.6,77.5,75.4
				c24.9,21.9,55.5,38.1,88.2,39.8"/>
			<line id="XMLID_1842_" class="st1" x1="244.4" y1="1428.2" x2="244.4" y2="1436.2"/>
			<line id="XMLID_1841_" class="st1" x1="243.1" y1="1446.5" x2="243.1" y2="1455.5"/>
			<line id="XMLID_1840_" class="st1" x1="258.6" y1="1419.7" x2="258.6" y2="1464.9"/>
		</g>
		<g id="XMLID_1776_">
			<rect id="XMLID_1838_" x="258.6" y="1297.8" class="st0" width="190.8" height="227.1"/>
			<rect id="XMLID_1837_" x="258.6" y="1323.2" class="st1" width="190.8" height="224.7"/>
			<g id="XMLID_1827_">
				<path id="XMLID_1836_" class="st1" d="M330.6,1394.7c8.3,7.8,8.3,20.5,0,28.3s-21.7,7.8-30,0s-8.3-20.5,0-28.3
					C308.8,1386.9,322.3,1386.9,330.6,1394.7z"/>
				<path id="XMLID_1835_" class="st1" d="M333.3,1408.9h-35.5c0-9.3,8-16.8,17.8-16.8S333.3,1399.6,333.3,1408.9z"/>
				<path id="XMLID_1834_" class="st1" d="M332.8,1380.7l-6.4,6.1c-6.8-3-14.8-3-21.6,0l-6.4-6.1l-12.6,11.9l6.4,6.1
					c-3.2,6.5-3.2,14,0,20.4l-6.4,6.1l12.6,11.9l6.4-6.1c6.8,3,14.8,3,21.6,0l6.4,6.1l12.6-11.9l-6.4-6.1c3.2-6.5,3.2-14,0-20.4
					l6.4-6.1L332.8,1380.7z"/>
				<path id="XMLID_1833_" class="st1" d="M297.9,1425.5c0.9,0.8,0.9,2.2,0,3s-2.3,0.8-3.2,0c-0.9-0.8-0.9-2.2,0-3
					C295.7,1424.7,297.1,1424.7,297.9,1425.5z"/>
				<path id="XMLID_1832_" class="st1" d="M297.9,1389.3c0.9,0.8,0.9,2.2,0,3s-2.3,0.8-3.2,0c-0.9-0.8-0.9-2.2,0-3
					C295.7,1388.5,297.1,1388.5,297.9,1389.3z"/>
				<path id="XMLID_1831_" class="st1" d="M336.3,1425.5c0.9,0.8,0.9,2.2,0,3s-2.3,0.8-3.2,0c-0.9-0.8-0.9-2.2,0-3
					C334.1,1424.7,335.5,1424.7,336.3,1425.5z"/>
				<path id="XMLID_1830_" class="st1" d="M336.3,1389.3c0.9,0.8,0.9,2.2,0,3s-2.3,0.8-3.2,0c-0.9-0.8-0.9-2.2,0-3
					C334.1,1388.5,335.5,1388.5,336.3,1389.3z"/>
				<line id="XMLID_1829_" class="st1" x1="315.6" y1="1408.9" x2="312.6" y2="1398.5"/>
				<line id="XMLID_1828_" class="st1" x1="297.8" y1="1408.9" x2="333.3" y2="1408.9"/>
			</g>
			<g id="XMLID_1817_">
				<path id="XMLID_1826_" class="st1" d="M407.6,1394.7c8.3,7.8,8.3,20.5,0,28.3s-21.7,7.8-30,0s-8.3-20.5,0-28.3
					C385.9,1386.9,399.3,1386.9,407.6,1394.7z"/>
				<path id="XMLID_1825_" class="st1" d="M410.4,1408.9h-35.5c0-9.3,8-16.8,17.8-16.8S410.4,1399.6,410.4,1408.9z"/>
				<path id="XMLID_1824_" class="st1" d="M409.9,1380.7l-6.4,6.1c-6.8-3-14.8-3-21.6,0l-6.4-6.1l-12.6,11.9l6.4,6.1
					c-3.2,6.5-3.2,14,0,20.4l-6.4,6.1l12.6,11.9l6.4-6.1c6.8,3,14.8,3,21.6,0l6.4,6.1l12.6-11.9l-6.4-6.1c3.2-6.5,3.2-14,0-20.4
					l6.4-6.1L409.9,1380.7z"/>
				<path id="XMLID_1823_" class="st1" d="M375,1425.5c0.9,0.8,0.9,2.2,0,3s-2.3,0.8-3.2,0c-0.9-0.8-0.9-2.2,0-3
					C372.7,1424.7,374.1,1424.7,375,1425.5z"/>
				<path id="XMLID_1822_" class="st1" d="M375,1389.3c0.9,0.8,0.9,2.2,0,3s-2.3,0.8-3.2,0c-0.9-0.8-0.9-2.2,0-3
					C372.7,1388.5,374.1,1388.5,375,1389.3z"/>
				<path id="XMLID_1821_" class="st1" d="M413.4,1425.5c0.9,0.8,0.9,2.2,0,3s-2.3,0.8-3.2,0c-0.9-0.8-0.9-2.2,0-3
					C411.1,1424.7,412.5,1424.7,413.4,1425.5z"/>
				<path id="XMLID_1820_" class="st1" d="M413.4,1389.3c0.9,0.8,0.9,2.2,0,3s-2.3,0.8-3.2,0c-0.9-0.8-0.9-2.2,0-3
					C411.1,1388.5,412.5,1388.5,413.4,1389.3z"/>
				<line id="XMLID_1819_" class="st1" x1="392.6" y1="1408.9" x2="385.3" y2="1400.5"/>
				<line id="XMLID_1818_" class="st1" x1="374.8" y1="1408.9" x2="410.4" y2="1408.9"/>
			</g>
			<g id="XMLID_1806_">
				<rect id="XMLID_1816_" x="285.7" y="1342.7" class="st1" width="135.8" height="18.2"/>
				<line id="XMLID_1815_" class="st1" x1="413.4" y1="1342.8" x2="413.4" y2="1360.8"/>
				<line id="XMLID_1814_" class="st1" x1="406.8" y1="1344.2" x2="406.8" y2="1359.5"/>
				<line id="XMLID_1813_" class="st1" x1="383.4" y1="1343.5" x2="383.4" y2="1361"/>
				<line id="XMLID_1812_" class="st1" x1="359.4" y1="1342.8" x2="359.4" y2="1360.2"/>
				<line id="XMLID_1811_" class="st1" x1="354.1" y1="1342.8" x2="354.1" y2="1359.5"/>
				<line id="XMLID_1810_" class="st1" x1="342.1" y1="1343.5" x2="342.1" y2="1361"/>
				<line id="XMLID_1809_" class="st1" x1="316.8" y1="1343.5" x2="316.8" y2="1361"/>
				<line id="XMLID_1808_" class="st1" x1="312.8" y1="1342.7" x2="312.8" y2="1361"/>
				<line id="XMLID_1807_" class="st1" x1="294.1" y1="1343.5" x2="294.1" y2="1361"/>
			</g>
			<g id="XMLID_1777_">
				<g id="XMLID_1800_">
					<line id="XMLID_1805_" class="st1" x1="290.8" y1="1456.9" x2="290.8" y2="1472.7"/>
					<line id="XMLID_1804_" class="st1" x1="290.8" y1="1487.3" x2="290.8" y2="1517.8"/>
					<rect id="XMLID_1803_" x="285.8" y="1472.7" class="st1" width="17" height="14.6"/>
					<line id="XMLID_1802_" class="st1" x1="298.6" y1="1472.6" x2="298.6" y2="1487.5"/>
					<line id="XMLID_1801_" class="st1" x1="294.1" y1="1473.1" x2="294.1" y2="1486.7"/>
				</g>
				<g id="XMLID_1795_">
					<line id="XMLID_1799_" class="st1" x1="320.8" y1="1456.9" x2="320.8" y2="1481"/>
					<line id="XMLID_1798_" class="st1" x1="320.8" y1="1495.6" x2="320.8" y2="1517.8"/>
					<rect id="XMLID_1797_" x="315.7" y="1481" class="st1" width="17" height="14.6"/>
					<line id="XMLID_1796_" class="st1" x1="327.9" y1="1481.3" x2="327.9" y2="1495.2"/>
				</g>
				<g id="XMLID_1789_">
					<line id="XMLID_1794_" class="st1" x1="350.7" y1="1456.9" x2="350.7" y2="1488.3"/>
					<line id="XMLID_1793_" class="st1" x1="350.7" y1="1502.9" x2="350.7" y2="1517.8"/>
					<rect id="XMLID_1792_" x="345.6" y="1488.3" class="st1" width="17" height="14.6"/>
					<line id="XMLID_1791_" class="st1" x1="358.1" y1="1488.8" x2="358.1" y2="1502.1"/>
					<line id="XMLID_1790_" class="st1" x1="353.9" y1="1488.8" x2="353.9" y2="1501.6"/>
				</g>
				<g id="XMLID_1783_">
					<line id="XMLID_1788_" class="st1" x1="380.6" y1="1456.9" x2="380.6" y2="1464.7"/>
					<line id="XMLID_1787_" class="st1" x1="380.6" y1="1479.3" x2="380.6" y2="1517.8"/>
					<rect id="XMLID_1786_" x="375.6" y="1464.7" class="st1" width="17" height="14.6"/>
					<line id="XMLID_1785_" class="st1" x1="388.4" y1="1464.8" x2="388.4" y2="1478.4"/>
					<line id="XMLID_1784_" class="st1" x1="382.9" y1="1465.6" x2="382.9" y2="1478.4"/>
				</g>
				<g id="XMLID_1778_">
					<line id="XMLID_1782_" class="st1" x1="410.5" y1="1456.9" x2="410.5" y2="1476.7"/>
					<line id="XMLID_1781_" class="st1" x1="410.5" y1="1491.3" x2="410.5" y2="1517.8"/>
					<rect id="XMLID_1780_" x="405.5" y="1476.7" class="st1" width="17" height="14.6"/>
					<line id="XMLID_1779_" class="st1" x1="414.9" y1="1477.1" x2="414.9" y2="1490.4"/>
				</g>
			</g>
		</g>
	</g>
	<g id="_x31_1">
		<rect id="XMLID_1767_" x="0.4" y="920.5" class="st0" width="1920" height="7.5"/>
		<rect id="XMLID_1766_" x="0.4" y="949.8" class="st1" width="1920" height="7.4"/>
	</g>
	<g id="_x31_2">
		<g id="XMLID_1727_">
			<path id="XMLID_1765_" class="st0" d="M1378.7,928v8.7h34.9v7.1h3.9v16.1l0,0V981l0,0v3.5h-3.4h-20.9H1361h-33.6h-79.5h-8.8
				v-10.2h-44.9v10.2h-8.8h-97.9h-20.9h-3.4V981l0,0v-21.1l0,0v-16.1h3.9v-7.1h17V928h-59.7v8.7h10.2v7.1h3.9v16.1V981v3.5l0,0
				c0,13.8,11,24.9,24.7,24.9h3.4h20.9h97.9h8.8v10.2h44.9v-10.2h8.8h145.3h20.9h3.4l0,0c13.6,0,24.7-11.2,24.7-24.9l0,0V981v-21.1
				v-16.1h3.9v-7.1h41.1V928H1378.7z"/>
			<rect id="XMLID_1764_" x="1378.7" y="957.2" class="st1" width="108.4" height="8.6"/>
			<rect id="XMLID_1763_" x="1024.3" y="957.2" class="st1" width="59.7" height="8.6"/>
			<g id="XMLID_1754_">
				<path id="XMLID_1762_" class="st1" d="M1063.1,1013.1v-40.3h-24.7v40.3l0,0c0,13.6,11,24.7,24.7,24.7l0,0h131v-24.7
					L1063.1,1013.1L1063.1,1013.1z"/>
				<g id="XMLID_1759_">
					<rect id="XMLID_1761_" x="1066.6" y="1013.1" class="st1" width="20.9" height="24.7"/>
					<line id="XMLID_1760_" class="st1" x1="1080.4" y1="1013.1" x2="1080.4" y2="1037.8"/>
				</g>
				<g id="XMLID_1756_">
					<rect id="XMLID_1758_" x="1038.5" y="988.8" class="st1" width="24.7" height="20.9"/>
					<line id="XMLID_1757_" class="st1" x1="1038.5" y1="995.8" x2="1063.1" y2="995.8"/>
				</g>
				<rect id="XMLID_1755_" x="1034.6" y="965.8" class="st1" width="32.5" height="7"/>
			</g>
			<g id="XMLID_1745_">
				<path id="XMLID_1753_" class="st1" d="M1417.5,1013.1v-40.3h24.7v40.3l0,0c0,13.6-11,24.7-24.7,24.7l0,0h-178.4v-24.7
					L1417.5,1013.1L1417.5,1013.1z"/>
				<g id="XMLID_1750_">
					<rect id="XMLID_1752_" x="1393.2" y="1013.1" class="st1" width="20.9" height="24.7"/>
					<line id="XMLID_1751_" class="st1" x1="1400.2" y1="1013.1" x2="1400.2" y2="1037.8"/>
				</g>
				<g id="XMLID_1747_">
					<rect id="XMLID_1749_" x="1417.5" y="988.8" class="st1" width="24.7" height="20.9"/>
					<line id="XMLID_1748_" class="st1" x1="1442.2" y1="995.8" x2="1417.5" y2="995.8"/>
				</g>
				<rect id="XMLID_1746_" x="1413.6" y="965.8" class="st1" width="32.5" height="7"/>
			</g>
			<g id="XMLID_1740_">
				<rect id="XMLID_1744_" x="1194.2" y="1003" class="st1" width="44.9" height="44.9"/>
				<g id="XMLID_1741_">
					<circle id="XMLID_1743_" class="st1" cx="1216.6" cy="1025.5" r="10.8"/>
					<circle id="XMLID_1742_" class="st1" cx="1216.6" cy="1025.5" r="6.9"/>
				</g>
			</g>
			<rect id="XMLID_1739_" x="1185.3" y="1013.1" class="st1" width="8.8" height="24.7"/>
			<rect id="XMLID_1738_" x="1239.1" y="1013.1" class="st1" width="8.8" height="24.7"/>
			<rect id="XMLID_1737_" x="1327.4" y="1013.1" class="st1" width="33.6" height="12.3"/>
			<path id="XMLID_1736_" class="st2" d="M1441.9,965.8c-0.4,2.5-0.8,4.9-1.1,7.4"/>
			<path id="XMLID_1735_" class="st2" d="M1438.7,966.5c0.1,2.2,0.2,4.3,0.2,6.5"/>
			<path id="XMLID_1734_" class="st2" d="M1436.2,966.4c-0.1,2.2-0.1,4.3,0.1,6.5"/>
			<path id="XMLID_1733_" class="st2" d="M1241.2,1013.6c0,7.7,0.1,15.3,0.3,23"/>
			<path id="XMLID_1732_" class="st2" d="M1191.6,1013.5c-0.5,7.8-0.8,15.6-0.9,23.5"/>
			<path id="XMLID_1731_" class="st2" d="M1062.6,966.4c-0.2,2.4-0.6,4.7-1.2,7"/>
			<path id="XMLID_1730_" class="st2" d="M1060.1,966.5c0,2.2-0.2,4.5-0.4,6.7"/>
			<path id="XMLID_1729_" class="st2" d="M1057,966.7c0,1.9,0,3.9,0,5.8"/>
			<path id="XMLID_1728_" class="st2" d="M1040.7,966.5c0.1,2.2,0.1,4.3,0.1,6.5"/>
		</g>
		<g id="XMLID_1708_">
			<path id="XMLID_1726_" class="st0" d="M964.6,928v8.7h16.8v7.1h3.9v16.1l0,0V981l0,0v3.5h-3.4H961H626.2h-8.8h-8.8v24.9h3.2l0,0
				l0,0h5.6h8.8h40.2h37.9H961h20.9h3.4c13.6,0,24.7-11.2,24.7-24.9V981v-21.1v-16.1h3.9v-7.1h10.4V928H964.6z"/>
			<rect id="XMLID_1725_" x="964.6" y="957.2" class="st1" width="59.7" height="8.6"/>
			<path id="XMLID_1724_" class="st1" d="M608.6,1013.1h376.8v-40.3h24.7v40.3c0,13.6-11,24.7-24.7,24.7H608.6"/>
			<g id="XMLID_1721_">
				<rect id="XMLID_1723_" x="961" y="1013.1" class="st1" width="20.9" height="24.7"/>
				<line id="XMLID_1722_" class="st1" x1="968" y1="1013.1" x2="968" y2="1037.8"/>
			</g>
			<g id="XMLID_1718_">
				<rect id="XMLID_1720_" x="985.3" y="988.8" class="st1" width="24.7" height="20.9"/>
				<line id="XMLID_1719_" class="st1" x1="1010" y1="995.8" x2="985.3" y2="995.8"/>
			</g>
			<rect id="XMLID_1717_" x="981.4" y="965.8" class="st1" width="32.5" height="7"/>
			<rect id="XMLID_1716_" x="608.6" y="1013.1" class="st1" width="8.8" height="24.7"/>
			<rect id="XMLID_1715_" x="617.4" y="1013.1" class="st1" width="8.8" height="24.7"/>
			<rect id="XMLID_1714_" x="666.4" y="1025.5" class="st1" width="37.9" height="12.3"/>
			<path id="XMLID_1713_" class="st2" d="M1010.1,966.7c-0.1,2.3-0.2,4.7-0.3,7c0-0.1,0-0.1,0-0.2"/>
			<path id="XMLID_1712_" class="st2" d="M1007,966.4c0.1,2.2,0.2,4.3,0.3,6.5"/>
			<path id="XMLID_1711_" class="st2" d="M1005,965.9c-0.3,2.4-0.2,4.8,0.3,7.2"/>
			<path id="XMLID_1710_" class="st2" d="M986.8,966.9c-0.3,2.2-0.6,4.3-0.9,6.5"/>
			<path id="XMLID_1709_" class="st2" d="M611,1013.5c0.1,5.7,0.1,11.5,0.2,17.2c0,2.4,0,4.8,0.6,7.2c0.1-0.2,0.2-0.5,0.1-0.7"/>
		</g>
		<g id="XMLID_1698_">
			<rect id="XMLID_1707_" x="380.9" y="984.5" class="st0" width="182.7" height="24.9"/>
			<line id="XMLID_1706_" class="st1" x1="380.9" y1="1013.1" x2="563.6" y2="1013.1"/>
			<line id="XMLID_1705_" class="st1" x1="563.6" y1="1037.8" x2="380.9" y2="1037.8"/>
			<rect id="XMLID_1704_" x="554.8" y="1013.1" class="st1" width="8.8" height="24.7"/>
			<line id="XMLID_1703_" class="st1" x1="385.1" y1="1013.3" x2="385.1" y2="1037.8"/>
			<line id="XMLID_1702_" class="st1" x1="392.1" y1="1013.1" x2="392.1" y2="1037.3"/>
			<line id="XMLID_1701_" class="st1" x1="397.1" y1="1013.8" x2="397.1" y2="1036.8"/>
			<path id="XMLID_1700_" class="st2" d="M561.1,1013.3c-0.3,7.9-0.6,15.8-0.9,23.7c0,0.1,0,0.3,0.1,0.4s0.3-0.1,0.2-0.2"/>
			<line id="XMLID_1699_" class="st1" x1="380.9" y1="1013.1" x2="380.9" y2="1037.8"/>
		</g>
		<g id="XMLID_1690_">
			<rect id="XMLID_1697_" x="-0.6" y="984.5" class="st0" width="336.6" height="24.9"/>
			<line id="XMLID_1696_" class="st1" x1="-0.6" y1="1013.1" x2="336" y2="1013.1"/>
			<line id="XMLID_1695_" class="st1" x1="336" y1="1037.8" x2="-0.6" y2="1037.8"/>
			<line id="XMLID_1694_" class="st1" x1="331.1" y1="1013.1" x2="331.1" y2="1037.8"/>
			<line id="XMLID_1693_" class="st1" x1="321.1" y1="1013.8" x2="321.1" y2="1036.8"/>
			<line id="XMLID_1692_" class="st1" x1="336" y1="1013.1" x2="336" y2="1037.8"/>
			<line id="XMLID_1691_" class="st1" x1="-0.6" y1="1013.1" x2="-0.6" y2="1037.8"/>
		</g>
		<g id="XMLID_1670_">
			<polygon id="XMLID_1689_" class="st0" points="336,974.2 336,1019.6 342.2,1019.6 342.2,1026.7 346.6,1026.7 346.6,1206.2 
				370.8,1206.2 370.8,1026.7 374.7,1026.7 374.7,1019.6 380.9,1019.6 380.9,974.2 			"/>
			<g id="XMLID_1684_">
				<rect id="XMLID_1688_" x="336" y="1003" class="st1" width="44.9" height="44.9"/>
				<g id="XMLID_1685_">
					<circle id="XMLID_1687_" class="st1" cx="358.4" cy="1025.5" r="10.8"/>
					<circle id="XMLID_1686_" class="st1" cx="358.4" cy="1025.5" r="6.9"/>
				</g>
			</g>
			<g id="XMLID_1675_">
				<g id="XMLID_1678_">
					<g id="XMLID_1682_">
						<line id="XMLID_1683_" class="st1" x1="346.1" y1="1077.9" x2="370.8" y2="1077.9"/>
					</g>
					<rect id="XMLID_1681_" x="342.2" y="1047.9" class="st1" width="32.5" height="7"/>
					<line id="XMLID_1680_" class="st1" x1="346.1" y1="1232.5" x2="346.1" y2="1055"/>
					<line id="XMLID_1679_" class="st1" x1="370.8" y1="1232.5" x2="370.8" y2="1055"/>
				</g>
				<line id="XMLID_1677_" class="st1" x1="365.3" y1="1055" x2="365.3" y2="1077.9"/>
				<line id="XMLID_1676_" class="st1" x1="346.1" y1="1232.5" x2="370.8" y2="1232.5"/>
			</g>
			<line id="XMLID_1674_" class="st1" x1="346.1" y1="1224.8" x2="369.6" y2="1224.8"/>
			<line id="XMLID_1673_" class="st1" x1="346.6" y1="1219.3" x2="370.7" y2="1219.3"/>
			<line id="XMLID_1672_" class="st1" x1="346.1" y1="1082.3" x2="370.6" y2="1082.3"/>
			<line id="XMLID_1671_" class="st1" x1="355.1" y1="1082.3" x2="355.1" y2="1217.8"/>
		</g>
		<g id="XMLID_1647_">
			<polygon id="XMLID_1669_" class="st0" points="380.9,1251.6 380.9,1241.3 389.7,1241.3 389.7,1216.4 380.9,1216.4 380.9,1206.2 
				336,1206.2 336,1216.4 -0.6,1216.4 -0.6,1241.3 318.3,1241.3 327.1,1241.3 336,1241.3 336,1251.6 346.1,1251.6 346.1,1282 
				342.2,1282 342.2,1289.1 331.6,1289.1 331.6,1297.8 385.3,1297.8 385.3,1289.1 374.7,1289.1 374.7,1282 370.7,1282 370.7,1251.6 
							"/>
			<rect id="XMLID_1668_" x="331.6" y="1314.6" class="st1" width="53.8" height="8.6"/>
			<g id="XMLID_1663_">
				<rect id="XMLID_1667_" x="336" y="1232.5" class="st1" width="44.9" height="44.9"/>
				<g id="XMLID_1664_">
					<circle id="XMLID_1666_" class="st1" cx="358.4" cy="1255" r="10.8"/>
					<circle id="XMLID_1665_" class="st1" cx="358.4" cy="1255" r="6.9"/>
				</g>
			</g>
			<rect id="XMLID_1662_" x="327.1" y="1242.7" class="st1" width="8.8" height="24.7"/>
			<rect id="XMLID_1661_" x="318.3" y="1242.7" class="st1" width="8.8" height="24.7"/>
			<rect id="XMLID_1660_" x="380.9" y="1242.7" class="st1" width="8.8" height="24.7"/>
			<g id="XMLID_1654_">
				<g id="XMLID_1658_">
					<line id="XMLID_1659_" class="st1" x1="370.8" y1="1284.6" x2="346.1" y2="1284.6"/>
				</g>
				<rect id="XMLID_1657_" x="342.2" y="1307.6" class="st1" width="32.5" height="7"/>
				<line id="XMLID_1656_" class="st1" x1="370.8" y1="1277.5" x2="370.8" y2="1307.6"/>
				<line id="XMLID_1655_" class="st1" x1="346.1" y1="1277.5" x2="346.1" y2="1307.6"/>
			</g>
			<line id="XMLID_1653_" class="st1" x1="351.6" y1="1307.6" x2="351.6" y2="1284.6"/>
			<line id="XMLID_1652_" class="st1" x1="318.3" y1="1261.2" x2="-0.6" y2="1261.2"/>
			<g id="XMLID_1649_">
				<line id="XMLID_1651_" class="st1" x1="-0.6" y1="1242.7" x2="318.3" y2="1242.7"/>
				<line id="XMLID_1650_" class="st1" x1="318.3" y1="1267.3" x2="-0.6" y2="1267.3"/>
			</g>
			<line id="XMLID_1648_" class="st1" x1="-0.6" y1="1242.7" x2="-0.6" y2="1267.3"/>
		</g>
		<g id="XMLID_1598_">
			<g id="XMLID_1643_">
				<ellipse id="XMLID_1646_" class="st0" cx="505" cy="1144.1" rx="41.8" ry="42.2"/>
				<polygon id="XMLID_1645_" class="st0" points="602.4,1235 602.4,1241.8 592.5,1241.8 592.5,1251.8 602.4,1251.8 602.4,1259.6 
					592.5,1259.6 592.5,1269.7 602.4,1269.7 602.4,1280.4 647.4,1280.4 647.4,1235 				"/>
				<polygon id="XMLID_1644_" class="st0" points="602.3,943.8 602.3,936.7 613,936.7 613,928 559.2,928 559.2,936.7 569.9,936.7 
					569.9,943.8 573.8,943.8 573.8,974.2 563.6,974.2 563.6,1019.6 569.3,1019.6 569.3,1029.7 579.2,1029.7 579.2,1019.6 
					587,1019.6 587,1029.7 596.9,1029.7 596.9,1019.6 608.6,1019.6 608.6,974.2 598.4,974.2 598.4,943.8 				"/>
			</g>
			<rect id="XMLID_1642_" x="559.2" y="957.2" class="st1" width="53.8" height="8.6"/>
			<g id="XMLID_1637_">
				<rect id="XMLID_1641_" x="563.6" y="1003" class="st1" width="44.9" height="44.9"/>
				<g id="XMLID_1638_">
					<circle id="XMLID_1640_" class="st1" cx="586.1" cy="1025.5" r="10.8"/>
					<circle id="XMLID_1639_" class="st1" cx="586.1" cy="1025.5" r="6.9"/>
				</g>
			</g>
			<g id="XMLID_1631_">
				<g id="XMLID_1635_">
					<line id="XMLID_1636_" class="st1" x1="573.8" y1="995.8" x2="598.4" y2="995.8"/>
				</g>
				<rect id="XMLID_1634_" x="569.9" y="965.8" class="st1" width="32.5" height="7"/>
				<line id="XMLID_1633_" class="st1" x1="573.8" y1="1003" x2="573.8" y2="972.9"/>
				<line id="XMLID_1632_" class="st1" x1="598.4" y1="1003" x2="598.4" y2="972.9"/>
			</g>
			<g id="XMLID_1623_">
				<g id="XMLID_1626_">
					<rect id="XMLID_1630_" x="602.4" y="1261.1" class="st1" width="44.9" height="44.9"/>
					<g id="XMLID_1627_">
						<circle id="XMLID_1629_" class="st1" cx="624.9" cy="1283.6" r="10.8"/>
						<circle id="XMLID_1628_" class="st1" cx="624.9" cy="1283.6" r="6.9"/>
					</g>
				</g>
				<rect id="XMLID_1625_" x="592.5" y="1267.8" class="st1" width="9.9" height="9.9"/>
				<rect id="XMLID_1624_" x="592.5" y="1285.4" class="st1" width="9.9" height="9.9"/>
			</g>
			<line id="XMLID_1622_" class="st1" x1="592.9" y1="972.9" x2="592.9" y2="995.8"/>
			<circle id="XMLID_1621_" class="st1" cx="505" cy="1171.2" r="27.9"/>
			<circle id="XMLID_1620_" class="st1" cx="505" cy="1171.2" r="41.8"/>
			<g id="XMLID_1617_">
				<rect id="XMLID_1619_" x="569.3" y="1047.9" class="st1" width="9.9" height="9.9"/>
				<rect id="XMLID_1618_" x="587" y="1047.9" class="st1" width="9.9" height="9.9"/>
			</g>
			<path id="XMLID_1616_" class="st1" d="M574.2,1057.9c0.4,17.1-1.1,34.5-6.7,50.7c-6.8,19.8-20.3,37.8-40.1,46"/>
			<path id="XMLID_1615_" class="st1" d="M517.1,1211.1c5.1,15.8,14.9,30.1,27.8,40.5c13.5,10.9,30.4,19.5,47.7,20.7"/>
			<path id="XMLID_1614_" class="st1" d="M592.1,1057.9c2.2,46.7,1.9,94.8-15.3,138.3c-9.7,24.5-24.8,47.3-29.6,73.2
				c-1.3,7-1.5,15,3.2,20.3c6.3,7,17.4,5.6,26.7,3.6c5.1-1.1,10.3-2.2,15.4-3.4"/>
			<path id="XMLID_1613_" class="st1" d="M389.7,1248c38.8-1.4,76.2-25.7,92-61.5"/>
			<path id="XMLID_1612_" class="st1" d="M389.7,1255.5c18.4-3.1,36.7-6.9,53.3-15.6c15.3-8.1,29.1-19.7,38.1-34.4"/>
			<path id="XMLID_1611_" class="st1" d="M389.7,1262.9c25.3-3.3,50.6-9.4,72.1-22.9c22-13.8,39.6-36.3,42.7-62"/>
			<g id="XMLID_1607_">
				<g id="XMLID_1608_">
					<circle id="XMLID_1610_" class="st1" cx="505" cy="1171.2" r="10.8"/>
					<circle id="XMLID_1609_" class="st1" cx="505" cy="1171.2" r="6.9"/>
				</g>
			</g>
			<line id="XMLID_1606_" class="st1" x1="641.4" y1="1261.5" x2="641.4" y2="1306.2"/>
			<path id="XMLID_1605_" class="st2" d="M595.8,996.5c0,1.8,0,3.7,0,5.5"/>
			<path id="XMLID_1604_" class="st2" d="M591.2,996c0.3,2.5,0.5,4.9,0.8,7.4"/>
			<path id="XMLID_1603_" class="st2" d="M597.9,965.8c0,2.2-0.3,4.5-0.9,6.7"/>
			<path id="XMLID_1602_" class="st2" d="M594.1,966.4c0.4,2.2,0.5,4.5,0.5,6.7"/>
			<path id="XMLID_1601_" class="st2" d="M575.8,966.3c0.6,2.4,1,4.8,1.3,7.2"/>
			<path id="XMLID_1600_" class="st2" d="M608.6,958.1c0.1,2.5,0,5-0.4,7.5"/>
			<path id="XMLID_1599_" class="st2" d="M605,957.6c0.2,2.6,0.4,5.3,0.7,7.9"/>
		</g>
		<g id="XMLID_1575_">
			<polygon id="XMLID_1597_" class="st0" points="635.7,1342.4 618.1,1373.8 618.1,1397.8 463.1,1397.8 463.1,1342.4 449.4,1342.4 
				449.4,1480.3 463.1,1480.3 463.1,1424.9 618.1,1424.9 618.1,1448.9 635.7,1480.3 647.4,1480.3 647.4,1342.4 			"/>
			<rect id="XMLID_1596_" x="635.7" y="1367.4" class="st1" width="11.7" height="136.4"/>
			<rect id="XMLID_1595_" x="618.1" y="1398.5" class="st1" width="17.7" height="74.3"/>
			<g id="XMLID_1584_">
				<rect id="XMLID_1594_" x="463.1" y="1422.2" class="st1" width="155" height="26.7"/>
				<line id="XMLID_1593_" class="st1" x1="618.1" y1="1435.6" x2="604.7" y2="1449"/>
				<line id="XMLID_1592_" class="st1" x1="611.2" y1="1422.2" x2="584.5" y2="1449"/>
				<line id="XMLID_1591_" class="st1" x1="591" y1="1422.2" x2="564.2" y2="1449"/>
				<line id="XMLID_1590_" class="st1" x1="570.8" y1="1422.2" x2="544" y2="1449"/>
				<line id="XMLID_1589_" class="st1" x1="550.5" y1="1422.2" x2="523.8" y2="1449"/>
				<line id="XMLID_1588_" class="st1" x1="530.3" y1="1422.2" x2="503.6" y2="1449"/>
				<line id="XMLID_1587_" class="st1" x1="510.1" y1="1422.2" x2="483.3" y2="1449"/>
				<line id="XMLID_1586_" class="st1" x1="489.9" y1="1422.2" x2="463.1" y2="1449"/>
				<line id="XMLID_1585_" class="st1" x1="469.6" y1="1422.2" x2="463.1" y2="1428.8"/>
			</g>
			<circle id="XMLID_1583_" class="st1" cx="626.9" cy="1435.6" r="3"/>
			<circle id="XMLID_1582_" class="st1" cx="626.9" cy="1414.4" r="3"/>
			<circle id="XMLID_1581_" class="st1" cx="626.9" cy="1456.9" r="3"/>
			<line id="XMLID_1580_" class="st1" x1="618.1" y1="1398.5" x2="635.7" y2="1367.4"/>
			<line id="XMLID_1579_" class="st1" x1="618.1" y1="1472.7" x2="635.7" y2="1503.8"/>
			<rect id="XMLID_1578_" x="449.4" y="1367.4" class="st1" width="13.7" height="136.4"/>
			<line id="XMLID_1577_" class="st1" x1="454.1" y1="1367.3" x2="454.1" y2="1503.8"/>
			<line id="XMLID_1576_" class="st1" x1="642.1" y1="1369.3" x2="642.1" y2="1504.3"/>
		</g>
		<g id="XMLID_1525_">
			<g id="XMLID_1547_">
				<path id="XMLID_2390_" class="st1" d="M647.4,1219.8"/>
				<path id="XMLID_2388_" class="st1" d="M659.4,1231.8"/>
				<path id="XMLID_2387_" class="st1" d="M1259.4,1231.8"/>
			</g>
		</g>
	</g>
	<g id="_x31_6">
		<g id="XMLID_868_">
			<path id="XMLID_907_" class="st0" d="M370.4,513.5l32.9,12.4c0,0,92.4,34.8,206.4,34.8c87.1,0,161.7-20.3,192-29.9v-12.4
				c-30.3,9.6-104.8,29.9-192,29.9c-114,0-206.4-34.8-206.4-34.8H370.4z"/>
			<line id="XMLID_906_" class="st1" x1="801.7" y1="547" x2="337.1" y2="547"/>
			<path id="XMLID_905_" class="st1" d="M354.3,547c0,41.6,46.1,75.3,102.9,75.3S560,547,560,547"/>
			<path id="XMLID_904_" class="st1" d="M499.4,547c0,8.7,1.2,17.1,3.5,25"/>
			<path id="XMLID_903_" class="st1" d="M654.3,613.5c17.5-16.7,28.5-40.3,28.5-66.4"/>
			<path id="XMLID_902_" class="st1" d="M507.7,585.1c14.5,31.6,46.4,53.6,83.5,53.6c10.4,0,20.3-1.7,29.6-4.9"/>
			<path id="XMLID_901_" class="st1" d="M669,547c0,10.8,1.7,21.2,4.7,31"/>
			<path id="XMLID_900_" class="st1" d="M678.2,589.8c16.3,35.9,52.4,60.8,94.3,60.8c10.2,0,20-1.5,29.3-4.2"/>
			<path id="XMLID_899_" class="st1" d="M801.7,551.9c-30.3,9.5-104.8,29.6-192,29.6c-114,0-206.4-34.4-206.4-34.4"/>
			<path id="XMLID_898_" class="st1" d="M801.7,564.1c-30.3,9.5-104.8,29.6-192,29.6c-114,0-206.4-34.4-206.4-34.4L370.4,547"/>
			<path id="XMLID_897_" class="st1" d="M698,547c1.7,19.4,4.5,39.5,16.4,54.8c11.3,14.6,30,22.7,48.5,22.6c11.6,0,23-3.1,34.4-4.9
				c1.5-0.2,3-0.5,4.5-0.6"/>
			<path id="XMLID_896_" class="st1" d="M689,547c0,9.7,1.3,19.3,3.7,28.7"/>
			<path id="XMLID_895_" class="st1" d="M696.6,587.5c0.2,0.6,0.5,1.2,0.7,1.7c4.2,10.4,10.6,20.7,20.6,25.8c4.3,2.2,9,3.3,13.8,3.9
				c11.6,1.5,23.5,0.3,34.5-3.7c7-2.5,13.6-6.1,20.5-8.5c4.9-1.7,9.9-3.1,15-4"/>
			<path id="XMLID_894_" class="st1" d="M396.9,556.9c7.1,14,18.1,26.2,31.2,35.1c19.1,13,42.4,19.3,65.5,20.3
				c26.8,1.1,54.4-5,76.5-19.9"/>
			<path id="XMLID_893_" class="st1" d="M584.2,580.9c13-12.3,24.1-26.7,41.8-33.8"/>
			<g id="XMLID_883_">
				<g id="XMLID_890_">
					<polygon id="XMLID_892_" class="st0" points="658.3,586.3 654.3,586.3 654.3,570.3 652.3,570.3 652.3,566.2 642.7,566.2 
						642.7,570.3 636.5,570.3 636.5,566.2 626.9,566.2 626.9,570.3 624.9,570.3 624.9,586.3 620.9,586.3 620.9,595.1 643.1,595.1 
						658.3,595.1 					"/>
					<path id="XMLID_891_" class="st0" d="M642,595.1h-21.1v10.1c0,10.4,8.4,18.9,18.7,18.9s18.7-8.5,18.7-18.9v-10.1h-15.2l0,0H642
						z"/>
				</g>
				<path id="XMLID_889_" class="st1" d="M620.9,627.8v10c0,10.3,8.4,18.7,18.7,18.7l0,0c10.3,0,18.7-8.4,18.7-18.7v-10"/>
				<rect id="XMLID_888_" x="620.9" y="619.2" class="st1" width="37.4" height="8.7"/>
				<path id="XMLID_887_" class="st1" d="M636.1,627.8v14.7c0,2,1.6,3.5,3.5,3.5l0,0c2,0,3.5-1.6,3.5-3.5v-14.7"/>
				<rect id="XMLID_886_" x="624.9" y="603.3" class="st1" width="29.5" height="15.8"/>
				<rect id="XMLID_885_" x="626.9" y="599.2" class="st1" width="9.6" height="4.1"/>
				<rect id="XMLID_884_" x="642.7" y="599.2" class="st1" width="9.6" height="4.1"/>
			</g>
			<path id="XMLID_882_" class="st1" d="M631.9,599.2c-1.8-9.7-0.4-19.6,1.8-29.2c1.8-7.7,4-15.2,5.6-22.9"/>
			<path id="XMLID_881_" class="st1" d="M647.2,599.2c-0.3-2.2-0.6-4.4-0.8-6.7"/>
			<path id="XMLID_880_" class="st1" d="M646.1,580.3c0.1-2,0.2-4.1,0.4-6.1c0.8-7.8,2.5-15.5,2.3-23.4c0-1.3-0.1-2.5-0.3-3.8"/>
			<path id="XMLID_879_" class="st2" d="M796.3,554c0.9,3.4,1.8,6.7,2.7,10.1c0,0.1,0.1,0.3,0.2,0.3s0.1-0.2,0-0.2"/>
			<path id="XMLID_878_" class="st2" d="M793.3,555c0.9,3.6,2.2,7,3.8,10.3"/>
			<path id="XMLID_877_" class="st2" d="M791.1,555.7c0.2,3.9,0.8,7.8,1.6,11.7"/>
			<path id="XMLID_876_" class="st2" d="M787.7,556.4c0.7,3.4,1.5,6.8,2.5,10.1"/>
			<path id="XMLID_875_" class="st2" d="M652,619c0,3.1,0,6.1,0,9.2c0-0.1,0-0.3,0-0.4"/>
			<path id="XMLID_874_" class="st2" d="M649,619.4c0.3,2.2,0.4,4.4,0.5,6.6c0,0.5,0.1,0.9,0.1,1.4v0.1"/>
			<path id="XMLID_873_" class="st2" d="M647.2,619.7c0.1,2.6,0.3,5.2,0.4,7.8c0,0.1,0,0.2,0.1,0.2s0.2-0.1,0.1-0.1"/>
			<path id="XMLID_872_" class="st2" d="M650.6,604c-0.1,5-0.2,9.9-0.5,14.9"/>
			<path id="XMLID_871_" class="st2" d="M647.9,603.9c0.1,1.2,0.1,2.4,0.1,3.6c0.1,3.7,0.2,7.4,0.3,11.1"/>
			<path id="XMLID_870_" class="st2" d="M627.2,619.4c-0.1,2.9-0.1,5.7-0.2,8.6"/>
			<line id="XMLID_869_" class="st1" x1="801.7" y1="551.9" x2="801.7" y2="564.1"/>
		</g>
		<g id="XMLID_759_">
			<g id="XMLID_865_">
				<path id="XMLID_867_" class="st0" d="M801,920.5H-0.6C266.1,920.5,534.1,920.5,801,920.5z"/>
				<path id="XMLID_866_" class="st0" d="M753.5,862.5V855H583.2v7.5h-46.5V855H366.5v7.5h-45.9V855H150.3v7.5H-0.5V875
					c-0.1,0-0.1-0.1-0.2-0.1l0.2,13.4l-0.2,11.6c0.1,0,0.1-0.1,0.2-0.1v9.2h833.3v-46.5L753.5,862.5L753.5,862.5z"/>
			</g>
			<rect id="XMLID_864_" x="150.3" y="885" class="st1" width="170.2" height="7.4"/>
			<rect id="XMLID_863_" x="366.5" y="885" class="st1" width="170.2" height="7.4"/>
			<rect id="XMLID_862_" x="583.2" y="885" class="st1" width="170.2" height="7.4"/>
			<g id="XMLID_763_">
				<line id="XMLID_861_" class="st1" x1="-0.6" y1="892.5" x2="832.8" y2="892.5"/>
				<line id="XMLID_860_" class="st1" x1="832.8" y1="938.5" x2="-0.6" y2="938.5"/>
				<line id="XMLID_859_" class="st1" x1="-0.6" y1="895.2" x2="832.8" y2="895.2"/>
				<line id="XMLID_858_" class="st1" x1="832.8" y1="935.8" x2="-0.6" y2="935.8"/>
				<g id="XMLID_853_">
					<circle id="XMLID_857_" class="st1" cx="118.7" cy="915.5" r="15.9"/>
					<path id="XMLID_856_" class="st1" d="M118.7,928.6c-7.2,0-13.1-5.9-13.1-13.1s5.9-13.1,13.1-13.1s13.1,5.9,13.1,13.1
						S125.9,928.6,118.7,928.6z"/>
					<circle id="XMLID_855_" class="st1" cx="118.7" cy="915.5" r="5.8"/>
					<line id="XMLID_854_" class="st1" x1="118.7" y1="921.3" x2="118.7" y2="931.3"/>
				</g>
				<g id="XMLID_851_">
					<circle id="XMLID_852_" class="st1" cx="150.4" cy="915.5" r="5.8"/>
				</g>
				<g id="XMLID_846_">
					<circle id="XMLID_850_" class="st1" cx="182.1" cy="915.5" r="15.9"/>
					<path id="XMLID_849_" class="st1" d="M182.1,928.6c-7.2,0-13.1-5.9-13.1-13.1s5.9-13.1,13.1-13.1s13.1,5.9,13.1,13.1
						S189.4,928.6,182.1,928.6z"/>
					<circle id="XMLID_848_" class="st1" cx="182.1" cy="915.5" r="5.8"/>
					<line id="XMLID_847_" class="st1" x1="182.1" y1="921.3" x2="182.1" y2="931.3"/>
				</g>
				<g id="XMLID_844_">
					<circle id="XMLID_845_" class="st1" cx="213.8" cy="915.5" r="5.8"/>
				</g>
				<g id="XMLID_839_">
					<circle id="XMLID_843_" class="st1" cx="245.5" cy="915.5" r="15.9"/>
					<path id="XMLID_842_" class="st1" d="M245.5,928.6c-7.2,0-13.1-5.9-13.1-13.1s5.9-13.1,13.1-13.1s13.1,5.9,13.1,13.1
						S252.8,928.6,245.5,928.6z"/>
					<circle id="XMLID_841_" class="st1" cx="245.5" cy="915.5" r="5.8"/>
					<line id="XMLID_840_" class="st1" x1="245.5" y1="921.3" x2="245.5" y2="931.3"/>
				</g>
				<g id="XMLID_836_">
					<path id="XMLID_838_" class="st1" d="M-0.2,901.7c4.8,2.7,8,7.9,8,13.8c0,6-3.4,11.3-8.4,14"/>
					<path id="XMLID_837_" class="st1" d="M-0.6,904.7C2.8,907.1,5,911,5,915.5c0,4.3-2.1,8.2-5.4,10.6"/>
				</g>
				<g id="XMLID_834_">
					<circle id="XMLID_835_" class="st1" cx="23.6" cy="915.5" r="5.8"/>
				</g>
				<g id="XMLID_829_">
					<circle id="XMLID_833_" class="st1" cx="55.3" cy="915.5" r="15.9"/>
					<path id="XMLID_832_" class="st1" d="M55.3,928.6c-7.2,0-13.1-5.9-13.1-13.1s5.9-13.1,13.1-13.1s13.1,5.9,13.1,13.1
						S62.5,928.6,55.3,928.6z"/>
					<circle id="XMLID_831_" class="st1" cx="55.3" cy="915.5" r="5.8"/>
					<line id="XMLID_830_" class="st1" x1="55.3" y1="921.3" x2="55.3" y2="931.3"/>
				</g>
				<g id="XMLID_827_">
					<circle id="XMLID_828_" class="st1" cx="87" cy="915.5" r="5.8"/>
				</g>
				<g id="XMLID_825_">
					<circle id="XMLID_826_" class="st1" cx="277.2" cy="915.5" r="5.8"/>
				</g>
				<g id="XMLID_820_">
					<circle id="XMLID_824_" class="st1" cx="308.9" cy="915.5" r="15.9"/>
					<path id="XMLID_823_" class="st1" d="M308.9,928.6c-7.2,0-13.1-5.9-13.1-13.1s5.9-13.1,13.1-13.1s13.1,5.9,13.1,13.1
						S316.2,928.6,308.9,928.6z"/>
					<circle id="XMLID_822_" class="st1" cx="308.9" cy="915.5" r="5.8"/>
					<line id="XMLID_821_" class="st1" x1="308.9" y1="921.3" x2="308.9" y2="931.3"/>
				</g>
				<g id="XMLID_818_">
					<circle id="XMLID_819_" class="st1" cx="340.7" cy="915.5" r="5.8"/>
				</g>
				<g id="XMLID_813_">
					<circle id="XMLID_817_" class="st1" cx="372.4" cy="915.5" r="15.9"/>
					<path id="XMLID_816_" class="st1" d="M372.4,928.6c-7.2,0-13.1-5.9-13.1-13.1s5.9-13.1,13.1-13.1s13.1,5.9,13.1,13.1
						S379.6,928.6,372.4,928.6z"/>
					<circle id="XMLID_815_" class="st1" cx="372.4" cy="915.5" r="5.8"/>
					<line id="XMLID_814_" class="st1" x1="372.4" y1="921.3" x2="372.4" y2="931.3"/>
				</g>
				<g id="XMLID_811_">
					<circle id="XMLID_812_" class="st1" cx="404.1" cy="915.5" r="5.8"/>
				</g>
				<g id="XMLID_806_">
					<circle id="XMLID_810_" class="st1" cx="435.8" cy="915.5" r="15.9"/>
					<path id="XMLID_809_" class="st1" d="M435.8,928.6c-7.2,0-13.1-5.9-13.1-13.1s5.9-13.1,13.1-13.1s13.1,5.9,13.1,13.1
						S443,928.6,435.8,928.6z"/>
					<circle id="XMLID_808_" class="st1" cx="435.8" cy="915.5" r="5.8"/>
					<line id="XMLID_807_" class="st1" x1="435.8" y1="921.3" x2="435.8" y2="931.3"/>
				</g>
				<g id="XMLID_804_">
					<circle id="XMLID_805_" class="st1" cx="467.5" cy="915.5" r="5.8"/>
				</g>
				<g id="XMLID_799_">
					<circle id="XMLID_803_" class="st1" cx="499.2" cy="915.5" r="15.9"/>
					<path id="XMLID_802_" class="st1" d="M499.2,928.6c-7.2,0-13.1-5.9-13.1-13.1s5.9-13.1,13.1-13.1s13.1,5.9,13.1,13.1
						S506.4,928.6,499.2,928.6z"/>
					<circle id="XMLID_801_" class="st1" cx="499.2" cy="915.5" r="5.8"/>
					<line id="XMLID_800_" class="st1" x1="499.2" y1="921.3" x2="499.2" y2="931.3"/>
				</g>
				<g id="XMLID_797_">
					<circle id="XMLID_798_" class="st1" cx="530.9" cy="915.5" r="5.8"/>
				</g>
				<g id="XMLID_792_">
					<circle id="XMLID_796_" class="st1" cx="562.6" cy="915.5" r="15.9"/>
					<path id="XMLID_795_" class="st1" d="M562.6,928.6c-7.2,0-13.1-5.9-13.1-13.1s5.9-13.1,13.1-13.1s13.1,5.9,13.1,13.1
						S569.8,928.6,562.6,928.6z"/>
					<circle id="XMLID_794_" class="st1" cx="562.6" cy="915.5" r="5.8"/>
					<line id="XMLID_793_" class="st1" x1="562.6" y1="921.3" x2="562.6" y2="931.3"/>
				</g>
				<g id="XMLID_790_">
					<circle id="XMLID_791_" class="st1" cx="594.3" cy="915.5" r="5.8"/>
				</g>
				<g id="XMLID_785_">
					<circle id="XMLID_789_" class="st1" cx="626" cy="915.5" r="15.9"/>
					<path id="XMLID_788_" class="st1" d="M626,928.6c-7.2,0-13.1-5.9-13.1-13.1s5.9-13.1,13.1-13.1s13.1,5.9,13.1,13.1
						S633.2,928.6,626,928.6z"/>
					<circle id="XMLID_787_" class="st1" cx="626" cy="915.5" r="5.8"/>
					<line id="XMLID_786_" class="st1" x1="626" y1="921.3" x2="626" y2="931.3"/>
				</g>
				<g id="XMLID_783_">
					<circle id="XMLID_784_" class="st1" cx="657.7" cy="915.5" r="5.8"/>
				</g>
				<g id="XMLID_778_">
					<circle id="XMLID_782_" class="st1" cx="689.4" cy="915.5" r="15.9"/>
					<path id="XMLID_781_" class="st1" d="M689.4,928.6c-7.2,0-13.1-5.9-13.1-13.1s5.9-13.1,13.1-13.1c7.2,0,13.1,5.9,13.1,13.1
						S696.6,928.6,689.4,928.6z"/>
					<circle id="XMLID_780_" class="st1" cx="689.4" cy="915.5" r="5.8"/>
					<line id="XMLID_779_" class="st1" x1="689.4" y1="921.3" x2="689.4" y2="931.3"/>
				</g>
				<g id="XMLID_776_">
					<circle id="XMLID_777_" class="st1" cx="721.1" cy="915.5" r="5.8"/>
				</g>
				<g id="XMLID_771_">
					<circle id="XMLID_775_" class="st1" cx="752.8" cy="915.5" r="15.9"/>
					<path id="XMLID_774_" class="st1" d="M752.8,928.6c-7.2,0-13.1-5.9-13.1-13.1s5.9-13.1,13.1-13.1s13.1,5.9,13.1,13.1
						S760,928.6,752.8,928.6z"/>
					<circle id="XMLID_773_" class="st1" cx="752.8" cy="915.5" r="5.8"/>
					<line id="XMLID_772_" class="st1" x1="752.8" y1="921.3" x2="752.8" y2="931.3"/>
				</g>
				<g id="XMLID_769_">
					<circle id="XMLID_770_" class="st1" cx="784.5" cy="915.5" r="5.8"/>
				</g>
				<g id="XMLID_764_">
					<circle id="XMLID_768_" class="st1" cx="816.2" cy="915.5" r="15.9"/>
					<path id="XMLID_767_" class="st1" d="M816.2,928.6c-7.2,0-13.1-5.9-13.1-13.1s5.9-13.1,13.1-13.1s13.1,5.9,13.1,13.1
						S823.5,928.6,816.2,928.6z"/>
					<circle id="XMLID_766_" class="st1" cx="816.2" cy="915.5" r="5.8"/>
					<line id="XMLID_765_" class="st1" x1="816.2" y1="921.3" x2="816.2" y2="931.3"/>
				</g>
			</g>
			<path id="XMLID_762_" class="st1" d="M801,949.8c-266.9,0-534.9,0-801.6,0"/>
			<line id="XMLID_761_" class="st1" x1="-0.6" y1="892.5" x2="-0.6" y2="938.5"/>
			<line id="XMLID_760_" class="st1" x1="832.8" y1="892.5" x2="832.8" y2="938.5"/>
		</g>
		<g id="XMLID_517_">
			<path id="XMLID_758_" class="st0" d="M1149.9,512.5h-23c-0.1-0.1-0.2-0.2-0.3-0.2c-0.2,0-0.3,0.1-0.4,0.2H988.7v-9
				c0-0.6-0.4-1-1-1h-9.9c-0.6,0-1,0.5-1,1v9h-6.1v-9c0-0.6-0.4-1-1-1h-9.9c-0.6,0-1,0.5-1,1v9h-15.5v-7.8c0-0.6-0.4-1-1-1h-8.7
				v-9.1c0-11-8.8-19.9-19.7-19.9s-19.7,8.9-19.7,19.9v9.1h-8.7c-0.6,0-1,0.5-1,1v7.8h-82.8c-0.6,0-1,0.5-1,1v21.9c0,0.6,0.4,1,1,1
				h30.1v10.4h-23h-7.1c-0.6,0-1,0.5-1,1v86h-5.4c-0.6,0-1,0.5-1,1v5.3c-3.1,0.5-5.5,3.2-5.5,6.5s2.4,6,5.5,6.5v15
				c-3.1,0.5-5.5,3.2-5.5,6.5s2.4,6,5.5,6.5v5.3c0,0.6,0.4,1,1,1h5.4v175.3c0,0.4,0.2,0.7,0.6,0.9c0.2,0.3,0.5,0.5,0.8,0.5h30
				c0,18.6,0,37.2,0,55.6c-1.6,0-3.3,0-4.9,0l0,0c-0.6,0-1,0.5-1,1s0.4,1,1,1c1.9,0,3.9,0,5.8,0h0.1c19.7,0,38.4,0,58.3,0V951
				l-4,8.7c-0.1,0.3-0.1,0.7,0.1,1s0.5,0.5,0.8,0.5h32.9c0.3,0,0.7-0.2,0.8-0.5s0.2-0.7,0.1-1l-4-8.7v-29.3h200.7c0.6,0,1-0.5,1-1
				V613.4h9.9c0.6,0,1-0.5,1-1v-45.7c0-0.6-0.4-1-1-1h-9.9c0.5-16.2,13.8-29.3,30.1-29.3c0.6,0,1-0.5,1-1v-21.9
				C1150.9,512.9,1150.4,512.5,1149.9,512.5z"/>
			<path id="XMLID_757_" class="st1" d="M801.7,711.9c0.4,60,0.4,121,0.4,181c10,0,21,0,31,0c0-60,0-121-0.3-180.9c0,3.7,0,0,0,0
				c0.3,78.9,0.3,158.9,0.3,237.9c20,0,39,0,59.3,0c-1,0-0.3,0,0,0c-22.3,0-43.3,0-65.2,0"/>
			<polyline id="XMLID_756_" class="st1" points="801.7,673.3 801.7,581.1 832.8,581.1 832.8,673.3 832.8,568.8 			"/>
			<rect id="XMLID_755_" x="1061.9" y="599.7" class="st1" width="67.8" height="45.2"/>
			<polyline id="XMLID_754_" class="st1" points="1105.1,644.9 1105.1,936.1 917.1,936.1 			"/>
			<polyline id="XMLID_753_" class="st1" points="892.4,936.1 846.6,936.1 846.6,711.9 			"/>
			<polyline id="XMLID_752_" class="st1" points="846.6,673.3 846.6,582.5 1105.1,582.5 1105.1,599.7 			"/>
			<path id="XMLID_751_" class="st1" d="M795.3,711.9c-3,0-5.5-2.5-5.5-5.5s2.5-5.5,5.5-5.5"/>
			<path id="XMLID_750_" class="st1" d="M795.3,684.3c-3,0-5.5-2.5-5.5-5.5s2.5-5.5,5.5-5.5"/>
			<g id="XMLID_746_">
				<rect id="XMLID_749_" x="885.5" y="858.7" class="st1" width="38.5" height="10.9"/>
				<path id="XMLID_748_" class="st1" d="M880.6,858.7c0,3-2.5,5.5-5.5,5.5s-5.5-2.5-5.5-5.5"/>
				<path id="XMLID_747_" class="st1" d="M939.8,858.7c0,3-2.5,5.5-5.5,5.5s-5.5-2.5-5.5-5.5"/>
			</g>
			<rect id="XMLID_745_" x="801.7" y="547" class="st1" width="348.2" height="21.7"/>
			<rect id="XMLID_744_" x="987.1" y="599.7" class="st1" width="17.6" height="45.2"/>
			<rect id="XMLID_743_" x="1004.7" y="608.8" class="st1" width="9.9" height="9.9"/>
			<rect id="XMLID_742_" x="1004.7" y="626.8" class="st1" width="9.9" height="9.9"/>
			<rect id="XMLID_741_" x="977.2" y="608.8" class="st1" width="9.9" height="9.9"/>
			<rect id="XMLID_740_" x="977.2" y="626.8" class="st1" width="9.9" height="9.9"/>
			<rect id="XMLID_739_" x="846.6" y="599.7" class="st1" width="17.6" height="45.2"/>
			<rect id="XMLID_738_" x="864.2" y="608.8" class="st1" width="9.9" height="9.9"/>
			<rect id="XMLID_737_" x="864.2" y="626.8" class="st1" width="9.9" height="9.9"/>
			<path id="XMLID_736_" class="st1" d="M815.2,673.3h141.3c10.6,0,19.3,8.6,19.3,19.3l0,0c0,10.6-8.6,19.3-19.3,19.3H815.2V673.3z"
				/>
			<path id="XMLID_735_" class="st1" d="M975.4,688.7c-1.8,8.8-9.6,15.4-18.9,15.4H815.2"/>
			<path id="XMLID_734_" class="st1" d="M937.9,711.9c4.8,4.7,11.4,7.5,18.6,7.5c14.8,0,26.8-12,26.8-26.8s-12-26.8-26.8-26.8
				c-7.2,0-13.8,2.9-18.6,7.5"/>
			<path id="XMLID_733_" class="st1" d="M929.8,711.9c6,8.3,15.7,13.7,26.7,13.7c18.2,0,33-14.8,33-33s-14.8-33-33-33
				c-11,0-20.7,5.4-26.7,13.7"/>
			<path id="XMLID_732_" class="st1" d="M1149.9,568.8c-17.1,0-31.1,13.9-31.1,31"/>
			<line id="XMLID_731_" class="st1" x1="846.6" y1="743.9" x2="1105.1" y2="743.9"/>
			<line id="XMLID_730_" class="st1" x1="962.9" y1="845.7" x2="846.6" y2="845.7"/>
			<line id="XMLID_729_" class="st1" x1="962.9" y1="858.7" x2="846.6" y2="858.7"/>
			<line id="XMLID_728_" class="st1" x1="1065.6" y1="845.7" x2="1105.1" y2="845.7"/>
			<rect id="XMLID_727_" x="828" y="592.9" class="st1" width="4.8" height="69.8"/>
			<rect id="XMLID_726_" x="823.9" y="631.2" class="st1" width="4.1" height="9.6"/>
			<rect id="XMLID_725_" x="823.9" y="614.4" class="st1" width="4.1" height="9.6"/>
			<rect id="XMLID_724_" x="823.9" y="597.6" class="st1" width="4.1" height="9.6"/>
			<rect id="XMLID_723_" x="801.7" y="581.1" class="st1" width="7.1" height="311.4"/>
			<polygon id="XMLID_722_" class="st1" points="808.9,668.5 808.9,668.5 808.9,668.5 			"/>
			<rect id="XMLID_721_" x="808.9" y="667.2" class="st1" width="6.4" height="50.9"/>
			<rect id="XMLID_720_" x="795.3" y="667.2" class="st1" width="6.4" height="50.9"/>
			<polyline id="XMLID_719_" class="st1" points="917.1,949.8 1118.8,949.8 1118.8,644.9 			"/>
			<circle id="XMLID_718_" class="st1" cx="1068.8" cy="606.6" r="2.2"/>
			<circle id="XMLID_717_" class="st1" cx="1068.8" cy="638.1" r="2.2"/>
			<line id="XMLID_716_" class="st1" x1="808.9" y1="767.6" x2="832.8" y2="767.6"/>
			<line id="XMLID_715_" class="st1" x1="808.9" y1="780.8" x2="832.8" y2="780.8"/>
			<line id="XMLID_714_" class="st1" x1="808.9" y1="794.1" x2="832.8" y2="794.1"/>
			<line id="XMLID_713_" class="st1" x1="808.9" y1="807.3" x2="832.8" y2="807.3"/>
			<line id="XMLID_712_" class="st1" x1="808.9" y1="820.6" x2="832.8" y2="820.6"/>
			<line id="XMLID_711_" class="st1" x1="808.9" y1="879.2" x2="832.8" y2="879.2"/>
			<g id="XMLID_705_">
				<g id="XMLID_709_">
					<line id="XMLID_710_" class="st1" x1="892.4" y1="972.9" x2="917.1" y2="972.9"/>
				</g>
				<rect id="XMLID_708_" x="888.5" y="869.7" class="st1" width="32.5" height="7"/>
				<line id="XMLID_707_" class="st1" x1="892.4" y1="980" x2="892.4" y2="876.7"/>
				<line id="XMLID_706_" class="st1" x1="917.1" y1="980" x2="917.1" y2="876.7"/>
			</g>
			<path id="XMLID_704_" class="st1" d="M1014.7,615.6c1.9,0.2,3.8,0.3,5.7,0.4c13.9,0.7,28.3,1.3,41.6-2.7"/>
			<path id="XMLID_703_" class="st1" d="M1014.7,632.7c15.7,2.4,31.7,2,47.3-1.1"/>
			<path id="XMLID_702_" class="st1" d="M874.1,615.2c33.9,6.6,69.2,6.4,103.1-0.6"/>
			<path id="XMLID_701_" class="st1" d="M874.1,633.4c34.4,5,70.2,9.3,103.1-1.2"/>
			<path id="XMLID_700_" class="st1" d="M1014.7,612.3c10.1,0.1,20.2-0.3,30.2-1.2c5.9-0.6,12-1.4,17-4.4"/>
			<polygon id="XMLID_699_" class="st1" points="921.2,988.8 888.3,988.8 892.4,980 917.1,980 			"/>
			<path id="XMLID_698_" class="st1" d="M897.8,988.8c-19.7,13-47.7,9-66.5-4.3"/>
			<path id="XMLID_697_" class="st1" d="M910.2,988.8c-7.2,25.5-23.8,47.7-47.8,59c-25.3,11.9-56,11.6-81-0.8
				c-5.3-2.6-10.3-5.7-15-9.2"/>
			<path id="XMLID_696_" class="st1" d="M741.6,1013.1c-3.1-4-5.9-8.1-8.6-12.3c-8.7-13.6-15.6-28.3-20.6-43.6"/>
			<path id="XMLID_695_" class="st1" d="M900.3,988.8c0.9,2.2,2.5,4.1,4.3,5.5c3.1,2.4,6.9,3.6,10.8,4.1c4.3,0.6,8.8,0.3,12.9-1.2
				c4.1-1.5,7.8-4.4,9.8-8.3"/>
			<line id="XMLID_694_" class="st1" x1="910.2" y1="876.7" x2="910.2" y2="972.9"/>
			<g id="XMLID_683_">
				<g id="XMLID_687_">
					<rect id="XMLID_693_" x="867.3" y="757.4" class="st1" width="74.9" height="74.9"/>
					<path id="XMLID_692_" class="st1" d="M920.2,822h-30.9c-6.5,0-11.8-5.3-11.8-11.8v-30.9c0-6.5,5.3-11.8,11.8-11.8h30.9
						c6.5,0,11.8,5.3,11.8,11.8v30.9C932,816.8,926.7,822,920.2,822z"/>
					<circle id="XMLID_691_" class="st1" cx="874.1" cy="764.2" r="2.2"/>
					<circle id="XMLID_690_" class="st1" cx="935.3" cy="764.2" r="2.2"/>
					<circle id="XMLID_689_" class="st1" cx="874.1" cy="825.4" r="2.2"/>
					<circle id="XMLID_688_" class="st1" cx="935.3" cy="825.4" r="2.2"/>
				</g>
				<path id="XMLID_686_" class="st1" d="M878.2,793.9c4.2-3.3,8.4-6.7,12.6-10c1.7,1.1,0.9,4.7,2.9,4.9c0.8,0.1,1.6-0.6,2.1-1.2
					c4.3-5,7.7-10.9,13-14.9c2.2-1.7,4.7-3,7.3-3.9"/>
				<path id="XMLID_685_" class="st1" d="M878,802.2c2.5-2.3,5.6-3.9,8.8-4.7c0,3.3,4.4,4.9,7.4,3.6c3-1.3,4.9-4.3,6.9-6.9
					c5.9-7.6,14.1-13,22.2-18.2c2-1.3,4.8-2.5,6.5-0.9"/>
				<path id="XMLID_684_" class="st1" d="M905.1,820.7c3.4,0.4,6.3-2.5,8.3-5.3c5.2-7.4,9.3-16.5,17.6-20.2"/>
			</g>
			<g id="XMLID_661_">
				<g id="XMLID_673_">
					<path id="XMLID_682_" class="st1" d="M1064.9,676.7c8.3,7.8,8.3,20.5,0,28.3s-21.7,7.8-30,0s-8.3-20.5,0-28.3
						C1043.1,668.9,1056.6,668.9,1064.9,676.7z"/>
					<path id="XMLID_681_" class="st1" d="M1067.6,690.9h-35.5c0-9.3,8-16.8,17.8-16.8C1059.7,674.1,1067.6,681.7,1067.6,690.9z"/>
					<path id="XMLID_680_" class="st1" d="M1067.1,662.7l-6.4,6.1c-6.8-3-14.8-3-21.6,0l-6.4-6.1l-12.6,11.9l6.4,6.1
						c-3.2,6.5-3.2,14,0,20.4l-6.4,6.1l12.6,11.9l6.4-6.1c6.8,3,14.8,3,21.6,0l6.4,6.1l12.6-11.9l-6.4-6.1c3.2-6.5,3.2-14,0-20.4
						l6.4-6.1L1067.1,662.7z"/>
					<path id="XMLID_679_" class="st1" d="M1032.2,707.6c0.9,0.8,0.9,2.2,0,3s-2.3,0.8-3.2,0c-0.9-0.8-0.9-2.2,0-3
						C1030,706.7,1031.4,706.7,1032.2,707.6z"/>
					<path id="XMLID_678_" class="st1" d="M1032.2,671.3c0.9,0.8,0.9,2.2,0,3s-2.3,0.8-3.2,0c-0.9-0.8-0.9-2.2,0-3
						C1030,670.5,1031.4,670.5,1032.2,671.3z"/>
					<path id="XMLID_677_" class="st1" d="M1070.7,707.6c0.9,0.8,0.9,2.2,0,3s-2.3,0.8-3.2,0c-0.9-0.8-0.9-2.2,0-3
						C1068.4,706.7,1069.8,706.7,1070.7,707.6z"/>
					<path id="XMLID_676_" class="st1" d="M1070.7,671.3c0.9,0.8,0.9,2.2,0,3s-2.3,0.8-3.2,0c-0.9-0.8-0.9-2.2,0-3
						S1069.8,670.5,1070.7,671.3z"/>
					<line id="XMLID_675_" class="st1" x1="1049.9" y1="690.9" x2="1055.1" y2="679.6"/>
					<line id="XMLID_674_" class="st1" x1="1032.1" y1="690.9" x2="1067.6" y2="690.9"/>
				</g>
				<path id="XMLID_672_" class="st2" d="M1033.1,686c0.8,0.4,1.6,0.7,2.4,1.1"/>
				<path id="XMLID_671_" class="st2" d="M1035,682.9c0.9,0.5,1.8,1,2.6,1.7"/>
				<path id="XMLID_670_" class="st2" d="M1037.9,679.6c0.5,0.5,1,1.1,1.5,1.6"/>
				<path id="XMLID_669_" class="st2" d="M1041.2,677.2c0.4,1,0.9,1.9,1.5,2.7"/>
				<path id="XMLID_668_" class="st2" d="M1045.6,675.8c0.2,1.1,0.4,2.2,0.6,3.3"/>
				<path id="XMLID_667_" class="st2" d="M1050.5,675.3c0,1.2-0.3,2.3-0.7,3.4"/>
				<path id="XMLID_666_" class="st2" d="M1054.7,676.3c-0.1,0.9-0.3,1.7-0.6,2.5"/>
				<path id="XMLID_665_" class="st2" d="M1059,678.3c-0.4,0.9-0.9,1.8-1.5,2.5"/>
				<path id="XMLID_664_" class="st2" d="M1062.4,680.3c-0.6,0.7-1.2,1.5-1.8,2.2"/>
				<path id="XMLID_663_" class="st2" d="M1062.6,685.4c0.9-0.2,1.8-0.7,2.5-1.3"/>
				<path id="XMLID_662_" class="st2" d="M1063.6,688.1c1-0.1,2.1-0.3,3.1-0.5"/>
			</g>
			<path id="XMLID_660_" class="st2" d="M983.7,608.8c0.5,3.3,1,6.5,1.4,9.8c0-0.1,0-0.2,0-0.3"/>
			<path id="XMLID_659_" class="st2" d="M982.2,609.3c0,3,0,6.1,0.1,9.1c0,0.1,0,0.1,0.1,0.2c0.1,0,0.1-0.1,0.1-0.1"/>
			<path id="XMLID_658_" class="st2" d="M984.8,627.5c0.1,0.1,0.1,0.3,0.1,0.5c-0.3,2.7-0.6,5.3-0.9,8"/>
			<path id="XMLID_657_" class="st2" d="M983.1,627.4c-0.5,3-0.9,6.1-1.2,9.1"/>
			<path id="XMLID_656_" class="st2" d="M1006.6,627.1c0,3.2,0,6.4,0,9.6"/>
			<path id="XMLID_655_" class="st2" d="M1008.3,627.2c0.3,3.3,0.6,6.5,0.8,9.8l0,0"/>
			<path id="XMLID_654_" class="st2" d="M1007.1,609c-0.1,3.2,0,6.3,0.1,9.5c0.1-0.1,0.1-0.2,0.1-0.3"/>
			<path id="XMLID_653_" class="st2" d="M1009.3,609.5c-0.2,3.1-0.5,6.1-0.8,9.1"/>
			<path id="XMLID_652_" class="st2" d="M1010.4,609.4c-0.1,3.2-0.2,6.4-0.3,9.6c0-0.1,0-0.2,0-0.3"/>
			<path id="XMLID_651_" class="st2" d="M866.6,608.9c0.1,3.2,0.2,6.5,0.3,9.7c0-0.2,0-0.4,0-0.6"/>
			<path id="XMLID_650_" class="st2" d="M868.9,609.3c-0.3,3.2-0.6,6.5-0.9,9.7c0,0.1,0,0.3,0.1,0.4c0.1,0,0.2-0.3,0-0.2"/>
			<path id="XMLID_649_" class="st2" d="M870.3,609.4c0,2.9,0,5.7,0,8.6"/>
			<path id="XMLID_648_" class="st2" d="M866.4,626.7c-0.3,3.3-0.5,6.5-0.8,9.8"/>
			<path id="XMLID_647_" class="st2" d="M867.8,627.4c-0.1,3.3-0.2,6.6-0.2,9.9"/>
			<path id="XMLID_646_" class="st2" d="M869.4,626.6c0,3.3,0.3,6.7,0.8,10"/>
			<path id="XMLID_645_" class="st2" d="M938.5,712.7c-1.6,1.3-3.1,2.7-4.7,4c0.1-0.1,0.2-0.1,0.3-0.2"/>
			<path id="XMLID_644_" class="st2" d="M940.3,714.1c-1.3,1.5-2.5,3.1-3.6,4.8"/>
			<path id="XMLID_643_" class="st2" d="M943.1,716c-0.9,1.4-1.9,2.9-2.8,4.3l-0.1,0.1c-0.1,0,0.1-0.1,0,0"/>
			<path id="XMLID_642_" class="st2" d="M944.9,717.1c-0.6,1.7-1.2,3.5-1.6,5.2"/>
			<path id="XMLID_641_" class="st2" d="M949,718.9c-0.8,1.6-1.3,3.3-1.6,5.1"/>
			<path id="XMLID_640_" class="st2" d="M951.6,719.5c-0.3,1.7-0.6,3.4-0.9,5.1"/>
			<path id="XMLID_639_" class="st2" d="M955.1,719.6c0,1.7,0,3.4-0.1,5.1"/>
			<path id="XMLID_638_" class="st2" d="M958.1,719.6c0.1,1.9,0.2,3.9,0.3,5.8c0,0.1,0,0.1,0.1,0.2c0.1,0,0.1-0.1,0-0.1"/>
			<path id="XMLID_637_" class="st2" d="M961.4,719.3c0.3,1.8,0.7,3.5,1.3,5.2"/>
			<path id="XMLID_636_" class="st2" d="M965.6,717.6c0.7,1.8,1.5,3.5,2.4,5.2c0-0.1,0-0.2,0-0.3"/>
			<path id="XMLID_635_" class="st2" d="M969.2,716.6c0.5,1.8,1,3.5,1.5,5.3"/>
			<path id="XMLID_634_" class="st2" d="M971.8,715.1c0.9,1.5,1.8,2.9,2.8,4.3c0,0.1,0.1,0.1,0.2,0.2s0.2-0.1,0.2-0.1"/>
			<path id="XMLID_633_" class="st2" d="M974.3,713c1.3,1.3,2.4,2.7,3.6,4.1"/>
			<path id="XMLID_632_" class="st2" d="M976.8,710.5c1.5,1.1,3.1,2.1,4.8,3"/>
			<path id="XMLID_631_" class="st2" d="M978.6,708c1.2,0.7,2.5,1.3,3.7,2c0.5,0.3,1.1,0.6,1.5,1"/>
			<path id="XMLID_630_" class="st2" d="M980.6,705.3c1.9,0.6,3.8,1.4,5.5,2.4"/>
			<path id="XMLID_629_" class="st2" d="M981.5,702.3c1.9,0.6,3.8,1,5.7,1.2"/>
			<path id="XMLID_628_" class="st2" d="M982.5,699.7c2.2,0.4,4.4,0.8,6.6,1"/>
			<path id="XMLID_627_" class="st2" d="M983.7,696.3c-0.1,0-0.2,0-0.3,0c1.9,0.1,3.7,0.1,5.6,0.2"/>
			<path id="XMLID_626_" class="st2" d="M983.5,692.3c2-0.2,4-0.2,6.1-0.2"/>
			<path id="XMLID_625_" class="st2" d="M983.2,689.5c-0.1-0.1,0.1-0.3,0.2-0.3c1.7-0.7,3.5-1.2,5.3-1.4"/>
			<path id="XMLID_624_" class="st2" d="M982.7,685.1c1.6-0.8,3.3-1.5,5-2c-0.1,0-0.2,0-0.3,0.1"/>
			<path id="XMLID_623_" class="st2" d="M981.2,681.6c-0.1-0.2,0.1-0.5,0.4-0.7c1.4-0.9,2.7-1.8,4.1-2.7"/>
			<path id="XMLID_622_" class="st2" d="M979.2,677.7c1.5-1.3,3-2.7,4.5-4"/>
			<path id="XMLID_621_" class="st2" d="M976.5,674.3c1.1-1.4,2.3-2.8,3.6-4.2"/>
			<path id="XMLID_620_" class="st2" d="M976.4,666.5c-1.2,1.4-2.3,2.8-3.3,4.3"/>
			<path id="XMLID_619_" class="st2" d="M972.7,664.7C972.8,664.7,972.8,664.6,972.7,664.7C972.7,664.6,972.6,664.7,972.7,664.7
				c-0.9,1.7-1.6,3.5-2.2,5.3c0-0.1,0-0.2,0-0.3"/>
			<path id="XMLID_618_" class="st2" d="M969.4,662.6c-0.8,1.7-1.5,3.5-2.2,5.3c0,0.1,0-0.1,0-0.1"/>
			<path id="XMLID_617_" class="st2" d="M965.5,661.3c-0.7,1.7-1.4,3.3-2.1,4.9"/>
			<path id="XMLID_616_" class="st2" d="M961.5,660.3c-0.2,1.8-0.6,3.6-1.1,5.3c0-0.1,0-0.2,0-0.3"/>
			<path id="XMLID_615_" class="st2" d="M956.5,660.1c0,1.7-0.1,3.4-0.1,5.1"/>
			<path id="XMLID_614_" class="st2" d="M952.4,660.1c0.1,1.8,0.3,3.6,0.4,5.5c0,0.1,0.1,0.1,0.1,0.2s-0.1,0-0.1,0"/>
			<path id="XMLID_613_" class="st2" d="M948.6,661.2c0.5,1.7,0.9,3.5,1.4,5.2"/>
			<path id="XMLID_612_" class="st2" d="M944.4,662.5c0.4,2,1,3.9,1.8,5.7"/>
			<path id="XMLID_611_" class="st2" d="M940.8,664.3c1,1.7,2.1,3.4,3.4,4.9"/>
			<path id="XMLID_610_" class="st2" d="M937.9,666.1c0.7,1.6,1.6,3.2,2.8,4.6"/>
			<path id="XMLID_609_" class="st2" d="M934.8,668.4c1.3,1.1,2.5,2.4,3.6,3.7"/>
			<path id="XMLID_608_" class="st2" d="M932.9,670.3c1.1,0.9,2.1,1.7,3.2,2.5"/>
			<path id="XMLID_607_" class="st2" d="M849.4,599.7c-0.3,15,0.3,30,1.9,44.8"/>
			<path id="XMLID_606_" class="st2" d="M818.9,673.3c0.3,3.5,0.5,7,0.7,10.5c0.6,9.3,1.2,18.6,1.8,27.9"/>
			<path id="XMLID_605_" class="st2" d="M822.9,673.7c0.3,12.9,0.7,25.7,1,38.6c0-0.5,0-1.1-0.1-1.6"/>
			<path id="XMLID_604_" class="st2" d="M811.5,767.8c0.2,4.2,0.2,8.5,0.1,12.7"/>
			<path id="XMLID_603_" class="st2" d="M814.4,768.5c-0.2,4.1,0,8.3,0.5,12.4"/>
			<path id="XMLID_602_" class="st2" d="M811.9,794.2c0.1,4,0.4,8,1,12c0,0.2,0.1,0.5,0.3,0.5s0.2-0.5,0-0.3"/>
			<path id="XMLID_601_" class="st2" d="M814.6,795.3c0.1,4.2,0.3,8.3,0.4,12.5c0-0.5,0-1,0.1-1.5"/>
			<path id="XMLID_600_" class="st2" d="M817.5,795.3c-0.2,4-0.2,8,0.2,12"/>
			<path id="XMLID_599_" class="st2" d="M919.7,858.8c-0.1,3.4-0.3,6.8-0.8,10.2c0,0.1-0.1,0.2-0.2,0.3s-0.1-0.2,0-0.2"/>
			<path id="XMLID_598_" class="st2" d="M917.8,859.3c0,3.5-0.1,7-0.1,10.4"/>
			<path id="XMLID_597_" class="st2" d="M914.7,859.1c-0.1,3.5-0.1,7-0.2,10.4"/>
			<path id="XMLID_596_" class="st2" d="M916.1,869.9c0,2-0.1,4-0.1,6"/>
			<path id="XMLID_595_" class="st2" d="M912.5,972.9c0.2,2.6,0.4,5.2,0.6,7.8"/>
			<path id="XMLID_594_" class="st2" d="M911.6,979.5c1.1,3,2.1,6,3.2,8.9c0,0.1,0.1,0.3,0.3,0.3s0.1-0.3,0-0.2"/>
			<path id="XMLID_593_" class="st2" d="M910.2,980.2c0.4,2.9,0.9,5.8,1.3,8.7"/>
			<path id="XMLID_592_" class="st2" d="M894.4,988.9c0.7-3.1,1.6-6.1,2.7-9.1c0.1,0.2,0.2,0.4,0.2,0.7"/>
			<g id="XMLID_542_">
				<g id="XMLID_567_">
					<g id="XMLID_580_">
						<g id="XMLID_583_">
							<g id="XMLID_588_">
								<polyline id="XMLID_591_" class="st1" points="1014.2,824.5 994.1,824.5 994.1,809.2 977.5,809.2 977.5,824.5 968.8,824.5 
									968.8,798.7 1014.2,798.7 								"/>
								<polyline id="XMLID_590_" class="st1" points="1014.2,864 1011.3,864 1011.3,854.9 1014.2,854.9 982.1,854.9 982.1,849.8 
									982.1,814.4 989.4,814.4 989.4,849.8 1014.2,849.8 								"/>
								<path id="XMLID_589_" class="st1" d="M1014.2,921.5L1014.2,921.5c-5.9,0-10.3-5.4-9.2-11.2c3.6-18.5,4.5-36-2.5-46.4h11.6"
									/>
							</g>
							<g id="XMLID_584_">
								<polyline id="XMLID_587_" class="st1" points="1014.2,824.5 1034.4,824.5 1034.4,809.2 1051,809.2 1051,824.5 1059.7,824.5 
									1059.7,798.7 1014.2,798.7 								"/>
								<polyline id="XMLID_586_" class="st1" points="1014.2,864 1017.2,864 1017.2,854.9 1014.2,854.9 1046.4,854.9 1046.4,849.8 
									1046.4,814.4 1039,814.4 1039,849.8 1014.2,849.8 								"/>
								<path id="XMLID_585_" class="st1" d="M1014.2,921.5L1014.2,921.5c5.9,0,10.3-5.4,9.2-11.2c-3.6-18.5-4.5-36,2.5-46.4h-11.6"
									/>
							</g>
						</g>
						<line id="XMLID_582_" class="st1" x1="989.4" y1="845.7" x2="1039" y2="845.7"/>
						<polyline id="XMLID_581_" class="st1" points="1007.8,888.5 962.9,888.5 962.9,791.6 1065.6,791.6 1065.6,888.5 1020.7,888.5 
													"/>
					</g>
					<g id="XMLID_577_">
						<circle id="XMLID_579_" class="st1" cx="973.7" cy="770" r="10.8"/>
						<circle id="XMLID_578_" class="st1" cx="973.7" cy="770" r="6.9"/>
					</g>
					<g id="XMLID_574_">
						<circle id="XMLID_576_" class="st1" cx="1054.7" cy="770" r="10.8"/>
						<circle id="XMLID_575_" class="st1" cx="1054.7" cy="770" r="6.9"/>
					</g>
					<g id="XMLID_571_">
						<circle id="XMLID_573_" class="st1" cx="1000.7" cy="770" r="10.8"/>
						<circle id="XMLID_572_" class="st1" cx="1000.7" cy="770" r="6.9"/>
					</g>
					<g id="XMLID_568_">
						<circle id="XMLID_570_" class="st1" cx="1027.7" cy="770" r="10.8"/>
						<circle id="XMLID_569_" class="st1" cx="1027.7" cy="770" r="6.9"/>
					</g>
				</g>
				<path id="XMLID_566_" class="st2" d="M1004.9,867.4c1.2,1.3,2.3,2.6,3.5,3.9c0.7,0.8,1.4,1.5,2.3,2.1c0.9,0.5,2,0.7,2.9,0.3
					c1.6-0.8,2-3.1,3.6-3.9c0.8-0.4,1.8-0.3,2.7-0.5c1.8-0.3,3.1-1.7,4.4-3"/>
				<path id="XMLID_565_" class="st2" d="M1006.6,872.4c1.5,3,2.9,6,4.4,9c0.5,0.9,1,1.9,1.9,2.4c1.1,0.5,2.4,0.1,3.3-0.7
					c0.9-0.8,1.5-1.9,2-3s1-2.2,1.9-3c0.4-0.4,1-0.9,1-1.5"/>
				<path id="XMLID_564_" class="st2" d="M1008.3,881.9c0.8,3.1,1.8,6.4,4.5,8.2c0.2,0.1,0.3,0.2,0.5,0.2s0.4-0.1,0.6-0.1
					c3-1.3,4.8-4.4,6.6-7.1c0-0.1,0.1-0.1,0.2-0.1c0.1,0,0,0.2,0,0.1"/>
				<path id="XMLID_563_" class="st2" d="M1008.5,889.5c2.4,6.2,4.9,12.5,5.3,19.1c0.1,1.9,0.1,3.8-0.3,5.6
					c-0.5,2.2-1.5,4.4-2.9,6.2"/>
				<path id="XMLID_562_" class="st2" d="M1007.6,897.5c1.9,3.7,2.9,7.9,2.8,12.1c0,3.1-0.8,6.6-3.5,8.2"/>
				<path id="XMLID_561_" class="st2" d="M1005.1,914.3c1-0.4,1.4-1.6,1.5-2.7c0.2-1.6,0.1-3.1-0.2-4.7"/>
				<path id="XMLID_560_" class="st2" d="M1013.4,920.9c2.8-3.3,3.4-7.9,3.4-12.3c-0.1-4.3-0.6-8.7,0.3-13c0.3-1.6,1.2-3.4,2.9-3.5"
					/>
				<path id="XMLID_559_" class="st2" d="M1017.2,920.9c0.3-1.6,0.7-3.3,1-4.9c0.3-1.6,0.7-3.1,1.3-4.6s1.6-2.8,2.9-3.7"/>
				<path id="XMLID_558_" class="st2" d="M1021.6,896.7c-1.6,1.6-2.4,3.8-2.3,6.1c0,0.3,0,0.6,0.2,0.8c0.4,0.9,1.7,0.8,2.6,0.7"/>
				<path id="XMLID_557_" class="st2" d="M1007.1,864.1c0.4,1.6,1.2,3,2.2,4.3c0.3,0.3,0.5,0.7,0.9,0.9c1.1,0.7,2.7,0.1,3.5-1
					c0.8-1,1-2.4,1.2-3.7"/>
				<path id="XMLID_556_" class="st2" d="M970.3,764.3c0.9,2.5,1.7,5,2.6,7.5"/>
				<path id="XMLID_555_" class="st2" d="M1001.4,763.8c-0.2,2.6-0.4,5.2-0.5,7.9"/>
				<path id="XMLID_554_" class="st2" d="M1024,775.8c1.4-2.1,2.7-4.1,4.1-6.2"/>
				<path id="XMLID_553_" class="st2" d="M1048.3,771.2c2.4,0.1,4.8,0,7.2-0.3"/>
				<path id="XMLID_552_" class="st2" d="M982.1,815.6c2.6,1.2,5.1,2.4,7.7,3.6"/>
				<path id="XMLID_551_" class="st2" d="M982.4,819.1c2.6,0.3,5.1,0.8,7.6,1.5"/>
				<path id="XMLID_550_" class="st2" d="M982.6,821.8c2.4,0.2,4.7,0.4,7.1,0.7"/>
				<path id="XMLID_549_" class="st2" d="M1039.5,817.5c2.2-0.1,4.3-0.5,6.4-1"/>
				<path id="XMLID_548_" class="st2" d="M1039.3,818.6c2.2-0.1,4.4-0.2,6.6-0.3"/>
				<path id="XMLID_547_" class="st2" d="M1039.5,820.8c2.5,0.1,4.9,0.4,7.3,0.9"/>
				<path id="XMLID_546_" class="st2" d="M992,846c0,1.2,0,2.4,0,3.7"/>
				<path id="XMLID_545_" class="st2" d="M994.1,846.4c0,1.2-0.1,2.3-0.5,3.4"/>
				<path id="XMLID_544_" class="st2" d="M996.5,846.4c-0.4,1.2-0.6,2.4-0.6,3.7"/>
				<path id="XMLID_543_" class="st2" d="M998.8,846.2c0.1,1.5,0.3,2.9,0.7,4.3"/>
			</g>
			<path id="XMLID_541_" class="st2" d="M1105.2,646.8c4.3-0.1,8.7,0.1,13,0.5"/>
			<path id="XMLID_540_" class="st2" d="M1105.2,649.1c4,0.1,7.9,0.2,11.9,0.3c0.6,0,1.3,0,1.7,0.5"/>
			<g id="XMLID_526_">
				<rect id="XMLID_539_" x="977.8" y="537.1" class="st1" width="9.9" height="9.9"/>
				<rect id="XMLID_538_" x="959.8" y="537.1" class="st1" width="9.9" height="9.9"/>
				<path id="XMLID_537_" class="st1" d="M932.6,538.4v-10c0-10.3-8.4-18.7-18.7-18.7l0,0c-10.3,0-18.7,8.4-18.7,18.7v10"/>
				<rect id="XMLID_536_" x="885.6" y="538.4" class="st1" width="56.7" height="8.7"/>
				<path id="XMLID_535_" class="st1" d="M917.5,538.4v-14.7c0-2-1.6-3.5-3.5-3.5l0,0c-2,0-3.5,1.6-3.5,3.5v14.7"/>
				<path id="XMLID_534_" class="st2" d="M959.6,544.8c3.5-0.1,6.9-0.4,10.3-1.1"/>
				<path id="XMLID_533_" class="st2" d="M959.9,542.5c3.3,0.2,6.6,0,9.9-0.4"/>
				<path id="XMLID_532_" class="st2" d="M977.5,543.7c0.8,0.6,1.9,0.7,2.9,0.8c2.5,0.1,5,0.3,7.6,0.4"/>
				<path id="XMLID_531_" class="st2" d="M977.9,542.8c3.2,0.2,6.5-0.1,9.6-0.8"/>
				<path id="XMLID_530_" class="st2" d="M936.7,538.7c-0.1,2.7-0.1,5.5-0.2,8.2"/>
				<path id="XMLID_529_" class="st2" d="M929.2,538.9c0.2,2.4,0.4,4.8,0.6,7.2"/>
				<path id="XMLID_528_" class="st2" d="M926.7,539c0.2,2.4,0.3,4.8,0.5,7.2"/>
				<path id="XMLID_527_" class="st2" d="M890.7,538.4c-0.1,2.7-0.3,5.5-0.5,8.2"/>
			</g>
			<path id="XMLID_525_" class="st2" d="M1126.5,546.4c-0.8,7.4-1.4,14.8-1.9,22.2c0-0.3,0-0.7,0-1"/>
			<path id="XMLID_524_" class="st2" d="M1119.6,547.3c0.1,7.1,0.2,14.2,0.2,21.2"/>
			<path id="XMLID_523_" class="st2" d="M1090.9,547.3c-0.1,7-0.3,14-0.5,21"/>
			<path id="XMLID_522_" class="st2" d="M1087.4,547c-0.1,7.1-0.2,14.3-0.3,21.4c0-0.2,0-0.4,0.1-0.6"/>
			<path id="XMLID_521_" class="st2" d="M1074.5,546.6c-0.1,7.1,0.4,14.2,1.3,21.2"/>
			<path id="XMLID_520_" class="st2" d="M1131.2,547.6c0.2,7-0.1,14-0.7,20.9"/>
			<path id="XMLID_519_" class="st2" d="M1133.3,547.6c0.2,7,0.5,13.9,0.7,20.9"/>
			<path id="XMLID_518_" class="st2" d="M1022.1,546.9c-0.4,7.2-0.8,14.3-1,21.5c0-0.3,0.1-0.6,0.1-1"/>
		</g>
		<g id="XMLID_425_">
			<g id="XMLID_499_">
				<g id="XMLID_513_">
					<rect id="XMLID_516_" x="1118.8" y="843.6" class="st0" width="10.9" height="45.7"/>
					<rect id="XMLID_515_" x="1129.7" y="852.8" class="st0" width="9.9" height="10"/>
					<rect id="XMLID_514_" x="1129.7" y="871" class="st0" width="9.9" height="10"/>
				</g>
				<g id="XMLID_509_">
					<polyline id="XMLID_512_" class="st1" points="1118.8,919 1129.7,919 1129.7,873.7 1118.8,873.7 					"/>
					<rect id="XMLID_511_" x="1129.7" y="882.8" class="st1" width="9.9" height="9.9"/>
					<rect id="XMLID_510_" x="1129.7" y="900.8" class="st1" width="9.9" height="9.9"/>
				</g>
				<path id="XMLID_508_" class="st1" d="M1139.6,907c11.2,2.3,20.2,13.2,20,24.6"/>
				<path id="XMLID_507_" class="st1" d="M1139.6,905.1c7.2-1.7,13.9-5.4,19.1-10.6"/>
				<path id="XMLID_506_" class="st2" d="M1132.9,883.1c0,3.2-0.3,6.4-0.8,9.6"/>
				<path id="XMLID_505_" class="st2" d="M1134.4,883.5c0.3,2.9,0.5,5.7,0.6,8.6"/>
				<path id="XMLID_504_" class="st2" d="M1131.9,901.5c0.1,3,0,6-0.2,9c0-0.2,0-0.4,0-0.6"/>
				<path id="XMLID_503_" class="st2" d="M1133.6,901.6c-0.1,2.9,0,5.7,0,8.6"/>
				<path id="XMLID_502_" class="st2" d="M1133.7,903.5c0.7,2.2,1.4,4.3,2,6.5"/>
				<path id="XMLID_501_" class="st2" d="M1122.2,874.5c0.1,14.5-0.2,29.1-1,43.6"/>
				<line id="XMLID_500_" class="st1" x1="1118.8" y1="873.7" x2="1118.8" y2="919"/>
			</g>
			<g id="XMLID_426_">
				<g id="XMLID_494_">
					<path id="XMLID_498_" class="st0" d="M1129.7,586.9h9.9c0.6,0,1-0.5,1-1v-10c0-0.6-0.4-1-1-1h-9.9c-0.6,0-1,0.5-1,1v10
						C1128.7,586.5,1129.2,586.9,1129.7,586.9z"/>
					<path id="XMLID_497_" class="st0" d="M1129.7,605.1h9.9c0.6,0,1-0.5,1-1v-10c0-0.6-0.4-1-1-1h-9.9c-0.6,0-1,0.5-1,1v10
						C1128.7,604.7,1129.2,605.1,1129.7,605.1z"/>
					<path id="XMLID_496_" class="st0" d="M1181.8,525.5h7.2v9c0,0.6,0.4,1,1,1h9.9c0.6,0,1-0.5,1-1v-9h6.1v9c0,0.6,0.4,1,1,1h9.9
						c0.6,0,1-0.5,1-1v-9h2.5c0.1,0.1,0.2,0.1,0.3,0.1l0,0c0.1,0,0.2,0,0.2-0.1h5c0.6,0,1-0.5,1-1v-11.1c0-0.6-0.4-1-1-1h-45.2
						c-0.6,0-1,0.5-1,1v11.1C1180.8,525.1,1181.3,525.5,1181.8,525.5z"/>
					<path id="XMLID_495_" class="st0" d="M1315.3,512.5h-52.9c-0.6,0-1,0.5-1,1v5.5c0,0.6,0.4,1,1,1h6.2v4.5c0,0.6,0.4,1,1,1h3.9
						c-6.1,33.3-23.6,63.7-49.3,85.8c-26.1,22.3-59.3,34.7-93.5,35v-5.2c0-0.6-0.4-1-1-1h-9.9v-2.9c3.1-0.5,5.5-3.2,5.5-6.5
						c0-3.6-2.9-6.5-6.5-6.5c-0.6,0-1,0.5-1,1v15.9v39V696c0,0.6,0.4,1,1,1c3.6,0,6.5-2.9,6.5-6.5c0-3.3-2.4-6-5.5-6.5v-3h9.9
						c0.6,0,1-0.5,1-1v-4c2.1,0,4.2-0.1,6.3-0.1l0,0l0,0c0,0,0,0,0.1,0c2.8-0.1,5.6-0.3,8.3-0.5l0,0h0.1l0,0
						c2.4-0.2,4.9-0.5,7.3-0.8l0,0c0.1,0,0.2,0,0.2,0l0,0c2.4-0.3,4.7-0.7,7.1-1.1l0,0l0,0c3.1-0.5,6.2-1.2,9.3-1.9h0.1
						c0,0,0,0,0.1,0c2.7-0.6,5.3-1.3,7.9-2.1c0,0,0,0,0.1,0l0,0c3.2-0.9,6.4-1.9,9.6-3.1c0.1,0,0.1,0,0.2-0.1c2.6-0.9,5.3-1.9,7.9-3
						c0.1,0,0.2-0.1,0.2-0.1c2.1-0.9,4.2-1.8,6.3-2.7l0,0c0,0,0,0,0.1,0c5.1-2.3,10.1-4.9,15-7.7l0,0l0,0c2.5-1.5,5-3,7.4-4.6
						c0,0,0,0,0.1,0l0,0c2.1-1.3,4.1-2.7,6.1-4.2l0,0l0,0c1.6-1.1,3.2-2.3,4.7-3.5h0.1l0,0c2.1-1.6,4.1-3.3,6.2-5c0,0,0,0,0.1,0l0,0
						c2.4-2.1,4.8-4.2,7.2-6.4c0,0,0,0,0.1,0c0,0,0,0,0-0.1c1.6-1.5,3.2-3.1,4.8-4.7c0.2-0.2,0.4-0.5,0.7-0.7l0,0l0,0
						c26.3-26.9,43.1-60.6,48.7-97.7h4.8c0.6,0,1-0.5,1-1V520h6.2c0.6,0,1-0.5,1-1v-5.5C1316.3,512.9,1315.9,512.5,1315.3,512.5z"/>
				</g>
				<line id="XMLID_493_" class="st1" x1="1919.4" y1="547" x2="1149.9" y2="547"/>
				<g id="XMLID_478_">
					<rect id="XMLID_492_" x="1118.8" y="673.3" class="st1" width="10.9" height="38.5"/>
					<path id="XMLID_491_" class="st1" d="M1135.8,679.4c0.4,9.1,0.8,18.3,1.3,27.4"/>
					<path id="XMLID_490_" class="st1" d="M1141.8,679c1.2,9.1,2.4,18.1,3.6,27.2"/>
					<path id="XMLID_489_" class="st1" d="M1147.6,678.4c1.4,9.1,3.2,18.1,5.4,27"/>
					<path id="XMLID_488_" class="st1" d="M1118.8,716.7c3,0,5.5,2.5,5.5,5.5s-2.5,5.5-5.5,5.5"/>
					<path id="XMLID_487_" class="st1" d="M1118.8,657.6c3,0,5.5,2.5,5.5,5.5s-2.5,5.5-5.5,5.5"/>
					<rect id="XMLID_486_" x="1129.7" y="608.8" class="st1" width="9.9" height="9.9"/>
					<rect id="XMLID_485_" x="1129.7" y="626.8" class="st1" width="9.9" height="9.9"/>
					<path id="XMLID_484_" class="st2" d="M1132.3,608.9c-0.3,3.2-0.7,6.3-1,9.5c0-0.1,0.1-0.3,0.1-0.4"/>
					<path id="XMLID_483_" class="st2" d="M1133.9,609.5c0,3.2,0,6.3,0,9.5"/>
					<path id="XMLID_482_" class="st2" d="M1131.9,627.2c-0.3,3.2-0.4,6.4-0.4,9.7c0-0.1,0.1-0.2,0.1-0.3"/>
					<path id="XMLID_481_" class="st2" d="M1133.3,627.4c0,3,0.1,6.1,0.3,9.1"/>
					<path id="XMLID_480_" class="st2" d="M1135.1,627.6c0,3,0.1,6,0.3,9"/>
					<path id="XMLID_479_" class="st2" d="M1121.1,673.7c0.6,12.6,1.2,25.1,1.8,37.7"/>
				</g>
				<path id="XMLID_477_" class="st1" d="M1196.1,567.9c10.6,46.8,54,82,108.6,82c62.4,0,112.9-46.1,112.9-102.9"/>
				<path id="XMLID_476_" class="st1" d="M1129.7,679.5c72.5,0,132.8-52.4,145-121.5"/>
				<g id="XMLID_472_">
					<polyline id="XMLID_475_" class="st1" points="1181.8,547 1181.8,558 1227,558 1227,547 					"/>
					<rect id="XMLID_474_" x="1208" y="558" class="st1" width="9.9" height="9.9"/>
					<rect id="XMLID_473_" x="1190" y="558" class="st1" width="9.9" height="9.9"/>
				</g>
				<path id="XMLID_471_" class="st1" d="M1283.2,615.9c11.4-0.6,22.6-3.8,32.4-9.6c20.7-12.2,34.2-35.4,35.3-59.3"/>
				<path id="XMLID_470_" class="st1" d="M1214.6,567.9c2.3,15.1,12.6,28.4,25.5,36.8c4.3,2.8,8.9,5.1,13.7,6.8"/>
				<path id="XMLID_469_" class="st1" d="M1139.6,615.2c16,0.4,32.1-3.6,46-11.5c7.4-4.2,14.2-9.6,19-16.6
					c3.9-5.6,6.3-12.4,6.3-19.2"/>
				<path id="XMLID_468_" class="st1" d="M1139.6,632.4c22.7,10.6,13.5,41.7,12.8,63.7c-0.7,22.8-3.6,45.8,1.2,68.1
					c1.3,6.2,3.3,12.4,7.1,17.4c3.8,5,9.8,8.7,16.1,8.5c3.1-0.1,6.3-1.2,8.2-3.7c1.9-2.4,2.1-6.3,0-8.5c-3.1-3.2-8.5-1.4-12.1,1.2
					c-16.3,11.7-20.3,34.7-17.6,54.6c1.5,11.4,4.8,22.9,3.1,34.2c-1.6,10.2-8.9,17.8-18.8,19.5"/>
				<path id="XMLID_467_" class="st1" d="M1139.6,630.5c27.8-4.4,49.2-34.2,53.4-62.6"/>
				<path id="XMLID_466_" class="st2" d="M1189.8,561c3.4,0,6.9-0.2,10.3-0.8"/>
				<path id="XMLID_465_" class="st2" d="M1190.3,562.3c3.1,0.1,6.2,0.2,9.3,0.3c0.2,0,0.5,0.1,0.5,0.3"/>
				<path id="XMLID_464_" class="st2" d="M1207.9,560c3.3,0.3,6.5,0.5,9.8,0.8"/>
				<path id="XMLID_463_" class="st2" d="M1207.7,562.3c3.2,0.3,6.5,0.2,9.8-0.2"/>
				<path id="XMLID_462_" class="st2" d="M1221.6,547.9c-0.1,3.5-0.1,7.1,0.1,10.6"/>
				<polyline id="XMLID_461_" class="st1" points="1308.2,552.5 1308.2,558 1269.6,558 1269.6,552.5 				"/>
				<path id="XMLID_460_" class="st1" d="M1302.5,558c-5.4,36.9-22.5,70.9-49.3,97.7c-33,33-76.9,51.2-123.5,51.2"/>
				<path id="XMLID_459_" class="st1" d="M1156.5,677.1c0.7,9.1,2,18.2,3.7,27.2"/>
				<path id="XMLID_458_" class="st1" d="M1163.5,675.6c2,8.9,4,17.8,6,26.8"/>
				<path id="XMLID_457_" class="st1" d="M1169.7,674c1.9,9,4.4,17.8,7.7,26.3"/>
				<path id="XMLID_456_" class="st1" d="M1174.9,672.4c3.7,8.5,7.8,16.8,12.3,24.8"/>
				<path id="XMLID_455_" class="st1" d="M1180.8,670.4c4.8,8,9.6,15.9,14.4,23.9"/>
				<path id="XMLID_454_" class="st1" d="M1192.1,665.7c3,8.7,6.2,17.3,9.5,25.8"/>
				<path id="XMLID_453_" class="st1" d="M1199.5,661.9c3,8.8,5.9,17.6,8.5,26.5"/>
				<path id="XMLID_452_" class="st1" d="M1204.4,659.2c4.1,8.2,8.1,16.4,12.2,24.7"/>
				<path id="XMLID_451_" class="st1" d="M1208.6,656.6c5.1,7.6,10.3,15.1,15.4,22.7"/>
				<path id="XMLID_450_" class="st1" d="M1214.7,652.5c5.3,7.4,10.5,15,15.5,22.6"/>
				<path id="XMLID_449_" class="st1" d="M1218.5,649.7c4.9,7.7,10.4,15.1,16.4,22"/>
				<path id="XMLID_448_" class="st1" d="M1222.5,646.6c3.3,4.1,6.9,8,10.6,11.8c2.7,2.8,5.4,5.6,8,8.4"/>
				<path id="XMLID_447_" class="st1" d="M1228.2,641.8c2.6,2.3,5.3,4.5,7.9,6.8c4.3,3.7,8.7,7.5,12.4,11.8"/>
				<path id="XMLID_446_" class="st1" d="M1233.8,636.4c6.8,6.1,13.6,12.3,20.2,18.6"/>
				<path id="XMLID_445_" class="st1" d="M1246.9,621.5c7.4,5.4,14.9,10.6,22.6,15.6"/>
				<path id="XMLID_444_" class="st1" d="M1251.3,615.4c7.8,4.9,16.1,9.1,24.7,12.5"/>
				<path id="XMLID_443_" class="st1" d="M1255.5,608.8c7.5,4.9,17.8,5.7,25.8,10.3"/>
				<path id="XMLID_442_" class="st1" d="M1259.4,602.1c8.5,3.6,16.9,7.2,25.3,10.9"/>
				<path id="XMLID_441_" class="st1" d="M1262.4,596.2c8.6,3.3,17.4,6.2,26.2,8.7"/>
				<path id="XMLID_440_" class="st1" d="M1265.2,590.1c8.6,3.2,17.2,6.4,25.8,9.5"/>
				<path id="XMLID_439_" class="st1" d="M1267.4,584.6c8.9,2.7,18,4.6,27.2,5.6"/>
				<path id="XMLID_438_" class="st1" d="M1269.8,577.9c9.3,0.8,18.5,1.9,27.7,3.2"/>
				<path id="XMLID_437_" class="st1" d="M1271.4,572.4c9.4,0.2,18.8,0.4,28.2,0.6"/>
				<path id="XMLID_436_" class="st1" d="M1273.1,566c7.5,0.1,15.1,0.3,22.6,0.4c1.8,0,3.5,0.1,5.3,0.2"/>
				<path id="XMLID_435_" class="st1" d="M1273.7,563.2c9.3-0.5,18.7-0.7,28-0.5"/>
				<rect id="XMLID_434_" x="1262.4" y="547" class="st1" width="52.9" height="5.5"/>
				<path id="XMLID_433_" class="st2" d="M1305.5,547.3c0,1.8,0,3.7,0,5.5"/>
				<path id="XMLID_432_" class="st2" d="M1302.6,546.9c0.3,1.5,0.3,3,0.2,4.5"/>
				<path id="XMLID_431_" class="st2" d="M1299.6,547.3c0.3,1.6,0.7,3.2,1,4.8"/>
				<path id="XMLID_430_" class="st2" d="M1304.2,552.4c0,1.9,0,3.9,0,5.8"/>
				<path id="XMLID_429_" class="st2" d="M1299.1,552.7c0.3,1.7,0.6,3.4,0.9,5.2"/>
				<path id="XMLID_428_" class="st2" d="M1278.1,552.4c-0.1,1.9,0.1,3.9,0.4,5.8"/>
				<line id="XMLID_427_" class="st1" x1="1118.8" y1="657.6" x2="1118.8" y2="727.6"/>
			</g>
		</g>
	</g>
</g>
<g id="_x31_7">
	<g id="XMLID_2_">
		<g id="XMLID_3_">
			<line id="XMLID_4_" class="st3" x1="771.6" y1="2728" x2="771.6" y2="2766.5"/>
		</g>
	</g>
</g>
</svg>
