<?xml version="1.0" encoding="utf-8"?>
<!-- Generator: Adobe Illustrator 19.0.0, SVG Export Plug-In . SVG Version: 6.00 Build 0)  -->
<svg version="1.1" id="Слой_1" xmlns="http://www.w3.org/2000/svg" xmlns:xlink="http://www.w3.org/1999/xlink" x="0px" y="0px"
	 viewBox="0 0 1920 3560" style="enable-background:new 0 0 1920 3560;" xml:space="preserve">
<style type="text/css">
	.st0{fill:#F4E1A1;}
	.st1{fill:none;stroke:#817957;stroke-width:2;stroke-linecap:round;stroke-linejoin:round;stroke-miterlimit:10;}
	.st2{fill:none;stroke:#817957;stroke-linecap:round;stroke-linejoin:round;stroke-miterlimit:10;}
	.st3{fill:none;stroke:#817957;stroke-width:2.0066;stroke-linecap:round;stroke-linejoin:round;stroke-miterlimit:10;}
	.st4{display:none;fill:none;stroke:#817957;stroke-width:2;stroke-linecap:round;stroke-linejoin:round;stroke-miterlimit:10;}
</style>
<g>
	<g id="_x30_2">
		<g id="XMLID_2600_">
			<g id="XMLID_2620_">
				<g id="XMLID_2635_">
					<polygon id="XMLID_2638_" class="st0" points="381.4,2895 374.4,2895 374.4,2899 1,2899 1,2923.9 374.4,2923.9 374.4,2927.8 
						381.4,2927.8 381.4,2930.9 392.3,2930.9 392.3,2892 381.4,2892 					"/>
					<path id="XMLID_2637_" class="st0" d="M386.9,2881.6c0,3.1,2.5,5.5,5.5,5.5V2876C389.3,2876,386.9,2878.5,386.9,2881.6z"/>
					<path id="XMLID_2636_" class="st0" d="M386.9,2941.3c0,3.1,2.5,5.5,5.5,5.5v-11.1C389.3,2935.8,386.9,2938.3,386.9,2941.3z"/>
				</g>
				<g id="XMLID_2631_">
					<rect id="XMLID_2634_" x="381.4" y="2900.8" class="st1" width="10.9" height="38.5"/>
					<path id="XMLID_2633_" class="st1" d="M392.3,2896c-3,0-5.5-2.5-5.5-5.5s2.5-5.5,5.5-5.5"/>
					<path id="XMLID_2632_" class="st1" d="M392.3,2955.1c-3,0-5.5-2.5-5.5-5.5s2.5-5.5,5.5-5.5"/>
				</g>
				<g id="XMLID_2624_">
					<g id="XMLID_2629_">
						<line id="XMLID_2630_" class="st1" x1="320" y1="2907.8" x2="320" y2="2926.3"/>
					</g>
					<rect id="XMLID_2628_" x="374.4" y="2903.9" class="st1" width="7" height="32.5"/>
					<line id="XMLID_2627_" class="st1" x1="1" y1="2907.8" x2="374.4" y2="2907.8"/>
					<line id="XMLID_2626_" class="st1" x1="1" y1="2932.4" x2="374.4" y2="2932.4"/>
					<line id="XMLID_2625_" class="st1" x1="1" y1="2907.8" x2="1" y2="2932.4"/>
				</g>
				<line id="XMLID_2623_" class="st2" x1="388.6" y1="2901.3" x2="388.6" y2="2939.3"/>
				<line id="XMLID_2622_" class="st1" x1="374.4" y1="2926.3" x2="1" y2="2926.3"/>
				<line id="XMLID_2621_" class="st1" x1="392.3" y1="2885.1" x2="392.3" y2="2955.1"/>
			</g>
			<g id="XMLID_2601_">
				<g id="XMLID_2616_">
					<polygon id="XMLID_2619_" class="st0" points="381.4,3003.8 374.4,3003.8 374.4,3007.7 1,3007.7 1,3032.7 374.4,3032.7 
						374.4,3036.6 381.4,3036.6 381.4,3039.7 392.3,3039.7 392.3,3000.7 381.4,3000.7 					"/>
					<path id="XMLID_2618_" class="st0" d="M386.9,2990.3c0,3.1,2.5,5.5,5.5,5.5v-11.1C389.3,2984.8,386.9,2987.3,386.9,2990.3z"/>
					<path id="XMLID_2617_" class="st0" d="M386.9,3050.1c0,3.1,2.5,5.5,5.5,5.5v-11.1C389.3,3044.5,386.9,3047,386.9,3050.1z"/>
				</g>
				<g id="XMLID_2612_">
					<rect id="XMLID_2615_" x="381.4" y="3008.5" class="st1" width="10.9" height="38.5"/>
					<path id="XMLID_2614_" class="st1" d="M392.3,3003.6c-3,0-5.5-2.5-5.5-5.5s2.5-5.5,5.5-5.5"/>
					<path id="XMLID_2613_" class="st1" d="M392.3,3062.8c-3,0-5.5-2.5-5.5-5.5s2.5-5.5,5.5-5.5"/>
				</g>
				<g id="XMLID_2605_">
					<g id="XMLID_2610_">
						<line id="XMLID_2611_" class="st1" x1="320" y1="3015.4" x2="320" y2="3033.9"/>
					</g>
					<rect id="XMLID_2609_" x="374.4" y="3011.5" class="st1" width="7" height="32.5"/>
					<line id="XMLID_2608_" class="st1" x1="1" y1="3015.4" x2="374.4" y2="3015.4"/>
					<line id="XMLID_2607_" class="st1" x1="1" y1="3040.1" x2="374.4" y2="3040.1"/>
					<line id="XMLID_2606_" class="st1" x1="1" y1="3015.4" x2="1" y2="3040.1"/>
				</g>
				<line id="XMLID_2604_" class="st2" x1="389.6" y1="3008.8" x2="389.6" y2="3045.8"/>
				<line id="XMLID_2603_" class="st1" x1="374.4" y1="3033.9" x2="1.5" y2="3033.9"/>
				<line id="XMLID_2602_" class="st1" x1="392.3" y1="2992.7" x2="392.3" y2="3062.8"/>
			</g>
		</g>
		<g id="XMLID_2495_">
			<rect id="XMLID_2599_" x="392.3" y="2793.8" class="st0" width="1134.1" height="382"/>
			<g id="XMLID_2529_">
				<g id="XMLID_2535_">
					<rect id="XMLID_2598_" x="392.3" y="2803.7" class="st1" width="1134.1" height="378"/>
					<rect id="XMLID_2597_" x="412.4" y="2823.7" class="st1" width="1094" height="296.6"/>
					<rect id="XMLID_2596_" x="1172" y="3151.3" class="st1" width="177.2" height="30.4"/>
					<rect id="XMLID_2595_" x="569.5" y="3151.3" class="st1" width="177.2" height="30.4"/>
					<g id="XMLID_2536_">
						<g id="XMLID_2568_">
							<line id="XMLID_2594_" class="st1" x1="453" y1="2823.7" x2="453" y2="3098.4"/>
							<line id="XMLID_2593_" class="st1" x1="493.5" y1="2823.7" x2="493.5" y2="3098.4"/>
							<line id="XMLID_2592_" class="st1" x1="534.1" y1="2823.7" x2="534.1" y2="3098.4"/>
							<line id="XMLID_2591_" class="st1" x1="574.6" y1="2823.7" x2="574.6" y2="3098.4"/>
							<line id="XMLID_2590_" class="st1" x1="615.2" y1="2823.7" x2="615.2" y2="3098.4"/>
							<line id="XMLID_2589_" class="st2" x1="655.8" y1="2823.7" x2="655.8" y2="3098.4"/>
							<line id="XMLID_2588_" class="st1" x1="696.3" y1="2823.7" x2="696.3" y2="3098.4"/>
							<line id="XMLID_2587_" class="st1" x1="736.9" y1="2823.7" x2="736.9" y2="3098.4"/>
							<line id="XMLID_2586_" class="st1" x1="777.4" y1="2823.7" x2="777.4" y2="3098.4"/>
							<line id="XMLID_2585_" class="st1" x1="818" y1="2823.7" x2="818" y2="3098.4"/>
							<line id="XMLID_2584_" class="st1" x1="858.6" y1="2823.7" x2="858.6" y2="3098.4"/>
							<line id="XMLID_2583_" class="st1" x1="899.1" y1="2823.7" x2="899.1" y2="3098.4"/>
							<line id="XMLID_2582_" class="st1" x1="939.7" y1="2823.7" x2="939.7" y2="3098.4"/>
							<line id="XMLID_2581_" class="st1" x1="980.3" y1="2823.7" x2="980.3" y2="3098.4"/>
							<line id="XMLID_2580_" class="st1" x1="1020.8" y1="2823.7" x2="1020.8" y2="3098.4"/>
							<line id="XMLID_2579_" class="st1" x1="1061.4" y1="2823.7" x2="1061.4" y2="3098.4"/>
							<line id="XMLID_2578_" class="st1" x1="1101.9" y1="2823.7" x2="1101.9" y2="3098.4"/>
							<line id="XMLID_2577_" class="st1" x1="1142.5" y1="2823.7" x2="1142.5" y2="3098.4"/>
							<line id="XMLID_2576_" class="st1" x1="1183.1" y1="2823.7" x2="1183.1" y2="3098.4"/>
							<line id="XMLID_2575_" class="st1" x1="1223.6" y1="2823.7" x2="1223.6" y2="3098.4"/>
							<line id="XMLID_2574_" class="st1" x1="1264.2" y1="2823.7" x2="1264.2" y2="3098.4"/>
							<line id="XMLID_2573_" class="st1" x1="1304.7" y1="2823.7" x2="1304.7" y2="3098.4"/>
							<line id="XMLID_2572_" class="st1" x1="1345.3" y1="2823.7" x2="1345.3" y2="3098.4"/>
							<line id="XMLID_2571_" class="st1" x1="1385.9" y1="2823.7" x2="1385.9" y2="3098.4"/>
							<line id="XMLID_2570_" class="st1" x1="1426.4" y1="2823.7" x2="1426.4" y2="3098.4"/>
							<line id="XMLID_2569_" class="st1" x1="1467" y1="2823.7" x2="1467" y2="3098.4"/>
						</g>
						<g id="XMLID_2537_">
							<path id="XMLID_2560_" class="st2" d="M534.1,2869.9c12-5.1,25.1-7.7,39.1-7.7c0.5,0,0.9,0,1.4,0 M615.2,2871.3
								c6.6,3.1,12.9,7,19,11.6c3.5,2.8,5.6,6.4,6.3,10.9c0.6,4.6-0.6,8.7-3.4,12.3c-2.8,3.6-6.4,5.7-10.9,6.3
								c-4,0.5-7.7-0.3-11-2.3 M574.6,2895.3c-0.5,0-0.9,0-1.4,0c-14.8,0-27.8,4.2-39.1,12.6 M534.1,3016.2
								c11.3,8.4,24.4,12.7,39.1,12.7c0.5,0,0.9,0,1.4,0 M615.2,3014.2c1-0.8,2-1.7,3.1-2.6c3.4-3.1,7.3-4.5,11.9-4.3
								c4.6,0.2,8.4,2,11.5,5.5c3.1,3.4,4.5,7.3,4.3,11.9c-0.2,4.6-2,8.4-5.3,11.5c-7.9,7.2-16.4,12.9-25.4,17.1 M574.6,3062
								c-0.5,0-0.9,0-1.4,0c-14.1,0-27.1-2.6-39.1-7.7 M493.5,3022.5c-13.4-17.4-20.1-37.5-20.1-60.3c0-22.9,6.7-43,20.1-60.4"/>
							<path id="XMLID_2558_" class="st2" d="M696.3,2868.7c0.5-0.6,1-1.1,1.5-1.7c3.2-3.3,7-4.9,11.6-4.9s8.4,1.6,11.6,4.9
								c3.3,3.2,4.9,7,4.9,11.6v166.8c0,4.6-1.6,8.4-4.9,11.6c-3.2,3.3-7,4.9-11.6,4.9s-8.4-1.6-11.6-4.9c-0.5-0.5-1-1.1-1.5-1.7"/>
							<path id="XMLID_2552_" class="st2" d="M858.6,2937.4l27.4,45.2l13.2-21.8 M939.7,2893.7l15-24.9c1.9-3.2,4.5-5.5,8-6.9
								c3.4-1.3,5.2-2,5.2-2s1.8,0.5,5.5,1.4c2.7,0.8,5,2.1,6.9,4 M980.3,3057.5c-3.2,3-7,4.6-11.4,4.6c-4.6,0-8.5-1.6-11.7-4.9
								c-3.2-3.2-4.8-7-4.8-11.6v-108.8l-12.7,20.9 M899.1,3024.5l-0.3,0.5c-0.4,0.4-0.6,0.6-0.7,0.7c-0.1,0.1-0.3,0.3-0.6,0.6
								s-0.5,0.5-0.6,0.6c-0.2,0.2-0.5,0.4-0.8,0.7l-0.4,0.4c-0.3,0.2-0.6,0.4-1,0.6c0,0.1,0,0.1-0.1,0.1l-0.1,0.1h-0.1
								c-0.2,0.2-0.5,0.4-1,0.6c-0.4,0.2-0.5,0.3-0.4,0.3c-0.1,0-0.4,0.1-0.8,0.3c-2.1,0.9-4.4,1.3-6.7,1.3h-0.3c0.2,0,0,0-0.6-0.1
								c-1.2-0.1-2.4-0.3-3.6-0.7c-0.5-0.1-0.7-0.1-0.6-0.1c0.2,0.1,0,0-0.6-0.1c-0.5-0.2-0.8-0.3-1-0.4c0.1,0,0-0.1-0.3-0.3
								c-0.5-0.2-0.8-0.4-1.1-0.6h-0.1l-0.1-0.1l-0.1-0.1c-0.4-0.2-0.7-0.4-1-0.7c0,0.1-0.1,0-0.4-0.3c-0.4-0.3-0.7-0.5-0.8-0.7
								c-0.1-0.1-0.3-0.3-0.6-0.6s-0.5-0.5-0.6-0.6c-0.1-0.2-0.3-0.4-0.7-0.7c-0.2-0.3-0.3-0.5-0.3-0.6c-0.2-0.2-0.4-0.5-0.7-1
								l-0.1-0.1c0-0.1,0-0.1-0.1-0.1v-0.1c0-0.1,0-0.1-0.1-0.1l-12.9-21.4 M818,3052.4c-0.8,1.7-1.9,3.3-3.4,4.7
								c-3.3,3.3-7.2,4.9-11.7,4.9s-8.4-1.6-11.6-4.9c-3.3-3.2-4.9-7-4.9-11.6v-168.1c0-3.7,1.1-7,3.4-9.9c2.2-3,5.2-5,8.8-6
								c3.5-0.9,7-0.7,10.5,0.6c3.5,1.4,6.2,3.7,8.1,6.9l0.9,1.5"/>
							<path id="XMLID_2543_" class="st2" d="M1101.9,2866c9.9-3.2,20.4-4.8,31.7-4.8c3,0,6,0.1,8.9,0.3 M1183.1,2873.9
								c7.7,4.4,14.9,10,21.6,16.6c7.9,8,14.3,16.6,19,25.9 M1223.6,3006.7c-4.7,9.3-11,17.9-19,25.8c-6.7,6.7-13.9,12.3-21.6,16.7
								 M1142.5,3061.7c-2.9,0.2-5.9,0.3-8.9,0.3c-11.2,0-21.8-1.6-31.7-4.8 M1061.4,3031.2c-18.8-19.3-28.2-42.5-28.2-69.6
								s9.4-50.3,28.2-69.7 M1101.9,3021.2c9.5,5.2,20,7.8,31.7,7.8c3,0,6-0.2,8.9-0.5 M1183.1,3007.3c12-12.8,17.9-28,17.9-45.7
								s-6-33-17.9-45.8 M1142.5,2894.7c-2.9-0.4-5.9-0.5-8.9-0.5c-11.6,0-22.2,2.6-31.7,7.7"/>
							<path id="XMLID_2538_" class="st2" d="M1304.7,2862.2C1304.8,2862.2,1304.8,2862.2,1304.7,2862.2c3.4,1,6.1,2.9,8.3,5.7
								l32.3,41.6 M1385.9,2961.7l27.7,35.7V2878c0-4.6,1.6-8.4,4.8-11.6c2.4-2.4,5.1-3.9,8.1-4.5 M1426.6,3061.6
								c-0.1,0-0.2-0.1-0.6-0.2c-0.5-0.1-0.8-0.2-1.1-0.3c-0.1,0-0.3-0.1-0.6-0.3c-0.5-0.1-0.8-0.2-1.1-0.4c-0.2,0-0.4-0.1-0.6-0.3
								c-0.4-0.2-0.7-0.3-1-0.4c-0.3-0.2-0.5-0.3-0.6-0.4c-0.3-0.2-0.6-0.4-1-0.7c-0.3-0.2-0.5-0.3-0.6-0.4
								c-0.5-0.4-0.9-0.7-1.3-1.1l-0.1-0.1v-0.1c-0.4-0.4-0.6-0.6-0.6-0.6s-0.1-0.2-0.4-0.6h-0.1v-0.1l-31.2-40.1 M1345.3,2963.3
								l-28.8-37v119.3c0,4.6-1.6,8.4-4.9,11.6c-2,2.1-4.3,3.5-6.9,4.2"/>
						</g>
					</g>
				</g>
				<line id="XMLID_2534_" class="st1" x1="412.4" y1="3098.4" x2="1506.4" y2="3098.4"/>
				<polyline id="XMLID_2533_" class="st1" points="412.4,2834.1 392.3,2834.1 392.3,2803.7 422.8,2803.7 422.8,2823.7 				"/>
				<polyline id="XMLID_2532_" class="st1" points="1496,2823.7 1496,2803.7 1526.4,2803.7 1526.4,2834.1 1506.4,2834.1 				"/>
				<rect id="XMLID_2531_" x="392.3" y="3151.3" class="st1" width="30.4" height="30.4"/>
				<rect id="XMLID_2530_" x="1496" y="3151.3" class="st1" width="30.4" height="30.4"/>
			</g>
			<line id="XMLID_2528_" class="st2" x1="448.6" y1="2823.3" x2="448.6" y2="3097.8"/>
			<line id="XMLID_2527_" class="st2" x1="529.1" y1="2823.8" x2="529.1" y2="3098.3"/>
			<line id="XMLID_2526_" class="st1" x1="660.6" y1="2823.8" x2="660.6" y2="3098.3"/>
			<line id="XMLID_2525_" class="st2" x1="601.1" y1="2823.8" x2="601.1" y2="3097.8"/>
			<line id="XMLID_2524_" class="st2" x1="769.1" y1="2824.8" x2="769.1" y2="3097.8"/>
			<line id="XMLID_2523_" class="st2" x1="853.1" y1="2824.8" x2="853.1" y2="3097"/>
			<line id="XMLID_2522_" class="st2" x1="1015.1" y1="2823.8" x2="1015.1" y2="3096.9"/>
			<line id="XMLID_2521_" class="st2" x1="1177.1" y1="2823.8" x2="1177.1" y2="3095.8"/>
			<line id="XMLID_2520_" class="st2" x1="1259.1" y1="2823.8" x2="1259.1" y2="3095.8"/>
			<line id="XMLID_2519_" class="st2" x1="1457.1" y1="2823.7" x2="1457.1" y2="3097.8"/>
			<path id="XMLID_2518_" class="st2" d="M392.6,2828.8c3.7-9.5,9.7-18,17.4-24.6"/>
			<path id="XMLID_2517_" class="st2" d="M397.7,2833.9c4.6-10.2,13.6-18.3,24.3-21.9"/>
			<path id="XMLID_2516_" class="st2" d="M392.6,3176.6c5.6,1.2,11.1,2.8,16.5,4.9"/>
			<path id="XMLID_2515_" class="st2" d="M393.1,3170.2c9.1,2.7,18.5,4.2,28,4.4"/>
			<path id="XMLID_2514_" class="st2" d="M393.1,3165.3c-0.6-0.2-1.2,0.5-0.9,1c10.1,1,20.3,1.3,30.4,0.9"/>
			<path id="XMLID_2513_" class="st2" d="M1496.6,3179c9.5-1.9,19-4.1,28.3-6.6"/>
			<path id="XMLID_2512_" class="st2" d="M1496.2,3175.7c6.5-1.7,12.8-4.3,18.7-7.7c3.3-1.9,7.2-4.2,10.8-2.9"/>
			<path id="XMLID_2511_" class="st2" d="M1496.6,3170.4c9.2-4.1,18.9-7.2,28.9-9"/>
			<path id="XMLID_2510_" class="st2" d="M1173,3178.2c10.9-10.7,23.5-19.5,37.2-26.2"/>
			<path id="XMLID_2509_" class="st2" d="M1172.4,3169.1c5.5-5.2,10.5-11,14.8-17.2"/>
			<path id="XMLID_2508_" class="st2" d="M1184.5,3181.5c23.5-9.6,46.9-19.5,70-30"/>
			<path id="XMLID_2507_" class="st2" d="M1210.5,3180.8c9.2-1.2,18.2-3.4,26.9-6.7c2.9-1.1,6.2-2.7,7-5.7c0.2-0.9,0.2-1.9,0.7-2.7
				c0.5-1,1.7-1.6,2.7-2.1c12.6-6,26.1-10.1,39.8-12.2"/>
			<path id="XMLID_2506_" class="st2" d="M1320.1,3152.1c10.2,2.3,21.1,5,28.2,12.7c0.5,0.5,0.9,1.3,0.5,1.9"/>
			<path id="XMLID_2505_" class="st2" d="M570,3161.7c4.4-4.4,10-7.7,16.1-9.4"/>
			<path id="XMLID_2504_" class="st2" d="M569.9,3171.1c10.8-7.2,22.2-13.6,34-19.2"/>
			<path id="XMLID_2503_" class="st2" d="M569.2,3178.6c9.7-4.3,19.4-8.5,29.2-12.8c5.5-2.4,11.2-4.9,17.2-5.3c2.4-0.2,4.8,0,7-0.8
				c4.6-1.7,7.2-7,11.9-8.1"/>
			<path id="XMLID_2502_" class="st2" d="M579.7,3182.2c12.6-1.6,25.3-3.2,37.9-4.7c4.3-0.5,8.9-1.2,12.3-3.9s5-8.3,2-11.5
				c18-5.2,36.5-8.6,55.2-10"/>
			<line id="XMLID_2501_" class="st2" x1="423.2" y1="2816.9" x2="1495.6" y2="2816.9"/>
			<path id="XMLID_2500_" class="st2" d="M393.2,3133.4c1,0,2,0,3,0h1124.9"/>
			<line id="XMLID_2499_" class="st2" x1="747.2" y1="3167.9" x2="1171.7" y2="3167.9"/>
			<line id="XMLID_2498_" class="st2" x1="422.8" y1="3160.4" x2="569.5" y2="3160.4"/>
			<path id="XMLID_2497_" class="st2" d="M1496.7,2816.5c9.4,3.6,19.4,5.8,29.4,6.3"/>
			<path id="XMLID_2496_" class="st2" d="M1501.9,2803.7c6.1,6.8,15.1,10.8,24.2,10.9"/>
		</g>
	</g>
	<g id="_x30_5">
		<g id="XMLID_2111_">
			<g id="XMLID_2112_">
				<rect id="XMLID_2150_" x="197" y="3271.5" class="st0" width="127.9" height="286.3"/>
				<rect id="XMLID_2149_" x="197" y="3276.4" class="st1" width="127.9" height="283.3"/>
				<g id="XMLID_2139_">
					<g id="XMLID_2146_">
						<circle id="XMLID_2148_" class="st1" cx="285.2" cy="3373.2" r="10.8"/>
						<circle id="XMLID_2147_" class="st1" cx="285.2" cy="3373.2" r="6.9"/>
					</g>
					<g id="XMLID_2143_">
						<circle id="XMLID_2145_" class="st1" cx="285.2" cy="3319.2" r="10.8"/>
						<circle id="XMLID_2144_" class="st1" cx="285.2" cy="3319.2" r="6.9"/>
					</g>
					<g id="XMLID_2140_">
						<circle id="XMLID_2142_" class="st1" cx="285.2" cy="3346.2" r="10.8"/>
						<circle id="XMLID_2141_" class="st1" cx="285.2" cy="3346.2" r="6.9"/>
					</g>
				</g>
				<g id="XMLID_2129_">
					<g id="XMLID_2136_">
						<circle id="XMLID_2138_" class="st1" cx="238" cy="3373.2" r="10.8"/>
						<circle id="XMLID_2137_" class="st1" cx="238" cy="3373.2" r="6.9"/>
					</g>
					<g id="XMLID_2133_">
						<circle id="XMLID_2135_" class="st1" cx="238" cy="3319.2" r="10.8"/>
						<circle id="XMLID_2134_" class="st1" cx="238" cy="3319.2" r="6.9"/>
					</g>
					<g id="XMLID_2130_">
						<circle id="XMLID_2132_" class="st1" cx="238" cy="3346.2" r="10.8"/>
						<circle id="XMLID_2131_" class="st1" cx="238" cy="3346.2" r="6.9"/>
					</g>
				</g>
				<g id="XMLID_2116_">
					<rect id="XMLID_2128_" x="221.1" y="3444.5" class="st1" width="74.9" height="115.2"/>
					<g id="XMLID_2119_">
						<line id="XMLID_2127_" class="st1" x1="278.2" y1="3457.5" x2="278.2" y2="3506.5"/>
						<line id="XMLID_2126_" class="st1" x1="272.6" y1="3457.5" x2="272.6" y2="3506.5"/>
						<line id="XMLID_2125_" class="st1" x1="267" y1="3457.5" x2="267" y2="3506.5"/>
						<line id="XMLID_2124_" class="st1" x1="261.3" y1="3457.5" x2="261.3" y2="3506.5"/>
						<line id="XMLID_2123_" class="st1" x1="255.7" y1="3457.5" x2="255.7" y2="3506.5"/>
						<line id="XMLID_2122_" class="st1" x1="250.1" y1="3457.5" x2="250.1" y2="3506.5"/>
						<line id="XMLID_2121_" class="st1" x1="244.5" y1="3457.5" x2="244.5" y2="3506.5"/>
						<line id="XMLID_2120_" class="st1" x1="238.9" y1="3457.5" x2="238.9" y2="3506.5"/>
					</g>
					<circle id="XMLID_2118_" class="st1" cx="289.1" cy="3451.4" r="2.2"/>
					<circle id="XMLID_2117_" class="st1" cx="227.9" cy="3451.4" r="2.2"/>
				</g>
				<line id="XMLID_2115_" class="st1" x1="261.6" y1="3276.4" x2="261.6" y2="3444.5"/>
				<line id="XMLID_2114_" class="st1" x1="296" y1="3550.9" x2="223" y2="3550.9"/>
				<line id="XMLID_2113_" class="st1" x1="296" y1="3547.4" x2="221.5" y2="3547.4"/>
			</g>
		</g>
		<g id="XMLID_2093_">
			<g id="XMLID_2107_">
				<polygon id="XMLID_2110_" class="st0" points="186.1,3353.1 179.1,3353.1 179.1,3357.1 1.1,3357.1 1.1,3382 179.1,3382 
					179.1,3385.9 186.1,3385.9 186.1,3389 197,3389 197,3350 186.1,3350 				"/>
				<path id="XMLID_2109_" class="st0" d="M191.6,3339.6c0,3.1,2.5,5.5,5.5,5.5V3334C194,3334.1,191.6,3336.6,191.6,3339.6z"/>
				<path id="XMLID_2108_" class="st0" d="M191.6,3399.4c0,3.1,2.5,5.5,5.5,5.5v-11.1C194,3393.9,191.6,3396.3,191.6,3399.4z"/>
			</g>
			<g id="XMLID_2103_">
				<rect id="XMLID_2106_" x="186.1" y="3354.1" class="st1" width="10.9" height="38.5"/>
				<path id="XMLID_2105_" class="st1" d="M197,3349.3c-3,0-5.5-2.5-5.5-5.5s2.5-5.5,5.5-5.5"/>
				<path id="XMLID_2104_" class="st1" d="M197,3408.4c-3,0-5.5-2.5-5.5-5.5s2.5-5.5,5.5-5.5"/>
			</g>
			<g id="XMLID_2096_">
				<g id="XMLID_2101_">
					<line id="XMLID_2102_" class="st1" x1="8.3" y1="3361.1" x2="8.3" y2="3385.7"/>
				</g>
				<rect id="XMLID_2100_" x="179.1" y="3357.2" class="st1" width="7" height="32.5"/>
				<line id="XMLID_2099_" class="st1" x1="1.1" y1="3361.1" x2="179.1" y2="3361.1"/>
				<line id="XMLID_2098_" class="st1" x1="1.1" y1="3385.7" x2="179.1" y2="3385.7"/>
				<line id="XMLID_2097_" class="st1" x1="1.1" y1="3361.1" x2="1.1" y2="3385.7"/>
			</g>
			<line id="XMLID_2095_" class="st1" x1="179.1" y1="3379.6" x2="8.3" y2="3379.6"/>
			<line id="XMLID_2094_" class="st1" x1="197" y1="3338.4" x2="197" y2="3408.4"/>
		</g>
		<g id="XMLID_2075_">
			<g id="XMLID_2089_">
				<polygon id="XMLID_2092_" class="st0" points="186.1,3459.5 179.1,3459.5 179.1,3463.5 1.1,3463.5 1.1,3488.4 179.1,3488.4 
					179.1,3492.3 186.1,3492.3 186.1,3495.4 197,3495.4 197,3456.4 186.1,3456.4 				"/>
				<path id="XMLID_2091_" class="st0" d="M191.6,3446c0,3.1,2.5,5.5,5.5,5.5v-11.1C194,3440.5,191.6,3443,191.6,3446z"/>
				<path id="XMLID_2090_" class="st0" d="M191.6,3505.8c0,3.1,2.5,5.5,5.5,5.5v-11.1C194,3500.3,191.6,3502.7,191.6,3505.8z"/>
			</g>
			<g id="XMLID_2085_">
				<rect id="XMLID_2088_" x="186.1" y="3459.4" class="st1" width="10.9" height="38.5"/>
				<path id="XMLID_2087_" class="st1" d="M197,3454.6c-3,0-5.5-2.5-5.5-5.5s2.5-5.5,5.5-5.5"/>
				<path id="XMLID_2086_" class="st1" d="M197,3513.7c-3,0-5.5-2.5-5.5-5.5s2.5-5.5,5.5-5.5"/>
			</g>
			<g id="XMLID_2078_">
				<g id="XMLID_2083_">
					<line id="XMLID_2084_" class="st1" x1="8.3" y1="3466.4" x2="8.3" y2="3491"/>
				</g>
				<rect id="XMLID_2082_" x="179.1" y="3462.5" class="st1" width="7" height="32.5"/>
				<line id="XMLID_2081_" class="st1" x1="1.1" y1="3466.4" x2="179.1" y2="3466.4"/>
				<line id="XMLID_2080_" class="st1" x1="1.1" y1="3491" x2="179.1" y2="3491"/>
				<line id="XMLID_2079_" class="st1" x1="1.1" y1="3466.4" x2="1.1" y2="3491"/>
			</g>
			<line id="XMLID_2077_" class="st1" x1="179.1" y1="3484.9" x2="8.3" y2="3484.9"/>
			<line id="XMLID_2076_" class="st1" x1="197" y1="3443.7" x2="197" y2="3513.7"/>
		</g>
	</g>
	<g id="_x31_3">
		<g id="XMLID_1422_">
			<g id="XMLID_1509_">
				<g id="XMLID_1521_">
					<rect id="XMLID_1524_" x="966.5" y="3263.3" class="st0" width="10.9" height="45.7"/>
					<path id="XMLID_1523_" class="st0" d="M977.4,3272.5v10h4.1c0,0.1,0,0.1,0,0.2v-0.2h5.9v-10H977.4z"/>
					<path id="XMLID_1522_" class="st0" d="M982.5,3290.7h-5.1v10h4.3v0.2c0-0.1,0-0.1,0-0.2h5.6v-10h-4.6
						C982.7,3290.6,982.6,3290.6,982.5,3290.7z"/>
				</g>
				<g id="XMLID_1516_">
					<g id="XMLID_1517_">
						<polyline id="XMLID_1520_" class="st1" points="966.5,3313.5 977.4,3313.5 977.4,3268.3 966.5,3268.3 						"/>
						<rect id="XMLID_1519_" x="977.4" y="3277.4" class="st1" width="9.9" height="9.9"/>
						<rect id="XMLID_1518_" x="977.4" y="3295.4" class="st1" width="9.9" height="9.9"/>
					</g>
				</g>
				<path id="XMLID_1515_" class="st1" d="M987.3,3281c21.4-8.1,40.3-22.7,53.3-41.5c11.8-16.9,18.8-37.2,20.1-57.8"/>
				<path id="XMLID_1514_" class="st1" d="M987.3,3301.1c13.1,1.9,26.9-2.4,38.9-8.6c40.4-21,67.4-65.4,68.2-110.8"/>
				<line id="XMLID_1513_" class="st2" x1="970.8" y1="3268.8" x2="970.8" y2="3312.8"/>
				<path id="XMLID_1512_" class="st2" d="M981.7,3278.1c-0.4,3.1-0.4,6.3-0.2,9.4"/>
				<path id="XMLID_1511_" class="st2" d="M982.3,3295.8c-0.3-0.2,0.2-0.6,0.5-0.4s0.2,0.6,0.2,1c-0.4,3.1-0.9,6.1-1.3,9.2"/>
				<line id="XMLID_1510_" class="st1" x1="966.5" y1="3268.3" x2="966.5" y2="3313.5"/>
			</g>
			<g id="XMLID_1450_">
				<path id="XMLID_1508_" class="st0" d="M966.5,3527.1v-320.5v-30.7H936H618.8h-30.4v30.7v320.5v30.7h30.4h70h32.4
					c-0.2,0.1-0.4,0.1-0.6,0.2l51.6-0.2H866h70h30.4L966.5,3527.1L966.5,3527.1z"/>
				<g id="XMLID_1503_">
					<path id="XMLID_1507_" class="st1" d="M1659.3,3559.7"/>
					<path id="XMLID_1506_" class="st1" d="M1467,3559.7"/>
					<path id="XMLID_1505_" class="st1" d="M1230.2,3559.7"/>
					<path id="XMLID_1504_" class="st1" d="M966.5,3559.7"/>
				</g>
				<path id="XMLID_1502_" class="st2" d="M588.9,3191c6.8-3.1,13.6-6.1,20.4-9.2"/>
				<path id="XMLID_1501_" class="st2" d="M588.5,3199.1c7.6-1.5,15.2-3.6,22.6-6.1c2.3-0.8,4.6-1.6,6.9-2.5"/>
				<path id="XMLID_1500_" class="st2" d="M935.4,3188.2c10-0.3,20-0.2,30,0.2"/>
				<path id="XMLID_1499_" class="st2" d="M936.1,3192.1c10,1.3,20,2.6,30,3.9"/>
				<line id="XMLID_1498_" class="st2" x1="689.6" y1="3534.3" x2="864.4" y2="3534.3"/>
				<line id="XMLID_1497_" class="st2" x1="689.1" y1="3537.3" x2="865.8" y2="3537.3"/>
				<line id="XMLID_1496_" class="st2" x1="689.1" y1="3544.3" x2="864.6" y2="3544.3"/>
				<path id="XMLID_1495_" class="st2" d="M693.7,3559.4c6.2-4.3,13.9-5.5,21.4-6.5c49.8-6.5,100.3-4.7,150.5-2.9"/>
				<path id="XMLID_1494_" class="st2" d="M720.6,3559.9c23.3-6.4,48.2-6.4,71.5-0.2"/>
				<path id="XMLID_1493_" class="st2" d="M936,3551.5c9.2,3.2,18.5,5.9,28,8.2"/>
				<path id="XMLID_1492_" class="st2" d="M935.6,3546.7c10.3,1.2,20.7,2.5,31,3.7"/>
				<path id="XMLID_1491_" class="st2" d="M935.1,3543.1c10,0.4,20.1,1.1,30.1,2.1c0.3,0,0.7,0.1,0.8,0.3s0,0.7-0.3,0.7"/>
				<path id="XMLID_1490_" class="st2" d="M589.1,3553c9.6,2.4,19.6,3.7,29.5,3.8"/>
				<path id="XMLID_1489_" class="st2" d="M588.7,3548.6c9.4,1.6,18.8,2.6,28.3,3c0.5,0,1.1,0.2,1.2,0.7c0.1,0.5-1,0.3-0.6,0"/>
				<path id="XMLID_1488_" class="st2" d="M588.6,3546.4c9.8-0.1,19.7-0.3,29.5-0.4"/>
				<line id="XMLID_1487_" class="st2" x1="589.4" y1="3513.5" x2="966.1" y2="3513.5"/>
				<line id="XMLID_1486_" class="st2" x1="952.7" y1="3212.9" x2="952.7" y2="3507.5"/>
				<line id="XMLID_1485_" class="st2" x1="600.2" y1="3212.1" x2="600.2" y2="3507.5"/>
				<line id="XMLID_1484_" class="st2" x1="618.2" y1="3188.9" x2="936.2" y2="3188.9"/>
				<line id="XMLID_1483_" class="st2" x1="613.7" y1="3201.8" x2="613.7" y2="3498.4"/>
				<line id="XMLID_1482_" class="st2" x1="847.4" y1="3202.2" x2="847.4" y2="3379.2"/>
				<line id="XMLID_1481_" class="st2" x1="847.4" y1="3454.1" x2="847.4" y2="3496.5"/>
				<path id="XMLID_1480_" class="st2" d="M695.4,3202.8c0,2.7,0,5.3,0,8v287.3"/>
				<line id="XMLID_1479_" class="st2" x1="600.2" y1="3507.5" x2="952.7" y2="3507.5"/>
				<line id="XMLID_1478_" class="st1" x1="711" y1="3201.8" x2="711" y2="3498.4"/>
				<line id="XMLID_1477_" class="st1" x1="740.6" y1="3201.8" x2="740.6" y2="3498.4"/>
				<line id="XMLID_1476_" class="st1" x1="813.8" y1="3201.8" x2="813.8" y2="3379.2"/>
				<line id="XMLID_1475_" class="st1" x1="843.4" y1="3201.8" x2="843.4" y2="3379.2"/>
				<rect id="XMLID_1474_" x="588.4" y="3181.7" class="st1" width="378" height="378"/>
				<polyline id="XMLID_1473_" class="st1" points="946.4,3212.1 946.4,3498.4 608.5,3498.4 608.5,3201.8 936,3201.8 				"/>
				<rect id="XMLID_1472_" x="936" y="3181.7" class="st1" width="30.4" height="30.4"/>
				<polyline id="XMLID_1471_" class="st1" points="608.5,3212.1 588.4,3212.1 588.4,3181.7 618.8,3181.7 618.8,3201.8 				"/>
				<rect id="XMLID_1470_" x="936" y="3529.3" class="st1" width="30.4" height="30.4"/>
				<rect id="XMLID_1469_" x="588.4" y="3529.3" class="st1" width="30.4" height="30.4"/>
				<rect id="XMLID_1468_" x="688.8" y="3529.3" class="st1" width="177.2" height="30.4"/>
				<line id="XMLID_1467_" class="st1" x1="946.4" y1="3350.1" x2="608.5" y2="3350.1"/>
				<line id="XMLID_1466_" class="st1" x1="946.4" y1="3275.9" x2="608.5" y2="3275.9"/>
				<line id="XMLID_1465_" class="st1" x1="777.4" y1="3201.8" x2="777.4" y2="3391.2"/>
				<line id="XMLID_1464_" class="st1" x1="777.4" y1="3419.2" x2="777.4" y2="3498.4"/>
				<g id="XMLID_1457_">
					<path id="XMLID_1463_" class="st1" d="M813.8,3454.1v44.3V3454.1z"/>
					<line id="XMLID_1462_" class="st1" x1="946.4" y1="3424.2" x2="867" y2="3424.2"/>
					<path id="XMLID_1461_" class="st1" d="M843.4,3454.1v44.3V3454.1z"/>
					<g id="XMLID_1458_">
						<line id="XMLID_1460_" class="st1" x1="711" y1="3424.2" x2="711" y2="3498.4"/>
						<line id="XMLID_1459_" class="st1" x1="740.6" y1="3424.2" x2="740.6" y2="3498.4"/>
					</g>
				</g>
				<g id="XMLID_1451_">
					<line id="XMLID_1456_" class="st1" x1="813.8" y1="3201.8" x2="813.8" y2="3275.9"/>
					<line id="XMLID_1455_" class="st1" x1="843.4" y1="3201.8" x2="843.4" y2="3275.9"/>
					<g id="XMLID_1452_">
						<line id="XMLID_1454_" class="st1" x1="711" y1="3201.8" x2="711" y2="3275.9"/>
						<line id="XMLID_1453_" class="st1" x1="740.6" y1="3201.8" x2="740.6" y2="3275.9"/>
					</g>
				</g>
			</g>
			<g id="XMLID_1423_">
				<g id="XMLID_1446_">
					<polygon id="XMLID_1449_" class="st0" points="792.1,3375.3 792.1,3379.2 781.4,3379.2 781.4,3424.9 792.1,3424.9 792.1,3451 
						867,3451 867,3375.3 					"/>
					<rect id="XMLID_1448_" x="771.4" y="3405.7" class="st0" width="9.9" height="10"/>
					<rect id="XMLID_1447_" x="771.4" y="3387.5" class="st0" width="9.9" height="10"/>
				</g>
				<line id="XMLID_1445_" class="st2" x1="788.8" y1="3382.8" x2="788.8" y2="3427.5"/>
				<line id="XMLID_1444_" class="st2" x1="772.8" y1="3398.5" x2="780.5" y2="3398.5"/>
				<line id="XMLID_1443_" class="st2" x1="772.1" y1="3416.5" x2="780.1" y2="3416.5"/>
				<path id="XMLID_1442_" class="st2" d="M802.7,3433.6c3.3-5,11-6.5,12.7-12.2c0.6-2,0.3-4.1,0.8-6.1c1.1-4.4,5.4-7.1,9.4-9.2
					c2.6-1.4,6.3-2.7,8.2-0.4c2.3,2.8-0.7,7.9,2.1,10.3c1.3,1.1,3.3,0.9,4.8,0.1c1.5-0.8,2.6-2.2,3.8-3.4c3.2-3.1,7.5-5.1,11.9-5.7"
					/>
				<path id="XMLID_1441_" class="st2" d="M808.4,3441.8c2.9-3.1,6-6.1,9.2-9c3.7-3.3,8-6.5,12.9-6.3c4,0.2,7.5,2.7,11.4,3.9
					c5,1.4,10.6,0.4,14.6-2.8"/>
				<path id="XMLID_1440_" class="st2" d="M802.7,3413.1c8.4-4.6,14.6-13,23.8-15.9c3.3-1,7.3-1.1,9.8,1.3c1.7,1.6,2.5,4.3,4.7,5.2
					c2.6,1.1,5.3-0.9,7.2-3c2-2.3,3.8-4.8,5.1-7.5"/>
				<line id="XMLID_1439_" class="st1" x1="781.4" y1="3424.2" x2="608.5" y2="3424.2"/>
				<line id="XMLID_1438_" class="st1" x1="777.4" y1="3401.2" x2="777.4" y2="3409.2"/>
				<g id="XMLID_1431_">
					<rect id="XMLID_1437_" x="792.1" y="3379.2" class="st1" width="74.9" height="74.9"/>
					<path id="XMLID_1436_" class="st1" d="M845,3443.9h-30.9c-6.5,0-11.8-5.3-11.8-11.8v-30.9c0-6.5,5.3-11.8,11.8-11.8H845
						c6.5,0,11.8,5.3,11.8,11.8v30.9C856.8,3438.6,851.5,3443.9,845,3443.9z"/>
					<circle id="XMLID_1435_" class="st1" cx="799" cy="3386" r="2.2"/>
					<circle id="XMLID_1434_" class="st1" cx="860.2" cy="3386" r="2.2"/>
					<circle id="XMLID_1433_" class="st1" cx="799" cy="3447.2" r="2.2"/>
					<circle id="XMLID_1432_" class="st1" cx="860.2" cy="3447.2" r="2.2"/>
				</g>
				<g id="XMLID_1426_">
					<g id="XMLID_1427_">
						<polyline id="XMLID_1430_" class="st1" points="792.3,3383 781.4,3383 781.4,3428.2 792.3,3428.2 						"/>
						<rect id="XMLID_1429_" x="771.4" y="3409.2" class="st1" width="9.9" height="9.9"/>
						<rect id="XMLID_1428_" x="771.4" y="3391.2" class="st1" width="9.9" height="9.9"/>
					</g>
				</g>
				<path id="XMLID_1425_" class="st1" d="M581.4,3423.5c13.3,19.1,55.3,37.8,80.6,33.9c21-3.2,36.6-21.1,54.8-31.9
					c16.5-9.8,36-14.4,54.6-11.4"/>
				<path id="XMLID_1424_" class="st1" d="M581.4,3431.3c17.9,19.9,44.5,45,74.7,44c16.8-0.5,32.5-9.2,45.1-20.3
					c12.6-11.2,22.6-24.8,33.4-37.8c5.3-6.4,11-12.8,18.2-17c5.5-3.2,12.2-5,18.4-4.2"/>
			</g>
		</g>
		<g id="XMLID_1356_">
			<path id="XMLID_1421_" class="st0" d="M582,3546.3c-0.2,0-0.5,0.1-0.7,0.1v-19.3v-320.5v-30.7h-30.4H-1.4l0.3,95.2H326
				l-0.1,286.8h225h30.4v-11.4L582,3546.3z"/>
			<g id="XMLID_1378_">
				<line id="XMLID_1420_" class="st1" x1="355.5" y1="3201.8" x2="355.5" y2="3498.4"/>
				<line id="XMLID_1419_" class="st1" x1="428.7" y1="3201.8" x2="428.7" y2="3498.4"/>
				<line id="XMLID_1418_" class="st1" x1="458.3" y1="3201.8" x2="458.3" y2="3498.4"/>
				<path id="XMLID_1417_" class="st1" d="M-1.4,3181.7c193.6,1.3,388.6-1.7,582.6,1.3c0,126,0,251,0,377c-25.2,0,0-7.7,0,0
					c-128,0-257,0-385.2-0.3"/>
				<polyline id="XMLID_1416_" class="st1" points="-0.6,3201.8 561.3,3201.8 561.3,3498.4 325.9,3498.4 				"/>
				<polyline id="XMLID_1415_" class="st1" points="550.9,3201.8 550.9,3181.7 581.4,3181.7 581.4,3212.1 561.3,3212.1 				"/>
				<rect id="XMLID_1414_" x="550.9" y="3529.3" class="st1" width="30.4" height="30.4"/>
				<polyline id="XMLID_1413_" class="st1" points="480.9,3559.7 480.9,3529.3 325.9,3529.3 				"/>
				<line id="XMLID_1412_" class="st1" x1="561.3" y1="3424.2" x2="325.9" y2="3424.2"/>
				<line id="XMLID_1411_" class="st1" x1="561.3" y1="3350.1" x2="325.9" y2="3350.1"/>
				<line id="XMLID_1410_" class="st1" x1="561.3" y1="3275.9" x2="-0.6" y2="3275.9"/>
				<line id="XMLID_1409_" class="st1" x1="392.3" y1="3201.8" x2="392.3" y2="3498.4"/>
				<g id="XMLID_1404_">
					<line id="XMLID_1408_" class="st1" x1="428.7" y1="3424.2" x2="428.7" y2="3498.4"/>
					<line id="XMLID_1407_" class="st1" x1="458.3" y1="3424.2" x2="458.3" y2="3498.4"/>
					<g id="XMLID_1405_">
						<line id="XMLID_1406_" class="st1" x1="355.5" y1="3424.2" x2="355.5" y2="3498.4"/>
					</g>
				</g>
				<g id="XMLID_1399_">
					<line id="XMLID_1403_" class="st1" x1="428.7" y1="3201.8" x2="428.7" y2="3275.9"/>
					<line id="XMLID_1402_" class="st1" x1="458.3" y1="3201.8" x2="458.3" y2="3275.9"/>
					<g id="XMLID_1400_">
						<line id="XMLID_1401_" class="st1" x1="355.5" y1="3201.8" x2="355.5" y2="3275.9"/>
					</g>
				</g>
				<path id="XMLID_1398_" class="st2" d="M551.5,3189.5c9.7-1.4,19.5-1.8,29.3-1.3"/>
				<path id="XMLID_1397_" class="st2" d="M550.8,3195.3c9.8,0.1,19.6,0.2,29.3,0.3"/>
				<path id="XMLID_1396_" class="st2" d="M550.8,3537.8c6.1-2.6,12.1-5.2,18.1-7.9"/>
				<path id="XMLID_1395_" class="st2" d="M551.6,3549.9c9.3-3.7,19.1-6,29-7"/>
				<path id="XMLID_1394_" class="st2" d="M551,3553.2c1.7-0.9,3.6-1.2,5.5-1.5c8.5-1.1,17-2.3,25.5-3.4"/>
				<path id="XMLID_1393_" class="st2" d="M555,3559.4c8.6-2,17.3-3.7,26.1-5.2"/>
				<path id="XMLID_1392_" class="st2" d="M330.6,3530.2c12.3,2.3,24.3,6.4,36.2,10.4c18.1,6.1,36.2,12.2,54.3,18.4"/>
				<path id="XMLID_1391_" class="st2" d="M349.8,3528.8c31.4,11.6,63.3,21.6,95.6,30.2"/>
				<path id="XMLID_1390_" class="st2" d="M376.2,3529.1c17.2,4.1,34.4,8.2,51.5,12.3c2.2,0.5,4.4,1.1,5.9,2.8
					c1.1,1.2,1.6,2.8,2.7,4.1c3.1,3.5,8.6,2.1,13.1,2.9c2.9,0.5,5.5,1.9,8.3,3c7.1,2.7,15.2,2.6,22.2-0.3"/>
				<path id="XMLID_1389_" class="st2" d="M415.8,3528.8c13.4,3.6,26.8,7.3,40.2,10.9c7.2,2,14.6,3.9,22,3.5
					c0.9-0.1,2.2,0.1,2.3,1.1"/>
				<path id="XMLID_1388_" class="st2" d="M449.8,3529c9.8,4.3,20.3,7.2,30.9,8.7"/>
				<path id="XMLID_1387_" class="st2" d="M337.7,3498.1c24.8,10.5,52.4,11.6,79.3,12.5c35.4,1.2,70.9,2.5,106.3,3.7
					c19,0.7,38,1.3,56.9-0.4"/>
				<line id="XMLID_1386_" class="st2" x1="568.7" y1="3212.1" x2="568.7" y2="3514.4"/>
				<line id="XMLID_1385_" class="st2" x1="550.7" y1="3193.4" x2="-0.6" y2="3193.4"/>
				<line id="XMLID_1384_" class="st2" x1="540.2" y1="3201.8" x2="540.2" y2="3498.4"/>
				<line id="XMLID_1383_" class="st2" x1="435.2" y1="3201.8" x2="435.2" y2="3499.4"/>
				<line id="XMLID_1382_" class="st2" x1="462.8" y1="3201.5" x2="462.8" y2="3496.9"/>
				<path id="XMLID_1381_" class="st2" d="M394.8,3201.5c0,0.2,0,0.4,0,0.7v294.7"/>
				<line id="XMLID_1380_" class="st1" x1="325.9" y1="3181.9" x2="325.9" y2="3559.9"/>
				<line id="XMLID_1379_" class="st1" x1="-1.4" y1="3181.7" x2="-1.4" y2="3275.9"/>
			</g>
			<g id="XMLID_1357_">
				<path id="XMLID_1377_" class="st1" d="M-0.6,3218.4c34.4,16.5,74.5,17.3,112.9,15.6c30.9-1.4,61.9-4.2,91.5-13.2
					c25.5-7.8,50-20.5,69-39.1"/>
				<path id="XMLID_1376_" class="st1" d="M-0.6,3195.6c38.8,21.8,80.5,39.1,124.5,46c47.1,7.4,97,2.2,138.9-20.4
					c17.5-9.4,33.9-22.5,43.7-39.5"/>
				<g id="XMLID_1358_">
					<g id="XMLID_1373_">
						<polygon id="XMLID_1375_" class="st0" points="335.7,3225.9 331.8,3225.9 331.8,3209.9 329.7,3209.9 329.7,3205.7 
							320.1,3205.7 320.1,3209.9 313.9,3209.9 313.9,3205.7 304.3,3205.7 304.3,3209.9 302.3,3209.9 302.3,3225.9 298.3,3225.9 
							298.3,3234.7 320.6,3234.7 335.7,3234.7 						"/>
						<path id="XMLID_1374_" class="st0" d="M319.4,3234.7h-21.1v10.1c0,10.4,8.4,18.9,18.7,18.9s18.7-8.5,18.7-18.9v-10.1h-15.2
							l0,0H319.4z"/>
					</g>
					<g id="XMLID_1366_">
						<path id="XMLID_1372_" class="st1" d="M298.3,3240v10c0,10.3,8.4,18.7,18.7,18.7l0,0c10.3,0,18.7-8.4,18.7-18.7v-10"/>
						<rect id="XMLID_1371_" x="298.3" y="3231.3" class="st1" width="37.4" height="8.7"/>
						<path id="XMLID_1370_" class="st1" d="M313.5,3240v14.7c0,2,1.6,3.5,3.5,3.5l0,0c2,0,3.5-1.6,3.5-3.5V3240"/>
						<rect id="XMLID_1369_" x="302.3" y="3215.4" class="st1" width="29.5" height="15.8"/>
						<rect id="XMLID_1368_" x="304.3" y="3211.3" class="st1" width="9.6" height="4.1"/>
						<rect id="XMLID_1367_" x="320.1" y="3211.3" class="st1" width="9.6" height="4.1"/>
					</g>
					<path id="XMLID_1365_" class="st1" d="M325.3,3211.3c-0.2-9.9-0.2-19.8,0.1-29.6"/>
					<path id="XMLID_1364_" class="st1" d="M310.1,3181.7c0.2,9.9,0.1,19.8-0.1,29.6"/>
					<line id="XMLID_1363_" class="st1" x1="325.9" y1="3216.9" x2="325.9" y2="3231.3"/>
					<line id="XMLID_1362_" class="st1" x1="317.4" y1="3216.9" x2="317.4" y2="3230"/>
					<line id="XMLID_1361_" class="st1" x1="321.9" y1="3231.3" x2="321.9" y2="3240"/>
					<line id="XMLID_1360_" class="st1" x1="327.9" y1="3231.4" x2="327.9" y2="3239.4"/>
					<line id="XMLID_1359_" class="st1" x1="306.9" y1="3231.9" x2="306.9" y2="3240"/>
				</g>
			</g>
		</g>
	</g>
	<g id="_x31_7">
		<g id="XMLID_351_">
			<polygon id="XMLID_357_" class="st0" points="392.3,2729.1 392.3,2745 -0.6,2745 -0.6,2765.9 392.3,2765.9 392.3,2781.8 
				397.7,2781.8 397.7,2729.1 			"/>
			<rect id="XMLID_356_" x="-0.6" y="2755.4" class="st1" width="392.9" height="20.7"/>
			<rect id="XMLID_355_" x="392.3" y="2739.6" class="st1" width="5.4" height="52.2"/>
			<line id="XMLID_354_" class="st1" x1="386.8" y1="2755.5" x2="386.8" y2="2776.2"/>
			<line id="XMLID_353_" class="st1" x1="381.4" y1="2756.2" x2="381.4" y2="2774.9"/>
			<line id="XMLID_352_" class="st2" x1="-0.9" y1="2769.8" x2="381.1" y2="2769.8"/>
		</g>
		<g id="XMLID_342_">
			<rect id="XMLID_350_" x="-0.6" y="2650.1" class="st0" width="398.3" height="33.4"/>
			<polyline id="XMLID_349_" class="st1" points="397.7,2694.6 -0.6,2694.6 -0.6,2661.5 397.7,2661.5 			"/>
			<line id="XMLID_348_" class="st1" x1="391.4" y1="2662.2" x2="391.4" y2="2694.2"/>
			<line id="XMLID_347_" class="st1" x1="386.1" y1="2662.8" x2="386.1" y2="2694.9"/>
			<line id="XMLID_346_" class="st1" x1="364.8" y1="2662.8" x2="364.8" y2="2694.2"/>
			<line id="XMLID_345_" class="st1" x1="364.7" y1="2683.4" x2="-1.4" y2="2683.4"/>
			<line id="XMLID_344_" class="st2" x1="-0.9" y1="2675.8" x2="364.1" y2="2675.8"/>
			<line id="XMLID_343_" class="st1" x1="397.7" y1="2661.5" x2="397.7" y2="2694.6"/>
		</g>
		<g id="XMLID_306_">
			<path id="XMLID_1_" class="st1" d="M735.1,2628.8"/>
			<line id="XMLID_313_" class="st1" x1="740.8" y1="2601.8" x2="740.8" y2="2611.8"/>
			<line id="XMLID_307_" class="st3" x1="736.1" y1="2601.8" x2="736.1" y2="2612.8"/>
		</g>
		<g id="XMLID_101_">
			<line id="XMLID_149_" class="st1" x1="1282.1" y1="2798.8" x2="1320.1" y2="2798.8"/>
			<line id="XMLID_148_" class="st1" x1="1281.5" y1="2790.8" x2="1320" y2="2790.8"/>
			<line id="XMLID_147_" class="st1" x1="1436.1" y1="2796.8" x2="1474.6" y2="2796.8"/>
			<line id="XMLID_146_" class="st1" x1="1436.6" y1="2791.8" x2="1474.6" y2="2791.8"/>
			<line id="XMLID_138_" class="st1" x1="741.1" y1="2661.5" x2="741.1" y2="2694.6"/>
			<line id="XMLID_105_" class="st3" x1="735.2" y1="2661.5" x2="735.2" y2="2694.6"/>
			<line id="XMLID_104_" class="st3" x1="1281.5" y1="2803.7" x2="1320" y2="2803.7"/>
			<line id="XMLID_103_" class="st3" x1="1436.1" y1="2803.7" x2="1474.6" y2="2803.7"/>
		</g>
		<g id="XMLID_2_">
			<g id="XMLID_3_">
				<g id="XMLID_60_">
					<polyline id="XMLID_68_" class="st1" points="735.2,2766.5 735.2,2803.7 397.7,2803.7 397.7,2580.6 735.2,2580.6 735.2,2728 
											"/>
					<line id="XMLID_67_" class="st2" x1="398.1" y1="2796.8" x2="734.2" y2="2796.8"/>
					<g id="XMLID_62_">
						<rect id="XMLID_66_" x="986" y="2684.1" class="st0" width="45.2" height="11.1"/>
						<rect id="XMLID_65_" x="1012.2" y="2695.1" class="st0" width="9.9" height="10"/>
						<rect id="XMLID_64_" x="994.2" y="2695.1" class="st0" width="9.9" height="10"/>
						<path id="XMLID_63_" class="st0" d="M783.4,2705.2v12.2h-48.3v-148.9h6.5c2.3,0,4.2-1.9,4.2-4.3s-1.9-4.3-4.2-4.3H391.2
							c-2.3,0-4.2,1.9-4.2,4.3s1.9,4.3,4.2,4.3h6.5v225.4h337.5v-37.5h48.3v12.2H818v-63.3L783.4,2705.2L783.4,2705.2z"/>
					</g>
					<line id="XMLID_61_" class="st1" x1="986" y1="2695.1" x2="1031.2" y2="2695.1"/>
				</g>
				<g id="XMLID_55_">
					<g id="XMLID_56_">
						<polyline id="XMLID_59_" class="st1" points="986,2695.1 986,2706 1031.2,2706 1031.2,2695.1 						"/>
						<rect id="XMLID_58_" x="1012.2" y="2706" class="st1" width="9.9" height="9.9"/>
						<rect id="XMLID_57_" x="994.2" y="2706" class="st1" width="9.9" height="9.9"/>
					</g>
				</g>
				<path id="XMLID_54_" class="st1" d="M741.7,2572.2H391.2c-2.3,0-4.2,1.9-4.2,4.2l0,0c0,2.3,1.9,4.2,4.2,4.2h350.5
					c2.3,0,4.2-1.9,4.2-4.2l0,0C745.9,2574.1,744,2572.2,741.7,2572.2z"/>
				<path id="XMLID_53_" class="st1" d="M397.7,2629.6c24.1,0,24.1,12,48.2,12s24.1-12,48.2-12c24.1,0,24.1,12,48.2,12
					c24.1,0,24.1-12,48.2-12c24.1,0,24.1,12,48.2,12c24.1,0,24.1-12,48.2-12c24.1,0,24.1,12,48.2,12"/>
				<g id="XMLID_49_">
					<path id="XMLID_52_" class="st1" d="M783.4,2766.5H642.2c-10.6,0-19.3-8.6-19.3-19.3l0,0c0-10.6,8.6-19.3,19.3-19.3h141.3"/>
					<path id="XMLID_51_" class="st1" d="M660.8,2728c-4.8-4.7-11.4-7.5-18.6-7.5c-14.8,0-26.8,12-26.8,26.8s12,26.8,26.8,26.8
						c7.2,0,13.8-2.9,18.6-7.5"/>
					<path id="XMLID_50_" class="st1" d="M668.9,2728c-6-8.3-15.7-13.7-26.7-13.7c-18.2,0-33,14.8-33,33s14.8,33,33,33
						c11,0,20.7-5.4,26.7-13.7"/>
				</g>
				<circle id="XMLID_48_" class="st1" cx="541.4" cy="2711" r="7.7"/>
				<circle id="XMLID_47_" class="st1" cx="581.2" cy="2733.8" r="7.2"/>
				<circle id="XMLID_46_" class="st1" cx="669.6" cy="2655.1" r="3"/>
				<circle id="XMLID_45_" class="st1" cx="594.7" cy="2658.5" r="6.4"/>
				<circle id="XMLID_44_" class="st1" cx="587.6" cy="2708.5" r="2.5"/>
				<circle id="XMLID_43_" class="st1" cx="545.3" cy="2759.2" r="3.8"/>
				<circle id="XMLID_42_" class="st1" cx="505.1" cy="2752.3" r="3"/>
				<circle id="XMLID_41_" class="st1" cx="426.9" cy="2662.6" r="4.2"/>
				<circle id="XMLID_40_" class="st1" cx="458.9" cy="2736.6" r="2.8"/>
				<circle id="XMLID_39_" class="st1" cx="641.3" cy="2696.9" r="2.3"/>
				<circle id="XMLID_38_" class="st1" cx="544.3" cy="2671.7" r="2.8"/>
				<circle id="XMLID_37_" class="st1" cx="492.4" cy="2730.4" r="3.8"/>
				<circle id="XMLID_36_" class="st1" cx="466.9" cy="2674.1" r="5.3"/>
				<circle id="XMLID_35_" class="st1" cx="579.5" cy="2785" r="4.8"/>
				<circle id="XMLID_34_" class="st1" cx="633.3" cy="2667.4" r="4.7"/>
				<circle id="XMLID_33_" class="st1" cx="615.1" cy="2709" r="3"/>
				<circle id="XMLID_32_" class="st1" cx="509.6" cy="2687.8" r="4.5"/>
				<circle id="XMLID_31_" class="st1" cx="565.8" cy="2656.3" r="2.2"/>
				<circle id="XMLID_30_" class="st1" cx="557.4" cy="2693.4" r="6.3"/>
				<circle id="XMLID_29_" class="st1" cx="526.4" cy="2738.8" r="2.3"/>
				<rect id="XMLID_28_" x="783.4" y="2716" class="st1" width="34.6" height="62.6"/>
				<path id="XMLID_27_" class="st1" d="M1000.1,2716c1.4,9.7-5.9,19.2-14,25.3c-20.8,15.8-48.1,20.2-74.2,20.2
					c-32-0.1-64.1-6.2-93.9-17.9"/>
				<path id="XMLID_26_" class="st1" d="M818,2733.9c7.1,2.4,13.8,6.1,20.4,9.7c20.8,11.3,42,22.1,64.5,29.2
					c22.5,7.1,46.6,10.5,70,6.7c12.6-2,25.5-6.6,33.6-16.4c10.4-12.7,12.3-30.5,11.1-47"/>
				<path id="XMLID_25_" class="st1" d="M818,2759.9c20.1,1.3,40.8-3.1,57.8-14c17.9-11.5,31.4-30.3,34.7-51.3"/>
				<path id="XMLID_24_" class="st1" d="M818,2770.1c20.6,3.9,42.1,4.7,61.7-2.1c31.2-10.9,53.6-40.9,59.5-73.4"/>
				<line id="XMLID_23_" class="st1" x1="994.1" y1="2710.8" x2="1003.2" y2="2710.8"/>
				<line id="XMLID_22_" class="st1" x1="1013.1" y1="2710.3" x2="1021.6" y2="2710.3"/>
				<line id="XMLID_21_" class="st1" x1="813.6" y1="2716.8" x2="813.6" y2="2777.3"/>
				<line id="XMLID_20_" class="st1" x1="805.6" y1="2716" x2="805.6" y2="2778.6"/>
				<line id="XMLID_19_" class="st1" x1="647.4" y1="2754.2" x2="771.5" y2="2754.2"/>
				<line id="XMLID_18_" class="st2" x1="399.1" y1="2586.8" x2="734.4" y2="2586.8"/>
				<line id="XMLID_17_" class="st2" x1="784.1" y1="2774.8" x2="818" y2="2774.8"/>
				<line id="XMLID_16_" class="st2" x1="784.1" y1="2769.8" x2="805.1" y2="2769.8"/>
				<line id="XMLID_15_" class="st2" x1="986.1" y1="2698.8" x2="1030.2" y2="2698.8"/>
				<line id="XMLID_14_" class="st1" x1="777.4" y1="2728" x2="777.4" y2="2766.5"/>
				<line id="XMLID_13_" class="st1" x1="771.6" y1="2728" x2="771.6" y2="2766.5"/>
				<g id="XMLID_9_">
					<polyline id="XMLID_12_" class="st1" points="735.2,2766.5 735.2,2803.7 397.7,2803.7 397.7,2580.6 735.2,2580.6 735.2,2728 
											"/>
					<line id="XMLID_11_" class="st2" x1="398.1" y1="2796.8" x2="734.2" y2="2796.8"/>
					<line id="XMLID_10_" class="st1" x1="986" y1="2695.1" x2="1031.2" y2="2695.1"/>
				</g>
				<line id="XMLID_8_" class="st2" x1="398.1" y1="2796.8" x2="734.2" y2="2796.8"/>
				<polyline id="XMLID_7_" class="st1" points="735.2,2766.5 735.2,2803.7 397.7,2803.7 397.7,2580.6 735.2,2580.6 735.2,2728 				
					"/>
				<line id="XMLID_6_" class="st1" x1="986" y1="2695.1" x2="1031.2" y2="2695.1"/>
				<line id="XMLID_5_" class="st1" x1="777.4" y1="2728" x2="777.4" y2="2766.5"/>
				<line id="XMLID_4_" class="st4" x1="771.6" y1="2728" x2="771.6" y2="2766.5"/>
			</g>
		</g>
	</g>
</g>
</svg>
